M48
INCH,TZ
T1C0.0118
T2C0.0157
T3C0.0315
T4C0.0394
T5C0.0433
T6C0.0472
%
G90
G05
T1
X79100Y-35350
X79950Y-51600
X80900Y-29300
X81100Y-21700
X81200Y-25300
X83500Y-23100
X83800Y-37250
X84000Y-44650
X84300Y-26200
X84500Y-15800
X84500Y-29300
X86200Y-19200
X86250Y-32700
X86500Y-23800
X86670Y-20870
X86700Y-26000
X92150Y-34100
X92150Y-34100
X97200Y-12800
X101800Y-21600
X101800Y-29100
X101800Y-32600
X101950Y-15400
X102700Y-48050
X103500Y-12900
X103500Y-19000
X103500Y-25200
X103500Y-40100
X103500Y-40100
X104000Y-35400
X107800Y-24850
T2
X83300Y-25300
X83300Y-27240
X84300Y-20501
X84600Y-23600
X84600Y-30000
X85000Y-19398
X85100Y-25200
X85160Y-15820
X85160Y-21650
X85200Y-18100
X85200Y-28100
X85300Y-23100
X85400Y-31600
X85600Y-29700
X85700Y-38000
X85750Y-19371
X85864Y-20472
X85930Y-26323
X86800Y-27240
X87100Y-33800
X87800Y-38900
X87840Y-13700
X93820Y-27800
X95800Y-43950
X95800Y-45300
X96600Y-46100
X96900Y-39600
X96900Y-49900
X97750Y-47200
X98100Y-40015
X99000Y-47200
X99100Y-36400
X101200Y-26500
X101200Y-37300
X101300Y-39700
X101800Y-22200
X101800Y-33300
X101800Y-36400
X102300Y-17600
X102300Y-24000
X102364Y-34800
X102491Y-31294
X102536Y-20196
X102600Y-21800
X102700Y-15700
X102700Y-33000
X103300Y-28600
T3
X91320Y-17946
X91320Y-18734
X92107Y-17946
X92107Y-18734
X92860Y-13127
X92895Y-17946
X92895Y-18734
X93480Y-46056
X93480Y-47040
X93510Y-50286
X93510Y-51270
X93860Y-13127
X100106Y-50020
X100910Y-47230
X100910Y-48214
X101090Y-50020
T4
X79000Y-16300
X79000Y-17300
X79000Y-18300
X79000Y-19300
X79000Y-20300
X79000Y-21300
X79000Y-22300
X79000Y-23300
X79000Y-24300
X79000Y-25300
X79000Y-26300
X79000Y-27300
X79000Y-28300
X79000Y-29300
X79000Y-30300
X79000Y-31300
X79000Y-32300
X79000Y-33300
X79000Y-34300
X86990Y-43750
X86990Y-44750
X86990Y-45750
X86990Y-46750
X86990Y-47750
X86990Y-48750
X86990Y-49750
X86990Y-50750
X87990Y-43750
X87990Y-44750
X87990Y-45750
X87990Y-46750
X87990Y-47750
X87990Y-48750
X87990Y-49750
X87990Y-50750
X99180Y-52000
X100180Y-52000
X101180Y-52000
X108600Y-16300
X108600Y-17300
X108600Y-18300
X108600Y-19300
X108600Y-20300
X108600Y-21300
X108600Y-22300
X108600Y-23300
X108600Y-24300
X108600Y-25300
X108600Y-26300
X108600Y-27300
X108600Y-28300
X108600Y-29300
X108600Y-30300
X108600Y-31300
X108600Y-32300
X108600Y-33300
X108600Y-34300
T5
X90360Y-12840
X90360Y-13840
X90360Y-14840
X90360Y-15840
X90360Y-16840
X90360Y-17840
X90360Y-18840
X90360Y-19840
X90360Y-20840
X90360Y-21840
X90360Y-22840
X90360Y-23840
X90360Y-24840
X90360Y-25840
X90360Y-26840
X90360Y-27840
X90360Y-28840
X90360Y-29840
X90360Y-30840
X90360Y-31840
X90360Y-32840
X90360Y-33840
X90360Y-34840
X90360Y-35840
X91360Y-13840
X91360Y-30840
X92360Y-30840
X93360Y-30840
X94360Y-30840
X95159Y-15320
X95159Y-16320
X95159Y-17320
X95159Y-18320
X95159Y-19320
X95360Y-30840
X96360Y-12840
X96360Y-13840
X96360Y-14840
X96360Y-15840
X96360Y-16840
X96360Y-17840
X96360Y-18840
X96360Y-19840
X96360Y-20840
X96360Y-21840
X96360Y-22840
X96360Y-23840
X96360Y-24840
X96360Y-25840
X96360Y-26840
X96360Y-27840
X96360Y-28840
X96360Y-29840
X96360Y-30840
X96360Y-31840
X96360Y-32840
X96360Y-33840
X96360Y-34840
X96360Y-35840
T6
X96040Y-47240
X96040Y-48240
X96040Y-49240
T0
M30
