M48
; DRILL file {KiCad (5.1.5-0)} date Monday, October 12, 2020 at 11:14:31 PM
; FORMAT={-:-/ absolute / inch / decimal}
; #@! TF.CreationDate,2020-10-12T23:14:31-05:00
; #@! TF.GenerationSoftware,Kicad,Pcbnew,(5.1.5-0)
; #@! TF.FileFunction,Plated,1,2,PTH
FMAT,2
INCH
T1C0.0118
T2C0.0157
T3C0.0315
T4C0.0394
T5C0.0400
T6C0.0433
%
G90
G05
T1
X10.475Y-4.015
X7.955Y-4.29
X10.46Y-1.27
X9.83Y-1.23
X10.805Y-2.08
X10.75Y-2.365
X10.32Y-1.81
X8.115Y-2.985
X8.64Y-1.495
X8.515Y-4.315
X10.19Y-1.23
X10.16Y-3.355
X8.51Y-1.71
X8.56Y-3.18
X10.35Y-3.495
X8.555Y-2.22
X8.805Y-1.225
X8.515Y-4.76
X9.4Y-1.505
X9.87Y-1.5
X10.13Y-1.655
X10.75Y-2.27
X10.255Y-1.955
X10.33Y-2.88
X8.395Y-1.225
X10.16Y-4.205
X8.54Y-4.005
X10.01Y-1.225
X10.05Y-1.505
X10.13Y-2.12
X10.135Y-2.315
X8.05Y-2.45
X8.43Y-3.33
X10.285Y-3.65
X8.43Y-1.92
X7.91Y-3.535
X9.64Y-1.225
X10.135Y-2.74
X8.025Y-1.955
X10.255Y-3.03
X8.435Y-2.645
X8.6Y-1.225
T2
X8.07Y-4.395
X8.25Y-4.605
X8.335Y-3.835
X8.35Y-1.265
X8.35Y-2.725
X8.355Y-3.415
X8.365Y-2.41
X8.375Y-4.175
X8.38Y-3.955
X8.385Y-2.29
X8.3898Y-3.2219
X8.395Y-1.81
X8.405Y-2.53
X8.415Y-2.165
X8.42Y-3.0039
X8.42Y-3.1
X8.4213Y-3.5713
X8.43Y-2.89
X8.435Y-3.38
X8.44Y-1.975
X8.44Y-2.2839
X8.44Y-2.415
X8.445Y-2.695
X8.47Y-3.11
X8.48Y-1.45
X8.485Y-1.265
X8.5Y-3.0
X8.55Y-1.265
X8.5801Y-1.3301
X8.685Y-1.45
X8.6889Y-1.265
X8.745Y-4.005
X8.745Y-4.34
X8.76Y-1.265
X8.88Y-1.45
X8.89Y-1.59
X8.99Y-1.35
X9.18Y-1.595
X9.215Y-4.345
X9.255Y-1.595
X9.26Y-1.66
X9.35Y-1.36
X9.59Y-1.365
X9.595Y-1.265
X9.725Y-1.445
X9.725Y-1.665
X9.7296Y-1.2488
X9.785Y-1.265
X9.82Y-4.245
X9.85Y-1.3201
X9.91Y-1.42
X9.9231Y-1.2512
X9.925Y-4.24
X9.97Y-1.26
X10.07Y-1.4
X10.111Y-1.259
X10.19Y-2.34
X10.21Y-1.3201
X10.255Y-2.965
X10.26Y-1.715
X10.26Y-2.78
X10.27Y-3.58
X10.275Y-2.08
X10.29Y-3.14
X10.29Y-3.77
X10.31Y-4.39
X10.34Y-2.645
X10.34Y-4.08
X10.345Y-2.95
X10.36Y-3.555
X10.375Y-1.375
X10.48Y-2.475
X10.895Y-1.465
T3
X9.625Y-4.722
X9.625Y-4.822
X9.625Y-4.922
X9.63Y-5.03
X9.63Y-5.1284
X9.175Y-2.2696
X9.175Y-2.3484
X9.2537Y-2.2696
X9.2537Y-2.3484
X9.329Y-1.7877
X9.3325Y-2.2696
X9.3325Y-2.3484
X9.429Y-1.7877
X9.348Y-4.6056
X9.348Y-4.704
X9.9Y-4.72
X9.9Y-4.82
X9.9Y-4.92
X9.351Y-5.0286
X9.351Y-5.127
X10.09Y-4.7216
X10.09Y-4.82
T4
X10.86Y-1.63
X10.86Y-1.73
X10.86Y-1.83
X10.86Y-1.93
X10.86Y-2.03
X10.86Y-2.13
X10.86Y-2.23
X10.86Y-2.33
X10.86Y-2.43
X10.86Y-2.53
X10.86Y-2.63
X10.86Y-2.73
X10.86Y-2.83
X10.86Y-2.93
X10.86Y-3.03
X10.86Y-3.13
X10.86Y-3.23
X10.86Y-3.33
X10.86Y-3.43
X7.9Y-1.63
X7.9Y-1.73
X7.9Y-1.83
X7.9Y-1.93
X7.9Y-2.03
X7.9Y-2.13
X7.9Y-2.23
X7.9Y-2.33
X7.9Y-2.43
X7.9Y-2.53
X7.9Y-2.63
X7.9Y-2.73
X7.9Y-2.83
X7.9Y-2.93
X7.9Y-3.03
X7.9Y-3.13
X7.9Y-3.23
X7.9Y-3.33
X7.9Y-3.43
T5
X8.699Y-4.675
X8.699Y-4.775
X8.699Y-4.875
X8.699Y-4.975
X8.699Y-5.075
X8.799Y-4.675
X8.799Y-4.775
X8.799Y-4.875
X8.799Y-4.975
X8.799Y-5.075
T6
X9.079Y-1.759
X9.079Y-1.859
X9.079Y-1.959
X9.079Y-2.059
X9.079Y-2.159
X9.079Y-2.259
X9.079Y-2.359
X9.079Y-2.459
X9.079Y-2.559
X9.079Y-2.659
X9.079Y-2.759
X9.079Y-2.859
X9.079Y-2.959
X9.079Y-3.059
X9.079Y-3.159
X9.079Y-3.259
X9.079Y-3.359
X9.079Y-3.459
X9.079Y-3.559
X9.079Y-3.659
X9.079Y-3.759
X9.079Y-3.859
X9.079Y-3.959
X9.079Y-4.059
X9.179Y-1.859
X9.179Y-3.559
X9.279Y-3.559
X9.379Y-3.559
X9.479Y-3.559
X9.5589Y-2.007
X9.5589Y-2.107
X9.5589Y-2.207
X9.5589Y-2.307
X9.5589Y-2.407
X9.579Y-3.559
X9.679Y-1.759
X9.679Y-1.859
X9.679Y-1.959
X9.679Y-2.059
X9.679Y-2.159
X9.679Y-2.259
X9.679Y-2.359
X9.679Y-2.459
X9.679Y-2.559
X9.679Y-2.659
X9.679Y-2.759
X9.679Y-2.859
X9.679Y-2.959
X9.679Y-3.059
X9.679Y-3.159
X9.679Y-3.259
X9.679Y-3.359
X9.679Y-3.459
X9.679Y-3.559
X9.679Y-3.659
X9.679Y-3.759
X9.679Y-3.859
X9.679Y-3.959
X9.679Y-4.059
T0
M30
