M48
INCH,TZ
T1C0.0118
T2C0.0157
T3C0.0315
T4C0.0394
T5C0.0433
%
G90
G05
T1
X79100Y-35350
X79950Y-51600
X80540Y-17180
X80550Y-21700
X80670Y-25630
X80900Y-29300
X81950Y-34200
X83190Y-40120
X84000Y-44650
X84300Y-26200
X84500Y-15800
X84500Y-29300
X84790Y-23700
X85060Y-37430
X86200Y-19200
X86220Y-27760
X86250Y-32700
X86670Y-20870
X86700Y-26000
X92150Y-34100
X92150Y-34100
X97200Y-12800
X98930Y-21630
X98940Y-15410
X100480Y-36280
X101610Y-37150
X101800Y-21600
X101800Y-29100
X101800Y-32600
X101850Y-33690
X101860Y-26530
X101900Y-15480
X103220Y-49450
X103400Y-39800
X103400Y-39800
X103500Y-12900
X103500Y-19000
X103500Y-25200
X104050Y-30480
X105250Y-35550
X107800Y-24850
T2
X81400Y-22840
X81590Y-28590
X82170Y-33170
X83230Y-26161
X83350Y-20710
X83396Y-15585
X83400Y-19210
X83410Y-23410
X83460Y-27110
X84637Y-16413
X84737Y-29964
X85160Y-15820
X85160Y-21650
X85200Y-28100
X85300Y-23100
X85586Y-33120
X85600Y-25950
X85750Y-19371
X85864Y-20500
X86800Y-27247
X87100Y-33800
X87100Y-37950
X87530Y-13710
X87800Y-38900
X90370Y-36490
X92390Y-48820
X93270Y-42290
X94180Y-37000
X94900Y-43810
X95890Y-50210
X96860Y-37285
X97140Y-36930
X97380Y-41730
X97920Y-30570
X98930Y-27810
X98970Y-36020
X100910Y-37780
X101600Y-36430
X101644Y-35894
X101814Y-22089
X101960Y-43480
X101980Y-33290
X101980Y-41570
X101985Y-16054
X102390Y-28410
X102536Y-20196
X102600Y-21800
X102636Y-31294
X102700Y-15700
X102726Y-25060
X103440Y-36300
X103700Y-36730
X107270Y-44510
X107560Y-36260
X109040Y-36520
T3
X90040Y-40120
X90640Y-49186
X90640Y-50170
X90880Y-44150
X90880Y-45134
X91024Y-40120
X91320Y-17946
X91320Y-18734
X92107Y-17946
X92107Y-18734
X92860Y-13127
X92895Y-17946
X92895Y-18734
X93040Y-38510
X93040Y-39510
X93040Y-40510
X93860Y-13127
X97086Y-40310
X98070Y-40310
X98500Y-46590
X99484Y-46590
T4
X79000Y-16300
X79000Y-17300
X79000Y-18300
X79000Y-19300
X79000Y-20300
X79000Y-21300
X79000Y-22300
X79000Y-23300
X79000Y-24300
X79000Y-25300
X79000Y-26300
X79000Y-27300
X79000Y-28300
X79000Y-29300
X79000Y-30300
X79000Y-31300
X79000Y-32300
X79000Y-33300
X79000Y-34300
X86144Y-43590
X86144Y-44590
X86144Y-45590
X86144Y-46590
X86144Y-47590
X86144Y-48590
X86144Y-49590
X86144Y-50590
X87144Y-43590
X87144Y-44590
X87144Y-45590
X87144Y-46590
X87144Y-47590
X87144Y-48590
X87144Y-49590
X87144Y-50590
X97169Y-49337
X97169Y-50337
X97169Y-51337
X99680Y-48734
X99680Y-49734
X99680Y-50734
X108600Y-16300
X108600Y-17300
X108600Y-18300
X108600Y-19300
X108600Y-20300
X108600Y-21300
X108600Y-22300
X108600Y-23300
X108600Y-24300
X108600Y-25300
X108600Y-26300
X108600Y-27300
X108600Y-28300
X108600Y-29300
X108600Y-30300
X108600Y-31300
X108600Y-32300
X108600Y-33300
X108600Y-34300
T5
X90360Y-12840
X90360Y-13840
X90360Y-14840
X90360Y-15840
X90360Y-16840
X90360Y-17840
X90360Y-18840
X90360Y-19840
X90360Y-20840
X90360Y-21840
X90360Y-22840
X90360Y-23840
X90360Y-24840
X90360Y-25840
X90360Y-26840
X90360Y-27840
X90360Y-28840
X90360Y-29840
X90360Y-30840
X90360Y-31840
X90360Y-32840
X90360Y-33840
X90360Y-34840
X90360Y-35840
X91360Y-13840
X91360Y-30840
X92360Y-30840
X93360Y-30840
X94360Y-30840
X95159Y-15320
X95159Y-16320
X95159Y-17320
X95159Y-18320
X95159Y-19320
X95360Y-30840
X96360Y-12840
X96360Y-13840
X96360Y-14840
X96360Y-15840
X96360Y-16840
X96360Y-17840
X96360Y-18840
X96360Y-19840
X96360Y-20840
X96360Y-21840
X96360Y-22840
X96360Y-23840
X96360Y-24840
X96360Y-25840
X96360Y-26840
X96360Y-27840
X96360Y-28840
X96360Y-29840
X96360Y-30840
X96360Y-31840
X96360Y-32840
X96360Y-33840
X96360Y-34840
X96360Y-35840
T0
M30
