M48
; DRILL file {KiCad (5.1.5-0)} date Wednesday, May 05, 2021 at 09:21:44 AM
; FORMAT={-:-/ absolute / inch / decimal}
; #@! TF.CreationDate,2021-05-05T09:21:44-05:00
; #@! TF.GenerationSoftware,Kicad,Pcbnew,(5.1.5-0)
; #@! TF.FileFunction,Plated,1,2,PTH
FMAT,2
INCH
T1C0.0118
T2C0.0157
T3C0.0315
T4C0.0394
T5C0.0400
T6C0.0433
%
G90
G05
T1
X10.35Y-1.9
X8.45Y-2.93
X7.995Y-5.16
X8.65Y-2.38
X8.667Y-2.087
X9.72Y-1.28
X8.875Y-3.455
X10.18Y-2.91
X10.42Y-3.77
X9.22Y-3.53
X8.39Y-3.59
X10.35Y-2.52
X10.39Y-3.97
X7.91Y-3.535
X8.61Y-3.87
X8.43Y-2.62
X10.18Y-2.16
X10.19Y-3.95
X10.35Y-1.29
X10.27Y-4.805
X8.228Y-3.417
X8.11Y-2.17
X8.09Y-2.93
X8.62Y-1.92
X10.195Y-1.54
X10.18Y-3.26
X8.67Y-2.6
X10.346Y-4.295
X8.4Y-4.465
X8.35Y-2.31
X8.45Y-1.58
X8.56Y-3.35
X8.12Y-2.53
T2
X8.33Y-2.53
X8.33Y-2.724
X8.39Y-3.65
X8.39Y-4.08
X8.43Y-2.05
X8.44Y-3.82
X8.4585Y-3.4696
X8.46Y-2.36
X8.46Y-3.0
X8.49Y-3.63
X8.5Y-1.93
X8.5Y-4.31
X8.51Y-2.52
X8.516Y-1.582
X8.516Y-2.165
X8.52Y-1.81
X8.52Y-2.81
X8.53Y-2.31
X8.54Y-3.16
X8.56Y-2.97
X8.571Y-1.938
X8.5826Y-2.0504
X8.59Y-2.63
X8.68Y-2.724
X8.76Y-3.52
X8.76Y-3.76
X8.77Y-3.9
X9.37Y-2.775
X9.58Y-3.915
X9.66Y-4.61
X9.78Y-4.74
X9.9Y-4.12
X9.91Y-3.87
X10.12Y-2.65
X10.18Y-2.22
X10.18Y-3.33
X10.19Y-4.005
X10.23Y-1.76
X10.23Y-2.4
X10.2364Y-3.48
X10.2491Y-3.1294
X10.2536Y-2.0196
X10.26Y-2.18
X10.27Y-1.57
X10.27Y-3.3
X10.27Y-3.82
X10.27Y-4.18
X10.29Y-3.995
X10.33Y-2.86
T3
X9.348Y-4.6056
X9.348Y-4.704
X9.351Y-5.0286
X9.351Y-5.127
X9.601Y-4.722
X9.601Y-4.822
X9.601Y-4.922
X9.132Y-1.7946
X9.132Y-1.8734
X9.2107Y-1.7946
X9.2107Y-1.8734
X9.286Y-1.3127
X9.2895Y-1.7946
X9.2895Y-1.8734
X9.386Y-1.3127
X9.9Y-4.72
X9.9Y-4.82
X9.9Y-4.92
X10.09Y-4.7216
X10.09Y-4.82
X9.63Y-5.03
X9.63Y-5.1284
T4
X7.9Y-1.63
X7.9Y-1.73
X7.9Y-1.83
X7.9Y-1.93
X7.9Y-2.03
X7.9Y-2.13
X7.9Y-2.23
X7.9Y-2.33
X7.9Y-2.43
X7.9Y-2.53
X7.9Y-2.63
X7.9Y-2.73
X7.9Y-2.83
X7.9Y-2.93
X7.9Y-3.03
X7.9Y-3.13
X7.9Y-3.23
X7.9Y-3.33
X7.9Y-3.43
X10.86Y-1.63
X10.86Y-1.73
X10.86Y-1.83
X10.86Y-1.93
X10.86Y-2.03
X10.86Y-2.13
X10.86Y-2.23
X10.86Y-2.33
X10.86Y-2.43
X10.86Y-2.53
X10.86Y-2.63
X10.86Y-2.73
X10.86Y-2.83
X10.86Y-2.93
X10.86Y-3.03
X10.86Y-3.13
X10.86Y-3.23
X10.86Y-3.33
X10.86Y-3.43
T5
X8.699Y-4.675
X8.699Y-4.775
X8.699Y-4.875
X8.699Y-4.975
X8.699Y-5.075
X8.799Y-4.675
X8.799Y-4.775
X8.799Y-4.875
X8.799Y-4.975
X8.799Y-5.075
T6
X9.036Y-1.284
X9.036Y-1.384
X9.036Y-1.484
X9.036Y-1.584
X9.036Y-1.684
X9.036Y-1.784
X9.036Y-1.884
X9.036Y-1.984
X9.036Y-2.084
X9.036Y-2.184
X9.036Y-2.284
X9.036Y-2.384
X9.036Y-2.484
X9.036Y-2.584
X9.036Y-2.684
X9.036Y-2.784
X9.036Y-2.884
X9.036Y-2.984
X9.036Y-3.084
X9.036Y-3.184
X9.036Y-3.284
X9.036Y-3.384
X9.036Y-3.484
X9.036Y-3.584
X9.136Y-1.384
X9.136Y-3.084
X9.236Y-3.084
X9.336Y-3.084
X9.436Y-3.084
X9.5159Y-1.532
X9.5159Y-1.632
X9.5159Y-1.732
X9.5159Y-1.832
X9.5159Y-1.932
X9.536Y-3.084
X9.636Y-1.284
X9.636Y-1.384
X9.636Y-1.484
X9.636Y-1.584
X9.636Y-1.684
X9.636Y-1.784
X9.636Y-1.884
X9.636Y-1.984
X9.636Y-2.084
X9.636Y-2.184
X9.636Y-2.284
X9.636Y-2.384
X9.636Y-2.484
X9.636Y-2.584
X9.636Y-2.684
X9.636Y-2.784
X9.636Y-2.884
X9.636Y-2.984
X9.636Y-3.084
X9.636Y-3.184
X9.636Y-3.284
X9.636Y-3.384
X9.636Y-3.484
X9.636Y-3.584
T0
M30
