G04 #@! TF.GenerationSoftware,KiCad,Pcbnew,(6.0.0-0)*
G04 #@! TF.CreationDate,2022-02-14T22:05:41-06:00*
G04 #@! TF.ProjectId,bells-venn,62656c6c-732d-4766-956e-6e2e6b696361,rev?*
G04 #@! TF.SameCoordinates,Original*
G04 #@! TF.FileFunction,Paste,Bot*
G04 #@! TF.FilePolarity,Positive*
%FSLAX46Y46*%
G04 Gerber Fmt 4.6, Leading zero omitted, Abs format (unit mm)*
G04 Created by KiCad (PCBNEW (6.0.0-0)) date 2022-02-14 22:05:41*
%MOMM*%
%LPD*%
G01*
G04 APERTURE LIST*
G04 Aperture macros list*
%AMRoundRect*
0 Rectangle with rounded corners*
0 $1 Rounding radius*
0 $2 $3 $4 $5 $6 $7 $8 $9 X,Y pos of 4 corners*
0 Add a 4 corners polygon primitive as box body*
4,1,4,$2,$3,$4,$5,$6,$7,$8,$9,$2,$3,0*
0 Add four circle primitives for the rounded corners*
1,1,$1+$1,$2,$3*
1,1,$1+$1,$4,$5*
1,1,$1+$1,$6,$7*
1,1,$1+$1,$8,$9*
0 Add four rect primitives between the rounded corners*
20,1,$1+$1,$2,$3,$4,$5,0*
20,1,$1+$1,$4,$5,$6,$7,0*
20,1,$1+$1,$6,$7,$8,$9,0*
20,1,$1+$1,$8,$9,$2,$3,0*%
%AMOutline4P*
0 Free polygon, 4 corners , with rotation*
0 The origin of the aperture is its center*
0 number of corners: always 4*
0 $1 to $8 corner X, Y*
0 $9 Rotation angle, in degrees counterclockwise*
0 create outline with 4 corners*
4,1,4,$1,$2,$3,$4,$5,$6,$7,$8,$1,$2,$9*%
G04 Aperture macros list end*
%ADD10Outline4P,-1.800000X-1.150000X1.800000X-0.550000X1.800000X0.550000X-1.800000X1.150000X270.000000*%
%ADD11Outline4P,-1.800000X-1.150000X1.800000X-0.550000X1.800000X0.550000X-1.800000X1.150000X90.000000*%
%ADD12RoundRect,0.250000X0.450000X-0.325000X0.450000X0.325000X-0.450000X0.325000X-0.450000X-0.325000X0*%
%ADD13RoundRect,0.250000X-0.475000X0.337500X-0.475000X-0.337500X0.475000X-0.337500X0.475000X0.337500X0*%
%ADD14RoundRect,0.250000X0.350000X0.450000X-0.350000X0.450000X-0.350000X-0.450000X0.350000X-0.450000X0*%
%ADD15RoundRect,0.150000X0.825000X0.150000X-0.825000X0.150000X-0.825000X-0.150000X0.825000X-0.150000X0*%
%ADD16RoundRect,0.250000X0.337500X0.475000X-0.337500X0.475000X-0.337500X-0.475000X0.337500X-0.475000X0*%
%ADD17RoundRect,0.250000X-0.337500X-0.475000X0.337500X-0.475000X0.337500X0.475000X-0.337500X0.475000X0*%
%ADD18RoundRect,0.250000X-0.350000X-0.450000X0.350000X-0.450000X0.350000X0.450000X-0.350000X0.450000X0*%
%ADD19RoundRect,0.250000X-0.450000X0.350000X-0.450000X-0.350000X0.450000X-0.350000X0.450000X0.350000X0*%
%ADD20RoundRect,0.250000X0.450000X-0.350000X0.450000X0.350000X-0.450000X0.350000X-0.450000X-0.350000X0*%
%ADD21RoundRect,0.150000X-0.512500X-0.150000X0.512500X-0.150000X0.512500X0.150000X-0.512500X0.150000X0*%
%ADD22RoundRect,0.150000X0.512500X0.150000X-0.512500X0.150000X-0.512500X-0.150000X0.512500X-0.150000X0*%
G04 APERTURE END LIST*
D10*
X231825800Y-115561200D03*
D11*
X231825800Y-121361200D03*
X231825800Y-132334000D03*
D10*
X231825800Y-126534000D03*
D12*
X228346000Y-120405000D03*
X228346000Y-118355000D03*
X228295200Y-130320000D03*
X228295200Y-128270000D03*
D13*
X240538000Y-121127500D03*
X240538000Y-123202500D03*
D14*
X258801000Y-46228000D03*
X256801000Y-46228000D03*
D15*
X262317000Y-36550600D03*
X262317000Y-37820600D03*
X262317000Y-39090600D03*
X262317000Y-40360600D03*
X262317000Y-41630600D03*
X262317000Y-42900600D03*
X262317000Y-44170600D03*
X257367000Y-44170600D03*
X257367000Y-42900600D03*
X257367000Y-41630600D03*
X257367000Y-40360600D03*
X257367000Y-39090600D03*
X257367000Y-37820600D03*
X257367000Y-36550600D03*
D16*
X254368100Y-35052000D03*
X252293100Y-35052000D03*
X254520500Y-51054000D03*
X252445500Y-51054000D03*
X254393500Y-45466000D03*
X252318500Y-45466000D03*
X254520500Y-61214000D03*
X252445500Y-61214000D03*
X254520500Y-78994000D03*
X252445500Y-78994000D03*
X254520500Y-89154000D03*
X252445500Y-89154000D03*
X254520500Y-66040000D03*
X252445500Y-66040000D03*
D17*
X260827500Y-46228000D03*
X262902500Y-46228000D03*
X260845500Y-50292000D03*
X262920500Y-50292000D03*
X260827500Y-61976000D03*
X262902500Y-61976000D03*
X256518500Y-66040000D03*
X258593500Y-66040000D03*
X260845500Y-78232000D03*
X262920500Y-78232000D03*
D16*
X223296500Y-36830000D03*
X221221500Y-36830000D03*
X223287500Y-54356000D03*
X221212500Y-54356000D03*
X223296500Y-64516000D03*
X221221500Y-64516000D03*
X223033500Y-70612000D03*
X220958500Y-70612000D03*
X223042500Y-80772000D03*
X220967500Y-80772000D03*
D17*
X216903500Y-69850000D03*
X218978500Y-69850000D03*
X216903500Y-47244000D03*
X218978500Y-47244000D03*
X216885500Y-35553601D03*
X218960500Y-35553601D03*
X216903500Y-65278000D03*
X218978500Y-65278000D03*
X216885500Y-53594000D03*
X218960500Y-53594000D03*
X216885500Y-81534000D03*
X218960500Y-81534000D03*
D14*
X254390400Y-41402000D03*
X252390400Y-41402000D03*
X254483000Y-55118000D03*
X252483000Y-55118000D03*
X254483000Y-57150000D03*
X252483000Y-57150000D03*
X254483000Y-83083400D03*
X252483000Y-83083400D03*
X254483000Y-70612000D03*
X252483000Y-70612000D03*
X254356000Y-37084000D03*
X252356000Y-37084000D03*
X254483000Y-53086000D03*
X252483000Y-53086000D03*
X254483000Y-81026000D03*
X252483000Y-81026000D03*
X254381400Y-43434000D03*
X252381400Y-43434000D03*
X254483000Y-59182000D03*
X252483000Y-59182000D03*
X254483000Y-87122000D03*
X252483000Y-87122000D03*
X254501000Y-68326000D03*
X252501000Y-68326000D03*
X258742800Y-34569400D03*
X256742800Y-34569400D03*
X258801000Y-50292000D03*
X256801000Y-50292000D03*
X258801000Y-61976000D03*
X256801000Y-61976000D03*
X258801000Y-78232000D03*
X256801000Y-78232000D03*
X258819000Y-89916000D03*
X256819000Y-89916000D03*
X262629000Y-66040000D03*
X260629000Y-66040000D03*
X266947000Y-39116000D03*
X264947000Y-39116000D03*
X266947000Y-55067200D03*
X264947000Y-55067200D03*
X266938000Y-83058000D03*
X264938000Y-83058000D03*
X266972400Y-41402000D03*
X264972400Y-41402000D03*
X266947000Y-57404000D03*
X264947000Y-57404000D03*
X266947000Y-85090000D03*
X264947000Y-85090000D03*
X266693000Y-69342000D03*
X264693000Y-69342000D03*
X266870800Y-36830000D03*
X264870800Y-36830000D03*
X267030600Y-43688000D03*
X265030600Y-43688000D03*
X266947000Y-52832000D03*
X264947000Y-52832000D03*
X266947000Y-59690000D03*
X264947000Y-59690000D03*
X266947000Y-81026000D03*
X264947000Y-81026000D03*
X266693000Y-67310000D03*
X264693000Y-67310000D03*
D18*
X221259000Y-40894000D03*
X223259000Y-40894000D03*
X221241000Y-58420000D03*
X223241000Y-58420000D03*
X221241000Y-42926000D03*
X223241000Y-42926000D03*
X221241000Y-60452000D03*
X223241000Y-60452000D03*
X221005000Y-74676000D03*
X223005000Y-74676000D03*
X220987000Y-76708000D03*
X222987000Y-76708000D03*
X221241000Y-38862000D03*
X223241000Y-38862000D03*
X221241000Y-56388000D03*
X223241000Y-56388000D03*
X220987000Y-72644000D03*
X222987000Y-72644000D03*
X221259000Y-44958000D03*
X223259000Y-44958000D03*
X221241000Y-62484000D03*
X223241000Y-62484000D03*
X220987000Y-78740000D03*
X222987000Y-78740000D03*
X213131000Y-35560000D03*
X215131000Y-35560000D03*
X213131000Y-47244000D03*
X215131000Y-47244000D03*
X213113000Y-53594000D03*
X215113000Y-53594000D03*
X213131000Y-65278000D03*
X215131000Y-65278000D03*
X213113000Y-69850000D03*
X215113000Y-69850000D03*
X213131000Y-81534000D03*
X215131000Y-81534000D03*
X208541000Y-40386000D03*
X210541000Y-40386000D03*
X208559000Y-58420000D03*
X210559000Y-58420000D03*
X208813000Y-74676000D03*
X210813000Y-74676000D03*
X208559000Y-42418000D03*
X210559000Y-42418000D03*
X208559000Y-60452000D03*
X210559000Y-60452000D03*
X208813000Y-76708000D03*
X210813000Y-76708000D03*
X208559000Y-38354000D03*
X210559000Y-38354000D03*
X208550000Y-44450000D03*
X210550000Y-44450000D03*
X208541000Y-56388000D03*
X210541000Y-56388000D03*
X208559000Y-62484000D03*
X210559000Y-62484000D03*
X208795000Y-72644000D03*
X210795000Y-72644000D03*
X208795000Y-78740000D03*
X210795000Y-78740000D03*
D15*
X262215400Y-52197000D03*
X262215400Y-53467000D03*
X262215400Y-54737000D03*
X262215400Y-56007000D03*
X262215400Y-57277000D03*
X262215400Y-58547000D03*
X262215400Y-59817000D03*
X257265400Y-59817000D03*
X257265400Y-58547000D03*
X257265400Y-57277000D03*
X257265400Y-56007000D03*
X257265400Y-54737000D03*
X257265400Y-53467000D03*
X257265400Y-52197000D03*
X262088400Y-68122800D03*
X262088400Y-69392800D03*
X262088400Y-70662800D03*
X262088400Y-71932800D03*
X257138400Y-71932800D03*
X257138400Y-70662800D03*
X257138400Y-69392800D03*
X257138400Y-68122800D03*
X218375000Y-37592000D03*
X218375000Y-38862000D03*
X218375000Y-40132000D03*
X218375000Y-41402000D03*
X218375000Y-42672000D03*
X218375000Y-43942000D03*
X218375000Y-45212000D03*
X213425000Y-45212000D03*
X213425000Y-43942000D03*
X213425000Y-42672000D03*
X213425000Y-41402000D03*
X213425000Y-40132000D03*
X213425000Y-38862000D03*
X213425000Y-37592000D03*
X218375000Y-55626000D03*
X218375000Y-56896000D03*
X218375000Y-58166000D03*
X218375000Y-59436000D03*
X218375000Y-60706000D03*
X218375000Y-61976000D03*
X218375000Y-63246000D03*
X213425000Y-63246000D03*
X213425000Y-61976000D03*
X213425000Y-60706000D03*
X213425000Y-59436000D03*
X213425000Y-58166000D03*
X213425000Y-56896000D03*
X213425000Y-55626000D03*
X218375000Y-71882000D03*
X218375000Y-73152000D03*
X218375000Y-74422000D03*
X218375000Y-75692000D03*
X218375000Y-76962000D03*
X218375000Y-78232000D03*
X218375000Y-79502000D03*
X213425000Y-79502000D03*
X213425000Y-78232000D03*
X213425000Y-76962000D03*
X213425000Y-75692000D03*
X213425000Y-74422000D03*
X213425000Y-73152000D03*
X213425000Y-71882000D03*
D17*
X260827500Y-89916000D03*
X262902500Y-89916000D03*
D15*
X262229600Y-80238600D03*
X262229600Y-81508600D03*
X262229600Y-82778600D03*
X262229600Y-84048600D03*
X262229600Y-85318600D03*
X262229600Y-86588600D03*
X262229600Y-87858600D03*
X257279600Y-87858600D03*
X257279600Y-86588600D03*
X257279600Y-85318600D03*
X257279600Y-84048600D03*
X257279600Y-82778600D03*
X257279600Y-81508600D03*
X257279600Y-80238600D03*
D14*
X266929000Y-87223600D03*
X264929000Y-87223600D03*
D16*
X262412500Y-73914000D03*
X260337500Y-73914000D03*
D14*
X254356000Y-39116000D03*
X252356000Y-39116000D03*
D17*
X260827500Y-34544000D03*
X262902500Y-34544000D03*
D14*
X254483000Y-85090000D03*
X252483000Y-85090000D03*
D16*
X223296500Y-46990000D03*
X221221500Y-46990000D03*
D14*
X211825500Y-97790000D03*
X209825500Y-97790000D03*
D15*
X262698000Y-96012000D03*
X262698000Y-97282000D03*
X262698000Y-98552000D03*
X262698000Y-99822000D03*
X257748000Y-99822000D03*
X257748000Y-98552000D03*
X257748000Y-97282000D03*
X257748000Y-96012000D03*
D16*
X255000000Y-94488000D03*
X252925000Y-94488000D03*
D17*
X265641000Y-93472000D03*
X267716000Y-93472000D03*
D14*
X255000000Y-96520000D03*
X253000000Y-96520000D03*
D19*
X216440000Y-100838000D03*
X216440000Y-102838000D03*
D16*
X261366000Y-93980000D03*
X259291000Y-93980000D03*
D15*
X219391000Y-90678000D03*
X219391000Y-91948000D03*
X219391000Y-93218000D03*
X219391000Y-94488000D03*
X219391000Y-95758000D03*
X219391000Y-97028000D03*
X219391000Y-98298000D03*
X214441000Y-98298000D03*
X214441000Y-97028000D03*
X214441000Y-95758000D03*
X214441000Y-94488000D03*
X214441000Y-93218000D03*
X214441000Y-91948000D03*
X214441000Y-90678000D03*
D18*
X265478000Y-95758000D03*
X267478000Y-95758000D03*
X265446000Y-100330000D03*
X267446000Y-100330000D03*
D20*
X220758000Y-102870000D03*
X220758000Y-100870000D03*
D14*
X211836000Y-88900000D03*
X209836000Y-88900000D03*
D13*
X222790000Y-100838000D03*
X222790000Y-102913000D03*
D16*
X211836000Y-86868000D03*
X209761000Y-86868000D03*
D14*
X255000000Y-100584000D03*
X253000000Y-100584000D03*
X211857500Y-99822000D03*
X209857500Y-99822000D03*
D21*
X245623500Y-114284800D03*
X245623500Y-113334800D03*
X245623500Y-112384800D03*
X247898500Y-112384800D03*
X247898500Y-114284800D03*
D18*
X221996000Y-89916000D03*
X223996000Y-89916000D03*
D13*
X214122000Y-100838000D03*
X214122000Y-102913000D03*
D17*
X221742000Y-94488000D03*
X223817000Y-94488000D03*
D19*
X218726000Y-100838000D03*
X218726000Y-102838000D03*
D22*
X226791100Y-32806600D03*
X226791100Y-33756600D03*
X226791100Y-34706600D03*
X224516100Y-34706600D03*
X224516100Y-32806600D03*
D14*
X223996000Y-91948000D03*
X221996000Y-91948000D03*
X211836000Y-93218000D03*
X209836000Y-93218000D03*
X254968000Y-98552000D03*
X252968000Y-98552000D03*
D18*
X265446000Y-98044000D03*
X267446000Y-98044000D03*
D14*
X211836000Y-91186000D03*
X209836000Y-91186000D03*
X211857500Y-95504000D03*
X209857500Y-95504000D03*
M02*
