G04 #@! TF.GenerationSoftware,KiCad,Pcbnew,(6.0.5-0)*
G04 #@! TF.CreationDate,2023-09-16T19:39:36-05:00*
G04 #@! TF.ProjectId,bells-venn,62656c6c-732d-4766-956e-6e2e6b696361,rev?*
G04 #@! TF.SameCoordinates,Original*
G04 #@! TF.FileFunction,Legend,Top*
G04 #@! TF.FilePolarity,Positive*
%FSLAX46Y46*%
G04 Gerber Fmt 4.6, Leading zero omitted, Abs format (unit mm)*
G04 Created by KiCad (PCBNEW (6.0.5-0)) date 2023-09-16 19:39:36*
%MOMM*%
%LPD*%
G01*
G04 APERTURE LIST*
G04 Aperture macros list*
%AMRoundRect*
0 Rectangle with rounded corners*
0 $1 Rounding radius*
0 $2 $3 $4 $5 $6 $7 $8 $9 X,Y pos of 4 corners*
0 Add a 4 corners polygon primitive as box body*
4,1,4,$2,$3,$4,$5,$6,$7,$8,$9,$2,$3,0*
0 Add four circle primitives for the rounded corners*
1,1,$1+$1,$2,$3*
1,1,$1+$1,$4,$5*
1,1,$1+$1,$6,$7*
1,1,$1+$1,$8,$9*
0 Add four rect primitives between the rounded corners*
20,1,$1+$1,$2,$3,$4,$5,0*
20,1,$1+$1,$4,$5,$6,$7,0*
20,1,$1+$1,$6,$7,$8,$9,0*
20,1,$1+$1,$8,$9,$2,$3,0*%
G04 Aperture macros list end*
%ADD10C,0.152400*%
%ADD11C,0.150000*%
%ADD12C,0.120000*%
%ADD13RoundRect,0.051000X-0.800000X-0.800000X0.800000X-0.800000X0.800000X0.800000X-0.800000X0.800000X0*%
%ADD14C,1.702000*%
%ADD15RoundRect,0.051000X0.800000X0.800000X-0.800000X0.800000X-0.800000X-0.800000X0.800000X-0.800000X0*%
%ADD16RoundRect,0.051000X-1.150000X0.750000X-1.150000X-0.750000X1.150000X-0.750000X1.150000X0.750000X0*%
%ADD17O,2.402000X1.602000*%
%ADD18RoundRect,0.051000X-0.850000X-0.850000X0.850000X-0.850000X0.850000X0.850000X-0.850000X0.850000X0*%
%ADD19O,1.802000X1.802000*%
%ADD20C,3.302000*%
%ADD21RoundRect,0.301000X-0.600000X-0.600000X0.600000X-0.600000X0.600000X0.600000X-0.600000X0.600000X0*%
%ADD22C,1.802000*%
%ADD23RoundRect,0.051000X-0.800000X0.800000X-0.800000X-0.800000X0.800000X-0.800000X0.800000X0.800000X0*%
%ADD24RoundRect,0.051000X-0.650000X0.650000X-0.650000X-0.650000X0.650000X-0.650000X0.650000X0.650000X0*%
%ADD25C,1.402000*%
%ADD26RoundRect,0.051000X-0.750000X0.750000X-0.750000X-0.750000X0.750000X-0.750000X0.750000X0.750000X0*%
%ADD27C,1.602000*%
G04 APERTURE END LIST*
D10*
D11*
D10*
D11*
D10*
X200406000Y-38214714D02*
X200406000Y-38759000D01*
X200369714Y-38867857D01*
X200297142Y-38940428D01*
X200188285Y-38976714D01*
X200115714Y-38976714D01*
X200732571Y-38287285D02*
X200768857Y-38251000D01*
X200841428Y-38214714D01*
X201022857Y-38214714D01*
X201095428Y-38251000D01*
X201131714Y-38287285D01*
X201168000Y-38359857D01*
X201168000Y-38432428D01*
X201131714Y-38541285D01*
X200696285Y-38976714D01*
X201168000Y-38976714D01*
X200242714Y-91276714D02*
X200170142Y-91240428D01*
X200133857Y-91167857D01*
X200133857Y-90514714D01*
X200823285Y-91240428D02*
X200750714Y-91276714D01*
X200605571Y-91276714D01*
X200533000Y-91240428D01*
X200496714Y-91167857D01*
X200496714Y-90877571D01*
X200533000Y-90805000D01*
X200605571Y-90768714D01*
X200750714Y-90768714D01*
X200823285Y-90805000D01*
X200859571Y-90877571D01*
X200859571Y-90950142D01*
X200496714Y-91022714D01*
X201077285Y-90768714D02*
X201367571Y-90768714D01*
X201186142Y-91276714D02*
X201186142Y-90623571D01*
X201222428Y-90551000D01*
X201295000Y-90514714D01*
X201367571Y-90514714D01*
X201512714Y-90768714D02*
X201803000Y-90768714D01*
X201621571Y-90514714D02*
X201621571Y-91167857D01*
X201657857Y-91240428D01*
X201730428Y-91276714D01*
X201803000Y-91276714D01*
X275590000Y-38214714D02*
X275590000Y-38759000D01*
X275553714Y-38867857D01*
X275481142Y-38940428D01*
X275372285Y-38976714D01*
X275299714Y-38976714D01*
X275880285Y-38214714D02*
X276352000Y-38214714D01*
X276098000Y-38505000D01*
X276206857Y-38505000D01*
X276279428Y-38541285D01*
X276315714Y-38577571D01*
X276352000Y-38650142D01*
X276352000Y-38831571D01*
X276315714Y-38904142D01*
X276279428Y-38940428D01*
X276206857Y-38976714D01*
X275989142Y-38976714D01*
X275916571Y-38940428D01*
X275880285Y-38904142D01*
X274701000Y-90236714D02*
X274701000Y-89728714D01*
X274701000Y-89873857D02*
X274737285Y-89801285D01*
X274773571Y-89765000D01*
X274846142Y-89728714D01*
X274918714Y-89728714D01*
X275172714Y-90236714D02*
X275172714Y-89728714D01*
X275172714Y-89474714D02*
X275136428Y-89511000D01*
X275172714Y-89547285D01*
X275209000Y-89511000D01*
X275172714Y-89474714D01*
X275172714Y-89547285D01*
X275862142Y-89728714D02*
X275862142Y-90345571D01*
X275825857Y-90418142D01*
X275789571Y-90454428D01*
X275717000Y-90490714D01*
X275608142Y-90490714D01*
X275535571Y-90454428D01*
X275862142Y-90200428D02*
X275789571Y-90236714D01*
X275644428Y-90236714D01*
X275571857Y-90200428D01*
X275535571Y-90164142D01*
X275499285Y-90091571D01*
X275499285Y-89873857D01*
X275535571Y-89801285D01*
X275571857Y-89765000D01*
X275644428Y-89728714D01*
X275789571Y-89728714D01*
X275862142Y-89765000D01*
X276225000Y-90236714D02*
X276225000Y-89474714D01*
X276551571Y-90236714D02*
X276551571Y-89837571D01*
X276515285Y-89765000D01*
X276442714Y-89728714D01*
X276333857Y-89728714D01*
X276261285Y-89765000D01*
X276225000Y-89801285D01*
X276805571Y-89728714D02*
X277095857Y-89728714D01*
X276914428Y-89474714D02*
X276914428Y-90127857D01*
X276950714Y-90200428D01*
X277023285Y-90236714D01*
X277095857Y-90236714D01*
D11*
D10*
D11*
D10*
D11*
D12*
X201990000Y-40072000D02*
X201990000Y-41402000D01*
X199330000Y-42672000D02*
X201990000Y-42672000D01*
X199330000Y-42672000D02*
X199330000Y-88452000D01*
X201990000Y-42672000D02*
X201990000Y-88452000D01*
X199330000Y-88452000D02*
X201990000Y-88452000D01*
X200660000Y-40072000D02*
X201990000Y-40072000D01*
X275844000Y-40072000D02*
X277174000Y-40072000D01*
X274514000Y-42672000D02*
X277174000Y-42672000D01*
X277174000Y-42672000D02*
X277174000Y-88452000D01*
X277174000Y-40072000D02*
X277174000Y-41402000D01*
X274514000Y-88452000D02*
X277174000Y-88452000D01*
X274514000Y-42672000D02*
X274514000Y-88452000D01*
%LPC*%
D13*
X250190000Y-118338600D03*
D14*
X252690000Y-118338600D03*
D15*
X249097800Y-102387400D03*
D14*
X246597800Y-102387400D03*
D16*
X246809500Y-125315000D03*
D17*
X246809500Y-127855000D03*
X246809500Y-130395000D03*
D18*
X253187200Y-128864600D03*
D19*
X253187200Y-126324600D03*
X253187200Y-123784600D03*
D15*
X231202113Y-101904800D03*
D14*
X228702113Y-101904800D03*
D20*
X202412600Y-31343600D03*
X211175600Y-121767600D03*
X274040600Y-31343600D03*
X265150600Y-121767600D03*
D18*
X200660000Y-41402000D03*
D19*
X200660000Y-43942000D03*
X200660000Y-46482000D03*
X200660000Y-49022000D03*
X200660000Y-51562000D03*
X200660000Y-54102000D03*
X200660000Y-56642000D03*
X200660000Y-59182000D03*
X200660000Y-61722000D03*
X200660000Y-64262000D03*
X200660000Y-66802000D03*
X200660000Y-69342000D03*
X200660000Y-71882000D03*
X200660000Y-74422000D03*
X200660000Y-76962000D03*
X200660000Y-79502000D03*
X200660000Y-82042000D03*
X200660000Y-84582000D03*
X200660000Y-87122000D03*
D18*
X275844000Y-41402000D03*
D19*
X275844000Y-43942000D03*
X275844000Y-46482000D03*
X275844000Y-49022000D03*
X275844000Y-51562000D03*
X275844000Y-54102000D03*
X275844000Y-56642000D03*
X275844000Y-59182000D03*
X275844000Y-61722000D03*
X275844000Y-64262000D03*
X275844000Y-66802000D03*
X275844000Y-69342000D03*
X275844000Y-71882000D03*
X275844000Y-74422000D03*
X275844000Y-76962000D03*
X275844000Y-79502000D03*
X275844000Y-82042000D03*
X275844000Y-84582000D03*
X275844000Y-87122000D03*
D21*
X218805100Y-128498600D03*
D22*
X221345100Y-128498600D03*
X218805100Y-125958600D03*
X221345100Y-125958600D03*
X218805100Y-123418600D03*
X221345100Y-123418600D03*
X218805100Y-120878600D03*
X221345100Y-120878600D03*
X218805100Y-118338600D03*
X221345100Y-118338600D03*
X218805100Y-115798600D03*
X221345100Y-115798600D03*
X218805100Y-113258600D03*
X221345100Y-113258600D03*
X218805100Y-110718600D03*
X221345100Y-110718600D03*
D23*
X230835200Y-112141000D03*
D14*
X230835200Y-114641000D03*
D23*
X244754400Y-32613600D03*
D14*
X244754400Y-35153600D03*
X244754400Y-37693600D03*
X244754400Y-40233600D03*
X244754400Y-42773600D03*
X244754400Y-45313600D03*
X244754400Y-47853600D03*
X244754400Y-50393600D03*
X244754400Y-52933600D03*
X244754400Y-55473600D03*
X244754400Y-58013600D03*
X244754400Y-60553600D03*
X244754400Y-63093600D03*
X244754400Y-65633600D03*
X244754400Y-68173600D03*
X244754400Y-70713600D03*
X244754400Y-73253600D03*
X244754400Y-75793600D03*
X244754400Y-78333600D03*
X244754400Y-80873600D03*
X244754400Y-83413600D03*
X244754400Y-85953600D03*
X244754400Y-88493600D03*
X244754400Y-91033600D03*
X229514400Y-91033600D03*
X229514400Y-88493600D03*
X229514400Y-85953600D03*
X229514400Y-83413600D03*
X229514400Y-80873600D03*
X229514400Y-78333600D03*
X229514400Y-75793600D03*
X229514400Y-73253600D03*
X229514400Y-70713600D03*
X229514400Y-68173600D03*
X229514400Y-65633600D03*
X229514400Y-63093600D03*
X229514400Y-60553600D03*
X229514400Y-58013600D03*
X229514400Y-55473600D03*
X229514400Y-52933600D03*
X229514400Y-50393600D03*
X229514400Y-47853600D03*
X229514400Y-45313600D03*
X229514400Y-42773600D03*
X229514400Y-40233600D03*
X229514400Y-37693600D03*
X229514400Y-35153600D03*
X229514400Y-32613600D03*
X232054400Y-35153600D03*
X242214400Y-78333600D03*
X239674400Y-78333600D03*
X237134400Y-78333600D03*
X234594400Y-78333600D03*
X232054400Y-78333600D03*
D23*
X241703600Y-38912800D03*
D14*
X241703600Y-41452800D03*
X241703600Y-43992800D03*
X241703600Y-46532800D03*
X241703600Y-49072800D03*
D24*
X231952800Y-45583600D03*
D25*
X233952800Y-45583600D03*
X235952800Y-45583600D03*
X235952800Y-47583600D03*
X233952800Y-47583600D03*
X231952800Y-47583600D03*
X238404400Y-33343600D03*
X235864400Y-33343600D03*
D23*
X230225600Y-124931800D03*
D14*
X230225600Y-127431800D03*
D26*
X236321600Y-97815400D03*
D27*
X236321600Y-100355400D03*
X236321600Y-102895400D03*
M02*
