G04 #@! TF.GenerationSoftware,KiCad,Pcbnew,(6.0.0-0)*
G04 #@! TF.CreationDate,2022-02-14T22:05:41-06:00*
G04 #@! TF.ProjectId,bells-venn,62656c6c-732d-4766-956e-6e2e6b696361,rev?*
G04 #@! TF.SameCoordinates,Original*
G04 #@! TF.FileFunction,Legend,Top*
G04 #@! TF.FilePolarity,Positive*
%FSLAX46Y46*%
G04 Gerber Fmt 4.6, Leading zero omitted, Abs format (unit mm)*
G04 Created by KiCad (PCBNEW (6.0.0-0)) date 2022-02-14 22:05:41*
%MOMM*%
%LPD*%
G01*
G04 APERTURE LIST*
%ADD10C,0.152400*%
%ADD11C,0.120000*%
G04 APERTURE END LIST*
D10*
X200406000Y-38214714D02*
X200406000Y-38759000D01*
X200369714Y-38867857D01*
X200297142Y-38940428D01*
X200188285Y-38976714D01*
X200115714Y-38976714D01*
X200732571Y-38287285D02*
X200768857Y-38251000D01*
X200841428Y-38214714D01*
X201022857Y-38214714D01*
X201095428Y-38251000D01*
X201131714Y-38287285D01*
X201168000Y-38359857D01*
X201168000Y-38432428D01*
X201131714Y-38541285D01*
X200696285Y-38976714D01*
X201168000Y-38976714D01*
X200242714Y-91276714D02*
X200170142Y-91240428D01*
X200133857Y-91167857D01*
X200133857Y-90514714D01*
X200823285Y-91240428D02*
X200750714Y-91276714D01*
X200605571Y-91276714D01*
X200533000Y-91240428D01*
X200496714Y-91167857D01*
X200496714Y-90877571D01*
X200533000Y-90805000D01*
X200605571Y-90768714D01*
X200750714Y-90768714D01*
X200823285Y-90805000D01*
X200859571Y-90877571D01*
X200859571Y-90950142D01*
X200496714Y-91022714D01*
X201077285Y-90768714D02*
X201367571Y-90768714D01*
X201186142Y-91276714D02*
X201186142Y-90623571D01*
X201222428Y-90551000D01*
X201295000Y-90514714D01*
X201367571Y-90514714D01*
X201512714Y-90768714D02*
X201803000Y-90768714D01*
X201621571Y-90514714D02*
X201621571Y-91167857D01*
X201657857Y-91240428D01*
X201730428Y-91276714D01*
X201803000Y-91276714D01*
X275590000Y-38214714D02*
X275590000Y-38759000D01*
X275553714Y-38867857D01*
X275481142Y-38940428D01*
X275372285Y-38976714D01*
X275299714Y-38976714D01*
X275880285Y-38214714D02*
X276352000Y-38214714D01*
X276098000Y-38505000D01*
X276206857Y-38505000D01*
X276279428Y-38541285D01*
X276315714Y-38577571D01*
X276352000Y-38650142D01*
X276352000Y-38831571D01*
X276315714Y-38904142D01*
X276279428Y-38940428D01*
X276206857Y-38976714D01*
X275989142Y-38976714D01*
X275916571Y-38940428D01*
X275880285Y-38904142D01*
X274701000Y-90236714D02*
X274701000Y-89728714D01*
X274701000Y-89873857D02*
X274737285Y-89801285D01*
X274773571Y-89765000D01*
X274846142Y-89728714D01*
X274918714Y-89728714D01*
X275172714Y-90236714D02*
X275172714Y-89728714D01*
X275172714Y-89474714D02*
X275136428Y-89511000D01*
X275172714Y-89547285D01*
X275209000Y-89511000D01*
X275172714Y-89474714D01*
X275172714Y-89547285D01*
X275862142Y-89728714D02*
X275862142Y-90345571D01*
X275825857Y-90418142D01*
X275789571Y-90454428D01*
X275717000Y-90490714D01*
X275608142Y-90490714D01*
X275535571Y-90454428D01*
X275862142Y-90200428D02*
X275789571Y-90236714D01*
X275644428Y-90236714D01*
X275571857Y-90200428D01*
X275535571Y-90164142D01*
X275499285Y-90091571D01*
X275499285Y-89873857D01*
X275535571Y-89801285D01*
X275571857Y-89765000D01*
X275644428Y-89728714D01*
X275789571Y-89728714D01*
X275862142Y-89765000D01*
X276225000Y-90236714D02*
X276225000Y-89474714D01*
X276551571Y-90236714D02*
X276551571Y-89837571D01*
X276515285Y-89765000D01*
X276442714Y-89728714D01*
X276333857Y-89728714D01*
X276261285Y-89765000D01*
X276225000Y-89801285D01*
X276805571Y-89728714D02*
X277095857Y-89728714D01*
X276914428Y-89474714D02*
X276914428Y-90127857D01*
X276950714Y-90200428D01*
X277023285Y-90236714D01*
X277095857Y-90236714D01*
D11*
X201990000Y-40072000D02*
X201990000Y-41402000D01*
X199330000Y-42672000D02*
X201990000Y-42672000D01*
X199330000Y-42672000D02*
X199330000Y-88452000D01*
X201990000Y-42672000D02*
X201990000Y-88452000D01*
X199330000Y-88452000D02*
X201990000Y-88452000D01*
X200660000Y-40072000D02*
X201990000Y-40072000D01*
X275844000Y-40072000D02*
X277174000Y-40072000D01*
X274514000Y-42672000D02*
X277174000Y-42672000D01*
X277174000Y-42672000D02*
X277174000Y-88452000D01*
X277174000Y-40072000D02*
X277174000Y-41402000D01*
X274514000Y-88452000D02*
X277174000Y-88452000D01*
X274514000Y-42672000D02*
X274514000Y-88452000D01*
M02*
