G04 #@! TF.GenerationSoftware,KiCad,Pcbnew,(6.0.0-0)*
G04 #@! TF.CreationDate,2022-02-14T22:05:42-06:00*
G04 #@! TF.ProjectId,bells-venn,62656c6c-732d-4766-956e-6e2e6b696361,rev?*
G04 #@! TF.SameCoordinates,Original*
G04 #@! TF.FileFunction,Soldermask,Top*
G04 #@! TF.FilePolarity,Negative*
%FSLAX46Y46*%
G04 Gerber Fmt 4.6, Leading zero omitted, Abs format (unit mm)*
G04 Created by KiCad (PCBNEW (6.0.0-0)) date 2022-02-14 22:05:42*
%MOMM*%
%LPD*%
G01*
G04 APERTURE LIST*
G04 Aperture macros list*
%AMRoundRect*
0 Rectangle with rounded corners*
0 $1 Rounding radius*
0 $2 $3 $4 $5 $6 $7 $8 $9 X,Y pos of 4 corners*
0 Add a 4 corners polygon primitive as box body*
4,1,4,$2,$3,$4,$5,$6,$7,$8,$9,$2,$3,0*
0 Add four circle primitives for the rounded corners*
1,1,$1+$1,$2,$3*
1,1,$1+$1,$4,$5*
1,1,$1+$1,$6,$7*
1,1,$1+$1,$8,$9*
0 Add four rect primitives between the rounded corners*
20,1,$1+$1,$2,$3,$4,$5,0*
20,1,$1+$1,$4,$5,$6,$7,0*
20,1,$1+$1,$6,$7,$8,$9,0*
20,1,$1+$1,$8,$9,$2,$3,0*%
G04 Aperture macros list end*
%ADD10C,3.302000*%
%ADD11RoundRect,0.051000X-0.850000X-0.850000X0.850000X-0.850000X0.850000X0.850000X-0.850000X0.850000X0*%
%ADD12O,1.802000X1.802000*%
%ADD13RoundRect,0.051000X-0.800000X0.800000X-0.800000X-0.800000X0.800000X-0.800000X0.800000X0.800000X0*%
%ADD14C,1.702000*%
%ADD15RoundRect,0.051000X0.800000X-0.800000X0.800000X0.800000X-0.800000X0.800000X-0.800000X-0.800000X0*%
%ADD16RoundRect,0.301000X-0.600000X-0.600000X0.600000X-0.600000X0.600000X0.600000X-0.600000X0.600000X0*%
%ADD17C,1.802000*%
%ADD18RoundRect,0.051000X-0.650000X0.650000X-0.650000X-0.650000X0.650000X-0.650000X0.650000X0.650000X0*%
%ADD19C,1.402000*%
%ADD20RoundRect,0.051000X-0.800000X-0.800000X0.800000X-0.800000X0.800000X0.800000X-0.800000X0.800000X0*%
%ADD21RoundRect,0.051000X-1.250000X0.850000X-1.250000X-0.850000X1.250000X-0.850000X1.250000X0.850000X0*%
%ADD22O,2.602000X1.802000*%
%ADD23RoundRect,0.051000X0.850000X-0.850000X0.850000X0.850000X-0.850000X0.850000X-0.850000X-0.850000X0*%
G04 APERTURE END LIST*
D10*
X202412600Y-31343600D03*
X211175600Y-121767600D03*
X274040600Y-31343600D03*
X265150600Y-121767600D03*
D11*
X200660000Y-41402000D03*
D12*
X200660000Y-43942000D03*
X200660000Y-46482000D03*
X200660000Y-49022000D03*
X200660000Y-51562000D03*
X200660000Y-54102000D03*
X200660000Y-56642000D03*
X200660000Y-59182000D03*
X200660000Y-61722000D03*
X200660000Y-64262000D03*
X200660000Y-66802000D03*
X200660000Y-69342000D03*
X200660000Y-71882000D03*
X200660000Y-74422000D03*
X200660000Y-76962000D03*
X200660000Y-79502000D03*
X200660000Y-82042000D03*
X200660000Y-84582000D03*
X200660000Y-87122000D03*
D11*
X275844000Y-41402000D03*
D12*
X275844000Y-43942000D03*
X275844000Y-46482000D03*
X275844000Y-49022000D03*
X275844000Y-51562000D03*
X275844000Y-54102000D03*
X275844000Y-56642000D03*
X275844000Y-59182000D03*
X275844000Y-61722000D03*
X275844000Y-64262000D03*
X275844000Y-66802000D03*
X275844000Y-69342000D03*
X275844000Y-71882000D03*
X275844000Y-74422000D03*
X275844000Y-76962000D03*
X275844000Y-79502000D03*
X275844000Y-82042000D03*
X275844000Y-84582000D03*
X275844000Y-87122000D03*
D13*
X237439200Y-116981600D03*
D14*
X237439200Y-119481600D03*
D15*
X237515400Y-130225800D03*
D14*
X237515400Y-127725800D03*
D16*
X220954600Y-128905000D03*
D17*
X223494600Y-128905000D03*
X220954600Y-126365000D03*
X223494600Y-126365000D03*
X220954600Y-123825000D03*
X223494600Y-123825000D03*
X220954600Y-121285000D03*
X223494600Y-121285000D03*
X220954600Y-118745000D03*
X223494600Y-118745000D03*
X220954600Y-116205000D03*
X223494600Y-116205000D03*
X220954600Y-113665000D03*
X223494600Y-113665000D03*
X220954600Y-111125000D03*
X223494600Y-111125000D03*
D13*
X244754400Y-32613600D03*
D14*
X244754400Y-35153600D03*
X244754400Y-37693600D03*
X244754400Y-40233600D03*
X244754400Y-42773600D03*
X244754400Y-45313600D03*
X244754400Y-47853600D03*
X244754400Y-50393600D03*
X244754400Y-52933600D03*
X244754400Y-55473600D03*
X244754400Y-58013600D03*
X244754400Y-60553600D03*
X244754400Y-63093600D03*
X244754400Y-65633600D03*
X244754400Y-68173600D03*
X244754400Y-70713600D03*
X244754400Y-73253600D03*
X244754400Y-75793600D03*
X244754400Y-78333600D03*
X244754400Y-80873600D03*
X244754400Y-83413600D03*
X244754400Y-85953600D03*
X244754400Y-88493600D03*
X244754400Y-91033600D03*
X229514400Y-91033600D03*
X229514400Y-88493600D03*
X229514400Y-85953600D03*
X229514400Y-83413600D03*
X229514400Y-80873600D03*
X229514400Y-78333600D03*
X229514400Y-75793600D03*
X229514400Y-73253600D03*
X229514400Y-70713600D03*
X229514400Y-68173600D03*
X229514400Y-65633600D03*
X229514400Y-63093600D03*
X229514400Y-60553600D03*
X229514400Y-58013600D03*
X229514400Y-55473600D03*
X229514400Y-52933600D03*
X229514400Y-50393600D03*
X229514400Y-47853600D03*
X229514400Y-45313600D03*
X229514400Y-42773600D03*
X229514400Y-40233600D03*
X229514400Y-37693600D03*
X229514400Y-35153600D03*
X229514400Y-32613600D03*
X232054400Y-35153600D03*
X242214400Y-78333600D03*
X239674400Y-78333600D03*
X237134400Y-78333600D03*
X234594400Y-78333600D03*
X232054400Y-78333600D03*
D13*
X241703600Y-38912800D03*
D14*
X241703600Y-41452800D03*
X241703600Y-43992800D03*
X241703600Y-46532800D03*
X241703600Y-49072800D03*
D18*
X231952800Y-45583600D03*
D19*
X233952800Y-45583600D03*
X235952800Y-45583600D03*
X235952800Y-47583600D03*
X233952800Y-47583600D03*
X231952800Y-47583600D03*
X238404400Y-33343600D03*
X235864400Y-33343600D03*
D20*
X254268088Y-127050800D03*
D14*
X256768088Y-127050800D03*
D13*
X256311400Y-119964200D03*
D14*
X256311400Y-122464200D03*
D21*
X243941600Y-119989600D03*
D22*
X243941600Y-122529600D03*
X243941600Y-125069600D03*
D23*
X256997200Y-132080000D03*
D12*
X254457200Y-132080000D03*
X251917200Y-132080000D03*
M02*
