G04 #@! TF.GenerationSoftware,KiCad,Pcbnew,(6.0.0-0)*
G04 #@! TF.CreationDate,2022-02-14T22:07:49-06:00*
G04 #@! TF.ProjectId,bells-venn,62656c6c-732d-4766-956e-6e2e6b696361,rev?*
G04 #@! TF.SameCoordinates,Original*
G04 #@! TF.FileFunction,Soldermask,Bot*
G04 #@! TF.FilePolarity,Negative*
%FSLAX46Y46*%
G04 Gerber Fmt 4.6, Leading zero omitted, Abs format (unit mm)*
G04 Created by KiCad (PCBNEW (6.0.0-0)) date 2022-02-14 22:07:49*
%MOMM*%
%LPD*%
G01*
G04 APERTURE LIST*
G04 Aperture macros list*
%AMRoundRect*
0 Rectangle with rounded corners*
0 $1 Rounding radius*
0 $2 $3 $4 $5 $6 $7 $8 $9 X,Y pos of 4 corners*
0 Add a 4 corners polygon primitive as box body*
4,1,4,$2,$3,$4,$5,$6,$7,$8,$9,$2,$3,0*
0 Add four circle primitives for the rounded corners*
1,1,$1+$1,$2,$3*
1,1,$1+$1,$4,$5*
1,1,$1+$1,$6,$7*
1,1,$1+$1,$8,$9*
0 Add four rect primitives between the rounded corners*
20,1,$1+$1,$2,$3,$4,$5,0*
20,1,$1+$1,$4,$5,$6,$7,0*
20,1,$1+$1,$6,$7,$8,$9,0*
20,1,$1+$1,$8,$9,$2,$3,0*%
G04 Aperture macros list end*
%ADD10RoundRect,0.201000X0.150000X-0.825000X0.150000X0.825000X-0.150000X0.825000X-0.150000X-0.825000X0*%
%ADD11RoundRect,0.301000X-0.450000X0.350000X-0.450000X-0.350000X0.450000X-0.350000X0.450000X0.350000X0*%
%ADD12RoundRect,0.301000X0.337500X0.475000X-0.337500X0.475000X-0.337500X-0.475000X0.337500X-0.475000X0*%
%ADD13RoundRect,0.301000X0.350000X0.450000X-0.350000X0.450000X-0.350000X-0.450000X0.350000X-0.450000X0*%
%ADD14C,1.880000*%
%ADD15C,1.902000*%
%ADD16C,3.252000*%
%ADD17C,3.102000*%
%ADD18C,2.352000*%
%ADD19RoundRect,0.301000X0.450000X-0.350000X0.450000X0.350000X-0.450000X0.350000X-0.450000X-0.350000X0*%
%ADD20C,3.251999*%
%ADD21RoundRect,0.301000X-0.337500X-0.475000X0.337500X-0.475000X0.337500X0.475000X-0.337500X0.475000X0*%
%ADD22RoundRect,0.301000X-0.350000X-0.450000X0.350000X-0.450000X0.350000X0.450000X-0.350000X0.450000X0*%
%ADD23C,3.302000*%
%ADD24RoundRect,0.051000X0.900000X0.900000X-0.900000X0.900000X-0.900000X-0.900000X0.900000X-0.900000X0*%
%ADD25RoundRect,0.301000X0.475000X-0.337500X0.475000X0.337500X-0.475000X0.337500X-0.475000X-0.337500X0*%
%ADD26RoundRect,0.201000X-0.150000X0.825000X-0.150000X-0.825000X0.150000X-0.825000X0.150000X0.825000X0*%
%ADD27RoundRect,0.051000X0.850000X0.850000X-0.850000X0.850000X-0.850000X-0.850000X0.850000X-0.850000X0*%
%ADD28O,1.802000X1.802000*%
G04 APERTURE END LIST*
G36*
X128488355Y-28610548D02*
G01*
X128749331Y-28680476D01*
X128994200Y-28794661D01*
X129215521Y-28949631D01*
X129406569Y-29140679D01*
X129561539Y-29362000D01*
X129675724Y-29606869D01*
X129745652Y-29867845D01*
X129769200Y-30137000D01*
X129745652Y-30406155D01*
X129675724Y-30667131D01*
X129561539Y-30912000D01*
X129406569Y-31133321D01*
X129215521Y-31324369D01*
X128994200Y-31479339D01*
X128749331Y-31593524D01*
X128488355Y-31663452D01*
X128219200Y-31687000D01*
X127950045Y-31663452D01*
X127689069Y-31593524D01*
X127444200Y-31479339D01*
X127222879Y-31324369D01*
X127031831Y-31133321D01*
X126876861Y-30912000D01*
X126762676Y-30667131D01*
X126692748Y-30406155D01*
X126669200Y-30137000D01*
X126692748Y-29867845D01*
X126762676Y-29606869D01*
X126876861Y-29362000D01*
X127031831Y-29140679D01*
X127222879Y-28949631D01*
X127444200Y-28794661D01*
X127689069Y-28680476D01*
X128219200Y-28587000D01*
X128488355Y-28610548D01*
G37*
G36*
X121631390Y-30831080D02*
G01*
X121811515Y-30944260D01*
X121961940Y-31094685D01*
X122075120Y-31274810D01*
X122145382Y-31475605D01*
X122169200Y-31687000D01*
X122075120Y-32099190D01*
X121961940Y-32279315D01*
X121811515Y-32429740D01*
X121631390Y-32542920D01*
X121430595Y-32613182D01*
X121219200Y-32637000D01*
X120807010Y-32542920D01*
X120626885Y-32429740D01*
X120476460Y-32279315D01*
X120363280Y-32099190D01*
X120293018Y-31898395D01*
X120269200Y-31687000D01*
X120363280Y-31274810D01*
X120476460Y-31094685D01*
X120626885Y-30944260D01*
X120807010Y-30831080D01*
X121007805Y-30760818D01*
X121219200Y-30737000D01*
X121631390Y-30831080D01*
G37*
G36*
X128488355Y-39710548D02*
G01*
X128749331Y-39780476D01*
X128994200Y-39894661D01*
X129215521Y-40049631D01*
X129406569Y-40240679D01*
X129561539Y-40462000D01*
X129675724Y-40706869D01*
X129745652Y-40967845D01*
X129769200Y-41237000D01*
X129745652Y-41506155D01*
X129675724Y-41767131D01*
X129561539Y-42012000D01*
X129406569Y-42233321D01*
X129215521Y-42424369D01*
X128994200Y-42579339D01*
X128749331Y-42693524D01*
X128488355Y-42763452D01*
X128219200Y-42787000D01*
X127950045Y-42763452D01*
X127689069Y-42693524D01*
X127444200Y-42579339D01*
X127222879Y-42424369D01*
X127031831Y-42233321D01*
X126876861Y-42012000D01*
X126762676Y-41767131D01*
X126692748Y-41506155D01*
X126669200Y-41237000D01*
X126692748Y-40967845D01*
X126762676Y-40706869D01*
X126876861Y-40462000D01*
X127031831Y-40240679D01*
X127222879Y-40049631D01*
X127444200Y-39894661D01*
X127689069Y-39780476D01*
X128219200Y-39687000D01*
X128488355Y-39710548D01*
G37*
G36*
X136131390Y-32331080D02*
G01*
X136311515Y-32444260D01*
X136461940Y-32594685D01*
X136575120Y-32774810D01*
X136645382Y-32975605D01*
X136669200Y-33187000D01*
X136575120Y-33599190D01*
X136461940Y-33779315D01*
X136311515Y-33929740D01*
X136131390Y-34042920D01*
X135930595Y-34113182D01*
X135719200Y-34137000D01*
X135307010Y-34042920D01*
X135126885Y-33929740D01*
X134976460Y-33779315D01*
X134863280Y-33599190D01*
X134793018Y-33398395D01*
X134769200Y-33187000D01*
X134863280Y-32774810D01*
X134976460Y-32594685D01*
X135126885Y-32444260D01*
X135307010Y-32331080D01*
X135507805Y-32260818D01*
X135719200Y-32237000D01*
X136131390Y-32331080D01*
G37*
G36*
X121631390Y-32831080D02*
G01*
X121811515Y-32944260D01*
X121961940Y-33094685D01*
X122075120Y-33274810D01*
X122145382Y-33475605D01*
X122169200Y-33687000D01*
X122075120Y-34099190D01*
X121961940Y-34279315D01*
X121811515Y-34429740D01*
X121631390Y-34542920D01*
X121430595Y-34613182D01*
X121219200Y-34637000D01*
X120807010Y-34542920D01*
X120626885Y-34429740D01*
X120476460Y-34279315D01*
X120363280Y-34099190D01*
X120293018Y-33898395D01*
X120269200Y-33687000D01*
X120363280Y-33274810D01*
X120476460Y-33094685D01*
X120626885Y-32944260D01*
X120807010Y-32831080D01*
X121007805Y-32760818D01*
X121219200Y-32737000D01*
X121631390Y-32831080D01*
G37*
G36*
X121631390Y-36831080D02*
G01*
X121811515Y-36944260D01*
X121961940Y-37094685D01*
X122075120Y-37274810D01*
X122145382Y-37475605D01*
X122169200Y-37687000D01*
X122075120Y-38099190D01*
X121961940Y-38279315D01*
X121811515Y-38429740D01*
X121631390Y-38542920D01*
X121430595Y-38613182D01*
X121219200Y-38637000D01*
X120807010Y-38542920D01*
X120626885Y-38429740D01*
X120476460Y-38279315D01*
X120363280Y-38099190D01*
X120293018Y-37898395D01*
X120269200Y-37687000D01*
X120363280Y-37274810D01*
X120476460Y-37094685D01*
X120626885Y-36944260D01*
X120807010Y-36831080D01*
X121007805Y-36760818D01*
X121219200Y-36737000D01*
X121631390Y-36831080D01*
G37*
G36*
X136131390Y-34831080D02*
G01*
X136311515Y-34944260D01*
X136461940Y-35094685D01*
X136575120Y-35274810D01*
X136645382Y-35475605D01*
X136669200Y-35687000D01*
X136575120Y-36099190D01*
X136461940Y-36279315D01*
X136311515Y-36429740D01*
X136131390Y-36542920D01*
X135930595Y-36613182D01*
X135719200Y-36637000D01*
X135307010Y-36542920D01*
X135126885Y-36429740D01*
X134976460Y-36279315D01*
X134863280Y-36099190D01*
X134793018Y-35898395D01*
X134769200Y-35687000D01*
X134863280Y-35274810D01*
X134976460Y-35094685D01*
X135126885Y-34944260D01*
X135307010Y-34831080D01*
X135507805Y-34760818D01*
X135719200Y-34737000D01*
X136131390Y-34831080D01*
G37*
G36*
X121631390Y-34831080D02*
G01*
X121811515Y-34944260D01*
X121961940Y-35094685D01*
X122075120Y-35274810D01*
X122145382Y-35475605D01*
X122169200Y-35687000D01*
X122075120Y-36099190D01*
X121961940Y-36279315D01*
X121811515Y-36429740D01*
X121631390Y-36542920D01*
X121430595Y-36613182D01*
X121219200Y-36637000D01*
X120807010Y-36542920D01*
X120626885Y-36429740D01*
X120476460Y-36279315D01*
X120363280Y-36099190D01*
X120293018Y-35898395D01*
X120269200Y-35687000D01*
X120363280Y-35274810D01*
X120476460Y-35094685D01*
X120626885Y-34944260D01*
X120807010Y-34831080D01*
X121007805Y-34760818D01*
X121219200Y-34737000D01*
X121631390Y-34831080D01*
G37*
G36*
X121631390Y-38831080D02*
G01*
X121811515Y-38944260D01*
X121961940Y-39094685D01*
X122075120Y-39274810D01*
X122145382Y-39475605D01*
X122169200Y-39687000D01*
X122075120Y-40099190D01*
X121961940Y-40279315D01*
X121811515Y-40429740D01*
X121631390Y-40542920D01*
X121430595Y-40613182D01*
X121219200Y-40637000D01*
X120807010Y-40542920D01*
X120626885Y-40429740D01*
X120476460Y-40279315D01*
X120363280Y-40099190D01*
X120293018Y-39898395D01*
X120269200Y-39687000D01*
X120363280Y-39274810D01*
X120476460Y-39094685D01*
X120626885Y-38944260D01*
X120807010Y-38831080D01*
X121007805Y-38760818D01*
X121219200Y-38737000D01*
X121631390Y-38831080D01*
G37*
G36*
X136131390Y-37331080D02*
G01*
X136311515Y-37444260D01*
X136461940Y-37594685D01*
X136575120Y-37774810D01*
X136645382Y-37975605D01*
X136669200Y-38187000D01*
X136575120Y-38599190D01*
X136461940Y-38779315D01*
X136311515Y-38929740D01*
X136131390Y-39042920D01*
X135930595Y-39113182D01*
X135719200Y-39137000D01*
X135307010Y-39042920D01*
X135126885Y-38929740D01*
X134976460Y-38779315D01*
X134863280Y-38599190D01*
X134793018Y-38398395D01*
X134769200Y-38187000D01*
X134863280Y-37774810D01*
X134976460Y-37594685D01*
X135126885Y-37444260D01*
X135307010Y-37331080D01*
X135507805Y-37260818D01*
X135719200Y-37237000D01*
X136131390Y-37331080D01*
G37*
G36*
X181063990Y-34831080D02*
G01*
X181244115Y-34944260D01*
X181394540Y-35094685D01*
X181507720Y-35274810D01*
X181577982Y-35475605D01*
X181601800Y-35687000D01*
X181507720Y-36099190D01*
X181394540Y-36279315D01*
X181244115Y-36429740D01*
X181063990Y-36542920D01*
X180863195Y-36613182D01*
X180651800Y-36637000D01*
X180239610Y-36542920D01*
X180059485Y-36429740D01*
X179909060Y-36279315D01*
X179795880Y-36099190D01*
X179725618Y-35898395D01*
X179701800Y-35687000D01*
X179795880Y-35274810D01*
X179909060Y-35094685D01*
X180059485Y-34944260D01*
X180239610Y-34831080D01*
X180440405Y-34760818D01*
X180651800Y-34737000D01*
X181063990Y-34831080D01*
G37*
G36*
X166563990Y-34831080D02*
G01*
X166744115Y-34944260D01*
X166894540Y-35094685D01*
X167007720Y-35274810D01*
X167077982Y-35475605D01*
X167101800Y-35687000D01*
X167007720Y-36099190D01*
X166894540Y-36279315D01*
X166744115Y-36429740D01*
X166563990Y-36542920D01*
X166363195Y-36613182D01*
X166151800Y-36637000D01*
X165739610Y-36542920D01*
X165559485Y-36429740D01*
X165409060Y-36279315D01*
X165295880Y-36099190D01*
X165225618Y-35898395D01*
X165201800Y-35687000D01*
X165295880Y-35274810D01*
X165409060Y-35094685D01*
X165559485Y-34944260D01*
X165739610Y-34831080D01*
X165940405Y-34760818D01*
X166151800Y-34737000D01*
X166563990Y-34831080D01*
G37*
G36*
X181063990Y-37331080D02*
G01*
X181244115Y-37444260D01*
X181394540Y-37594685D01*
X181507720Y-37774810D01*
X181577982Y-37975605D01*
X181601800Y-38187000D01*
X181507720Y-38599190D01*
X181394540Y-38779315D01*
X181244115Y-38929740D01*
X181063990Y-39042920D01*
X180863195Y-39113182D01*
X180651800Y-39137000D01*
X180239610Y-39042920D01*
X180059485Y-38929740D01*
X179909060Y-38779315D01*
X179795880Y-38599190D01*
X179725618Y-38398395D01*
X179701800Y-38187000D01*
X179795880Y-37774810D01*
X179909060Y-37594685D01*
X180059485Y-37444260D01*
X180239610Y-37331080D01*
X180440405Y-37260818D01*
X180651800Y-37237000D01*
X181063990Y-37331080D01*
G37*
G36*
X166563990Y-30831080D02*
G01*
X166744115Y-30944260D01*
X166894540Y-31094685D01*
X167007720Y-31274810D01*
X167077982Y-31475605D01*
X167101800Y-31687000D01*
X167007720Y-32099190D01*
X166894540Y-32279315D01*
X166744115Y-32429740D01*
X166563990Y-32542920D01*
X166363195Y-32613182D01*
X166151800Y-32637000D01*
X165739610Y-32542920D01*
X165559485Y-32429740D01*
X165409060Y-32279315D01*
X165295880Y-32099190D01*
X165225618Y-31898395D01*
X165201800Y-31687000D01*
X165295880Y-31274810D01*
X165409060Y-31094685D01*
X165559485Y-30944260D01*
X165739610Y-30831080D01*
X165940405Y-30760818D01*
X166151800Y-30737000D01*
X166563990Y-30831080D01*
G37*
G36*
X173420955Y-39710548D02*
G01*
X173681931Y-39780476D01*
X173926800Y-39894661D01*
X174148121Y-40049631D01*
X174339169Y-40240679D01*
X174494139Y-40462000D01*
X174608324Y-40706869D01*
X174678252Y-40967845D01*
X174701800Y-41237000D01*
X174678252Y-41506155D01*
X174608324Y-41767131D01*
X174494139Y-42012000D01*
X174339169Y-42233321D01*
X174148121Y-42424369D01*
X173926800Y-42579339D01*
X173681931Y-42693524D01*
X173420955Y-42763452D01*
X173151800Y-42787000D01*
X172882645Y-42763452D01*
X172621669Y-42693524D01*
X172376800Y-42579339D01*
X172155479Y-42424369D01*
X171964431Y-42233321D01*
X171809461Y-42012000D01*
X171695276Y-41767131D01*
X171625348Y-41506155D01*
X171601800Y-41237000D01*
X171625348Y-40967845D01*
X171695276Y-40706869D01*
X171809461Y-40462000D01*
X171964431Y-40240679D01*
X172155479Y-40049631D01*
X172376800Y-39894661D01*
X172621669Y-39780476D01*
X173151800Y-39687000D01*
X173420955Y-39710548D01*
G37*
G36*
X181063990Y-32331080D02*
G01*
X181244115Y-32444260D01*
X181394540Y-32594685D01*
X181507720Y-32774810D01*
X181577982Y-32975605D01*
X181601800Y-33187000D01*
X181507720Y-33599190D01*
X181394540Y-33779315D01*
X181244115Y-33929740D01*
X181063990Y-34042920D01*
X180863195Y-34113182D01*
X180651800Y-34137000D01*
X180239610Y-34042920D01*
X180059485Y-33929740D01*
X179909060Y-33779315D01*
X179795880Y-33599190D01*
X179725618Y-33398395D01*
X179701800Y-33187000D01*
X179795880Y-32774810D01*
X179909060Y-32594685D01*
X180059485Y-32444260D01*
X180239610Y-32331080D01*
X180440405Y-32260818D01*
X180651800Y-32237000D01*
X181063990Y-32331080D01*
G37*
G36*
X166563990Y-36831080D02*
G01*
X166744115Y-36944260D01*
X166894540Y-37094685D01*
X167007720Y-37274810D01*
X167077982Y-37475605D01*
X167101800Y-37687000D01*
X167007720Y-38099190D01*
X166894540Y-38279315D01*
X166744115Y-38429740D01*
X166563990Y-38542920D01*
X166363195Y-38613182D01*
X166151800Y-38637000D01*
X165739610Y-38542920D01*
X165559485Y-38429740D01*
X165409060Y-38279315D01*
X165295880Y-38099190D01*
X165225618Y-37898395D01*
X165201800Y-37687000D01*
X165295880Y-37274810D01*
X165409060Y-37094685D01*
X165559485Y-36944260D01*
X165739610Y-36831080D01*
X165940405Y-36760818D01*
X166151800Y-36737000D01*
X166563990Y-36831080D01*
G37*
G36*
X166563990Y-38831080D02*
G01*
X166744115Y-38944260D01*
X166894540Y-39094685D01*
X167007720Y-39274810D01*
X167077982Y-39475605D01*
X167101800Y-39687000D01*
X167007720Y-40099190D01*
X166894540Y-40279315D01*
X166744115Y-40429740D01*
X166563990Y-40542920D01*
X166363195Y-40613182D01*
X166151800Y-40637000D01*
X165739610Y-40542920D01*
X165559485Y-40429740D01*
X165409060Y-40279315D01*
X165295880Y-40099190D01*
X165225618Y-39898395D01*
X165201800Y-39687000D01*
X165295880Y-39274810D01*
X165409060Y-39094685D01*
X165559485Y-38944260D01*
X165739610Y-38831080D01*
X165940405Y-38760818D01*
X166151800Y-38737000D01*
X166563990Y-38831080D01*
G37*
G36*
X173420955Y-28610548D02*
G01*
X173681931Y-28680476D01*
X173926800Y-28794661D01*
X174148121Y-28949631D01*
X174339169Y-29140679D01*
X174494139Y-29362000D01*
X174608324Y-29606869D01*
X174678252Y-29867845D01*
X174701800Y-30137000D01*
X174678252Y-30406155D01*
X174608324Y-30667131D01*
X174494139Y-30912000D01*
X174339169Y-31133321D01*
X174148121Y-31324369D01*
X173926800Y-31479339D01*
X173681931Y-31593524D01*
X173420955Y-31663452D01*
X173151800Y-31687000D01*
X172882645Y-31663452D01*
X172621669Y-31593524D01*
X172376800Y-31479339D01*
X172155479Y-31324369D01*
X171964431Y-31133321D01*
X171809461Y-30912000D01*
X171695276Y-30667131D01*
X171625348Y-30406155D01*
X171601800Y-30137000D01*
X171625348Y-29867845D01*
X171695276Y-29606869D01*
X171809461Y-29362000D01*
X171964431Y-29140679D01*
X172155479Y-28949631D01*
X172376800Y-28794661D01*
X172621669Y-28680476D01*
X173151800Y-28587000D01*
X173420955Y-28610548D01*
G37*
G36*
X166563990Y-32831080D02*
G01*
X166744115Y-32944260D01*
X166894540Y-33094685D01*
X167007720Y-33274810D01*
X167077982Y-33475605D01*
X167101800Y-33687000D01*
X167007720Y-34099190D01*
X166894540Y-34279315D01*
X166744115Y-34429740D01*
X166563990Y-34542920D01*
X166363195Y-34613182D01*
X166151800Y-34637000D01*
X165739610Y-34542920D01*
X165559485Y-34429740D01*
X165409060Y-34279315D01*
X165295880Y-34099190D01*
X165225618Y-33898395D01*
X165201800Y-33687000D01*
X165295880Y-33274810D01*
X165409060Y-33094685D01*
X165559485Y-32944260D01*
X165739610Y-32831080D01*
X165940405Y-32760818D01*
X166151800Y-32737000D01*
X166563990Y-32831080D01*
G37*
G36*
X128488355Y-73543148D02*
G01*
X128749331Y-73613076D01*
X128994200Y-73727261D01*
X129215521Y-73882231D01*
X129406569Y-74073279D01*
X129561539Y-74294600D01*
X129675724Y-74539469D01*
X129745652Y-74800445D01*
X129769200Y-75069600D01*
X129745652Y-75338755D01*
X129675724Y-75599731D01*
X129561539Y-75844600D01*
X129406569Y-76065921D01*
X129215521Y-76256969D01*
X128994200Y-76411939D01*
X128749331Y-76526124D01*
X128488355Y-76596052D01*
X128219200Y-76619600D01*
X127950045Y-76596052D01*
X127689069Y-76526124D01*
X127444200Y-76411939D01*
X127222879Y-76256969D01*
X127031831Y-76065921D01*
X126876861Y-75844600D01*
X126762676Y-75599731D01*
X126692748Y-75338755D01*
X126669200Y-75069600D01*
X126692748Y-74800445D01*
X126762676Y-74539469D01*
X126876861Y-74294600D01*
X127031831Y-74073279D01*
X127222879Y-73882231D01*
X127444200Y-73727261D01*
X127689069Y-73613076D01*
X128219200Y-73519600D01*
X128488355Y-73543148D01*
G37*
G36*
X121631390Y-79763680D02*
G01*
X121811515Y-79876860D01*
X121961940Y-80027285D01*
X122075120Y-80207410D01*
X122145382Y-80408205D01*
X122169200Y-80619600D01*
X122075120Y-81031790D01*
X121961940Y-81211915D01*
X121811515Y-81362340D01*
X121631390Y-81475520D01*
X121430595Y-81545782D01*
X121219200Y-81569600D01*
X120807010Y-81475520D01*
X120626885Y-81362340D01*
X120476460Y-81211915D01*
X120363280Y-81031790D01*
X120293018Y-80830995D01*
X120269200Y-80619600D01*
X120363280Y-80207410D01*
X120476460Y-80027285D01*
X120626885Y-79876860D01*
X120807010Y-79763680D01*
X121007805Y-79693418D01*
X121219200Y-79669600D01*
X121631390Y-79763680D01*
G37*
G36*
X121631390Y-83763680D02*
G01*
X121811515Y-83876860D01*
X121961940Y-84027285D01*
X122075120Y-84207410D01*
X122145382Y-84408205D01*
X122169200Y-84619600D01*
X122075120Y-85031790D01*
X121961940Y-85211915D01*
X121811515Y-85362340D01*
X121631390Y-85475520D01*
X121430595Y-85545782D01*
X121219200Y-85569600D01*
X120807010Y-85475520D01*
X120626885Y-85362340D01*
X120476460Y-85211915D01*
X120363280Y-85031790D01*
X120293018Y-84830995D01*
X120269200Y-84619600D01*
X120363280Y-84207410D01*
X120476460Y-84027285D01*
X120626885Y-83876860D01*
X120807010Y-83763680D01*
X121007805Y-83693418D01*
X121219200Y-83669600D01*
X121631390Y-83763680D01*
G37*
G36*
X136131390Y-77263680D02*
G01*
X136311515Y-77376860D01*
X136461940Y-77527285D01*
X136575120Y-77707410D01*
X136645382Y-77908205D01*
X136669200Y-78119600D01*
X136575120Y-78531790D01*
X136461940Y-78711915D01*
X136311515Y-78862340D01*
X136131390Y-78975520D01*
X135930595Y-79045782D01*
X135719200Y-79069600D01*
X135307010Y-78975520D01*
X135126885Y-78862340D01*
X134976460Y-78711915D01*
X134863280Y-78531790D01*
X134793018Y-78330995D01*
X134769200Y-78119600D01*
X134863280Y-77707410D01*
X134976460Y-77527285D01*
X135126885Y-77376860D01*
X135307010Y-77263680D01*
X135507805Y-77193418D01*
X135719200Y-77169600D01*
X136131390Y-77263680D01*
G37*
G36*
X121631390Y-77763680D02*
G01*
X121811515Y-77876860D01*
X121961940Y-78027285D01*
X122075120Y-78207410D01*
X122145382Y-78408205D01*
X122169200Y-78619600D01*
X122075120Y-79031790D01*
X121961940Y-79211915D01*
X121811515Y-79362340D01*
X121631390Y-79475520D01*
X121430595Y-79545782D01*
X121219200Y-79569600D01*
X120807010Y-79475520D01*
X120626885Y-79362340D01*
X120476460Y-79211915D01*
X120363280Y-79031790D01*
X120293018Y-78830995D01*
X120269200Y-78619600D01*
X120363280Y-78207410D01*
X120476460Y-78027285D01*
X120626885Y-77876860D01*
X120807010Y-77763680D01*
X121007805Y-77693418D01*
X121219200Y-77669600D01*
X121631390Y-77763680D01*
G37*
G36*
X136131390Y-82263680D02*
G01*
X136311515Y-82376860D01*
X136461940Y-82527285D01*
X136575120Y-82707410D01*
X136645382Y-82908205D01*
X136669200Y-83119600D01*
X136575120Y-83531790D01*
X136461940Y-83711915D01*
X136311515Y-83862340D01*
X136131390Y-83975520D01*
X135930595Y-84045782D01*
X135719200Y-84069600D01*
X135307010Y-83975520D01*
X135126885Y-83862340D01*
X134976460Y-83711915D01*
X134863280Y-83531790D01*
X134793018Y-83330995D01*
X134769200Y-83119600D01*
X134863280Y-82707410D01*
X134976460Y-82527285D01*
X135126885Y-82376860D01*
X135307010Y-82263680D01*
X135507805Y-82193418D01*
X135719200Y-82169600D01*
X136131390Y-82263680D01*
G37*
G36*
X121631390Y-75763680D02*
G01*
X121811515Y-75876860D01*
X121961940Y-76027285D01*
X122075120Y-76207410D01*
X122145382Y-76408205D01*
X122169200Y-76619600D01*
X122075120Y-77031790D01*
X121961940Y-77211915D01*
X121811515Y-77362340D01*
X121631390Y-77475520D01*
X121430595Y-77545782D01*
X121219200Y-77569600D01*
X120807010Y-77475520D01*
X120626885Y-77362340D01*
X120476460Y-77211915D01*
X120363280Y-77031790D01*
X120293018Y-76830995D01*
X120269200Y-76619600D01*
X120363280Y-76207410D01*
X120476460Y-76027285D01*
X120626885Y-75876860D01*
X120807010Y-75763680D01*
X121007805Y-75693418D01*
X121219200Y-75669600D01*
X121631390Y-75763680D01*
G37*
G36*
X136131390Y-79763680D02*
G01*
X136311515Y-79876860D01*
X136461940Y-80027285D01*
X136575120Y-80207410D01*
X136645382Y-80408205D01*
X136669200Y-80619600D01*
X136575120Y-81031790D01*
X136461940Y-81211915D01*
X136311515Y-81362340D01*
X136131390Y-81475520D01*
X135930595Y-81545782D01*
X135719200Y-81569600D01*
X135307010Y-81475520D01*
X135126885Y-81362340D01*
X134976460Y-81211915D01*
X134863280Y-81031790D01*
X134793018Y-80830995D01*
X134769200Y-80619600D01*
X134863280Y-80207410D01*
X134976460Y-80027285D01*
X135126885Y-79876860D01*
X135307010Y-79763680D01*
X135507805Y-79693418D01*
X135719200Y-79669600D01*
X136131390Y-79763680D01*
G37*
G36*
X128488355Y-84643148D02*
G01*
X128749331Y-84713076D01*
X128994200Y-84827261D01*
X129215521Y-84982231D01*
X129406569Y-85173279D01*
X129561539Y-85394600D01*
X129675724Y-85639469D01*
X129745652Y-85900445D01*
X129769200Y-86169600D01*
X129745652Y-86438755D01*
X129675724Y-86699731D01*
X129561539Y-86944600D01*
X129406569Y-87165921D01*
X129215521Y-87356969D01*
X128994200Y-87511939D01*
X128749331Y-87626124D01*
X128488355Y-87696052D01*
X128219200Y-87719600D01*
X127950045Y-87696052D01*
X127689069Y-87626124D01*
X127444200Y-87511939D01*
X127222879Y-87356969D01*
X127031831Y-87165921D01*
X126876861Y-86944600D01*
X126762676Y-86699731D01*
X126692748Y-86438755D01*
X126669200Y-86169600D01*
X126692748Y-85900445D01*
X126762676Y-85639469D01*
X126876861Y-85394600D01*
X127031831Y-85173279D01*
X127222879Y-84982231D01*
X127444200Y-84827261D01*
X127689069Y-84713076D01*
X128219200Y-84619600D01*
X128488355Y-84643148D01*
G37*
G36*
X121631390Y-81763680D02*
G01*
X121811515Y-81876860D01*
X121961940Y-82027285D01*
X122075120Y-82207410D01*
X122145382Y-82408205D01*
X122169200Y-82619600D01*
X122075120Y-83031790D01*
X121961940Y-83211915D01*
X121811515Y-83362340D01*
X121631390Y-83475520D01*
X121430595Y-83545782D01*
X121219200Y-83569600D01*
X120807010Y-83475520D01*
X120626885Y-83362340D01*
X120476460Y-83211915D01*
X120363280Y-83031790D01*
X120293018Y-82830995D01*
X120269200Y-82619600D01*
X120363280Y-82207410D01*
X120476460Y-82027285D01*
X120626885Y-81876860D01*
X120807010Y-81763680D01*
X121007805Y-81693418D01*
X121219200Y-81669600D01*
X121631390Y-81763680D01*
G37*
G36*
X166563990Y-77763680D02*
G01*
X166744115Y-77876860D01*
X166894540Y-78027285D01*
X167007720Y-78207410D01*
X167077982Y-78408205D01*
X167101800Y-78619600D01*
X167007720Y-79031790D01*
X166894540Y-79211915D01*
X166744115Y-79362340D01*
X166563990Y-79475520D01*
X166363195Y-79545782D01*
X166151800Y-79569600D01*
X165739610Y-79475520D01*
X165559485Y-79362340D01*
X165409060Y-79211915D01*
X165295880Y-79031790D01*
X165225618Y-78830995D01*
X165201800Y-78619600D01*
X165295880Y-78207410D01*
X165409060Y-78027285D01*
X165559485Y-77876860D01*
X165739610Y-77763680D01*
X165940405Y-77693418D01*
X166151800Y-77669600D01*
X166563990Y-77763680D01*
G37*
G36*
X173420955Y-73543148D02*
G01*
X173681931Y-73613076D01*
X173926800Y-73727261D01*
X174148121Y-73882231D01*
X174339169Y-74073279D01*
X174494139Y-74294600D01*
X174608324Y-74539469D01*
X174678252Y-74800445D01*
X174701800Y-75069600D01*
X174678252Y-75338755D01*
X174608324Y-75599731D01*
X174494139Y-75844600D01*
X174339169Y-76065921D01*
X174148121Y-76256969D01*
X173926800Y-76411939D01*
X173681931Y-76526124D01*
X173420955Y-76596052D01*
X173151800Y-76619600D01*
X172882645Y-76596052D01*
X172621669Y-76526124D01*
X172376800Y-76411939D01*
X172155479Y-76256969D01*
X171964431Y-76065921D01*
X171809461Y-75844600D01*
X171695276Y-75599731D01*
X171625348Y-75338755D01*
X171601800Y-75069600D01*
X171625348Y-74800445D01*
X171695276Y-74539469D01*
X171809461Y-74294600D01*
X171964431Y-74073279D01*
X172155479Y-73882231D01*
X172376800Y-73727261D01*
X172621669Y-73613076D01*
X173151800Y-73519600D01*
X173420955Y-73543148D01*
G37*
G36*
X173420955Y-84643148D02*
G01*
X173681931Y-84713076D01*
X173926800Y-84827261D01*
X174148121Y-84982231D01*
X174339169Y-85173279D01*
X174494139Y-85394600D01*
X174608324Y-85639469D01*
X174678252Y-85900445D01*
X174701800Y-86169600D01*
X174678252Y-86438755D01*
X174608324Y-86699731D01*
X174494139Y-86944600D01*
X174339169Y-87165921D01*
X174148121Y-87356969D01*
X173926800Y-87511939D01*
X173681931Y-87626124D01*
X173420955Y-87696052D01*
X173151800Y-87719600D01*
X172882645Y-87696052D01*
X172621669Y-87626124D01*
X172376800Y-87511939D01*
X172155479Y-87356969D01*
X171964431Y-87165921D01*
X171809461Y-86944600D01*
X171695276Y-86699731D01*
X171625348Y-86438755D01*
X171601800Y-86169600D01*
X171625348Y-85900445D01*
X171695276Y-85639469D01*
X171809461Y-85394600D01*
X171964431Y-85173279D01*
X172155479Y-84982231D01*
X172376800Y-84827261D01*
X172621669Y-84713076D01*
X173151800Y-84619600D01*
X173420955Y-84643148D01*
G37*
G36*
X166563990Y-83763680D02*
G01*
X166744115Y-83876860D01*
X166894540Y-84027285D01*
X167007720Y-84207410D01*
X167077982Y-84408205D01*
X167101800Y-84619600D01*
X167007720Y-85031790D01*
X166894540Y-85211915D01*
X166744115Y-85362340D01*
X166563990Y-85475520D01*
X166363195Y-85545782D01*
X166151800Y-85569600D01*
X165739610Y-85475520D01*
X165559485Y-85362340D01*
X165409060Y-85211915D01*
X165295880Y-85031790D01*
X165225618Y-84830995D01*
X165201800Y-84619600D01*
X165295880Y-84207410D01*
X165409060Y-84027285D01*
X165559485Y-83876860D01*
X165739610Y-83763680D01*
X165940405Y-83693418D01*
X166151800Y-83669600D01*
X166563990Y-83763680D01*
G37*
G36*
X166563990Y-79763680D02*
G01*
X166744115Y-79876860D01*
X166894540Y-80027285D01*
X167007720Y-80207410D01*
X167077982Y-80408205D01*
X167101800Y-80619600D01*
X167007720Y-81031790D01*
X166894540Y-81211915D01*
X166744115Y-81362340D01*
X166563990Y-81475520D01*
X166363195Y-81545782D01*
X166151800Y-81569600D01*
X165739610Y-81475520D01*
X165559485Y-81362340D01*
X165409060Y-81211915D01*
X165295880Y-81031790D01*
X165225618Y-80830995D01*
X165201800Y-80619600D01*
X165295880Y-80207410D01*
X165409060Y-80027285D01*
X165559485Y-79876860D01*
X165739610Y-79763680D01*
X165940405Y-79693418D01*
X166151800Y-79669600D01*
X166563990Y-79763680D01*
G37*
G36*
X181063990Y-82263680D02*
G01*
X181244115Y-82376860D01*
X181394540Y-82527285D01*
X181507720Y-82707410D01*
X181577982Y-82908205D01*
X181601800Y-83119600D01*
X181507720Y-83531790D01*
X181394540Y-83711915D01*
X181244115Y-83862340D01*
X181063990Y-83975520D01*
X180863195Y-84045782D01*
X180651800Y-84069600D01*
X180239610Y-83975520D01*
X180059485Y-83862340D01*
X179909060Y-83711915D01*
X179795880Y-83531790D01*
X179725618Y-83330995D01*
X179701800Y-83119600D01*
X179795880Y-82707410D01*
X179909060Y-82527285D01*
X180059485Y-82376860D01*
X180239610Y-82263680D01*
X180440405Y-82193418D01*
X180651800Y-82169600D01*
X181063990Y-82263680D01*
G37*
G36*
X166563990Y-81763680D02*
G01*
X166744115Y-81876860D01*
X166894540Y-82027285D01*
X167007720Y-82207410D01*
X167077982Y-82408205D01*
X167101800Y-82619600D01*
X167007720Y-83031790D01*
X166894540Y-83211915D01*
X166744115Y-83362340D01*
X166563990Y-83475520D01*
X166363195Y-83545782D01*
X166151800Y-83569600D01*
X165739610Y-83475520D01*
X165559485Y-83362340D01*
X165409060Y-83211915D01*
X165295880Y-83031790D01*
X165225618Y-82830995D01*
X165201800Y-82619600D01*
X165295880Y-82207410D01*
X165409060Y-82027285D01*
X165559485Y-81876860D01*
X165739610Y-81763680D01*
X165940405Y-81693418D01*
X166151800Y-81669600D01*
X166563990Y-81763680D01*
G37*
G36*
X181063990Y-79763680D02*
G01*
X181244115Y-79876860D01*
X181394540Y-80027285D01*
X181507720Y-80207410D01*
X181577982Y-80408205D01*
X181601800Y-80619600D01*
X181507720Y-81031790D01*
X181394540Y-81211915D01*
X181244115Y-81362340D01*
X181063990Y-81475520D01*
X180863195Y-81545782D01*
X180651800Y-81569600D01*
X180239610Y-81475520D01*
X180059485Y-81362340D01*
X179909060Y-81211915D01*
X179795880Y-81031790D01*
X179725618Y-80830995D01*
X179701800Y-80619600D01*
X179795880Y-80207410D01*
X179909060Y-80027285D01*
X180059485Y-79876860D01*
X180239610Y-79763680D01*
X180440405Y-79693418D01*
X180651800Y-79669600D01*
X181063990Y-79763680D01*
G37*
G36*
X166563990Y-75763680D02*
G01*
X166744115Y-75876860D01*
X166894540Y-76027285D01*
X167007720Y-76207410D01*
X167077982Y-76408205D01*
X167101800Y-76619600D01*
X167007720Y-77031790D01*
X166894540Y-77211915D01*
X166744115Y-77362340D01*
X166563990Y-77475520D01*
X166363195Y-77545782D01*
X166151800Y-77569600D01*
X165739610Y-77475520D01*
X165559485Y-77362340D01*
X165409060Y-77211915D01*
X165295880Y-77031790D01*
X165225618Y-76830995D01*
X165201800Y-76619600D01*
X165295880Y-76207410D01*
X165409060Y-76027285D01*
X165559485Y-75876860D01*
X165739610Y-75763680D01*
X165940405Y-75693418D01*
X166151800Y-75669600D01*
X166563990Y-75763680D01*
G37*
G36*
X181063990Y-77263680D02*
G01*
X181244115Y-77376860D01*
X181394540Y-77527285D01*
X181507720Y-77707410D01*
X181577982Y-77908205D01*
X181601800Y-78119600D01*
X181507720Y-78531790D01*
X181394540Y-78711915D01*
X181244115Y-78862340D01*
X181063990Y-78975520D01*
X180863195Y-79045782D01*
X180651800Y-79069600D01*
X180239610Y-78975520D01*
X180059485Y-78862340D01*
X179909060Y-78711915D01*
X179795880Y-78531790D01*
X179725618Y-78330995D01*
X179701800Y-78119600D01*
X179795880Y-77707410D01*
X179909060Y-77527285D01*
X180059485Y-77376860D01*
X180239610Y-77263680D01*
X180440405Y-77193418D01*
X180651800Y-77169600D01*
X181063990Y-77263680D01*
G37*
G36*
X128488355Y-28610548D02*
G01*
X128749331Y-28680476D01*
X128994200Y-28794661D01*
X129215521Y-28949631D01*
X129406569Y-29140679D01*
X129561539Y-29362000D01*
X129675724Y-29606869D01*
X129745652Y-29867845D01*
X129769200Y-30137000D01*
X129745652Y-30406155D01*
X129675724Y-30667131D01*
X129561539Y-30912000D01*
X129406569Y-31133321D01*
X129215521Y-31324369D01*
X128994200Y-31479339D01*
X128749331Y-31593524D01*
X128488355Y-31663452D01*
X128219200Y-31687000D01*
X127950045Y-31663452D01*
X127689069Y-31593524D01*
X127444200Y-31479339D01*
X127222879Y-31324369D01*
X127031831Y-31133321D01*
X126876861Y-30912000D01*
X126762676Y-30667131D01*
X126692748Y-30406155D01*
X126669200Y-30137000D01*
X126692748Y-29867845D01*
X126762676Y-29606869D01*
X126876861Y-29362000D01*
X127031831Y-29140679D01*
X127222879Y-28949631D01*
X127444200Y-28794661D01*
X127689069Y-28680476D01*
X128219200Y-28587000D01*
X128488355Y-28610548D01*
G37*
G36*
X121631390Y-30831080D02*
G01*
X121811515Y-30944260D01*
X121961940Y-31094685D01*
X122075120Y-31274810D01*
X122145382Y-31475605D01*
X122169200Y-31687000D01*
X122075120Y-32099190D01*
X121961940Y-32279315D01*
X121811515Y-32429740D01*
X121631390Y-32542920D01*
X121430595Y-32613182D01*
X121219200Y-32637000D01*
X120807010Y-32542920D01*
X120626885Y-32429740D01*
X120476460Y-32279315D01*
X120363280Y-32099190D01*
X120293018Y-31898395D01*
X120269200Y-31687000D01*
X120363280Y-31274810D01*
X120476460Y-31094685D01*
X120626885Y-30944260D01*
X120807010Y-30831080D01*
X121007805Y-30760818D01*
X121219200Y-30737000D01*
X121631390Y-30831080D01*
G37*
G36*
X128488355Y-39710548D02*
G01*
X128749331Y-39780476D01*
X128994200Y-39894661D01*
X129215521Y-40049631D01*
X129406569Y-40240679D01*
X129561539Y-40462000D01*
X129675724Y-40706869D01*
X129745652Y-40967845D01*
X129769200Y-41237000D01*
X129745652Y-41506155D01*
X129675724Y-41767131D01*
X129561539Y-42012000D01*
X129406569Y-42233321D01*
X129215521Y-42424369D01*
X128994200Y-42579339D01*
X128749331Y-42693524D01*
X128488355Y-42763452D01*
X128219200Y-42787000D01*
X127950045Y-42763452D01*
X127689069Y-42693524D01*
X127444200Y-42579339D01*
X127222879Y-42424369D01*
X127031831Y-42233321D01*
X126876861Y-42012000D01*
X126762676Y-41767131D01*
X126692748Y-41506155D01*
X126669200Y-41237000D01*
X126692748Y-40967845D01*
X126762676Y-40706869D01*
X126876861Y-40462000D01*
X127031831Y-40240679D01*
X127222879Y-40049631D01*
X127444200Y-39894661D01*
X127689069Y-39780476D01*
X128219200Y-39687000D01*
X128488355Y-39710548D01*
G37*
G36*
X136131390Y-32331080D02*
G01*
X136311515Y-32444260D01*
X136461940Y-32594685D01*
X136575120Y-32774810D01*
X136645382Y-32975605D01*
X136669200Y-33187000D01*
X136575120Y-33599190D01*
X136461940Y-33779315D01*
X136311515Y-33929740D01*
X136131390Y-34042920D01*
X135930595Y-34113182D01*
X135719200Y-34137000D01*
X135307010Y-34042920D01*
X135126885Y-33929740D01*
X134976460Y-33779315D01*
X134863280Y-33599190D01*
X134793018Y-33398395D01*
X134769200Y-33187000D01*
X134863280Y-32774810D01*
X134976460Y-32594685D01*
X135126885Y-32444260D01*
X135307010Y-32331080D01*
X135507805Y-32260818D01*
X135719200Y-32237000D01*
X136131390Y-32331080D01*
G37*
G36*
X121631390Y-32831080D02*
G01*
X121811515Y-32944260D01*
X121961940Y-33094685D01*
X122075120Y-33274810D01*
X122145382Y-33475605D01*
X122169200Y-33687000D01*
X122075120Y-34099190D01*
X121961940Y-34279315D01*
X121811515Y-34429740D01*
X121631390Y-34542920D01*
X121430595Y-34613182D01*
X121219200Y-34637000D01*
X120807010Y-34542920D01*
X120626885Y-34429740D01*
X120476460Y-34279315D01*
X120363280Y-34099190D01*
X120293018Y-33898395D01*
X120269200Y-33687000D01*
X120363280Y-33274810D01*
X120476460Y-33094685D01*
X120626885Y-32944260D01*
X120807010Y-32831080D01*
X121007805Y-32760818D01*
X121219200Y-32737000D01*
X121631390Y-32831080D01*
G37*
G36*
X121631390Y-36831080D02*
G01*
X121811515Y-36944260D01*
X121961940Y-37094685D01*
X122075120Y-37274810D01*
X122145382Y-37475605D01*
X122169200Y-37687000D01*
X122075120Y-38099190D01*
X121961940Y-38279315D01*
X121811515Y-38429740D01*
X121631390Y-38542920D01*
X121430595Y-38613182D01*
X121219200Y-38637000D01*
X120807010Y-38542920D01*
X120626885Y-38429740D01*
X120476460Y-38279315D01*
X120363280Y-38099190D01*
X120293018Y-37898395D01*
X120269200Y-37687000D01*
X120363280Y-37274810D01*
X120476460Y-37094685D01*
X120626885Y-36944260D01*
X120807010Y-36831080D01*
X121007805Y-36760818D01*
X121219200Y-36737000D01*
X121631390Y-36831080D01*
G37*
G36*
X136131390Y-34831080D02*
G01*
X136311515Y-34944260D01*
X136461940Y-35094685D01*
X136575120Y-35274810D01*
X136645382Y-35475605D01*
X136669200Y-35687000D01*
X136575120Y-36099190D01*
X136461940Y-36279315D01*
X136311515Y-36429740D01*
X136131390Y-36542920D01*
X135930595Y-36613182D01*
X135719200Y-36637000D01*
X135307010Y-36542920D01*
X135126885Y-36429740D01*
X134976460Y-36279315D01*
X134863280Y-36099190D01*
X134793018Y-35898395D01*
X134769200Y-35687000D01*
X134863280Y-35274810D01*
X134976460Y-35094685D01*
X135126885Y-34944260D01*
X135307010Y-34831080D01*
X135507805Y-34760818D01*
X135719200Y-34737000D01*
X136131390Y-34831080D01*
G37*
G36*
X121631390Y-34831080D02*
G01*
X121811515Y-34944260D01*
X121961940Y-35094685D01*
X122075120Y-35274810D01*
X122145382Y-35475605D01*
X122169200Y-35687000D01*
X122075120Y-36099190D01*
X121961940Y-36279315D01*
X121811515Y-36429740D01*
X121631390Y-36542920D01*
X121430595Y-36613182D01*
X121219200Y-36637000D01*
X120807010Y-36542920D01*
X120626885Y-36429740D01*
X120476460Y-36279315D01*
X120363280Y-36099190D01*
X120293018Y-35898395D01*
X120269200Y-35687000D01*
X120363280Y-35274810D01*
X120476460Y-35094685D01*
X120626885Y-34944260D01*
X120807010Y-34831080D01*
X121007805Y-34760818D01*
X121219200Y-34737000D01*
X121631390Y-34831080D01*
G37*
G36*
X121631390Y-38831080D02*
G01*
X121811515Y-38944260D01*
X121961940Y-39094685D01*
X122075120Y-39274810D01*
X122145382Y-39475605D01*
X122169200Y-39687000D01*
X122075120Y-40099190D01*
X121961940Y-40279315D01*
X121811515Y-40429740D01*
X121631390Y-40542920D01*
X121430595Y-40613182D01*
X121219200Y-40637000D01*
X120807010Y-40542920D01*
X120626885Y-40429740D01*
X120476460Y-40279315D01*
X120363280Y-40099190D01*
X120293018Y-39898395D01*
X120269200Y-39687000D01*
X120363280Y-39274810D01*
X120476460Y-39094685D01*
X120626885Y-38944260D01*
X120807010Y-38831080D01*
X121007805Y-38760818D01*
X121219200Y-38737000D01*
X121631390Y-38831080D01*
G37*
G36*
X136131390Y-37331080D02*
G01*
X136311515Y-37444260D01*
X136461940Y-37594685D01*
X136575120Y-37774810D01*
X136645382Y-37975605D01*
X136669200Y-38187000D01*
X136575120Y-38599190D01*
X136461940Y-38779315D01*
X136311515Y-38929740D01*
X136131390Y-39042920D01*
X135930595Y-39113182D01*
X135719200Y-39137000D01*
X135307010Y-39042920D01*
X135126885Y-38929740D01*
X134976460Y-38779315D01*
X134863280Y-38599190D01*
X134793018Y-38398395D01*
X134769200Y-38187000D01*
X134863280Y-37774810D01*
X134976460Y-37594685D01*
X135126885Y-37444260D01*
X135307010Y-37331080D01*
X135507805Y-37260818D01*
X135719200Y-37237000D01*
X136131390Y-37331080D01*
G37*
G36*
X181063990Y-34831080D02*
G01*
X181244115Y-34944260D01*
X181394540Y-35094685D01*
X181507720Y-35274810D01*
X181577982Y-35475605D01*
X181601800Y-35687000D01*
X181507720Y-36099190D01*
X181394540Y-36279315D01*
X181244115Y-36429740D01*
X181063990Y-36542920D01*
X180863195Y-36613182D01*
X180651800Y-36637000D01*
X180239610Y-36542920D01*
X180059485Y-36429740D01*
X179909060Y-36279315D01*
X179795880Y-36099190D01*
X179725618Y-35898395D01*
X179701800Y-35687000D01*
X179795880Y-35274810D01*
X179909060Y-35094685D01*
X180059485Y-34944260D01*
X180239610Y-34831080D01*
X180440405Y-34760818D01*
X180651800Y-34737000D01*
X181063990Y-34831080D01*
G37*
G36*
X166563990Y-34831080D02*
G01*
X166744115Y-34944260D01*
X166894540Y-35094685D01*
X167007720Y-35274810D01*
X167077982Y-35475605D01*
X167101800Y-35687000D01*
X167007720Y-36099190D01*
X166894540Y-36279315D01*
X166744115Y-36429740D01*
X166563990Y-36542920D01*
X166363195Y-36613182D01*
X166151800Y-36637000D01*
X165739610Y-36542920D01*
X165559485Y-36429740D01*
X165409060Y-36279315D01*
X165295880Y-36099190D01*
X165225618Y-35898395D01*
X165201800Y-35687000D01*
X165295880Y-35274810D01*
X165409060Y-35094685D01*
X165559485Y-34944260D01*
X165739610Y-34831080D01*
X165940405Y-34760818D01*
X166151800Y-34737000D01*
X166563990Y-34831080D01*
G37*
G36*
X181063990Y-37331080D02*
G01*
X181244115Y-37444260D01*
X181394540Y-37594685D01*
X181507720Y-37774810D01*
X181577982Y-37975605D01*
X181601800Y-38187000D01*
X181507720Y-38599190D01*
X181394540Y-38779315D01*
X181244115Y-38929740D01*
X181063990Y-39042920D01*
X180863195Y-39113182D01*
X180651800Y-39137000D01*
X180239610Y-39042920D01*
X180059485Y-38929740D01*
X179909060Y-38779315D01*
X179795880Y-38599190D01*
X179725618Y-38398395D01*
X179701800Y-38187000D01*
X179795880Y-37774810D01*
X179909060Y-37594685D01*
X180059485Y-37444260D01*
X180239610Y-37331080D01*
X180440405Y-37260818D01*
X180651800Y-37237000D01*
X181063990Y-37331080D01*
G37*
G36*
X166563990Y-30831080D02*
G01*
X166744115Y-30944260D01*
X166894540Y-31094685D01*
X167007720Y-31274810D01*
X167077982Y-31475605D01*
X167101800Y-31687000D01*
X167007720Y-32099190D01*
X166894540Y-32279315D01*
X166744115Y-32429740D01*
X166563990Y-32542920D01*
X166363195Y-32613182D01*
X166151800Y-32637000D01*
X165739610Y-32542920D01*
X165559485Y-32429740D01*
X165409060Y-32279315D01*
X165295880Y-32099190D01*
X165225618Y-31898395D01*
X165201800Y-31687000D01*
X165295880Y-31274810D01*
X165409060Y-31094685D01*
X165559485Y-30944260D01*
X165739610Y-30831080D01*
X165940405Y-30760818D01*
X166151800Y-30737000D01*
X166563990Y-30831080D01*
G37*
G36*
X173420955Y-39710548D02*
G01*
X173681931Y-39780476D01*
X173926800Y-39894661D01*
X174148121Y-40049631D01*
X174339169Y-40240679D01*
X174494139Y-40462000D01*
X174608324Y-40706869D01*
X174678252Y-40967845D01*
X174701800Y-41237000D01*
X174678252Y-41506155D01*
X174608324Y-41767131D01*
X174494139Y-42012000D01*
X174339169Y-42233321D01*
X174148121Y-42424369D01*
X173926800Y-42579339D01*
X173681931Y-42693524D01*
X173420955Y-42763452D01*
X173151800Y-42787000D01*
X172882645Y-42763452D01*
X172621669Y-42693524D01*
X172376800Y-42579339D01*
X172155479Y-42424369D01*
X171964431Y-42233321D01*
X171809461Y-42012000D01*
X171695276Y-41767131D01*
X171625348Y-41506155D01*
X171601800Y-41237000D01*
X171625348Y-40967845D01*
X171695276Y-40706869D01*
X171809461Y-40462000D01*
X171964431Y-40240679D01*
X172155479Y-40049631D01*
X172376800Y-39894661D01*
X172621669Y-39780476D01*
X173151800Y-39687000D01*
X173420955Y-39710548D01*
G37*
G36*
X181063990Y-32331080D02*
G01*
X181244115Y-32444260D01*
X181394540Y-32594685D01*
X181507720Y-32774810D01*
X181577982Y-32975605D01*
X181601800Y-33187000D01*
X181507720Y-33599190D01*
X181394540Y-33779315D01*
X181244115Y-33929740D01*
X181063990Y-34042920D01*
X180863195Y-34113182D01*
X180651800Y-34137000D01*
X180239610Y-34042920D01*
X180059485Y-33929740D01*
X179909060Y-33779315D01*
X179795880Y-33599190D01*
X179725618Y-33398395D01*
X179701800Y-33187000D01*
X179795880Y-32774810D01*
X179909060Y-32594685D01*
X180059485Y-32444260D01*
X180239610Y-32331080D01*
X180440405Y-32260818D01*
X180651800Y-32237000D01*
X181063990Y-32331080D01*
G37*
G36*
X166563990Y-36831080D02*
G01*
X166744115Y-36944260D01*
X166894540Y-37094685D01*
X167007720Y-37274810D01*
X167077982Y-37475605D01*
X167101800Y-37687000D01*
X167007720Y-38099190D01*
X166894540Y-38279315D01*
X166744115Y-38429740D01*
X166563990Y-38542920D01*
X166363195Y-38613182D01*
X166151800Y-38637000D01*
X165739610Y-38542920D01*
X165559485Y-38429740D01*
X165409060Y-38279315D01*
X165295880Y-38099190D01*
X165225618Y-37898395D01*
X165201800Y-37687000D01*
X165295880Y-37274810D01*
X165409060Y-37094685D01*
X165559485Y-36944260D01*
X165739610Y-36831080D01*
X165940405Y-36760818D01*
X166151800Y-36737000D01*
X166563990Y-36831080D01*
G37*
G36*
X166563990Y-38831080D02*
G01*
X166744115Y-38944260D01*
X166894540Y-39094685D01*
X167007720Y-39274810D01*
X167077982Y-39475605D01*
X167101800Y-39687000D01*
X167007720Y-40099190D01*
X166894540Y-40279315D01*
X166744115Y-40429740D01*
X166563990Y-40542920D01*
X166363195Y-40613182D01*
X166151800Y-40637000D01*
X165739610Y-40542920D01*
X165559485Y-40429740D01*
X165409060Y-40279315D01*
X165295880Y-40099190D01*
X165225618Y-39898395D01*
X165201800Y-39687000D01*
X165295880Y-39274810D01*
X165409060Y-39094685D01*
X165559485Y-38944260D01*
X165739610Y-38831080D01*
X165940405Y-38760818D01*
X166151800Y-38737000D01*
X166563990Y-38831080D01*
G37*
G36*
X173420955Y-28610548D02*
G01*
X173681931Y-28680476D01*
X173926800Y-28794661D01*
X174148121Y-28949631D01*
X174339169Y-29140679D01*
X174494139Y-29362000D01*
X174608324Y-29606869D01*
X174678252Y-29867845D01*
X174701800Y-30137000D01*
X174678252Y-30406155D01*
X174608324Y-30667131D01*
X174494139Y-30912000D01*
X174339169Y-31133321D01*
X174148121Y-31324369D01*
X173926800Y-31479339D01*
X173681931Y-31593524D01*
X173420955Y-31663452D01*
X173151800Y-31687000D01*
X172882645Y-31663452D01*
X172621669Y-31593524D01*
X172376800Y-31479339D01*
X172155479Y-31324369D01*
X171964431Y-31133321D01*
X171809461Y-30912000D01*
X171695276Y-30667131D01*
X171625348Y-30406155D01*
X171601800Y-30137000D01*
X171625348Y-29867845D01*
X171695276Y-29606869D01*
X171809461Y-29362000D01*
X171964431Y-29140679D01*
X172155479Y-28949631D01*
X172376800Y-28794661D01*
X172621669Y-28680476D01*
X173151800Y-28587000D01*
X173420955Y-28610548D01*
G37*
G36*
X166563990Y-32831080D02*
G01*
X166744115Y-32944260D01*
X166894540Y-33094685D01*
X167007720Y-33274810D01*
X167077982Y-33475605D01*
X167101800Y-33687000D01*
X167007720Y-34099190D01*
X166894540Y-34279315D01*
X166744115Y-34429740D01*
X166563990Y-34542920D01*
X166363195Y-34613182D01*
X166151800Y-34637000D01*
X165739610Y-34542920D01*
X165559485Y-34429740D01*
X165409060Y-34279315D01*
X165295880Y-34099190D01*
X165225618Y-33898395D01*
X165201800Y-33687000D01*
X165295880Y-33274810D01*
X165409060Y-33094685D01*
X165559485Y-32944260D01*
X165739610Y-32831080D01*
X165940405Y-32760818D01*
X166151800Y-32737000D01*
X166563990Y-32831080D01*
G37*
G36*
X128488355Y-73543148D02*
G01*
X128749331Y-73613076D01*
X128994200Y-73727261D01*
X129215521Y-73882231D01*
X129406569Y-74073279D01*
X129561539Y-74294600D01*
X129675724Y-74539469D01*
X129745652Y-74800445D01*
X129769200Y-75069600D01*
X129745652Y-75338755D01*
X129675724Y-75599731D01*
X129561539Y-75844600D01*
X129406569Y-76065921D01*
X129215521Y-76256969D01*
X128994200Y-76411939D01*
X128749331Y-76526124D01*
X128488355Y-76596052D01*
X128219200Y-76619600D01*
X127950045Y-76596052D01*
X127689069Y-76526124D01*
X127444200Y-76411939D01*
X127222879Y-76256969D01*
X127031831Y-76065921D01*
X126876861Y-75844600D01*
X126762676Y-75599731D01*
X126692748Y-75338755D01*
X126669200Y-75069600D01*
X126692748Y-74800445D01*
X126762676Y-74539469D01*
X126876861Y-74294600D01*
X127031831Y-74073279D01*
X127222879Y-73882231D01*
X127444200Y-73727261D01*
X127689069Y-73613076D01*
X128219200Y-73519600D01*
X128488355Y-73543148D01*
G37*
G36*
X121631390Y-79763680D02*
G01*
X121811515Y-79876860D01*
X121961940Y-80027285D01*
X122075120Y-80207410D01*
X122145382Y-80408205D01*
X122169200Y-80619600D01*
X122075120Y-81031790D01*
X121961940Y-81211915D01*
X121811515Y-81362340D01*
X121631390Y-81475520D01*
X121430595Y-81545782D01*
X121219200Y-81569600D01*
X120807010Y-81475520D01*
X120626885Y-81362340D01*
X120476460Y-81211915D01*
X120363280Y-81031790D01*
X120293018Y-80830995D01*
X120269200Y-80619600D01*
X120363280Y-80207410D01*
X120476460Y-80027285D01*
X120626885Y-79876860D01*
X120807010Y-79763680D01*
X121007805Y-79693418D01*
X121219200Y-79669600D01*
X121631390Y-79763680D01*
G37*
G36*
X121631390Y-83763680D02*
G01*
X121811515Y-83876860D01*
X121961940Y-84027285D01*
X122075120Y-84207410D01*
X122145382Y-84408205D01*
X122169200Y-84619600D01*
X122075120Y-85031790D01*
X121961940Y-85211915D01*
X121811515Y-85362340D01*
X121631390Y-85475520D01*
X121430595Y-85545782D01*
X121219200Y-85569600D01*
X120807010Y-85475520D01*
X120626885Y-85362340D01*
X120476460Y-85211915D01*
X120363280Y-85031790D01*
X120293018Y-84830995D01*
X120269200Y-84619600D01*
X120363280Y-84207410D01*
X120476460Y-84027285D01*
X120626885Y-83876860D01*
X120807010Y-83763680D01*
X121007805Y-83693418D01*
X121219200Y-83669600D01*
X121631390Y-83763680D01*
G37*
G36*
X136131390Y-77263680D02*
G01*
X136311515Y-77376860D01*
X136461940Y-77527285D01*
X136575120Y-77707410D01*
X136645382Y-77908205D01*
X136669200Y-78119600D01*
X136575120Y-78531790D01*
X136461940Y-78711915D01*
X136311515Y-78862340D01*
X136131390Y-78975520D01*
X135930595Y-79045782D01*
X135719200Y-79069600D01*
X135307010Y-78975520D01*
X135126885Y-78862340D01*
X134976460Y-78711915D01*
X134863280Y-78531790D01*
X134793018Y-78330995D01*
X134769200Y-78119600D01*
X134863280Y-77707410D01*
X134976460Y-77527285D01*
X135126885Y-77376860D01*
X135307010Y-77263680D01*
X135507805Y-77193418D01*
X135719200Y-77169600D01*
X136131390Y-77263680D01*
G37*
G36*
X121631390Y-77763680D02*
G01*
X121811515Y-77876860D01*
X121961940Y-78027285D01*
X122075120Y-78207410D01*
X122145382Y-78408205D01*
X122169200Y-78619600D01*
X122075120Y-79031790D01*
X121961940Y-79211915D01*
X121811515Y-79362340D01*
X121631390Y-79475520D01*
X121430595Y-79545782D01*
X121219200Y-79569600D01*
X120807010Y-79475520D01*
X120626885Y-79362340D01*
X120476460Y-79211915D01*
X120363280Y-79031790D01*
X120293018Y-78830995D01*
X120269200Y-78619600D01*
X120363280Y-78207410D01*
X120476460Y-78027285D01*
X120626885Y-77876860D01*
X120807010Y-77763680D01*
X121007805Y-77693418D01*
X121219200Y-77669600D01*
X121631390Y-77763680D01*
G37*
G36*
X136131390Y-82263680D02*
G01*
X136311515Y-82376860D01*
X136461940Y-82527285D01*
X136575120Y-82707410D01*
X136645382Y-82908205D01*
X136669200Y-83119600D01*
X136575120Y-83531790D01*
X136461940Y-83711915D01*
X136311515Y-83862340D01*
X136131390Y-83975520D01*
X135930595Y-84045782D01*
X135719200Y-84069600D01*
X135307010Y-83975520D01*
X135126885Y-83862340D01*
X134976460Y-83711915D01*
X134863280Y-83531790D01*
X134793018Y-83330995D01*
X134769200Y-83119600D01*
X134863280Y-82707410D01*
X134976460Y-82527285D01*
X135126885Y-82376860D01*
X135307010Y-82263680D01*
X135507805Y-82193418D01*
X135719200Y-82169600D01*
X136131390Y-82263680D01*
G37*
G36*
X121631390Y-75763680D02*
G01*
X121811515Y-75876860D01*
X121961940Y-76027285D01*
X122075120Y-76207410D01*
X122145382Y-76408205D01*
X122169200Y-76619600D01*
X122075120Y-77031790D01*
X121961940Y-77211915D01*
X121811515Y-77362340D01*
X121631390Y-77475520D01*
X121430595Y-77545782D01*
X121219200Y-77569600D01*
X120807010Y-77475520D01*
X120626885Y-77362340D01*
X120476460Y-77211915D01*
X120363280Y-77031790D01*
X120293018Y-76830995D01*
X120269200Y-76619600D01*
X120363280Y-76207410D01*
X120476460Y-76027285D01*
X120626885Y-75876860D01*
X120807010Y-75763680D01*
X121007805Y-75693418D01*
X121219200Y-75669600D01*
X121631390Y-75763680D01*
G37*
G36*
X136131390Y-79763680D02*
G01*
X136311515Y-79876860D01*
X136461940Y-80027285D01*
X136575120Y-80207410D01*
X136645382Y-80408205D01*
X136669200Y-80619600D01*
X136575120Y-81031790D01*
X136461940Y-81211915D01*
X136311515Y-81362340D01*
X136131390Y-81475520D01*
X135930595Y-81545782D01*
X135719200Y-81569600D01*
X135307010Y-81475520D01*
X135126885Y-81362340D01*
X134976460Y-81211915D01*
X134863280Y-81031790D01*
X134793018Y-80830995D01*
X134769200Y-80619600D01*
X134863280Y-80207410D01*
X134976460Y-80027285D01*
X135126885Y-79876860D01*
X135307010Y-79763680D01*
X135507805Y-79693418D01*
X135719200Y-79669600D01*
X136131390Y-79763680D01*
G37*
G36*
X128488355Y-84643148D02*
G01*
X128749331Y-84713076D01*
X128994200Y-84827261D01*
X129215521Y-84982231D01*
X129406569Y-85173279D01*
X129561539Y-85394600D01*
X129675724Y-85639469D01*
X129745652Y-85900445D01*
X129769200Y-86169600D01*
X129745652Y-86438755D01*
X129675724Y-86699731D01*
X129561539Y-86944600D01*
X129406569Y-87165921D01*
X129215521Y-87356969D01*
X128994200Y-87511939D01*
X128749331Y-87626124D01*
X128488355Y-87696052D01*
X128219200Y-87719600D01*
X127950045Y-87696052D01*
X127689069Y-87626124D01*
X127444200Y-87511939D01*
X127222879Y-87356969D01*
X127031831Y-87165921D01*
X126876861Y-86944600D01*
X126762676Y-86699731D01*
X126692748Y-86438755D01*
X126669200Y-86169600D01*
X126692748Y-85900445D01*
X126762676Y-85639469D01*
X126876861Y-85394600D01*
X127031831Y-85173279D01*
X127222879Y-84982231D01*
X127444200Y-84827261D01*
X127689069Y-84713076D01*
X128219200Y-84619600D01*
X128488355Y-84643148D01*
G37*
G36*
X121631390Y-81763680D02*
G01*
X121811515Y-81876860D01*
X121961940Y-82027285D01*
X122075120Y-82207410D01*
X122145382Y-82408205D01*
X122169200Y-82619600D01*
X122075120Y-83031790D01*
X121961940Y-83211915D01*
X121811515Y-83362340D01*
X121631390Y-83475520D01*
X121430595Y-83545782D01*
X121219200Y-83569600D01*
X120807010Y-83475520D01*
X120626885Y-83362340D01*
X120476460Y-83211915D01*
X120363280Y-83031790D01*
X120293018Y-82830995D01*
X120269200Y-82619600D01*
X120363280Y-82207410D01*
X120476460Y-82027285D01*
X120626885Y-81876860D01*
X120807010Y-81763680D01*
X121007805Y-81693418D01*
X121219200Y-81669600D01*
X121631390Y-81763680D01*
G37*
G36*
X166563990Y-77763680D02*
G01*
X166744115Y-77876860D01*
X166894540Y-78027285D01*
X167007720Y-78207410D01*
X167077982Y-78408205D01*
X167101800Y-78619600D01*
X167007720Y-79031790D01*
X166894540Y-79211915D01*
X166744115Y-79362340D01*
X166563990Y-79475520D01*
X166363195Y-79545782D01*
X166151800Y-79569600D01*
X165739610Y-79475520D01*
X165559485Y-79362340D01*
X165409060Y-79211915D01*
X165295880Y-79031790D01*
X165225618Y-78830995D01*
X165201800Y-78619600D01*
X165295880Y-78207410D01*
X165409060Y-78027285D01*
X165559485Y-77876860D01*
X165739610Y-77763680D01*
X165940405Y-77693418D01*
X166151800Y-77669600D01*
X166563990Y-77763680D01*
G37*
G36*
X173420955Y-73543148D02*
G01*
X173681931Y-73613076D01*
X173926800Y-73727261D01*
X174148121Y-73882231D01*
X174339169Y-74073279D01*
X174494139Y-74294600D01*
X174608324Y-74539469D01*
X174678252Y-74800445D01*
X174701800Y-75069600D01*
X174678252Y-75338755D01*
X174608324Y-75599731D01*
X174494139Y-75844600D01*
X174339169Y-76065921D01*
X174148121Y-76256969D01*
X173926800Y-76411939D01*
X173681931Y-76526124D01*
X173420955Y-76596052D01*
X173151800Y-76619600D01*
X172882645Y-76596052D01*
X172621669Y-76526124D01*
X172376800Y-76411939D01*
X172155479Y-76256969D01*
X171964431Y-76065921D01*
X171809461Y-75844600D01*
X171695276Y-75599731D01*
X171625348Y-75338755D01*
X171601800Y-75069600D01*
X171625348Y-74800445D01*
X171695276Y-74539469D01*
X171809461Y-74294600D01*
X171964431Y-74073279D01*
X172155479Y-73882231D01*
X172376800Y-73727261D01*
X172621669Y-73613076D01*
X173151800Y-73519600D01*
X173420955Y-73543148D01*
G37*
G36*
X173420955Y-84643148D02*
G01*
X173681931Y-84713076D01*
X173926800Y-84827261D01*
X174148121Y-84982231D01*
X174339169Y-85173279D01*
X174494139Y-85394600D01*
X174608324Y-85639469D01*
X174678252Y-85900445D01*
X174701800Y-86169600D01*
X174678252Y-86438755D01*
X174608324Y-86699731D01*
X174494139Y-86944600D01*
X174339169Y-87165921D01*
X174148121Y-87356969D01*
X173926800Y-87511939D01*
X173681931Y-87626124D01*
X173420955Y-87696052D01*
X173151800Y-87719600D01*
X172882645Y-87696052D01*
X172621669Y-87626124D01*
X172376800Y-87511939D01*
X172155479Y-87356969D01*
X171964431Y-87165921D01*
X171809461Y-86944600D01*
X171695276Y-86699731D01*
X171625348Y-86438755D01*
X171601800Y-86169600D01*
X171625348Y-85900445D01*
X171695276Y-85639469D01*
X171809461Y-85394600D01*
X171964431Y-85173279D01*
X172155479Y-84982231D01*
X172376800Y-84827261D01*
X172621669Y-84713076D01*
X173151800Y-84619600D01*
X173420955Y-84643148D01*
G37*
G36*
X166563990Y-83763680D02*
G01*
X166744115Y-83876860D01*
X166894540Y-84027285D01*
X167007720Y-84207410D01*
X167077982Y-84408205D01*
X167101800Y-84619600D01*
X167007720Y-85031790D01*
X166894540Y-85211915D01*
X166744115Y-85362340D01*
X166563990Y-85475520D01*
X166363195Y-85545782D01*
X166151800Y-85569600D01*
X165739610Y-85475520D01*
X165559485Y-85362340D01*
X165409060Y-85211915D01*
X165295880Y-85031790D01*
X165225618Y-84830995D01*
X165201800Y-84619600D01*
X165295880Y-84207410D01*
X165409060Y-84027285D01*
X165559485Y-83876860D01*
X165739610Y-83763680D01*
X165940405Y-83693418D01*
X166151800Y-83669600D01*
X166563990Y-83763680D01*
G37*
G36*
X166563990Y-79763680D02*
G01*
X166744115Y-79876860D01*
X166894540Y-80027285D01*
X167007720Y-80207410D01*
X167077982Y-80408205D01*
X167101800Y-80619600D01*
X167007720Y-81031790D01*
X166894540Y-81211915D01*
X166744115Y-81362340D01*
X166563990Y-81475520D01*
X166363195Y-81545782D01*
X166151800Y-81569600D01*
X165739610Y-81475520D01*
X165559485Y-81362340D01*
X165409060Y-81211915D01*
X165295880Y-81031790D01*
X165225618Y-80830995D01*
X165201800Y-80619600D01*
X165295880Y-80207410D01*
X165409060Y-80027285D01*
X165559485Y-79876860D01*
X165739610Y-79763680D01*
X165940405Y-79693418D01*
X166151800Y-79669600D01*
X166563990Y-79763680D01*
G37*
G36*
X181063990Y-82263680D02*
G01*
X181244115Y-82376860D01*
X181394540Y-82527285D01*
X181507720Y-82707410D01*
X181577982Y-82908205D01*
X181601800Y-83119600D01*
X181507720Y-83531790D01*
X181394540Y-83711915D01*
X181244115Y-83862340D01*
X181063990Y-83975520D01*
X180863195Y-84045782D01*
X180651800Y-84069600D01*
X180239610Y-83975520D01*
X180059485Y-83862340D01*
X179909060Y-83711915D01*
X179795880Y-83531790D01*
X179725618Y-83330995D01*
X179701800Y-83119600D01*
X179795880Y-82707410D01*
X179909060Y-82527285D01*
X180059485Y-82376860D01*
X180239610Y-82263680D01*
X180440405Y-82193418D01*
X180651800Y-82169600D01*
X181063990Y-82263680D01*
G37*
G36*
X166563990Y-81763680D02*
G01*
X166744115Y-81876860D01*
X166894540Y-82027285D01*
X167007720Y-82207410D01*
X167077982Y-82408205D01*
X167101800Y-82619600D01*
X167007720Y-83031790D01*
X166894540Y-83211915D01*
X166744115Y-83362340D01*
X166563990Y-83475520D01*
X166363195Y-83545782D01*
X166151800Y-83569600D01*
X165739610Y-83475520D01*
X165559485Y-83362340D01*
X165409060Y-83211915D01*
X165295880Y-83031790D01*
X165225618Y-82830995D01*
X165201800Y-82619600D01*
X165295880Y-82207410D01*
X165409060Y-82027285D01*
X165559485Y-81876860D01*
X165739610Y-81763680D01*
X165940405Y-81693418D01*
X166151800Y-81669600D01*
X166563990Y-81763680D01*
G37*
G36*
X181063990Y-79763680D02*
G01*
X181244115Y-79876860D01*
X181394540Y-80027285D01*
X181507720Y-80207410D01*
X181577982Y-80408205D01*
X181601800Y-80619600D01*
X181507720Y-81031790D01*
X181394540Y-81211915D01*
X181244115Y-81362340D01*
X181063990Y-81475520D01*
X180863195Y-81545782D01*
X180651800Y-81569600D01*
X180239610Y-81475520D01*
X180059485Y-81362340D01*
X179909060Y-81211915D01*
X179795880Y-81031790D01*
X179725618Y-80830995D01*
X179701800Y-80619600D01*
X179795880Y-80207410D01*
X179909060Y-80027285D01*
X180059485Y-79876860D01*
X180239610Y-79763680D01*
X180440405Y-79693418D01*
X180651800Y-79669600D01*
X181063990Y-79763680D01*
G37*
G36*
X166563990Y-75763680D02*
G01*
X166744115Y-75876860D01*
X166894540Y-76027285D01*
X167007720Y-76207410D01*
X167077982Y-76408205D01*
X167101800Y-76619600D01*
X167007720Y-77031790D01*
X166894540Y-77211915D01*
X166744115Y-77362340D01*
X166563990Y-77475520D01*
X166363195Y-77545782D01*
X166151800Y-77569600D01*
X165739610Y-77475520D01*
X165559485Y-77362340D01*
X165409060Y-77211915D01*
X165295880Y-77031790D01*
X165225618Y-76830995D01*
X165201800Y-76619600D01*
X165295880Y-76207410D01*
X165409060Y-76027285D01*
X165559485Y-75876860D01*
X165739610Y-75763680D01*
X165940405Y-75693418D01*
X166151800Y-75669600D01*
X166563990Y-75763680D01*
G37*
G36*
X181063990Y-77263680D02*
G01*
X181244115Y-77376860D01*
X181394540Y-77527285D01*
X181507720Y-77707410D01*
X181577982Y-77908205D01*
X181601800Y-78119600D01*
X181507720Y-78531790D01*
X181394540Y-78711915D01*
X181244115Y-78862340D01*
X181063990Y-78975520D01*
X180863195Y-79045782D01*
X180651800Y-79069600D01*
X180239610Y-78975520D01*
X180059485Y-78862340D01*
X179909060Y-78711915D01*
X179795880Y-78531790D01*
X179725618Y-78330995D01*
X179701800Y-78119600D01*
X179795880Y-77707410D01*
X179909060Y-77527285D01*
X180059485Y-77376860D01*
X180239610Y-77263680D01*
X180440405Y-77193418D01*
X180651800Y-77169600D01*
X181063990Y-77263680D01*
G37*
D10*
X125857000Y-71766200D03*
X124587000Y-71766200D03*
X123317000Y-71766200D03*
X122047000Y-71766200D03*
X122047000Y-66816200D03*
X123317000Y-66816200D03*
X124587000Y-66816200D03*
X125857000Y-66816200D03*
D11*
X144119600Y-51054000D03*
X144119600Y-53054000D03*
X153688800Y-75520800D03*
X153688800Y-77520800D03*
X153720800Y-53848000D03*
X153720800Y-55848000D03*
D12*
X123334600Y-53340000D03*
X121259600Y-53340000D03*
D13*
X170554400Y-63042800D03*
X168554400Y-63042800D03*
D12*
X125823800Y-62839600D03*
X123748800Y-62839600D03*
D14*
X121219200Y-39687000D03*
X121219200Y-37687000D03*
X121219200Y-35687000D03*
X121219200Y-33687000D03*
X121219200Y-31687000D03*
D15*
X135719200Y-38187000D03*
X135719200Y-33187000D03*
X135719200Y-35687000D03*
D16*
X128219200Y-41237000D03*
X128219200Y-30137000D03*
D17*
X157480000Y-113538000D03*
D18*
X157480000Y-118458000D03*
X157480000Y-110158000D03*
X157480000Y-107058000D03*
D17*
X184404000Y-113538000D03*
D18*
X184404000Y-118458000D03*
X184404000Y-110158000D03*
X184404000Y-107058000D03*
D19*
X123621800Y-36797600D03*
X123621800Y-34797600D03*
D13*
X127441200Y-53035200D03*
X125441200Y-53035200D03*
D17*
X184404000Y-98298000D03*
D18*
X184404000Y-103218000D03*
X184404000Y-94918000D03*
X184404000Y-91818000D03*
D14*
X166151800Y-39687000D03*
X166151800Y-37687000D03*
X166151800Y-35687000D03*
X166151800Y-33687000D03*
X166151800Y-31687000D03*
D15*
X180651800Y-38187000D03*
X180651800Y-33187000D03*
X180651800Y-35687000D03*
D20*
X173151800Y-41237000D03*
D16*
X173151800Y-30137000D03*
D19*
X123444000Y-81763000D03*
X123444000Y-79763000D03*
X168402000Y-82035000D03*
X168402000Y-80035000D03*
X168402000Y-36823000D03*
X168402000Y-34823000D03*
D21*
X149423100Y-33858200D03*
X151498100Y-33858200D03*
D17*
X130556000Y-98298000D03*
D18*
X130556000Y-103218000D03*
X130556000Y-94918000D03*
X130556000Y-91818000D03*
D22*
X163404800Y-65328800D03*
X165404800Y-65328800D03*
X121393200Y-51003200D03*
X123393200Y-51003200D03*
D11*
X153771600Y-38658800D03*
X153771600Y-40658800D03*
D21*
X173591400Y-66700400D03*
X175666400Y-66700400D03*
D19*
X144983200Y-78200000D03*
X144983200Y-76200000D03*
D22*
X121564400Y-48666400D03*
X123564400Y-48666400D03*
D19*
X144170400Y-72002400D03*
X144170400Y-70002400D03*
D23*
X123698000Y-121920000D03*
D17*
X130556000Y-128778000D03*
D18*
X130556000Y-133698000D03*
X130556000Y-125398000D03*
X130556000Y-122298000D03*
D17*
X184404000Y-128778000D03*
D18*
X184404000Y-133698000D03*
X184404000Y-125398000D03*
X184404000Y-122298000D03*
D17*
X157480000Y-98298000D03*
D18*
X157480000Y-103218000D03*
X157480000Y-94918000D03*
X157480000Y-91818000D03*
D17*
X170942000Y-113538000D03*
D18*
X170942000Y-118458000D03*
X170942000Y-110158000D03*
X170942000Y-107058000D03*
D24*
X163322000Y-67741800D03*
D15*
X161163000Y-67741800D03*
X159004000Y-67741800D03*
X156845000Y-67741800D03*
D24*
X175590200Y-58166000D03*
D15*
X173431200Y-58166000D03*
X171272200Y-58166000D03*
X169113200Y-58166000D03*
D17*
X144018000Y-98298000D03*
D18*
X144018000Y-103218000D03*
X144018000Y-94918000D03*
X144018000Y-91818000D03*
D17*
X170942000Y-128778000D03*
D18*
X170942000Y-133698000D03*
X170942000Y-125398000D03*
X170942000Y-122298000D03*
D25*
X166776400Y-47417900D03*
X166776400Y-45342900D03*
D26*
X125526800Y-45342000D03*
X126796800Y-45342000D03*
X128066800Y-45342000D03*
X129336800Y-45342000D03*
X129336800Y-50292000D03*
X128066800Y-50292000D03*
X126796800Y-50292000D03*
X125526800Y-50292000D03*
D13*
X129863600Y-62788800D03*
X127863600Y-62788800D03*
D26*
X170561000Y-45226200D03*
X171831000Y-45226200D03*
X173101000Y-45226200D03*
X174371000Y-45226200D03*
X174371000Y-50176200D03*
X173101000Y-50176200D03*
X171831000Y-50176200D03*
X170561000Y-50176200D03*
D11*
X163271200Y-51035200D03*
X163271200Y-53035200D03*
D10*
X171577000Y-71461400D03*
X170307000Y-71461400D03*
X169037000Y-71461400D03*
X167767000Y-71461400D03*
X167767000Y-66511400D03*
X169037000Y-66511400D03*
X170307000Y-66511400D03*
X171577000Y-66511400D03*
D27*
X113284000Y-41402000D03*
D28*
X113284000Y-43942000D03*
X113284000Y-46482000D03*
X113284000Y-49022000D03*
X113284000Y-51562000D03*
X113284000Y-54102000D03*
X113284000Y-56642000D03*
X113284000Y-59182000D03*
X113284000Y-61722000D03*
X113284000Y-64262000D03*
X113284000Y-66802000D03*
X113284000Y-69342000D03*
X113284000Y-71882000D03*
X113284000Y-74422000D03*
X113284000Y-76962000D03*
X113284000Y-79502000D03*
X113284000Y-82042000D03*
X113284000Y-84582000D03*
X113284000Y-87122000D03*
D27*
X188214000Y-41402000D03*
D28*
X188214000Y-43942000D03*
X188214000Y-46482000D03*
X188214000Y-49022000D03*
X188214000Y-51562000D03*
X188214000Y-54102000D03*
X188214000Y-56642000D03*
X188214000Y-59182000D03*
X188214000Y-61722000D03*
X188214000Y-64262000D03*
X188214000Y-66802000D03*
X188214000Y-69342000D03*
X188214000Y-71882000D03*
X188214000Y-74422000D03*
X188214000Y-76962000D03*
X188214000Y-79502000D03*
X188214000Y-82042000D03*
X188214000Y-84582000D03*
X188214000Y-87122000D03*
D22*
X131558900Y-78168500D03*
X133558900Y-78168500D03*
X131673192Y-83121500D03*
X133673192Y-83121500D03*
D19*
X125730000Y-36779600D03*
X125730000Y-34779600D03*
D11*
X125730000Y-79763000D03*
X125730000Y-81763000D03*
D22*
X166808400Y-49326800D03*
X168808400Y-49326800D03*
X176504200Y-33185100D03*
X178504200Y-33185100D03*
X176567700Y-78130400D03*
X178567700Y-78130400D03*
X176537000Y-37084000D03*
X178537000Y-37084000D03*
X176567700Y-83121500D03*
X178567700Y-83121500D03*
D19*
X170434000Y-36805000D03*
X170434000Y-34805000D03*
D11*
X170434000Y-80035000D03*
X170434000Y-82035000D03*
D22*
X131584300Y-33172400D03*
X133584300Y-33172400D03*
X131597000Y-38214300D03*
X133597000Y-38214300D03*
D24*
X153746200Y-36322000D03*
D15*
X151587200Y-36322000D03*
X149428200Y-36322000D03*
X147269200Y-36322000D03*
D24*
X131902200Y-58166000D03*
D15*
X129743200Y-58166000D03*
X127584200Y-58166000D03*
X125425200Y-58166000D03*
D21*
X127655300Y-55778400D03*
X129730300Y-55778400D03*
X149415700Y-55778400D03*
X151490700Y-55778400D03*
X159227500Y-65303400D03*
X161302500Y-65303400D03*
X171394100Y-55702200D03*
X173469100Y-55702200D03*
X159049700Y-46202600D03*
X161124700Y-46202600D03*
X149466500Y-77597000D03*
X151541500Y-77597000D03*
D17*
X117094000Y-98298000D03*
D18*
X117094000Y-103218000D03*
X117094000Y-94918000D03*
X117094000Y-91818000D03*
D17*
X117094000Y-128778000D03*
D18*
X117094000Y-133698000D03*
X117094000Y-125398000D03*
X117094000Y-122298000D03*
D17*
X144018000Y-128778000D03*
D18*
X144018000Y-133698000D03*
X144018000Y-125398000D03*
X144018000Y-122298000D03*
D23*
X114935000Y-31496000D03*
D24*
X144170400Y-67741800D03*
D15*
X142011400Y-67741800D03*
X139852400Y-67741800D03*
X137693400Y-67741800D03*
D23*
X186563000Y-31496000D03*
X177673000Y-121920000D03*
D11*
X135534400Y-48768000D03*
X135534400Y-50768000D03*
D22*
X173920400Y-53543200D03*
X175920400Y-53543200D03*
D13*
X175685200Y-62636400D03*
X173685200Y-62636400D03*
D21*
X139796500Y-46151800D03*
X141871500Y-46151800D03*
X139847300Y-65303400D03*
X141922300Y-65303400D03*
D14*
X121219200Y-84619600D03*
X121219200Y-82619600D03*
X121219200Y-80619600D03*
X121219200Y-78619600D03*
X121219200Y-76619600D03*
D15*
X135719200Y-83119600D03*
X135719200Y-78119600D03*
X135719200Y-80619600D03*
D16*
X128219200Y-86169600D03*
D20*
X128219200Y-75069600D03*
D24*
X144170400Y-48590200D03*
D15*
X142011400Y-48590200D03*
X139852400Y-48590200D03*
X137693400Y-48590200D03*
D24*
X153746200Y-58166000D03*
D15*
X151587200Y-58166000D03*
X149428200Y-58166000D03*
X147269200Y-58166000D03*
D24*
X153746200Y-80010000D03*
D15*
X151587200Y-80010000D03*
X149428200Y-80010000D03*
X147269200Y-80010000D03*
D24*
X163322000Y-48590200D03*
D15*
X161163000Y-48590200D03*
X159004000Y-48590200D03*
X156845000Y-48590200D03*
D17*
X130556000Y-113538000D03*
D18*
X130556000Y-118458000D03*
X130556000Y-110158000D03*
X130556000Y-107058000D03*
D17*
X157480000Y-128778000D03*
D18*
X157480000Y-133698000D03*
X157480000Y-125398000D03*
X157480000Y-122298000D03*
D14*
X166151800Y-84619600D03*
X166151800Y-82619600D03*
X166151800Y-80619600D03*
X166151800Y-78619600D03*
X166151800Y-76619600D03*
D15*
X180651800Y-83119600D03*
X180651800Y-78119600D03*
X180651800Y-80619600D03*
D16*
X173151800Y-86169600D03*
X173151800Y-75069600D03*
D17*
X117094000Y-113538000D03*
D18*
X117094000Y-118458000D03*
X117094000Y-110158000D03*
X117094000Y-107058000D03*
D17*
X171196000Y-98298000D03*
D18*
X171196000Y-103218000D03*
X171196000Y-94918000D03*
X171196000Y-91818000D03*
D17*
X144018000Y-113538000D03*
D18*
X144018000Y-118458000D03*
X144018000Y-110158000D03*
X144018000Y-107058000D03*
G36*
X121622730Y-83462164D02*
G01*
X121623543Y-83463991D01*
X121622456Y-83465567D01*
X121559812Y-83497211D01*
X121559448Y-83497352D01*
X121543069Y-83501925D01*
X121484056Y-83538749D01*
X121454448Y-83601360D01*
X121463390Y-83670037D01*
X121508143Y-83723096D01*
X121508894Y-83723452D01*
X121510031Y-83725097D01*
X121509175Y-83726904D01*
X121507622Y-83727215D01*
X121317248Y-83686749D01*
X121121152Y-83686749D01*
X120929345Y-83727519D01*
X120904264Y-83738686D01*
X120902275Y-83738477D01*
X120901462Y-83736650D01*
X120902369Y-83735177D01*
X120957948Y-83699408D01*
X120986679Y-83636389D01*
X120976779Y-83567845D01*
X120931667Y-83515851D01*
X120931288Y-83513887D01*
X120932798Y-83512576D01*
X120933594Y-83512584D01*
X121121152Y-83552451D01*
X121317248Y-83552451D01*
X121509055Y-83511681D01*
X121620741Y-83461955D01*
X121622730Y-83462164D01*
G37*
G36*
X166555330Y-83462164D02*
G01*
X166556143Y-83463991D01*
X166555056Y-83465567D01*
X166492412Y-83497211D01*
X166492048Y-83497352D01*
X166475669Y-83501925D01*
X166416656Y-83538749D01*
X166387048Y-83601360D01*
X166395990Y-83670037D01*
X166440743Y-83723096D01*
X166441494Y-83723452D01*
X166442631Y-83725097D01*
X166441775Y-83726904D01*
X166440222Y-83727215D01*
X166249848Y-83686749D01*
X166053752Y-83686749D01*
X165861945Y-83727519D01*
X165836864Y-83738686D01*
X165834875Y-83738477D01*
X165834062Y-83736650D01*
X165834969Y-83735177D01*
X165890548Y-83699408D01*
X165919279Y-83636389D01*
X165909379Y-83567845D01*
X165864267Y-83515851D01*
X165863888Y-83513887D01*
X165865398Y-83512576D01*
X165866194Y-83512584D01*
X166053752Y-83552451D01*
X166249848Y-83552451D01*
X166441655Y-83511681D01*
X166553341Y-83461955D01*
X166555330Y-83462164D01*
G37*
G36*
X121622730Y-81462164D02*
G01*
X121623543Y-81463991D01*
X121622456Y-81465567D01*
X121559812Y-81497211D01*
X121559448Y-81497352D01*
X121543069Y-81501925D01*
X121484056Y-81538749D01*
X121454448Y-81601360D01*
X121463390Y-81670037D01*
X121508143Y-81723096D01*
X121508894Y-81723452D01*
X121510031Y-81725097D01*
X121509175Y-81726904D01*
X121507622Y-81727215D01*
X121317248Y-81686749D01*
X121121152Y-81686749D01*
X120929345Y-81727519D01*
X120904264Y-81738686D01*
X120902275Y-81738477D01*
X120901462Y-81736650D01*
X120902369Y-81735177D01*
X120957948Y-81699408D01*
X120986679Y-81636389D01*
X120976779Y-81567845D01*
X120931667Y-81515851D01*
X120931288Y-81513887D01*
X120932798Y-81512576D01*
X120933594Y-81512584D01*
X121121152Y-81552451D01*
X121317248Y-81552451D01*
X121509055Y-81511681D01*
X121620741Y-81461955D01*
X121622730Y-81462164D01*
G37*
G36*
X166555330Y-81462164D02*
G01*
X166556143Y-81463991D01*
X166555056Y-81465567D01*
X166492412Y-81497211D01*
X166492048Y-81497352D01*
X166475669Y-81501925D01*
X166416656Y-81538749D01*
X166387048Y-81601360D01*
X166395990Y-81670037D01*
X166440743Y-81723096D01*
X166441494Y-81723452D01*
X166442631Y-81725097D01*
X166441775Y-81726904D01*
X166440222Y-81727215D01*
X166249848Y-81686749D01*
X166053752Y-81686749D01*
X165861945Y-81727519D01*
X165836864Y-81738686D01*
X165834875Y-81738477D01*
X165834062Y-81736650D01*
X165834969Y-81735177D01*
X165890548Y-81699408D01*
X165919279Y-81636389D01*
X165909379Y-81567845D01*
X165864267Y-81515851D01*
X165863888Y-81513887D01*
X165865398Y-81512576D01*
X165866194Y-81512584D01*
X166053752Y-81552451D01*
X166249848Y-81552451D01*
X166441655Y-81511681D01*
X166553341Y-81461955D01*
X166555330Y-81462164D01*
G37*
G36*
X121622730Y-79462164D02*
G01*
X121623543Y-79463991D01*
X121622456Y-79465567D01*
X121559812Y-79497211D01*
X121559448Y-79497352D01*
X121543069Y-79501925D01*
X121484056Y-79538749D01*
X121454448Y-79601360D01*
X121463390Y-79670037D01*
X121508143Y-79723096D01*
X121508894Y-79723452D01*
X121510031Y-79725097D01*
X121509175Y-79726904D01*
X121507622Y-79727215D01*
X121317248Y-79686749D01*
X121121152Y-79686749D01*
X120929345Y-79727519D01*
X120904264Y-79738686D01*
X120902275Y-79738477D01*
X120901462Y-79736650D01*
X120902369Y-79735177D01*
X120957948Y-79699408D01*
X120986679Y-79636389D01*
X120976779Y-79567845D01*
X120931667Y-79515851D01*
X120931288Y-79513887D01*
X120932798Y-79512576D01*
X120933594Y-79512584D01*
X121121152Y-79552451D01*
X121317248Y-79552451D01*
X121509055Y-79511681D01*
X121620741Y-79461955D01*
X121622730Y-79462164D01*
G37*
G36*
X166555330Y-79462164D02*
G01*
X166556143Y-79463991D01*
X166555056Y-79465567D01*
X166492412Y-79497211D01*
X166492048Y-79497352D01*
X166475669Y-79501925D01*
X166416656Y-79538749D01*
X166387048Y-79601360D01*
X166395990Y-79670037D01*
X166440743Y-79723096D01*
X166441494Y-79723452D01*
X166442631Y-79725097D01*
X166441775Y-79726904D01*
X166440222Y-79727215D01*
X166249848Y-79686749D01*
X166053752Y-79686749D01*
X165861945Y-79727519D01*
X165836864Y-79738686D01*
X165834875Y-79738477D01*
X165834062Y-79736650D01*
X165834969Y-79735177D01*
X165890548Y-79699408D01*
X165919279Y-79636389D01*
X165909379Y-79567845D01*
X165864267Y-79515851D01*
X165863888Y-79513887D01*
X165865398Y-79512576D01*
X165866194Y-79512584D01*
X166053752Y-79552451D01*
X166249848Y-79552451D01*
X166441655Y-79511681D01*
X166553341Y-79461955D01*
X166555330Y-79462164D01*
G37*
G36*
X166555330Y-77462164D02*
G01*
X166556143Y-77463991D01*
X166555056Y-77465567D01*
X166492412Y-77497211D01*
X166492048Y-77497352D01*
X166475669Y-77501925D01*
X166416656Y-77538749D01*
X166387048Y-77601360D01*
X166395990Y-77670037D01*
X166440743Y-77723096D01*
X166441494Y-77723452D01*
X166442631Y-77725097D01*
X166441775Y-77726904D01*
X166440222Y-77727215D01*
X166249848Y-77686749D01*
X166053752Y-77686749D01*
X165861945Y-77727519D01*
X165836864Y-77738686D01*
X165834875Y-77738477D01*
X165834062Y-77736650D01*
X165834969Y-77735177D01*
X165890548Y-77699408D01*
X165919279Y-77636389D01*
X165909379Y-77567845D01*
X165864267Y-77515851D01*
X165863888Y-77513887D01*
X165865398Y-77512576D01*
X165866194Y-77512584D01*
X166053752Y-77552451D01*
X166249848Y-77552451D01*
X166441655Y-77511681D01*
X166553341Y-77461955D01*
X166555330Y-77462164D01*
G37*
G36*
X121622730Y-77462164D02*
G01*
X121623543Y-77463991D01*
X121622456Y-77465567D01*
X121559812Y-77497211D01*
X121559448Y-77497352D01*
X121543069Y-77501925D01*
X121484056Y-77538749D01*
X121454448Y-77601360D01*
X121463390Y-77670037D01*
X121508143Y-77723096D01*
X121508894Y-77723452D01*
X121510031Y-77725097D01*
X121509175Y-77726904D01*
X121507622Y-77727215D01*
X121317248Y-77686749D01*
X121121152Y-77686749D01*
X120929345Y-77727519D01*
X120904264Y-77738686D01*
X120902275Y-77738477D01*
X120901462Y-77736650D01*
X120902369Y-77735177D01*
X120957948Y-77699408D01*
X120986679Y-77636389D01*
X120976779Y-77567845D01*
X120931667Y-77515851D01*
X120931288Y-77513887D01*
X120932798Y-77512576D01*
X120933594Y-77512584D01*
X121121152Y-77552451D01*
X121317248Y-77552451D01*
X121509055Y-77511681D01*
X121620741Y-77461955D01*
X121622730Y-77462164D01*
G37*
G36*
X121622730Y-38529564D02*
G01*
X121623543Y-38531391D01*
X121622456Y-38532967D01*
X121559812Y-38564611D01*
X121559448Y-38564752D01*
X121543069Y-38569325D01*
X121484056Y-38606149D01*
X121454448Y-38668760D01*
X121463390Y-38737437D01*
X121508143Y-38790496D01*
X121508894Y-38790852D01*
X121510031Y-38792497D01*
X121509175Y-38794304D01*
X121507622Y-38794615D01*
X121317248Y-38754149D01*
X121121152Y-38754149D01*
X120929345Y-38794919D01*
X120904264Y-38806086D01*
X120902275Y-38805877D01*
X120901462Y-38804050D01*
X120902369Y-38802577D01*
X120957948Y-38766808D01*
X120986679Y-38703789D01*
X120976779Y-38635245D01*
X120931667Y-38583251D01*
X120931288Y-38581287D01*
X120932798Y-38579976D01*
X120933594Y-38579984D01*
X121121152Y-38619851D01*
X121317248Y-38619851D01*
X121509055Y-38579081D01*
X121620741Y-38529355D01*
X121622730Y-38529564D01*
G37*
G36*
X166555330Y-38529564D02*
G01*
X166556143Y-38531391D01*
X166555056Y-38532967D01*
X166492412Y-38564611D01*
X166492048Y-38564752D01*
X166475669Y-38569325D01*
X166416656Y-38606149D01*
X166387048Y-38668760D01*
X166395990Y-38737437D01*
X166440743Y-38790496D01*
X166441494Y-38790852D01*
X166442631Y-38792497D01*
X166441775Y-38794304D01*
X166440222Y-38794615D01*
X166249848Y-38754149D01*
X166053752Y-38754149D01*
X165861945Y-38794919D01*
X165836864Y-38806086D01*
X165834875Y-38805877D01*
X165834062Y-38804050D01*
X165834969Y-38802577D01*
X165890548Y-38766808D01*
X165919279Y-38703789D01*
X165909379Y-38635245D01*
X165864267Y-38583251D01*
X165863888Y-38581287D01*
X165865398Y-38579976D01*
X165866194Y-38579984D01*
X166053752Y-38619851D01*
X166249848Y-38619851D01*
X166441655Y-38579081D01*
X166553341Y-38529355D01*
X166555330Y-38529564D01*
G37*
G36*
X121622730Y-36529564D02*
G01*
X121623543Y-36531391D01*
X121622456Y-36532967D01*
X121559812Y-36564611D01*
X121559448Y-36564752D01*
X121543069Y-36569325D01*
X121484056Y-36606149D01*
X121454448Y-36668760D01*
X121463390Y-36737437D01*
X121508143Y-36790496D01*
X121508894Y-36790852D01*
X121510031Y-36792497D01*
X121509175Y-36794304D01*
X121507622Y-36794615D01*
X121317248Y-36754149D01*
X121121152Y-36754149D01*
X120929345Y-36794919D01*
X120904264Y-36806086D01*
X120902275Y-36805877D01*
X120901462Y-36804050D01*
X120902369Y-36802577D01*
X120957948Y-36766808D01*
X120986679Y-36703789D01*
X120976779Y-36635245D01*
X120931667Y-36583251D01*
X120931288Y-36581287D01*
X120932798Y-36579976D01*
X120933594Y-36579984D01*
X121121152Y-36619851D01*
X121317248Y-36619851D01*
X121509055Y-36579081D01*
X121620741Y-36529355D01*
X121622730Y-36529564D01*
G37*
G36*
X166555330Y-36529564D02*
G01*
X166556143Y-36531391D01*
X166555056Y-36532967D01*
X166492412Y-36564611D01*
X166492048Y-36564752D01*
X166475669Y-36569325D01*
X166416656Y-36606149D01*
X166387048Y-36668760D01*
X166395990Y-36737437D01*
X166440743Y-36790496D01*
X166441494Y-36790852D01*
X166442631Y-36792497D01*
X166441775Y-36794304D01*
X166440222Y-36794615D01*
X166249848Y-36754149D01*
X166053752Y-36754149D01*
X165861945Y-36794919D01*
X165836864Y-36806086D01*
X165834875Y-36805877D01*
X165834062Y-36804050D01*
X165834969Y-36802577D01*
X165890548Y-36766808D01*
X165919279Y-36703789D01*
X165909379Y-36635245D01*
X165864267Y-36583251D01*
X165863888Y-36581287D01*
X165865398Y-36579976D01*
X165866194Y-36579984D01*
X166053752Y-36619851D01*
X166249848Y-36619851D01*
X166441655Y-36579081D01*
X166553341Y-36529355D01*
X166555330Y-36529564D01*
G37*
G36*
X121622730Y-34529564D02*
G01*
X121623543Y-34531391D01*
X121622456Y-34532967D01*
X121559812Y-34564611D01*
X121559448Y-34564752D01*
X121543069Y-34569325D01*
X121484056Y-34606149D01*
X121454448Y-34668760D01*
X121463390Y-34737437D01*
X121508143Y-34790496D01*
X121508894Y-34790852D01*
X121510031Y-34792497D01*
X121509175Y-34794304D01*
X121507622Y-34794615D01*
X121317248Y-34754149D01*
X121121152Y-34754149D01*
X120929345Y-34794919D01*
X120904264Y-34806086D01*
X120902275Y-34805877D01*
X120901462Y-34804050D01*
X120902369Y-34802577D01*
X120957948Y-34766808D01*
X120986679Y-34703789D01*
X120976779Y-34635245D01*
X120931667Y-34583251D01*
X120931288Y-34581287D01*
X120932798Y-34579976D01*
X120933594Y-34579984D01*
X121121152Y-34619851D01*
X121317248Y-34619851D01*
X121509055Y-34579081D01*
X121620741Y-34529355D01*
X121622730Y-34529564D01*
G37*
G36*
X166555330Y-34529564D02*
G01*
X166556143Y-34531391D01*
X166555056Y-34532967D01*
X166492412Y-34564611D01*
X166492048Y-34564752D01*
X166475669Y-34569325D01*
X166416656Y-34606149D01*
X166387048Y-34668760D01*
X166395990Y-34737437D01*
X166440743Y-34790496D01*
X166441494Y-34790852D01*
X166442631Y-34792497D01*
X166441775Y-34794304D01*
X166440222Y-34794615D01*
X166249848Y-34754149D01*
X166053752Y-34754149D01*
X165861945Y-34794919D01*
X165836864Y-34806086D01*
X165834875Y-34805877D01*
X165834062Y-34804050D01*
X165834969Y-34802577D01*
X165890548Y-34766808D01*
X165919279Y-34703789D01*
X165909379Y-34635245D01*
X165864267Y-34583251D01*
X165863888Y-34581287D01*
X165865398Y-34579976D01*
X165866194Y-34579984D01*
X166053752Y-34619851D01*
X166249848Y-34619851D01*
X166441655Y-34579081D01*
X166553341Y-34529355D01*
X166555330Y-34529564D01*
G37*
G36*
X121622730Y-32529564D02*
G01*
X121623543Y-32531391D01*
X121622456Y-32532967D01*
X121559812Y-32564611D01*
X121559448Y-32564752D01*
X121543069Y-32569325D01*
X121484056Y-32606149D01*
X121454448Y-32668760D01*
X121463390Y-32737437D01*
X121508143Y-32790496D01*
X121508894Y-32790852D01*
X121510031Y-32792497D01*
X121509175Y-32794304D01*
X121507622Y-32794615D01*
X121317248Y-32754149D01*
X121121152Y-32754149D01*
X120929345Y-32794919D01*
X120904264Y-32806086D01*
X120902275Y-32805877D01*
X120901462Y-32804050D01*
X120902369Y-32802577D01*
X120957948Y-32766808D01*
X120986679Y-32703789D01*
X120976779Y-32635245D01*
X120931667Y-32583251D01*
X120931288Y-32581287D01*
X120932798Y-32579976D01*
X120933594Y-32579984D01*
X121121152Y-32619851D01*
X121317248Y-32619851D01*
X121509055Y-32579081D01*
X121620741Y-32529355D01*
X121622730Y-32529564D01*
G37*
G36*
X166555330Y-32529564D02*
G01*
X166556143Y-32531391D01*
X166555056Y-32532967D01*
X166492412Y-32564611D01*
X166492048Y-32564752D01*
X166475669Y-32569325D01*
X166416656Y-32606149D01*
X166387048Y-32668760D01*
X166395990Y-32737437D01*
X166440743Y-32790496D01*
X166441494Y-32790852D01*
X166442631Y-32792497D01*
X166441775Y-32794304D01*
X166440222Y-32794615D01*
X166249848Y-32754149D01*
X166053752Y-32754149D01*
X165861945Y-32794919D01*
X165836864Y-32806086D01*
X165834875Y-32805877D01*
X165834062Y-32804050D01*
X165834969Y-32802577D01*
X165890548Y-32766808D01*
X165919279Y-32703789D01*
X165909379Y-32635245D01*
X165864267Y-32583251D01*
X165863888Y-32581287D01*
X165865398Y-32579976D01*
X165866194Y-32579984D01*
X166053752Y-32619851D01*
X166249848Y-32619851D01*
X166441655Y-32579081D01*
X166553341Y-32529355D01*
X166555330Y-32529564D01*
G37*
M02*
