G04 #@! TF.GenerationSoftware,KiCad,Pcbnew,(5.1.5-0)*
G04 #@! TF.CreationDate,2021-05-05T09:22:12-05:00*
G04 #@! TF.ProjectId,bells-venn,62656c6c-732d-4766-956e-6e2e6b696361,rev?*
G04 #@! TF.SameCoordinates,Original*
G04 #@! TF.FileFunction,Paste,Top*
G04 #@! TF.FilePolarity,Positive*
%FSLAX46Y46*%
G04 Gerber Fmt 4.6, Leading zero omitted, Abs format (unit mm)*
G04 Created by KiCad (PCBNEW (5.1.5-0)) date 2021-05-05 09:22:12*
%MOMM*%
%LPD*%
G04 APERTURE LIST*
%ADD10C,0.100000*%
%ADD11R,1.900000X0.800000*%
%ADD12R,0.800000X1.900000*%
G04 APERTURE END LIST*
D10*
G36*
X179036505Y-44638204D02*
G01*
X179060773Y-44641804D01*
X179084572Y-44647765D01*
X179107671Y-44656030D01*
X179129850Y-44666520D01*
X179150893Y-44679132D01*
X179170599Y-44693747D01*
X179188777Y-44710223D01*
X179205253Y-44728401D01*
X179219868Y-44748107D01*
X179232480Y-44769150D01*
X179242970Y-44791329D01*
X179251235Y-44814428D01*
X179257196Y-44838227D01*
X179260796Y-44862495D01*
X179262000Y-44886999D01*
X179262000Y-45537001D01*
X179260796Y-45561505D01*
X179257196Y-45585773D01*
X179251235Y-45609572D01*
X179242970Y-45632671D01*
X179232480Y-45654850D01*
X179219868Y-45675893D01*
X179205253Y-45695599D01*
X179188777Y-45713777D01*
X179170599Y-45730253D01*
X179150893Y-45744868D01*
X179129850Y-45757480D01*
X179107671Y-45767970D01*
X179084572Y-45776235D01*
X179060773Y-45782196D01*
X179036505Y-45785796D01*
X179012001Y-45787000D01*
X178111999Y-45787000D01*
X178087495Y-45785796D01*
X178063227Y-45782196D01*
X178039428Y-45776235D01*
X178016329Y-45767970D01*
X177994150Y-45757480D01*
X177973107Y-45744868D01*
X177953401Y-45730253D01*
X177935223Y-45713777D01*
X177918747Y-45695599D01*
X177904132Y-45675893D01*
X177891520Y-45654850D01*
X177881030Y-45632671D01*
X177872765Y-45609572D01*
X177866804Y-45585773D01*
X177863204Y-45561505D01*
X177862000Y-45537001D01*
X177862000Y-44886999D01*
X177863204Y-44862495D01*
X177866804Y-44838227D01*
X177872765Y-44814428D01*
X177881030Y-44791329D01*
X177891520Y-44769150D01*
X177904132Y-44748107D01*
X177918747Y-44728401D01*
X177935223Y-44710223D01*
X177953401Y-44693747D01*
X177973107Y-44679132D01*
X177994150Y-44666520D01*
X178016329Y-44656030D01*
X178039428Y-44647765D01*
X178063227Y-44641804D01*
X178087495Y-44638204D01*
X178111999Y-44637000D01*
X179012001Y-44637000D01*
X179036505Y-44638204D01*
G37*
G36*
X179036505Y-42588204D02*
G01*
X179060773Y-42591804D01*
X179084572Y-42597765D01*
X179107671Y-42606030D01*
X179129850Y-42616520D01*
X179150893Y-42629132D01*
X179170599Y-42643747D01*
X179188777Y-42660223D01*
X179205253Y-42678401D01*
X179219868Y-42698107D01*
X179232480Y-42719150D01*
X179242970Y-42741329D01*
X179251235Y-42764428D01*
X179257196Y-42788227D01*
X179260796Y-42812495D01*
X179262000Y-42836999D01*
X179262000Y-43487001D01*
X179260796Y-43511505D01*
X179257196Y-43535773D01*
X179251235Y-43559572D01*
X179242970Y-43582671D01*
X179232480Y-43604850D01*
X179219868Y-43625893D01*
X179205253Y-43645599D01*
X179188777Y-43663777D01*
X179170599Y-43680253D01*
X179150893Y-43694868D01*
X179129850Y-43707480D01*
X179107671Y-43717970D01*
X179084572Y-43726235D01*
X179060773Y-43732196D01*
X179036505Y-43735796D01*
X179012001Y-43737000D01*
X178111999Y-43737000D01*
X178087495Y-43735796D01*
X178063227Y-43732196D01*
X178039428Y-43726235D01*
X178016329Y-43717970D01*
X177994150Y-43707480D01*
X177973107Y-43694868D01*
X177953401Y-43680253D01*
X177935223Y-43663777D01*
X177918747Y-43645599D01*
X177904132Y-43625893D01*
X177891520Y-43604850D01*
X177881030Y-43582671D01*
X177872765Y-43559572D01*
X177866804Y-43535773D01*
X177863204Y-43511505D01*
X177862000Y-43487001D01*
X177862000Y-42836999D01*
X177863204Y-42812495D01*
X177866804Y-42788227D01*
X177872765Y-42764428D01*
X177881030Y-42741329D01*
X177891520Y-42719150D01*
X177904132Y-42698107D01*
X177918747Y-42678401D01*
X177935223Y-42660223D01*
X177953401Y-42643747D01*
X177973107Y-42629132D01*
X177994150Y-42616520D01*
X178016329Y-42606030D01*
X178039428Y-42597765D01*
X178063227Y-42591804D01*
X178087495Y-42588204D01*
X178111999Y-42587000D01*
X179012001Y-42587000D01*
X179036505Y-42588204D01*
G37*
G36*
X164050505Y-85550204D02*
G01*
X164074773Y-85553804D01*
X164098572Y-85559765D01*
X164121671Y-85568030D01*
X164143850Y-85578520D01*
X164164893Y-85591132D01*
X164184599Y-85605747D01*
X164202777Y-85622223D01*
X164219253Y-85640401D01*
X164233868Y-85660107D01*
X164246480Y-85681150D01*
X164256970Y-85703329D01*
X164265235Y-85726428D01*
X164271196Y-85750227D01*
X164274796Y-85774495D01*
X164276000Y-85798999D01*
X164276000Y-86449001D01*
X164274796Y-86473505D01*
X164271196Y-86497773D01*
X164265235Y-86521572D01*
X164256970Y-86544671D01*
X164246480Y-86566850D01*
X164233868Y-86587893D01*
X164219253Y-86607599D01*
X164202777Y-86625777D01*
X164184599Y-86642253D01*
X164164893Y-86656868D01*
X164143850Y-86669480D01*
X164121671Y-86679970D01*
X164098572Y-86688235D01*
X164074773Y-86694196D01*
X164050505Y-86697796D01*
X164026001Y-86699000D01*
X163125999Y-86699000D01*
X163101495Y-86697796D01*
X163077227Y-86694196D01*
X163053428Y-86688235D01*
X163030329Y-86679970D01*
X163008150Y-86669480D01*
X162987107Y-86656868D01*
X162967401Y-86642253D01*
X162949223Y-86625777D01*
X162932747Y-86607599D01*
X162918132Y-86587893D01*
X162905520Y-86566850D01*
X162895030Y-86544671D01*
X162886765Y-86521572D01*
X162880804Y-86497773D01*
X162877204Y-86473505D01*
X162876000Y-86449001D01*
X162876000Y-85798999D01*
X162877204Y-85774495D01*
X162880804Y-85750227D01*
X162886765Y-85726428D01*
X162895030Y-85703329D01*
X162905520Y-85681150D01*
X162918132Y-85660107D01*
X162932747Y-85640401D01*
X162949223Y-85622223D01*
X162967401Y-85605747D01*
X162987107Y-85591132D01*
X163008150Y-85578520D01*
X163030329Y-85568030D01*
X163053428Y-85559765D01*
X163077227Y-85553804D01*
X163101495Y-85550204D01*
X163125999Y-85549000D01*
X164026001Y-85549000D01*
X164050505Y-85550204D01*
G37*
G36*
X164050505Y-83500204D02*
G01*
X164074773Y-83503804D01*
X164098572Y-83509765D01*
X164121671Y-83518030D01*
X164143850Y-83528520D01*
X164164893Y-83541132D01*
X164184599Y-83555747D01*
X164202777Y-83572223D01*
X164219253Y-83590401D01*
X164233868Y-83610107D01*
X164246480Y-83631150D01*
X164256970Y-83653329D01*
X164265235Y-83676428D01*
X164271196Y-83700227D01*
X164274796Y-83724495D01*
X164276000Y-83748999D01*
X164276000Y-84399001D01*
X164274796Y-84423505D01*
X164271196Y-84447773D01*
X164265235Y-84471572D01*
X164256970Y-84494671D01*
X164246480Y-84516850D01*
X164233868Y-84537893D01*
X164219253Y-84557599D01*
X164202777Y-84575777D01*
X164184599Y-84592253D01*
X164164893Y-84606868D01*
X164143850Y-84619480D01*
X164121671Y-84629970D01*
X164098572Y-84638235D01*
X164074773Y-84644196D01*
X164050505Y-84647796D01*
X164026001Y-84649000D01*
X163125999Y-84649000D01*
X163101495Y-84647796D01*
X163077227Y-84644196D01*
X163053428Y-84638235D01*
X163030329Y-84629970D01*
X163008150Y-84619480D01*
X162987107Y-84606868D01*
X162967401Y-84592253D01*
X162949223Y-84575777D01*
X162932747Y-84557599D01*
X162918132Y-84537893D01*
X162905520Y-84516850D01*
X162895030Y-84494671D01*
X162886765Y-84471572D01*
X162880804Y-84447773D01*
X162877204Y-84423505D01*
X162876000Y-84399001D01*
X162876000Y-83748999D01*
X162877204Y-83724495D01*
X162880804Y-83700227D01*
X162886765Y-83676428D01*
X162895030Y-83653329D01*
X162905520Y-83631150D01*
X162918132Y-83610107D01*
X162932747Y-83590401D01*
X162949223Y-83572223D01*
X162967401Y-83555747D01*
X162987107Y-83541132D01*
X163008150Y-83528520D01*
X163030329Y-83518030D01*
X163053428Y-83509765D01*
X163077227Y-83503804D01*
X163101495Y-83500204D01*
X163125999Y-83499000D01*
X164026001Y-83499000D01*
X164050505Y-83500204D01*
G37*
G36*
X177004505Y-42588204D02*
G01*
X177028773Y-42591804D01*
X177052572Y-42597765D01*
X177075671Y-42606030D01*
X177097850Y-42616520D01*
X177118893Y-42629132D01*
X177138599Y-42643747D01*
X177156777Y-42660223D01*
X177173253Y-42678401D01*
X177187868Y-42698107D01*
X177200480Y-42719150D01*
X177210970Y-42741329D01*
X177219235Y-42764428D01*
X177225196Y-42788227D01*
X177228796Y-42812495D01*
X177230000Y-42836999D01*
X177230000Y-43487001D01*
X177228796Y-43511505D01*
X177225196Y-43535773D01*
X177219235Y-43559572D01*
X177210970Y-43582671D01*
X177200480Y-43604850D01*
X177187868Y-43625893D01*
X177173253Y-43645599D01*
X177156777Y-43663777D01*
X177138599Y-43680253D01*
X177118893Y-43694868D01*
X177097850Y-43707480D01*
X177075671Y-43717970D01*
X177052572Y-43726235D01*
X177028773Y-43732196D01*
X177004505Y-43735796D01*
X176980001Y-43737000D01*
X176079999Y-43737000D01*
X176055495Y-43735796D01*
X176031227Y-43732196D01*
X176007428Y-43726235D01*
X175984329Y-43717970D01*
X175962150Y-43707480D01*
X175941107Y-43694868D01*
X175921401Y-43680253D01*
X175903223Y-43663777D01*
X175886747Y-43645599D01*
X175872132Y-43625893D01*
X175859520Y-43604850D01*
X175849030Y-43582671D01*
X175840765Y-43559572D01*
X175834804Y-43535773D01*
X175831204Y-43511505D01*
X175830000Y-43487001D01*
X175830000Y-42836999D01*
X175831204Y-42812495D01*
X175834804Y-42788227D01*
X175840765Y-42764428D01*
X175849030Y-42741329D01*
X175859520Y-42719150D01*
X175872132Y-42698107D01*
X175886747Y-42678401D01*
X175903223Y-42660223D01*
X175921401Y-42643747D01*
X175941107Y-42629132D01*
X175962150Y-42616520D01*
X175984329Y-42606030D01*
X176007428Y-42597765D01*
X176031227Y-42591804D01*
X176055495Y-42588204D01*
X176079999Y-42587000D01*
X176980001Y-42587000D01*
X177004505Y-42588204D01*
G37*
G36*
X177004505Y-44638204D02*
G01*
X177028773Y-44641804D01*
X177052572Y-44647765D01*
X177075671Y-44656030D01*
X177097850Y-44666520D01*
X177118893Y-44679132D01*
X177138599Y-44693747D01*
X177156777Y-44710223D01*
X177173253Y-44728401D01*
X177187868Y-44748107D01*
X177200480Y-44769150D01*
X177210970Y-44791329D01*
X177219235Y-44814428D01*
X177225196Y-44838227D01*
X177228796Y-44862495D01*
X177230000Y-44886999D01*
X177230000Y-45537001D01*
X177228796Y-45561505D01*
X177225196Y-45585773D01*
X177219235Y-45609572D01*
X177210970Y-45632671D01*
X177200480Y-45654850D01*
X177187868Y-45675893D01*
X177173253Y-45695599D01*
X177156777Y-45713777D01*
X177138599Y-45730253D01*
X177118893Y-45744868D01*
X177097850Y-45757480D01*
X177075671Y-45767970D01*
X177052572Y-45776235D01*
X177028773Y-45782196D01*
X177004505Y-45785796D01*
X176980001Y-45787000D01*
X176079999Y-45787000D01*
X176055495Y-45785796D01*
X176031227Y-45782196D01*
X176007428Y-45776235D01*
X175984329Y-45767970D01*
X175962150Y-45757480D01*
X175941107Y-45744868D01*
X175921401Y-45730253D01*
X175903223Y-45713777D01*
X175886747Y-45695599D01*
X175872132Y-45675893D01*
X175859520Y-45654850D01*
X175849030Y-45632671D01*
X175840765Y-45609572D01*
X175834804Y-45585773D01*
X175831204Y-45561505D01*
X175830000Y-45537001D01*
X175830000Y-44886999D01*
X175831204Y-44862495D01*
X175834804Y-44838227D01*
X175840765Y-44814428D01*
X175849030Y-44791329D01*
X175859520Y-44769150D01*
X175872132Y-44748107D01*
X175886747Y-44728401D01*
X175903223Y-44710223D01*
X175921401Y-44693747D01*
X175941107Y-44679132D01*
X175962150Y-44666520D01*
X175984329Y-44656030D01*
X176007428Y-44647765D01*
X176031227Y-44641804D01*
X176055495Y-44638204D01*
X176079999Y-44637000D01*
X176980001Y-44637000D01*
X177004505Y-44638204D01*
G37*
G36*
X164050505Y-87546204D02*
G01*
X164074773Y-87549804D01*
X164098572Y-87555765D01*
X164121671Y-87564030D01*
X164143850Y-87574520D01*
X164164893Y-87587132D01*
X164184599Y-87601747D01*
X164202777Y-87618223D01*
X164219253Y-87636401D01*
X164233868Y-87656107D01*
X164246480Y-87677150D01*
X164256970Y-87699329D01*
X164265235Y-87722428D01*
X164271196Y-87746227D01*
X164274796Y-87770495D01*
X164276000Y-87794999D01*
X164276000Y-88445001D01*
X164274796Y-88469505D01*
X164271196Y-88493773D01*
X164265235Y-88517572D01*
X164256970Y-88540671D01*
X164246480Y-88562850D01*
X164233868Y-88583893D01*
X164219253Y-88603599D01*
X164202777Y-88621777D01*
X164184599Y-88638253D01*
X164164893Y-88652868D01*
X164143850Y-88665480D01*
X164121671Y-88675970D01*
X164098572Y-88684235D01*
X164074773Y-88690196D01*
X164050505Y-88693796D01*
X164026001Y-88695000D01*
X163125999Y-88695000D01*
X163101495Y-88693796D01*
X163077227Y-88690196D01*
X163053428Y-88684235D01*
X163030329Y-88675970D01*
X163008150Y-88665480D01*
X162987107Y-88652868D01*
X162967401Y-88638253D01*
X162949223Y-88621777D01*
X162932747Y-88603599D01*
X162918132Y-88583893D01*
X162905520Y-88562850D01*
X162895030Y-88540671D01*
X162886765Y-88517572D01*
X162880804Y-88493773D01*
X162877204Y-88469505D01*
X162876000Y-88445001D01*
X162876000Y-87794999D01*
X162877204Y-87770495D01*
X162880804Y-87746227D01*
X162886765Y-87722428D01*
X162895030Y-87699329D01*
X162905520Y-87677150D01*
X162918132Y-87656107D01*
X162932747Y-87636401D01*
X162949223Y-87618223D01*
X162967401Y-87601747D01*
X162987107Y-87587132D01*
X163008150Y-87574520D01*
X163030329Y-87564030D01*
X163053428Y-87555765D01*
X163077227Y-87549804D01*
X163101495Y-87546204D01*
X163125999Y-87545000D01*
X164026001Y-87545000D01*
X164050505Y-87546204D01*
G37*
G36*
X164050505Y-89596204D02*
G01*
X164074773Y-89599804D01*
X164098572Y-89605765D01*
X164121671Y-89614030D01*
X164143850Y-89624520D01*
X164164893Y-89637132D01*
X164184599Y-89651747D01*
X164202777Y-89668223D01*
X164219253Y-89686401D01*
X164233868Y-89706107D01*
X164246480Y-89727150D01*
X164256970Y-89749329D01*
X164265235Y-89772428D01*
X164271196Y-89796227D01*
X164274796Y-89820495D01*
X164276000Y-89844999D01*
X164276000Y-90495001D01*
X164274796Y-90519505D01*
X164271196Y-90543773D01*
X164265235Y-90567572D01*
X164256970Y-90590671D01*
X164246480Y-90612850D01*
X164233868Y-90633893D01*
X164219253Y-90653599D01*
X164202777Y-90671777D01*
X164184599Y-90688253D01*
X164164893Y-90702868D01*
X164143850Y-90715480D01*
X164121671Y-90725970D01*
X164098572Y-90734235D01*
X164074773Y-90740196D01*
X164050505Y-90743796D01*
X164026001Y-90745000D01*
X163125999Y-90745000D01*
X163101495Y-90743796D01*
X163077227Y-90740196D01*
X163053428Y-90734235D01*
X163030329Y-90725970D01*
X163008150Y-90715480D01*
X162987107Y-90702868D01*
X162967401Y-90688253D01*
X162949223Y-90671777D01*
X162932747Y-90653599D01*
X162918132Y-90633893D01*
X162905520Y-90612850D01*
X162895030Y-90590671D01*
X162886765Y-90567572D01*
X162880804Y-90543773D01*
X162877204Y-90519505D01*
X162876000Y-90495001D01*
X162876000Y-89844999D01*
X162877204Y-89820495D01*
X162880804Y-89796227D01*
X162886765Y-89772428D01*
X162895030Y-89749329D01*
X162905520Y-89727150D01*
X162918132Y-89706107D01*
X162932747Y-89686401D01*
X162949223Y-89668223D01*
X162967401Y-89651747D01*
X162987107Y-89637132D01*
X163008150Y-89624520D01*
X163030329Y-89614030D01*
X163053428Y-89605765D01*
X163077227Y-89599804D01*
X163101495Y-89596204D01*
X163125999Y-89595000D01*
X164026001Y-89595000D01*
X164050505Y-89596204D01*
G37*
D11*
X117523000Y-86426000D03*
X117523000Y-88326000D03*
X120523000Y-87376000D03*
X179530000Y-48956000D03*
X179530000Y-47056000D03*
X176530000Y-48006000D03*
X170942000Y-89154000D03*
X167942000Y-90104000D03*
X167942000Y-88204000D03*
D10*
G36*
X123334305Y-88707204D02*
G01*
X123358573Y-88710804D01*
X123382372Y-88716765D01*
X123405471Y-88725030D01*
X123427650Y-88735520D01*
X123448693Y-88748132D01*
X123468399Y-88762747D01*
X123486577Y-88779223D01*
X123503053Y-88797401D01*
X123517668Y-88817107D01*
X123530280Y-88838150D01*
X123540770Y-88860329D01*
X123549035Y-88883428D01*
X123554996Y-88907227D01*
X123558596Y-88931495D01*
X123559800Y-88955999D01*
X123559800Y-89606001D01*
X123558596Y-89630505D01*
X123554996Y-89654773D01*
X123549035Y-89678572D01*
X123540770Y-89701671D01*
X123530280Y-89723850D01*
X123517668Y-89744893D01*
X123503053Y-89764599D01*
X123486577Y-89782777D01*
X123468399Y-89799253D01*
X123448693Y-89813868D01*
X123427650Y-89826480D01*
X123405471Y-89836970D01*
X123382372Y-89845235D01*
X123358573Y-89851196D01*
X123334305Y-89854796D01*
X123309801Y-89856000D01*
X122409799Y-89856000D01*
X122385295Y-89854796D01*
X122361027Y-89851196D01*
X122337228Y-89845235D01*
X122314129Y-89836970D01*
X122291950Y-89826480D01*
X122270907Y-89813868D01*
X122251201Y-89799253D01*
X122233023Y-89782777D01*
X122216547Y-89764599D01*
X122201932Y-89744893D01*
X122189320Y-89723850D01*
X122178830Y-89701671D01*
X122170565Y-89678572D01*
X122164604Y-89654773D01*
X122161004Y-89630505D01*
X122159800Y-89606001D01*
X122159800Y-88955999D01*
X122161004Y-88931495D01*
X122164604Y-88907227D01*
X122170565Y-88883428D01*
X122178830Y-88860329D01*
X122189320Y-88838150D01*
X122201932Y-88817107D01*
X122216547Y-88797401D01*
X122233023Y-88779223D01*
X122251201Y-88762747D01*
X122270907Y-88748132D01*
X122291950Y-88735520D01*
X122314129Y-88725030D01*
X122337228Y-88716765D01*
X122361027Y-88710804D01*
X122385295Y-88707204D01*
X122409799Y-88706000D01*
X123309801Y-88706000D01*
X123334305Y-88707204D01*
G37*
G36*
X123334305Y-90757204D02*
G01*
X123358573Y-90760804D01*
X123382372Y-90766765D01*
X123405471Y-90775030D01*
X123427650Y-90785520D01*
X123448693Y-90798132D01*
X123468399Y-90812747D01*
X123486577Y-90829223D01*
X123503053Y-90847401D01*
X123517668Y-90867107D01*
X123530280Y-90888150D01*
X123540770Y-90910329D01*
X123549035Y-90933428D01*
X123554996Y-90957227D01*
X123558596Y-90981495D01*
X123559800Y-91005999D01*
X123559800Y-91656001D01*
X123558596Y-91680505D01*
X123554996Y-91704773D01*
X123549035Y-91728572D01*
X123540770Y-91751671D01*
X123530280Y-91773850D01*
X123517668Y-91794893D01*
X123503053Y-91814599D01*
X123486577Y-91832777D01*
X123468399Y-91849253D01*
X123448693Y-91863868D01*
X123427650Y-91876480D01*
X123405471Y-91886970D01*
X123382372Y-91895235D01*
X123358573Y-91901196D01*
X123334305Y-91904796D01*
X123309801Y-91906000D01*
X122409799Y-91906000D01*
X122385295Y-91904796D01*
X122361027Y-91901196D01*
X122337228Y-91895235D01*
X122314129Y-91886970D01*
X122291950Y-91876480D01*
X122270907Y-91863868D01*
X122251201Y-91849253D01*
X122233023Y-91832777D01*
X122216547Y-91814599D01*
X122201932Y-91794893D01*
X122189320Y-91773850D01*
X122178830Y-91751671D01*
X122170565Y-91728572D01*
X122164604Y-91704773D01*
X122161004Y-91680505D01*
X122159800Y-91656001D01*
X122159800Y-91005999D01*
X122161004Y-90981495D01*
X122164604Y-90957227D01*
X122170565Y-90933428D01*
X122178830Y-90910329D01*
X122189320Y-90888150D01*
X122201932Y-90867107D01*
X122216547Y-90847401D01*
X122233023Y-90829223D01*
X122251201Y-90812747D01*
X122270907Y-90798132D01*
X122291950Y-90785520D01*
X122314129Y-90775030D01*
X122337228Y-90766765D01*
X122361027Y-90760804D01*
X122385295Y-90757204D01*
X122409799Y-90756000D01*
X123309801Y-90756000D01*
X123334305Y-90757204D01*
G37*
G36*
X117822505Y-81958204D02*
G01*
X117846773Y-81961804D01*
X117870572Y-81967765D01*
X117893671Y-81976030D01*
X117915850Y-81986520D01*
X117936893Y-81999132D01*
X117956599Y-82013747D01*
X117974777Y-82030223D01*
X117991253Y-82048401D01*
X118005868Y-82068107D01*
X118018480Y-82089150D01*
X118028970Y-82111329D01*
X118037235Y-82134428D01*
X118043196Y-82158227D01*
X118046796Y-82182495D01*
X118048000Y-82206999D01*
X118048000Y-82857001D01*
X118046796Y-82881505D01*
X118043196Y-82905773D01*
X118037235Y-82929572D01*
X118028970Y-82952671D01*
X118018480Y-82974850D01*
X118005868Y-82995893D01*
X117991253Y-83015599D01*
X117974777Y-83033777D01*
X117956599Y-83050253D01*
X117936893Y-83064868D01*
X117915850Y-83077480D01*
X117893671Y-83087970D01*
X117870572Y-83096235D01*
X117846773Y-83102196D01*
X117822505Y-83105796D01*
X117798001Y-83107000D01*
X116897999Y-83107000D01*
X116873495Y-83105796D01*
X116849227Y-83102196D01*
X116825428Y-83096235D01*
X116802329Y-83087970D01*
X116780150Y-83077480D01*
X116759107Y-83064868D01*
X116739401Y-83050253D01*
X116721223Y-83033777D01*
X116704747Y-83015599D01*
X116690132Y-82995893D01*
X116677520Y-82974850D01*
X116667030Y-82952671D01*
X116658765Y-82929572D01*
X116652804Y-82905773D01*
X116649204Y-82881505D01*
X116648000Y-82857001D01*
X116648000Y-82206999D01*
X116649204Y-82182495D01*
X116652804Y-82158227D01*
X116658765Y-82134428D01*
X116667030Y-82111329D01*
X116677520Y-82089150D01*
X116690132Y-82068107D01*
X116704747Y-82048401D01*
X116721223Y-82030223D01*
X116739401Y-82013747D01*
X116759107Y-81999132D01*
X116780150Y-81986520D01*
X116802329Y-81976030D01*
X116825428Y-81967765D01*
X116849227Y-81961804D01*
X116873495Y-81958204D01*
X116897999Y-81957000D01*
X117798001Y-81957000D01*
X117822505Y-81958204D01*
G37*
G36*
X117822505Y-84008204D02*
G01*
X117846773Y-84011804D01*
X117870572Y-84017765D01*
X117893671Y-84026030D01*
X117915850Y-84036520D01*
X117936893Y-84049132D01*
X117956599Y-84063747D01*
X117974777Y-84080223D01*
X117991253Y-84098401D01*
X118005868Y-84118107D01*
X118018480Y-84139150D01*
X118028970Y-84161329D01*
X118037235Y-84184428D01*
X118043196Y-84208227D01*
X118046796Y-84232495D01*
X118048000Y-84256999D01*
X118048000Y-84907001D01*
X118046796Y-84931505D01*
X118043196Y-84955773D01*
X118037235Y-84979572D01*
X118028970Y-85002671D01*
X118018480Y-85024850D01*
X118005868Y-85045893D01*
X117991253Y-85065599D01*
X117974777Y-85083777D01*
X117956599Y-85100253D01*
X117936893Y-85114868D01*
X117915850Y-85127480D01*
X117893671Y-85137970D01*
X117870572Y-85146235D01*
X117846773Y-85152196D01*
X117822505Y-85155796D01*
X117798001Y-85157000D01*
X116897999Y-85157000D01*
X116873495Y-85155796D01*
X116849227Y-85152196D01*
X116825428Y-85146235D01*
X116802329Y-85137970D01*
X116780150Y-85127480D01*
X116759107Y-85114868D01*
X116739401Y-85100253D01*
X116721223Y-85083777D01*
X116704747Y-85065599D01*
X116690132Y-85045893D01*
X116677520Y-85024850D01*
X116667030Y-85002671D01*
X116658765Y-84979572D01*
X116652804Y-84955773D01*
X116649204Y-84931505D01*
X116648000Y-84907001D01*
X116648000Y-84256999D01*
X116649204Y-84232495D01*
X116652804Y-84208227D01*
X116658765Y-84184428D01*
X116667030Y-84161329D01*
X116677520Y-84139150D01*
X116690132Y-84118107D01*
X116704747Y-84098401D01*
X116721223Y-84080223D01*
X116739401Y-84063747D01*
X116759107Y-84049132D01*
X116780150Y-84036520D01*
X116802329Y-84026030D01*
X116825428Y-84017765D01*
X116849227Y-84011804D01*
X116873495Y-84008204D01*
X116897999Y-84007000D01*
X117798001Y-84007000D01*
X117822505Y-84008204D01*
G37*
G36*
X172561505Y-44259204D02*
G01*
X172585773Y-44262804D01*
X172609572Y-44268765D01*
X172632671Y-44277030D01*
X172654850Y-44287520D01*
X172675893Y-44300132D01*
X172695599Y-44314747D01*
X172713777Y-44331223D01*
X172730253Y-44349401D01*
X172744868Y-44369107D01*
X172757480Y-44390150D01*
X172767970Y-44412329D01*
X172776235Y-44435428D01*
X172782196Y-44459227D01*
X172785796Y-44483495D01*
X172787000Y-44507999D01*
X172787000Y-45408001D01*
X172785796Y-45432505D01*
X172782196Y-45456773D01*
X172776235Y-45480572D01*
X172767970Y-45503671D01*
X172757480Y-45525850D01*
X172744868Y-45546893D01*
X172730253Y-45566599D01*
X172713777Y-45584777D01*
X172695599Y-45601253D01*
X172675893Y-45615868D01*
X172654850Y-45628480D01*
X172632671Y-45638970D01*
X172609572Y-45647235D01*
X172585773Y-45653196D01*
X172561505Y-45656796D01*
X172537001Y-45658000D01*
X171886999Y-45658000D01*
X171862495Y-45656796D01*
X171838227Y-45653196D01*
X171814428Y-45647235D01*
X171791329Y-45638970D01*
X171769150Y-45628480D01*
X171748107Y-45615868D01*
X171728401Y-45601253D01*
X171710223Y-45584777D01*
X171693747Y-45566599D01*
X171679132Y-45546893D01*
X171666520Y-45525850D01*
X171656030Y-45503671D01*
X171647765Y-45480572D01*
X171641804Y-45456773D01*
X171638204Y-45432505D01*
X171637000Y-45408001D01*
X171637000Y-44507999D01*
X171638204Y-44483495D01*
X171641804Y-44459227D01*
X171647765Y-44435428D01*
X171656030Y-44412329D01*
X171666520Y-44390150D01*
X171679132Y-44369107D01*
X171693747Y-44349401D01*
X171710223Y-44331223D01*
X171728401Y-44314747D01*
X171748107Y-44300132D01*
X171769150Y-44287520D01*
X171791329Y-44277030D01*
X171814428Y-44268765D01*
X171838227Y-44262804D01*
X171862495Y-44259204D01*
X171886999Y-44258000D01*
X172537001Y-44258000D01*
X172561505Y-44259204D01*
G37*
G36*
X174611505Y-44259204D02*
G01*
X174635773Y-44262804D01*
X174659572Y-44268765D01*
X174682671Y-44277030D01*
X174704850Y-44287520D01*
X174725893Y-44300132D01*
X174745599Y-44314747D01*
X174763777Y-44331223D01*
X174780253Y-44349401D01*
X174794868Y-44369107D01*
X174807480Y-44390150D01*
X174817970Y-44412329D01*
X174826235Y-44435428D01*
X174832196Y-44459227D01*
X174835796Y-44483495D01*
X174837000Y-44507999D01*
X174837000Y-45408001D01*
X174835796Y-45432505D01*
X174832196Y-45456773D01*
X174826235Y-45480572D01*
X174817970Y-45503671D01*
X174807480Y-45525850D01*
X174794868Y-45546893D01*
X174780253Y-45566599D01*
X174763777Y-45584777D01*
X174745599Y-45601253D01*
X174725893Y-45615868D01*
X174704850Y-45628480D01*
X174682671Y-45638970D01*
X174659572Y-45647235D01*
X174635773Y-45653196D01*
X174611505Y-45656796D01*
X174587001Y-45658000D01*
X173936999Y-45658000D01*
X173912495Y-45656796D01*
X173888227Y-45653196D01*
X173864428Y-45647235D01*
X173841329Y-45638970D01*
X173819150Y-45628480D01*
X173798107Y-45615868D01*
X173778401Y-45601253D01*
X173760223Y-45584777D01*
X173743747Y-45566599D01*
X173729132Y-45546893D01*
X173716520Y-45525850D01*
X173706030Y-45503671D01*
X173697765Y-45480572D01*
X173691804Y-45456773D01*
X173688204Y-45432505D01*
X173687000Y-45408001D01*
X173687000Y-44507999D01*
X173688204Y-44483495D01*
X173691804Y-44459227D01*
X173697765Y-44435428D01*
X173706030Y-44412329D01*
X173716520Y-44390150D01*
X173729132Y-44369107D01*
X173743747Y-44349401D01*
X173760223Y-44331223D01*
X173778401Y-44314747D01*
X173798107Y-44300132D01*
X173819150Y-44287520D01*
X173841329Y-44277030D01*
X173864428Y-44268765D01*
X173888227Y-44262804D01*
X173912495Y-44259204D01*
X173936999Y-44258000D01*
X174587001Y-44258000D01*
X174611505Y-44259204D01*
G37*
G36*
X166082505Y-89614204D02*
G01*
X166106773Y-89617804D01*
X166130572Y-89623765D01*
X166153671Y-89632030D01*
X166175850Y-89642520D01*
X166196893Y-89655132D01*
X166216599Y-89669747D01*
X166234777Y-89686223D01*
X166251253Y-89704401D01*
X166265868Y-89724107D01*
X166278480Y-89745150D01*
X166288970Y-89767329D01*
X166297235Y-89790428D01*
X166303196Y-89814227D01*
X166306796Y-89838495D01*
X166308000Y-89862999D01*
X166308000Y-90513001D01*
X166306796Y-90537505D01*
X166303196Y-90561773D01*
X166297235Y-90585572D01*
X166288970Y-90608671D01*
X166278480Y-90630850D01*
X166265868Y-90651893D01*
X166251253Y-90671599D01*
X166234777Y-90689777D01*
X166216599Y-90706253D01*
X166196893Y-90720868D01*
X166175850Y-90733480D01*
X166153671Y-90743970D01*
X166130572Y-90752235D01*
X166106773Y-90758196D01*
X166082505Y-90761796D01*
X166058001Y-90763000D01*
X165157999Y-90763000D01*
X165133495Y-90761796D01*
X165109227Y-90758196D01*
X165085428Y-90752235D01*
X165062329Y-90743970D01*
X165040150Y-90733480D01*
X165019107Y-90720868D01*
X164999401Y-90706253D01*
X164981223Y-90689777D01*
X164964747Y-90671599D01*
X164950132Y-90651893D01*
X164937520Y-90630850D01*
X164927030Y-90608671D01*
X164918765Y-90585572D01*
X164912804Y-90561773D01*
X164909204Y-90537505D01*
X164908000Y-90513001D01*
X164908000Y-89862999D01*
X164909204Y-89838495D01*
X164912804Y-89814227D01*
X164918765Y-89790428D01*
X164927030Y-89767329D01*
X164937520Y-89745150D01*
X164950132Y-89724107D01*
X164964747Y-89704401D01*
X164981223Y-89686223D01*
X164999401Y-89669747D01*
X165019107Y-89655132D01*
X165040150Y-89642520D01*
X165062329Y-89632030D01*
X165085428Y-89623765D01*
X165109227Y-89617804D01*
X165133495Y-89614204D01*
X165157999Y-89613000D01*
X166058001Y-89613000D01*
X166082505Y-89614204D01*
G37*
G36*
X166082505Y-87564204D02*
G01*
X166106773Y-87567804D01*
X166130572Y-87573765D01*
X166153671Y-87582030D01*
X166175850Y-87592520D01*
X166196893Y-87605132D01*
X166216599Y-87619747D01*
X166234777Y-87636223D01*
X166251253Y-87654401D01*
X166265868Y-87674107D01*
X166278480Y-87695150D01*
X166288970Y-87717329D01*
X166297235Y-87740428D01*
X166303196Y-87764227D01*
X166306796Y-87788495D01*
X166308000Y-87812999D01*
X166308000Y-88463001D01*
X166306796Y-88487505D01*
X166303196Y-88511773D01*
X166297235Y-88535572D01*
X166288970Y-88558671D01*
X166278480Y-88580850D01*
X166265868Y-88601893D01*
X166251253Y-88621599D01*
X166234777Y-88639777D01*
X166216599Y-88656253D01*
X166196893Y-88670868D01*
X166175850Y-88683480D01*
X166153671Y-88693970D01*
X166130572Y-88702235D01*
X166106773Y-88708196D01*
X166082505Y-88711796D01*
X166058001Y-88713000D01*
X165157999Y-88713000D01*
X165133495Y-88711796D01*
X165109227Y-88708196D01*
X165085428Y-88702235D01*
X165062329Y-88693970D01*
X165040150Y-88683480D01*
X165019107Y-88670868D01*
X164999401Y-88656253D01*
X164981223Y-88639777D01*
X164964747Y-88621599D01*
X164950132Y-88601893D01*
X164937520Y-88580850D01*
X164927030Y-88558671D01*
X164918765Y-88535572D01*
X164912804Y-88511773D01*
X164909204Y-88487505D01*
X164908000Y-88463001D01*
X164908000Y-87812999D01*
X164909204Y-87788495D01*
X164912804Y-87764227D01*
X164918765Y-87740428D01*
X164927030Y-87717329D01*
X164937520Y-87695150D01*
X164950132Y-87674107D01*
X164964747Y-87654401D01*
X164981223Y-87636223D01*
X164999401Y-87619747D01*
X165019107Y-87605132D01*
X165040150Y-87592520D01*
X165062329Y-87582030D01*
X165085428Y-87573765D01*
X165109227Y-87567804D01*
X165133495Y-87564204D01*
X165157999Y-87563000D01*
X166058001Y-87563000D01*
X166082505Y-87564204D01*
G37*
G36*
X184245505Y-48069204D02*
G01*
X184269773Y-48072804D01*
X184293572Y-48078765D01*
X184316671Y-48087030D01*
X184338850Y-48097520D01*
X184359893Y-48110132D01*
X184379599Y-48124747D01*
X184397777Y-48141223D01*
X184414253Y-48159401D01*
X184428868Y-48179107D01*
X184441480Y-48200150D01*
X184451970Y-48222329D01*
X184460235Y-48245428D01*
X184466196Y-48269227D01*
X184469796Y-48293495D01*
X184471000Y-48317999D01*
X184471000Y-49218001D01*
X184469796Y-49242505D01*
X184466196Y-49266773D01*
X184460235Y-49290572D01*
X184451970Y-49313671D01*
X184441480Y-49335850D01*
X184428868Y-49356893D01*
X184414253Y-49376599D01*
X184397777Y-49394777D01*
X184379599Y-49411253D01*
X184359893Y-49425868D01*
X184338850Y-49438480D01*
X184316671Y-49448970D01*
X184293572Y-49457235D01*
X184269773Y-49463196D01*
X184245505Y-49466796D01*
X184221001Y-49468000D01*
X183570999Y-49468000D01*
X183546495Y-49466796D01*
X183522227Y-49463196D01*
X183498428Y-49457235D01*
X183475329Y-49448970D01*
X183453150Y-49438480D01*
X183432107Y-49425868D01*
X183412401Y-49411253D01*
X183394223Y-49394777D01*
X183377747Y-49376599D01*
X183363132Y-49356893D01*
X183350520Y-49335850D01*
X183340030Y-49313671D01*
X183331765Y-49290572D01*
X183325804Y-49266773D01*
X183322204Y-49242505D01*
X183321000Y-49218001D01*
X183321000Y-48317999D01*
X183322204Y-48293495D01*
X183325804Y-48269227D01*
X183331765Y-48245428D01*
X183340030Y-48222329D01*
X183350520Y-48200150D01*
X183363132Y-48179107D01*
X183377747Y-48159401D01*
X183394223Y-48141223D01*
X183412401Y-48124747D01*
X183432107Y-48110132D01*
X183453150Y-48097520D01*
X183475329Y-48087030D01*
X183498428Y-48078765D01*
X183522227Y-48072804D01*
X183546495Y-48069204D01*
X183570999Y-48068000D01*
X184221001Y-48068000D01*
X184245505Y-48069204D01*
G37*
G36*
X182195505Y-48069204D02*
G01*
X182219773Y-48072804D01*
X182243572Y-48078765D01*
X182266671Y-48087030D01*
X182288850Y-48097520D01*
X182309893Y-48110132D01*
X182329599Y-48124747D01*
X182347777Y-48141223D01*
X182364253Y-48159401D01*
X182378868Y-48179107D01*
X182391480Y-48200150D01*
X182401970Y-48222329D01*
X182410235Y-48245428D01*
X182416196Y-48269227D01*
X182419796Y-48293495D01*
X182421000Y-48317999D01*
X182421000Y-49218001D01*
X182419796Y-49242505D01*
X182416196Y-49266773D01*
X182410235Y-49290572D01*
X182401970Y-49313671D01*
X182391480Y-49335850D01*
X182378868Y-49356893D01*
X182364253Y-49376599D01*
X182347777Y-49394777D01*
X182329599Y-49411253D01*
X182309893Y-49425868D01*
X182288850Y-49438480D01*
X182266671Y-49448970D01*
X182243572Y-49457235D01*
X182219773Y-49463196D01*
X182195505Y-49466796D01*
X182171001Y-49468000D01*
X181520999Y-49468000D01*
X181496495Y-49466796D01*
X181472227Y-49463196D01*
X181448428Y-49457235D01*
X181425329Y-49448970D01*
X181403150Y-49438480D01*
X181382107Y-49425868D01*
X181362401Y-49411253D01*
X181344223Y-49394777D01*
X181327747Y-49376599D01*
X181313132Y-49356893D01*
X181300520Y-49335850D01*
X181290030Y-49313671D01*
X181281765Y-49290572D01*
X181275804Y-49266773D01*
X181272204Y-49242505D01*
X181271000Y-49218001D01*
X181271000Y-48317999D01*
X181272204Y-48293495D01*
X181275804Y-48269227D01*
X181281765Y-48245428D01*
X181290030Y-48222329D01*
X181300520Y-48200150D01*
X181313132Y-48179107D01*
X181327747Y-48159401D01*
X181344223Y-48141223D01*
X181362401Y-48124747D01*
X181382107Y-48110132D01*
X181403150Y-48097520D01*
X181425329Y-48087030D01*
X181448428Y-48078765D01*
X181472227Y-48072804D01*
X181496495Y-48069204D01*
X181520999Y-48068000D01*
X182171001Y-48068000D01*
X182195505Y-48069204D01*
G37*
G36*
X174067505Y-88455204D02*
G01*
X174091773Y-88458804D01*
X174115572Y-88464765D01*
X174138671Y-88473030D01*
X174160850Y-88483520D01*
X174181893Y-88496132D01*
X174201599Y-88510747D01*
X174219777Y-88527223D01*
X174236253Y-88545401D01*
X174250868Y-88565107D01*
X174263480Y-88586150D01*
X174273970Y-88608329D01*
X174282235Y-88631428D01*
X174288196Y-88655227D01*
X174291796Y-88679495D01*
X174293000Y-88703999D01*
X174293000Y-89604001D01*
X174291796Y-89628505D01*
X174288196Y-89652773D01*
X174282235Y-89676572D01*
X174273970Y-89699671D01*
X174263480Y-89721850D01*
X174250868Y-89742893D01*
X174236253Y-89762599D01*
X174219777Y-89780777D01*
X174201599Y-89797253D01*
X174181893Y-89811868D01*
X174160850Y-89824480D01*
X174138671Y-89834970D01*
X174115572Y-89843235D01*
X174091773Y-89849196D01*
X174067505Y-89852796D01*
X174043001Y-89854000D01*
X173392999Y-89854000D01*
X173368495Y-89852796D01*
X173344227Y-89849196D01*
X173320428Y-89843235D01*
X173297329Y-89834970D01*
X173275150Y-89824480D01*
X173254107Y-89811868D01*
X173234401Y-89797253D01*
X173216223Y-89780777D01*
X173199747Y-89762599D01*
X173185132Y-89742893D01*
X173172520Y-89721850D01*
X173162030Y-89699671D01*
X173153765Y-89676572D01*
X173147804Y-89652773D01*
X173144204Y-89628505D01*
X173143000Y-89604001D01*
X173143000Y-88703999D01*
X173144204Y-88679495D01*
X173147804Y-88655227D01*
X173153765Y-88631428D01*
X173162030Y-88608329D01*
X173172520Y-88586150D01*
X173185132Y-88565107D01*
X173199747Y-88545401D01*
X173216223Y-88527223D01*
X173234401Y-88510747D01*
X173254107Y-88496132D01*
X173275150Y-88483520D01*
X173297329Y-88473030D01*
X173320428Y-88464765D01*
X173344227Y-88458804D01*
X173368495Y-88455204D01*
X173392999Y-88454000D01*
X174043001Y-88454000D01*
X174067505Y-88455204D01*
G37*
G36*
X176117505Y-88455204D02*
G01*
X176141773Y-88458804D01*
X176165572Y-88464765D01*
X176188671Y-88473030D01*
X176210850Y-88483520D01*
X176231893Y-88496132D01*
X176251599Y-88510747D01*
X176269777Y-88527223D01*
X176286253Y-88545401D01*
X176300868Y-88565107D01*
X176313480Y-88586150D01*
X176323970Y-88608329D01*
X176332235Y-88631428D01*
X176338196Y-88655227D01*
X176341796Y-88679495D01*
X176343000Y-88703999D01*
X176343000Y-89604001D01*
X176341796Y-89628505D01*
X176338196Y-89652773D01*
X176332235Y-89676572D01*
X176323970Y-89699671D01*
X176313480Y-89721850D01*
X176300868Y-89742893D01*
X176286253Y-89762599D01*
X176269777Y-89780777D01*
X176251599Y-89797253D01*
X176231893Y-89811868D01*
X176210850Y-89824480D01*
X176188671Y-89834970D01*
X176165572Y-89843235D01*
X176141773Y-89849196D01*
X176117505Y-89852796D01*
X176093001Y-89854000D01*
X175442999Y-89854000D01*
X175418495Y-89852796D01*
X175394227Y-89849196D01*
X175370428Y-89843235D01*
X175347329Y-89834970D01*
X175325150Y-89824480D01*
X175304107Y-89811868D01*
X175284401Y-89797253D01*
X175266223Y-89780777D01*
X175249747Y-89762599D01*
X175235132Y-89742893D01*
X175222520Y-89721850D01*
X175212030Y-89699671D01*
X175203765Y-89676572D01*
X175197804Y-89652773D01*
X175194204Y-89628505D01*
X175193000Y-89604001D01*
X175193000Y-88703999D01*
X175194204Y-88679495D01*
X175197804Y-88655227D01*
X175203765Y-88631428D01*
X175212030Y-88608329D01*
X175222520Y-88586150D01*
X175235132Y-88565107D01*
X175249747Y-88545401D01*
X175266223Y-88527223D01*
X175284401Y-88510747D01*
X175304107Y-88496132D01*
X175325150Y-88483520D01*
X175347329Y-88473030D01*
X175370428Y-88464765D01*
X175394227Y-88458804D01*
X175418495Y-88455204D01*
X175442999Y-88454000D01*
X176093001Y-88454000D01*
X176117505Y-88455204D01*
G37*
G36*
X119702105Y-42250604D02*
G01*
X119726373Y-42254204D01*
X119750172Y-42260165D01*
X119773271Y-42268430D01*
X119795450Y-42278920D01*
X119816493Y-42291532D01*
X119836199Y-42306147D01*
X119854377Y-42322623D01*
X119870853Y-42340801D01*
X119885468Y-42360507D01*
X119898080Y-42381550D01*
X119908570Y-42403729D01*
X119916835Y-42426828D01*
X119922796Y-42450627D01*
X119926396Y-42474895D01*
X119927600Y-42499399D01*
X119927600Y-43149401D01*
X119926396Y-43173905D01*
X119922796Y-43198173D01*
X119916835Y-43221972D01*
X119908570Y-43245071D01*
X119898080Y-43267250D01*
X119885468Y-43288293D01*
X119870853Y-43307999D01*
X119854377Y-43326177D01*
X119836199Y-43342653D01*
X119816493Y-43357268D01*
X119795450Y-43369880D01*
X119773271Y-43380370D01*
X119750172Y-43388635D01*
X119726373Y-43394596D01*
X119702105Y-43398196D01*
X119677601Y-43399400D01*
X118777599Y-43399400D01*
X118753095Y-43398196D01*
X118728827Y-43394596D01*
X118705028Y-43388635D01*
X118681929Y-43380370D01*
X118659750Y-43369880D01*
X118638707Y-43357268D01*
X118619001Y-43342653D01*
X118600823Y-43326177D01*
X118584347Y-43307999D01*
X118569732Y-43288293D01*
X118557120Y-43267250D01*
X118546630Y-43245071D01*
X118538365Y-43221972D01*
X118532404Y-43198173D01*
X118528804Y-43173905D01*
X118527600Y-43149401D01*
X118527600Y-42499399D01*
X118528804Y-42474895D01*
X118532404Y-42450627D01*
X118538365Y-42426828D01*
X118546630Y-42403729D01*
X118557120Y-42381550D01*
X118569732Y-42360507D01*
X118584347Y-42340801D01*
X118600823Y-42322623D01*
X118619001Y-42306147D01*
X118638707Y-42291532D01*
X118659750Y-42278920D01*
X118681929Y-42268430D01*
X118705028Y-42260165D01*
X118728827Y-42254204D01*
X118753095Y-42250604D01*
X118777599Y-42249400D01*
X119677601Y-42249400D01*
X119702105Y-42250604D01*
G37*
G36*
X119702105Y-44300604D02*
G01*
X119726373Y-44304204D01*
X119750172Y-44310165D01*
X119773271Y-44318430D01*
X119795450Y-44328920D01*
X119816493Y-44341532D01*
X119836199Y-44356147D01*
X119854377Y-44372623D01*
X119870853Y-44390801D01*
X119885468Y-44410507D01*
X119898080Y-44431550D01*
X119908570Y-44453729D01*
X119916835Y-44476828D01*
X119922796Y-44500627D01*
X119926396Y-44524895D01*
X119927600Y-44549399D01*
X119927600Y-45199401D01*
X119926396Y-45223905D01*
X119922796Y-45248173D01*
X119916835Y-45271972D01*
X119908570Y-45295071D01*
X119898080Y-45317250D01*
X119885468Y-45338293D01*
X119870853Y-45357999D01*
X119854377Y-45376177D01*
X119836199Y-45392653D01*
X119816493Y-45407268D01*
X119795450Y-45419880D01*
X119773271Y-45430370D01*
X119750172Y-45438635D01*
X119726373Y-45444596D01*
X119702105Y-45448196D01*
X119677601Y-45449400D01*
X118777599Y-45449400D01*
X118753095Y-45448196D01*
X118728827Y-45444596D01*
X118705028Y-45438635D01*
X118681929Y-45430370D01*
X118659750Y-45419880D01*
X118638707Y-45407268D01*
X118619001Y-45392653D01*
X118600823Y-45376177D01*
X118584347Y-45357999D01*
X118569732Y-45338293D01*
X118557120Y-45317250D01*
X118546630Y-45295071D01*
X118538365Y-45271972D01*
X118532404Y-45248173D01*
X118528804Y-45223905D01*
X118527600Y-45199401D01*
X118527600Y-44549399D01*
X118528804Y-44524895D01*
X118532404Y-44500627D01*
X118538365Y-44476828D01*
X118546630Y-44453729D01*
X118557120Y-44431550D01*
X118569732Y-44410507D01*
X118584347Y-44390801D01*
X118600823Y-44372623D01*
X118619001Y-44356147D01*
X118638707Y-44341532D01*
X118659750Y-44328920D01*
X118681929Y-44318430D01*
X118705028Y-44310165D01*
X118728827Y-44304204D01*
X118753095Y-44300604D01*
X118777599Y-44299400D01*
X119677601Y-44299400D01*
X119702105Y-44300604D01*
G37*
G36*
X117670105Y-44282604D02*
G01*
X117694373Y-44286204D01*
X117718172Y-44292165D01*
X117741271Y-44300430D01*
X117763450Y-44310920D01*
X117784493Y-44323532D01*
X117804199Y-44338147D01*
X117822377Y-44354623D01*
X117838853Y-44372801D01*
X117853468Y-44392507D01*
X117866080Y-44413550D01*
X117876570Y-44435729D01*
X117884835Y-44458828D01*
X117890796Y-44482627D01*
X117894396Y-44506895D01*
X117895600Y-44531399D01*
X117895600Y-45181401D01*
X117894396Y-45205905D01*
X117890796Y-45230173D01*
X117884835Y-45253972D01*
X117876570Y-45277071D01*
X117866080Y-45299250D01*
X117853468Y-45320293D01*
X117838853Y-45339999D01*
X117822377Y-45358177D01*
X117804199Y-45374653D01*
X117784493Y-45389268D01*
X117763450Y-45401880D01*
X117741271Y-45412370D01*
X117718172Y-45420635D01*
X117694373Y-45426596D01*
X117670105Y-45430196D01*
X117645601Y-45431400D01*
X116745599Y-45431400D01*
X116721095Y-45430196D01*
X116696827Y-45426596D01*
X116673028Y-45420635D01*
X116649929Y-45412370D01*
X116627750Y-45401880D01*
X116606707Y-45389268D01*
X116587001Y-45374653D01*
X116568823Y-45358177D01*
X116552347Y-45339999D01*
X116537732Y-45320293D01*
X116525120Y-45299250D01*
X116514630Y-45277071D01*
X116506365Y-45253972D01*
X116500404Y-45230173D01*
X116496804Y-45205905D01*
X116495600Y-45181401D01*
X116495600Y-44531399D01*
X116496804Y-44506895D01*
X116500404Y-44482627D01*
X116506365Y-44458828D01*
X116514630Y-44435729D01*
X116525120Y-44413550D01*
X116537732Y-44392507D01*
X116552347Y-44372801D01*
X116568823Y-44354623D01*
X116587001Y-44338147D01*
X116606707Y-44323532D01*
X116627750Y-44310920D01*
X116649929Y-44300430D01*
X116673028Y-44292165D01*
X116696827Y-44286204D01*
X116721095Y-44282604D01*
X116745599Y-44281400D01*
X117645601Y-44281400D01*
X117670105Y-44282604D01*
G37*
G36*
X117670105Y-42232604D02*
G01*
X117694373Y-42236204D01*
X117718172Y-42242165D01*
X117741271Y-42250430D01*
X117763450Y-42260920D01*
X117784493Y-42273532D01*
X117804199Y-42288147D01*
X117822377Y-42304623D01*
X117838853Y-42322801D01*
X117853468Y-42342507D01*
X117866080Y-42363550D01*
X117876570Y-42385729D01*
X117884835Y-42408828D01*
X117890796Y-42432627D01*
X117894396Y-42456895D01*
X117895600Y-42481399D01*
X117895600Y-43131401D01*
X117894396Y-43155905D01*
X117890796Y-43180173D01*
X117884835Y-43203972D01*
X117876570Y-43227071D01*
X117866080Y-43249250D01*
X117853468Y-43270293D01*
X117838853Y-43289999D01*
X117822377Y-43308177D01*
X117804199Y-43324653D01*
X117784493Y-43339268D01*
X117763450Y-43351880D01*
X117741271Y-43362370D01*
X117718172Y-43370635D01*
X117694373Y-43376596D01*
X117670105Y-43380196D01*
X117645601Y-43381400D01*
X116745599Y-43381400D01*
X116721095Y-43380196D01*
X116696827Y-43376596D01*
X116673028Y-43370635D01*
X116649929Y-43362370D01*
X116627750Y-43351880D01*
X116606707Y-43339268D01*
X116587001Y-43324653D01*
X116568823Y-43308177D01*
X116552347Y-43289999D01*
X116537732Y-43270293D01*
X116525120Y-43249250D01*
X116514630Y-43227071D01*
X116506365Y-43203972D01*
X116500404Y-43180173D01*
X116496804Y-43155905D01*
X116495600Y-43131401D01*
X116495600Y-42481399D01*
X116496804Y-42456895D01*
X116500404Y-42432627D01*
X116506365Y-42408828D01*
X116514630Y-42385729D01*
X116525120Y-42363550D01*
X116537732Y-42342507D01*
X116552347Y-42322801D01*
X116568823Y-42304623D01*
X116587001Y-42288147D01*
X116606707Y-42273532D01*
X116627750Y-42260920D01*
X116649929Y-42250430D01*
X116673028Y-42242165D01*
X116696827Y-42236204D01*
X116721095Y-42232604D01*
X116745599Y-42231400D01*
X117645601Y-42231400D01*
X117670105Y-42232604D01*
G37*
D12*
X119354600Y-47244000D03*
X117454600Y-47244000D03*
X118404600Y-50244000D03*
D10*
G36*
X121797605Y-44262504D02*
G01*
X121821873Y-44266104D01*
X121845672Y-44272065D01*
X121868771Y-44280330D01*
X121890950Y-44290820D01*
X121911993Y-44303432D01*
X121931699Y-44318047D01*
X121949877Y-44334523D01*
X121966353Y-44352701D01*
X121980968Y-44372407D01*
X121993580Y-44393450D01*
X122004070Y-44415629D01*
X122012335Y-44438728D01*
X122018296Y-44462527D01*
X122021896Y-44486795D01*
X122023100Y-44511299D01*
X122023100Y-45161301D01*
X122021896Y-45185805D01*
X122018296Y-45210073D01*
X122012335Y-45233872D01*
X122004070Y-45256971D01*
X121993580Y-45279150D01*
X121980968Y-45300193D01*
X121966353Y-45319899D01*
X121949877Y-45338077D01*
X121931699Y-45354553D01*
X121911993Y-45369168D01*
X121890950Y-45381780D01*
X121868771Y-45392270D01*
X121845672Y-45400535D01*
X121821873Y-45406496D01*
X121797605Y-45410096D01*
X121773101Y-45411300D01*
X120873099Y-45411300D01*
X120848595Y-45410096D01*
X120824327Y-45406496D01*
X120800528Y-45400535D01*
X120777429Y-45392270D01*
X120755250Y-45381780D01*
X120734207Y-45369168D01*
X120714501Y-45354553D01*
X120696323Y-45338077D01*
X120679847Y-45319899D01*
X120665232Y-45300193D01*
X120652620Y-45279150D01*
X120642130Y-45256971D01*
X120633865Y-45233872D01*
X120627904Y-45210073D01*
X120624304Y-45185805D01*
X120623100Y-45161301D01*
X120623100Y-44511299D01*
X120624304Y-44486795D01*
X120627904Y-44462527D01*
X120633865Y-44438728D01*
X120642130Y-44415629D01*
X120652620Y-44393450D01*
X120665232Y-44372407D01*
X120679847Y-44352701D01*
X120696323Y-44334523D01*
X120714501Y-44318047D01*
X120734207Y-44303432D01*
X120755250Y-44290820D01*
X120777429Y-44280330D01*
X120800528Y-44272065D01*
X120824327Y-44266104D01*
X120848595Y-44262504D01*
X120873099Y-44261300D01*
X121773101Y-44261300D01*
X121797605Y-44262504D01*
G37*
G36*
X121797605Y-42212504D02*
G01*
X121821873Y-42216104D01*
X121845672Y-42222065D01*
X121868771Y-42230330D01*
X121890950Y-42240820D01*
X121911993Y-42253432D01*
X121931699Y-42268047D01*
X121949877Y-42284523D01*
X121966353Y-42302701D01*
X121980968Y-42322407D01*
X121993580Y-42343450D01*
X122004070Y-42365629D01*
X122012335Y-42388728D01*
X122018296Y-42412527D01*
X122021896Y-42436795D01*
X122023100Y-42461299D01*
X122023100Y-43111301D01*
X122021896Y-43135805D01*
X122018296Y-43160073D01*
X122012335Y-43183872D01*
X122004070Y-43206971D01*
X121993580Y-43229150D01*
X121980968Y-43250193D01*
X121966353Y-43269899D01*
X121949877Y-43288077D01*
X121931699Y-43304553D01*
X121911993Y-43319168D01*
X121890950Y-43331780D01*
X121868771Y-43342270D01*
X121845672Y-43350535D01*
X121821873Y-43356496D01*
X121797605Y-43360096D01*
X121773101Y-43361300D01*
X120873099Y-43361300D01*
X120848595Y-43360096D01*
X120824327Y-43356496D01*
X120800528Y-43350535D01*
X120777429Y-43342270D01*
X120755250Y-43331780D01*
X120734207Y-43319168D01*
X120714501Y-43304553D01*
X120696323Y-43288077D01*
X120679847Y-43269899D01*
X120665232Y-43250193D01*
X120652620Y-43229150D01*
X120642130Y-43206971D01*
X120633865Y-43183872D01*
X120627904Y-43160073D01*
X120624304Y-43135805D01*
X120623100Y-43111301D01*
X120623100Y-42461299D01*
X120624304Y-42436795D01*
X120627904Y-42412527D01*
X120633865Y-42388728D01*
X120642130Y-42365629D01*
X120652620Y-42343450D01*
X120665232Y-42322407D01*
X120679847Y-42302701D01*
X120696323Y-42284523D01*
X120714501Y-42268047D01*
X120734207Y-42253432D01*
X120755250Y-42240820D01*
X120777429Y-42230330D01*
X120800528Y-42222065D01*
X120824327Y-42216104D01*
X120848595Y-42212504D01*
X120873099Y-42211300D01*
X121773101Y-42211300D01*
X121797605Y-42212504D01*
G37*
G36*
X121848405Y-46118804D02*
G01*
X121872673Y-46122404D01*
X121896472Y-46128365D01*
X121919571Y-46136630D01*
X121941750Y-46147120D01*
X121962793Y-46159732D01*
X121982499Y-46174347D01*
X122000677Y-46190823D01*
X122017153Y-46209001D01*
X122031768Y-46228707D01*
X122044380Y-46249750D01*
X122054870Y-46271929D01*
X122063135Y-46295028D01*
X122069096Y-46318827D01*
X122072696Y-46343095D01*
X122073900Y-46367599D01*
X122073900Y-47017601D01*
X122072696Y-47042105D01*
X122069096Y-47066373D01*
X122063135Y-47090172D01*
X122054870Y-47113271D01*
X122044380Y-47135450D01*
X122031768Y-47156493D01*
X122017153Y-47176199D01*
X122000677Y-47194377D01*
X121982499Y-47210853D01*
X121962793Y-47225468D01*
X121941750Y-47238080D01*
X121919571Y-47248570D01*
X121896472Y-47256835D01*
X121872673Y-47262796D01*
X121848405Y-47266396D01*
X121823901Y-47267600D01*
X120923899Y-47267600D01*
X120899395Y-47266396D01*
X120875127Y-47262796D01*
X120851328Y-47256835D01*
X120828229Y-47248570D01*
X120806050Y-47238080D01*
X120785007Y-47225468D01*
X120765301Y-47210853D01*
X120747123Y-47194377D01*
X120730647Y-47176199D01*
X120716032Y-47156493D01*
X120703420Y-47135450D01*
X120692930Y-47113271D01*
X120684665Y-47090172D01*
X120678704Y-47066373D01*
X120675104Y-47042105D01*
X120673900Y-47017601D01*
X120673900Y-46367599D01*
X120675104Y-46343095D01*
X120678704Y-46318827D01*
X120684665Y-46295028D01*
X120692930Y-46271929D01*
X120703420Y-46249750D01*
X120716032Y-46228707D01*
X120730647Y-46209001D01*
X120747123Y-46190823D01*
X120765301Y-46174347D01*
X120785007Y-46159732D01*
X120806050Y-46147120D01*
X120828229Y-46136630D01*
X120851328Y-46128365D01*
X120875127Y-46122404D01*
X120899395Y-46118804D01*
X120923899Y-46117600D01*
X121823901Y-46117600D01*
X121848405Y-46118804D01*
G37*
G36*
X121848405Y-48168804D02*
G01*
X121872673Y-48172404D01*
X121896472Y-48178365D01*
X121919571Y-48186630D01*
X121941750Y-48197120D01*
X121962793Y-48209732D01*
X121982499Y-48224347D01*
X122000677Y-48240823D01*
X122017153Y-48259001D01*
X122031768Y-48278707D01*
X122044380Y-48299750D01*
X122054870Y-48321929D01*
X122063135Y-48345028D01*
X122069096Y-48368827D01*
X122072696Y-48393095D01*
X122073900Y-48417599D01*
X122073900Y-49067601D01*
X122072696Y-49092105D01*
X122069096Y-49116373D01*
X122063135Y-49140172D01*
X122054870Y-49163271D01*
X122044380Y-49185450D01*
X122031768Y-49206493D01*
X122017153Y-49226199D01*
X122000677Y-49244377D01*
X121982499Y-49260853D01*
X121962793Y-49275468D01*
X121941750Y-49288080D01*
X121919571Y-49298570D01*
X121896472Y-49306835D01*
X121872673Y-49312796D01*
X121848405Y-49316396D01*
X121823901Y-49317600D01*
X120923899Y-49317600D01*
X120899395Y-49316396D01*
X120875127Y-49312796D01*
X120851328Y-49306835D01*
X120828229Y-49298570D01*
X120806050Y-49288080D01*
X120785007Y-49275468D01*
X120765301Y-49260853D01*
X120747123Y-49244377D01*
X120730647Y-49226199D01*
X120716032Y-49206493D01*
X120703420Y-49185450D01*
X120692930Y-49163271D01*
X120684665Y-49140172D01*
X120678704Y-49116373D01*
X120675104Y-49092105D01*
X120673900Y-49067601D01*
X120673900Y-48417599D01*
X120675104Y-48393095D01*
X120678704Y-48368827D01*
X120684665Y-48345028D01*
X120692930Y-48321929D01*
X120703420Y-48299750D01*
X120716032Y-48278707D01*
X120730647Y-48259001D01*
X120747123Y-48240823D01*
X120765301Y-48224347D01*
X120785007Y-48209732D01*
X120806050Y-48197120D01*
X120828229Y-48186630D01*
X120851328Y-48178365D01*
X120875127Y-48172404D01*
X120899395Y-48168804D01*
X120923899Y-48167600D01*
X121823901Y-48167600D01*
X121848405Y-48168804D01*
G37*
G36*
X127398305Y-90757204D02*
G01*
X127422573Y-90760804D01*
X127446372Y-90766765D01*
X127469471Y-90775030D01*
X127491650Y-90785520D01*
X127512693Y-90798132D01*
X127532399Y-90812747D01*
X127550577Y-90829223D01*
X127567053Y-90847401D01*
X127581668Y-90867107D01*
X127594280Y-90888150D01*
X127604770Y-90910329D01*
X127613035Y-90933428D01*
X127618996Y-90957227D01*
X127622596Y-90981495D01*
X127623800Y-91005999D01*
X127623800Y-91656001D01*
X127622596Y-91680505D01*
X127618996Y-91704773D01*
X127613035Y-91728572D01*
X127604770Y-91751671D01*
X127594280Y-91773850D01*
X127581668Y-91794893D01*
X127567053Y-91814599D01*
X127550577Y-91832777D01*
X127532399Y-91849253D01*
X127512693Y-91863868D01*
X127491650Y-91876480D01*
X127469471Y-91886970D01*
X127446372Y-91895235D01*
X127422573Y-91901196D01*
X127398305Y-91904796D01*
X127373801Y-91906000D01*
X126473799Y-91906000D01*
X126449295Y-91904796D01*
X126425027Y-91901196D01*
X126401228Y-91895235D01*
X126378129Y-91886970D01*
X126355950Y-91876480D01*
X126334907Y-91863868D01*
X126315201Y-91849253D01*
X126297023Y-91832777D01*
X126280547Y-91814599D01*
X126265932Y-91794893D01*
X126253320Y-91773850D01*
X126242830Y-91751671D01*
X126234565Y-91728572D01*
X126228604Y-91704773D01*
X126225004Y-91680505D01*
X126223800Y-91656001D01*
X126223800Y-91005999D01*
X126225004Y-90981495D01*
X126228604Y-90957227D01*
X126234565Y-90933428D01*
X126242830Y-90910329D01*
X126253320Y-90888150D01*
X126265932Y-90867107D01*
X126280547Y-90847401D01*
X126297023Y-90829223D01*
X126315201Y-90812747D01*
X126334907Y-90798132D01*
X126355950Y-90785520D01*
X126378129Y-90775030D01*
X126401228Y-90766765D01*
X126425027Y-90760804D01*
X126449295Y-90757204D01*
X126473799Y-90756000D01*
X127373801Y-90756000D01*
X127398305Y-90757204D01*
G37*
G36*
X127398305Y-88707204D02*
G01*
X127422573Y-88710804D01*
X127446372Y-88716765D01*
X127469471Y-88725030D01*
X127491650Y-88735520D01*
X127512693Y-88748132D01*
X127532399Y-88762747D01*
X127550577Y-88779223D01*
X127567053Y-88797401D01*
X127581668Y-88817107D01*
X127594280Y-88838150D01*
X127604770Y-88860329D01*
X127613035Y-88883428D01*
X127618996Y-88907227D01*
X127622596Y-88931495D01*
X127623800Y-88955999D01*
X127623800Y-89606001D01*
X127622596Y-89630505D01*
X127618996Y-89654773D01*
X127613035Y-89678572D01*
X127604770Y-89701671D01*
X127594280Y-89723850D01*
X127581668Y-89744893D01*
X127567053Y-89764599D01*
X127550577Y-89782777D01*
X127532399Y-89799253D01*
X127512693Y-89813868D01*
X127491650Y-89826480D01*
X127469471Y-89836970D01*
X127446372Y-89845235D01*
X127422573Y-89851196D01*
X127398305Y-89854796D01*
X127373801Y-89856000D01*
X126473799Y-89856000D01*
X126449295Y-89854796D01*
X126425027Y-89851196D01*
X126401228Y-89845235D01*
X126378129Y-89836970D01*
X126355950Y-89826480D01*
X126334907Y-89813868D01*
X126315201Y-89799253D01*
X126297023Y-89782777D01*
X126280547Y-89764599D01*
X126265932Y-89744893D01*
X126253320Y-89723850D01*
X126242830Y-89701671D01*
X126234565Y-89678572D01*
X126228604Y-89654773D01*
X126225004Y-89630505D01*
X126223800Y-89606001D01*
X126223800Y-88955999D01*
X126225004Y-88931495D01*
X126228604Y-88907227D01*
X126234565Y-88883428D01*
X126242830Y-88860329D01*
X126253320Y-88838150D01*
X126265932Y-88817107D01*
X126280547Y-88797401D01*
X126297023Y-88779223D01*
X126315201Y-88762747D01*
X126334907Y-88748132D01*
X126355950Y-88735520D01*
X126378129Y-88725030D01*
X126401228Y-88716765D01*
X126425027Y-88710804D01*
X126449295Y-88707204D01*
X126473799Y-88706000D01*
X127373801Y-88706000D01*
X127398305Y-88707204D01*
G37*
G36*
X125366305Y-88707204D02*
G01*
X125390573Y-88710804D01*
X125414372Y-88716765D01*
X125437471Y-88725030D01*
X125459650Y-88735520D01*
X125480693Y-88748132D01*
X125500399Y-88762747D01*
X125518577Y-88779223D01*
X125535053Y-88797401D01*
X125549668Y-88817107D01*
X125562280Y-88838150D01*
X125572770Y-88860329D01*
X125581035Y-88883428D01*
X125586996Y-88907227D01*
X125590596Y-88931495D01*
X125591800Y-88955999D01*
X125591800Y-89606001D01*
X125590596Y-89630505D01*
X125586996Y-89654773D01*
X125581035Y-89678572D01*
X125572770Y-89701671D01*
X125562280Y-89723850D01*
X125549668Y-89744893D01*
X125535053Y-89764599D01*
X125518577Y-89782777D01*
X125500399Y-89799253D01*
X125480693Y-89813868D01*
X125459650Y-89826480D01*
X125437471Y-89836970D01*
X125414372Y-89845235D01*
X125390573Y-89851196D01*
X125366305Y-89854796D01*
X125341801Y-89856000D01*
X124441799Y-89856000D01*
X124417295Y-89854796D01*
X124393027Y-89851196D01*
X124369228Y-89845235D01*
X124346129Y-89836970D01*
X124323950Y-89826480D01*
X124302907Y-89813868D01*
X124283201Y-89799253D01*
X124265023Y-89782777D01*
X124248547Y-89764599D01*
X124233932Y-89744893D01*
X124221320Y-89723850D01*
X124210830Y-89701671D01*
X124202565Y-89678572D01*
X124196604Y-89654773D01*
X124193004Y-89630505D01*
X124191800Y-89606001D01*
X124191800Y-88955999D01*
X124193004Y-88931495D01*
X124196604Y-88907227D01*
X124202565Y-88883428D01*
X124210830Y-88860329D01*
X124221320Y-88838150D01*
X124233932Y-88817107D01*
X124248547Y-88797401D01*
X124265023Y-88779223D01*
X124283201Y-88762747D01*
X124302907Y-88748132D01*
X124323950Y-88735520D01*
X124346129Y-88725030D01*
X124369228Y-88716765D01*
X124393027Y-88710804D01*
X124417295Y-88707204D01*
X124441799Y-88706000D01*
X125341801Y-88706000D01*
X125366305Y-88707204D01*
G37*
G36*
X125366305Y-90757204D02*
G01*
X125390573Y-90760804D01*
X125414372Y-90766765D01*
X125437471Y-90775030D01*
X125459650Y-90785520D01*
X125480693Y-90798132D01*
X125500399Y-90812747D01*
X125518577Y-90829223D01*
X125535053Y-90847401D01*
X125549668Y-90867107D01*
X125562280Y-90888150D01*
X125572770Y-90910329D01*
X125581035Y-90933428D01*
X125586996Y-90957227D01*
X125590596Y-90981495D01*
X125591800Y-91005999D01*
X125591800Y-91656001D01*
X125590596Y-91680505D01*
X125586996Y-91704773D01*
X125581035Y-91728572D01*
X125572770Y-91751671D01*
X125562280Y-91773850D01*
X125549668Y-91794893D01*
X125535053Y-91814599D01*
X125518577Y-91832777D01*
X125500399Y-91849253D01*
X125480693Y-91863868D01*
X125459650Y-91876480D01*
X125437471Y-91886970D01*
X125414372Y-91895235D01*
X125390573Y-91901196D01*
X125366305Y-91904796D01*
X125341801Y-91906000D01*
X124441799Y-91906000D01*
X124417295Y-91904796D01*
X124393027Y-91901196D01*
X124369228Y-91895235D01*
X124346129Y-91886970D01*
X124323950Y-91876480D01*
X124302907Y-91863868D01*
X124283201Y-91849253D01*
X124265023Y-91832777D01*
X124248547Y-91814599D01*
X124233932Y-91794893D01*
X124221320Y-91773850D01*
X124210830Y-91751671D01*
X124202565Y-91728572D01*
X124196604Y-91704773D01*
X124193004Y-91680505D01*
X124191800Y-91656001D01*
X124191800Y-91005999D01*
X124193004Y-90981495D01*
X124196604Y-90957227D01*
X124202565Y-90933428D01*
X124210830Y-90910329D01*
X124221320Y-90888150D01*
X124233932Y-90867107D01*
X124248547Y-90847401D01*
X124265023Y-90829223D01*
X124283201Y-90812747D01*
X124302907Y-90798132D01*
X124323950Y-90785520D01*
X124346129Y-90775030D01*
X124369228Y-90766765D01*
X124393027Y-90760804D01*
X124417295Y-90757204D01*
X124441799Y-90756000D01*
X125341801Y-90756000D01*
X125366305Y-90757204D01*
G37*
M02*
