G04 #@! TF.GenerationSoftware,KiCad,Pcbnew,(5.1.5-0)*
G04 #@! TF.CreationDate,2020-10-12T11:47:50-05:00*
G04 #@! TF.ProjectId,bells-venn,62656c6c-732d-4766-956e-6e2e6b696361,rev?*
G04 #@! TF.SameCoordinates,Original*
G04 #@! TF.FileFunction,Soldermask,Bot*
G04 #@! TF.FilePolarity,Negative*
%FSLAX46Y46*%
G04 Gerber Fmt 4.6, Leading zero omitted, Abs format (unit mm)*
G04 Created by KiCad (PCBNEW (5.1.5-0)) date 2020-10-12 11:47:50*
%MOMM*%
%LPD*%
G04 APERTURE LIST*
%ADD10C,0.100000*%
G04 APERTURE END LIST*
D10*
G36*
X184595560Y-132537064D02*
G01*
X184747027Y-132567193D01*
X184961045Y-132655842D01*
X184961046Y-132655843D01*
X185153654Y-132784539D01*
X185317461Y-132948346D01*
X185403258Y-133076751D01*
X185446158Y-133140955D01*
X185534807Y-133354973D01*
X185580000Y-133582174D01*
X185580000Y-133813826D01*
X185534807Y-134041027D01*
X185446158Y-134255045D01*
X185446157Y-134255046D01*
X185317461Y-134447654D01*
X185153654Y-134611461D01*
X185025249Y-134697258D01*
X184961045Y-134740158D01*
X184747027Y-134828807D01*
X184595560Y-134858936D01*
X184519827Y-134874000D01*
X184288173Y-134874000D01*
X184212440Y-134858936D01*
X184060973Y-134828807D01*
X183846955Y-134740158D01*
X183782751Y-134697258D01*
X183654346Y-134611461D01*
X183490539Y-134447654D01*
X183361843Y-134255046D01*
X183361842Y-134255045D01*
X183273193Y-134041027D01*
X183228000Y-133813826D01*
X183228000Y-133582174D01*
X183273193Y-133354973D01*
X183361842Y-133140955D01*
X183404742Y-133076751D01*
X183490539Y-132948346D01*
X183654346Y-132784539D01*
X183846954Y-132655843D01*
X183846955Y-132655842D01*
X184060973Y-132567193D01*
X184212440Y-132537064D01*
X184288173Y-132522000D01*
X184519827Y-132522000D01*
X184595560Y-132537064D01*
G37*
G36*
X171133560Y-132537064D02*
G01*
X171285027Y-132567193D01*
X171499045Y-132655842D01*
X171499046Y-132655843D01*
X171691654Y-132784539D01*
X171855461Y-132948346D01*
X171941258Y-133076751D01*
X171984158Y-133140955D01*
X172072807Y-133354973D01*
X172118000Y-133582174D01*
X172118000Y-133813826D01*
X172072807Y-134041027D01*
X171984158Y-134255045D01*
X171984157Y-134255046D01*
X171855461Y-134447654D01*
X171691654Y-134611461D01*
X171563249Y-134697258D01*
X171499045Y-134740158D01*
X171285027Y-134828807D01*
X171133560Y-134858936D01*
X171057827Y-134874000D01*
X170826173Y-134874000D01*
X170750440Y-134858936D01*
X170598973Y-134828807D01*
X170384955Y-134740158D01*
X170320751Y-134697258D01*
X170192346Y-134611461D01*
X170028539Y-134447654D01*
X169899843Y-134255046D01*
X169899842Y-134255045D01*
X169811193Y-134041027D01*
X169766000Y-133813826D01*
X169766000Y-133582174D01*
X169811193Y-133354973D01*
X169899842Y-133140955D01*
X169942742Y-133076751D01*
X170028539Y-132948346D01*
X170192346Y-132784539D01*
X170384954Y-132655843D01*
X170384955Y-132655842D01*
X170598973Y-132567193D01*
X170750440Y-132537064D01*
X170826173Y-132522000D01*
X171057827Y-132522000D01*
X171133560Y-132537064D01*
G37*
G36*
X157671560Y-132537064D02*
G01*
X157823027Y-132567193D01*
X158037045Y-132655842D01*
X158037046Y-132655843D01*
X158229654Y-132784539D01*
X158393461Y-132948346D01*
X158479258Y-133076751D01*
X158522158Y-133140955D01*
X158610807Y-133354973D01*
X158656000Y-133582174D01*
X158656000Y-133813826D01*
X158610807Y-134041027D01*
X158522158Y-134255045D01*
X158522157Y-134255046D01*
X158393461Y-134447654D01*
X158229654Y-134611461D01*
X158101249Y-134697258D01*
X158037045Y-134740158D01*
X157823027Y-134828807D01*
X157671560Y-134858936D01*
X157595827Y-134874000D01*
X157364173Y-134874000D01*
X157288440Y-134858936D01*
X157136973Y-134828807D01*
X156922955Y-134740158D01*
X156858751Y-134697258D01*
X156730346Y-134611461D01*
X156566539Y-134447654D01*
X156437843Y-134255046D01*
X156437842Y-134255045D01*
X156349193Y-134041027D01*
X156304000Y-133813826D01*
X156304000Y-133582174D01*
X156349193Y-133354973D01*
X156437842Y-133140955D01*
X156480742Y-133076751D01*
X156566539Y-132948346D01*
X156730346Y-132784539D01*
X156922954Y-132655843D01*
X156922955Y-132655842D01*
X157136973Y-132567193D01*
X157288440Y-132537064D01*
X157364173Y-132522000D01*
X157595827Y-132522000D01*
X157671560Y-132537064D01*
G37*
G36*
X144209560Y-132537064D02*
G01*
X144361027Y-132567193D01*
X144575045Y-132655842D01*
X144575046Y-132655843D01*
X144767654Y-132784539D01*
X144931461Y-132948346D01*
X145017258Y-133076751D01*
X145060158Y-133140955D01*
X145148807Y-133354973D01*
X145194000Y-133582174D01*
X145194000Y-133813826D01*
X145148807Y-134041027D01*
X145060158Y-134255045D01*
X145060157Y-134255046D01*
X144931461Y-134447654D01*
X144767654Y-134611461D01*
X144639249Y-134697258D01*
X144575045Y-134740158D01*
X144361027Y-134828807D01*
X144209560Y-134858936D01*
X144133827Y-134874000D01*
X143902173Y-134874000D01*
X143826440Y-134858936D01*
X143674973Y-134828807D01*
X143460955Y-134740158D01*
X143396751Y-134697258D01*
X143268346Y-134611461D01*
X143104539Y-134447654D01*
X142975843Y-134255046D01*
X142975842Y-134255045D01*
X142887193Y-134041027D01*
X142842000Y-133813826D01*
X142842000Y-133582174D01*
X142887193Y-133354973D01*
X142975842Y-133140955D01*
X143018742Y-133076751D01*
X143104539Y-132948346D01*
X143268346Y-132784539D01*
X143460954Y-132655843D01*
X143460955Y-132655842D01*
X143674973Y-132567193D01*
X143826440Y-132537064D01*
X143902173Y-132522000D01*
X144133827Y-132522000D01*
X144209560Y-132537064D01*
G37*
G36*
X130747560Y-132537064D02*
G01*
X130899027Y-132567193D01*
X131113045Y-132655842D01*
X131113046Y-132655843D01*
X131305654Y-132784539D01*
X131469461Y-132948346D01*
X131555258Y-133076751D01*
X131598158Y-133140955D01*
X131686807Y-133354973D01*
X131732000Y-133582174D01*
X131732000Y-133813826D01*
X131686807Y-134041027D01*
X131598158Y-134255045D01*
X131598157Y-134255046D01*
X131469461Y-134447654D01*
X131305654Y-134611461D01*
X131177249Y-134697258D01*
X131113045Y-134740158D01*
X130899027Y-134828807D01*
X130747560Y-134858936D01*
X130671827Y-134874000D01*
X130440173Y-134874000D01*
X130364440Y-134858936D01*
X130212973Y-134828807D01*
X129998955Y-134740158D01*
X129934751Y-134697258D01*
X129806346Y-134611461D01*
X129642539Y-134447654D01*
X129513843Y-134255046D01*
X129513842Y-134255045D01*
X129425193Y-134041027D01*
X129380000Y-133813826D01*
X129380000Y-133582174D01*
X129425193Y-133354973D01*
X129513842Y-133140955D01*
X129556742Y-133076751D01*
X129642539Y-132948346D01*
X129806346Y-132784539D01*
X129998954Y-132655843D01*
X129998955Y-132655842D01*
X130212973Y-132567193D01*
X130364440Y-132537064D01*
X130440173Y-132522000D01*
X130671827Y-132522000D01*
X130747560Y-132537064D01*
G37*
G36*
X117285560Y-132537064D02*
G01*
X117437027Y-132567193D01*
X117651045Y-132655842D01*
X117651046Y-132655843D01*
X117843654Y-132784539D01*
X118007461Y-132948346D01*
X118093258Y-133076751D01*
X118136158Y-133140955D01*
X118224807Y-133354973D01*
X118270000Y-133582174D01*
X118270000Y-133813826D01*
X118224807Y-134041027D01*
X118136158Y-134255045D01*
X118136157Y-134255046D01*
X118007461Y-134447654D01*
X117843654Y-134611461D01*
X117715249Y-134697258D01*
X117651045Y-134740158D01*
X117437027Y-134828807D01*
X117285560Y-134858936D01*
X117209827Y-134874000D01*
X116978173Y-134874000D01*
X116902440Y-134858936D01*
X116750973Y-134828807D01*
X116536955Y-134740158D01*
X116472751Y-134697258D01*
X116344346Y-134611461D01*
X116180539Y-134447654D01*
X116051843Y-134255046D01*
X116051842Y-134255045D01*
X115963193Y-134041027D01*
X115918000Y-133813826D01*
X115918000Y-133582174D01*
X115963193Y-133354973D01*
X116051842Y-133140955D01*
X116094742Y-133076751D01*
X116180539Y-132948346D01*
X116344346Y-132784539D01*
X116536954Y-132655843D01*
X116536955Y-132655842D01*
X116750973Y-132567193D01*
X116902440Y-132537064D01*
X116978173Y-132522000D01*
X117209827Y-132522000D01*
X117285560Y-132537064D01*
G37*
G36*
X117396585Y-127256802D02*
G01*
X117546410Y-127286604D01*
X117828674Y-127403521D01*
X118082705Y-127573259D01*
X118298741Y-127789295D01*
X118468479Y-128043326D01*
X118585396Y-128325590D01*
X118645000Y-128625240D01*
X118645000Y-128930760D01*
X118585396Y-129230410D01*
X118468479Y-129512674D01*
X118298741Y-129766705D01*
X118082705Y-129982741D01*
X117828674Y-130152479D01*
X117546410Y-130269396D01*
X117396585Y-130299198D01*
X117246761Y-130329000D01*
X116941239Y-130329000D01*
X116791415Y-130299198D01*
X116641590Y-130269396D01*
X116359326Y-130152479D01*
X116105295Y-129982741D01*
X115889259Y-129766705D01*
X115719521Y-129512674D01*
X115602604Y-129230410D01*
X115543000Y-128930760D01*
X115543000Y-128625240D01*
X115602604Y-128325590D01*
X115719521Y-128043326D01*
X115889259Y-127789295D01*
X116105295Y-127573259D01*
X116359326Y-127403521D01*
X116641590Y-127286604D01*
X116791415Y-127256802D01*
X116941239Y-127227000D01*
X117246761Y-127227000D01*
X117396585Y-127256802D01*
G37*
G36*
X130858585Y-127256802D02*
G01*
X131008410Y-127286604D01*
X131290674Y-127403521D01*
X131544705Y-127573259D01*
X131760741Y-127789295D01*
X131930479Y-128043326D01*
X132047396Y-128325590D01*
X132107000Y-128625240D01*
X132107000Y-128930760D01*
X132047396Y-129230410D01*
X131930479Y-129512674D01*
X131760741Y-129766705D01*
X131544705Y-129982741D01*
X131290674Y-130152479D01*
X131008410Y-130269396D01*
X130858585Y-130299198D01*
X130708761Y-130329000D01*
X130403239Y-130329000D01*
X130253415Y-130299198D01*
X130103590Y-130269396D01*
X129821326Y-130152479D01*
X129567295Y-129982741D01*
X129351259Y-129766705D01*
X129181521Y-129512674D01*
X129064604Y-129230410D01*
X129005000Y-128930760D01*
X129005000Y-128625240D01*
X129064604Y-128325590D01*
X129181521Y-128043326D01*
X129351259Y-127789295D01*
X129567295Y-127573259D01*
X129821326Y-127403521D01*
X130103590Y-127286604D01*
X130253415Y-127256802D01*
X130403239Y-127227000D01*
X130708761Y-127227000D01*
X130858585Y-127256802D01*
G37*
G36*
X144320585Y-127256802D02*
G01*
X144470410Y-127286604D01*
X144752674Y-127403521D01*
X145006705Y-127573259D01*
X145222741Y-127789295D01*
X145392479Y-128043326D01*
X145509396Y-128325590D01*
X145569000Y-128625240D01*
X145569000Y-128930760D01*
X145509396Y-129230410D01*
X145392479Y-129512674D01*
X145222741Y-129766705D01*
X145006705Y-129982741D01*
X144752674Y-130152479D01*
X144470410Y-130269396D01*
X144320585Y-130299198D01*
X144170761Y-130329000D01*
X143865239Y-130329000D01*
X143715415Y-130299198D01*
X143565590Y-130269396D01*
X143283326Y-130152479D01*
X143029295Y-129982741D01*
X142813259Y-129766705D01*
X142643521Y-129512674D01*
X142526604Y-129230410D01*
X142467000Y-128930760D01*
X142467000Y-128625240D01*
X142526604Y-128325590D01*
X142643521Y-128043326D01*
X142813259Y-127789295D01*
X143029295Y-127573259D01*
X143283326Y-127403521D01*
X143565590Y-127286604D01*
X143715415Y-127256802D01*
X143865239Y-127227000D01*
X144170761Y-127227000D01*
X144320585Y-127256802D01*
G37*
G36*
X157782585Y-127256802D02*
G01*
X157932410Y-127286604D01*
X158214674Y-127403521D01*
X158468705Y-127573259D01*
X158684741Y-127789295D01*
X158854479Y-128043326D01*
X158971396Y-128325590D01*
X159031000Y-128625240D01*
X159031000Y-128930760D01*
X158971396Y-129230410D01*
X158854479Y-129512674D01*
X158684741Y-129766705D01*
X158468705Y-129982741D01*
X158214674Y-130152479D01*
X157932410Y-130269396D01*
X157782585Y-130299198D01*
X157632761Y-130329000D01*
X157327239Y-130329000D01*
X157177415Y-130299198D01*
X157027590Y-130269396D01*
X156745326Y-130152479D01*
X156491295Y-129982741D01*
X156275259Y-129766705D01*
X156105521Y-129512674D01*
X155988604Y-129230410D01*
X155929000Y-128930760D01*
X155929000Y-128625240D01*
X155988604Y-128325590D01*
X156105521Y-128043326D01*
X156275259Y-127789295D01*
X156491295Y-127573259D01*
X156745326Y-127403521D01*
X157027590Y-127286604D01*
X157177415Y-127256802D01*
X157327239Y-127227000D01*
X157632761Y-127227000D01*
X157782585Y-127256802D01*
G37*
G36*
X171244585Y-127256802D02*
G01*
X171394410Y-127286604D01*
X171676674Y-127403521D01*
X171930705Y-127573259D01*
X172146741Y-127789295D01*
X172316479Y-128043326D01*
X172433396Y-128325590D01*
X172493000Y-128625240D01*
X172493000Y-128930760D01*
X172433396Y-129230410D01*
X172316479Y-129512674D01*
X172146741Y-129766705D01*
X171930705Y-129982741D01*
X171676674Y-130152479D01*
X171394410Y-130269396D01*
X171244585Y-130299198D01*
X171094761Y-130329000D01*
X170789239Y-130329000D01*
X170639415Y-130299198D01*
X170489590Y-130269396D01*
X170207326Y-130152479D01*
X169953295Y-129982741D01*
X169737259Y-129766705D01*
X169567521Y-129512674D01*
X169450604Y-129230410D01*
X169391000Y-128930760D01*
X169391000Y-128625240D01*
X169450604Y-128325590D01*
X169567521Y-128043326D01*
X169737259Y-127789295D01*
X169953295Y-127573259D01*
X170207326Y-127403521D01*
X170489590Y-127286604D01*
X170639415Y-127256802D01*
X170789239Y-127227000D01*
X171094761Y-127227000D01*
X171244585Y-127256802D01*
G37*
G36*
X184706585Y-127256802D02*
G01*
X184856410Y-127286604D01*
X185138674Y-127403521D01*
X185392705Y-127573259D01*
X185608741Y-127789295D01*
X185778479Y-128043326D01*
X185895396Y-128325590D01*
X185955000Y-128625240D01*
X185955000Y-128930760D01*
X185895396Y-129230410D01*
X185778479Y-129512674D01*
X185608741Y-129766705D01*
X185392705Y-129982741D01*
X185138674Y-130152479D01*
X184856410Y-130269396D01*
X184706585Y-130299198D01*
X184556761Y-130329000D01*
X184251239Y-130329000D01*
X184101415Y-130299198D01*
X183951590Y-130269396D01*
X183669326Y-130152479D01*
X183415295Y-129982741D01*
X183199259Y-129766705D01*
X183029521Y-129512674D01*
X182912604Y-129230410D01*
X182853000Y-128930760D01*
X182853000Y-128625240D01*
X182912604Y-128325590D01*
X183029521Y-128043326D01*
X183199259Y-127789295D01*
X183415295Y-127573259D01*
X183669326Y-127403521D01*
X183951590Y-127286604D01*
X184101415Y-127256802D01*
X184251239Y-127227000D01*
X184556761Y-127227000D01*
X184706585Y-127256802D01*
G37*
G36*
X171133560Y-124237064D02*
G01*
X171285027Y-124267193D01*
X171499045Y-124355842D01*
X171499046Y-124355843D01*
X171691654Y-124484539D01*
X171855461Y-124648346D01*
X171941258Y-124776751D01*
X171984158Y-124840955D01*
X172072807Y-125054973D01*
X172118000Y-125282174D01*
X172118000Y-125513826D01*
X172072807Y-125741027D01*
X171984158Y-125955045D01*
X171984157Y-125955046D01*
X171855461Y-126147654D01*
X171691654Y-126311461D01*
X171563249Y-126397258D01*
X171499045Y-126440158D01*
X171285027Y-126528807D01*
X171133560Y-126558936D01*
X171057827Y-126574000D01*
X170826173Y-126574000D01*
X170750440Y-126558936D01*
X170598973Y-126528807D01*
X170384955Y-126440158D01*
X170320751Y-126397258D01*
X170192346Y-126311461D01*
X170028539Y-126147654D01*
X169899843Y-125955046D01*
X169899842Y-125955045D01*
X169811193Y-125741027D01*
X169766000Y-125513826D01*
X169766000Y-125282174D01*
X169811193Y-125054973D01*
X169899842Y-124840955D01*
X169942742Y-124776751D01*
X170028539Y-124648346D01*
X170192346Y-124484539D01*
X170384954Y-124355843D01*
X170384955Y-124355842D01*
X170598973Y-124267193D01*
X170750440Y-124237064D01*
X170826173Y-124222000D01*
X171057827Y-124222000D01*
X171133560Y-124237064D01*
G37*
G36*
X157671560Y-124237064D02*
G01*
X157823027Y-124267193D01*
X158037045Y-124355842D01*
X158037046Y-124355843D01*
X158229654Y-124484539D01*
X158393461Y-124648346D01*
X158479258Y-124776751D01*
X158522158Y-124840955D01*
X158610807Y-125054973D01*
X158656000Y-125282174D01*
X158656000Y-125513826D01*
X158610807Y-125741027D01*
X158522158Y-125955045D01*
X158522157Y-125955046D01*
X158393461Y-126147654D01*
X158229654Y-126311461D01*
X158101249Y-126397258D01*
X158037045Y-126440158D01*
X157823027Y-126528807D01*
X157671560Y-126558936D01*
X157595827Y-126574000D01*
X157364173Y-126574000D01*
X157288440Y-126558936D01*
X157136973Y-126528807D01*
X156922955Y-126440158D01*
X156858751Y-126397258D01*
X156730346Y-126311461D01*
X156566539Y-126147654D01*
X156437843Y-125955046D01*
X156437842Y-125955045D01*
X156349193Y-125741027D01*
X156304000Y-125513826D01*
X156304000Y-125282174D01*
X156349193Y-125054973D01*
X156437842Y-124840955D01*
X156480742Y-124776751D01*
X156566539Y-124648346D01*
X156730346Y-124484539D01*
X156922954Y-124355843D01*
X156922955Y-124355842D01*
X157136973Y-124267193D01*
X157288440Y-124237064D01*
X157364173Y-124222000D01*
X157595827Y-124222000D01*
X157671560Y-124237064D01*
G37*
G36*
X144209560Y-124237064D02*
G01*
X144361027Y-124267193D01*
X144575045Y-124355842D01*
X144575046Y-124355843D01*
X144767654Y-124484539D01*
X144931461Y-124648346D01*
X145017258Y-124776751D01*
X145060158Y-124840955D01*
X145148807Y-125054973D01*
X145194000Y-125282174D01*
X145194000Y-125513826D01*
X145148807Y-125741027D01*
X145060158Y-125955045D01*
X145060157Y-125955046D01*
X144931461Y-126147654D01*
X144767654Y-126311461D01*
X144639249Y-126397258D01*
X144575045Y-126440158D01*
X144361027Y-126528807D01*
X144209560Y-126558936D01*
X144133827Y-126574000D01*
X143902173Y-126574000D01*
X143826440Y-126558936D01*
X143674973Y-126528807D01*
X143460955Y-126440158D01*
X143396751Y-126397258D01*
X143268346Y-126311461D01*
X143104539Y-126147654D01*
X142975843Y-125955046D01*
X142975842Y-125955045D01*
X142887193Y-125741027D01*
X142842000Y-125513826D01*
X142842000Y-125282174D01*
X142887193Y-125054973D01*
X142975842Y-124840955D01*
X143018742Y-124776751D01*
X143104539Y-124648346D01*
X143268346Y-124484539D01*
X143460954Y-124355843D01*
X143460955Y-124355842D01*
X143674973Y-124267193D01*
X143826440Y-124237064D01*
X143902173Y-124222000D01*
X144133827Y-124222000D01*
X144209560Y-124237064D01*
G37*
G36*
X130747560Y-124237064D02*
G01*
X130899027Y-124267193D01*
X131113045Y-124355842D01*
X131113046Y-124355843D01*
X131305654Y-124484539D01*
X131469461Y-124648346D01*
X131555258Y-124776751D01*
X131598158Y-124840955D01*
X131686807Y-125054973D01*
X131732000Y-125282174D01*
X131732000Y-125513826D01*
X131686807Y-125741027D01*
X131598158Y-125955045D01*
X131598157Y-125955046D01*
X131469461Y-126147654D01*
X131305654Y-126311461D01*
X131177249Y-126397258D01*
X131113045Y-126440158D01*
X130899027Y-126528807D01*
X130747560Y-126558936D01*
X130671827Y-126574000D01*
X130440173Y-126574000D01*
X130364440Y-126558936D01*
X130212973Y-126528807D01*
X129998955Y-126440158D01*
X129934751Y-126397258D01*
X129806346Y-126311461D01*
X129642539Y-126147654D01*
X129513843Y-125955046D01*
X129513842Y-125955045D01*
X129425193Y-125741027D01*
X129380000Y-125513826D01*
X129380000Y-125282174D01*
X129425193Y-125054973D01*
X129513842Y-124840955D01*
X129556742Y-124776751D01*
X129642539Y-124648346D01*
X129806346Y-124484539D01*
X129998954Y-124355843D01*
X129998955Y-124355842D01*
X130212973Y-124267193D01*
X130364440Y-124237064D01*
X130440173Y-124222000D01*
X130671827Y-124222000D01*
X130747560Y-124237064D01*
G37*
G36*
X117285560Y-124237064D02*
G01*
X117437027Y-124267193D01*
X117651045Y-124355842D01*
X117651046Y-124355843D01*
X117843654Y-124484539D01*
X118007461Y-124648346D01*
X118093258Y-124776751D01*
X118136158Y-124840955D01*
X118224807Y-125054973D01*
X118270000Y-125282174D01*
X118270000Y-125513826D01*
X118224807Y-125741027D01*
X118136158Y-125955045D01*
X118136157Y-125955046D01*
X118007461Y-126147654D01*
X117843654Y-126311461D01*
X117715249Y-126397258D01*
X117651045Y-126440158D01*
X117437027Y-126528807D01*
X117285560Y-126558936D01*
X117209827Y-126574000D01*
X116978173Y-126574000D01*
X116902440Y-126558936D01*
X116750973Y-126528807D01*
X116536955Y-126440158D01*
X116472751Y-126397258D01*
X116344346Y-126311461D01*
X116180539Y-126147654D01*
X116051843Y-125955046D01*
X116051842Y-125955045D01*
X115963193Y-125741027D01*
X115918000Y-125513826D01*
X115918000Y-125282174D01*
X115963193Y-125054973D01*
X116051842Y-124840955D01*
X116094742Y-124776751D01*
X116180539Y-124648346D01*
X116344346Y-124484539D01*
X116536954Y-124355843D01*
X116536955Y-124355842D01*
X116750973Y-124267193D01*
X116902440Y-124237064D01*
X116978173Y-124222000D01*
X117209827Y-124222000D01*
X117285560Y-124237064D01*
G37*
G36*
X184595560Y-124237064D02*
G01*
X184747027Y-124267193D01*
X184961045Y-124355842D01*
X184961046Y-124355843D01*
X185153654Y-124484539D01*
X185317461Y-124648346D01*
X185403258Y-124776751D01*
X185446158Y-124840955D01*
X185534807Y-125054973D01*
X185580000Y-125282174D01*
X185580000Y-125513826D01*
X185534807Y-125741027D01*
X185446158Y-125955045D01*
X185446157Y-125955046D01*
X185317461Y-126147654D01*
X185153654Y-126311461D01*
X185025249Y-126397258D01*
X184961045Y-126440158D01*
X184747027Y-126528807D01*
X184595560Y-126558936D01*
X184519827Y-126574000D01*
X184288173Y-126574000D01*
X184212440Y-126558936D01*
X184060973Y-126528807D01*
X183846955Y-126440158D01*
X183782751Y-126397258D01*
X183654346Y-126311461D01*
X183490539Y-126147654D01*
X183361843Y-125955046D01*
X183361842Y-125955045D01*
X183273193Y-125741027D01*
X183228000Y-125513826D01*
X183228000Y-125282174D01*
X183273193Y-125054973D01*
X183361842Y-124840955D01*
X183404742Y-124776751D01*
X183490539Y-124648346D01*
X183654346Y-124484539D01*
X183846954Y-124355843D01*
X183846955Y-124355842D01*
X184060973Y-124267193D01*
X184212440Y-124237064D01*
X184288173Y-124222000D01*
X184519827Y-124222000D01*
X184595560Y-124237064D01*
G37*
G36*
X178048256Y-120311298D02*
G01*
X178154579Y-120332447D01*
X178455042Y-120456903D01*
X178725451Y-120637585D01*
X178955415Y-120867549D01*
X178955416Y-120867551D01*
X179136098Y-121137960D01*
X179260553Y-121438422D01*
X179324000Y-121757389D01*
X179324000Y-122082611D01*
X179281702Y-122295256D01*
X179260553Y-122401579D01*
X179136097Y-122702042D01*
X178955415Y-122972451D01*
X178725451Y-123202415D01*
X178455042Y-123383097D01*
X178154579Y-123507553D01*
X178048256Y-123528702D01*
X177835611Y-123571000D01*
X177510389Y-123571000D01*
X177297744Y-123528702D01*
X177191421Y-123507553D01*
X176890958Y-123383097D01*
X176620549Y-123202415D01*
X176390585Y-122972451D01*
X176209903Y-122702042D01*
X176085447Y-122401579D01*
X176064298Y-122295256D01*
X176022000Y-122082611D01*
X176022000Y-121757389D01*
X176085447Y-121438422D01*
X176209902Y-121137960D01*
X176390584Y-120867551D01*
X176390585Y-120867549D01*
X176620549Y-120637585D01*
X176890958Y-120456903D01*
X177191421Y-120332447D01*
X177297744Y-120311298D01*
X177510389Y-120269000D01*
X177835611Y-120269000D01*
X178048256Y-120311298D01*
G37*
G36*
X124073256Y-120311298D02*
G01*
X124179579Y-120332447D01*
X124480042Y-120456903D01*
X124750451Y-120637585D01*
X124980415Y-120867549D01*
X124980416Y-120867551D01*
X125161098Y-121137960D01*
X125285553Y-121438422D01*
X125349000Y-121757389D01*
X125349000Y-122082611D01*
X125306702Y-122295256D01*
X125285553Y-122401579D01*
X125161097Y-122702042D01*
X124980415Y-122972451D01*
X124750451Y-123202415D01*
X124480042Y-123383097D01*
X124179579Y-123507553D01*
X124073256Y-123528702D01*
X123860611Y-123571000D01*
X123535389Y-123571000D01*
X123322744Y-123528702D01*
X123216421Y-123507553D01*
X122915958Y-123383097D01*
X122645549Y-123202415D01*
X122415585Y-122972451D01*
X122234903Y-122702042D01*
X122110447Y-122401579D01*
X122089298Y-122295256D01*
X122047000Y-122082611D01*
X122047000Y-121757389D01*
X122110447Y-121438422D01*
X122234902Y-121137960D01*
X122415584Y-120867551D01*
X122415585Y-120867549D01*
X122645549Y-120637585D01*
X122915958Y-120456903D01*
X123216421Y-120332447D01*
X123322744Y-120311298D01*
X123535389Y-120269000D01*
X123860611Y-120269000D01*
X124073256Y-120311298D01*
G37*
G36*
X184595560Y-121137064D02*
G01*
X184747027Y-121167193D01*
X184961045Y-121255842D01*
X184961046Y-121255843D01*
X185153654Y-121384539D01*
X185317461Y-121548346D01*
X185403258Y-121676751D01*
X185446158Y-121740955D01*
X185534807Y-121954973D01*
X185580000Y-122182174D01*
X185580000Y-122413826D01*
X185534807Y-122641027D01*
X185446158Y-122855045D01*
X185446157Y-122855046D01*
X185317461Y-123047654D01*
X185153654Y-123211461D01*
X185025249Y-123297258D01*
X184961045Y-123340158D01*
X184747027Y-123428807D01*
X184595560Y-123458936D01*
X184519827Y-123474000D01*
X184288173Y-123474000D01*
X184212440Y-123458936D01*
X184060973Y-123428807D01*
X183846955Y-123340158D01*
X183782751Y-123297258D01*
X183654346Y-123211461D01*
X183490539Y-123047654D01*
X183361843Y-122855046D01*
X183361842Y-122855045D01*
X183273193Y-122641027D01*
X183228000Y-122413826D01*
X183228000Y-122182174D01*
X183273193Y-121954973D01*
X183361842Y-121740955D01*
X183404742Y-121676751D01*
X183490539Y-121548346D01*
X183654346Y-121384539D01*
X183846954Y-121255843D01*
X183846955Y-121255842D01*
X184060973Y-121167193D01*
X184212440Y-121137064D01*
X184288173Y-121122000D01*
X184519827Y-121122000D01*
X184595560Y-121137064D01*
G37*
G36*
X171133560Y-121137064D02*
G01*
X171285027Y-121167193D01*
X171499045Y-121255842D01*
X171499046Y-121255843D01*
X171691654Y-121384539D01*
X171855461Y-121548346D01*
X171941258Y-121676751D01*
X171984158Y-121740955D01*
X172072807Y-121954973D01*
X172118000Y-122182174D01*
X172118000Y-122413826D01*
X172072807Y-122641027D01*
X171984158Y-122855045D01*
X171984157Y-122855046D01*
X171855461Y-123047654D01*
X171691654Y-123211461D01*
X171563249Y-123297258D01*
X171499045Y-123340158D01*
X171285027Y-123428807D01*
X171133560Y-123458936D01*
X171057827Y-123474000D01*
X170826173Y-123474000D01*
X170750440Y-123458936D01*
X170598973Y-123428807D01*
X170384955Y-123340158D01*
X170320751Y-123297258D01*
X170192346Y-123211461D01*
X170028539Y-123047654D01*
X169899843Y-122855046D01*
X169899842Y-122855045D01*
X169811193Y-122641027D01*
X169766000Y-122413826D01*
X169766000Y-122182174D01*
X169811193Y-121954973D01*
X169899842Y-121740955D01*
X169942742Y-121676751D01*
X170028539Y-121548346D01*
X170192346Y-121384539D01*
X170384954Y-121255843D01*
X170384955Y-121255842D01*
X170598973Y-121167193D01*
X170750440Y-121137064D01*
X170826173Y-121122000D01*
X171057827Y-121122000D01*
X171133560Y-121137064D01*
G37*
G36*
X157671560Y-121137064D02*
G01*
X157823027Y-121167193D01*
X158037045Y-121255842D01*
X158037046Y-121255843D01*
X158229654Y-121384539D01*
X158393461Y-121548346D01*
X158479258Y-121676751D01*
X158522158Y-121740955D01*
X158610807Y-121954973D01*
X158656000Y-122182174D01*
X158656000Y-122413826D01*
X158610807Y-122641027D01*
X158522158Y-122855045D01*
X158522157Y-122855046D01*
X158393461Y-123047654D01*
X158229654Y-123211461D01*
X158101249Y-123297258D01*
X158037045Y-123340158D01*
X157823027Y-123428807D01*
X157671560Y-123458936D01*
X157595827Y-123474000D01*
X157364173Y-123474000D01*
X157288440Y-123458936D01*
X157136973Y-123428807D01*
X156922955Y-123340158D01*
X156858751Y-123297258D01*
X156730346Y-123211461D01*
X156566539Y-123047654D01*
X156437843Y-122855046D01*
X156437842Y-122855045D01*
X156349193Y-122641027D01*
X156304000Y-122413826D01*
X156304000Y-122182174D01*
X156349193Y-121954973D01*
X156437842Y-121740955D01*
X156480742Y-121676751D01*
X156566539Y-121548346D01*
X156730346Y-121384539D01*
X156922954Y-121255843D01*
X156922955Y-121255842D01*
X157136973Y-121167193D01*
X157288440Y-121137064D01*
X157364173Y-121122000D01*
X157595827Y-121122000D01*
X157671560Y-121137064D01*
G37*
G36*
X117285560Y-121137064D02*
G01*
X117437027Y-121167193D01*
X117651045Y-121255842D01*
X117651046Y-121255843D01*
X117843654Y-121384539D01*
X118007461Y-121548346D01*
X118093258Y-121676751D01*
X118136158Y-121740955D01*
X118224807Y-121954973D01*
X118270000Y-122182174D01*
X118270000Y-122413826D01*
X118224807Y-122641027D01*
X118136158Y-122855045D01*
X118136157Y-122855046D01*
X118007461Y-123047654D01*
X117843654Y-123211461D01*
X117715249Y-123297258D01*
X117651045Y-123340158D01*
X117437027Y-123428807D01*
X117285560Y-123458936D01*
X117209827Y-123474000D01*
X116978173Y-123474000D01*
X116902440Y-123458936D01*
X116750973Y-123428807D01*
X116536955Y-123340158D01*
X116472751Y-123297258D01*
X116344346Y-123211461D01*
X116180539Y-123047654D01*
X116051843Y-122855046D01*
X116051842Y-122855045D01*
X115963193Y-122641027D01*
X115918000Y-122413826D01*
X115918000Y-122182174D01*
X115963193Y-121954973D01*
X116051842Y-121740955D01*
X116094742Y-121676751D01*
X116180539Y-121548346D01*
X116344346Y-121384539D01*
X116536954Y-121255843D01*
X116536955Y-121255842D01*
X116750973Y-121167193D01*
X116902440Y-121137064D01*
X116978173Y-121122000D01*
X117209827Y-121122000D01*
X117285560Y-121137064D01*
G37*
G36*
X144209560Y-121137064D02*
G01*
X144361027Y-121167193D01*
X144575045Y-121255842D01*
X144575046Y-121255843D01*
X144767654Y-121384539D01*
X144931461Y-121548346D01*
X145017258Y-121676751D01*
X145060158Y-121740955D01*
X145148807Y-121954973D01*
X145194000Y-122182174D01*
X145194000Y-122413826D01*
X145148807Y-122641027D01*
X145060158Y-122855045D01*
X145060157Y-122855046D01*
X144931461Y-123047654D01*
X144767654Y-123211461D01*
X144639249Y-123297258D01*
X144575045Y-123340158D01*
X144361027Y-123428807D01*
X144209560Y-123458936D01*
X144133827Y-123474000D01*
X143902173Y-123474000D01*
X143826440Y-123458936D01*
X143674973Y-123428807D01*
X143460955Y-123340158D01*
X143396751Y-123297258D01*
X143268346Y-123211461D01*
X143104539Y-123047654D01*
X142975843Y-122855046D01*
X142975842Y-122855045D01*
X142887193Y-122641027D01*
X142842000Y-122413826D01*
X142842000Y-122182174D01*
X142887193Y-121954973D01*
X142975842Y-121740955D01*
X143018742Y-121676751D01*
X143104539Y-121548346D01*
X143268346Y-121384539D01*
X143460954Y-121255843D01*
X143460955Y-121255842D01*
X143674973Y-121167193D01*
X143826440Y-121137064D01*
X143902173Y-121122000D01*
X144133827Y-121122000D01*
X144209560Y-121137064D01*
G37*
G36*
X130747560Y-121137064D02*
G01*
X130899027Y-121167193D01*
X131113045Y-121255842D01*
X131113046Y-121255843D01*
X131305654Y-121384539D01*
X131469461Y-121548346D01*
X131555258Y-121676751D01*
X131598158Y-121740955D01*
X131686807Y-121954973D01*
X131732000Y-122182174D01*
X131732000Y-122413826D01*
X131686807Y-122641027D01*
X131598158Y-122855045D01*
X131598157Y-122855046D01*
X131469461Y-123047654D01*
X131305654Y-123211461D01*
X131177249Y-123297258D01*
X131113045Y-123340158D01*
X130899027Y-123428807D01*
X130747560Y-123458936D01*
X130671827Y-123474000D01*
X130440173Y-123474000D01*
X130364440Y-123458936D01*
X130212973Y-123428807D01*
X129998955Y-123340158D01*
X129934751Y-123297258D01*
X129806346Y-123211461D01*
X129642539Y-123047654D01*
X129513843Y-122855046D01*
X129513842Y-122855045D01*
X129425193Y-122641027D01*
X129380000Y-122413826D01*
X129380000Y-122182174D01*
X129425193Y-121954973D01*
X129513842Y-121740955D01*
X129556742Y-121676751D01*
X129642539Y-121548346D01*
X129806346Y-121384539D01*
X129998954Y-121255843D01*
X129998955Y-121255842D01*
X130212973Y-121167193D01*
X130364440Y-121137064D01*
X130440173Y-121122000D01*
X130671827Y-121122000D01*
X130747560Y-121137064D01*
G37*
G36*
X144209560Y-117297064D02*
G01*
X144361027Y-117327193D01*
X144575045Y-117415842D01*
X144575046Y-117415843D01*
X144767654Y-117544539D01*
X144931461Y-117708346D01*
X145017258Y-117836751D01*
X145060158Y-117900955D01*
X145148807Y-118114973D01*
X145194000Y-118342174D01*
X145194000Y-118573826D01*
X145148807Y-118801027D01*
X145060158Y-119015045D01*
X145060157Y-119015046D01*
X144931461Y-119207654D01*
X144767654Y-119371461D01*
X144639249Y-119457258D01*
X144575045Y-119500158D01*
X144361027Y-119588807D01*
X144209560Y-119618936D01*
X144133827Y-119634000D01*
X143902173Y-119634000D01*
X143826440Y-119618936D01*
X143674973Y-119588807D01*
X143460955Y-119500158D01*
X143396751Y-119457258D01*
X143268346Y-119371461D01*
X143104539Y-119207654D01*
X142975843Y-119015046D01*
X142975842Y-119015045D01*
X142887193Y-118801027D01*
X142842000Y-118573826D01*
X142842000Y-118342174D01*
X142887193Y-118114973D01*
X142975842Y-117900955D01*
X143018742Y-117836751D01*
X143104539Y-117708346D01*
X143268346Y-117544539D01*
X143460954Y-117415843D01*
X143460955Y-117415842D01*
X143674973Y-117327193D01*
X143826440Y-117297064D01*
X143902173Y-117282000D01*
X144133827Y-117282000D01*
X144209560Y-117297064D01*
G37*
G36*
X157671560Y-117297064D02*
G01*
X157823027Y-117327193D01*
X158037045Y-117415842D01*
X158037046Y-117415843D01*
X158229654Y-117544539D01*
X158393461Y-117708346D01*
X158479258Y-117836751D01*
X158522158Y-117900955D01*
X158610807Y-118114973D01*
X158656000Y-118342174D01*
X158656000Y-118573826D01*
X158610807Y-118801027D01*
X158522158Y-119015045D01*
X158522157Y-119015046D01*
X158393461Y-119207654D01*
X158229654Y-119371461D01*
X158101249Y-119457258D01*
X158037045Y-119500158D01*
X157823027Y-119588807D01*
X157671560Y-119618936D01*
X157595827Y-119634000D01*
X157364173Y-119634000D01*
X157288440Y-119618936D01*
X157136973Y-119588807D01*
X156922955Y-119500158D01*
X156858751Y-119457258D01*
X156730346Y-119371461D01*
X156566539Y-119207654D01*
X156437843Y-119015046D01*
X156437842Y-119015045D01*
X156349193Y-118801027D01*
X156304000Y-118573826D01*
X156304000Y-118342174D01*
X156349193Y-118114973D01*
X156437842Y-117900955D01*
X156480742Y-117836751D01*
X156566539Y-117708346D01*
X156730346Y-117544539D01*
X156922954Y-117415843D01*
X156922955Y-117415842D01*
X157136973Y-117327193D01*
X157288440Y-117297064D01*
X157364173Y-117282000D01*
X157595827Y-117282000D01*
X157671560Y-117297064D01*
G37*
G36*
X171133560Y-117297064D02*
G01*
X171285027Y-117327193D01*
X171499045Y-117415842D01*
X171499046Y-117415843D01*
X171691654Y-117544539D01*
X171855461Y-117708346D01*
X171941258Y-117836751D01*
X171984158Y-117900955D01*
X172072807Y-118114973D01*
X172118000Y-118342174D01*
X172118000Y-118573826D01*
X172072807Y-118801027D01*
X171984158Y-119015045D01*
X171984157Y-119015046D01*
X171855461Y-119207654D01*
X171691654Y-119371461D01*
X171563249Y-119457258D01*
X171499045Y-119500158D01*
X171285027Y-119588807D01*
X171133560Y-119618936D01*
X171057827Y-119634000D01*
X170826173Y-119634000D01*
X170750440Y-119618936D01*
X170598973Y-119588807D01*
X170384955Y-119500158D01*
X170320751Y-119457258D01*
X170192346Y-119371461D01*
X170028539Y-119207654D01*
X169899843Y-119015046D01*
X169899842Y-119015045D01*
X169811193Y-118801027D01*
X169766000Y-118573826D01*
X169766000Y-118342174D01*
X169811193Y-118114973D01*
X169899842Y-117900955D01*
X169942742Y-117836751D01*
X170028539Y-117708346D01*
X170192346Y-117544539D01*
X170384954Y-117415843D01*
X170384955Y-117415842D01*
X170598973Y-117327193D01*
X170750440Y-117297064D01*
X170826173Y-117282000D01*
X171057827Y-117282000D01*
X171133560Y-117297064D01*
G37*
G36*
X184595560Y-117297064D02*
G01*
X184747027Y-117327193D01*
X184961045Y-117415842D01*
X184961046Y-117415843D01*
X185153654Y-117544539D01*
X185317461Y-117708346D01*
X185403258Y-117836751D01*
X185446158Y-117900955D01*
X185534807Y-118114973D01*
X185580000Y-118342174D01*
X185580000Y-118573826D01*
X185534807Y-118801027D01*
X185446158Y-119015045D01*
X185446157Y-119015046D01*
X185317461Y-119207654D01*
X185153654Y-119371461D01*
X185025249Y-119457258D01*
X184961045Y-119500158D01*
X184747027Y-119588807D01*
X184595560Y-119618936D01*
X184519827Y-119634000D01*
X184288173Y-119634000D01*
X184212440Y-119618936D01*
X184060973Y-119588807D01*
X183846955Y-119500158D01*
X183782751Y-119457258D01*
X183654346Y-119371461D01*
X183490539Y-119207654D01*
X183361843Y-119015046D01*
X183361842Y-119015045D01*
X183273193Y-118801027D01*
X183228000Y-118573826D01*
X183228000Y-118342174D01*
X183273193Y-118114973D01*
X183361842Y-117900955D01*
X183404742Y-117836751D01*
X183490539Y-117708346D01*
X183654346Y-117544539D01*
X183846954Y-117415843D01*
X183846955Y-117415842D01*
X184060973Y-117327193D01*
X184212440Y-117297064D01*
X184288173Y-117282000D01*
X184519827Y-117282000D01*
X184595560Y-117297064D01*
G37*
G36*
X130747560Y-117297064D02*
G01*
X130899027Y-117327193D01*
X131113045Y-117415842D01*
X131113046Y-117415843D01*
X131305654Y-117544539D01*
X131469461Y-117708346D01*
X131555258Y-117836751D01*
X131598158Y-117900955D01*
X131686807Y-118114973D01*
X131732000Y-118342174D01*
X131732000Y-118573826D01*
X131686807Y-118801027D01*
X131598158Y-119015045D01*
X131598157Y-119015046D01*
X131469461Y-119207654D01*
X131305654Y-119371461D01*
X131177249Y-119457258D01*
X131113045Y-119500158D01*
X130899027Y-119588807D01*
X130747560Y-119618936D01*
X130671827Y-119634000D01*
X130440173Y-119634000D01*
X130364440Y-119618936D01*
X130212973Y-119588807D01*
X129998955Y-119500158D01*
X129934751Y-119457258D01*
X129806346Y-119371461D01*
X129642539Y-119207654D01*
X129513843Y-119015046D01*
X129513842Y-119015045D01*
X129425193Y-118801027D01*
X129380000Y-118573826D01*
X129380000Y-118342174D01*
X129425193Y-118114973D01*
X129513842Y-117900955D01*
X129556742Y-117836751D01*
X129642539Y-117708346D01*
X129806346Y-117544539D01*
X129998954Y-117415843D01*
X129998955Y-117415842D01*
X130212973Y-117327193D01*
X130364440Y-117297064D01*
X130440173Y-117282000D01*
X130671827Y-117282000D01*
X130747560Y-117297064D01*
G37*
G36*
X117285560Y-117297064D02*
G01*
X117437027Y-117327193D01*
X117651045Y-117415842D01*
X117651046Y-117415843D01*
X117843654Y-117544539D01*
X118007461Y-117708346D01*
X118093258Y-117836751D01*
X118136158Y-117900955D01*
X118224807Y-118114973D01*
X118270000Y-118342174D01*
X118270000Y-118573826D01*
X118224807Y-118801027D01*
X118136158Y-119015045D01*
X118136157Y-119015046D01*
X118007461Y-119207654D01*
X117843654Y-119371461D01*
X117715249Y-119457258D01*
X117651045Y-119500158D01*
X117437027Y-119588807D01*
X117285560Y-119618936D01*
X117209827Y-119634000D01*
X116978173Y-119634000D01*
X116902440Y-119618936D01*
X116750973Y-119588807D01*
X116536955Y-119500158D01*
X116472751Y-119457258D01*
X116344346Y-119371461D01*
X116180539Y-119207654D01*
X116051843Y-119015046D01*
X116051842Y-119015045D01*
X115963193Y-118801027D01*
X115918000Y-118573826D01*
X115918000Y-118342174D01*
X115963193Y-118114973D01*
X116051842Y-117900955D01*
X116094742Y-117836751D01*
X116180539Y-117708346D01*
X116344346Y-117544539D01*
X116536954Y-117415843D01*
X116536955Y-117415842D01*
X116750973Y-117327193D01*
X116902440Y-117297064D01*
X116978173Y-117282000D01*
X117209827Y-117282000D01*
X117285560Y-117297064D01*
G37*
G36*
X130858585Y-112016802D02*
G01*
X131008410Y-112046604D01*
X131290674Y-112163521D01*
X131544705Y-112333259D01*
X131760741Y-112549295D01*
X131930479Y-112803326D01*
X132047396Y-113085590D01*
X132107000Y-113385240D01*
X132107000Y-113690760D01*
X132047396Y-113990410D01*
X131930479Y-114272674D01*
X131760741Y-114526705D01*
X131544705Y-114742741D01*
X131290674Y-114912479D01*
X131008410Y-115029396D01*
X130858585Y-115059198D01*
X130708761Y-115089000D01*
X130403239Y-115089000D01*
X130253415Y-115059198D01*
X130103590Y-115029396D01*
X129821326Y-114912479D01*
X129567295Y-114742741D01*
X129351259Y-114526705D01*
X129181521Y-114272674D01*
X129064604Y-113990410D01*
X129005000Y-113690760D01*
X129005000Y-113385240D01*
X129064604Y-113085590D01*
X129181521Y-112803326D01*
X129351259Y-112549295D01*
X129567295Y-112333259D01*
X129821326Y-112163521D01*
X130103590Y-112046604D01*
X130253415Y-112016802D01*
X130403239Y-111987000D01*
X130708761Y-111987000D01*
X130858585Y-112016802D01*
G37*
G36*
X117396585Y-112016802D02*
G01*
X117546410Y-112046604D01*
X117828674Y-112163521D01*
X118082705Y-112333259D01*
X118298741Y-112549295D01*
X118468479Y-112803326D01*
X118585396Y-113085590D01*
X118645000Y-113385240D01*
X118645000Y-113690760D01*
X118585396Y-113990410D01*
X118468479Y-114272674D01*
X118298741Y-114526705D01*
X118082705Y-114742741D01*
X117828674Y-114912479D01*
X117546410Y-115029396D01*
X117396585Y-115059198D01*
X117246761Y-115089000D01*
X116941239Y-115089000D01*
X116791415Y-115059198D01*
X116641590Y-115029396D01*
X116359326Y-114912479D01*
X116105295Y-114742741D01*
X115889259Y-114526705D01*
X115719521Y-114272674D01*
X115602604Y-113990410D01*
X115543000Y-113690760D01*
X115543000Y-113385240D01*
X115602604Y-113085590D01*
X115719521Y-112803326D01*
X115889259Y-112549295D01*
X116105295Y-112333259D01*
X116359326Y-112163521D01*
X116641590Y-112046604D01*
X116791415Y-112016802D01*
X116941239Y-111987000D01*
X117246761Y-111987000D01*
X117396585Y-112016802D01*
G37*
G36*
X157782585Y-112016802D02*
G01*
X157932410Y-112046604D01*
X158214674Y-112163521D01*
X158468705Y-112333259D01*
X158684741Y-112549295D01*
X158854479Y-112803326D01*
X158971396Y-113085590D01*
X159031000Y-113385240D01*
X159031000Y-113690760D01*
X158971396Y-113990410D01*
X158854479Y-114272674D01*
X158684741Y-114526705D01*
X158468705Y-114742741D01*
X158214674Y-114912479D01*
X157932410Y-115029396D01*
X157782585Y-115059198D01*
X157632761Y-115089000D01*
X157327239Y-115089000D01*
X157177415Y-115059198D01*
X157027590Y-115029396D01*
X156745326Y-114912479D01*
X156491295Y-114742741D01*
X156275259Y-114526705D01*
X156105521Y-114272674D01*
X155988604Y-113990410D01*
X155929000Y-113690760D01*
X155929000Y-113385240D01*
X155988604Y-113085590D01*
X156105521Y-112803326D01*
X156275259Y-112549295D01*
X156491295Y-112333259D01*
X156745326Y-112163521D01*
X157027590Y-112046604D01*
X157177415Y-112016802D01*
X157327239Y-111987000D01*
X157632761Y-111987000D01*
X157782585Y-112016802D01*
G37*
G36*
X171244585Y-112016802D02*
G01*
X171394410Y-112046604D01*
X171676674Y-112163521D01*
X171930705Y-112333259D01*
X172146741Y-112549295D01*
X172316479Y-112803326D01*
X172433396Y-113085590D01*
X172493000Y-113385240D01*
X172493000Y-113690760D01*
X172433396Y-113990410D01*
X172316479Y-114272674D01*
X172146741Y-114526705D01*
X171930705Y-114742741D01*
X171676674Y-114912479D01*
X171394410Y-115029396D01*
X171244585Y-115059198D01*
X171094761Y-115089000D01*
X170789239Y-115089000D01*
X170639415Y-115059198D01*
X170489590Y-115029396D01*
X170207326Y-114912479D01*
X169953295Y-114742741D01*
X169737259Y-114526705D01*
X169567521Y-114272674D01*
X169450604Y-113990410D01*
X169391000Y-113690760D01*
X169391000Y-113385240D01*
X169450604Y-113085590D01*
X169567521Y-112803326D01*
X169737259Y-112549295D01*
X169953295Y-112333259D01*
X170207326Y-112163521D01*
X170489590Y-112046604D01*
X170639415Y-112016802D01*
X170789239Y-111987000D01*
X171094761Y-111987000D01*
X171244585Y-112016802D01*
G37*
G36*
X184706585Y-112016802D02*
G01*
X184856410Y-112046604D01*
X185138674Y-112163521D01*
X185392705Y-112333259D01*
X185608741Y-112549295D01*
X185778479Y-112803326D01*
X185895396Y-113085590D01*
X185955000Y-113385240D01*
X185955000Y-113690760D01*
X185895396Y-113990410D01*
X185778479Y-114272674D01*
X185608741Y-114526705D01*
X185392705Y-114742741D01*
X185138674Y-114912479D01*
X184856410Y-115029396D01*
X184706585Y-115059198D01*
X184556761Y-115089000D01*
X184251239Y-115089000D01*
X184101415Y-115059198D01*
X183951590Y-115029396D01*
X183669326Y-114912479D01*
X183415295Y-114742741D01*
X183199259Y-114526705D01*
X183029521Y-114272674D01*
X182912604Y-113990410D01*
X182853000Y-113690760D01*
X182853000Y-113385240D01*
X182912604Y-113085590D01*
X183029521Y-112803326D01*
X183199259Y-112549295D01*
X183415295Y-112333259D01*
X183669326Y-112163521D01*
X183951590Y-112046604D01*
X184101415Y-112016802D01*
X184251239Y-111987000D01*
X184556761Y-111987000D01*
X184706585Y-112016802D01*
G37*
G36*
X144320585Y-112016802D02*
G01*
X144470410Y-112046604D01*
X144752674Y-112163521D01*
X145006705Y-112333259D01*
X145222741Y-112549295D01*
X145392479Y-112803326D01*
X145509396Y-113085590D01*
X145569000Y-113385240D01*
X145569000Y-113690760D01*
X145509396Y-113990410D01*
X145392479Y-114272674D01*
X145222741Y-114526705D01*
X145006705Y-114742741D01*
X144752674Y-114912479D01*
X144470410Y-115029396D01*
X144320585Y-115059198D01*
X144170761Y-115089000D01*
X143865239Y-115089000D01*
X143715415Y-115059198D01*
X143565590Y-115029396D01*
X143283326Y-114912479D01*
X143029295Y-114742741D01*
X142813259Y-114526705D01*
X142643521Y-114272674D01*
X142526604Y-113990410D01*
X142467000Y-113690760D01*
X142467000Y-113385240D01*
X142526604Y-113085590D01*
X142643521Y-112803326D01*
X142813259Y-112549295D01*
X143029295Y-112333259D01*
X143283326Y-112163521D01*
X143565590Y-112046604D01*
X143715415Y-112016802D01*
X143865239Y-111987000D01*
X144170761Y-111987000D01*
X144320585Y-112016802D01*
G37*
G36*
X144209560Y-108997064D02*
G01*
X144361027Y-109027193D01*
X144575045Y-109115842D01*
X144575046Y-109115843D01*
X144767654Y-109244539D01*
X144931461Y-109408346D01*
X145017258Y-109536751D01*
X145060158Y-109600955D01*
X145148807Y-109814973D01*
X145194000Y-110042174D01*
X145194000Y-110273826D01*
X145148807Y-110501027D01*
X145060158Y-110715045D01*
X145060157Y-110715046D01*
X144931461Y-110907654D01*
X144767654Y-111071461D01*
X144639249Y-111157258D01*
X144575045Y-111200158D01*
X144361027Y-111288807D01*
X144209560Y-111318936D01*
X144133827Y-111334000D01*
X143902173Y-111334000D01*
X143826440Y-111318936D01*
X143674973Y-111288807D01*
X143460955Y-111200158D01*
X143396751Y-111157258D01*
X143268346Y-111071461D01*
X143104539Y-110907654D01*
X142975843Y-110715046D01*
X142975842Y-110715045D01*
X142887193Y-110501027D01*
X142842000Y-110273826D01*
X142842000Y-110042174D01*
X142887193Y-109814973D01*
X142975842Y-109600955D01*
X143018742Y-109536751D01*
X143104539Y-109408346D01*
X143268346Y-109244539D01*
X143460954Y-109115843D01*
X143460955Y-109115842D01*
X143674973Y-109027193D01*
X143826440Y-108997064D01*
X143902173Y-108982000D01*
X144133827Y-108982000D01*
X144209560Y-108997064D01*
G37*
G36*
X117285560Y-108997064D02*
G01*
X117437027Y-109027193D01*
X117651045Y-109115842D01*
X117651046Y-109115843D01*
X117843654Y-109244539D01*
X118007461Y-109408346D01*
X118093258Y-109536751D01*
X118136158Y-109600955D01*
X118224807Y-109814973D01*
X118270000Y-110042174D01*
X118270000Y-110273826D01*
X118224807Y-110501027D01*
X118136158Y-110715045D01*
X118136157Y-110715046D01*
X118007461Y-110907654D01*
X117843654Y-111071461D01*
X117715249Y-111157258D01*
X117651045Y-111200158D01*
X117437027Y-111288807D01*
X117285560Y-111318936D01*
X117209827Y-111334000D01*
X116978173Y-111334000D01*
X116902440Y-111318936D01*
X116750973Y-111288807D01*
X116536955Y-111200158D01*
X116472751Y-111157258D01*
X116344346Y-111071461D01*
X116180539Y-110907654D01*
X116051843Y-110715046D01*
X116051842Y-110715045D01*
X115963193Y-110501027D01*
X115918000Y-110273826D01*
X115918000Y-110042174D01*
X115963193Y-109814973D01*
X116051842Y-109600955D01*
X116094742Y-109536751D01*
X116180539Y-109408346D01*
X116344346Y-109244539D01*
X116536954Y-109115843D01*
X116536955Y-109115842D01*
X116750973Y-109027193D01*
X116902440Y-108997064D01*
X116978173Y-108982000D01*
X117209827Y-108982000D01*
X117285560Y-108997064D01*
G37*
G36*
X184595560Y-108997064D02*
G01*
X184747027Y-109027193D01*
X184961045Y-109115842D01*
X184961046Y-109115843D01*
X185153654Y-109244539D01*
X185317461Y-109408346D01*
X185403258Y-109536751D01*
X185446158Y-109600955D01*
X185534807Y-109814973D01*
X185580000Y-110042174D01*
X185580000Y-110273826D01*
X185534807Y-110501027D01*
X185446158Y-110715045D01*
X185446157Y-110715046D01*
X185317461Y-110907654D01*
X185153654Y-111071461D01*
X185025249Y-111157258D01*
X184961045Y-111200158D01*
X184747027Y-111288807D01*
X184595560Y-111318936D01*
X184519827Y-111334000D01*
X184288173Y-111334000D01*
X184212440Y-111318936D01*
X184060973Y-111288807D01*
X183846955Y-111200158D01*
X183782751Y-111157258D01*
X183654346Y-111071461D01*
X183490539Y-110907654D01*
X183361843Y-110715046D01*
X183361842Y-110715045D01*
X183273193Y-110501027D01*
X183228000Y-110273826D01*
X183228000Y-110042174D01*
X183273193Y-109814973D01*
X183361842Y-109600955D01*
X183404742Y-109536751D01*
X183490539Y-109408346D01*
X183654346Y-109244539D01*
X183846954Y-109115843D01*
X183846955Y-109115842D01*
X184060973Y-109027193D01*
X184212440Y-108997064D01*
X184288173Y-108982000D01*
X184519827Y-108982000D01*
X184595560Y-108997064D01*
G37*
G36*
X157671560Y-108997064D02*
G01*
X157823027Y-109027193D01*
X158037045Y-109115842D01*
X158037046Y-109115843D01*
X158229654Y-109244539D01*
X158393461Y-109408346D01*
X158479258Y-109536751D01*
X158522158Y-109600955D01*
X158610807Y-109814973D01*
X158656000Y-110042174D01*
X158656000Y-110273826D01*
X158610807Y-110501027D01*
X158522158Y-110715045D01*
X158522157Y-110715046D01*
X158393461Y-110907654D01*
X158229654Y-111071461D01*
X158101249Y-111157258D01*
X158037045Y-111200158D01*
X157823027Y-111288807D01*
X157671560Y-111318936D01*
X157595827Y-111334000D01*
X157364173Y-111334000D01*
X157288440Y-111318936D01*
X157136973Y-111288807D01*
X156922955Y-111200158D01*
X156858751Y-111157258D01*
X156730346Y-111071461D01*
X156566539Y-110907654D01*
X156437843Y-110715046D01*
X156437842Y-110715045D01*
X156349193Y-110501027D01*
X156304000Y-110273826D01*
X156304000Y-110042174D01*
X156349193Y-109814973D01*
X156437842Y-109600955D01*
X156480742Y-109536751D01*
X156566539Y-109408346D01*
X156730346Y-109244539D01*
X156922954Y-109115843D01*
X156922955Y-109115842D01*
X157136973Y-109027193D01*
X157288440Y-108997064D01*
X157364173Y-108982000D01*
X157595827Y-108982000D01*
X157671560Y-108997064D01*
G37*
G36*
X130747560Y-108997064D02*
G01*
X130899027Y-109027193D01*
X131113045Y-109115842D01*
X131113046Y-109115843D01*
X131305654Y-109244539D01*
X131469461Y-109408346D01*
X131555258Y-109536751D01*
X131598158Y-109600955D01*
X131686807Y-109814973D01*
X131732000Y-110042174D01*
X131732000Y-110273826D01*
X131686807Y-110501027D01*
X131598158Y-110715045D01*
X131598157Y-110715046D01*
X131469461Y-110907654D01*
X131305654Y-111071461D01*
X131177249Y-111157258D01*
X131113045Y-111200158D01*
X130899027Y-111288807D01*
X130747560Y-111318936D01*
X130671827Y-111334000D01*
X130440173Y-111334000D01*
X130364440Y-111318936D01*
X130212973Y-111288807D01*
X129998955Y-111200158D01*
X129934751Y-111157258D01*
X129806346Y-111071461D01*
X129642539Y-110907654D01*
X129513843Y-110715046D01*
X129513842Y-110715045D01*
X129425193Y-110501027D01*
X129380000Y-110273826D01*
X129380000Y-110042174D01*
X129425193Y-109814973D01*
X129513842Y-109600955D01*
X129556742Y-109536751D01*
X129642539Y-109408346D01*
X129806346Y-109244539D01*
X129998954Y-109115843D01*
X129998955Y-109115842D01*
X130212973Y-109027193D01*
X130364440Y-108997064D01*
X130440173Y-108982000D01*
X130671827Y-108982000D01*
X130747560Y-108997064D01*
G37*
G36*
X171133560Y-108997064D02*
G01*
X171285027Y-109027193D01*
X171499045Y-109115842D01*
X171499046Y-109115843D01*
X171691654Y-109244539D01*
X171855461Y-109408346D01*
X171941258Y-109536751D01*
X171984158Y-109600955D01*
X172072807Y-109814973D01*
X172118000Y-110042174D01*
X172118000Y-110273826D01*
X172072807Y-110501027D01*
X171984158Y-110715045D01*
X171984157Y-110715046D01*
X171855461Y-110907654D01*
X171691654Y-111071461D01*
X171563249Y-111157258D01*
X171499045Y-111200158D01*
X171285027Y-111288807D01*
X171133560Y-111318936D01*
X171057827Y-111334000D01*
X170826173Y-111334000D01*
X170750440Y-111318936D01*
X170598973Y-111288807D01*
X170384955Y-111200158D01*
X170320751Y-111157258D01*
X170192346Y-111071461D01*
X170028539Y-110907654D01*
X169899843Y-110715046D01*
X169899842Y-110715045D01*
X169811193Y-110501027D01*
X169766000Y-110273826D01*
X169766000Y-110042174D01*
X169811193Y-109814973D01*
X169899842Y-109600955D01*
X169942742Y-109536751D01*
X170028539Y-109408346D01*
X170192346Y-109244539D01*
X170384954Y-109115843D01*
X170384955Y-109115842D01*
X170598973Y-109027193D01*
X170750440Y-108997064D01*
X170826173Y-108982000D01*
X171057827Y-108982000D01*
X171133560Y-108997064D01*
G37*
G36*
X171133560Y-105897064D02*
G01*
X171285027Y-105927193D01*
X171499045Y-106015842D01*
X171499046Y-106015843D01*
X171691654Y-106144539D01*
X171855461Y-106308346D01*
X171941258Y-106436751D01*
X171984158Y-106500955D01*
X172072807Y-106714973D01*
X172118000Y-106942174D01*
X172118000Y-107173826D01*
X172072807Y-107401027D01*
X171984158Y-107615045D01*
X171984157Y-107615046D01*
X171855461Y-107807654D01*
X171691654Y-107971461D01*
X171563249Y-108057258D01*
X171499045Y-108100158D01*
X171285027Y-108188807D01*
X171133560Y-108218936D01*
X171057827Y-108234000D01*
X170826173Y-108234000D01*
X170750440Y-108218936D01*
X170598973Y-108188807D01*
X170384955Y-108100158D01*
X170320751Y-108057258D01*
X170192346Y-107971461D01*
X170028539Y-107807654D01*
X169899843Y-107615046D01*
X169899842Y-107615045D01*
X169811193Y-107401027D01*
X169766000Y-107173826D01*
X169766000Y-106942174D01*
X169811193Y-106714973D01*
X169899842Y-106500955D01*
X169942742Y-106436751D01*
X170028539Y-106308346D01*
X170192346Y-106144539D01*
X170384954Y-106015843D01*
X170384955Y-106015842D01*
X170598973Y-105927193D01*
X170750440Y-105897064D01*
X170826173Y-105882000D01*
X171057827Y-105882000D01*
X171133560Y-105897064D01*
G37*
G36*
X157671560Y-105897064D02*
G01*
X157823027Y-105927193D01*
X158037045Y-106015842D01*
X158037046Y-106015843D01*
X158229654Y-106144539D01*
X158393461Y-106308346D01*
X158479258Y-106436751D01*
X158522158Y-106500955D01*
X158610807Y-106714973D01*
X158656000Y-106942174D01*
X158656000Y-107173826D01*
X158610807Y-107401027D01*
X158522158Y-107615045D01*
X158522157Y-107615046D01*
X158393461Y-107807654D01*
X158229654Y-107971461D01*
X158101249Y-108057258D01*
X158037045Y-108100158D01*
X157823027Y-108188807D01*
X157671560Y-108218936D01*
X157595827Y-108234000D01*
X157364173Y-108234000D01*
X157288440Y-108218936D01*
X157136973Y-108188807D01*
X156922955Y-108100158D01*
X156858751Y-108057258D01*
X156730346Y-107971461D01*
X156566539Y-107807654D01*
X156437843Y-107615046D01*
X156437842Y-107615045D01*
X156349193Y-107401027D01*
X156304000Y-107173826D01*
X156304000Y-106942174D01*
X156349193Y-106714973D01*
X156437842Y-106500955D01*
X156480742Y-106436751D01*
X156566539Y-106308346D01*
X156730346Y-106144539D01*
X156922954Y-106015843D01*
X156922955Y-106015842D01*
X157136973Y-105927193D01*
X157288440Y-105897064D01*
X157364173Y-105882000D01*
X157595827Y-105882000D01*
X157671560Y-105897064D01*
G37*
G36*
X144209560Y-105897064D02*
G01*
X144361027Y-105927193D01*
X144575045Y-106015842D01*
X144575046Y-106015843D01*
X144767654Y-106144539D01*
X144931461Y-106308346D01*
X145017258Y-106436751D01*
X145060158Y-106500955D01*
X145148807Y-106714973D01*
X145194000Y-106942174D01*
X145194000Y-107173826D01*
X145148807Y-107401027D01*
X145060158Y-107615045D01*
X145060157Y-107615046D01*
X144931461Y-107807654D01*
X144767654Y-107971461D01*
X144639249Y-108057258D01*
X144575045Y-108100158D01*
X144361027Y-108188807D01*
X144209560Y-108218936D01*
X144133827Y-108234000D01*
X143902173Y-108234000D01*
X143826440Y-108218936D01*
X143674973Y-108188807D01*
X143460955Y-108100158D01*
X143396751Y-108057258D01*
X143268346Y-107971461D01*
X143104539Y-107807654D01*
X142975843Y-107615046D01*
X142975842Y-107615045D01*
X142887193Y-107401027D01*
X142842000Y-107173826D01*
X142842000Y-106942174D01*
X142887193Y-106714973D01*
X142975842Y-106500955D01*
X143018742Y-106436751D01*
X143104539Y-106308346D01*
X143268346Y-106144539D01*
X143460954Y-106015843D01*
X143460955Y-106015842D01*
X143674973Y-105927193D01*
X143826440Y-105897064D01*
X143902173Y-105882000D01*
X144133827Y-105882000D01*
X144209560Y-105897064D01*
G37*
G36*
X130747560Y-105897064D02*
G01*
X130899027Y-105927193D01*
X131113045Y-106015842D01*
X131113046Y-106015843D01*
X131305654Y-106144539D01*
X131469461Y-106308346D01*
X131555258Y-106436751D01*
X131598158Y-106500955D01*
X131686807Y-106714973D01*
X131732000Y-106942174D01*
X131732000Y-107173826D01*
X131686807Y-107401027D01*
X131598158Y-107615045D01*
X131598157Y-107615046D01*
X131469461Y-107807654D01*
X131305654Y-107971461D01*
X131177249Y-108057258D01*
X131113045Y-108100158D01*
X130899027Y-108188807D01*
X130747560Y-108218936D01*
X130671827Y-108234000D01*
X130440173Y-108234000D01*
X130364440Y-108218936D01*
X130212973Y-108188807D01*
X129998955Y-108100158D01*
X129934751Y-108057258D01*
X129806346Y-107971461D01*
X129642539Y-107807654D01*
X129513843Y-107615046D01*
X129513842Y-107615045D01*
X129425193Y-107401027D01*
X129380000Y-107173826D01*
X129380000Y-106942174D01*
X129425193Y-106714973D01*
X129513842Y-106500955D01*
X129556742Y-106436751D01*
X129642539Y-106308346D01*
X129806346Y-106144539D01*
X129998954Y-106015843D01*
X129998955Y-106015842D01*
X130212973Y-105927193D01*
X130364440Y-105897064D01*
X130440173Y-105882000D01*
X130671827Y-105882000D01*
X130747560Y-105897064D01*
G37*
G36*
X117285560Y-105897064D02*
G01*
X117437027Y-105927193D01*
X117651045Y-106015842D01*
X117651046Y-106015843D01*
X117843654Y-106144539D01*
X118007461Y-106308346D01*
X118093258Y-106436751D01*
X118136158Y-106500955D01*
X118224807Y-106714973D01*
X118270000Y-106942174D01*
X118270000Y-107173826D01*
X118224807Y-107401027D01*
X118136158Y-107615045D01*
X118136157Y-107615046D01*
X118007461Y-107807654D01*
X117843654Y-107971461D01*
X117715249Y-108057258D01*
X117651045Y-108100158D01*
X117437027Y-108188807D01*
X117285560Y-108218936D01*
X117209827Y-108234000D01*
X116978173Y-108234000D01*
X116902440Y-108218936D01*
X116750973Y-108188807D01*
X116536955Y-108100158D01*
X116472751Y-108057258D01*
X116344346Y-107971461D01*
X116180539Y-107807654D01*
X116051843Y-107615046D01*
X116051842Y-107615045D01*
X115963193Y-107401027D01*
X115918000Y-107173826D01*
X115918000Y-106942174D01*
X115963193Y-106714973D01*
X116051842Y-106500955D01*
X116094742Y-106436751D01*
X116180539Y-106308346D01*
X116344346Y-106144539D01*
X116536954Y-106015843D01*
X116536955Y-106015842D01*
X116750973Y-105927193D01*
X116902440Y-105897064D01*
X116978173Y-105882000D01*
X117209827Y-105882000D01*
X117285560Y-105897064D01*
G37*
G36*
X184595560Y-105897064D02*
G01*
X184747027Y-105927193D01*
X184961045Y-106015842D01*
X184961046Y-106015843D01*
X185153654Y-106144539D01*
X185317461Y-106308346D01*
X185403258Y-106436751D01*
X185446158Y-106500955D01*
X185534807Y-106714973D01*
X185580000Y-106942174D01*
X185580000Y-107173826D01*
X185534807Y-107401027D01*
X185446158Y-107615045D01*
X185446157Y-107615046D01*
X185317461Y-107807654D01*
X185153654Y-107971461D01*
X185025249Y-108057258D01*
X184961045Y-108100158D01*
X184747027Y-108188807D01*
X184595560Y-108218936D01*
X184519827Y-108234000D01*
X184288173Y-108234000D01*
X184212440Y-108218936D01*
X184060973Y-108188807D01*
X183846955Y-108100158D01*
X183782751Y-108057258D01*
X183654346Y-107971461D01*
X183490539Y-107807654D01*
X183361843Y-107615046D01*
X183361842Y-107615045D01*
X183273193Y-107401027D01*
X183228000Y-107173826D01*
X183228000Y-106942174D01*
X183273193Y-106714973D01*
X183361842Y-106500955D01*
X183404742Y-106436751D01*
X183490539Y-106308346D01*
X183654346Y-106144539D01*
X183846954Y-106015843D01*
X183846955Y-106015842D01*
X184060973Y-105927193D01*
X184212440Y-105897064D01*
X184288173Y-105882000D01*
X184519827Y-105882000D01*
X184595560Y-105897064D01*
G37*
G36*
X171387560Y-102057064D02*
G01*
X171539027Y-102087193D01*
X171753045Y-102175842D01*
X171753046Y-102175843D01*
X171945654Y-102304539D01*
X172109461Y-102468346D01*
X172195258Y-102596751D01*
X172238158Y-102660955D01*
X172326807Y-102874973D01*
X172372000Y-103102174D01*
X172372000Y-103333826D01*
X172326807Y-103561027D01*
X172238158Y-103775045D01*
X172238157Y-103775046D01*
X172109461Y-103967654D01*
X171945654Y-104131461D01*
X171817249Y-104217258D01*
X171753045Y-104260158D01*
X171539027Y-104348807D01*
X171387560Y-104378936D01*
X171311827Y-104394000D01*
X171080173Y-104394000D01*
X171004440Y-104378936D01*
X170852973Y-104348807D01*
X170638955Y-104260158D01*
X170574751Y-104217258D01*
X170446346Y-104131461D01*
X170282539Y-103967654D01*
X170153843Y-103775046D01*
X170153842Y-103775045D01*
X170065193Y-103561027D01*
X170020000Y-103333826D01*
X170020000Y-103102174D01*
X170065193Y-102874973D01*
X170153842Y-102660955D01*
X170196742Y-102596751D01*
X170282539Y-102468346D01*
X170446346Y-102304539D01*
X170638954Y-102175843D01*
X170638955Y-102175842D01*
X170852973Y-102087193D01*
X171004440Y-102057064D01*
X171080173Y-102042000D01*
X171311827Y-102042000D01*
X171387560Y-102057064D01*
G37*
G36*
X184595560Y-102057064D02*
G01*
X184747027Y-102087193D01*
X184961045Y-102175842D01*
X184961046Y-102175843D01*
X185153654Y-102304539D01*
X185317461Y-102468346D01*
X185403258Y-102596751D01*
X185446158Y-102660955D01*
X185534807Y-102874973D01*
X185580000Y-103102174D01*
X185580000Y-103333826D01*
X185534807Y-103561027D01*
X185446158Y-103775045D01*
X185446157Y-103775046D01*
X185317461Y-103967654D01*
X185153654Y-104131461D01*
X185025249Y-104217258D01*
X184961045Y-104260158D01*
X184747027Y-104348807D01*
X184595560Y-104378936D01*
X184519827Y-104394000D01*
X184288173Y-104394000D01*
X184212440Y-104378936D01*
X184060973Y-104348807D01*
X183846955Y-104260158D01*
X183782751Y-104217258D01*
X183654346Y-104131461D01*
X183490539Y-103967654D01*
X183361843Y-103775046D01*
X183361842Y-103775045D01*
X183273193Y-103561027D01*
X183228000Y-103333826D01*
X183228000Y-103102174D01*
X183273193Y-102874973D01*
X183361842Y-102660955D01*
X183404742Y-102596751D01*
X183490539Y-102468346D01*
X183654346Y-102304539D01*
X183846954Y-102175843D01*
X183846955Y-102175842D01*
X184060973Y-102087193D01*
X184212440Y-102057064D01*
X184288173Y-102042000D01*
X184519827Y-102042000D01*
X184595560Y-102057064D01*
G37*
G36*
X117285560Y-102057064D02*
G01*
X117437027Y-102087193D01*
X117651045Y-102175842D01*
X117651046Y-102175843D01*
X117843654Y-102304539D01*
X118007461Y-102468346D01*
X118093258Y-102596751D01*
X118136158Y-102660955D01*
X118224807Y-102874973D01*
X118270000Y-103102174D01*
X118270000Y-103333826D01*
X118224807Y-103561027D01*
X118136158Y-103775045D01*
X118136157Y-103775046D01*
X118007461Y-103967654D01*
X117843654Y-104131461D01*
X117715249Y-104217258D01*
X117651045Y-104260158D01*
X117437027Y-104348807D01*
X117285560Y-104378936D01*
X117209827Y-104394000D01*
X116978173Y-104394000D01*
X116902440Y-104378936D01*
X116750973Y-104348807D01*
X116536955Y-104260158D01*
X116472751Y-104217258D01*
X116344346Y-104131461D01*
X116180539Y-103967654D01*
X116051843Y-103775046D01*
X116051842Y-103775045D01*
X115963193Y-103561027D01*
X115918000Y-103333826D01*
X115918000Y-103102174D01*
X115963193Y-102874973D01*
X116051842Y-102660955D01*
X116094742Y-102596751D01*
X116180539Y-102468346D01*
X116344346Y-102304539D01*
X116536954Y-102175843D01*
X116536955Y-102175842D01*
X116750973Y-102087193D01*
X116902440Y-102057064D01*
X116978173Y-102042000D01*
X117209827Y-102042000D01*
X117285560Y-102057064D01*
G37*
G36*
X130747560Y-102057064D02*
G01*
X130899027Y-102087193D01*
X131113045Y-102175842D01*
X131113046Y-102175843D01*
X131305654Y-102304539D01*
X131469461Y-102468346D01*
X131555258Y-102596751D01*
X131598158Y-102660955D01*
X131686807Y-102874973D01*
X131732000Y-103102174D01*
X131732000Y-103333826D01*
X131686807Y-103561027D01*
X131598158Y-103775045D01*
X131598157Y-103775046D01*
X131469461Y-103967654D01*
X131305654Y-104131461D01*
X131177249Y-104217258D01*
X131113045Y-104260158D01*
X130899027Y-104348807D01*
X130747560Y-104378936D01*
X130671827Y-104394000D01*
X130440173Y-104394000D01*
X130364440Y-104378936D01*
X130212973Y-104348807D01*
X129998955Y-104260158D01*
X129934751Y-104217258D01*
X129806346Y-104131461D01*
X129642539Y-103967654D01*
X129513843Y-103775046D01*
X129513842Y-103775045D01*
X129425193Y-103561027D01*
X129380000Y-103333826D01*
X129380000Y-103102174D01*
X129425193Y-102874973D01*
X129513842Y-102660955D01*
X129556742Y-102596751D01*
X129642539Y-102468346D01*
X129806346Y-102304539D01*
X129998954Y-102175843D01*
X129998955Y-102175842D01*
X130212973Y-102087193D01*
X130364440Y-102057064D01*
X130440173Y-102042000D01*
X130671827Y-102042000D01*
X130747560Y-102057064D01*
G37*
G36*
X144209560Y-102057064D02*
G01*
X144361027Y-102087193D01*
X144575045Y-102175842D01*
X144575046Y-102175843D01*
X144767654Y-102304539D01*
X144931461Y-102468346D01*
X145017258Y-102596751D01*
X145060158Y-102660955D01*
X145148807Y-102874973D01*
X145194000Y-103102174D01*
X145194000Y-103333826D01*
X145148807Y-103561027D01*
X145060158Y-103775045D01*
X145060157Y-103775046D01*
X144931461Y-103967654D01*
X144767654Y-104131461D01*
X144639249Y-104217258D01*
X144575045Y-104260158D01*
X144361027Y-104348807D01*
X144209560Y-104378936D01*
X144133827Y-104394000D01*
X143902173Y-104394000D01*
X143826440Y-104378936D01*
X143674973Y-104348807D01*
X143460955Y-104260158D01*
X143396751Y-104217258D01*
X143268346Y-104131461D01*
X143104539Y-103967654D01*
X142975843Y-103775046D01*
X142975842Y-103775045D01*
X142887193Y-103561027D01*
X142842000Y-103333826D01*
X142842000Y-103102174D01*
X142887193Y-102874973D01*
X142975842Y-102660955D01*
X143018742Y-102596751D01*
X143104539Y-102468346D01*
X143268346Y-102304539D01*
X143460954Y-102175843D01*
X143460955Y-102175842D01*
X143674973Y-102087193D01*
X143826440Y-102057064D01*
X143902173Y-102042000D01*
X144133827Y-102042000D01*
X144209560Y-102057064D01*
G37*
G36*
X157671560Y-102057064D02*
G01*
X157823027Y-102087193D01*
X158037045Y-102175842D01*
X158037046Y-102175843D01*
X158229654Y-102304539D01*
X158393461Y-102468346D01*
X158479258Y-102596751D01*
X158522158Y-102660955D01*
X158610807Y-102874973D01*
X158656000Y-103102174D01*
X158656000Y-103333826D01*
X158610807Y-103561027D01*
X158522158Y-103775045D01*
X158522157Y-103775046D01*
X158393461Y-103967654D01*
X158229654Y-104131461D01*
X158101249Y-104217258D01*
X158037045Y-104260158D01*
X157823027Y-104348807D01*
X157671560Y-104378936D01*
X157595827Y-104394000D01*
X157364173Y-104394000D01*
X157288440Y-104378936D01*
X157136973Y-104348807D01*
X156922955Y-104260158D01*
X156858751Y-104217258D01*
X156730346Y-104131461D01*
X156566539Y-103967654D01*
X156437843Y-103775046D01*
X156437842Y-103775045D01*
X156349193Y-103561027D01*
X156304000Y-103333826D01*
X156304000Y-103102174D01*
X156349193Y-102874973D01*
X156437842Y-102660955D01*
X156480742Y-102596751D01*
X156566539Y-102468346D01*
X156730346Y-102304539D01*
X156922954Y-102175843D01*
X156922955Y-102175842D01*
X157136973Y-102087193D01*
X157288440Y-102057064D01*
X157364173Y-102042000D01*
X157595827Y-102042000D01*
X157671560Y-102057064D01*
G37*
G36*
X117396585Y-96776802D02*
G01*
X117546410Y-96806604D01*
X117828674Y-96923521D01*
X118082705Y-97093259D01*
X118298741Y-97309295D01*
X118468479Y-97563326D01*
X118585396Y-97845590D01*
X118645000Y-98145240D01*
X118645000Y-98450760D01*
X118585396Y-98750410D01*
X118468479Y-99032674D01*
X118298741Y-99286705D01*
X118082705Y-99502741D01*
X117828674Y-99672479D01*
X117546410Y-99789396D01*
X117396585Y-99819198D01*
X117246761Y-99849000D01*
X116941239Y-99849000D01*
X116791415Y-99819198D01*
X116641590Y-99789396D01*
X116359326Y-99672479D01*
X116105295Y-99502741D01*
X115889259Y-99286705D01*
X115719521Y-99032674D01*
X115602604Y-98750410D01*
X115543000Y-98450760D01*
X115543000Y-98145240D01*
X115602604Y-97845590D01*
X115719521Y-97563326D01*
X115889259Y-97309295D01*
X116105295Y-97093259D01*
X116359326Y-96923521D01*
X116641590Y-96806604D01*
X116791415Y-96776802D01*
X116941239Y-96747000D01*
X117246761Y-96747000D01*
X117396585Y-96776802D01*
G37*
G36*
X184706585Y-96776802D02*
G01*
X184856410Y-96806604D01*
X185138674Y-96923521D01*
X185392705Y-97093259D01*
X185608741Y-97309295D01*
X185778479Y-97563326D01*
X185895396Y-97845590D01*
X185955000Y-98145240D01*
X185955000Y-98450760D01*
X185895396Y-98750410D01*
X185778479Y-99032674D01*
X185608741Y-99286705D01*
X185392705Y-99502741D01*
X185138674Y-99672479D01*
X184856410Y-99789396D01*
X184706585Y-99819198D01*
X184556761Y-99849000D01*
X184251239Y-99849000D01*
X184101415Y-99819198D01*
X183951590Y-99789396D01*
X183669326Y-99672479D01*
X183415295Y-99502741D01*
X183199259Y-99286705D01*
X183029521Y-99032674D01*
X182912604Y-98750410D01*
X182853000Y-98450760D01*
X182853000Y-98145240D01*
X182912604Y-97845590D01*
X183029521Y-97563326D01*
X183199259Y-97309295D01*
X183415295Y-97093259D01*
X183669326Y-96923521D01*
X183951590Y-96806604D01*
X184101415Y-96776802D01*
X184251239Y-96747000D01*
X184556761Y-96747000D01*
X184706585Y-96776802D01*
G37*
G36*
X130858585Y-96776802D02*
G01*
X131008410Y-96806604D01*
X131290674Y-96923521D01*
X131544705Y-97093259D01*
X131760741Y-97309295D01*
X131930479Y-97563326D01*
X132047396Y-97845590D01*
X132107000Y-98145240D01*
X132107000Y-98450760D01*
X132047396Y-98750410D01*
X131930479Y-99032674D01*
X131760741Y-99286705D01*
X131544705Y-99502741D01*
X131290674Y-99672479D01*
X131008410Y-99789396D01*
X130858585Y-99819198D01*
X130708761Y-99849000D01*
X130403239Y-99849000D01*
X130253415Y-99819198D01*
X130103590Y-99789396D01*
X129821326Y-99672479D01*
X129567295Y-99502741D01*
X129351259Y-99286705D01*
X129181521Y-99032674D01*
X129064604Y-98750410D01*
X129005000Y-98450760D01*
X129005000Y-98145240D01*
X129064604Y-97845590D01*
X129181521Y-97563326D01*
X129351259Y-97309295D01*
X129567295Y-97093259D01*
X129821326Y-96923521D01*
X130103590Y-96806604D01*
X130253415Y-96776802D01*
X130403239Y-96747000D01*
X130708761Y-96747000D01*
X130858585Y-96776802D01*
G37*
G36*
X144320585Y-96776802D02*
G01*
X144470410Y-96806604D01*
X144752674Y-96923521D01*
X145006705Y-97093259D01*
X145222741Y-97309295D01*
X145392479Y-97563326D01*
X145509396Y-97845590D01*
X145569000Y-98145240D01*
X145569000Y-98450760D01*
X145509396Y-98750410D01*
X145392479Y-99032674D01*
X145222741Y-99286705D01*
X145006705Y-99502741D01*
X144752674Y-99672479D01*
X144470410Y-99789396D01*
X144320585Y-99819198D01*
X144170761Y-99849000D01*
X143865239Y-99849000D01*
X143715415Y-99819198D01*
X143565590Y-99789396D01*
X143283326Y-99672479D01*
X143029295Y-99502741D01*
X142813259Y-99286705D01*
X142643521Y-99032674D01*
X142526604Y-98750410D01*
X142467000Y-98450760D01*
X142467000Y-98145240D01*
X142526604Y-97845590D01*
X142643521Y-97563326D01*
X142813259Y-97309295D01*
X143029295Y-97093259D01*
X143283326Y-96923521D01*
X143565590Y-96806604D01*
X143715415Y-96776802D01*
X143865239Y-96747000D01*
X144170761Y-96747000D01*
X144320585Y-96776802D01*
G37*
G36*
X171498585Y-96776802D02*
G01*
X171648410Y-96806604D01*
X171930674Y-96923521D01*
X172184705Y-97093259D01*
X172400741Y-97309295D01*
X172570479Y-97563326D01*
X172687396Y-97845590D01*
X172747000Y-98145240D01*
X172747000Y-98450760D01*
X172687396Y-98750410D01*
X172570479Y-99032674D01*
X172400741Y-99286705D01*
X172184705Y-99502741D01*
X171930674Y-99672479D01*
X171648410Y-99789396D01*
X171498585Y-99819198D01*
X171348761Y-99849000D01*
X171043239Y-99849000D01*
X170893415Y-99819198D01*
X170743590Y-99789396D01*
X170461326Y-99672479D01*
X170207295Y-99502741D01*
X169991259Y-99286705D01*
X169821521Y-99032674D01*
X169704604Y-98750410D01*
X169645000Y-98450760D01*
X169645000Y-98145240D01*
X169704604Y-97845590D01*
X169821521Y-97563326D01*
X169991259Y-97309295D01*
X170207295Y-97093259D01*
X170461326Y-96923521D01*
X170743590Y-96806604D01*
X170893415Y-96776802D01*
X171043239Y-96747000D01*
X171348761Y-96747000D01*
X171498585Y-96776802D01*
G37*
G36*
X157782585Y-96776802D02*
G01*
X157932410Y-96806604D01*
X158214674Y-96923521D01*
X158468705Y-97093259D01*
X158684741Y-97309295D01*
X158854479Y-97563326D01*
X158971396Y-97845590D01*
X159031000Y-98145240D01*
X159031000Y-98450760D01*
X158971396Y-98750410D01*
X158854479Y-99032674D01*
X158684741Y-99286705D01*
X158468705Y-99502741D01*
X158214674Y-99672479D01*
X157932410Y-99789396D01*
X157782585Y-99819198D01*
X157632761Y-99849000D01*
X157327239Y-99849000D01*
X157177415Y-99819198D01*
X157027590Y-99789396D01*
X156745326Y-99672479D01*
X156491295Y-99502741D01*
X156275259Y-99286705D01*
X156105521Y-99032674D01*
X155988604Y-98750410D01*
X155929000Y-98450760D01*
X155929000Y-98145240D01*
X155988604Y-97845590D01*
X156105521Y-97563326D01*
X156275259Y-97309295D01*
X156491295Y-97093259D01*
X156745326Y-96923521D01*
X157027590Y-96806604D01*
X157177415Y-96776802D01*
X157327239Y-96747000D01*
X157632761Y-96747000D01*
X157782585Y-96776802D01*
G37*
G36*
X130747560Y-93757064D02*
G01*
X130899027Y-93787193D01*
X131113045Y-93875842D01*
X131113046Y-93875843D01*
X131305654Y-94004539D01*
X131469461Y-94168346D01*
X131555258Y-94296751D01*
X131598158Y-94360955D01*
X131686807Y-94574973D01*
X131732000Y-94802174D01*
X131732000Y-95033826D01*
X131686807Y-95261027D01*
X131598158Y-95475045D01*
X131598157Y-95475046D01*
X131469461Y-95667654D01*
X131305654Y-95831461D01*
X131177249Y-95917258D01*
X131113045Y-95960158D01*
X130899027Y-96048807D01*
X130747560Y-96078936D01*
X130671827Y-96094000D01*
X130440173Y-96094000D01*
X130364440Y-96078936D01*
X130212973Y-96048807D01*
X129998955Y-95960158D01*
X129934751Y-95917258D01*
X129806346Y-95831461D01*
X129642539Y-95667654D01*
X129513843Y-95475046D01*
X129513842Y-95475045D01*
X129425193Y-95261027D01*
X129380000Y-95033826D01*
X129380000Y-94802174D01*
X129425193Y-94574973D01*
X129513842Y-94360955D01*
X129556742Y-94296751D01*
X129642539Y-94168346D01*
X129806346Y-94004539D01*
X129998954Y-93875843D01*
X129998955Y-93875842D01*
X130212973Y-93787193D01*
X130364440Y-93757064D01*
X130440173Y-93742000D01*
X130671827Y-93742000D01*
X130747560Y-93757064D01*
G37*
G36*
X117285560Y-93757064D02*
G01*
X117437027Y-93787193D01*
X117651045Y-93875842D01*
X117651046Y-93875843D01*
X117843654Y-94004539D01*
X118007461Y-94168346D01*
X118093258Y-94296751D01*
X118136158Y-94360955D01*
X118224807Y-94574973D01*
X118270000Y-94802174D01*
X118270000Y-95033826D01*
X118224807Y-95261027D01*
X118136158Y-95475045D01*
X118136157Y-95475046D01*
X118007461Y-95667654D01*
X117843654Y-95831461D01*
X117715249Y-95917258D01*
X117651045Y-95960158D01*
X117437027Y-96048807D01*
X117285560Y-96078936D01*
X117209827Y-96094000D01*
X116978173Y-96094000D01*
X116902440Y-96078936D01*
X116750973Y-96048807D01*
X116536955Y-95960158D01*
X116472751Y-95917258D01*
X116344346Y-95831461D01*
X116180539Y-95667654D01*
X116051843Y-95475046D01*
X116051842Y-95475045D01*
X115963193Y-95261027D01*
X115918000Y-95033826D01*
X115918000Y-94802174D01*
X115963193Y-94574973D01*
X116051842Y-94360955D01*
X116094742Y-94296751D01*
X116180539Y-94168346D01*
X116344346Y-94004539D01*
X116536954Y-93875843D01*
X116536955Y-93875842D01*
X116750973Y-93787193D01*
X116902440Y-93757064D01*
X116978173Y-93742000D01*
X117209827Y-93742000D01*
X117285560Y-93757064D01*
G37*
G36*
X144209560Y-93757064D02*
G01*
X144361027Y-93787193D01*
X144575045Y-93875842D01*
X144575046Y-93875843D01*
X144767654Y-94004539D01*
X144931461Y-94168346D01*
X145017258Y-94296751D01*
X145060158Y-94360955D01*
X145148807Y-94574973D01*
X145194000Y-94802174D01*
X145194000Y-95033826D01*
X145148807Y-95261027D01*
X145060158Y-95475045D01*
X145060157Y-95475046D01*
X144931461Y-95667654D01*
X144767654Y-95831461D01*
X144639249Y-95917258D01*
X144575045Y-95960158D01*
X144361027Y-96048807D01*
X144209560Y-96078936D01*
X144133827Y-96094000D01*
X143902173Y-96094000D01*
X143826440Y-96078936D01*
X143674973Y-96048807D01*
X143460955Y-95960158D01*
X143396751Y-95917258D01*
X143268346Y-95831461D01*
X143104539Y-95667654D01*
X142975843Y-95475046D01*
X142975842Y-95475045D01*
X142887193Y-95261027D01*
X142842000Y-95033826D01*
X142842000Y-94802174D01*
X142887193Y-94574973D01*
X142975842Y-94360955D01*
X143018742Y-94296751D01*
X143104539Y-94168346D01*
X143268346Y-94004539D01*
X143460954Y-93875843D01*
X143460955Y-93875842D01*
X143674973Y-93787193D01*
X143826440Y-93757064D01*
X143902173Y-93742000D01*
X144133827Y-93742000D01*
X144209560Y-93757064D01*
G37*
G36*
X157671560Y-93757064D02*
G01*
X157823027Y-93787193D01*
X158037045Y-93875842D01*
X158037046Y-93875843D01*
X158229654Y-94004539D01*
X158393461Y-94168346D01*
X158479258Y-94296751D01*
X158522158Y-94360955D01*
X158610807Y-94574973D01*
X158656000Y-94802174D01*
X158656000Y-95033826D01*
X158610807Y-95261027D01*
X158522158Y-95475045D01*
X158522157Y-95475046D01*
X158393461Y-95667654D01*
X158229654Y-95831461D01*
X158101249Y-95917258D01*
X158037045Y-95960158D01*
X157823027Y-96048807D01*
X157671560Y-96078936D01*
X157595827Y-96094000D01*
X157364173Y-96094000D01*
X157288440Y-96078936D01*
X157136973Y-96048807D01*
X156922955Y-95960158D01*
X156858751Y-95917258D01*
X156730346Y-95831461D01*
X156566539Y-95667654D01*
X156437843Y-95475046D01*
X156437842Y-95475045D01*
X156349193Y-95261027D01*
X156304000Y-95033826D01*
X156304000Y-94802174D01*
X156349193Y-94574973D01*
X156437842Y-94360955D01*
X156480742Y-94296751D01*
X156566539Y-94168346D01*
X156730346Y-94004539D01*
X156922954Y-93875843D01*
X156922955Y-93875842D01*
X157136973Y-93787193D01*
X157288440Y-93757064D01*
X157364173Y-93742000D01*
X157595827Y-93742000D01*
X157671560Y-93757064D01*
G37*
G36*
X171387560Y-93757064D02*
G01*
X171539027Y-93787193D01*
X171753045Y-93875842D01*
X171753046Y-93875843D01*
X171945654Y-94004539D01*
X172109461Y-94168346D01*
X172195258Y-94296751D01*
X172238158Y-94360955D01*
X172326807Y-94574973D01*
X172372000Y-94802174D01*
X172372000Y-95033826D01*
X172326807Y-95261027D01*
X172238158Y-95475045D01*
X172238157Y-95475046D01*
X172109461Y-95667654D01*
X171945654Y-95831461D01*
X171817249Y-95917258D01*
X171753045Y-95960158D01*
X171539027Y-96048807D01*
X171387560Y-96078936D01*
X171311827Y-96094000D01*
X171080173Y-96094000D01*
X171004440Y-96078936D01*
X170852973Y-96048807D01*
X170638955Y-95960158D01*
X170574751Y-95917258D01*
X170446346Y-95831461D01*
X170282539Y-95667654D01*
X170153843Y-95475046D01*
X170153842Y-95475045D01*
X170065193Y-95261027D01*
X170020000Y-95033826D01*
X170020000Y-94802174D01*
X170065193Y-94574973D01*
X170153842Y-94360955D01*
X170196742Y-94296751D01*
X170282539Y-94168346D01*
X170446346Y-94004539D01*
X170638954Y-93875843D01*
X170638955Y-93875842D01*
X170852973Y-93787193D01*
X171004440Y-93757064D01*
X171080173Y-93742000D01*
X171311827Y-93742000D01*
X171387560Y-93757064D01*
G37*
G36*
X184595560Y-93757064D02*
G01*
X184747027Y-93787193D01*
X184961045Y-93875842D01*
X184961046Y-93875843D01*
X185153654Y-94004539D01*
X185317461Y-94168346D01*
X185403258Y-94296751D01*
X185446158Y-94360955D01*
X185534807Y-94574973D01*
X185580000Y-94802174D01*
X185580000Y-95033826D01*
X185534807Y-95261027D01*
X185446158Y-95475045D01*
X185446157Y-95475046D01*
X185317461Y-95667654D01*
X185153654Y-95831461D01*
X185025249Y-95917258D01*
X184961045Y-95960158D01*
X184747027Y-96048807D01*
X184595560Y-96078936D01*
X184519827Y-96094000D01*
X184288173Y-96094000D01*
X184212440Y-96078936D01*
X184060973Y-96048807D01*
X183846955Y-95960158D01*
X183782751Y-95917258D01*
X183654346Y-95831461D01*
X183490539Y-95667654D01*
X183361843Y-95475046D01*
X183361842Y-95475045D01*
X183273193Y-95261027D01*
X183228000Y-95033826D01*
X183228000Y-94802174D01*
X183273193Y-94574973D01*
X183361842Y-94360955D01*
X183404742Y-94296751D01*
X183490539Y-94168346D01*
X183654346Y-94004539D01*
X183846954Y-93875843D01*
X183846955Y-93875842D01*
X184060973Y-93787193D01*
X184212440Y-93757064D01*
X184288173Y-93742000D01*
X184519827Y-93742000D01*
X184595560Y-93757064D01*
G37*
G36*
X184595560Y-90657064D02*
G01*
X184747027Y-90687193D01*
X184961045Y-90775842D01*
X184961046Y-90775843D01*
X185153654Y-90904539D01*
X185317461Y-91068346D01*
X185403258Y-91196751D01*
X185446158Y-91260955D01*
X185534807Y-91474973D01*
X185580000Y-91702174D01*
X185580000Y-91933826D01*
X185534807Y-92161027D01*
X185446158Y-92375045D01*
X185446157Y-92375046D01*
X185317461Y-92567654D01*
X185153654Y-92731461D01*
X185025249Y-92817258D01*
X184961045Y-92860158D01*
X184747027Y-92948807D01*
X184595560Y-92978936D01*
X184519827Y-92994000D01*
X184288173Y-92994000D01*
X184212440Y-92978936D01*
X184060973Y-92948807D01*
X183846955Y-92860158D01*
X183782751Y-92817258D01*
X183654346Y-92731461D01*
X183490539Y-92567654D01*
X183361843Y-92375046D01*
X183361842Y-92375045D01*
X183273193Y-92161027D01*
X183228000Y-91933826D01*
X183228000Y-91702174D01*
X183273193Y-91474973D01*
X183361842Y-91260955D01*
X183404742Y-91196751D01*
X183490539Y-91068346D01*
X183654346Y-90904539D01*
X183846954Y-90775843D01*
X183846955Y-90775842D01*
X184060973Y-90687193D01*
X184212440Y-90657064D01*
X184288173Y-90642000D01*
X184519827Y-90642000D01*
X184595560Y-90657064D01*
G37*
G36*
X171387560Y-90657064D02*
G01*
X171539027Y-90687193D01*
X171753045Y-90775842D01*
X171753046Y-90775843D01*
X171945654Y-90904539D01*
X172109461Y-91068346D01*
X172195258Y-91196751D01*
X172238158Y-91260955D01*
X172326807Y-91474973D01*
X172372000Y-91702174D01*
X172372000Y-91933826D01*
X172326807Y-92161027D01*
X172238158Y-92375045D01*
X172238157Y-92375046D01*
X172109461Y-92567654D01*
X171945654Y-92731461D01*
X171817249Y-92817258D01*
X171753045Y-92860158D01*
X171539027Y-92948807D01*
X171387560Y-92978936D01*
X171311827Y-92994000D01*
X171080173Y-92994000D01*
X171004440Y-92978936D01*
X170852973Y-92948807D01*
X170638955Y-92860158D01*
X170574751Y-92817258D01*
X170446346Y-92731461D01*
X170282539Y-92567654D01*
X170153843Y-92375046D01*
X170153842Y-92375045D01*
X170065193Y-92161027D01*
X170020000Y-91933826D01*
X170020000Y-91702174D01*
X170065193Y-91474973D01*
X170153842Y-91260955D01*
X170196742Y-91196751D01*
X170282539Y-91068346D01*
X170446346Y-90904539D01*
X170638954Y-90775843D01*
X170638955Y-90775842D01*
X170852973Y-90687193D01*
X171004440Y-90657064D01*
X171080173Y-90642000D01*
X171311827Y-90642000D01*
X171387560Y-90657064D01*
G37*
G36*
X157671560Y-90657064D02*
G01*
X157823027Y-90687193D01*
X158037045Y-90775842D01*
X158037046Y-90775843D01*
X158229654Y-90904539D01*
X158393461Y-91068346D01*
X158479258Y-91196751D01*
X158522158Y-91260955D01*
X158610807Y-91474973D01*
X158656000Y-91702174D01*
X158656000Y-91933826D01*
X158610807Y-92161027D01*
X158522158Y-92375045D01*
X158522157Y-92375046D01*
X158393461Y-92567654D01*
X158229654Y-92731461D01*
X158101249Y-92817258D01*
X158037045Y-92860158D01*
X157823027Y-92948807D01*
X157671560Y-92978936D01*
X157595827Y-92994000D01*
X157364173Y-92994000D01*
X157288440Y-92978936D01*
X157136973Y-92948807D01*
X156922955Y-92860158D01*
X156858751Y-92817258D01*
X156730346Y-92731461D01*
X156566539Y-92567654D01*
X156437843Y-92375046D01*
X156437842Y-92375045D01*
X156349193Y-92161027D01*
X156304000Y-91933826D01*
X156304000Y-91702174D01*
X156349193Y-91474973D01*
X156437842Y-91260955D01*
X156480742Y-91196751D01*
X156566539Y-91068346D01*
X156730346Y-90904539D01*
X156922954Y-90775843D01*
X156922955Y-90775842D01*
X157136973Y-90687193D01*
X157288440Y-90657064D01*
X157364173Y-90642000D01*
X157595827Y-90642000D01*
X157671560Y-90657064D01*
G37*
G36*
X144209560Y-90657064D02*
G01*
X144361027Y-90687193D01*
X144575045Y-90775842D01*
X144575046Y-90775843D01*
X144767654Y-90904539D01*
X144931461Y-91068346D01*
X145017258Y-91196751D01*
X145060158Y-91260955D01*
X145148807Y-91474973D01*
X145194000Y-91702174D01*
X145194000Y-91933826D01*
X145148807Y-92161027D01*
X145060158Y-92375045D01*
X145060157Y-92375046D01*
X144931461Y-92567654D01*
X144767654Y-92731461D01*
X144639249Y-92817258D01*
X144575045Y-92860158D01*
X144361027Y-92948807D01*
X144209560Y-92978936D01*
X144133827Y-92994000D01*
X143902173Y-92994000D01*
X143826440Y-92978936D01*
X143674973Y-92948807D01*
X143460955Y-92860158D01*
X143396751Y-92817258D01*
X143268346Y-92731461D01*
X143104539Y-92567654D01*
X142975843Y-92375046D01*
X142975842Y-92375045D01*
X142887193Y-92161027D01*
X142842000Y-91933826D01*
X142842000Y-91702174D01*
X142887193Y-91474973D01*
X142975842Y-91260955D01*
X143018742Y-91196751D01*
X143104539Y-91068346D01*
X143268346Y-90904539D01*
X143460954Y-90775843D01*
X143460955Y-90775842D01*
X143674973Y-90687193D01*
X143826440Y-90657064D01*
X143902173Y-90642000D01*
X144133827Y-90642000D01*
X144209560Y-90657064D01*
G37*
G36*
X117285560Y-90657064D02*
G01*
X117437027Y-90687193D01*
X117651045Y-90775842D01*
X117651046Y-90775843D01*
X117843654Y-90904539D01*
X118007461Y-91068346D01*
X118093258Y-91196751D01*
X118136158Y-91260955D01*
X118224807Y-91474973D01*
X118270000Y-91702174D01*
X118270000Y-91933826D01*
X118224807Y-92161027D01*
X118136158Y-92375045D01*
X118136157Y-92375046D01*
X118007461Y-92567654D01*
X117843654Y-92731461D01*
X117715249Y-92817258D01*
X117651045Y-92860158D01*
X117437027Y-92948807D01*
X117285560Y-92978936D01*
X117209827Y-92994000D01*
X116978173Y-92994000D01*
X116902440Y-92978936D01*
X116750973Y-92948807D01*
X116536955Y-92860158D01*
X116472751Y-92817258D01*
X116344346Y-92731461D01*
X116180539Y-92567654D01*
X116051843Y-92375046D01*
X116051842Y-92375045D01*
X115963193Y-92161027D01*
X115918000Y-91933826D01*
X115918000Y-91702174D01*
X115963193Y-91474973D01*
X116051842Y-91260955D01*
X116094742Y-91196751D01*
X116180539Y-91068346D01*
X116344346Y-90904539D01*
X116536954Y-90775843D01*
X116536955Y-90775842D01*
X116750973Y-90687193D01*
X116902440Y-90657064D01*
X116978173Y-90642000D01*
X117209827Y-90642000D01*
X117285560Y-90657064D01*
G37*
G36*
X130747560Y-90657064D02*
G01*
X130899027Y-90687193D01*
X131113045Y-90775842D01*
X131113046Y-90775843D01*
X131305654Y-90904539D01*
X131469461Y-91068346D01*
X131555258Y-91196751D01*
X131598158Y-91260955D01*
X131686807Y-91474973D01*
X131732000Y-91702174D01*
X131732000Y-91933826D01*
X131686807Y-92161027D01*
X131598158Y-92375045D01*
X131598157Y-92375046D01*
X131469461Y-92567654D01*
X131305654Y-92731461D01*
X131177249Y-92817258D01*
X131113045Y-92860158D01*
X130899027Y-92948807D01*
X130747560Y-92978936D01*
X130671827Y-92994000D01*
X130440173Y-92994000D01*
X130364440Y-92978936D01*
X130212973Y-92948807D01*
X129998955Y-92860158D01*
X129934751Y-92817258D01*
X129806346Y-92731461D01*
X129642539Y-92567654D01*
X129513843Y-92375046D01*
X129513842Y-92375045D01*
X129425193Y-92161027D01*
X129380000Y-91933826D01*
X129380000Y-91702174D01*
X129425193Y-91474973D01*
X129513842Y-91260955D01*
X129556742Y-91196751D01*
X129642539Y-91068346D01*
X129806346Y-90904539D01*
X129998954Y-90775843D01*
X129998955Y-90775842D01*
X130212973Y-90687193D01*
X130364440Y-90657064D01*
X130440173Y-90642000D01*
X130671827Y-90642000D01*
X130747560Y-90657064D01*
G37*
G36*
X188327512Y-86225927D02*
G01*
X188476812Y-86255624D01*
X188640784Y-86323544D01*
X188788354Y-86422147D01*
X188913853Y-86547646D01*
X189012456Y-86695216D01*
X189080376Y-86859188D01*
X189115000Y-87033259D01*
X189115000Y-87210741D01*
X189080376Y-87384812D01*
X189012456Y-87548784D01*
X188913853Y-87696354D01*
X188788354Y-87821853D01*
X188640784Y-87920456D01*
X188476812Y-87988376D01*
X188327512Y-88018073D01*
X188302742Y-88023000D01*
X188125258Y-88023000D01*
X188100488Y-88018073D01*
X187951188Y-87988376D01*
X187787216Y-87920456D01*
X187639646Y-87821853D01*
X187514147Y-87696354D01*
X187415544Y-87548784D01*
X187347624Y-87384812D01*
X187313000Y-87210741D01*
X187313000Y-87033259D01*
X187347624Y-86859188D01*
X187415544Y-86695216D01*
X187514147Y-86547646D01*
X187639646Y-86422147D01*
X187787216Y-86323544D01*
X187951188Y-86255624D01*
X188100488Y-86225927D01*
X188125258Y-86221000D01*
X188302742Y-86221000D01*
X188327512Y-86225927D01*
G37*
G36*
X113397512Y-86225927D02*
G01*
X113546812Y-86255624D01*
X113710784Y-86323544D01*
X113858354Y-86422147D01*
X113983853Y-86547646D01*
X114082456Y-86695216D01*
X114150376Y-86859188D01*
X114185000Y-87033259D01*
X114185000Y-87210741D01*
X114150376Y-87384812D01*
X114082456Y-87548784D01*
X113983853Y-87696354D01*
X113858354Y-87821853D01*
X113710784Y-87920456D01*
X113546812Y-87988376D01*
X113397512Y-88018073D01*
X113372742Y-88023000D01*
X113195258Y-88023000D01*
X113170488Y-88018073D01*
X113021188Y-87988376D01*
X112857216Y-87920456D01*
X112709646Y-87821853D01*
X112584147Y-87696354D01*
X112485544Y-87548784D01*
X112417624Y-87384812D01*
X112383000Y-87210741D01*
X112383000Y-87033259D01*
X112417624Y-86859188D01*
X112485544Y-86695216D01*
X112584147Y-86547646D01*
X112709646Y-86422147D01*
X112857216Y-86323544D01*
X113021188Y-86255624D01*
X113170488Y-86225927D01*
X113195258Y-86221000D01*
X113372742Y-86221000D01*
X113397512Y-86225927D01*
G37*
G36*
X173734441Y-84885960D02*
G01*
X173998505Y-84995339D01*
X174236158Y-85154134D01*
X174438266Y-85356242D01*
X174597061Y-85593895D01*
X174706440Y-85857959D01*
X174762200Y-86138288D01*
X174762200Y-86424112D01*
X174706440Y-86704441D01*
X174597061Y-86968505D01*
X174438266Y-87206158D01*
X174236158Y-87408266D01*
X173998505Y-87567061D01*
X173734441Y-87676440D01*
X173454112Y-87732200D01*
X173168288Y-87732200D01*
X172887959Y-87676440D01*
X172623895Y-87567061D01*
X172386242Y-87408266D01*
X172184134Y-87206158D01*
X172025339Y-86968505D01*
X171915960Y-86704441D01*
X171860200Y-86424112D01*
X171860200Y-86138288D01*
X171915960Y-85857959D01*
X172025339Y-85593895D01*
X172184134Y-85356242D01*
X172386242Y-85154134D01*
X172623895Y-84995339D01*
X172887959Y-84885960D01*
X173168288Y-84830200D01*
X173454112Y-84830200D01*
X173734441Y-84885960D01*
G37*
G36*
X128268441Y-84885960D02*
G01*
X128532505Y-84995339D01*
X128770158Y-85154134D01*
X128972266Y-85356242D01*
X129131061Y-85593895D01*
X129240440Y-85857959D01*
X129296200Y-86138288D01*
X129296200Y-86424112D01*
X129240440Y-86704441D01*
X129131061Y-86968505D01*
X128972266Y-87206158D01*
X128770158Y-87408266D01*
X128532505Y-87567061D01*
X128268441Y-87676440D01*
X127988112Y-87732200D01*
X127702288Y-87732200D01*
X127421959Y-87676440D01*
X127157895Y-87567061D01*
X126920242Y-87408266D01*
X126718134Y-87206158D01*
X126559339Y-86968505D01*
X126449960Y-86704441D01*
X126394200Y-86424112D01*
X126394200Y-86138288D01*
X126449960Y-85857959D01*
X126559339Y-85593895D01*
X126718134Y-85356242D01*
X126920242Y-85154134D01*
X127157895Y-84995339D01*
X127421959Y-84885960D01*
X127702288Y-84830200D01*
X127988112Y-84830200D01*
X128268441Y-84885960D01*
G37*
G36*
X188327512Y-83685927D02*
G01*
X188476812Y-83715624D01*
X188640784Y-83783544D01*
X188788354Y-83882147D01*
X188913853Y-84007646D01*
X189012456Y-84155216D01*
X189080376Y-84319188D01*
X189115000Y-84493259D01*
X189115000Y-84670741D01*
X189080376Y-84844812D01*
X189012456Y-85008784D01*
X188913853Y-85156354D01*
X188788354Y-85281853D01*
X188640784Y-85380456D01*
X188476812Y-85448376D01*
X188327512Y-85478073D01*
X188302742Y-85483000D01*
X188125258Y-85483000D01*
X188100488Y-85478073D01*
X187951188Y-85448376D01*
X187787216Y-85380456D01*
X187639646Y-85281853D01*
X187514147Y-85156354D01*
X187415544Y-85008784D01*
X187347624Y-84844812D01*
X187313000Y-84670741D01*
X187313000Y-84493259D01*
X187347624Y-84319188D01*
X187415544Y-84155216D01*
X187514147Y-84007646D01*
X187639646Y-83882147D01*
X187787216Y-83783544D01*
X187951188Y-83715624D01*
X188100488Y-83685927D01*
X188125258Y-83681000D01*
X188302742Y-83681000D01*
X188327512Y-83685927D01*
G37*
G36*
X113397512Y-83685927D02*
G01*
X113546812Y-83715624D01*
X113710784Y-83783544D01*
X113858354Y-83882147D01*
X113983853Y-84007646D01*
X114082456Y-84155216D01*
X114150376Y-84319188D01*
X114185000Y-84493259D01*
X114185000Y-84670741D01*
X114150376Y-84844812D01*
X114082456Y-85008784D01*
X113983853Y-85156354D01*
X113858354Y-85281853D01*
X113710784Y-85380456D01*
X113546812Y-85448376D01*
X113397512Y-85478073D01*
X113372742Y-85483000D01*
X113195258Y-85483000D01*
X113170488Y-85478073D01*
X113021188Y-85448376D01*
X112857216Y-85380456D01*
X112709646Y-85281853D01*
X112584147Y-85156354D01*
X112485544Y-85008784D01*
X112417624Y-84844812D01*
X112383000Y-84670741D01*
X112383000Y-84493259D01*
X112417624Y-84319188D01*
X112485544Y-84155216D01*
X112584147Y-84007646D01*
X112709646Y-83882147D01*
X112857216Y-83783544D01*
X113021188Y-83715624D01*
X113170488Y-83685927D01*
X113195258Y-83681000D01*
X113372742Y-83681000D01*
X113397512Y-83685927D01*
G37*
G36*
X120651764Y-82170589D02*
G01*
X120843033Y-82249815D01*
X120843035Y-82249816D01*
X121015173Y-82364835D01*
X121161565Y-82511227D01*
X121275647Y-82681962D01*
X121276585Y-82683367D01*
X121355811Y-82874636D01*
X121396200Y-83077684D01*
X121396200Y-83284716D01*
X121355811Y-83487764D01*
X121276585Y-83679033D01*
X121276584Y-83679035D01*
X121161565Y-83851173D01*
X121015173Y-83997565D01*
X120843035Y-84112584D01*
X120843034Y-84112585D01*
X120843033Y-84112585D01*
X120651764Y-84191811D01*
X120448716Y-84232200D01*
X120241684Y-84232200D01*
X120038636Y-84191811D01*
X119847367Y-84112585D01*
X119847366Y-84112585D01*
X119847365Y-84112584D01*
X119675227Y-83997565D01*
X119528835Y-83851173D01*
X119413816Y-83679035D01*
X119413815Y-83679033D01*
X119334589Y-83487764D01*
X119294200Y-83284716D01*
X119294200Y-83077684D01*
X119334589Y-82874636D01*
X119413815Y-82683367D01*
X119414754Y-82681962D01*
X119528835Y-82511227D01*
X119675227Y-82364835D01*
X119847365Y-82249816D01*
X119847367Y-82249815D01*
X120038636Y-82170589D01*
X120241684Y-82130200D01*
X120448716Y-82130200D01*
X120651764Y-82170589D01*
G37*
G36*
X135151764Y-82170589D02*
G01*
X135343033Y-82249815D01*
X135343035Y-82249816D01*
X135515173Y-82364835D01*
X135661565Y-82511227D01*
X135775647Y-82681962D01*
X135776585Y-82683367D01*
X135855811Y-82874636D01*
X135896200Y-83077684D01*
X135896200Y-83284716D01*
X135855811Y-83487764D01*
X135776585Y-83679033D01*
X135776584Y-83679035D01*
X135661565Y-83851173D01*
X135515173Y-83997565D01*
X135343035Y-84112584D01*
X135343034Y-84112585D01*
X135343033Y-84112585D01*
X135151764Y-84191811D01*
X134948716Y-84232200D01*
X134741684Y-84232200D01*
X134538636Y-84191811D01*
X134347367Y-84112585D01*
X134347366Y-84112585D01*
X134347365Y-84112584D01*
X134175227Y-83997565D01*
X134028835Y-83851173D01*
X133913816Y-83679035D01*
X133913815Y-83679033D01*
X133834589Y-83487764D01*
X133794200Y-83284716D01*
X133794200Y-83077684D01*
X133834589Y-82874636D01*
X133913815Y-82683367D01*
X133914754Y-82681962D01*
X134028835Y-82511227D01*
X134175227Y-82364835D01*
X134347365Y-82249816D01*
X134347367Y-82249815D01*
X134538636Y-82170589D01*
X134741684Y-82130200D01*
X134948716Y-82130200D01*
X135151764Y-82170589D01*
G37*
G36*
X166117764Y-82170589D02*
G01*
X166309033Y-82249815D01*
X166309035Y-82249816D01*
X166481173Y-82364835D01*
X166627565Y-82511227D01*
X166741647Y-82681962D01*
X166742585Y-82683367D01*
X166821811Y-82874636D01*
X166862200Y-83077684D01*
X166862200Y-83284716D01*
X166821811Y-83487764D01*
X166742585Y-83679033D01*
X166742584Y-83679035D01*
X166627565Y-83851173D01*
X166481173Y-83997565D01*
X166309035Y-84112584D01*
X166309034Y-84112585D01*
X166309033Y-84112585D01*
X166117764Y-84191811D01*
X165914716Y-84232200D01*
X165707684Y-84232200D01*
X165504636Y-84191811D01*
X165313367Y-84112585D01*
X165313366Y-84112585D01*
X165313365Y-84112584D01*
X165141227Y-83997565D01*
X164994835Y-83851173D01*
X164879816Y-83679035D01*
X164879815Y-83679033D01*
X164800589Y-83487764D01*
X164760200Y-83284716D01*
X164760200Y-83077684D01*
X164800589Y-82874636D01*
X164879815Y-82683367D01*
X164880754Y-82681962D01*
X164994835Y-82511227D01*
X165141227Y-82364835D01*
X165313365Y-82249816D01*
X165313367Y-82249815D01*
X165504636Y-82170589D01*
X165707684Y-82130200D01*
X165914716Y-82130200D01*
X166117764Y-82170589D01*
G37*
G36*
X180617764Y-82170589D02*
G01*
X180809033Y-82249815D01*
X180809035Y-82249816D01*
X180981173Y-82364835D01*
X181127565Y-82511227D01*
X181241647Y-82681962D01*
X181242585Y-82683367D01*
X181321811Y-82874636D01*
X181362200Y-83077684D01*
X181362200Y-83284716D01*
X181321811Y-83487764D01*
X181242585Y-83679033D01*
X181242584Y-83679035D01*
X181127565Y-83851173D01*
X180981173Y-83997565D01*
X180809035Y-84112584D01*
X180809034Y-84112585D01*
X180809033Y-84112585D01*
X180617764Y-84191811D01*
X180414716Y-84232200D01*
X180207684Y-84232200D01*
X180004636Y-84191811D01*
X179813367Y-84112585D01*
X179813366Y-84112585D01*
X179813365Y-84112584D01*
X179641227Y-83997565D01*
X179494835Y-83851173D01*
X179379816Y-83679035D01*
X179379815Y-83679033D01*
X179300589Y-83487764D01*
X179260200Y-83284716D01*
X179260200Y-83077684D01*
X179300589Y-82874636D01*
X179379815Y-82683367D01*
X179380754Y-82681962D01*
X179494835Y-82511227D01*
X179641227Y-82364835D01*
X179813365Y-82249816D01*
X179813367Y-82249815D01*
X180004636Y-82170589D01*
X180207684Y-82130200D01*
X180414716Y-82130200D01*
X180617764Y-82170589D01*
G37*
G36*
X170643674Y-82565465D02*
G01*
X170681367Y-82576899D01*
X170716103Y-82595466D01*
X170746548Y-82620452D01*
X170771534Y-82650897D01*
X170790101Y-82685633D01*
X170801535Y-82723326D01*
X170806000Y-82768661D01*
X170806000Y-83855339D01*
X170801535Y-83900674D01*
X170790101Y-83938367D01*
X170771534Y-83973103D01*
X170746548Y-84003548D01*
X170716103Y-84028534D01*
X170681367Y-84047101D01*
X170643674Y-84058535D01*
X170598339Y-84063000D01*
X169761661Y-84063000D01*
X169716326Y-84058535D01*
X169678633Y-84047101D01*
X169643897Y-84028534D01*
X169613452Y-84003548D01*
X169588466Y-83973103D01*
X169569899Y-83938367D01*
X169558465Y-83900674D01*
X169554000Y-83855339D01*
X169554000Y-82768661D01*
X169558465Y-82723326D01*
X169569899Y-82685633D01*
X169588466Y-82650897D01*
X169613452Y-82620452D01*
X169643897Y-82595466D01*
X169678633Y-82576899D01*
X169716326Y-82565465D01*
X169761661Y-82561000D01*
X170598339Y-82561000D01*
X170643674Y-82565465D01*
G37*
G36*
X168593674Y-82565465D02*
G01*
X168631367Y-82576899D01*
X168666103Y-82595466D01*
X168696548Y-82620452D01*
X168721534Y-82650897D01*
X168740101Y-82685633D01*
X168751535Y-82723326D01*
X168756000Y-82768661D01*
X168756000Y-83855339D01*
X168751535Y-83900674D01*
X168740101Y-83938367D01*
X168721534Y-83973103D01*
X168696548Y-84003548D01*
X168666103Y-84028534D01*
X168631367Y-84047101D01*
X168593674Y-84058535D01*
X168548339Y-84063000D01*
X167711661Y-84063000D01*
X167666326Y-84058535D01*
X167628633Y-84047101D01*
X167593897Y-84028534D01*
X167563452Y-84003548D01*
X167538466Y-83973103D01*
X167519899Y-83938367D01*
X167508465Y-83900674D01*
X167504000Y-83855339D01*
X167504000Y-82768661D01*
X167508465Y-82723326D01*
X167519899Y-82685633D01*
X167538466Y-82650897D01*
X167563452Y-82620452D01*
X167593897Y-82595466D01*
X167628633Y-82576899D01*
X167666326Y-82565465D01*
X167711661Y-82561000D01*
X168548339Y-82561000D01*
X168593674Y-82565465D01*
G37*
G36*
X123136674Y-82565465D02*
G01*
X123174367Y-82576899D01*
X123209103Y-82595466D01*
X123239548Y-82620452D01*
X123264534Y-82650897D01*
X123283101Y-82685633D01*
X123294535Y-82723326D01*
X123299000Y-82768661D01*
X123299000Y-83855339D01*
X123294535Y-83900674D01*
X123283101Y-83938367D01*
X123264534Y-83973103D01*
X123239548Y-84003548D01*
X123209103Y-84028534D01*
X123174367Y-84047101D01*
X123136674Y-84058535D01*
X123091339Y-84063000D01*
X122254661Y-84063000D01*
X122209326Y-84058535D01*
X122171633Y-84047101D01*
X122136897Y-84028534D01*
X122106452Y-84003548D01*
X122081466Y-83973103D01*
X122062899Y-83938367D01*
X122051465Y-83900674D01*
X122047000Y-83855339D01*
X122047000Y-82768661D01*
X122051465Y-82723326D01*
X122062899Y-82685633D01*
X122081466Y-82650897D01*
X122106452Y-82620452D01*
X122136897Y-82595466D01*
X122171633Y-82576899D01*
X122209326Y-82565465D01*
X122254661Y-82561000D01*
X123091339Y-82561000D01*
X123136674Y-82565465D01*
G37*
G36*
X125186674Y-82565465D02*
G01*
X125224367Y-82576899D01*
X125259103Y-82595466D01*
X125289548Y-82620452D01*
X125314534Y-82650897D01*
X125333101Y-82685633D01*
X125344535Y-82723326D01*
X125349000Y-82768661D01*
X125349000Y-83855339D01*
X125344535Y-83900674D01*
X125333101Y-83938367D01*
X125314534Y-83973103D01*
X125289548Y-84003548D01*
X125259103Y-84028534D01*
X125224367Y-84047101D01*
X125186674Y-84058535D01*
X125141339Y-84063000D01*
X124304661Y-84063000D01*
X124259326Y-84058535D01*
X124221633Y-84047101D01*
X124186897Y-84028534D01*
X124156452Y-84003548D01*
X124131466Y-83973103D01*
X124112899Y-83938367D01*
X124101465Y-83900674D01*
X124097000Y-83855339D01*
X124097000Y-82768661D01*
X124101465Y-82723326D01*
X124112899Y-82685633D01*
X124131466Y-82650897D01*
X124156452Y-82620452D01*
X124186897Y-82595466D01*
X124221633Y-82576899D01*
X124259326Y-82565465D01*
X124304661Y-82561000D01*
X125141339Y-82561000D01*
X125186674Y-82565465D01*
G37*
G36*
X113397512Y-81145927D02*
G01*
X113546812Y-81175624D01*
X113710784Y-81243544D01*
X113858354Y-81342147D01*
X113983853Y-81467646D01*
X114082456Y-81615216D01*
X114150376Y-81779188D01*
X114185000Y-81953259D01*
X114185000Y-82130741D01*
X114150376Y-82304812D01*
X114082456Y-82468784D01*
X113983853Y-82616354D01*
X113858354Y-82741853D01*
X113710784Y-82840456D01*
X113546812Y-82908376D01*
X113397512Y-82938073D01*
X113372742Y-82943000D01*
X113195258Y-82943000D01*
X113170488Y-82938073D01*
X113021188Y-82908376D01*
X112857216Y-82840456D01*
X112709646Y-82741853D01*
X112584147Y-82616354D01*
X112485544Y-82468784D01*
X112417624Y-82304812D01*
X112383000Y-82130741D01*
X112383000Y-81953259D01*
X112417624Y-81779188D01*
X112485544Y-81615216D01*
X112584147Y-81467646D01*
X112709646Y-81342147D01*
X112857216Y-81243544D01*
X113021188Y-81175624D01*
X113170488Y-81145927D01*
X113195258Y-81141000D01*
X113372742Y-81141000D01*
X113397512Y-81145927D01*
G37*
G36*
X188327512Y-81145927D02*
G01*
X188476812Y-81175624D01*
X188640784Y-81243544D01*
X188788354Y-81342147D01*
X188913853Y-81467646D01*
X189012456Y-81615216D01*
X189080376Y-81779188D01*
X189115000Y-81953259D01*
X189115000Y-82130741D01*
X189080376Y-82304812D01*
X189012456Y-82468784D01*
X188913853Y-82616354D01*
X188788354Y-82741853D01*
X188640784Y-82840456D01*
X188476812Y-82908376D01*
X188327512Y-82938073D01*
X188302742Y-82943000D01*
X188125258Y-82943000D01*
X188100488Y-82938073D01*
X187951188Y-82908376D01*
X187787216Y-82840456D01*
X187639646Y-82741853D01*
X187514147Y-82616354D01*
X187415544Y-82468784D01*
X187347624Y-82304812D01*
X187313000Y-82130741D01*
X187313000Y-81953259D01*
X187347624Y-81779188D01*
X187415544Y-81615216D01*
X187514147Y-81467646D01*
X187639646Y-81342147D01*
X187787216Y-81243544D01*
X187951188Y-81175624D01*
X188100488Y-81145927D01*
X188125258Y-81141000D01*
X188302742Y-81141000D01*
X188327512Y-81145927D01*
G37*
G36*
X120651764Y-79670589D02*
G01*
X120843033Y-79749815D01*
X120843035Y-79749816D01*
X120865478Y-79764812D01*
X121015173Y-79864835D01*
X121161565Y-80011227D01*
X121276585Y-80183367D01*
X121355811Y-80374636D01*
X121396200Y-80577684D01*
X121396200Y-80784716D01*
X121355811Y-80987764D01*
X121276585Y-81179033D01*
X121276584Y-81179035D01*
X121161565Y-81351173D01*
X121015173Y-81497565D01*
X120843035Y-81612584D01*
X120843034Y-81612585D01*
X120843033Y-81612585D01*
X120651764Y-81691811D01*
X120448716Y-81732200D01*
X120241684Y-81732200D01*
X120038636Y-81691811D01*
X119847367Y-81612585D01*
X119847366Y-81612585D01*
X119847365Y-81612584D01*
X119675227Y-81497565D01*
X119528835Y-81351173D01*
X119413816Y-81179035D01*
X119413815Y-81179033D01*
X119334589Y-80987764D01*
X119294200Y-80784716D01*
X119294200Y-80577684D01*
X119334589Y-80374636D01*
X119413815Y-80183367D01*
X119528835Y-80011227D01*
X119675227Y-79864835D01*
X119824922Y-79764812D01*
X119847365Y-79749816D01*
X119847367Y-79749815D01*
X120038636Y-79670589D01*
X120241684Y-79630200D01*
X120448716Y-79630200D01*
X120651764Y-79670589D01*
G37*
G36*
X166117764Y-79670589D02*
G01*
X166309033Y-79749815D01*
X166309035Y-79749816D01*
X166331478Y-79764812D01*
X166481173Y-79864835D01*
X166627565Y-80011227D01*
X166742585Y-80183367D01*
X166821811Y-80374636D01*
X166862200Y-80577684D01*
X166862200Y-80784716D01*
X166821811Y-80987764D01*
X166742585Y-81179033D01*
X166742584Y-81179035D01*
X166627565Y-81351173D01*
X166481173Y-81497565D01*
X166309035Y-81612584D01*
X166309034Y-81612585D01*
X166309033Y-81612585D01*
X166117764Y-81691811D01*
X165914716Y-81732200D01*
X165707684Y-81732200D01*
X165504636Y-81691811D01*
X165313367Y-81612585D01*
X165313366Y-81612585D01*
X165313365Y-81612584D01*
X165141227Y-81497565D01*
X164994835Y-81351173D01*
X164879816Y-81179035D01*
X164879815Y-81179033D01*
X164800589Y-80987764D01*
X164760200Y-80784716D01*
X164760200Y-80577684D01*
X164800589Y-80374636D01*
X164879815Y-80183367D01*
X164994835Y-80011227D01*
X165141227Y-79864835D01*
X165290922Y-79764812D01*
X165313365Y-79749816D01*
X165313367Y-79749815D01*
X165504636Y-79670589D01*
X165707684Y-79630200D01*
X165914716Y-79630200D01*
X166117764Y-79670589D01*
G37*
G36*
X150262360Y-81629020D02*
G01*
X148360360Y-81629020D01*
X148360360Y-79727020D01*
X150262360Y-79727020D01*
X150262360Y-81629020D01*
G37*
G36*
X152128755Y-79763566D02*
G01*
X152301826Y-79835254D01*
X152301827Y-79835255D01*
X152457587Y-79939330D01*
X152590050Y-80071793D01*
X152642441Y-80150202D01*
X152694126Y-80227554D01*
X152765814Y-80400625D01*
X152802360Y-80584353D01*
X152802360Y-80771687D01*
X152765814Y-80955415D01*
X152694126Y-81128486D01*
X152660350Y-81179035D01*
X152590050Y-81284247D01*
X152457587Y-81416710D01*
X152381356Y-81467646D01*
X152301826Y-81520786D01*
X152128755Y-81592474D01*
X151945027Y-81629020D01*
X151757693Y-81629020D01*
X151573965Y-81592474D01*
X151400894Y-81520786D01*
X151321364Y-81467646D01*
X151245133Y-81416710D01*
X151112670Y-81284247D01*
X151042370Y-81179035D01*
X151008594Y-81128486D01*
X150936906Y-80955415D01*
X150900360Y-80771687D01*
X150900360Y-80584353D01*
X150936906Y-80400625D01*
X151008594Y-80227554D01*
X151060279Y-80150202D01*
X151112670Y-80071793D01*
X151245133Y-79939330D01*
X151400893Y-79835255D01*
X151400894Y-79835254D01*
X151573965Y-79763566D01*
X151757693Y-79727020D01*
X151945027Y-79727020D01*
X152128755Y-79763566D01*
G37*
G36*
X188327512Y-78605927D02*
G01*
X188476812Y-78635624D01*
X188640784Y-78703544D01*
X188788354Y-78802147D01*
X188913853Y-78927646D01*
X189012456Y-79075216D01*
X189080376Y-79239188D01*
X189115000Y-79413259D01*
X189115000Y-79590741D01*
X189080376Y-79764812D01*
X189012456Y-79928784D01*
X188913853Y-80076354D01*
X188788354Y-80201853D01*
X188640784Y-80300456D01*
X188476812Y-80368376D01*
X188327512Y-80398073D01*
X188302742Y-80403000D01*
X188125258Y-80403000D01*
X188100488Y-80398073D01*
X187951188Y-80368376D01*
X187787216Y-80300456D01*
X187639646Y-80201853D01*
X187514147Y-80076354D01*
X187415544Y-79928784D01*
X187347624Y-79764812D01*
X187313000Y-79590741D01*
X187313000Y-79413259D01*
X187347624Y-79239188D01*
X187415544Y-79075216D01*
X187514147Y-78927646D01*
X187639646Y-78802147D01*
X187787216Y-78703544D01*
X187951188Y-78635624D01*
X188100488Y-78605927D01*
X188125258Y-78601000D01*
X188302742Y-78601000D01*
X188327512Y-78605927D01*
G37*
G36*
X113397512Y-78605927D02*
G01*
X113546812Y-78635624D01*
X113710784Y-78703544D01*
X113858354Y-78802147D01*
X113983853Y-78927646D01*
X114082456Y-79075216D01*
X114150376Y-79239188D01*
X114185000Y-79413259D01*
X114185000Y-79590741D01*
X114150376Y-79764812D01*
X114082456Y-79928784D01*
X113983853Y-80076354D01*
X113858354Y-80201853D01*
X113710784Y-80300456D01*
X113546812Y-80368376D01*
X113397512Y-80398073D01*
X113372742Y-80403000D01*
X113195258Y-80403000D01*
X113170488Y-80398073D01*
X113021188Y-80368376D01*
X112857216Y-80300456D01*
X112709646Y-80201853D01*
X112584147Y-80076354D01*
X112485544Y-79928784D01*
X112417624Y-79764812D01*
X112383000Y-79590741D01*
X112383000Y-79413259D01*
X112417624Y-79239188D01*
X112485544Y-79075216D01*
X112584147Y-78927646D01*
X112709646Y-78802147D01*
X112857216Y-78703544D01*
X113021188Y-78635624D01*
X113170488Y-78605927D01*
X113195258Y-78601000D01*
X113372742Y-78601000D01*
X113397512Y-78605927D01*
G37*
G36*
X121396200Y-79232200D02*
G01*
X119294200Y-79232200D01*
X119294200Y-77130200D01*
X121396200Y-77130200D01*
X121396200Y-79232200D01*
G37*
G36*
X135151764Y-77170589D02*
G01*
X135282670Y-77224812D01*
X135343035Y-77249816D01*
X135515173Y-77364835D01*
X135661565Y-77511227D01*
X135681093Y-77540452D01*
X135776585Y-77683367D01*
X135855811Y-77874636D01*
X135896200Y-78077684D01*
X135896200Y-78284716D01*
X135855811Y-78487764D01*
X135794565Y-78635625D01*
X135776584Y-78679035D01*
X135661565Y-78851173D01*
X135515173Y-78997565D01*
X135343035Y-79112584D01*
X135343034Y-79112585D01*
X135343033Y-79112585D01*
X135151764Y-79191811D01*
X134948716Y-79232200D01*
X134741684Y-79232200D01*
X134538636Y-79191811D01*
X134347367Y-79112585D01*
X134347366Y-79112585D01*
X134347365Y-79112584D01*
X134175227Y-78997565D01*
X134028835Y-78851173D01*
X133913816Y-78679035D01*
X133895835Y-78635625D01*
X133834589Y-78487764D01*
X133794200Y-78284716D01*
X133794200Y-78077684D01*
X133834589Y-77874636D01*
X133913815Y-77683367D01*
X134009308Y-77540452D01*
X134028835Y-77511227D01*
X134175227Y-77364835D01*
X134347365Y-77249816D01*
X134407730Y-77224812D01*
X134538636Y-77170589D01*
X134741684Y-77130200D01*
X134948716Y-77130200D01*
X135151764Y-77170589D01*
G37*
G36*
X180617764Y-77170589D02*
G01*
X180748670Y-77224812D01*
X180809035Y-77249816D01*
X180981173Y-77364835D01*
X181127565Y-77511227D01*
X181147093Y-77540452D01*
X181242585Y-77683367D01*
X181321811Y-77874636D01*
X181362200Y-78077684D01*
X181362200Y-78284716D01*
X181321811Y-78487764D01*
X181260565Y-78635625D01*
X181242584Y-78679035D01*
X181127565Y-78851173D01*
X180981173Y-78997565D01*
X180809035Y-79112584D01*
X180809034Y-79112585D01*
X180809033Y-79112585D01*
X180617764Y-79191811D01*
X180414716Y-79232200D01*
X180207684Y-79232200D01*
X180004636Y-79191811D01*
X179813367Y-79112585D01*
X179813366Y-79112585D01*
X179813365Y-79112584D01*
X179641227Y-78997565D01*
X179494835Y-78851173D01*
X179379816Y-78679035D01*
X179361835Y-78635625D01*
X179300589Y-78487764D01*
X179260200Y-78284716D01*
X179260200Y-78077684D01*
X179300589Y-77874636D01*
X179379815Y-77683367D01*
X179475308Y-77540452D01*
X179494835Y-77511227D01*
X179641227Y-77364835D01*
X179813365Y-77249816D01*
X179873730Y-77224812D01*
X180004636Y-77170589D01*
X180207684Y-77130200D01*
X180414716Y-77130200D01*
X180617764Y-77170589D01*
G37*
G36*
X166862200Y-79232200D02*
G01*
X164760200Y-79232200D01*
X164760200Y-77130200D01*
X166862200Y-77130200D01*
X166862200Y-79232200D01*
G37*
G36*
X123145674Y-77485465D02*
G01*
X123183367Y-77496899D01*
X123218103Y-77515466D01*
X123248548Y-77540452D01*
X123273534Y-77570897D01*
X123292101Y-77605633D01*
X123303535Y-77643326D01*
X123308000Y-77688661D01*
X123308000Y-78775339D01*
X123303535Y-78820674D01*
X123292101Y-78858367D01*
X123273534Y-78893103D01*
X123248548Y-78923548D01*
X123218103Y-78948534D01*
X123183367Y-78967101D01*
X123145674Y-78978535D01*
X123100339Y-78983000D01*
X122263661Y-78983000D01*
X122218326Y-78978535D01*
X122180633Y-78967101D01*
X122145897Y-78948534D01*
X122115452Y-78923548D01*
X122090466Y-78893103D01*
X122071899Y-78858367D01*
X122060465Y-78820674D01*
X122056000Y-78775339D01*
X122056000Y-77688661D01*
X122060465Y-77643326D01*
X122071899Y-77605633D01*
X122090466Y-77570897D01*
X122115452Y-77540452D01*
X122145897Y-77515466D01*
X122180633Y-77496899D01*
X122218326Y-77485465D01*
X122263661Y-77481000D01*
X123100339Y-77481000D01*
X123145674Y-77485465D01*
G37*
G36*
X125195674Y-77485465D02*
G01*
X125233367Y-77496899D01*
X125268103Y-77515466D01*
X125298548Y-77540452D01*
X125323534Y-77570897D01*
X125342101Y-77605633D01*
X125353535Y-77643326D01*
X125358000Y-77688661D01*
X125358000Y-78775339D01*
X125353535Y-78820674D01*
X125342101Y-78858367D01*
X125323534Y-78893103D01*
X125298548Y-78923548D01*
X125268103Y-78948534D01*
X125233367Y-78967101D01*
X125195674Y-78978535D01*
X125150339Y-78983000D01*
X124313661Y-78983000D01*
X124268326Y-78978535D01*
X124230633Y-78967101D01*
X124195897Y-78948534D01*
X124165452Y-78923548D01*
X124140466Y-78893103D01*
X124121899Y-78858367D01*
X124110465Y-78820674D01*
X124106000Y-78775339D01*
X124106000Y-77688661D01*
X124110465Y-77643326D01*
X124121899Y-77605633D01*
X124140466Y-77570897D01*
X124165452Y-77540452D01*
X124195897Y-77515466D01*
X124230633Y-77496899D01*
X124268326Y-77485465D01*
X124313661Y-77481000D01*
X125150339Y-77481000D01*
X125195674Y-77485465D01*
G37*
G36*
X168593674Y-77485465D02*
G01*
X168631367Y-77496899D01*
X168666103Y-77515466D01*
X168696548Y-77540452D01*
X168721534Y-77570897D01*
X168740101Y-77605633D01*
X168751535Y-77643326D01*
X168756000Y-77688661D01*
X168756000Y-78775339D01*
X168751535Y-78820674D01*
X168740101Y-78858367D01*
X168721534Y-78893103D01*
X168696548Y-78923548D01*
X168666103Y-78948534D01*
X168631367Y-78967101D01*
X168593674Y-78978535D01*
X168548339Y-78983000D01*
X167711661Y-78983000D01*
X167666326Y-78978535D01*
X167628633Y-78967101D01*
X167593897Y-78948534D01*
X167563452Y-78923548D01*
X167538466Y-78893103D01*
X167519899Y-78858367D01*
X167508465Y-78820674D01*
X167504000Y-78775339D01*
X167504000Y-77688661D01*
X167508465Y-77643326D01*
X167519899Y-77605633D01*
X167538466Y-77570897D01*
X167563452Y-77540452D01*
X167593897Y-77515466D01*
X167628633Y-77496899D01*
X167666326Y-77485465D01*
X167711661Y-77481000D01*
X168548339Y-77481000D01*
X168593674Y-77485465D01*
G37*
G36*
X170643674Y-77485465D02*
G01*
X170681367Y-77496899D01*
X170716103Y-77515466D01*
X170746548Y-77540452D01*
X170771534Y-77570897D01*
X170790101Y-77605633D01*
X170801535Y-77643326D01*
X170806000Y-77688661D01*
X170806000Y-78775339D01*
X170801535Y-78820674D01*
X170790101Y-78858367D01*
X170771534Y-78893103D01*
X170746548Y-78923548D01*
X170716103Y-78948534D01*
X170681367Y-78967101D01*
X170643674Y-78978535D01*
X170598339Y-78983000D01*
X169761661Y-78983000D01*
X169716326Y-78978535D01*
X169678633Y-78967101D01*
X169643897Y-78948534D01*
X169613452Y-78923548D01*
X169588466Y-78893103D01*
X169569899Y-78858367D01*
X169558465Y-78820674D01*
X169554000Y-78775339D01*
X169554000Y-77688661D01*
X169558465Y-77643326D01*
X169569899Y-77605633D01*
X169588466Y-77570897D01*
X169613452Y-77540452D01*
X169643897Y-77515466D01*
X169678633Y-77496899D01*
X169716326Y-77485465D01*
X169761661Y-77481000D01*
X170598339Y-77481000D01*
X170643674Y-77485465D01*
G37*
G36*
X188327512Y-76065927D02*
G01*
X188476812Y-76095624D01*
X188640784Y-76163544D01*
X188788354Y-76262147D01*
X188913853Y-76387646D01*
X189012456Y-76535216D01*
X189080376Y-76699188D01*
X189115000Y-76873259D01*
X189115000Y-77050741D01*
X189080376Y-77224812D01*
X189012456Y-77388784D01*
X188913853Y-77536354D01*
X188788354Y-77661853D01*
X188640784Y-77760456D01*
X188476812Y-77828376D01*
X188327512Y-77858073D01*
X188302742Y-77863000D01*
X188125258Y-77863000D01*
X188100488Y-77858073D01*
X187951188Y-77828376D01*
X187787216Y-77760456D01*
X187639646Y-77661853D01*
X187514147Y-77536354D01*
X187415544Y-77388784D01*
X187347624Y-77224812D01*
X187313000Y-77050741D01*
X187313000Y-76873259D01*
X187347624Y-76699188D01*
X187415544Y-76535216D01*
X187514147Y-76387646D01*
X187639646Y-76262147D01*
X187787216Y-76163544D01*
X187951188Y-76095624D01*
X188100488Y-76065927D01*
X188125258Y-76061000D01*
X188302742Y-76061000D01*
X188327512Y-76065927D01*
G37*
G36*
X113397512Y-76065927D02*
G01*
X113546812Y-76095624D01*
X113710784Y-76163544D01*
X113858354Y-76262147D01*
X113983853Y-76387646D01*
X114082456Y-76535216D01*
X114150376Y-76699188D01*
X114185000Y-76873259D01*
X114185000Y-77050741D01*
X114150376Y-77224812D01*
X114082456Y-77388784D01*
X113983853Y-77536354D01*
X113858354Y-77661853D01*
X113710784Y-77760456D01*
X113546812Y-77828376D01*
X113397512Y-77858073D01*
X113372742Y-77863000D01*
X113195258Y-77863000D01*
X113170488Y-77858073D01*
X113021188Y-77828376D01*
X112857216Y-77760456D01*
X112709646Y-77661853D01*
X112584147Y-77536354D01*
X112485544Y-77388784D01*
X112417624Y-77224812D01*
X112383000Y-77050741D01*
X112383000Y-76873259D01*
X112417624Y-76699188D01*
X112485544Y-76535216D01*
X112584147Y-76387646D01*
X112709646Y-76262147D01*
X112857216Y-76163544D01*
X113021188Y-76095624D01*
X113170488Y-76065927D01*
X113195258Y-76061000D01*
X113372742Y-76061000D01*
X113397512Y-76065927D01*
G37*
G36*
X128268441Y-73685960D02*
G01*
X128532505Y-73795339D01*
X128770158Y-73954134D01*
X128972266Y-74156242D01*
X129131061Y-74393895D01*
X129240440Y-74657959D01*
X129296200Y-74938288D01*
X129296200Y-75224112D01*
X129240440Y-75504441D01*
X129131061Y-75768505D01*
X128972266Y-76006158D01*
X128770158Y-76208266D01*
X128532505Y-76367061D01*
X128268441Y-76476440D01*
X127988112Y-76532200D01*
X127702288Y-76532200D01*
X127421959Y-76476440D01*
X127157895Y-76367061D01*
X126920242Y-76208266D01*
X126718134Y-76006158D01*
X126559339Y-75768505D01*
X126449960Y-75504441D01*
X126394200Y-75224112D01*
X126394200Y-74938288D01*
X126449960Y-74657959D01*
X126559339Y-74393895D01*
X126718134Y-74156242D01*
X126920242Y-73954134D01*
X127157895Y-73795339D01*
X127421959Y-73685960D01*
X127702288Y-73630200D01*
X127988112Y-73630200D01*
X128268441Y-73685960D01*
G37*
G36*
X173734441Y-73685960D02*
G01*
X173998505Y-73795339D01*
X174236158Y-73954134D01*
X174438266Y-74156242D01*
X174597061Y-74393895D01*
X174706440Y-74657959D01*
X174762200Y-74938288D01*
X174762200Y-75224112D01*
X174706440Y-75504441D01*
X174597061Y-75768505D01*
X174438266Y-76006158D01*
X174236158Y-76208266D01*
X173998505Y-76367061D01*
X173734441Y-76476440D01*
X173454112Y-76532200D01*
X173168288Y-76532200D01*
X172887959Y-76476440D01*
X172623895Y-76367061D01*
X172386242Y-76208266D01*
X172184134Y-76006158D01*
X172025339Y-75768505D01*
X171915960Y-75504441D01*
X171860200Y-75224112D01*
X171860200Y-74938288D01*
X171915960Y-74657959D01*
X172025339Y-74393895D01*
X172184134Y-74156242D01*
X172386242Y-73954134D01*
X172623895Y-73795339D01*
X172887959Y-73685960D01*
X173168288Y-73630200D01*
X173454112Y-73630200D01*
X173734441Y-73685960D01*
G37*
G36*
X113397512Y-73525927D02*
G01*
X113546812Y-73555624D01*
X113710784Y-73623544D01*
X113858354Y-73722147D01*
X113983853Y-73847646D01*
X114082456Y-73995216D01*
X114150376Y-74159188D01*
X114185000Y-74333259D01*
X114185000Y-74510741D01*
X114150376Y-74684812D01*
X114082456Y-74848784D01*
X113983853Y-74996354D01*
X113858354Y-75121853D01*
X113710784Y-75220456D01*
X113546812Y-75288376D01*
X113397512Y-75318073D01*
X113372742Y-75323000D01*
X113195258Y-75323000D01*
X113170488Y-75318073D01*
X113021188Y-75288376D01*
X112857216Y-75220456D01*
X112709646Y-75121853D01*
X112584147Y-74996354D01*
X112485544Y-74848784D01*
X112417624Y-74684812D01*
X112383000Y-74510741D01*
X112383000Y-74333259D01*
X112417624Y-74159188D01*
X112485544Y-73995216D01*
X112584147Y-73847646D01*
X112709646Y-73722147D01*
X112857216Y-73623544D01*
X113021188Y-73555624D01*
X113170488Y-73525927D01*
X113195258Y-73521000D01*
X113372742Y-73521000D01*
X113397512Y-73525927D01*
G37*
G36*
X188327512Y-73525927D02*
G01*
X188476812Y-73555624D01*
X188640784Y-73623544D01*
X188788354Y-73722147D01*
X188913853Y-73847646D01*
X189012456Y-73995216D01*
X189080376Y-74159188D01*
X189115000Y-74333259D01*
X189115000Y-74510741D01*
X189080376Y-74684812D01*
X189012456Y-74848784D01*
X188913853Y-74996354D01*
X188788354Y-75121853D01*
X188640784Y-75220456D01*
X188476812Y-75288376D01*
X188327512Y-75318073D01*
X188302742Y-75323000D01*
X188125258Y-75323000D01*
X188100488Y-75318073D01*
X187951188Y-75288376D01*
X187787216Y-75220456D01*
X187639646Y-75121853D01*
X187514147Y-74996354D01*
X187415544Y-74848784D01*
X187347624Y-74684812D01*
X187313000Y-74510741D01*
X187313000Y-74333259D01*
X187347624Y-74159188D01*
X187415544Y-73995216D01*
X187514147Y-73847646D01*
X187639646Y-73722147D01*
X187787216Y-73623544D01*
X187951188Y-73555624D01*
X188100488Y-73525927D01*
X188125258Y-73521000D01*
X188302742Y-73521000D01*
X188327512Y-73525927D01*
G37*
G36*
X113397512Y-70985927D02*
G01*
X113546812Y-71015624D01*
X113710784Y-71083544D01*
X113858354Y-71182147D01*
X113983853Y-71307646D01*
X114082456Y-71455216D01*
X114150376Y-71619188D01*
X114185000Y-71793259D01*
X114185000Y-71970741D01*
X114150376Y-72144812D01*
X114082456Y-72308784D01*
X113983853Y-72456354D01*
X113858354Y-72581853D01*
X113710784Y-72680456D01*
X113546812Y-72748376D01*
X113397512Y-72778073D01*
X113372742Y-72783000D01*
X113195258Y-72783000D01*
X113170488Y-72778073D01*
X113021188Y-72748376D01*
X112857216Y-72680456D01*
X112709646Y-72581853D01*
X112584147Y-72456354D01*
X112485544Y-72308784D01*
X112417624Y-72144812D01*
X112383000Y-71970741D01*
X112383000Y-71793259D01*
X112417624Y-71619188D01*
X112485544Y-71455216D01*
X112584147Y-71307646D01*
X112709646Y-71182147D01*
X112857216Y-71083544D01*
X113021188Y-71015624D01*
X113170488Y-70985927D01*
X113195258Y-70981000D01*
X113372742Y-70981000D01*
X113397512Y-70985927D01*
G37*
G36*
X188327512Y-70985927D02*
G01*
X188476812Y-71015624D01*
X188640784Y-71083544D01*
X188788354Y-71182147D01*
X188913853Y-71307646D01*
X189012456Y-71455216D01*
X189080376Y-71619188D01*
X189115000Y-71793259D01*
X189115000Y-71970741D01*
X189080376Y-72144812D01*
X189012456Y-72308784D01*
X188913853Y-72456354D01*
X188788354Y-72581853D01*
X188640784Y-72680456D01*
X188476812Y-72748376D01*
X188327512Y-72778073D01*
X188302742Y-72783000D01*
X188125258Y-72783000D01*
X188100488Y-72778073D01*
X187951188Y-72748376D01*
X187787216Y-72680456D01*
X187639646Y-72581853D01*
X187514147Y-72456354D01*
X187415544Y-72308784D01*
X187347624Y-72144812D01*
X187313000Y-71970741D01*
X187313000Y-71793259D01*
X187347624Y-71619188D01*
X187415544Y-71455216D01*
X187514147Y-71307646D01*
X187639646Y-71182147D01*
X187787216Y-71083544D01*
X187951188Y-71015624D01*
X188100488Y-70985927D01*
X188125258Y-70981000D01*
X188302742Y-70981000D01*
X188327512Y-70985927D01*
G37*
G36*
X113397512Y-68445927D02*
G01*
X113546812Y-68475624D01*
X113710784Y-68543544D01*
X113858354Y-68642147D01*
X113983853Y-68767646D01*
X114082456Y-68915216D01*
X114150376Y-69079188D01*
X114185000Y-69253259D01*
X114185000Y-69430741D01*
X114150376Y-69604812D01*
X114082456Y-69768784D01*
X113983853Y-69916354D01*
X113858354Y-70041853D01*
X113710784Y-70140456D01*
X113546812Y-70208376D01*
X113397512Y-70238073D01*
X113372742Y-70243000D01*
X113195258Y-70243000D01*
X113170488Y-70238073D01*
X113021188Y-70208376D01*
X112857216Y-70140456D01*
X112709646Y-70041853D01*
X112584147Y-69916354D01*
X112485544Y-69768784D01*
X112417624Y-69604812D01*
X112383000Y-69430741D01*
X112383000Y-69253259D01*
X112417624Y-69079188D01*
X112485544Y-68915216D01*
X112584147Y-68767646D01*
X112709646Y-68642147D01*
X112857216Y-68543544D01*
X113021188Y-68475624D01*
X113170488Y-68445927D01*
X113195258Y-68441000D01*
X113372742Y-68441000D01*
X113397512Y-68445927D01*
G37*
G36*
X188327512Y-68445927D02*
G01*
X188476812Y-68475624D01*
X188640784Y-68543544D01*
X188788354Y-68642147D01*
X188913853Y-68767646D01*
X189012456Y-68915216D01*
X189080376Y-69079188D01*
X189115000Y-69253259D01*
X189115000Y-69430741D01*
X189080376Y-69604812D01*
X189012456Y-69768784D01*
X188913853Y-69916354D01*
X188788354Y-70041853D01*
X188640784Y-70140456D01*
X188476812Y-70208376D01*
X188327512Y-70238073D01*
X188302742Y-70243000D01*
X188125258Y-70243000D01*
X188100488Y-70238073D01*
X187951188Y-70208376D01*
X187787216Y-70140456D01*
X187639646Y-70041853D01*
X187514147Y-69916354D01*
X187415544Y-69768784D01*
X187347624Y-69604812D01*
X187313000Y-69430741D01*
X187313000Y-69253259D01*
X187347624Y-69079188D01*
X187415544Y-68915216D01*
X187514147Y-68767646D01*
X187639646Y-68642147D01*
X187787216Y-68543544D01*
X187951188Y-68475624D01*
X188100488Y-68445927D01*
X188125258Y-68441000D01*
X188302742Y-68441000D01*
X188327512Y-68445927D01*
G37*
G36*
X162684995Y-67904306D02*
G01*
X162858066Y-67975994D01*
X162858067Y-67975995D01*
X163013827Y-68080070D01*
X163146290Y-68212533D01*
X163146291Y-68212535D01*
X163250366Y-68368294D01*
X163322054Y-68541365D01*
X163358600Y-68725093D01*
X163358600Y-68912427D01*
X163322054Y-69096155D01*
X163250366Y-69269226D01*
X163250365Y-69269227D01*
X163146290Y-69424987D01*
X163013827Y-69557450D01*
X162942946Y-69604811D01*
X162858066Y-69661526D01*
X162684995Y-69733214D01*
X162501267Y-69769760D01*
X162313933Y-69769760D01*
X162130205Y-69733214D01*
X161957134Y-69661526D01*
X161872254Y-69604811D01*
X161801373Y-69557450D01*
X161668910Y-69424987D01*
X161564835Y-69269227D01*
X161564834Y-69269226D01*
X161493146Y-69096155D01*
X161456600Y-68912427D01*
X161456600Y-68725093D01*
X161493146Y-68541365D01*
X161564834Y-68368294D01*
X161668909Y-68212535D01*
X161668910Y-68212533D01*
X161801373Y-68080070D01*
X161957133Y-67975995D01*
X161957134Y-67975994D01*
X162130205Y-67904306D01*
X162313933Y-67867760D01*
X162501267Y-67867760D01*
X162684995Y-67904306D01*
G37*
G36*
X160818600Y-69769760D02*
G01*
X158916600Y-69769760D01*
X158916600Y-67867760D01*
X160818600Y-67867760D01*
X160818600Y-69769760D01*
G37*
G36*
X139591820Y-69757060D02*
G01*
X137689820Y-69757060D01*
X137689820Y-67855060D01*
X139591820Y-67855060D01*
X139591820Y-69757060D01*
G37*
G36*
X141458215Y-67891606D02*
G01*
X141631286Y-67963294D01*
X141650294Y-67975995D01*
X141787047Y-68067370D01*
X141919510Y-68199833D01*
X141919511Y-68199835D01*
X142023586Y-68355594D01*
X142095274Y-68528665D01*
X142131820Y-68712393D01*
X142131820Y-68899727D01*
X142095274Y-69083455D01*
X142023586Y-69256526D01*
X142023585Y-69256527D01*
X141919510Y-69412287D01*
X141787047Y-69544750D01*
X141708638Y-69597141D01*
X141631286Y-69648826D01*
X141458215Y-69720514D01*
X141274487Y-69757060D01*
X141087153Y-69757060D01*
X140903425Y-69720514D01*
X140730354Y-69648826D01*
X140653002Y-69597141D01*
X140574593Y-69544750D01*
X140442130Y-69412287D01*
X140338055Y-69256527D01*
X140338054Y-69256526D01*
X140266366Y-69083455D01*
X140229820Y-68899727D01*
X140229820Y-68712393D01*
X140266366Y-68528665D01*
X140338054Y-68355594D01*
X140442129Y-68199835D01*
X140442130Y-68199833D01*
X140574593Y-68067370D01*
X140711346Y-67975995D01*
X140730354Y-67963294D01*
X140903425Y-67891606D01*
X141087153Y-67855060D01*
X141274487Y-67855060D01*
X141458215Y-67891606D01*
G37*
G36*
X188327512Y-65905927D02*
G01*
X188476812Y-65935624D01*
X188640784Y-66003544D01*
X188788354Y-66102147D01*
X188913853Y-66227646D01*
X189012456Y-66375216D01*
X189080376Y-66539188D01*
X189115000Y-66713259D01*
X189115000Y-66890741D01*
X189080376Y-67064812D01*
X189012456Y-67228784D01*
X188913853Y-67376354D01*
X188788354Y-67501853D01*
X188640784Y-67600456D01*
X188476812Y-67668376D01*
X188327512Y-67698073D01*
X188302742Y-67703000D01*
X188125258Y-67703000D01*
X188100488Y-67698073D01*
X187951188Y-67668376D01*
X187787216Y-67600456D01*
X187639646Y-67501853D01*
X187514147Y-67376354D01*
X187415544Y-67228784D01*
X187347624Y-67064812D01*
X187313000Y-66890741D01*
X187313000Y-66713259D01*
X187347624Y-66539188D01*
X187415544Y-66375216D01*
X187514147Y-66227646D01*
X187639646Y-66102147D01*
X187787216Y-66003544D01*
X187951188Y-65935624D01*
X188100488Y-65905927D01*
X188125258Y-65901000D01*
X188302742Y-65901000D01*
X188327512Y-65905927D01*
G37*
G36*
X113397512Y-65905927D02*
G01*
X113546812Y-65935624D01*
X113710784Y-66003544D01*
X113858354Y-66102147D01*
X113983853Y-66227646D01*
X114082456Y-66375216D01*
X114150376Y-66539188D01*
X114185000Y-66713259D01*
X114185000Y-66890741D01*
X114150376Y-67064812D01*
X114082456Y-67228784D01*
X113983853Y-67376354D01*
X113858354Y-67501853D01*
X113710784Y-67600456D01*
X113546812Y-67668376D01*
X113397512Y-67698073D01*
X113372742Y-67703000D01*
X113195258Y-67703000D01*
X113170488Y-67698073D01*
X113021188Y-67668376D01*
X112857216Y-67600456D01*
X112709646Y-67501853D01*
X112584147Y-67376354D01*
X112485544Y-67228784D01*
X112417624Y-67064812D01*
X112383000Y-66890741D01*
X112383000Y-66713259D01*
X112417624Y-66539188D01*
X112485544Y-66375216D01*
X112584147Y-66227646D01*
X112709646Y-66102147D01*
X112857216Y-66003544D01*
X113021188Y-65935624D01*
X113170488Y-65905927D01*
X113195258Y-65901000D01*
X113372742Y-65901000D01*
X113397512Y-65905927D01*
G37*
G36*
X113397512Y-63365927D02*
G01*
X113546812Y-63395624D01*
X113710784Y-63463544D01*
X113858354Y-63562147D01*
X113983853Y-63687646D01*
X114082456Y-63835216D01*
X114150376Y-63999188D01*
X114185000Y-64173259D01*
X114185000Y-64350741D01*
X114150376Y-64524812D01*
X114082456Y-64688784D01*
X113983853Y-64836354D01*
X113858354Y-64961853D01*
X113710784Y-65060456D01*
X113546812Y-65128376D01*
X113397512Y-65158073D01*
X113372742Y-65163000D01*
X113195258Y-65163000D01*
X113170488Y-65158073D01*
X113021188Y-65128376D01*
X112857216Y-65060456D01*
X112709646Y-64961853D01*
X112584147Y-64836354D01*
X112485544Y-64688784D01*
X112417624Y-64524812D01*
X112383000Y-64350741D01*
X112383000Y-64173259D01*
X112417624Y-63999188D01*
X112485544Y-63835216D01*
X112584147Y-63687646D01*
X112709646Y-63562147D01*
X112857216Y-63463544D01*
X113021188Y-63395624D01*
X113170488Y-63365927D01*
X113195258Y-63361000D01*
X113372742Y-63361000D01*
X113397512Y-63365927D01*
G37*
G36*
X188327512Y-63365927D02*
G01*
X188476812Y-63395624D01*
X188640784Y-63463544D01*
X188788354Y-63562147D01*
X188913853Y-63687646D01*
X189012456Y-63835216D01*
X189080376Y-63999188D01*
X189115000Y-64173259D01*
X189115000Y-64350741D01*
X189080376Y-64524812D01*
X189012456Y-64688784D01*
X188913853Y-64836354D01*
X188788354Y-64961853D01*
X188640784Y-65060456D01*
X188476812Y-65128376D01*
X188327512Y-65158073D01*
X188302742Y-65163000D01*
X188125258Y-65163000D01*
X188100488Y-65158073D01*
X187951188Y-65128376D01*
X187787216Y-65060456D01*
X187639646Y-64961853D01*
X187514147Y-64836354D01*
X187415544Y-64688784D01*
X187347624Y-64524812D01*
X187313000Y-64350741D01*
X187313000Y-64173259D01*
X187347624Y-63999188D01*
X187415544Y-63835216D01*
X187514147Y-63687646D01*
X187639646Y-63562147D01*
X187787216Y-63463544D01*
X187951188Y-63395624D01*
X188100488Y-63365927D01*
X188125258Y-63361000D01*
X188302742Y-63361000D01*
X188327512Y-63365927D01*
G37*
G36*
X113397512Y-60825927D02*
G01*
X113546812Y-60855624D01*
X113710784Y-60923544D01*
X113858354Y-61022147D01*
X113983853Y-61147646D01*
X114082456Y-61295216D01*
X114150376Y-61459188D01*
X114185000Y-61633259D01*
X114185000Y-61810741D01*
X114150376Y-61984812D01*
X114082456Y-62148784D01*
X113983853Y-62296354D01*
X113858354Y-62421853D01*
X113710784Y-62520456D01*
X113546812Y-62588376D01*
X113397512Y-62618073D01*
X113372742Y-62623000D01*
X113195258Y-62623000D01*
X113170488Y-62618073D01*
X113021188Y-62588376D01*
X112857216Y-62520456D01*
X112709646Y-62421853D01*
X112584147Y-62296354D01*
X112485544Y-62148784D01*
X112417624Y-61984812D01*
X112383000Y-61810741D01*
X112383000Y-61633259D01*
X112417624Y-61459188D01*
X112485544Y-61295216D01*
X112584147Y-61147646D01*
X112709646Y-61022147D01*
X112857216Y-60923544D01*
X113021188Y-60855624D01*
X113170488Y-60825927D01*
X113195258Y-60821000D01*
X113372742Y-60821000D01*
X113397512Y-60825927D01*
G37*
G36*
X188327512Y-60825927D02*
G01*
X188476812Y-60855624D01*
X188640784Y-60923544D01*
X188788354Y-61022147D01*
X188913853Y-61147646D01*
X189012456Y-61295216D01*
X189080376Y-61459188D01*
X189115000Y-61633259D01*
X189115000Y-61810741D01*
X189080376Y-61984812D01*
X189012456Y-62148784D01*
X188913853Y-62296354D01*
X188788354Y-62421853D01*
X188640784Y-62520456D01*
X188476812Y-62588376D01*
X188327512Y-62618073D01*
X188302742Y-62623000D01*
X188125258Y-62623000D01*
X188100488Y-62618073D01*
X187951188Y-62588376D01*
X187787216Y-62520456D01*
X187639646Y-62421853D01*
X187514147Y-62296354D01*
X187415544Y-62148784D01*
X187347624Y-61984812D01*
X187313000Y-61810741D01*
X187313000Y-61633259D01*
X187347624Y-61459188D01*
X187415544Y-61295216D01*
X187514147Y-61147646D01*
X187639646Y-61022147D01*
X187787216Y-60923544D01*
X187951188Y-60855624D01*
X188100488Y-60825927D01*
X188125258Y-60821000D01*
X188302742Y-60821000D01*
X188327512Y-60825927D01*
G37*
G36*
X113397512Y-58285927D02*
G01*
X113546812Y-58315624D01*
X113710784Y-58383544D01*
X113858354Y-58482147D01*
X113983853Y-58607646D01*
X114082456Y-58755216D01*
X114150376Y-58919188D01*
X114185000Y-59093259D01*
X114185000Y-59270741D01*
X114150376Y-59444812D01*
X114082456Y-59608784D01*
X113983853Y-59756354D01*
X113858354Y-59881853D01*
X113710784Y-59980456D01*
X113546812Y-60048376D01*
X113397512Y-60078073D01*
X113372742Y-60083000D01*
X113195258Y-60083000D01*
X113170488Y-60078073D01*
X113021188Y-60048376D01*
X112857216Y-59980456D01*
X112709646Y-59881853D01*
X112584147Y-59756354D01*
X112485544Y-59608784D01*
X112417624Y-59444812D01*
X112383000Y-59270741D01*
X112383000Y-59093259D01*
X112417624Y-58919188D01*
X112485544Y-58755216D01*
X112584147Y-58607646D01*
X112709646Y-58482147D01*
X112857216Y-58383544D01*
X113021188Y-58315624D01*
X113170488Y-58285927D01*
X113195258Y-58281000D01*
X113372742Y-58281000D01*
X113397512Y-58285927D01*
G37*
G36*
X188327512Y-58285927D02*
G01*
X188476812Y-58315624D01*
X188640784Y-58383544D01*
X188788354Y-58482147D01*
X188913853Y-58607646D01*
X189012456Y-58755216D01*
X189080376Y-58919188D01*
X189115000Y-59093259D01*
X189115000Y-59270741D01*
X189080376Y-59444812D01*
X189012456Y-59608784D01*
X188913853Y-59756354D01*
X188788354Y-59881853D01*
X188640784Y-59980456D01*
X188476812Y-60048376D01*
X188327512Y-60078073D01*
X188302742Y-60083000D01*
X188125258Y-60083000D01*
X188100488Y-60078073D01*
X187951188Y-60048376D01*
X187787216Y-59980456D01*
X187639646Y-59881853D01*
X187514147Y-59756354D01*
X187415544Y-59608784D01*
X187347624Y-59444812D01*
X187313000Y-59270741D01*
X187313000Y-59093259D01*
X187347624Y-58919188D01*
X187415544Y-58755216D01*
X187514147Y-58607646D01*
X187639646Y-58482147D01*
X187787216Y-58383544D01*
X187951188Y-58315624D01*
X188100488Y-58285927D01*
X188125258Y-58281000D01*
X188302742Y-58281000D01*
X188327512Y-58285927D01*
G37*
G36*
X129372895Y-57490306D02*
G01*
X129545966Y-57561994D01*
X129545967Y-57561995D01*
X129701727Y-57666070D01*
X129834190Y-57798533D01*
X129834191Y-57798535D01*
X129938266Y-57954294D01*
X130009954Y-58127365D01*
X130046500Y-58311093D01*
X130046500Y-58498427D01*
X130009954Y-58682155D01*
X129938266Y-58855226D01*
X129938265Y-58855227D01*
X129834190Y-59010987D01*
X129701727Y-59143450D01*
X129623318Y-59195841D01*
X129545966Y-59247526D01*
X129372895Y-59319214D01*
X129189167Y-59355760D01*
X129001833Y-59355760D01*
X128818105Y-59319214D01*
X128645034Y-59247526D01*
X128567682Y-59195841D01*
X128489273Y-59143450D01*
X128356810Y-59010987D01*
X128252735Y-58855227D01*
X128252734Y-58855226D01*
X128181046Y-58682155D01*
X128144500Y-58498427D01*
X128144500Y-58311093D01*
X128181046Y-58127365D01*
X128252734Y-57954294D01*
X128356809Y-57798535D01*
X128356810Y-57798533D01*
X128489273Y-57666070D01*
X128645033Y-57561995D01*
X128645034Y-57561994D01*
X128818105Y-57490306D01*
X129001833Y-57453760D01*
X129189167Y-57453760D01*
X129372895Y-57490306D01*
G37*
G36*
X172980120Y-59355760D02*
G01*
X171078120Y-59355760D01*
X171078120Y-57453760D01*
X172980120Y-57453760D01*
X172980120Y-59355760D01*
G37*
G36*
X174846515Y-57490306D02*
G01*
X175019586Y-57561994D01*
X175019587Y-57561995D01*
X175175347Y-57666070D01*
X175307810Y-57798533D01*
X175307811Y-57798535D01*
X175411886Y-57954294D01*
X175483574Y-58127365D01*
X175520120Y-58311093D01*
X175520120Y-58498427D01*
X175483574Y-58682155D01*
X175411886Y-58855226D01*
X175411885Y-58855227D01*
X175307810Y-59010987D01*
X175175347Y-59143450D01*
X175096938Y-59195841D01*
X175019586Y-59247526D01*
X174846515Y-59319214D01*
X174662787Y-59355760D01*
X174475453Y-59355760D01*
X174291725Y-59319214D01*
X174118654Y-59247526D01*
X174041302Y-59195841D01*
X173962893Y-59143450D01*
X173830430Y-59010987D01*
X173726355Y-58855227D01*
X173726354Y-58855226D01*
X173654666Y-58682155D01*
X173618120Y-58498427D01*
X173618120Y-58311093D01*
X173654666Y-58127365D01*
X173726354Y-57954294D01*
X173830429Y-57798535D01*
X173830430Y-57798533D01*
X173962893Y-57666070D01*
X174118653Y-57561995D01*
X174118654Y-57561994D01*
X174291725Y-57490306D01*
X174475453Y-57453760D01*
X174662787Y-57453760D01*
X174846515Y-57490306D01*
G37*
G36*
X127506500Y-59355760D02*
G01*
X125604500Y-59355760D01*
X125604500Y-57453760D01*
X127506500Y-57453760D01*
X127506500Y-59355760D01*
G37*
G36*
X152128755Y-57487766D02*
G01*
X152301826Y-57559454D01*
X152379178Y-57611139D01*
X152457587Y-57663530D01*
X152590050Y-57795993D01*
X152642441Y-57874402D01*
X152694126Y-57951754D01*
X152765814Y-58124825D01*
X152802360Y-58308553D01*
X152802360Y-58495887D01*
X152765814Y-58679615D01*
X152694126Y-58852686D01*
X152694125Y-58852687D01*
X152590050Y-59008447D01*
X152457587Y-59140910D01*
X152453784Y-59143451D01*
X152301826Y-59244986D01*
X152128755Y-59316674D01*
X151945027Y-59353220D01*
X151757693Y-59353220D01*
X151573965Y-59316674D01*
X151400894Y-59244986D01*
X151248936Y-59143451D01*
X151245133Y-59140910D01*
X151112670Y-59008447D01*
X151008595Y-58852687D01*
X151008594Y-58852686D01*
X150936906Y-58679615D01*
X150900360Y-58495887D01*
X150900360Y-58308553D01*
X150936906Y-58124825D01*
X151008594Y-57951754D01*
X151060279Y-57874402D01*
X151112670Y-57795993D01*
X151245133Y-57663530D01*
X151323542Y-57611139D01*
X151400894Y-57559454D01*
X151573965Y-57487766D01*
X151757693Y-57451220D01*
X151945027Y-57451220D01*
X152128755Y-57487766D01*
G37*
G36*
X150262360Y-59353220D02*
G01*
X148360360Y-59353220D01*
X148360360Y-57451220D01*
X150262360Y-57451220D01*
X150262360Y-59353220D01*
G37*
G36*
X188327512Y-55745927D02*
G01*
X188476812Y-55775624D01*
X188640784Y-55843544D01*
X188788354Y-55942147D01*
X188913853Y-56067646D01*
X189012456Y-56215216D01*
X189080376Y-56379188D01*
X189115000Y-56553259D01*
X189115000Y-56730741D01*
X189080376Y-56904812D01*
X189012456Y-57068784D01*
X188913853Y-57216354D01*
X188788354Y-57341853D01*
X188640784Y-57440456D01*
X188476812Y-57508376D01*
X188327512Y-57538073D01*
X188302742Y-57543000D01*
X188125258Y-57543000D01*
X188100488Y-57538073D01*
X187951188Y-57508376D01*
X187787216Y-57440456D01*
X187639646Y-57341853D01*
X187514147Y-57216354D01*
X187415544Y-57068784D01*
X187347624Y-56904812D01*
X187313000Y-56730741D01*
X187313000Y-56553259D01*
X187347624Y-56379188D01*
X187415544Y-56215216D01*
X187514147Y-56067646D01*
X187639646Y-55942147D01*
X187787216Y-55843544D01*
X187951188Y-55775624D01*
X188100488Y-55745927D01*
X188125258Y-55741000D01*
X188302742Y-55741000D01*
X188327512Y-55745927D01*
G37*
G36*
X113397512Y-55745927D02*
G01*
X113546812Y-55775624D01*
X113710784Y-55843544D01*
X113858354Y-55942147D01*
X113983853Y-56067646D01*
X114082456Y-56215216D01*
X114150376Y-56379188D01*
X114185000Y-56553259D01*
X114185000Y-56730741D01*
X114150376Y-56904812D01*
X114082456Y-57068784D01*
X113983853Y-57216354D01*
X113858354Y-57341853D01*
X113710784Y-57440456D01*
X113546812Y-57508376D01*
X113397512Y-57538073D01*
X113372742Y-57543000D01*
X113195258Y-57543000D01*
X113170488Y-57538073D01*
X113021188Y-57508376D01*
X112857216Y-57440456D01*
X112709646Y-57341853D01*
X112584147Y-57216354D01*
X112485544Y-57068784D01*
X112417624Y-56904812D01*
X112383000Y-56730741D01*
X112383000Y-56553259D01*
X112417624Y-56379188D01*
X112485544Y-56215216D01*
X112584147Y-56067646D01*
X112709646Y-55942147D01*
X112857216Y-55843544D01*
X113021188Y-55775624D01*
X113170488Y-55745927D01*
X113195258Y-55741000D01*
X113372742Y-55741000D01*
X113397512Y-55745927D01*
G37*
G36*
X188327512Y-53205927D02*
G01*
X188476812Y-53235624D01*
X188640784Y-53303544D01*
X188788354Y-53402147D01*
X188913853Y-53527646D01*
X189012456Y-53675216D01*
X189080376Y-53839188D01*
X189115000Y-54013259D01*
X189115000Y-54190741D01*
X189080376Y-54364812D01*
X189012456Y-54528784D01*
X188913853Y-54676354D01*
X188788354Y-54801853D01*
X188640784Y-54900456D01*
X188476812Y-54968376D01*
X188327512Y-54998073D01*
X188302742Y-55003000D01*
X188125258Y-55003000D01*
X188100488Y-54998073D01*
X187951188Y-54968376D01*
X187787216Y-54900456D01*
X187639646Y-54801853D01*
X187514147Y-54676354D01*
X187415544Y-54528784D01*
X187347624Y-54364812D01*
X187313000Y-54190741D01*
X187313000Y-54013259D01*
X187347624Y-53839188D01*
X187415544Y-53675216D01*
X187514147Y-53527646D01*
X187639646Y-53402147D01*
X187787216Y-53303544D01*
X187951188Y-53235624D01*
X188100488Y-53205927D01*
X188125258Y-53201000D01*
X188302742Y-53201000D01*
X188327512Y-53205927D01*
G37*
G36*
X113397512Y-53205927D02*
G01*
X113546812Y-53235624D01*
X113710784Y-53303544D01*
X113858354Y-53402147D01*
X113983853Y-53527646D01*
X114082456Y-53675216D01*
X114150376Y-53839188D01*
X114185000Y-54013259D01*
X114185000Y-54190741D01*
X114150376Y-54364812D01*
X114082456Y-54528784D01*
X113983853Y-54676354D01*
X113858354Y-54801853D01*
X113710784Y-54900456D01*
X113546812Y-54968376D01*
X113397512Y-54998073D01*
X113372742Y-55003000D01*
X113195258Y-55003000D01*
X113170488Y-54998073D01*
X113021188Y-54968376D01*
X112857216Y-54900456D01*
X112709646Y-54801853D01*
X112584147Y-54676354D01*
X112485544Y-54528784D01*
X112417624Y-54364812D01*
X112383000Y-54190741D01*
X112383000Y-54013259D01*
X112417624Y-53839188D01*
X112485544Y-53675216D01*
X112584147Y-53527646D01*
X112709646Y-53402147D01*
X112857216Y-53303544D01*
X113021188Y-53235624D01*
X113170488Y-53205927D01*
X113195258Y-53201000D01*
X113372742Y-53201000D01*
X113397512Y-53205927D01*
G37*
G36*
X113397512Y-50665927D02*
G01*
X113546812Y-50695624D01*
X113710784Y-50763544D01*
X113858354Y-50862147D01*
X113983853Y-50987646D01*
X114082456Y-51135216D01*
X114150376Y-51299188D01*
X114185000Y-51473259D01*
X114185000Y-51650741D01*
X114150376Y-51824812D01*
X114082456Y-51988784D01*
X113983853Y-52136354D01*
X113858354Y-52261853D01*
X113710784Y-52360456D01*
X113546812Y-52428376D01*
X113397512Y-52458073D01*
X113372742Y-52463000D01*
X113195258Y-52463000D01*
X113170488Y-52458073D01*
X113021188Y-52428376D01*
X112857216Y-52360456D01*
X112709646Y-52261853D01*
X112584147Y-52136354D01*
X112485544Y-51988784D01*
X112417624Y-51824812D01*
X112383000Y-51650741D01*
X112383000Y-51473259D01*
X112417624Y-51299188D01*
X112485544Y-51135216D01*
X112584147Y-50987646D01*
X112709646Y-50862147D01*
X112857216Y-50763544D01*
X113021188Y-50695624D01*
X113170488Y-50665927D01*
X113195258Y-50661000D01*
X113372742Y-50661000D01*
X113397512Y-50665927D01*
G37*
G36*
X188327512Y-50665927D02*
G01*
X188476812Y-50695624D01*
X188640784Y-50763544D01*
X188788354Y-50862147D01*
X188913853Y-50987646D01*
X189012456Y-51135216D01*
X189080376Y-51299188D01*
X189115000Y-51473259D01*
X189115000Y-51650741D01*
X189080376Y-51824812D01*
X189012456Y-51988784D01*
X188913853Y-52136354D01*
X188788354Y-52261853D01*
X188640784Y-52360456D01*
X188476812Y-52428376D01*
X188327512Y-52458073D01*
X188302742Y-52463000D01*
X188125258Y-52463000D01*
X188100488Y-52458073D01*
X187951188Y-52428376D01*
X187787216Y-52360456D01*
X187639646Y-52261853D01*
X187514147Y-52136354D01*
X187415544Y-51988784D01*
X187347624Y-51824812D01*
X187313000Y-51650741D01*
X187313000Y-51473259D01*
X187347624Y-51299188D01*
X187415544Y-51135216D01*
X187514147Y-50987646D01*
X187639646Y-50862147D01*
X187787216Y-50763544D01*
X187951188Y-50695624D01*
X188100488Y-50665927D01*
X188125258Y-50661000D01*
X188302742Y-50661000D01*
X188327512Y-50665927D01*
G37*
G36*
X113397512Y-48125927D02*
G01*
X113546812Y-48155624D01*
X113710784Y-48223544D01*
X113858354Y-48322147D01*
X113983853Y-48447646D01*
X114082456Y-48595216D01*
X114150376Y-48759188D01*
X114185000Y-48933259D01*
X114185000Y-49110741D01*
X114150376Y-49284812D01*
X114082456Y-49448784D01*
X113983853Y-49596354D01*
X113858354Y-49721853D01*
X113710784Y-49820456D01*
X113546812Y-49888376D01*
X113397512Y-49918073D01*
X113372742Y-49923000D01*
X113195258Y-49923000D01*
X113170488Y-49918073D01*
X113021188Y-49888376D01*
X112857216Y-49820456D01*
X112709646Y-49721853D01*
X112584147Y-49596354D01*
X112485544Y-49448784D01*
X112417624Y-49284812D01*
X112383000Y-49110741D01*
X112383000Y-48933259D01*
X112417624Y-48759188D01*
X112485544Y-48595216D01*
X112584147Y-48447646D01*
X112709646Y-48322147D01*
X112857216Y-48223544D01*
X113021188Y-48155624D01*
X113170488Y-48125927D01*
X113195258Y-48121000D01*
X113372742Y-48121000D01*
X113397512Y-48125927D01*
G37*
G36*
X188327512Y-48125927D02*
G01*
X188476812Y-48155624D01*
X188640784Y-48223544D01*
X188788354Y-48322147D01*
X188913853Y-48447646D01*
X189012456Y-48595216D01*
X189080376Y-48759188D01*
X189115000Y-48933259D01*
X189115000Y-49110741D01*
X189080376Y-49284812D01*
X189012456Y-49448784D01*
X188913853Y-49596354D01*
X188788354Y-49721853D01*
X188640784Y-49820456D01*
X188476812Y-49888376D01*
X188327512Y-49918073D01*
X188302742Y-49923000D01*
X188125258Y-49923000D01*
X188100488Y-49918073D01*
X187951188Y-49888376D01*
X187787216Y-49820456D01*
X187639646Y-49721853D01*
X187514147Y-49596354D01*
X187415544Y-49448784D01*
X187347624Y-49284812D01*
X187313000Y-49110741D01*
X187313000Y-48933259D01*
X187347624Y-48759188D01*
X187415544Y-48595216D01*
X187514147Y-48447646D01*
X187639646Y-48322147D01*
X187787216Y-48223544D01*
X187951188Y-48155624D01*
X188100488Y-48125927D01*
X188125258Y-48121000D01*
X188302742Y-48121000D01*
X188327512Y-48125927D01*
G37*
G36*
X162756115Y-47127106D02*
G01*
X162929186Y-47198794D01*
X162929187Y-47198795D01*
X163084947Y-47302870D01*
X163217410Y-47435333D01*
X163217411Y-47435335D01*
X163321486Y-47591094D01*
X163393174Y-47764165D01*
X163429720Y-47947893D01*
X163429720Y-48135227D01*
X163393174Y-48318955D01*
X163321486Y-48492026D01*
X163321485Y-48492027D01*
X163217410Y-48647787D01*
X163084947Y-48780250D01*
X163006538Y-48832641D01*
X162929186Y-48884326D01*
X162756115Y-48956014D01*
X162572387Y-48992560D01*
X162385053Y-48992560D01*
X162201325Y-48956014D01*
X162028254Y-48884326D01*
X161950902Y-48832641D01*
X161872493Y-48780250D01*
X161740030Y-48647787D01*
X161635955Y-48492027D01*
X161635954Y-48492026D01*
X161564266Y-48318955D01*
X161527720Y-48135227D01*
X161527720Y-47947893D01*
X161564266Y-47764165D01*
X161635954Y-47591094D01*
X161740029Y-47435335D01*
X161740030Y-47435333D01*
X161872493Y-47302870D01*
X162028253Y-47198795D01*
X162028254Y-47198794D01*
X162201325Y-47127106D01*
X162385053Y-47090560D01*
X162572387Y-47090560D01*
X162756115Y-47127106D01*
G37*
G36*
X160889720Y-48992560D02*
G01*
X158987720Y-48992560D01*
X158987720Y-47090560D01*
X160889720Y-47090560D01*
X160889720Y-48992560D01*
G37*
G36*
X142172460Y-48959540D02*
G01*
X140270460Y-48959540D01*
X140270460Y-47057540D01*
X142172460Y-47057540D01*
X142172460Y-48959540D01*
G37*
G36*
X138958855Y-47094086D02*
G01*
X139131926Y-47165774D01*
X139131927Y-47165775D01*
X139287687Y-47269850D01*
X139420150Y-47402313D01*
X139420151Y-47402315D01*
X139524226Y-47558074D01*
X139595914Y-47731145D01*
X139632460Y-47914873D01*
X139632460Y-48102207D01*
X139595914Y-48285935D01*
X139524226Y-48459006D01*
X139524225Y-48459007D01*
X139420150Y-48614767D01*
X139287687Y-48747230D01*
X139269789Y-48759189D01*
X139131926Y-48851306D01*
X138958855Y-48922994D01*
X138775127Y-48959540D01*
X138587793Y-48959540D01*
X138404065Y-48922994D01*
X138230994Y-48851306D01*
X138093131Y-48759189D01*
X138075233Y-48747230D01*
X137942770Y-48614767D01*
X137838695Y-48459007D01*
X137838694Y-48459006D01*
X137767006Y-48285935D01*
X137730460Y-48102207D01*
X137730460Y-47914873D01*
X137767006Y-47731145D01*
X137838694Y-47558074D01*
X137942769Y-47402315D01*
X137942770Y-47402313D01*
X138075233Y-47269850D01*
X138230993Y-47165775D01*
X138230994Y-47165774D01*
X138404065Y-47094086D01*
X138587793Y-47057540D01*
X138775127Y-47057540D01*
X138958855Y-47094086D01*
G37*
G36*
X188327512Y-45585927D02*
G01*
X188476812Y-45615624D01*
X188640784Y-45683544D01*
X188788354Y-45782147D01*
X188913853Y-45907646D01*
X189012456Y-46055216D01*
X189080376Y-46219188D01*
X189115000Y-46393259D01*
X189115000Y-46570741D01*
X189080376Y-46744812D01*
X189012456Y-46908784D01*
X188913853Y-47056354D01*
X188788354Y-47181853D01*
X188640784Y-47280456D01*
X188476812Y-47348376D01*
X188327512Y-47378073D01*
X188302742Y-47383000D01*
X188125258Y-47383000D01*
X188100488Y-47378073D01*
X187951188Y-47348376D01*
X187787216Y-47280456D01*
X187639646Y-47181853D01*
X187514147Y-47056354D01*
X187415544Y-46908784D01*
X187347624Y-46744812D01*
X187313000Y-46570741D01*
X187313000Y-46393259D01*
X187347624Y-46219188D01*
X187415544Y-46055216D01*
X187514147Y-45907646D01*
X187639646Y-45782147D01*
X187787216Y-45683544D01*
X187951188Y-45615624D01*
X188100488Y-45585927D01*
X188125258Y-45581000D01*
X188302742Y-45581000D01*
X188327512Y-45585927D01*
G37*
G36*
X113397512Y-45585927D02*
G01*
X113546812Y-45615624D01*
X113710784Y-45683544D01*
X113858354Y-45782147D01*
X113983853Y-45907646D01*
X114082456Y-46055216D01*
X114150376Y-46219188D01*
X114185000Y-46393259D01*
X114185000Y-46570741D01*
X114150376Y-46744812D01*
X114082456Y-46908784D01*
X113983853Y-47056354D01*
X113858354Y-47181853D01*
X113710784Y-47280456D01*
X113546812Y-47348376D01*
X113397512Y-47378073D01*
X113372742Y-47383000D01*
X113195258Y-47383000D01*
X113170488Y-47378073D01*
X113021188Y-47348376D01*
X112857216Y-47280456D01*
X112709646Y-47181853D01*
X112584147Y-47056354D01*
X112485544Y-46908784D01*
X112417624Y-46744812D01*
X112383000Y-46570741D01*
X112383000Y-46393259D01*
X112417624Y-46219188D01*
X112485544Y-46055216D01*
X112584147Y-45907646D01*
X112709646Y-45782147D01*
X112857216Y-45683544D01*
X113021188Y-45615624D01*
X113170488Y-45585927D01*
X113195258Y-45581000D01*
X113372742Y-45581000D01*
X113397512Y-45585927D01*
G37*
G36*
X188327512Y-43045927D02*
G01*
X188476812Y-43075624D01*
X188640784Y-43143544D01*
X188788354Y-43242147D01*
X188913853Y-43367646D01*
X189012456Y-43515216D01*
X189080376Y-43679188D01*
X189115000Y-43853259D01*
X189115000Y-44030741D01*
X189080376Y-44204812D01*
X189012456Y-44368784D01*
X188913853Y-44516354D01*
X188788354Y-44641853D01*
X188640784Y-44740456D01*
X188476812Y-44808376D01*
X188327512Y-44838073D01*
X188302742Y-44843000D01*
X188125258Y-44843000D01*
X188100488Y-44838073D01*
X187951188Y-44808376D01*
X187787216Y-44740456D01*
X187639646Y-44641853D01*
X187514147Y-44516354D01*
X187415544Y-44368784D01*
X187347624Y-44204812D01*
X187313000Y-44030741D01*
X187313000Y-43853259D01*
X187347624Y-43679188D01*
X187415544Y-43515216D01*
X187514147Y-43367646D01*
X187639646Y-43242147D01*
X187787216Y-43143544D01*
X187951188Y-43075624D01*
X188100488Y-43045927D01*
X188125258Y-43041000D01*
X188302742Y-43041000D01*
X188327512Y-43045927D01*
G37*
G36*
X113397512Y-43045927D02*
G01*
X113546812Y-43075624D01*
X113710784Y-43143544D01*
X113858354Y-43242147D01*
X113983853Y-43367646D01*
X114082456Y-43515216D01*
X114150376Y-43679188D01*
X114185000Y-43853259D01*
X114185000Y-44030741D01*
X114150376Y-44204812D01*
X114082456Y-44368784D01*
X113983853Y-44516354D01*
X113858354Y-44641853D01*
X113710784Y-44740456D01*
X113546812Y-44808376D01*
X113397512Y-44838073D01*
X113372742Y-44843000D01*
X113195258Y-44843000D01*
X113170488Y-44838073D01*
X113021188Y-44808376D01*
X112857216Y-44740456D01*
X112709646Y-44641853D01*
X112584147Y-44516354D01*
X112485544Y-44368784D01*
X112417624Y-44204812D01*
X112383000Y-44030741D01*
X112383000Y-43853259D01*
X112417624Y-43679188D01*
X112485544Y-43515216D01*
X112584147Y-43367646D01*
X112709646Y-43242147D01*
X112857216Y-43143544D01*
X113021188Y-43075624D01*
X113170488Y-43045927D01*
X113195258Y-43041000D01*
X113372742Y-43041000D01*
X113397512Y-43045927D01*
G37*
G36*
X128268441Y-40334360D02*
G01*
X128532505Y-40443739D01*
X128770158Y-40602534D01*
X128972266Y-40804642D01*
X129131061Y-41042295D01*
X129240440Y-41306359D01*
X129296200Y-41586688D01*
X129296200Y-41872512D01*
X129240440Y-42152841D01*
X129131061Y-42416905D01*
X128972266Y-42654558D01*
X128770158Y-42856666D01*
X128532505Y-43015461D01*
X128268441Y-43124840D01*
X127988112Y-43180600D01*
X127702288Y-43180600D01*
X127421959Y-43124840D01*
X127157895Y-43015461D01*
X126920242Y-42856666D01*
X126718134Y-42654558D01*
X126559339Y-42416905D01*
X126449960Y-42152841D01*
X126394200Y-41872512D01*
X126394200Y-41586688D01*
X126449960Y-41306359D01*
X126559339Y-41042295D01*
X126718134Y-40804642D01*
X126920242Y-40602534D01*
X127157895Y-40443739D01*
X127421959Y-40334360D01*
X127702288Y-40278600D01*
X127988112Y-40278600D01*
X128268441Y-40334360D01*
G37*
G36*
X173734441Y-40334360D02*
G01*
X173998505Y-40443739D01*
X174236158Y-40602534D01*
X174438266Y-40804642D01*
X174597061Y-41042295D01*
X174706440Y-41306359D01*
X174762200Y-41586688D01*
X174762200Y-41872512D01*
X174706440Y-42152841D01*
X174597061Y-42416905D01*
X174438266Y-42654558D01*
X174236158Y-42856666D01*
X173998505Y-43015461D01*
X173734441Y-43124840D01*
X173454112Y-43180600D01*
X173168288Y-43180600D01*
X172887959Y-43124840D01*
X172623895Y-43015461D01*
X172386242Y-42856666D01*
X172184134Y-42654558D01*
X172025339Y-42416905D01*
X171915960Y-42152841D01*
X171860200Y-41872512D01*
X171860200Y-41586688D01*
X171915960Y-41306359D01*
X172025339Y-41042295D01*
X172184134Y-40804642D01*
X172386242Y-40602534D01*
X172623895Y-40443739D01*
X172887959Y-40334360D01*
X173168288Y-40278600D01*
X173454112Y-40278600D01*
X173734441Y-40334360D01*
G37*
G36*
X189115000Y-42303000D02*
G01*
X187313000Y-42303000D01*
X187313000Y-40501000D01*
X189115000Y-40501000D01*
X189115000Y-42303000D01*
G37*
G36*
X114185000Y-42303000D02*
G01*
X112383000Y-42303000D01*
X112383000Y-40501000D01*
X114185000Y-40501000D01*
X114185000Y-42303000D01*
G37*
G36*
X166117764Y-37618989D02*
G01*
X166201071Y-37653496D01*
X166309035Y-37698216D01*
X166481173Y-37813235D01*
X166627565Y-37959627D01*
X166731242Y-38114790D01*
X166742585Y-38131767D01*
X166821811Y-38323036D01*
X166862200Y-38526084D01*
X166862200Y-38733116D01*
X166821811Y-38936164D01*
X166742585Y-39127433D01*
X166742584Y-39127435D01*
X166627565Y-39299573D01*
X166481173Y-39445965D01*
X166309035Y-39560984D01*
X166309034Y-39560985D01*
X166309033Y-39560985D01*
X166117764Y-39640211D01*
X165914716Y-39680600D01*
X165707684Y-39680600D01*
X165504636Y-39640211D01*
X165313367Y-39560985D01*
X165313366Y-39560985D01*
X165313365Y-39560984D01*
X165141227Y-39445965D01*
X164994835Y-39299573D01*
X164879816Y-39127435D01*
X164879815Y-39127433D01*
X164800589Y-38936164D01*
X164760200Y-38733116D01*
X164760200Y-38526084D01*
X164800589Y-38323036D01*
X164879815Y-38131767D01*
X164891159Y-38114790D01*
X164994835Y-37959627D01*
X165141227Y-37813235D01*
X165313365Y-37698216D01*
X165421329Y-37653496D01*
X165504636Y-37618989D01*
X165707684Y-37578600D01*
X165914716Y-37578600D01*
X166117764Y-37618989D01*
G37*
G36*
X180617764Y-37618989D02*
G01*
X180701071Y-37653496D01*
X180809035Y-37698216D01*
X180981173Y-37813235D01*
X181127565Y-37959627D01*
X181231242Y-38114790D01*
X181242585Y-38131767D01*
X181321811Y-38323036D01*
X181362200Y-38526084D01*
X181362200Y-38733116D01*
X181321811Y-38936164D01*
X181242585Y-39127433D01*
X181242584Y-39127435D01*
X181127565Y-39299573D01*
X180981173Y-39445965D01*
X180809035Y-39560984D01*
X180809034Y-39560985D01*
X180809033Y-39560985D01*
X180617764Y-39640211D01*
X180414716Y-39680600D01*
X180207684Y-39680600D01*
X180004636Y-39640211D01*
X179813367Y-39560985D01*
X179813366Y-39560985D01*
X179813365Y-39560984D01*
X179641227Y-39445965D01*
X179494835Y-39299573D01*
X179379816Y-39127435D01*
X179379815Y-39127433D01*
X179300589Y-38936164D01*
X179260200Y-38733116D01*
X179260200Y-38526084D01*
X179300589Y-38323036D01*
X179379815Y-38131767D01*
X179391159Y-38114790D01*
X179494835Y-37959627D01*
X179641227Y-37813235D01*
X179813365Y-37698216D01*
X179921329Y-37653496D01*
X180004636Y-37618989D01*
X180207684Y-37578600D01*
X180414716Y-37578600D01*
X180617764Y-37618989D01*
G37*
G36*
X135151764Y-37618989D02*
G01*
X135235071Y-37653496D01*
X135343035Y-37698216D01*
X135515173Y-37813235D01*
X135661565Y-37959627D01*
X135765242Y-38114790D01*
X135776585Y-38131767D01*
X135855811Y-38323036D01*
X135896200Y-38526084D01*
X135896200Y-38733116D01*
X135855811Y-38936164D01*
X135776585Y-39127433D01*
X135776584Y-39127435D01*
X135661565Y-39299573D01*
X135515173Y-39445965D01*
X135343035Y-39560984D01*
X135343034Y-39560985D01*
X135343033Y-39560985D01*
X135151764Y-39640211D01*
X134948716Y-39680600D01*
X134741684Y-39680600D01*
X134538636Y-39640211D01*
X134347367Y-39560985D01*
X134347366Y-39560985D01*
X134347365Y-39560984D01*
X134175227Y-39445965D01*
X134028835Y-39299573D01*
X133913816Y-39127435D01*
X133913815Y-39127433D01*
X133834589Y-38936164D01*
X133794200Y-38733116D01*
X133794200Y-38526084D01*
X133834589Y-38323036D01*
X133913815Y-38131767D01*
X133925159Y-38114790D01*
X134028835Y-37959627D01*
X134175227Y-37813235D01*
X134347365Y-37698216D01*
X134455329Y-37653496D01*
X134538636Y-37618989D01*
X134741684Y-37578600D01*
X134948716Y-37578600D01*
X135151764Y-37618989D01*
G37*
G36*
X120651764Y-37618989D02*
G01*
X120735071Y-37653496D01*
X120843035Y-37698216D01*
X121015173Y-37813235D01*
X121161565Y-37959627D01*
X121265242Y-38114790D01*
X121276585Y-38131767D01*
X121355811Y-38323036D01*
X121396200Y-38526084D01*
X121396200Y-38733116D01*
X121355811Y-38936164D01*
X121276585Y-39127433D01*
X121276584Y-39127435D01*
X121161565Y-39299573D01*
X121015173Y-39445965D01*
X120843035Y-39560984D01*
X120843034Y-39560985D01*
X120843033Y-39560985D01*
X120651764Y-39640211D01*
X120448716Y-39680600D01*
X120241684Y-39680600D01*
X120038636Y-39640211D01*
X119847367Y-39560985D01*
X119847366Y-39560985D01*
X119847365Y-39560984D01*
X119675227Y-39445965D01*
X119528835Y-39299573D01*
X119413816Y-39127435D01*
X119413815Y-39127433D01*
X119334589Y-38936164D01*
X119294200Y-38733116D01*
X119294200Y-38526084D01*
X119334589Y-38323036D01*
X119413815Y-38131767D01*
X119425159Y-38114790D01*
X119528835Y-37959627D01*
X119675227Y-37813235D01*
X119847365Y-37698216D01*
X119955329Y-37653496D01*
X120038636Y-37618989D01*
X120241684Y-37578600D01*
X120448716Y-37578600D01*
X120651764Y-37618989D01*
G37*
G36*
X168611674Y-37861465D02*
G01*
X168649367Y-37872899D01*
X168684103Y-37891466D01*
X168714548Y-37916452D01*
X168739534Y-37946897D01*
X168758101Y-37981633D01*
X168769535Y-38019326D01*
X168774000Y-38064661D01*
X168774000Y-39151339D01*
X168769535Y-39196674D01*
X168758101Y-39234367D01*
X168739534Y-39269103D01*
X168714548Y-39299548D01*
X168684103Y-39324534D01*
X168649367Y-39343101D01*
X168611674Y-39354535D01*
X168566339Y-39359000D01*
X167729661Y-39359000D01*
X167684326Y-39354535D01*
X167646633Y-39343101D01*
X167611897Y-39324534D01*
X167581452Y-39299548D01*
X167556466Y-39269103D01*
X167537899Y-39234367D01*
X167526465Y-39196674D01*
X167522000Y-39151339D01*
X167522000Y-38064661D01*
X167526465Y-38019326D01*
X167537899Y-37981633D01*
X167556466Y-37946897D01*
X167581452Y-37916452D01*
X167611897Y-37891466D01*
X167646633Y-37872899D01*
X167684326Y-37861465D01*
X167729661Y-37857000D01*
X168566339Y-37857000D01*
X168611674Y-37861465D01*
G37*
G36*
X125177674Y-37861465D02*
G01*
X125215367Y-37872899D01*
X125250103Y-37891466D01*
X125280548Y-37916452D01*
X125305534Y-37946897D01*
X125324101Y-37981633D01*
X125335535Y-38019326D01*
X125340000Y-38064661D01*
X125340000Y-39151339D01*
X125335535Y-39196674D01*
X125324101Y-39234367D01*
X125305534Y-39269103D01*
X125280548Y-39299548D01*
X125250103Y-39324534D01*
X125215367Y-39343101D01*
X125177674Y-39354535D01*
X125132339Y-39359000D01*
X124295661Y-39359000D01*
X124250326Y-39354535D01*
X124212633Y-39343101D01*
X124177897Y-39324534D01*
X124147452Y-39299548D01*
X124122466Y-39269103D01*
X124103899Y-39234367D01*
X124092465Y-39196674D01*
X124088000Y-39151339D01*
X124088000Y-38064661D01*
X124092465Y-38019326D01*
X124103899Y-37981633D01*
X124122466Y-37946897D01*
X124147452Y-37916452D01*
X124177897Y-37891466D01*
X124212633Y-37872899D01*
X124250326Y-37861465D01*
X124295661Y-37857000D01*
X125132339Y-37857000D01*
X125177674Y-37861465D01*
G37*
G36*
X123127674Y-37861465D02*
G01*
X123165367Y-37872899D01*
X123200103Y-37891466D01*
X123230548Y-37916452D01*
X123255534Y-37946897D01*
X123274101Y-37981633D01*
X123285535Y-38019326D01*
X123290000Y-38064661D01*
X123290000Y-39151339D01*
X123285535Y-39196674D01*
X123274101Y-39234367D01*
X123255534Y-39269103D01*
X123230548Y-39299548D01*
X123200103Y-39324534D01*
X123165367Y-39343101D01*
X123127674Y-39354535D01*
X123082339Y-39359000D01*
X122245661Y-39359000D01*
X122200326Y-39354535D01*
X122162633Y-39343101D01*
X122127897Y-39324534D01*
X122097452Y-39299548D01*
X122072466Y-39269103D01*
X122053899Y-39234367D01*
X122042465Y-39196674D01*
X122038000Y-39151339D01*
X122038000Y-38064661D01*
X122042465Y-38019326D01*
X122053899Y-37981633D01*
X122072466Y-37946897D01*
X122097452Y-37916452D01*
X122127897Y-37891466D01*
X122162633Y-37872899D01*
X122200326Y-37861465D01*
X122245661Y-37857000D01*
X123082339Y-37857000D01*
X123127674Y-37861465D01*
G37*
G36*
X170661674Y-37861465D02*
G01*
X170699367Y-37872899D01*
X170734103Y-37891466D01*
X170764548Y-37916452D01*
X170789534Y-37946897D01*
X170808101Y-37981633D01*
X170819535Y-38019326D01*
X170824000Y-38064661D01*
X170824000Y-39151339D01*
X170819535Y-39196674D01*
X170808101Y-39234367D01*
X170789534Y-39269103D01*
X170764548Y-39299548D01*
X170734103Y-39324534D01*
X170699367Y-39343101D01*
X170661674Y-39354535D01*
X170616339Y-39359000D01*
X169779661Y-39359000D01*
X169734326Y-39354535D01*
X169696633Y-39343101D01*
X169661897Y-39324534D01*
X169631452Y-39299548D01*
X169606466Y-39269103D01*
X169587899Y-39234367D01*
X169576465Y-39196674D01*
X169572000Y-39151339D01*
X169572000Y-38064661D01*
X169576465Y-38019326D01*
X169587899Y-37981633D01*
X169606466Y-37946897D01*
X169631452Y-37916452D01*
X169661897Y-37891466D01*
X169696633Y-37872899D01*
X169734326Y-37861465D01*
X169779661Y-37857000D01*
X170616339Y-37857000D01*
X170661674Y-37861465D01*
G37*
G36*
X150858755Y-36461646D02*
G01*
X151031826Y-36533334D01*
X151031827Y-36533335D01*
X151187587Y-36637410D01*
X151320050Y-36769873D01*
X151320051Y-36769875D01*
X151424126Y-36925634D01*
X151495814Y-37098705D01*
X151532360Y-37282433D01*
X151532360Y-37469767D01*
X151495814Y-37653495D01*
X151424126Y-37826566D01*
X151400807Y-37861465D01*
X151320050Y-37982327D01*
X151187587Y-38114790D01*
X151166061Y-38129173D01*
X151031826Y-38218866D01*
X150858755Y-38290554D01*
X150675027Y-38327100D01*
X150487693Y-38327100D01*
X150303965Y-38290554D01*
X150130894Y-38218866D01*
X149996659Y-38129173D01*
X149975133Y-38114790D01*
X149842670Y-37982327D01*
X149761913Y-37861465D01*
X149738594Y-37826566D01*
X149666906Y-37653495D01*
X149630360Y-37469767D01*
X149630360Y-37282433D01*
X149666906Y-37098705D01*
X149738594Y-36925634D01*
X149842669Y-36769875D01*
X149842670Y-36769873D01*
X149975133Y-36637410D01*
X150130893Y-36533335D01*
X150130894Y-36533334D01*
X150303965Y-36461646D01*
X150487693Y-36425100D01*
X150675027Y-36425100D01*
X150858755Y-36461646D01*
G37*
G36*
X120651764Y-35118989D02*
G01*
X120843033Y-35198215D01*
X120843035Y-35198216D01*
X121015173Y-35313235D01*
X121161565Y-35459627D01*
X121276585Y-35631767D01*
X121355811Y-35823036D01*
X121396200Y-36026084D01*
X121396200Y-36233116D01*
X121355811Y-36436164D01*
X121276585Y-36627433D01*
X121276584Y-36627435D01*
X121161565Y-36799573D01*
X121015173Y-36945965D01*
X120843035Y-37060984D01*
X120843034Y-37060985D01*
X120843033Y-37060985D01*
X120651764Y-37140211D01*
X120448716Y-37180600D01*
X120241684Y-37180600D01*
X120038636Y-37140211D01*
X119847367Y-37060985D01*
X119847366Y-37060985D01*
X119847365Y-37060984D01*
X119675227Y-36945965D01*
X119528835Y-36799573D01*
X119413816Y-36627435D01*
X119413815Y-36627433D01*
X119334589Y-36436164D01*
X119294200Y-36233116D01*
X119294200Y-36026084D01*
X119334589Y-35823036D01*
X119413815Y-35631767D01*
X119528835Y-35459627D01*
X119675227Y-35313235D01*
X119847365Y-35198216D01*
X119847367Y-35198215D01*
X120038636Y-35118989D01*
X120241684Y-35078600D01*
X120448716Y-35078600D01*
X120651764Y-35118989D01*
G37*
G36*
X166117764Y-35118989D02*
G01*
X166309033Y-35198215D01*
X166309035Y-35198216D01*
X166481173Y-35313235D01*
X166627565Y-35459627D01*
X166742585Y-35631767D01*
X166821811Y-35823036D01*
X166862200Y-36026084D01*
X166862200Y-36233116D01*
X166821811Y-36436164D01*
X166742585Y-36627433D01*
X166742584Y-36627435D01*
X166627565Y-36799573D01*
X166481173Y-36945965D01*
X166309035Y-37060984D01*
X166309034Y-37060985D01*
X166309033Y-37060985D01*
X166117764Y-37140211D01*
X165914716Y-37180600D01*
X165707684Y-37180600D01*
X165504636Y-37140211D01*
X165313367Y-37060985D01*
X165313366Y-37060985D01*
X165313365Y-37060984D01*
X165141227Y-36945965D01*
X164994835Y-36799573D01*
X164879816Y-36627435D01*
X164879815Y-36627433D01*
X164800589Y-36436164D01*
X164760200Y-36233116D01*
X164760200Y-36026084D01*
X164800589Y-35823036D01*
X164879815Y-35631767D01*
X164994835Y-35459627D01*
X165141227Y-35313235D01*
X165313365Y-35198216D01*
X165313367Y-35198215D01*
X165504636Y-35118989D01*
X165707684Y-35078600D01*
X165914716Y-35078600D01*
X166117764Y-35118989D01*
G37*
G36*
X151532360Y-35787100D02*
G01*
X149630360Y-35787100D01*
X149630360Y-33885100D01*
X151532360Y-33885100D01*
X151532360Y-35787100D01*
G37*
G36*
X166862200Y-34680600D02*
G01*
X164760200Y-34680600D01*
X164760200Y-32578600D01*
X166862200Y-32578600D01*
X166862200Y-34680600D01*
G37*
G36*
X121396200Y-34680600D02*
G01*
X119294200Y-34680600D01*
X119294200Y-32578600D01*
X121396200Y-32578600D01*
X121396200Y-34680600D01*
G37*
G36*
X135151764Y-32618989D02*
G01*
X135343033Y-32698215D01*
X135343035Y-32698216D01*
X135515173Y-32813235D01*
X135661565Y-32959627D01*
X135748980Y-33090452D01*
X135776585Y-33131767D01*
X135855811Y-33323036D01*
X135896200Y-33526084D01*
X135896200Y-33733116D01*
X135855811Y-33936164D01*
X135776585Y-34127433D01*
X135776584Y-34127435D01*
X135661565Y-34299573D01*
X135515173Y-34445965D01*
X135343035Y-34560984D01*
X135343034Y-34560985D01*
X135343033Y-34560985D01*
X135151764Y-34640211D01*
X134948716Y-34680600D01*
X134741684Y-34680600D01*
X134538636Y-34640211D01*
X134347367Y-34560985D01*
X134347366Y-34560985D01*
X134347365Y-34560984D01*
X134175227Y-34445965D01*
X134028835Y-34299573D01*
X133913816Y-34127435D01*
X133913815Y-34127433D01*
X133834589Y-33936164D01*
X133794200Y-33733116D01*
X133794200Y-33526084D01*
X133834589Y-33323036D01*
X133913815Y-33131767D01*
X133941421Y-33090452D01*
X134028835Y-32959627D01*
X134175227Y-32813235D01*
X134347365Y-32698216D01*
X134347367Y-32698215D01*
X134538636Y-32618989D01*
X134741684Y-32578600D01*
X134948716Y-32578600D01*
X135151764Y-32618989D01*
G37*
G36*
X180617764Y-32618989D02*
G01*
X180809033Y-32698215D01*
X180809035Y-32698216D01*
X180981173Y-32813235D01*
X181127565Y-32959627D01*
X181214980Y-33090452D01*
X181242585Y-33131767D01*
X181321811Y-33323036D01*
X181362200Y-33526084D01*
X181362200Y-33733116D01*
X181321811Y-33936164D01*
X181242585Y-34127433D01*
X181242584Y-34127435D01*
X181127565Y-34299573D01*
X180981173Y-34445965D01*
X180809035Y-34560984D01*
X180809034Y-34560985D01*
X180809033Y-34560985D01*
X180617764Y-34640211D01*
X180414716Y-34680600D01*
X180207684Y-34680600D01*
X180004636Y-34640211D01*
X179813367Y-34560985D01*
X179813366Y-34560985D01*
X179813365Y-34560984D01*
X179641227Y-34445965D01*
X179494835Y-34299573D01*
X179379816Y-34127435D01*
X179379815Y-34127433D01*
X179300589Y-33936164D01*
X179260200Y-33733116D01*
X179260200Y-33526084D01*
X179300589Y-33323036D01*
X179379815Y-33131767D01*
X179407421Y-33090452D01*
X179494835Y-32959627D01*
X179641227Y-32813235D01*
X179813365Y-32698216D01*
X179813367Y-32698215D01*
X180004636Y-32618989D01*
X180207684Y-32578600D01*
X180414716Y-32578600D01*
X180617764Y-32618989D01*
G37*
G36*
X123145674Y-33035465D02*
G01*
X123183367Y-33046899D01*
X123218103Y-33065466D01*
X123248548Y-33090452D01*
X123273534Y-33120897D01*
X123292101Y-33155633D01*
X123303535Y-33193326D01*
X123308000Y-33238661D01*
X123308000Y-34325339D01*
X123303535Y-34370674D01*
X123292101Y-34408367D01*
X123273534Y-34443103D01*
X123248548Y-34473548D01*
X123218103Y-34498534D01*
X123183367Y-34517101D01*
X123145674Y-34528535D01*
X123100339Y-34533000D01*
X122263661Y-34533000D01*
X122218326Y-34528535D01*
X122180633Y-34517101D01*
X122145897Y-34498534D01*
X122115452Y-34473548D01*
X122090466Y-34443103D01*
X122071899Y-34408367D01*
X122060465Y-34370674D01*
X122056000Y-34325339D01*
X122056000Y-33238661D01*
X122060465Y-33193326D01*
X122071899Y-33155633D01*
X122090466Y-33120897D01*
X122115452Y-33090452D01*
X122145897Y-33065466D01*
X122180633Y-33046899D01*
X122218326Y-33035465D01*
X122263661Y-33031000D01*
X123100339Y-33031000D01*
X123145674Y-33035465D01*
G37*
G36*
X125195674Y-33035465D02*
G01*
X125233367Y-33046899D01*
X125268103Y-33065466D01*
X125298548Y-33090452D01*
X125323534Y-33120897D01*
X125342101Y-33155633D01*
X125353535Y-33193326D01*
X125358000Y-33238661D01*
X125358000Y-34325339D01*
X125353535Y-34370674D01*
X125342101Y-34408367D01*
X125323534Y-34443103D01*
X125298548Y-34473548D01*
X125268103Y-34498534D01*
X125233367Y-34517101D01*
X125195674Y-34528535D01*
X125150339Y-34533000D01*
X124313661Y-34533000D01*
X124268326Y-34528535D01*
X124230633Y-34517101D01*
X124195897Y-34498534D01*
X124165452Y-34473548D01*
X124140466Y-34443103D01*
X124121899Y-34408367D01*
X124110465Y-34370674D01*
X124106000Y-34325339D01*
X124106000Y-33238661D01*
X124110465Y-33193326D01*
X124121899Y-33155633D01*
X124140466Y-33120897D01*
X124165452Y-33090452D01*
X124195897Y-33065466D01*
X124230633Y-33046899D01*
X124268326Y-33035465D01*
X124313661Y-33031000D01*
X125150339Y-33031000D01*
X125195674Y-33035465D01*
G37*
G36*
X168611674Y-32781465D02*
G01*
X168649367Y-32792899D01*
X168684103Y-32811466D01*
X168714548Y-32836452D01*
X168739534Y-32866897D01*
X168758101Y-32901633D01*
X168769535Y-32939326D01*
X168774000Y-32984661D01*
X168774000Y-34071339D01*
X168769535Y-34116674D01*
X168758101Y-34154367D01*
X168739534Y-34189103D01*
X168714548Y-34219548D01*
X168684103Y-34244534D01*
X168649367Y-34263101D01*
X168611674Y-34274535D01*
X168566339Y-34279000D01*
X167729661Y-34279000D01*
X167684326Y-34274535D01*
X167646633Y-34263101D01*
X167611897Y-34244534D01*
X167581452Y-34219548D01*
X167556466Y-34189103D01*
X167537899Y-34154367D01*
X167526465Y-34116674D01*
X167522000Y-34071339D01*
X167522000Y-32984661D01*
X167526465Y-32939326D01*
X167537899Y-32901633D01*
X167556466Y-32866897D01*
X167581452Y-32836452D01*
X167611897Y-32811466D01*
X167646633Y-32792899D01*
X167684326Y-32781465D01*
X167729661Y-32777000D01*
X168566339Y-32777000D01*
X168611674Y-32781465D01*
G37*
G36*
X170661674Y-32781465D02*
G01*
X170699367Y-32792899D01*
X170734103Y-32811466D01*
X170764548Y-32836452D01*
X170789534Y-32866897D01*
X170808101Y-32901633D01*
X170819535Y-32939326D01*
X170824000Y-32984661D01*
X170824000Y-34071339D01*
X170819535Y-34116674D01*
X170808101Y-34154367D01*
X170789534Y-34189103D01*
X170764548Y-34219548D01*
X170734103Y-34244534D01*
X170699367Y-34263101D01*
X170661674Y-34274535D01*
X170616339Y-34279000D01*
X169779661Y-34279000D01*
X169734326Y-34274535D01*
X169696633Y-34263101D01*
X169661897Y-34244534D01*
X169631452Y-34219548D01*
X169606466Y-34189103D01*
X169587899Y-34154367D01*
X169576465Y-34116674D01*
X169572000Y-34071339D01*
X169572000Y-32984661D01*
X169576465Y-32939326D01*
X169587899Y-32901633D01*
X169606466Y-32866897D01*
X169631452Y-32836452D01*
X169661897Y-32811466D01*
X169696633Y-32792899D01*
X169734326Y-32781465D01*
X169779661Y-32777000D01*
X170616339Y-32777000D01*
X170661674Y-32781465D01*
G37*
G36*
X186938256Y-29887298D02*
G01*
X187044579Y-29908447D01*
X187345042Y-30032903D01*
X187615451Y-30213585D01*
X187845415Y-30443549D01*
X188026097Y-30713958D01*
X188125046Y-30952841D01*
X188150553Y-31014422D01*
X188214000Y-31333389D01*
X188214000Y-31658611D01*
X188182800Y-31815461D01*
X188150553Y-31977579D01*
X188026097Y-32278042D01*
X187845415Y-32548451D01*
X187615451Y-32778415D01*
X187345042Y-32959097D01*
X187345041Y-32959098D01*
X187345040Y-32959098D01*
X187283325Y-32984661D01*
X187044579Y-33083553D01*
X187009895Y-33090452D01*
X186725611Y-33147000D01*
X186400389Y-33147000D01*
X186116105Y-33090452D01*
X186081421Y-33083553D01*
X185842675Y-32984661D01*
X185780960Y-32959098D01*
X185780959Y-32959098D01*
X185780958Y-32959097D01*
X185510549Y-32778415D01*
X185280585Y-32548451D01*
X185099903Y-32278042D01*
X184975447Y-31977579D01*
X184943200Y-31815461D01*
X184912000Y-31658611D01*
X184912000Y-31333389D01*
X184975447Y-31014422D01*
X185000955Y-30952841D01*
X185099903Y-30713958D01*
X185280585Y-30443549D01*
X185510549Y-30213585D01*
X185780958Y-30032903D01*
X186081421Y-29908447D01*
X186187744Y-29887298D01*
X186400389Y-29845000D01*
X186725611Y-29845000D01*
X186938256Y-29887298D01*
G37*
G36*
X115310256Y-29887298D02*
G01*
X115416579Y-29908447D01*
X115717042Y-30032903D01*
X115987451Y-30213585D01*
X116217415Y-30443549D01*
X116398097Y-30713958D01*
X116497046Y-30952841D01*
X116522553Y-31014422D01*
X116586000Y-31333389D01*
X116586000Y-31658611D01*
X116554800Y-31815461D01*
X116522553Y-31977579D01*
X116398097Y-32278042D01*
X116217415Y-32548451D01*
X115987451Y-32778415D01*
X115717042Y-32959097D01*
X115717041Y-32959098D01*
X115717040Y-32959098D01*
X115655325Y-32984661D01*
X115416579Y-33083553D01*
X115381895Y-33090452D01*
X115097611Y-33147000D01*
X114772389Y-33147000D01*
X114488105Y-33090452D01*
X114453421Y-33083553D01*
X114214675Y-32984661D01*
X114152960Y-32959098D01*
X114152959Y-32959098D01*
X114152958Y-32959097D01*
X113882549Y-32778415D01*
X113652585Y-32548451D01*
X113471903Y-32278042D01*
X113347447Y-31977579D01*
X113315200Y-31815461D01*
X113284000Y-31658611D01*
X113284000Y-31333389D01*
X113347447Y-31014422D01*
X113372955Y-30952841D01*
X113471903Y-30713958D01*
X113652585Y-30443549D01*
X113882549Y-30213585D01*
X114152958Y-30032903D01*
X114453421Y-29908447D01*
X114559744Y-29887298D01*
X114772389Y-29845000D01*
X115097611Y-29845000D01*
X115310256Y-29887298D01*
G37*
G36*
X128268441Y-29134360D02*
G01*
X128532505Y-29243739D01*
X128770158Y-29402534D01*
X128972266Y-29604642D01*
X129131061Y-29842295D01*
X129240440Y-30106359D01*
X129296200Y-30386688D01*
X129296200Y-30672512D01*
X129240440Y-30952841D01*
X129131061Y-31216905D01*
X128972266Y-31454558D01*
X128770158Y-31656666D01*
X128532505Y-31815461D01*
X128268441Y-31924840D01*
X127988112Y-31980600D01*
X127702288Y-31980600D01*
X127421959Y-31924840D01*
X127157895Y-31815461D01*
X126920242Y-31656666D01*
X126718134Y-31454558D01*
X126559339Y-31216905D01*
X126449960Y-30952841D01*
X126394200Y-30672512D01*
X126394200Y-30386688D01*
X126449960Y-30106359D01*
X126559339Y-29842295D01*
X126718134Y-29604642D01*
X126920242Y-29402534D01*
X127157895Y-29243739D01*
X127421959Y-29134360D01*
X127702288Y-29078600D01*
X127988112Y-29078600D01*
X128268441Y-29134360D01*
G37*
G36*
X173734441Y-29134360D02*
G01*
X173998505Y-29243739D01*
X174236158Y-29402534D01*
X174438266Y-29604642D01*
X174597061Y-29842295D01*
X174706440Y-30106359D01*
X174762200Y-30386688D01*
X174762200Y-30672512D01*
X174706440Y-30952841D01*
X174597061Y-31216905D01*
X174438266Y-31454558D01*
X174236158Y-31656666D01*
X173998505Y-31815461D01*
X173734441Y-31924840D01*
X173454112Y-31980600D01*
X173168288Y-31980600D01*
X172887959Y-31924840D01*
X172623895Y-31815461D01*
X172386242Y-31656666D01*
X172184134Y-31454558D01*
X172025339Y-31216905D01*
X171915960Y-30952841D01*
X171860200Y-30672512D01*
X171860200Y-30386688D01*
X171915960Y-30106359D01*
X172025339Y-29842295D01*
X172184134Y-29604642D01*
X172386242Y-29402534D01*
X172623895Y-29243739D01*
X172887959Y-29134360D01*
X173168288Y-29078600D01*
X173454112Y-29078600D01*
X173734441Y-29134360D01*
G37*
M02*
