G04 #@! TF.GenerationSoftware,KiCad,Pcbnew,(5.1.5-0)*
G04 #@! TF.CreationDate,2020-10-12T11:47:50-05:00*
G04 #@! TF.ProjectId,bells-venn,62656c6c-732d-4766-956e-6e2e6b696361,rev?*
G04 #@! TF.SameCoordinates,Original*
G04 #@! TF.FileFunction,Soldermask,Top*
G04 #@! TF.FilePolarity,Negative*
%FSLAX46Y46*%
G04 Gerber Fmt 4.6, Leading zero omitted, Abs format (unit mm)*
G04 Created by KiCad (PCBNEW (5.1.5-0)) date 2020-10-12 11:47:50*
%MOMM*%
%LPD*%
G04 APERTURE LIST*
%ADD10C,0.100000*%
G04 APERTURE END LIST*
D10*
G36*
X184595560Y-132537064D02*
G01*
X184747027Y-132567193D01*
X184961045Y-132655842D01*
X184961046Y-132655843D01*
X185153654Y-132784539D01*
X185317461Y-132948346D01*
X185403258Y-133076751D01*
X185446158Y-133140955D01*
X185534807Y-133354973D01*
X185580000Y-133582174D01*
X185580000Y-133813826D01*
X185534807Y-134041027D01*
X185446158Y-134255045D01*
X185446157Y-134255046D01*
X185317461Y-134447654D01*
X185153654Y-134611461D01*
X185025249Y-134697258D01*
X184961045Y-134740158D01*
X184747027Y-134828807D01*
X184595560Y-134858936D01*
X184519827Y-134874000D01*
X184288173Y-134874000D01*
X184212440Y-134858936D01*
X184060973Y-134828807D01*
X183846955Y-134740158D01*
X183782751Y-134697258D01*
X183654346Y-134611461D01*
X183490539Y-134447654D01*
X183361843Y-134255046D01*
X183361842Y-134255045D01*
X183273193Y-134041027D01*
X183228000Y-133813826D01*
X183228000Y-133582174D01*
X183273193Y-133354973D01*
X183361842Y-133140955D01*
X183404742Y-133076751D01*
X183490539Y-132948346D01*
X183654346Y-132784539D01*
X183846954Y-132655843D01*
X183846955Y-132655842D01*
X184060973Y-132567193D01*
X184212440Y-132537064D01*
X184288173Y-132522000D01*
X184519827Y-132522000D01*
X184595560Y-132537064D01*
G37*
G36*
X171133560Y-132537064D02*
G01*
X171285027Y-132567193D01*
X171499045Y-132655842D01*
X171499046Y-132655843D01*
X171691654Y-132784539D01*
X171855461Y-132948346D01*
X171941258Y-133076751D01*
X171984158Y-133140955D01*
X172072807Y-133354973D01*
X172118000Y-133582174D01*
X172118000Y-133813826D01*
X172072807Y-134041027D01*
X171984158Y-134255045D01*
X171984157Y-134255046D01*
X171855461Y-134447654D01*
X171691654Y-134611461D01*
X171563249Y-134697258D01*
X171499045Y-134740158D01*
X171285027Y-134828807D01*
X171133560Y-134858936D01*
X171057827Y-134874000D01*
X170826173Y-134874000D01*
X170750440Y-134858936D01*
X170598973Y-134828807D01*
X170384955Y-134740158D01*
X170320751Y-134697258D01*
X170192346Y-134611461D01*
X170028539Y-134447654D01*
X169899843Y-134255046D01*
X169899842Y-134255045D01*
X169811193Y-134041027D01*
X169766000Y-133813826D01*
X169766000Y-133582174D01*
X169811193Y-133354973D01*
X169899842Y-133140955D01*
X169942742Y-133076751D01*
X170028539Y-132948346D01*
X170192346Y-132784539D01*
X170384954Y-132655843D01*
X170384955Y-132655842D01*
X170598973Y-132567193D01*
X170750440Y-132537064D01*
X170826173Y-132522000D01*
X171057827Y-132522000D01*
X171133560Y-132537064D01*
G37*
G36*
X157671560Y-132537064D02*
G01*
X157823027Y-132567193D01*
X158037045Y-132655842D01*
X158037046Y-132655843D01*
X158229654Y-132784539D01*
X158393461Y-132948346D01*
X158479258Y-133076751D01*
X158522158Y-133140955D01*
X158610807Y-133354973D01*
X158656000Y-133582174D01*
X158656000Y-133813826D01*
X158610807Y-134041027D01*
X158522158Y-134255045D01*
X158522157Y-134255046D01*
X158393461Y-134447654D01*
X158229654Y-134611461D01*
X158101249Y-134697258D01*
X158037045Y-134740158D01*
X157823027Y-134828807D01*
X157671560Y-134858936D01*
X157595827Y-134874000D01*
X157364173Y-134874000D01*
X157288440Y-134858936D01*
X157136973Y-134828807D01*
X156922955Y-134740158D01*
X156858751Y-134697258D01*
X156730346Y-134611461D01*
X156566539Y-134447654D01*
X156437843Y-134255046D01*
X156437842Y-134255045D01*
X156349193Y-134041027D01*
X156304000Y-133813826D01*
X156304000Y-133582174D01*
X156349193Y-133354973D01*
X156437842Y-133140955D01*
X156480742Y-133076751D01*
X156566539Y-132948346D01*
X156730346Y-132784539D01*
X156922954Y-132655843D01*
X156922955Y-132655842D01*
X157136973Y-132567193D01*
X157288440Y-132537064D01*
X157364173Y-132522000D01*
X157595827Y-132522000D01*
X157671560Y-132537064D01*
G37*
G36*
X144209560Y-132537064D02*
G01*
X144361027Y-132567193D01*
X144575045Y-132655842D01*
X144575046Y-132655843D01*
X144767654Y-132784539D01*
X144931461Y-132948346D01*
X145017258Y-133076751D01*
X145060158Y-133140955D01*
X145148807Y-133354973D01*
X145194000Y-133582174D01*
X145194000Y-133813826D01*
X145148807Y-134041027D01*
X145060158Y-134255045D01*
X145060157Y-134255046D01*
X144931461Y-134447654D01*
X144767654Y-134611461D01*
X144639249Y-134697258D01*
X144575045Y-134740158D01*
X144361027Y-134828807D01*
X144209560Y-134858936D01*
X144133827Y-134874000D01*
X143902173Y-134874000D01*
X143826440Y-134858936D01*
X143674973Y-134828807D01*
X143460955Y-134740158D01*
X143396751Y-134697258D01*
X143268346Y-134611461D01*
X143104539Y-134447654D01*
X142975843Y-134255046D01*
X142975842Y-134255045D01*
X142887193Y-134041027D01*
X142842000Y-133813826D01*
X142842000Y-133582174D01*
X142887193Y-133354973D01*
X142975842Y-133140955D01*
X143018742Y-133076751D01*
X143104539Y-132948346D01*
X143268346Y-132784539D01*
X143460954Y-132655843D01*
X143460955Y-132655842D01*
X143674973Y-132567193D01*
X143826440Y-132537064D01*
X143902173Y-132522000D01*
X144133827Y-132522000D01*
X144209560Y-132537064D01*
G37*
G36*
X130747560Y-132537064D02*
G01*
X130899027Y-132567193D01*
X131113045Y-132655842D01*
X131113046Y-132655843D01*
X131305654Y-132784539D01*
X131469461Y-132948346D01*
X131555258Y-133076751D01*
X131598158Y-133140955D01*
X131686807Y-133354973D01*
X131732000Y-133582174D01*
X131732000Y-133813826D01*
X131686807Y-134041027D01*
X131598158Y-134255045D01*
X131598157Y-134255046D01*
X131469461Y-134447654D01*
X131305654Y-134611461D01*
X131177249Y-134697258D01*
X131113045Y-134740158D01*
X130899027Y-134828807D01*
X130747560Y-134858936D01*
X130671827Y-134874000D01*
X130440173Y-134874000D01*
X130364440Y-134858936D01*
X130212973Y-134828807D01*
X129998955Y-134740158D01*
X129934751Y-134697258D01*
X129806346Y-134611461D01*
X129642539Y-134447654D01*
X129513843Y-134255046D01*
X129513842Y-134255045D01*
X129425193Y-134041027D01*
X129380000Y-133813826D01*
X129380000Y-133582174D01*
X129425193Y-133354973D01*
X129513842Y-133140955D01*
X129556742Y-133076751D01*
X129642539Y-132948346D01*
X129806346Y-132784539D01*
X129998954Y-132655843D01*
X129998955Y-132655842D01*
X130212973Y-132567193D01*
X130364440Y-132537064D01*
X130440173Y-132522000D01*
X130671827Y-132522000D01*
X130747560Y-132537064D01*
G37*
G36*
X117285560Y-132537064D02*
G01*
X117437027Y-132567193D01*
X117651045Y-132655842D01*
X117651046Y-132655843D01*
X117843654Y-132784539D01*
X118007461Y-132948346D01*
X118093258Y-133076751D01*
X118136158Y-133140955D01*
X118224807Y-133354973D01*
X118270000Y-133582174D01*
X118270000Y-133813826D01*
X118224807Y-134041027D01*
X118136158Y-134255045D01*
X118136157Y-134255046D01*
X118007461Y-134447654D01*
X117843654Y-134611461D01*
X117715249Y-134697258D01*
X117651045Y-134740158D01*
X117437027Y-134828807D01*
X117285560Y-134858936D01*
X117209827Y-134874000D01*
X116978173Y-134874000D01*
X116902440Y-134858936D01*
X116750973Y-134828807D01*
X116536955Y-134740158D01*
X116472751Y-134697258D01*
X116344346Y-134611461D01*
X116180539Y-134447654D01*
X116051843Y-134255046D01*
X116051842Y-134255045D01*
X115963193Y-134041027D01*
X115918000Y-133813826D01*
X115918000Y-133582174D01*
X115963193Y-133354973D01*
X116051842Y-133140955D01*
X116094742Y-133076751D01*
X116180539Y-132948346D01*
X116344346Y-132784539D01*
X116536954Y-132655843D01*
X116536955Y-132655842D01*
X116750973Y-132567193D01*
X116902440Y-132537064D01*
X116978173Y-132522000D01*
X117209827Y-132522000D01*
X117285560Y-132537064D01*
G37*
G36*
X117396585Y-127256802D02*
G01*
X117546410Y-127286604D01*
X117828674Y-127403521D01*
X118082705Y-127573259D01*
X118298741Y-127789295D01*
X118468479Y-128043326D01*
X118585396Y-128325590D01*
X118645000Y-128625240D01*
X118645000Y-128930760D01*
X118585396Y-129230410D01*
X118468479Y-129512674D01*
X118298741Y-129766705D01*
X118082705Y-129982741D01*
X117828674Y-130152479D01*
X117546410Y-130269396D01*
X117396585Y-130299198D01*
X117246761Y-130329000D01*
X116941239Y-130329000D01*
X116791415Y-130299198D01*
X116641590Y-130269396D01*
X116359326Y-130152479D01*
X116105295Y-129982741D01*
X115889259Y-129766705D01*
X115719521Y-129512674D01*
X115602604Y-129230410D01*
X115543000Y-128930760D01*
X115543000Y-128625240D01*
X115602604Y-128325590D01*
X115719521Y-128043326D01*
X115889259Y-127789295D01*
X116105295Y-127573259D01*
X116359326Y-127403521D01*
X116641590Y-127286604D01*
X116791415Y-127256802D01*
X116941239Y-127227000D01*
X117246761Y-127227000D01*
X117396585Y-127256802D01*
G37*
G36*
X130858585Y-127256802D02*
G01*
X131008410Y-127286604D01*
X131290674Y-127403521D01*
X131544705Y-127573259D01*
X131760741Y-127789295D01*
X131930479Y-128043326D01*
X132047396Y-128325590D01*
X132107000Y-128625240D01*
X132107000Y-128930760D01*
X132047396Y-129230410D01*
X131930479Y-129512674D01*
X131760741Y-129766705D01*
X131544705Y-129982741D01*
X131290674Y-130152479D01*
X131008410Y-130269396D01*
X130858585Y-130299198D01*
X130708761Y-130329000D01*
X130403239Y-130329000D01*
X130253415Y-130299198D01*
X130103590Y-130269396D01*
X129821326Y-130152479D01*
X129567295Y-129982741D01*
X129351259Y-129766705D01*
X129181521Y-129512674D01*
X129064604Y-129230410D01*
X129005000Y-128930760D01*
X129005000Y-128625240D01*
X129064604Y-128325590D01*
X129181521Y-128043326D01*
X129351259Y-127789295D01*
X129567295Y-127573259D01*
X129821326Y-127403521D01*
X130103590Y-127286604D01*
X130253415Y-127256802D01*
X130403239Y-127227000D01*
X130708761Y-127227000D01*
X130858585Y-127256802D01*
G37*
G36*
X144320585Y-127256802D02*
G01*
X144470410Y-127286604D01*
X144752674Y-127403521D01*
X145006705Y-127573259D01*
X145222741Y-127789295D01*
X145392479Y-128043326D01*
X145509396Y-128325590D01*
X145569000Y-128625240D01*
X145569000Y-128930760D01*
X145509396Y-129230410D01*
X145392479Y-129512674D01*
X145222741Y-129766705D01*
X145006705Y-129982741D01*
X144752674Y-130152479D01*
X144470410Y-130269396D01*
X144320585Y-130299198D01*
X144170761Y-130329000D01*
X143865239Y-130329000D01*
X143715415Y-130299198D01*
X143565590Y-130269396D01*
X143283326Y-130152479D01*
X143029295Y-129982741D01*
X142813259Y-129766705D01*
X142643521Y-129512674D01*
X142526604Y-129230410D01*
X142467000Y-128930760D01*
X142467000Y-128625240D01*
X142526604Y-128325590D01*
X142643521Y-128043326D01*
X142813259Y-127789295D01*
X143029295Y-127573259D01*
X143283326Y-127403521D01*
X143565590Y-127286604D01*
X143715415Y-127256802D01*
X143865239Y-127227000D01*
X144170761Y-127227000D01*
X144320585Y-127256802D01*
G37*
G36*
X157782585Y-127256802D02*
G01*
X157932410Y-127286604D01*
X158214674Y-127403521D01*
X158468705Y-127573259D01*
X158684741Y-127789295D01*
X158854479Y-128043326D01*
X158971396Y-128325590D01*
X159031000Y-128625240D01*
X159031000Y-128930760D01*
X158971396Y-129230410D01*
X158854479Y-129512674D01*
X158684741Y-129766705D01*
X158468705Y-129982741D01*
X158214674Y-130152479D01*
X157932410Y-130269396D01*
X157782585Y-130299198D01*
X157632761Y-130329000D01*
X157327239Y-130329000D01*
X157177415Y-130299198D01*
X157027590Y-130269396D01*
X156745326Y-130152479D01*
X156491295Y-129982741D01*
X156275259Y-129766705D01*
X156105521Y-129512674D01*
X155988604Y-129230410D01*
X155929000Y-128930760D01*
X155929000Y-128625240D01*
X155988604Y-128325590D01*
X156105521Y-128043326D01*
X156275259Y-127789295D01*
X156491295Y-127573259D01*
X156745326Y-127403521D01*
X157027590Y-127286604D01*
X157177415Y-127256802D01*
X157327239Y-127227000D01*
X157632761Y-127227000D01*
X157782585Y-127256802D01*
G37*
G36*
X171244585Y-127256802D02*
G01*
X171394410Y-127286604D01*
X171676674Y-127403521D01*
X171930705Y-127573259D01*
X172146741Y-127789295D01*
X172316479Y-128043326D01*
X172433396Y-128325590D01*
X172493000Y-128625240D01*
X172493000Y-128930760D01*
X172433396Y-129230410D01*
X172316479Y-129512674D01*
X172146741Y-129766705D01*
X171930705Y-129982741D01*
X171676674Y-130152479D01*
X171394410Y-130269396D01*
X171244585Y-130299198D01*
X171094761Y-130329000D01*
X170789239Y-130329000D01*
X170639415Y-130299198D01*
X170489590Y-130269396D01*
X170207326Y-130152479D01*
X169953295Y-129982741D01*
X169737259Y-129766705D01*
X169567521Y-129512674D01*
X169450604Y-129230410D01*
X169391000Y-128930760D01*
X169391000Y-128625240D01*
X169450604Y-128325590D01*
X169567521Y-128043326D01*
X169737259Y-127789295D01*
X169953295Y-127573259D01*
X170207326Y-127403521D01*
X170489590Y-127286604D01*
X170639415Y-127256802D01*
X170789239Y-127227000D01*
X171094761Y-127227000D01*
X171244585Y-127256802D01*
G37*
G36*
X184706585Y-127256802D02*
G01*
X184856410Y-127286604D01*
X185138674Y-127403521D01*
X185392705Y-127573259D01*
X185608741Y-127789295D01*
X185778479Y-128043326D01*
X185895396Y-128325590D01*
X185955000Y-128625240D01*
X185955000Y-128930760D01*
X185895396Y-129230410D01*
X185778479Y-129512674D01*
X185608741Y-129766705D01*
X185392705Y-129982741D01*
X185138674Y-130152479D01*
X184856410Y-130269396D01*
X184706585Y-130299198D01*
X184556761Y-130329000D01*
X184251239Y-130329000D01*
X184101415Y-130299198D01*
X183951590Y-130269396D01*
X183669326Y-130152479D01*
X183415295Y-129982741D01*
X183199259Y-129766705D01*
X183029521Y-129512674D01*
X182912604Y-129230410D01*
X182853000Y-128930760D01*
X182853000Y-128625240D01*
X182912604Y-128325590D01*
X183029521Y-128043326D01*
X183199259Y-127789295D01*
X183415295Y-127573259D01*
X183669326Y-127403521D01*
X183951590Y-127286604D01*
X184101415Y-127256802D01*
X184251239Y-127227000D01*
X184556761Y-127227000D01*
X184706585Y-127256802D01*
G37*
G36*
X171133560Y-124237064D02*
G01*
X171285027Y-124267193D01*
X171499045Y-124355842D01*
X171499046Y-124355843D01*
X171691654Y-124484539D01*
X171855461Y-124648346D01*
X171941258Y-124776751D01*
X171984158Y-124840955D01*
X172072807Y-125054973D01*
X172118000Y-125282174D01*
X172118000Y-125513826D01*
X172072807Y-125741027D01*
X171984158Y-125955045D01*
X171984157Y-125955046D01*
X171855461Y-126147654D01*
X171691654Y-126311461D01*
X171563249Y-126397258D01*
X171499045Y-126440158D01*
X171285027Y-126528807D01*
X171133560Y-126558936D01*
X171057827Y-126574000D01*
X170826173Y-126574000D01*
X170750440Y-126558936D01*
X170598973Y-126528807D01*
X170384955Y-126440158D01*
X170320751Y-126397258D01*
X170192346Y-126311461D01*
X170028539Y-126147654D01*
X169899843Y-125955046D01*
X169899842Y-125955045D01*
X169811193Y-125741027D01*
X169766000Y-125513826D01*
X169766000Y-125282174D01*
X169811193Y-125054973D01*
X169899842Y-124840955D01*
X169942742Y-124776751D01*
X170028539Y-124648346D01*
X170192346Y-124484539D01*
X170384954Y-124355843D01*
X170384955Y-124355842D01*
X170598973Y-124267193D01*
X170750440Y-124237064D01*
X170826173Y-124222000D01*
X171057827Y-124222000D01*
X171133560Y-124237064D01*
G37*
G36*
X157671560Y-124237064D02*
G01*
X157823027Y-124267193D01*
X158037045Y-124355842D01*
X158037046Y-124355843D01*
X158229654Y-124484539D01*
X158393461Y-124648346D01*
X158479258Y-124776751D01*
X158522158Y-124840955D01*
X158610807Y-125054973D01*
X158656000Y-125282174D01*
X158656000Y-125513826D01*
X158610807Y-125741027D01*
X158522158Y-125955045D01*
X158522157Y-125955046D01*
X158393461Y-126147654D01*
X158229654Y-126311461D01*
X158101249Y-126397258D01*
X158037045Y-126440158D01*
X157823027Y-126528807D01*
X157671560Y-126558936D01*
X157595827Y-126574000D01*
X157364173Y-126574000D01*
X157288440Y-126558936D01*
X157136973Y-126528807D01*
X156922955Y-126440158D01*
X156858751Y-126397258D01*
X156730346Y-126311461D01*
X156566539Y-126147654D01*
X156437843Y-125955046D01*
X156437842Y-125955045D01*
X156349193Y-125741027D01*
X156304000Y-125513826D01*
X156304000Y-125282174D01*
X156349193Y-125054973D01*
X156437842Y-124840955D01*
X156480742Y-124776751D01*
X156566539Y-124648346D01*
X156730346Y-124484539D01*
X156922954Y-124355843D01*
X156922955Y-124355842D01*
X157136973Y-124267193D01*
X157288440Y-124237064D01*
X157364173Y-124222000D01*
X157595827Y-124222000D01*
X157671560Y-124237064D01*
G37*
G36*
X144209560Y-124237064D02*
G01*
X144361027Y-124267193D01*
X144575045Y-124355842D01*
X144575046Y-124355843D01*
X144767654Y-124484539D01*
X144931461Y-124648346D01*
X145017258Y-124776751D01*
X145060158Y-124840955D01*
X145148807Y-125054973D01*
X145194000Y-125282174D01*
X145194000Y-125513826D01*
X145148807Y-125741027D01*
X145060158Y-125955045D01*
X145060157Y-125955046D01*
X144931461Y-126147654D01*
X144767654Y-126311461D01*
X144639249Y-126397258D01*
X144575045Y-126440158D01*
X144361027Y-126528807D01*
X144209560Y-126558936D01*
X144133827Y-126574000D01*
X143902173Y-126574000D01*
X143826440Y-126558936D01*
X143674973Y-126528807D01*
X143460955Y-126440158D01*
X143396751Y-126397258D01*
X143268346Y-126311461D01*
X143104539Y-126147654D01*
X142975843Y-125955046D01*
X142975842Y-125955045D01*
X142887193Y-125741027D01*
X142842000Y-125513826D01*
X142842000Y-125282174D01*
X142887193Y-125054973D01*
X142975842Y-124840955D01*
X143018742Y-124776751D01*
X143104539Y-124648346D01*
X143268346Y-124484539D01*
X143460954Y-124355843D01*
X143460955Y-124355842D01*
X143674973Y-124267193D01*
X143826440Y-124237064D01*
X143902173Y-124222000D01*
X144133827Y-124222000D01*
X144209560Y-124237064D01*
G37*
G36*
X130747560Y-124237064D02*
G01*
X130899027Y-124267193D01*
X131113045Y-124355842D01*
X131113046Y-124355843D01*
X131305654Y-124484539D01*
X131469461Y-124648346D01*
X131555258Y-124776751D01*
X131598158Y-124840955D01*
X131686807Y-125054973D01*
X131732000Y-125282174D01*
X131732000Y-125513826D01*
X131686807Y-125741027D01*
X131598158Y-125955045D01*
X131598157Y-125955046D01*
X131469461Y-126147654D01*
X131305654Y-126311461D01*
X131177249Y-126397258D01*
X131113045Y-126440158D01*
X130899027Y-126528807D01*
X130747560Y-126558936D01*
X130671827Y-126574000D01*
X130440173Y-126574000D01*
X130364440Y-126558936D01*
X130212973Y-126528807D01*
X129998955Y-126440158D01*
X129934751Y-126397258D01*
X129806346Y-126311461D01*
X129642539Y-126147654D01*
X129513843Y-125955046D01*
X129513842Y-125955045D01*
X129425193Y-125741027D01*
X129380000Y-125513826D01*
X129380000Y-125282174D01*
X129425193Y-125054973D01*
X129513842Y-124840955D01*
X129556742Y-124776751D01*
X129642539Y-124648346D01*
X129806346Y-124484539D01*
X129998954Y-124355843D01*
X129998955Y-124355842D01*
X130212973Y-124267193D01*
X130364440Y-124237064D01*
X130440173Y-124222000D01*
X130671827Y-124222000D01*
X130747560Y-124237064D01*
G37*
G36*
X117285560Y-124237064D02*
G01*
X117437027Y-124267193D01*
X117651045Y-124355842D01*
X117651046Y-124355843D01*
X117843654Y-124484539D01*
X118007461Y-124648346D01*
X118093258Y-124776751D01*
X118136158Y-124840955D01*
X118224807Y-125054973D01*
X118270000Y-125282174D01*
X118270000Y-125513826D01*
X118224807Y-125741027D01*
X118136158Y-125955045D01*
X118136157Y-125955046D01*
X118007461Y-126147654D01*
X117843654Y-126311461D01*
X117715249Y-126397258D01*
X117651045Y-126440158D01*
X117437027Y-126528807D01*
X117285560Y-126558936D01*
X117209827Y-126574000D01*
X116978173Y-126574000D01*
X116902440Y-126558936D01*
X116750973Y-126528807D01*
X116536955Y-126440158D01*
X116472751Y-126397258D01*
X116344346Y-126311461D01*
X116180539Y-126147654D01*
X116051843Y-125955046D01*
X116051842Y-125955045D01*
X115963193Y-125741027D01*
X115918000Y-125513826D01*
X115918000Y-125282174D01*
X115963193Y-125054973D01*
X116051842Y-124840955D01*
X116094742Y-124776751D01*
X116180539Y-124648346D01*
X116344346Y-124484539D01*
X116536954Y-124355843D01*
X116536955Y-124355842D01*
X116750973Y-124267193D01*
X116902440Y-124237064D01*
X116978173Y-124222000D01*
X117209827Y-124222000D01*
X117285560Y-124237064D01*
G37*
G36*
X184595560Y-124237064D02*
G01*
X184747027Y-124267193D01*
X184961045Y-124355842D01*
X184961046Y-124355843D01*
X185153654Y-124484539D01*
X185317461Y-124648346D01*
X185403258Y-124776751D01*
X185446158Y-124840955D01*
X185534807Y-125054973D01*
X185580000Y-125282174D01*
X185580000Y-125513826D01*
X185534807Y-125741027D01*
X185446158Y-125955045D01*
X185446157Y-125955046D01*
X185317461Y-126147654D01*
X185153654Y-126311461D01*
X185025249Y-126397258D01*
X184961045Y-126440158D01*
X184747027Y-126528807D01*
X184595560Y-126558936D01*
X184519827Y-126574000D01*
X184288173Y-126574000D01*
X184212440Y-126558936D01*
X184060973Y-126528807D01*
X183846955Y-126440158D01*
X183782751Y-126397258D01*
X183654346Y-126311461D01*
X183490539Y-126147654D01*
X183361843Y-125955046D01*
X183361842Y-125955045D01*
X183273193Y-125741027D01*
X183228000Y-125513826D01*
X183228000Y-125282174D01*
X183273193Y-125054973D01*
X183361842Y-124840955D01*
X183404742Y-124776751D01*
X183490539Y-124648346D01*
X183654346Y-124484539D01*
X183846954Y-124355843D01*
X183846955Y-124355842D01*
X184060973Y-124267193D01*
X184212440Y-124237064D01*
X184288173Y-124222000D01*
X184519827Y-124222000D01*
X184595560Y-124237064D01*
G37*
G36*
X178048256Y-120311298D02*
G01*
X178154579Y-120332447D01*
X178455042Y-120456903D01*
X178725451Y-120637585D01*
X178955415Y-120867549D01*
X178955416Y-120867551D01*
X179136098Y-121137960D01*
X179260553Y-121438422D01*
X179324000Y-121757389D01*
X179324000Y-122082611D01*
X179281702Y-122295256D01*
X179260553Y-122401579D01*
X179136097Y-122702042D01*
X178955415Y-122972451D01*
X178725451Y-123202415D01*
X178455042Y-123383097D01*
X178154579Y-123507553D01*
X178048256Y-123528702D01*
X177835611Y-123571000D01*
X177510389Y-123571000D01*
X177297744Y-123528702D01*
X177191421Y-123507553D01*
X176890958Y-123383097D01*
X176620549Y-123202415D01*
X176390585Y-122972451D01*
X176209903Y-122702042D01*
X176085447Y-122401579D01*
X176064298Y-122295256D01*
X176022000Y-122082611D01*
X176022000Y-121757389D01*
X176085447Y-121438422D01*
X176209902Y-121137960D01*
X176390584Y-120867551D01*
X176390585Y-120867549D01*
X176620549Y-120637585D01*
X176890958Y-120456903D01*
X177191421Y-120332447D01*
X177297744Y-120311298D01*
X177510389Y-120269000D01*
X177835611Y-120269000D01*
X178048256Y-120311298D01*
G37*
G36*
X124073256Y-120311298D02*
G01*
X124179579Y-120332447D01*
X124480042Y-120456903D01*
X124750451Y-120637585D01*
X124980415Y-120867549D01*
X124980416Y-120867551D01*
X125161098Y-121137960D01*
X125285553Y-121438422D01*
X125349000Y-121757389D01*
X125349000Y-122082611D01*
X125306702Y-122295256D01*
X125285553Y-122401579D01*
X125161097Y-122702042D01*
X124980415Y-122972451D01*
X124750451Y-123202415D01*
X124480042Y-123383097D01*
X124179579Y-123507553D01*
X124073256Y-123528702D01*
X123860611Y-123571000D01*
X123535389Y-123571000D01*
X123322744Y-123528702D01*
X123216421Y-123507553D01*
X122915958Y-123383097D01*
X122645549Y-123202415D01*
X122415585Y-122972451D01*
X122234903Y-122702042D01*
X122110447Y-122401579D01*
X122089298Y-122295256D01*
X122047000Y-122082611D01*
X122047000Y-121757389D01*
X122110447Y-121438422D01*
X122234902Y-121137960D01*
X122415584Y-120867551D01*
X122415585Y-120867549D01*
X122645549Y-120637585D01*
X122915958Y-120456903D01*
X123216421Y-120332447D01*
X123322744Y-120311298D01*
X123535389Y-120269000D01*
X123860611Y-120269000D01*
X124073256Y-120311298D01*
G37*
G36*
X184595560Y-121137064D02*
G01*
X184747027Y-121167193D01*
X184961045Y-121255842D01*
X184961046Y-121255843D01*
X185153654Y-121384539D01*
X185317461Y-121548346D01*
X185403258Y-121676751D01*
X185446158Y-121740955D01*
X185534807Y-121954973D01*
X185580000Y-122182174D01*
X185580000Y-122413826D01*
X185534807Y-122641027D01*
X185446158Y-122855045D01*
X185446157Y-122855046D01*
X185317461Y-123047654D01*
X185153654Y-123211461D01*
X185025249Y-123297258D01*
X184961045Y-123340158D01*
X184747027Y-123428807D01*
X184595560Y-123458936D01*
X184519827Y-123474000D01*
X184288173Y-123474000D01*
X184212440Y-123458936D01*
X184060973Y-123428807D01*
X183846955Y-123340158D01*
X183782751Y-123297258D01*
X183654346Y-123211461D01*
X183490539Y-123047654D01*
X183361843Y-122855046D01*
X183361842Y-122855045D01*
X183273193Y-122641027D01*
X183228000Y-122413826D01*
X183228000Y-122182174D01*
X183273193Y-121954973D01*
X183361842Y-121740955D01*
X183404742Y-121676751D01*
X183490539Y-121548346D01*
X183654346Y-121384539D01*
X183846954Y-121255843D01*
X183846955Y-121255842D01*
X184060973Y-121167193D01*
X184212440Y-121137064D01*
X184288173Y-121122000D01*
X184519827Y-121122000D01*
X184595560Y-121137064D01*
G37*
G36*
X171133560Y-121137064D02*
G01*
X171285027Y-121167193D01*
X171499045Y-121255842D01*
X171499046Y-121255843D01*
X171691654Y-121384539D01*
X171855461Y-121548346D01*
X171941258Y-121676751D01*
X171984158Y-121740955D01*
X172072807Y-121954973D01*
X172118000Y-122182174D01*
X172118000Y-122413826D01*
X172072807Y-122641027D01*
X171984158Y-122855045D01*
X171984157Y-122855046D01*
X171855461Y-123047654D01*
X171691654Y-123211461D01*
X171563249Y-123297258D01*
X171499045Y-123340158D01*
X171285027Y-123428807D01*
X171133560Y-123458936D01*
X171057827Y-123474000D01*
X170826173Y-123474000D01*
X170750440Y-123458936D01*
X170598973Y-123428807D01*
X170384955Y-123340158D01*
X170320751Y-123297258D01*
X170192346Y-123211461D01*
X170028539Y-123047654D01*
X169899843Y-122855046D01*
X169899842Y-122855045D01*
X169811193Y-122641027D01*
X169766000Y-122413826D01*
X169766000Y-122182174D01*
X169811193Y-121954973D01*
X169899842Y-121740955D01*
X169942742Y-121676751D01*
X170028539Y-121548346D01*
X170192346Y-121384539D01*
X170384954Y-121255843D01*
X170384955Y-121255842D01*
X170598973Y-121167193D01*
X170750440Y-121137064D01*
X170826173Y-121122000D01*
X171057827Y-121122000D01*
X171133560Y-121137064D01*
G37*
G36*
X157671560Y-121137064D02*
G01*
X157823027Y-121167193D01*
X158037045Y-121255842D01*
X158037046Y-121255843D01*
X158229654Y-121384539D01*
X158393461Y-121548346D01*
X158479258Y-121676751D01*
X158522158Y-121740955D01*
X158610807Y-121954973D01*
X158656000Y-122182174D01*
X158656000Y-122413826D01*
X158610807Y-122641027D01*
X158522158Y-122855045D01*
X158522157Y-122855046D01*
X158393461Y-123047654D01*
X158229654Y-123211461D01*
X158101249Y-123297258D01*
X158037045Y-123340158D01*
X157823027Y-123428807D01*
X157671560Y-123458936D01*
X157595827Y-123474000D01*
X157364173Y-123474000D01*
X157288440Y-123458936D01*
X157136973Y-123428807D01*
X156922955Y-123340158D01*
X156858751Y-123297258D01*
X156730346Y-123211461D01*
X156566539Y-123047654D01*
X156437843Y-122855046D01*
X156437842Y-122855045D01*
X156349193Y-122641027D01*
X156304000Y-122413826D01*
X156304000Y-122182174D01*
X156349193Y-121954973D01*
X156437842Y-121740955D01*
X156480742Y-121676751D01*
X156566539Y-121548346D01*
X156730346Y-121384539D01*
X156922954Y-121255843D01*
X156922955Y-121255842D01*
X157136973Y-121167193D01*
X157288440Y-121137064D01*
X157364173Y-121122000D01*
X157595827Y-121122000D01*
X157671560Y-121137064D01*
G37*
G36*
X117285560Y-121137064D02*
G01*
X117437027Y-121167193D01*
X117651045Y-121255842D01*
X117651046Y-121255843D01*
X117843654Y-121384539D01*
X118007461Y-121548346D01*
X118093258Y-121676751D01*
X118136158Y-121740955D01*
X118224807Y-121954973D01*
X118270000Y-122182174D01*
X118270000Y-122413826D01*
X118224807Y-122641027D01*
X118136158Y-122855045D01*
X118136157Y-122855046D01*
X118007461Y-123047654D01*
X117843654Y-123211461D01*
X117715249Y-123297258D01*
X117651045Y-123340158D01*
X117437027Y-123428807D01*
X117285560Y-123458936D01*
X117209827Y-123474000D01*
X116978173Y-123474000D01*
X116902440Y-123458936D01*
X116750973Y-123428807D01*
X116536955Y-123340158D01*
X116472751Y-123297258D01*
X116344346Y-123211461D01*
X116180539Y-123047654D01*
X116051843Y-122855046D01*
X116051842Y-122855045D01*
X115963193Y-122641027D01*
X115918000Y-122413826D01*
X115918000Y-122182174D01*
X115963193Y-121954973D01*
X116051842Y-121740955D01*
X116094742Y-121676751D01*
X116180539Y-121548346D01*
X116344346Y-121384539D01*
X116536954Y-121255843D01*
X116536955Y-121255842D01*
X116750973Y-121167193D01*
X116902440Y-121137064D01*
X116978173Y-121122000D01*
X117209827Y-121122000D01*
X117285560Y-121137064D01*
G37*
G36*
X144209560Y-121137064D02*
G01*
X144361027Y-121167193D01*
X144575045Y-121255842D01*
X144575046Y-121255843D01*
X144767654Y-121384539D01*
X144931461Y-121548346D01*
X145017258Y-121676751D01*
X145060158Y-121740955D01*
X145148807Y-121954973D01*
X145194000Y-122182174D01*
X145194000Y-122413826D01*
X145148807Y-122641027D01*
X145060158Y-122855045D01*
X145060157Y-122855046D01*
X144931461Y-123047654D01*
X144767654Y-123211461D01*
X144639249Y-123297258D01*
X144575045Y-123340158D01*
X144361027Y-123428807D01*
X144209560Y-123458936D01*
X144133827Y-123474000D01*
X143902173Y-123474000D01*
X143826440Y-123458936D01*
X143674973Y-123428807D01*
X143460955Y-123340158D01*
X143396751Y-123297258D01*
X143268346Y-123211461D01*
X143104539Y-123047654D01*
X142975843Y-122855046D01*
X142975842Y-122855045D01*
X142887193Y-122641027D01*
X142842000Y-122413826D01*
X142842000Y-122182174D01*
X142887193Y-121954973D01*
X142975842Y-121740955D01*
X143018742Y-121676751D01*
X143104539Y-121548346D01*
X143268346Y-121384539D01*
X143460954Y-121255843D01*
X143460955Y-121255842D01*
X143674973Y-121167193D01*
X143826440Y-121137064D01*
X143902173Y-121122000D01*
X144133827Y-121122000D01*
X144209560Y-121137064D01*
G37*
G36*
X130747560Y-121137064D02*
G01*
X130899027Y-121167193D01*
X131113045Y-121255842D01*
X131113046Y-121255843D01*
X131305654Y-121384539D01*
X131469461Y-121548346D01*
X131555258Y-121676751D01*
X131598158Y-121740955D01*
X131686807Y-121954973D01*
X131732000Y-122182174D01*
X131732000Y-122413826D01*
X131686807Y-122641027D01*
X131598158Y-122855045D01*
X131598157Y-122855046D01*
X131469461Y-123047654D01*
X131305654Y-123211461D01*
X131177249Y-123297258D01*
X131113045Y-123340158D01*
X130899027Y-123428807D01*
X130747560Y-123458936D01*
X130671827Y-123474000D01*
X130440173Y-123474000D01*
X130364440Y-123458936D01*
X130212973Y-123428807D01*
X129998955Y-123340158D01*
X129934751Y-123297258D01*
X129806346Y-123211461D01*
X129642539Y-123047654D01*
X129513843Y-122855046D01*
X129513842Y-122855045D01*
X129425193Y-122641027D01*
X129380000Y-122413826D01*
X129380000Y-122182174D01*
X129425193Y-121954973D01*
X129513842Y-121740955D01*
X129556742Y-121676751D01*
X129642539Y-121548346D01*
X129806346Y-121384539D01*
X129998954Y-121255843D01*
X129998955Y-121255842D01*
X130212973Y-121167193D01*
X130364440Y-121137064D01*
X130440173Y-121122000D01*
X130671827Y-121122000D01*
X130747560Y-121137064D01*
G37*
G36*
X144209560Y-117297064D02*
G01*
X144361027Y-117327193D01*
X144575045Y-117415842D01*
X144575046Y-117415843D01*
X144767654Y-117544539D01*
X144931461Y-117708346D01*
X145017258Y-117836751D01*
X145060158Y-117900955D01*
X145148807Y-118114973D01*
X145194000Y-118342174D01*
X145194000Y-118573826D01*
X145148807Y-118801027D01*
X145060158Y-119015045D01*
X145060157Y-119015046D01*
X144931461Y-119207654D01*
X144767654Y-119371461D01*
X144639249Y-119457258D01*
X144575045Y-119500158D01*
X144361027Y-119588807D01*
X144209560Y-119618936D01*
X144133827Y-119634000D01*
X143902173Y-119634000D01*
X143826440Y-119618936D01*
X143674973Y-119588807D01*
X143460955Y-119500158D01*
X143396751Y-119457258D01*
X143268346Y-119371461D01*
X143104539Y-119207654D01*
X142975843Y-119015046D01*
X142975842Y-119015045D01*
X142887193Y-118801027D01*
X142842000Y-118573826D01*
X142842000Y-118342174D01*
X142887193Y-118114973D01*
X142975842Y-117900955D01*
X143018742Y-117836751D01*
X143104539Y-117708346D01*
X143268346Y-117544539D01*
X143460954Y-117415843D01*
X143460955Y-117415842D01*
X143674973Y-117327193D01*
X143826440Y-117297064D01*
X143902173Y-117282000D01*
X144133827Y-117282000D01*
X144209560Y-117297064D01*
G37*
G36*
X157671560Y-117297064D02*
G01*
X157823027Y-117327193D01*
X158037045Y-117415842D01*
X158037046Y-117415843D01*
X158229654Y-117544539D01*
X158393461Y-117708346D01*
X158479258Y-117836751D01*
X158522158Y-117900955D01*
X158610807Y-118114973D01*
X158656000Y-118342174D01*
X158656000Y-118573826D01*
X158610807Y-118801027D01*
X158522158Y-119015045D01*
X158522157Y-119015046D01*
X158393461Y-119207654D01*
X158229654Y-119371461D01*
X158101249Y-119457258D01*
X158037045Y-119500158D01*
X157823027Y-119588807D01*
X157671560Y-119618936D01*
X157595827Y-119634000D01*
X157364173Y-119634000D01*
X157288440Y-119618936D01*
X157136973Y-119588807D01*
X156922955Y-119500158D01*
X156858751Y-119457258D01*
X156730346Y-119371461D01*
X156566539Y-119207654D01*
X156437843Y-119015046D01*
X156437842Y-119015045D01*
X156349193Y-118801027D01*
X156304000Y-118573826D01*
X156304000Y-118342174D01*
X156349193Y-118114973D01*
X156437842Y-117900955D01*
X156480742Y-117836751D01*
X156566539Y-117708346D01*
X156730346Y-117544539D01*
X156922954Y-117415843D01*
X156922955Y-117415842D01*
X157136973Y-117327193D01*
X157288440Y-117297064D01*
X157364173Y-117282000D01*
X157595827Y-117282000D01*
X157671560Y-117297064D01*
G37*
G36*
X171133560Y-117297064D02*
G01*
X171285027Y-117327193D01*
X171499045Y-117415842D01*
X171499046Y-117415843D01*
X171691654Y-117544539D01*
X171855461Y-117708346D01*
X171941258Y-117836751D01*
X171984158Y-117900955D01*
X172072807Y-118114973D01*
X172118000Y-118342174D01*
X172118000Y-118573826D01*
X172072807Y-118801027D01*
X171984158Y-119015045D01*
X171984157Y-119015046D01*
X171855461Y-119207654D01*
X171691654Y-119371461D01*
X171563249Y-119457258D01*
X171499045Y-119500158D01*
X171285027Y-119588807D01*
X171133560Y-119618936D01*
X171057827Y-119634000D01*
X170826173Y-119634000D01*
X170750440Y-119618936D01*
X170598973Y-119588807D01*
X170384955Y-119500158D01*
X170320751Y-119457258D01*
X170192346Y-119371461D01*
X170028539Y-119207654D01*
X169899843Y-119015046D01*
X169899842Y-119015045D01*
X169811193Y-118801027D01*
X169766000Y-118573826D01*
X169766000Y-118342174D01*
X169811193Y-118114973D01*
X169899842Y-117900955D01*
X169942742Y-117836751D01*
X170028539Y-117708346D01*
X170192346Y-117544539D01*
X170384954Y-117415843D01*
X170384955Y-117415842D01*
X170598973Y-117327193D01*
X170750440Y-117297064D01*
X170826173Y-117282000D01*
X171057827Y-117282000D01*
X171133560Y-117297064D01*
G37*
G36*
X184595560Y-117297064D02*
G01*
X184747027Y-117327193D01*
X184961045Y-117415842D01*
X184961046Y-117415843D01*
X185153654Y-117544539D01*
X185317461Y-117708346D01*
X185403258Y-117836751D01*
X185446158Y-117900955D01*
X185534807Y-118114973D01*
X185580000Y-118342174D01*
X185580000Y-118573826D01*
X185534807Y-118801027D01*
X185446158Y-119015045D01*
X185446157Y-119015046D01*
X185317461Y-119207654D01*
X185153654Y-119371461D01*
X185025249Y-119457258D01*
X184961045Y-119500158D01*
X184747027Y-119588807D01*
X184595560Y-119618936D01*
X184519827Y-119634000D01*
X184288173Y-119634000D01*
X184212440Y-119618936D01*
X184060973Y-119588807D01*
X183846955Y-119500158D01*
X183782751Y-119457258D01*
X183654346Y-119371461D01*
X183490539Y-119207654D01*
X183361843Y-119015046D01*
X183361842Y-119015045D01*
X183273193Y-118801027D01*
X183228000Y-118573826D01*
X183228000Y-118342174D01*
X183273193Y-118114973D01*
X183361842Y-117900955D01*
X183404742Y-117836751D01*
X183490539Y-117708346D01*
X183654346Y-117544539D01*
X183846954Y-117415843D01*
X183846955Y-117415842D01*
X184060973Y-117327193D01*
X184212440Y-117297064D01*
X184288173Y-117282000D01*
X184519827Y-117282000D01*
X184595560Y-117297064D01*
G37*
G36*
X130747560Y-117297064D02*
G01*
X130899027Y-117327193D01*
X131113045Y-117415842D01*
X131113046Y-117415843D01*
X131305654Y-117544539D01*
X131469461Y-117708346D01*
X131555258Y-117836751D01*
X131598158Y-117900955D01*
X131686807Y-118114973D01*
X131732000Y-118342174D01*
X131732000Y-118573826D01*
X131686807Y-118801027D01*
X131598158Y-119015045D01*
X131598157Y-119015046D01*
X131469461Y-119207654D01*
X131305654Y-119371461D01*
X131177249Y-119457258D01*
X131113045Y-119500158D01*
X130899027Y-119588807D01*
X130747560Y-119618936D01*
X130671827Y-119634000D01*
X130440173Y-119634000D01*
X130364440Y-119618936D01*
X130212973Y-119588807D01*
X129998955Y-119500158D01*
X129934751Y-119457258D01*
X129806346Y-119371461D01*
X129642539Y-119207654D01*
X129513843Y-119015046D01*
X129513842Y-119015045D01*
X129425193Y-118801027D01*
X129380000Y-118573826D01*
X129380000Y-118342174D01*
X129425193Y-118114973D01*
X129513842Y-117900955D01*
X129556742Y-117836751D01*
X129642539Y-117708346D01*
X129806346Y-117544539D01*
X129998954Y-117415843D01*
X129998955Y-117415842D01*
X130212973Y-117327193D01*
X130364440Y-117297064D01*
X130440173Y-117282000D01*
X130671827Y-117282000D01*
X130747560Y-117297064D01*
G37*
G36*
X117285560Y-117297064D02*
G01*
X117437027Y-117327193D01*
X117651045Y-117415842D01*
X117651046Y-117415843D01*
X117843654Y-117544539D01*
X118007461Y-117708346D01*
X118093258Y-117836751D01*
X118136158Y-117900955D01*
X118224807Y-118114973D01*
X118270000Y-118342174D01*
X118270000Y-118573826D01*
X118224807Y-118801027D01*
X118136158Y-119015045D01*
X118136157Y-119015046D01*
X118007461Y-119207654D01*
X117843654Y-119371461D01*
X117715249Y-119457258D01*
X117651045Y-119500158D01*
X117437027Y-119588807D01*
X117285560Y-119618936D01*
X117209827Y-119634000D01*
X116978173Y-119634000D01*
X116902440Y-119618936D01*
X116750973Y-119588807D01*
X116536955Y-119500158D01*
X116472751Y-119457258D01*
X116344346Y-119371461D01*
X116180539Y-119207654D01*
X116051843Y-119015046D01*
X116051842Y-119015045D01*
X115963193Y-118801027D01*
X115918000Y-118573826D01*
X115918000Y-118342174D01*
X115963193Y-118114973D01*
X116051842Y-117900955D01*
X116094742Y-117836751D01*
X116180539Y-117708346D01*
X116344346Y-117544539D01*
X116536954Y-117415843D01*
X116536955Y-117415842D01*
X116750973Y-117327193D01*
X116902440Y-117297064D01*
X116978173Y-117282000D01*
X117209827Y-117282000D01*
X117285560Y-117297064D01*
G37*
G36*
X130858585Y-112016802D02*
G01*
X131008410Y-112046604D01*
X131290674Y-112163521D01*
X131544705Y-112333259D01*
X131760741Y-112549295D01*
X131930479Y-112803326D01*
X132047396Y-113085590D01*
X132107000Y-113385240D01*
X132107000Y-113690760D01*
X132047396Y-113990410D01*
X131930479Y-114272674D01*
X131760741Y-114526705D01*
X131544705Y-114742741D01*
X131290674Y-114912479D01*
X131008410Y-115029396D01*
X130858585Y-115059198D01*
X130708761Y-115089000D01*
X130403239Y-115089000D01*
X130253415Y-115059198D01*
X130103590Y-115029396D01*
X129821326Y-114912479D01*
X129567295Y-114742741D01*
X129351259Y-114526705D01*
X129181521Y-114272674D01*
X129064604Y-113990410D01*
X129005000Y-113690760D01*
X129005000Y-113385240D01*
X129064604Y-113085590D01*
X129181521Y-112803326D01*
X129351259Y-112549295D01*
X129567295Y-112333259D01*
X129821326Y-112163521D01*
X130103590Y-112046604D01*
X130253415Y-112016802D01*
X130403239Y-111987000D01*
X130708761Y-111987000D01*
X130858585Y-112016802D01*
G37*
G36*
X117396585Y-112016802D02*
G01*
X117546410Y-112046604D01*
X117828674Y-112163521D01*
X118082705Y-112333259D01*
X118298741Y-112549295D01*
X118468479Y-112803326D01*
X118585396Y-113085590D01*
X118645000Y-113385240D01*
X118645000Y-113690760D01*
X118585396Y-113990410D01*
X118468479Y-114272674D01*
X118298741Y-114526705D01*
X118082705Y-114742741D01*
X117828674Y-114912479D01*
X117546410Y-115029396D01*
X117396585Y-115059198D01*
X117246761Y-115089000D01*
X116941239Y-115089000D01*
X116791415Y-115059198D01*
X116641590Y-115029396D01*
X116359326Y-114912479D01*
X116105295Y-114742741D01*
X115889259Y-114526705D01*
X115719521Y-114272674D01*
X115602604Y-113990410D01*
X115543000Y-113690760D01*
X115543000Y-113385240D01*
X115602604Y-113085590D01*
X115719521Y-112803326D01*
X115889259Y-112549295D01*
X116105295Y-112333259D01*
X116359326Y-112163521D01*
X116641590Y-112046604D01*
X116791415Y-112016802D01*
X116941239Y-111987000D01*
X117246761Y-111987000D01*
X117396585Y-112016802D01*
G37*
G36*
X157782585Y-112016802D02*
G01*
X157932410Y-112046604D01*
X158214674Y-112163521D01*
X158468705Y-112333259D01*
X158684741Y-112549295D01*
X158854479Y-112803326D01*
X158971396Y-113085590D01*
X159031000Y-113385240D01*
X159031000Y-113690760D01*
X158971396Y-113990410D01*
X158854479Y-114272674D01*
X158684741Y-114526705D01*
X158468705Y-114742741D01*
X158214674Y-114912479D01*
X157932410Y-115029396D01*
X157782585Y-115059198D01*
X157632761Y-115089000D01*
X157327239Y-115089000D01*
X157177415Y-115059198D01*
X157027590Y-115029396D01*
X156745326Y-114912479D01*
X156491295Y-114742741D01*
X156275259Y-114526705D01*
X156105521Y-114272674D01*
X155988604Y-113990410D01*
X155929000Y-113690760D01*
X155929000Y-113385240D01*
X155988604Y-113085590D01*
X156105521Y-112803326D01*
X156275259Y-112549295D01*
X156491295Y-112333259D01*
X156745326Y-112163521D01*
X157027590Y-112046604D01*
X157177415Y-112016802D01*
X157327239Y-111987000D01*
X157632761Y-111987000D01*
X157782585Y-112016802D01*
G37*
G36*
X171244585Y-112016802D02*
G01*
X171394410Y-112046604D01*
X171676674Y-112163521D01*
X171930705Y-112333259D01*
X172146741Y-112549295D01*
X172316479Y-112803326D01*
X172433396Y-113085590D01*
X172493000Y-113385240D01*
X172493000Y-113690760D01*
X172433396Y-113990410D01*
X172316479Y-114272674D01*
X172146741Y-114526705D01*
X171930705Y-114742741D01*
X171676674Y-114912479D01*
X171394410Y-115029396D01*
X171244585Y-115059198D01*
X171094761Y-115089000D01*
X170789239Y-115089000D01*
X170639415Y-115059198D01*
X170489590Y-115029396D01*
X170207326Y-114912479D01*
X169953295Y-114742741D01*
X169737259Y-114526705D01*
X169567521Y-114272674D01*
X169450604Y-113990410D01*
X169391000Y-113690760D01*
X169391000Y-113385240D01*
X169450604Y-113085590D01*
X169567521Y-112803326D01*
X169737259Y-112549295D01*
X169953295Y-112333259D01*
X170207326Y-112163521D01*
X170489590Y-112046604D01*
X170639415Y-112016802D01*
X170789239Y-111987000D01*
X171094761Y-111987000D01*
X171244585Y-112016802D01*
G37*
G36*
X184706585Y-112016802D02*
G01*
X184856410Y-112046604D01*
X185138674Y-112163521D01*
X185392705Y-112333259D01*
X185608741Y-112549295D01*
X185778479Y-112803326D01*
X185895396Y-113085590D01*
X185955000Y-113385240D01*
X185955000Y-113690760D01*
X185895396Y-113990410D01*
X185778479Y-114272674D01*
X185608741Y-114526705D01*
X185392705Y-114742741D01*
X185138674Y-114912479D01*
X184856410Y-115029396D01*
X184706585Y-115059198D01*
X184556761Y-115089000D01*
X184251239Y-115089000D01*
X184101415Y-115059198D01*
X183951590Y-115029396D01*
X183669326Y-114912479D01*
X183415295Y-114742741D01*
X183199259Y-114526705D01*
X183029521Y-114272674D01*
X182912604Y-113990410D01*
X182853000Y-113690760D01*
X182853000Y-113385240D01*
X182912604Y-113085590D01*
X183029521Y-112803326D01*
X183199259Y-112549295D01*
X183415295Y-112333259D01*
X183669326Y-112163521D01*
X183951590Y-112046604D01*
X184101415Y-112016802D01*
X184251239Y-111987000D01*
X184556761Y-111987000D01*
X184706585Y-112016802D01*
G37*
G36*
X144320585Y-112016802D02*
G01*
X144470410Y-112046604D01*
X144752674Y-112163521D01*
X145006705Y-112333259D01*
X145222741Y-112549295D01*
X145392479Y-112803326D01*
X145509396Y-113085590D01*
X145569000Y-113385240D01*
X145569000Y-113690760D01*
X145509396Y-113990410D01*
X145392479Y-114272674D01*
X145222741Y-114526705D01*
X145006705Y-114742741D01*
X144752674Y-114912479D01*
X144470410Y-115029396D01*
X144320585Y-115059198D01*
X144170761Y-115089000D01*
X143865239Y-115089000D01*
X143715415Y-115059198D01*
X143565590Y-115029396D01*
X143283326Y-114912479D01*
X143029295Y-114742741D01*
X142813259Y-114526705D01*
X142643521Y-114272674D01*
X142526604Y-113990410D01*
X142467000Y-113690760D01*
X142467000Y-113385240D01*
X142526604Y-113085590D01*
X142643521Y-112803326D01*
X142813259Y-112549295D01*
X143029295Y-112333259D01*
X143283326Y-112163521D01*
X143565590Y-112046604D01*
X143715415Y-112016802D01*
X143865239Y-111987000D01*
X144170761Y-111987000D01*
X144320585Y-112016802D01*
G37*
G36*
X144209560Y-108997064D02*
G01*
X144361027Y-109027193D01*
X144575045Y-109115842D01*
X144575046Y-109115843D01*
X144767654Y-109244539D01*
X144931461Y-109408346D01*
X145017258Y-109536751D01*
X145060158Y-109600955D01*
X145148807Y-109814973D01*
X145194000Y-110042174D01*
X145194000Y-110273826D01*
X145148807Y-110501027D01*
X145060158Y-110715045D01*
X145060157Y-110715046D01*
X144931461Y-110907654D01*
X144767654Y-111071461D01*
X144639249Y-111157258D01*
X144575045Y-111200158D01*
X144361027Y-111288807D01*
X144209560Y-111318936D01*
X144133827Y-111334000D01*
X143902173Y-111334000D01*
X143826440Y-111318936D01*
X143674973Y-111288807D01*
X143460955Y-111200158D01*
X143396751Y-111157258D01*
X143268346Y-111071461D01*
X143104539Y-110907654D01*
X142975843Y-110715046D01*
X142975842Y-110715045D01*
X142887193Y-110501027D01*
X142842000Y-110273826D01*
X142842000Y-110042174D01*
X142887193Y-109814973D01*
X142975842Y-109600955D01*
X143018742Y-109536751D01*
X143104539Y-109408346D01*
X143268346Y-109244539D01*
X143460954Y-109115843D01*
X143460955Y-109115842D01*
X143674973Y-109027193D01*
X143826440Y-108997064D01*
X143902173Y-108982000D01*
X144133827Y-108982000D01*
X144209560Y-108997064D01*
G37*
G36*
X117285560Y-108997064D02*
G01*
X117437027Y-109027193D01*
X117651045Y-109115842D01*
X117651046Y-109115843D01*
X117843654Y-109244539D01*
X118007461Y-109408346D01*
X118093258Y-109536751D01*
X118136158Y-109600955D01*
X118224807Y-109814973D01*
X118270000Y-110042174D01*
X118270000Y-110273826D01*
X118224807Y-110501027D01*
X118136158Y-110715045D01*
X118136157Y-110715046D01*
X118007461Y-110907654D01*
X117843654Y-111071461D01*
X117715249Y-111157258D01*
X117651045Y-111200158D01*
X117437027Y-111288807D01*
X117285560Y-111318936D01*
X117209827Y-111334000D01*
X116978173Y-111334000D01*
X116902440Y-111318936D01*
X116750973Y-111288807D01*
X116536955Y-111200158D01*
X116472751Y-111157258D01*
X116344346Y-111071461D01*
X116180539Y-110907654D01*
X116051843Y-110715046D01*
X116051842Y-110715045D01*
X115963193Y-110501027D01*
X115918000Y-110273826D01*
X115918000Y-110042174D01*
X115963193Y-109814973D01*
X116051842Y-109600955D01*
X116094742Y-109536751D01*
X116180539Y-109408346D01*
X116344346Y-109244539D01*
X116536954Y-109115843D01*
X116536955Y-109115842D01*
X116750973Y-109027193D01*
X116902440Y-108997064D01*
X116978173Y-108982000D01*
X117209827Y-108982000D01*
X117285560Y-108997064D01*
G37*
G36*
X184595560Y-108997064D02*
G01*
X184747027Y-109027193D01*
X184961045Y-109115842D01*
X184961046Y-109115843D01*
X185153654Y-109244539D01*
X185317461Y-109408346D01*
X185403258Y-109536751D01*
X185446158Y-109600955D01*
X185534807Y-109814973D01*
X185580000Y-110042174D01*
X185580000Y-110273826D01*
X185534807Y-110501027D01*
X185446158Y-110715045D01*
X185446157Y-110715046D01*
X185317461Y-110907654D01*
X185153654Y-111071461D01*
X185025249Y-111157258D01*
X184961045Y-111200158D01*
X184747027Y-111288807D01*
X184595560Y-111318936D01*
X184519827Y-111334000D01*
X184288173Y-111334000D01*
X184212440Y-111318936D01*
X184060973Y-111288807D01*
X183846955Y-111200158D01*
X183782751Y-111157258D01*
X183654346Y-111071461D01*
X183490539Y-110907654D01*
X183361843Y-110715046D01*
X183361842Y-110715045D01*
X183273193Y-110501027D01*
X183228000Y-110273826D01*
X183228000Y-110042174D01*
X183273193Y-109814973D01*
X183361842Y-109600955D01*
X183404742Y-109536751D01*
X183490539Y-109408346D01*
X183654346Y-109244539D01*
X183846954Y-109115843D01*
X183846955Y-109115842D01*
X184060973Y-109027193D01*
X184212440Y-108997064D01*
X184288173Y-108982000D01*
X184519827Y-108982000D01*
X184595560Y-108997064D01*
G37*
G36*
X157671560Y-108997064D02*
G01*
X157823027Y-109027193D01*
X158037045Y-109115842D01*
X158037046Y-109115843D01*
X158229654Y-109244539D01*
X158393461Y-109408346D01*
X158479258Y-109536751D01*
X158522158Y-109600955D01*
X158610807Y-109814973D01*
X158656000Y-110042174D01*
X158656000Y-110273826D01*
X158610807Y-110501027D01*
X158522158Y-110715045D01*
X158522157Y-110715046D01*
X158393461Y-110907654D01*
X158229654Y-111071461D01*
X158101249Y-111157258D01*
X158037045Y-111200158D01*
X157823027Y-111288807D01*
X157671560Y-111318936D01*
X157595827Y-111334000D01*
X157364173Y-111334000D01*
X157288440Y-111318936D01*
X157136973Y-111288807D01*
X156922955Y-111200158D01*
X156858751Y-111157258D01*
X156730346Y-111071461D01*
X156566539Y-110907654D01*
X156437843Y-110715046D01*
X156437842Y-110715045D01*
X156349193Y-110501027D01*
X156304000Y-110273826D01*
X156304000Y-110042174D01*
X156349193Y-109814973D01*
X156437842Y-109600955D01*
X156480742Y-109536751D01*
X156566539Y-109408346D01*
X156730346Y-109244539D01*
X156922954Y-109115843D01*
X156922955Y-109115842D01*
X157136973Y-109027193D01*
X157288440Y-108997064D01*
X157364173Y-108982000D01*
X157595827Y-108982000D01*
X157671560Y-108997064D01*
G37*
G36*
X130747560Y-108997064D02*
G01*
X130899027Y-109027193D01*
X131113045Y-109115842D01*
X131113046Y-109115843D01*
X131305654Y-109244539D01*
X131469461Y-109408346D01*
X131555258Y-109536751D01*
X131598158Y-109600955D01*
X131686807Y-109814973D01*
X131732000Y-110042174D01*
X131732000Y-110273826D01*
X131686807Y-110501027D01*
X131598158Y-110715045D01*
X131598157Y-110715046D01*
X131469461Y-110907654D01*
X131305654Y-111071461D01*
X131177249Y-111157258D01*
X131113045Y-111200158D01*
X130899027Y-111288807D01*
X130747560Y-111318936D01*
X130671827Y-111334000D01*
X130440173Y-111334000D01*
X130364440Y-111318936D01*
X130212973Y-111288807D01*
X129998955Y-111200158D01*
X129934751Y-111157258D01*
X129806346Y-111071461D01*
X129642539Y-110907654D01*
X129513843Y-110715046D01*
X129513842Y-110715045D01*
X129425193Y-110501027D01*
X129380000Y-110273826D01*
X129380000Y-110042174D01*
X129425193Y-109814973D01*
X129513842Y-109600955D01*
X129556742Y-109536751D01*
X129642539Y-109408346D01*
X129806346Y-109244539D01*
X129998954Y-109115843D01*
X129998955Y-109115842D01*
X130212973Y-109027193D01*
X130364440Y-108997064D01*
X130440173Y-108982000D01*
X130671827Y-108982000D01*
X130747560Y-108997064D01*
G37*
G36*
X171133560Y-108997064D02*
G01*
X171285027Y-109027193D01*
X171499045Y-109115842D01*
X171499046Y-109115843D01*
X171691654Y-109244539D01*
X171855461Y-109408346D01*
X171941258Y-109536751D01*
X171984158Y-109600955D01*
X172072807Y-109814973D01*
X172118000Y-110042174D01*
X172118000Y-110273826D01*
X172072807Y-110501027D01*
X171984158Y-110715045D01*
X171984157Y-110715046D01*
X171855461Y-110907654D01*
X171691654Y-111071461D01*
X171563249Y-111157258D01*
X171499045Y-111200158D01*
X171285027Y-111288807D01*
X171133560Y-111318936D01*
X171057827Y-111334000D01*
X170826173Y-111334000D01*
X170750440Y-111318936D01*
X170598973Y-111288807D01*
X170384955Y-111200158D01*
X170320751Y-111157258D01*
X170192346Y-111071461D01*
X170028539Y-110907654D01*
X169899843Y-110715046D01*
X169899842Y-110715045D01*
X169811193Y-110501027D01*
X169766000Y-110273826D01*
X169766000Y-110042174D01*
X169811193Y-109814973D01*
X169899842Y-109600955D01*
X169942742Y-109536751D01*
X170028539Y-109408346D01*
X170192346Y-109244539D01*
X170384954Y-109115843D01*
X170384955Y-109115842D01*
X170598973Y-109027193D01*
X170750440Y-108997064D01*
X170826173Y-108982000D01*
X171057827Y-108982000D01*
X171133560Y-108997064D01*
G37*
G36*
X171133560Y-105897064D02*
G01*
X171285027Y-105927193D01*
X171499045Y-106015842D01*
X171499046Y-106015843D01*
X171691654Y-106144539D01*
X171855461Y-106308346D01*
X171941258Y-106436751D01*
X171984158Y-106500955D01*
X172072807Y-106714973D01*
X172118000Y-106942174D01*
X172118000Y-107173826D01*
X172072807Y-107401027D01*
X171984158Y-107615045D01*
X171984157Y-107615046D01*
X171855461Y-107807654D01*
X171691654Y-107971461D01*
X171563249Y-108057258D01*
X171499045Y-108100158D01*
X171285027Y-108188807D01*
X171133560Y-108218936D01*
X171057827Y-108234000D01*
X170826173Y-108234000D01*
X170750440Y-108218936D01*
X170598973Y-108188807D01*
X170384955Y-108100158D01*
X170320751Y-108057258D01*
X170192346Y-107971461D01*
X170028539Y-107807654D01*
X169899843Y-107615046D01*
X169899842Y-107615045D01*
X169811193Y-107401027D01*
X169766000Y-107173826D01*
X169766000Y-106942174D01*
X169811193Y-106714973D01*
X169899842Y-106500955D01*
X169942742Y-106436751D01*
X170028539Y-106308346D01*
X170192346Y-106144539D01*
X170384954Y-106015843D01*
X170384955Y-106015842D01*
X170598973Y-105927193D01*
X170750440Y-105897064D01*
X170826173Y-105882000D01*
X171057827Y-105882000D01*
X171133560Y-105897064D01*
G37*
G36*
X157671560Y-105897064D02*
G01*
X157823027Y-105927193D01*
X158037045Y-106015842D01*
X158037046Y-106015843D01*
X158229654Y-106144539D01*
X158393461Y-106308346D01*
X158479258Y-106436751D01*
X158522158Y-106500955D01*
X158610807Y-106714973D01*
X158656000Y-106942174D01*
X158656000Y-107173826D01*
X158610807Y-107401027D01*
X158522158Y-107615045D01*
X158522157Y-107615046D01*
X158393461Y-107807654D01*
X158229654Y-107971461D01*
X158101249Y-108057258D01*
X158037045Y-108100158D01*
X157823027Y-108188807D01*
X157671560Y-108218936D01*
X157595827Y-108234000D01*
X157364173Y-108234000D01*
X157288440Y-108218936D01*
X157136973Y-108188807D01*
X156922955Y-108100158D01*
X156858751Y-108057258D01*
X156730346Y-107971461D01*
X156566539Y-107807654D01*
X156437843Y-107615046D01*
X156437842Y-107615045D01*
X156349193Y-107401027D01*
X156304000Y-107173826D01*
X156304000Y-106942174D01*
X156349193Y-106714973D01*
X156437842Y-106500955D01*
X156480742Y-106436751D01*
X156566539Y-106308346D01*
X156730346Y-106144539D01*
X156922954Y-106015843D01*
X156922955Y-106015842D01*
X157136973Y-105927193D01*
X157288440Y-105897064D01*
X157364173Y-105882000D01*
X157595827Y-105882000D01*
X157671560Y-105897064D01*
G37*
G36*
X144209560Y-105897064D02*
G01*
X144361027Y-105927193D01*
X144575045Y-106015842D01*
X144575046Y-106015843D01*
X144767654Y-106144539D01*
X144931461Y-106308346D01*
X145017258Y-106436751D01*
X145060158Y-106500955D01*
X145148807Y-106714973D01*
X145194000Y-106942174D01*
X145194000Y-107173826D01*
X145148807Y-107401027D01*
X145060158Y-107615045D01*
X145060157Y-107615046D01*
X144931461Y-107807654D01*
X144767654Y-107971461D01*
X144639249Y-108057258D01*
X144575045Y-108100158D01*
X144361027Y-108188807D01*
X144209560Y-108218936D01*
X144133827Y-108234000D01*
X143902173Y-108234000D01*
X143826440Y-108218936D01*
X143674973Y-108188807D01*
X143460955Y-108100158D01*
X143396751Y-108057258D01*
X143268346Y-107971461D01*
X143104539Y-107807654D01*
X142975843Y-107615046D01*
X142975842Y-107615045D01*
X142887193Y-107401027D01*
X142842000Y-107173826D01*
X142842000Y-106942174D01*
X142887193Y-106714973D01*
X142975842Y-106500955D01*
X143018742Y-106436751D01*
X143104539Y-106308346D01*
X143268346Y-106144539D01*
X143460954Y-106015843D01*
X143460955Y-106015842D01*
X143674973Y-105927193D01*
X143826440Y-105897064D01*
X143902173Y-105882000D01*
X144133827Y-105882000D01*
X144209560Y-105897064D01*
G37*
G36*
X130747560Y-105897064D02*
G01*
X130899027Y-105927193D01*
X131113045Y-106015842D01*
X131113046Y-106015843D01*
X131305654Y-106144539D01*
X131469461Y-106308346D01*
X131555258Y-106436751D01*
X131598158Y-106500955D01*
X131686807Y-106714973D01*
X131732000Y-106942174D01*
X131732000Y-107173826D01*
X131686807Y-107401027D01*
X131598158Y-107615045D01*
X131598157Y-107615046D01*
X131469461Y-107807654D01*
X131305654Y-107971461D01*
X131177249Y-108057258D01*
X131113045Y-108100158D01*
X130899027Y-108188807D01*
X130747560Y-108218936D01*
X130671827Y-108234000D01*
X130440173Y-108234000D01*
X130364440Y-108218936D01*
X130212973Y-108188807D01*
X129998955Y-108100158D01*
X129934751Y-108057258D01*
X129806346Y-107971461D01*
X129642539Y-107807654D01*
X129513843Y-107615046D01*
X129513842Y-107615045D01*
X129425193Y-107401027D01*
X129380000Y-107173826D01*
X129380000Y-106942174D01*
X129425193Y-106714973D01*
X129513842Y-106500955D01*
X129556742Y-106436751D01*
X129642539Y-106308346D01*
X129806346Y-106144539D01*
X129998954Y-106015843D01*
X129998955Y-106015842D01*
X130212973Y-105927193D01*
X130364440Y-105897064D01*
X130440173Y-105882000D01*
X130671827Y-105882000D01*
X130747560Y-105897064D01*
G37*
G36*
X117285560Y-105897064D02*
G01*
X117437027Y-105927193D01*
X117651045Y-106015842D01*
X117651046Y-106015843D01*
X117843654Y-106144539D01*
X118007461Y-106308346D01*
X118093258Y-106436751D01*
X118136158Y-106500955D01*
X118224807Y-106714973D01*
X118270000Y-106942174D01*
X118270000Y-107173826D01*
X118224807Y-107401027D01*
X118136158Y-107615045D01*
X118136157Y-107615046D01*
X118007461Y-107807654D01*
X117843654Y-107971461D01*
X117715249Y-108057258D01*
X117651045Y-108100158D01*
X117437027Y-108188807D01*
X117285560Y-108218936D01*
X117209827Y-108234000D01*
X116978173Y-108234000D01*
X116902440Y-108218936D01*
X116750973Y-108188807D01*
X116536955Y-108100158D01*
X116472751Y-108057258D01*
X116344346Y-107971461D01*
X116180539Y-107807654D01*
X116051843Y-107615046D01*
X116051842Y-107615045D01*
X115963193Y-107401027D01*
X115918000Y-107173826D01*
X115918000Y-106942174D01*
X115963193Y-106714973D01*
X116051842Y-106500955D01*
X116094742Y-106436751D01*
X116180539Y-106308346D01*
X116344346Y-106144539D01*
X116536954Y-106015843D01*
X116536955Y-106015842D01*
X116750973Y-105927193D01*
X116902440Y-105897064D01*
X116978173Y-105882000D01*
X117209827Y-105882000D01*
X117285560Y-105897064D01*
G37*
G36*
X184595560Y-105897064D02*
G01*
X184747027Y-105927193D01*
X184961045Y-106015842D01*
X184961046Y-106015843D01*
X185153654Y-106144539D01*
X185317461Y-106308346D01*
X185403258Y-106436751D01*
X185446158Y-106500955D01*
X185534807Y-106714973D01*
X185580000Y-106942174D01*
X185580000Y-107173826D01*
X185534807Y-107401027D01*
X185446158Y-107615045D01*
X185446157Y-107615046D01*
X185317461Y-107807654D01*
X185153654Y-107971461D01*
X185025249Y-108057258D01*
X184961045Y-108100158D01*
X184747027Y-108188807D01*
X184595560Y-108218936D01*
X184519827Y-108234000D01*
X184288173Y-108234000D01*
X184212440Y-108218936D01*
X184060973Y-108188807D01*
X183846955Y-108100158D01*
X183782751Y-108057258D01*
X183654346Y-107971461D01*
X183490539Y-107807654D01*
X183361843Y-107615046D01*
X183361842Y-107615045D01*
X183273193Y-107401027D01*
X183228000Y-107173826D01*
X183228000Y-106942174D01*
X183273193Y-106714973D01*
X183361842Y-106500955D01*
X183404742Y-106436751D01*
X183490539Y-106308346D01*
X183654346Y-106144539D01*
X183846954Y-106015843D01*
X183846955Y-106015842D01*
X184060973Y-105927193D01*
X184212440Y-105897064D01*
X184288173Y-105882000D01*
X184519827Y-105882000D01*
X184595560Y-105897064D01*
G37*
G36*
X171387560Y-102057064D02*
G01*
X171539027Y-102087193D01*
X171753045Y-102175842D01*
X171753046Y-102175843D01*
X171945654Y-102304539D01*
X172109461Y-102468346D01*
X172195258Y-102596751D01*
X172238158Y-102660955D01*
X172326807Y-102874973D01*
X172372000Y-103102174D01*
X172372000Y-103333826D01*
X172326807Y-103561027D01*
X172238158Y-103775045D01*
X172238157Y-103775046D01*
X172109461Y-103967654D01*
X171945654Y-104131461D01*
X171817249Y-104217258D01*
X171753045Y-104260158D01*
X171539027Y-104348807D01*
X171387560Y-104378936D01*
X171311827Y-104394000D01*
X171080173Y-104394000D01*
X171004440Y-104378936D01*
X170852973Y-104348807D01*
X170638955Y-104260158D01*
X170574751Y-104217258D01*
X170446346Y-104131461D01*
X170282539Y-103967654D01*
X170153843Y-103775046D01*
X170153842Y-103775045D01*
X170065193Y-103561027D01*
X170020000Y-103333826D01*
X170020000Y-103102174D01*
X170065193Y-102874973D01*
X170153842Y-102660955D01*
X170196742Y-102596751D01*
X170282539Y-102468346D01*
X170446346Y-102304539D01*
X170638954Y-102175843D01*
X170638955Y-102175842D01*
X170852973Y-102087193D01*
X171004440Y-102057064D01*
X171080173Y-102042000D01*
X171311827Y-102042000D01*
X171387560Y-102057064D01*
G37*
G36*
X184595560Y-102057064D02*
G01*
X184747027Y-102087193D01*
X184961045Y-102175842D01*
X184961046Y-102175843D01*
X185153654Y-102304539D01*
X185317461Y-102468346D01*
X185403258Y-102596751D01*
X185446158Y-102660955D01*
X185534807Y-102874973D01*
X185580000Y-103102174D01*
X185580000Y-103333826D01*
X185534807Y-103561027D01*
X185446158Y-103775045D01*
X185446157Y-103775046D01*
X185317461Y-103967654D01*
X185153654Y-104131461D01*
X185025249Y-104217258D01*
X184961045Y-104260158D01*
X184747027Y-104348807D01*
X184595560Y-104378936D01*
X184519827Y-104394000D01*
X184288173Y-104394000D01*
X184212440Y-104378936D01*
X184060973Y-104348807D01*
X183846955Y-104260158D01*
X183782751Y-104217258D01*
X183654346Y-104131461D01*
X183490539Y-103967654D01*
X183361843Y-103775046D01*
X183361842Y-103775045D01*
X183273193Y-103561027D01*
X183228000Y-103333826D01*
X183228000Y-103102174D01*
X183273193Y-102874973D01*
X183361842Y-102660955D01*
X183404742Y-102596751D01*
X183490539Y-102468346D01*
X183654346Y-102304539D01*
X183846954Y-102175843D01*
X183846955Y-102175842D01*
X184060973Y-102087193D01*
X184212440Y-102057064D01*
X184288173Y-102042000D01*
X184519827Y-102042000D01*
X184595560Y-102057064D01*
G37*
G36*
X117285560Y-102057064D02*
G01*
X117437027Y-102087193D01*
X117651045Y-102175842D01*
X117651046Y-102175843D01*
X117843654Y-102304539D01*
X118007461Y-102468346D01*
X118093258Y-102596751D01*
X118136158Y-102660955D01*
X118224807Y-102874973D01*
X118270000Y-103102174D01*
X118270000Y-103333826D01*
X118224807Y-103561027D01*
X118136158Y-103775045D01*
X118136157Y-103775046D01*
X118007461Y-103967654D01*
X117843654Y-104131461D01*
X117715249Y-104217258D01*
X117651045Y-104260158D01*
X117437027Y-104348807D01*
X117285560Y-104378936D01*
X117209827Y-104394000D01*
X116978173Y-104394000D01*
X116902440Y-104378936D01*
X116750973Y-104348807D01*
X116536955Y-104260158D01*
X116472751Y-104217258D01*
X116344346Y-104131461D01*
X116180539Y-103967654D01*
X116051843Y-103775046D01*
X116051842Y-103775045D01*
X115963193Y-103561027D01*
X115918000Y-103333826D01*
X115918000Y-103102174D01*
X115963193Y-102874973D01*
X116051842Y-102660955D01*
X116094742Y-102596751D01*
X116180539Y-102468346D01*
X116344346Y-102304539D01*
X116536954Y-102175843D01*
X116536955Y-102175842D01*
X116750973Y-102087193D01*
X116902440Y-102057064D01*
X116978173Y-102042000D01*
X117209827Y-102042000D01*
X117285560Y-102057064D01*
G37*
G36*
X130747560Y-102057064D02*
G01*
X130899027Y-102087193D01*
X131113045Y-102175842D01*
X131113046Y-102175843D01*
X131305654Y-102304539D01*
X131469461Y-102468346D01*
X131555258Y-102596751D01*
X131598158Y-102660955D01*
X131686807Y-102874973D01*
X131732000Y-103102174D01*
X131732000Y-103333826D01*
X131686807Y-103561027D01*
X131598158Y-103775045D01*
X131598157Y-103775046D01*
X131469461Y-103967654D01*
X131305654Y-104131461D01*
X131177249Y-104217258D01*
X131113045Y-104260158D01*
X130899027Y-104348807D01*
X130747560Y-104378936D01*
X130671827Y-104394000D01*
X130440173Y-104394000D01*
X130364440Y-104378936D01*
X130212973Y-104348807D01*
X129998955Y-104260158D01*
X129934751Y-104217258D01*
X129806346Y-104131461D01*
X129642539Y-103967654D01*
X129513843Y-103775046D01*
X129513842Y-103775045D01*
X129425193Y-103561027D01*
X129380000Y-103333826D01*
X129380000Y-103102174D01*
X129425193Y-102874973D01*
X129513842Y-102660955D01*
X129556742Y-102596751D01*
X129642539Y-102468346D01*
X129806346Y-102304539D01*
X129998954Y-102175843D01*
X129998955Y-102175842D01*
X130212973Y-102087193D01*
X130364440Y-102057064D01*
X130440173Y-102042000D01*
X130671827Y-102042000D01*
X130747560Y-102057064D01*
G37*
G36*
X144209560Y-102057064D02*
G01*
X144361027Y-102087193D01*
X144575045Y-102175842D01*
X144575046Y-102175843D01*
X144767654Y-102304539D01*
X144931461Y-102468346D01*
X145017258Y-102596751D01*
X145060158Y-102660955D01*
X145148807Y-102874973D01*
X145194000Y-103102174D01*
X145194000Y-103333826D01*
X145148807Y-103561027D01*
X145060158Y-103775045D01*
X145060157Y-103775046D01*
X144931461Y-103967654D01*
X144767654Y-104131461D01*
X144639249Y-104217258D01*
X144575045Y-104260158D01*
X144361027Y-104348807D01*
X144209560Y-104378936D01*
X144133827Y-104394000D01*
X143902173Y-104394000D01*
X143826440Y-104378936D01*
X143674973Y-104348807D01*
X143460955Y-104260158D01*
X143396751Y-104217258D01*
X143268346Y-104131461D01*
X143104539Y-103967654D01*
X142975843Y-103775046D01*
X142975842Y-103775045D01*
X142887193Y-103561027D01*
X142842000Y-103333826D01*
X142842000Y-103102174D01*
X142887193Y-102874973D01*
X142975842Y-102660955D01*
X143018742Y-102596751D01*
X143104539Y-102468346D01*
X143268346Y-102304539D01*
X143460954Y-102175843D01*
X143460955Y-102175842D01*
X143674973Y-102087193D01*
X143826440Y-102057064D01*
X143902173Y-102042000D01*
X144133827Y-102042000D01*
X144209560Y-102057064D01*
G37*
G36*
X157671560Y-102057064D02*
G01*
X157823027Y-102087193D01*
X158037045Y-102175842D01*
X158037046Y-102175843D01*
X158229654Y-102304539D01*
X158393461Y-102468346D01*
X158479258Y-102596751D01*
X158522158Y-102660955D01*
X158610807Y-102874973D01*
X158656000Y-103102174D01*
X158656000Y-103333826D01*
X158610807Y-103561027D01*
X158522158Y-103775045D01*
X158522157Y-103775046D01*
X158393461Y-103967654D01*
X158229654Y-104131461D01*
X158101249Y-104217258D01*
X158037045Y-104260158D01*
X157823027Y-104348807D01*
X157671560Y-104378936D01*
X157595827Y-104394000D01*
X157364173Y-104394000D01*
X157288440Y-104378936D01*
X157136973Y-104348807D01*
X156922955Y-104260158D01*
X156858751Y-104217258D01*
X156730346Y-104131461D01*
X156566539Y-103967654D01*
X156437843Y-103775046D01*
X156437842Y-103775045D01*
X156349193Y-103561027D01*
X156304000Y-103333826D01*
X156304000Y-103102174D01*
X156349193Y-102874973D01*
X156437842Y-102660955D01*
X156480742Y-102596751D01*
X156566539Y-102468346D01*
X156730346Y-102304539D01*
X156922954Y-102175843D01*
X156922955Y-102175842D01*
X157136973Y-102087193D01*
X157288440Y-102057064D01*
X157364173Y-102042000D01*
X157595827Y-102042000D01*
X157671560Y-102057064D01*
G37*
G36*
X117396585Y-96776802D02*
G01*
X117546410Y-96806604D01*
X117828674Y-96923521D01*
X118082705Y-97093259D01*
X118298741Y-97309295D01*
X118468479Y-97563326D01*
X118585396Y-97845590D01*
X118645000Y-98145240D01*
X118645000Y-98450760D01*
X118585396Y-98750410D01*
X118468479Y-99032674D01*
X118298741Y-99286705D01*
X118082705Y-99502741D01*
X117828674Y-99672479D01*
X117546410Y-99789396D01*
X117396585Y-99819198D01*
X117246761Y-99849000D01*
X116941239Y-99849000D01*
X116791415Y-99819198D01*
X116641590Y-99789396D01*
X116359326Y-99672479D01*
X116105295Y-99502741D01*
X115889259Y-99286705D01*
X115719521Y-99032674D01*
X115602604Y-98750410D01*
X115543000Y-98450760D01*
X115543000Y-98145240D01*
X115602604Y-97845590D01*
X115719521Y-97563326D01*
X115889259Y-97309295D01*
X116105295Y-97093259D01*
X116359326Y-96923521D01*
X116641590Y-96806604D01*
X116791415Y-96776802D01*
X116941239Y-96747000D01*
X117246761Y-96747000D01*
X117396585Y-96776802D01*
G37*
G36*
X184706585Y-96776802D02*
G01*
X184856410Y-96806604D01*
X185138674Y-96923521D01*
X185392705Y-97093259D01*
X185608741Y-97309295D01*
X185778479Y-97563326D01*
X185895396Y-97845590D01*
X185955000Y-98145240D01*
X185955000Y-98450760D01*
X185895396Y-98750410D01*
X185778479Y-99032674D01*
X185608741Y-99286705D01*
X185392705Y-99502741D01*
X185138674Y-99672479D01*
X184856410Y-99789396D01*
X184706585Y-99819198D01*
X184556761Y-99849000D01*
X184251239Y-99849000D01*
X184101415Y-99819198D01*
X183951590Y-99789396D01*
X183669326Y-99672479D01*
X183415295Y-99502741D01*
X183199259Y-99286705D01*
X183029521Y-99032674D01*
X182912604Y-98750410D01*
X182853000Y-98450760D01*
X182853000Y-98145240D01*
X182912604Y-97845590D01*
X183029521Y-97563326D01*
X183199259Y-97309295D01*
X183415295Y-97093259D01*
X183669326Y-96923521D01*
X183951590Y-96806604D01*
X184101415Y-96776802D01*
X184251239Y-96747000D01*
X184556761Y-96747000D01*
X184706585Y-96776802D01*
G37*
G36*
X130858585Y-96776802D02*
G01*
X131008410Y-96806604D01*
X131290674Y-96923521D01*
X131544705Y-97093259D01*
X131760741Y-97309295D01*
X131930479Y-97563326D01*
X132047396Y-97845590D01*
X132107000Y-98145240D01*
X132107000Y-98450760D01*
X132047396Y-98750410D01*
X131930479Y-99032674D01*
X131760741Y-99286705D01*
X131544705Y-99502741D01*
X131290674Y-99672479D01*
X131008410Y-99789396D01*
X130858585Y-99819198D01*
X130708761Y-99849000D01*
X130403239Y-99849000D01*
X130253415Y-99819198D01*
X130103590Y-99789396D01*
X129821326Y-99672479D01*
X129567295Y-99502741D01*
X129351259Y-99286705D01*
X129181521Y-99032674D01*
X129064604Y-98750410D01*
X129005000Y-98450760D01*
X129005000Y-98145240D01*
X129064604Y-97845590D01*
X129181521Y-97563326D01*
X129351259Y-97309295D01*
X129567295Y-97093259D01*
X129821326Y-96923521D01*
X130103590Y-96806604D01*
X130253415Y-96776802D01*
X130403239Y-96747000D01*
X130708761Y-96747000D01*
X130858585Y-96776802D01*
G37*
G36*
X144320585Y-96776802D02*
G01*
X144470410Y-96806604D01*
X144752674Y-96923521D01*
X145006705Y-97093259D01*
X145222741Y-97309295D01*
X145392479Y-97563326D01*
X145509396Y-97845590D01*
X145569000Y-98145240D01*
X145569000Y-98450760D01*
X145509396Y-98750410D01*
X145392479Y-99032674D01*
X145222741Y-99286705D01*
X145006705Y-99502741D01*
X144752674Y-99672479D01*
X144470410Y-99789396D01*
X144320585Y-99819198D01*
X144170761Y-99849000D01*
X143865239Y-99849000D01*
X143715415Y-99819198D01*
X143565590Y-99789396D01*
X143283326Y-99672479D01*
X143029295Y-99502741D01*
X142813259Y-99286705D01*
X142643521Y-99032674D01*
X142526604Y-98750410D01*
X142467000Y-98450760D01*
X142467000Y-98145240D01*
X142526604Y-97845590D01*
X142643521Y-97563326D01*
X142813259Y-97309295D01*
X143029295Y-97093259D01*
X143283326Y-96923521D01*
X143565590Y-96806604D01*
X143715415Y-96776802D01*
X143865239Y-96747000D01*
X144170761Y-96747000D01*
X144320585Y-96776802D01*
G37*
G36*
X171498585Y-96776802D02*
G01*
X171648410Y-96806604D01*
X171930674Y-96923521D01*
X172184705Y-97093259D01*
X172400741Y-97309295D01*
X172570479Y-97563326D01*
X172687396Y-97845590D01*
X172747000Y-98145240D01*
X172747000Y-98450760D01*
X172687396Y-98750410D01*
X172570479Y-99032674D01*
X172400741Y-99286705D01*
X172184705Y-99502741D01*
X171930674Y-99672479D01*
X171648410Y-99789396D01*
X171498585Y-99819198D01*
X171348761Y-99849000D01*
X171043239Y-99849000D01*
X170893415Y-99819198D01*
X170743590Y-99789396D01*
X170461326Y-99672479D01*
X170207295Y-99502741D01*
X169991259Y-99286705D01*
X169821521Y-99032674D01*
X169704604Y-98750410D01*
X169645000Y-98450760D01*
X169645000Y-98145240D01*
X169704604Y-97845590D01*
X169821521Y-97563326D01*
X169991259Y-97309295D01*
X170207295Y-97093259D01*
X170461326Y-96923521D01*
X170743590Y-96806604D01*
X170893415Y-96776802D01*
X171043239Y-96747000D01*
X171348761Y-96747000D01*
X171498585Y-96776802D01*
G37*
G36*
X157782585Y-96776802D02*
G01*
X157932410Y-96806604D01*
X158214674Y-96923521D01*
X158468705Y-97093259D01*
X158684741Y-97309295D01*
X158854479Y-97563326D01*
X158971396Y-97845590D01*
X159031000Y-98145240D01*
X159031000Y-98450760D01*
X158971396Y-98750410D01*
X158854479Y-99032674D01*
X158684741Y-99286705D01*
X158468705Y-99502741D01*
X158214674Y-99672479D01*
X157932410Y-99789396D01*
X157782585Y-99819198D01*
X157632761Y-99849000D01*
X157327239Y-99849000D01*
X157177415Y-99819198D01*
X157027590Y-99789396D01*
X156745326Y-99672479D01*
X156491295Y-99502741D01*
X156275259Y-99286705D01*
X156105521Y-99032674D01*
X155988604Y-98750410D01*
X155929000Y-98450760D01*
X155929000Y-98145240D01*
X155988604Y-97845590D01*
X156105521Y-97563326D01*
X156275259Y-97309295D01*
X156491295Y-97093259D01*
X156745326Y-96923521D01*
X157027590Y-96806604D01*
X157177415Y-96776802D01*
X157327239Y-96747000D01*
X157632761Y-96747000D01*
X157782585Y-96776802D01*
G37*
G36*
X130747560Y-93757064D02*
G01*
X130899027Y-93787193D01*
X131113045Y-93875842D01*
X131113046Y-93875843D01*
X131305654Y-94004539D01*
X131469461Y-94168346D01*
X131555258Y-94296751D01*
X131598158Y-94360955D01*
X131686807Y-94574973D01*
X131732000Y-94802174D01*
X131732000Y-95033826D01*
X131686807Y-95261027D01*
X131598158Y-95475045D01*
X131598157Y-95475046D01*
X131469461Y-95667654D01*
X131305654Y-95831461D01*
X131177249Y-95917258D01*
X131113045Y-95960158D01*
X130899027Y-96048807D01*
X130747560Y-96078936D01*
X130671827Y-96094000D01*
X130440173Y-96094000D01*
X130364440Y-96078936D01*
X130212973Y-96048807D01*
X129998955Y-95960158D01*
X129934751Y-95917258D01*
X129806346Y-95831461D01*
X129642539Y-95667654D01*
X129513843Y-95475046D01*
X129513842Y-95475045D01*
X129425193Y-95261027D01*
X129380000Y-95033826D01*
X129380000Y-94802174D01*
X129425193Y-94574973D01*
X129513842Y-94360955D01*
X129556742Y-94296751D01*
X129642539Y-94168346D01*
X129806346Y-94004539D01*
X129998954Y-93875843D01*
X129998955Y-93875842D01*
X130212973Y-93787193D01*
X130364440Y-93757064D01*
X130440173Y-93742000D01*
X130671827Y-93742000D01*
X130747560Y-93757064D01*
G37*
G36*
X117285560Y-93757064D02*
G01*
X117437027Y-93787193D01*
X117651045Y-93875842D01*
X117651046Y-93875843D01*
X117843654Y-94004539D01*
X118007461Y-94168346D01*
X118093258Y-94296751D01*
X118136158Y-94360955D01*
X118224807Y-94574973D01*
X118270000Y-94802174D01*
X118270000Y-95033826D01*
X118224807Y-95261027D01*
X118136158Y-95475045D01*
X118136157Y-95475046D01*
X118007461Y-95667654D01*
X117843654Y-95831461D01*
X117715249Y-95917258D01*
X117651045Y-95960158D01*
X117437027Y-96048807D01*
X117285560Y-96078936D01*
X117209827Y-96094000D01*
X116978173Y-96094000D01*
X116902440Y-96078936D01*
X116750973Y-96048807D01*
X116536955Y-95960158D01*
X116472751Y-95917258D01*
X116344346Y-95831461D01*
X116180539Y-95667654D01*
X116051843Y-95475046D01*
X116051842Y-95475045D01*
X115963193Y-95261027D01*
X115918000Y-95033826D01*
X115918000Y-94802174D01*
X115963193Y-94574973D01*
X116051842Y-94360955D01*
X116094742Y-94296751D01*
X116180539Y-94168346D01*
X116344346Y-94004539D01*
X116536954Y-93875843D01*
X116536955Y-93875842D01*
X116750973Y-93787193D01*
X116902440Y-93757064D01*
X116978173Y-93742000D01*
X117209827Y-93742000D01*
X117285560Y-93757064D01*
G37*
G36*
X144209560Y-93757064D02*
G01*
X144361027Y-93787193D01*
X144575045Y-93875842D01*
X144575046Y-93875843D01*
X144767654Y-94004539D01*
X144931461Y-94168346D01*
X145017258Y-94296751D01*
X145060158Y-94360955D01*
X145148807Y-94574973D01*
X145194000Y-94802174D01*
X145194000Y-95033826D01*
X145148807Y-95261027D01*
X145060158Y-95475045D01*
X145060157Y-95475046D01*
X144931461Y-95667654D01*
X144767654Y-95831461D01*
X144639249Y-95917258D01*
X144575045Y-95960158D01*
X144361027Y-96048807D01*
X144209560Y-96078936D01*
X144133827Y-96094000D01*
X143902173Y-96094000D01*
X143826440Y-96078936D01*
X143674973Y-96048807D01*
X143460955Y-95960158D01*
X143396751Y-95917258D01*
X143268346Y-95831461D01*
X143104539Y-95667654D01*
X142975843Y-95475046D01*
X142975842Y-95475045D01*
X142887193Y-95261027D01*
X142842000Y-95033826D01*
X142842000Y-94802174D01*
X142887193Y-94574973D01*
X142975842Y-94360955D01*
X143018742Y-94296751D01*
X143104539Y-94168346D01*
X143268346Y-94004539D01*
X143460954Y-93875843D01*
X143460955Y-93875842D01*
X143674973Y-93787193D01*
X143826440Y-93757064D01*
X143902173Y-93742000D01*
X144133827Y-93742000D01*
X144209560Y-93757064D01*
G37*
G36*
X157671560Y-93757064D02*
G01*
X157823027Y-93787193D01*
X158037045Y-93875842D01*
X158037046Y-93875843D01*
X158229654Y-94004539D01*
X158393461Y-94168346D01*
X158479258Y-94296751D01*
X158522158Y-94360955D01*
X158610807Y-94574973D01*
X158656000Y-94802174D01*
X158656000Y-95033826D01*
X158610807Y-95261027D01*
X158522158Y-95475045D01*
X158522157Y-95475046D01*
X158393461Y-95667654D01*
X158229654Y-95831461D01*
X158101249Y-95917258D01*
X158037045Y-95960158D01*
X157823027Y-96048807D01*
X157671560Y-96078936D01*
X157595827Y-96094000D01*
X157364173Y-96094000D01*
X157288440Y-96078936D01*
X157136973Y-96048807D01*
X156922955Y-95960158D01*
X156858751Y-95917258D01*
X156730346Y-95831461D01*
X156566539Y-95667654D01*
X156437843Y-95475046D01*
X156437842Y-95475045D01*
X156349193Y-95261027D01*
X156304000Y-95033826D01*
X156304000Y-94802174D01*
X156349193Y-94574973D01*
X156437842Y-94360955D01*
X156480742Y-94296751D01*
X156566539Y-94168346D01*
X156730346Y-94004539D01*
X156922954Y-93875843D01*
X156922955Y-93875842D01*
X157136973Y-93787193D01*
X157288440Y-93757064D01*
X157364173Y-93742000D01*
X157595827Y-93742000D01*
X157671560Y-93757064D01*
G37*
G36*
X171387560Y-93757064D02*
G01*
X171539027Y-93787193D01*
X171753045Y-93875842D01*
X171753046Y-93875843D01*
X171945654Y-94004539D01*
X172109461Y-94168346D01*
X172195258Y-94296751D01*
X172238158Y-94360955D01*
X172326807Y-94574973D01*
X172372000Y-94802174D01*
X172372000Y-95033826D01*
X172326807Y-95261027D01*
X172238158Y-95475045D01*
X172238157Y-95475046D01*
X172109461Y-95667654D01*
X171945654Y-95831461D01*
X171817249Y-95917258D01*
X171753045Y-95960158D01*
X171539027Y-96048807D01*
X171387560Y-96078936D01*
X171311827Y-96094000D01*
X171080173Y-96094000D01*
X171004440Y-96078936D01*
X170852973Y-96048807D01*
X170638955Y-95960158D01*
X170574751Y-95917258D01*
X170446346Y-95831461D01*
X170282539Y-95667654D01*
X170153843Y-95475046D01*
X170153842Y-95475045D01*
X170065193Y-95261027D01*
X170020000Y-95033826D01*
X170020000Y-94802174D01*
X170065193Y-94574973D01*
X170153842Y-94360955D01*
X170196742Y-94296751D01*
X170282539Y-94168346D01*
X170446346Y-94004539D01*
X170638954Y-93875843D01*
X170638955Y-93875842D01*
X170852973Y-93787193D01*
X171004440Y-93757064D01*
X171080173Y-93742000D01*
X171311827Y-93742000D01*
X171387560Y-93757064D01*
G37*
G36*
X184595560Y-93757064D02*
G01*
X184747027Y-93787193D01*
X184961045Y-93875842D01*
X184961046Y-93875843D01*
X185153654Y-94004539D01*
X185317461Y-94168346D01*
X185403258Y-94296751D01*
X185446158Y-94360955D01*
X185534807Y-94574973D01*
X185580000Y-94802174D01*
X185580000Y-95033826D01*
X185534807Y-95261027D01*
X185446158Y-95475045D01*
X185446157Y-95475046D01*
X185317461Y-95667654D01*
X185153654Y-95831461D01*
X185025249Y-95917258D01*
X184961045Y-95960158D01*
X184747027Y-96048807D01*
X184595560Y-96078936D01*
X184519827Y-96094000D01*
X184288173Y-96094000D01*
X184212440Y-96078936D01*
X184060973Y-96048807D01*
X183846955Y-95960158D01*
X183782751Y-95917258D01*
X183654346Y-95831461D01*
X183490539Y-95667654D01*
X183361843Y-95475046D01*
X183361842Y-95475045D01*
X183273193Y-95261027D01*
X183228000Y-95033826D01*
X183228000Y-94802174D01*
X183273193Y-94574973D01*
X183361842Y-94360955D01*
X183404742Y-94296751D01*
X183490539Y-94168346D01*
X183654346Y-94004539D01*
X183846954Y-93875843D01*
X183846955Y-93875842D01*
X184060973Y-93787193D01*
X184212440Y-93757064D01*
X184288173Y-93742000D01*
X184519827Y-93742000D01*
X184595560Y-93757064D01*
G37*
G36*
X184595560Y-90657064D02*
G01*
X184747027Y-90687193D01*
X184961045Y-90775842D01*
X184961046Y-90775843D01*
X185153654Y-90904539D01*
X185317461Y-91068346D01*
X185403258Y-91196751D01*
X185446158Y-91260955D01*
X185534807Y-91474973D01*
X185580000Y-91702174D01*
X185580000Y-91933826D01*
X185534807Y-92161027D01*
X185446158Y-92375045D01*
X185446157Y-92375046D01*
X185317461Y-92567654D01*
X185153654Y-92731461D01*
X185025249Y-92817258D01*
X184961045Y-92860158D01*
X184747027Y-92948807D01*
X184595560Y-92978936D01*
X184519827Y-92994000D01*
X184288173Y-92994000D01*
X184212440Y-92978936D01*
X184060973Y-92948807D01*
X183846955Y-92860158D01*
X183782751Y-92817258D01*
X183654346Y-92731461D01*
X183490539Y-92567654D01*
X183361843Y-92375046D01*
X183361842Y-92375045D01*
X183273193Y-92161027D01*
X183228000Y-91933826D01*
X183228000Y-91702174D01*
X183273193Y-91474973D01*
X183361842Y-91260955D01*
X183404742Y-91196751D01*
X183490539Y-91068346D01*
X183654346Y-90904539D01*
X183846954Y-90775843D01*
X183846955Y-90775842D01*
X184060973Y-90687193D01*
X184212440Y-90657064D01*
X184288173Y-90642000D01*
X184519827Y-90642000D01*
X184595560Y-90657064D01*
G37*
G36*
X171387560Y-90657064D02*
G01*
X171539027Y-90687193D01*
X171753045Y-90775842D01*
X171753046Y-90775843D01*
X171945654Y-90904539D01*
X172109461Y-91068346D01*
X172195258Y-91196751D01*
X172238158Y-91260955D01*
X172326807Y-91474973D01*
X172372000Y-91702174D01*
X172372000Y-91933826D01*
X172326807Y-92161027D01*
X172238158Y-92375045D01*
X172238157Y-92375046D01*
X172109461Y-92567654D01*
X171945654Y-92731461D01*
X171817249Y-92817258D01*
X171753045Y-92860158D01*
X171539027Y-92948807D01*
X171387560Y-92978936D01*
X171311827Y-92994000D01*
X171080173Y-92994000D01*
X171004440Y-92978936D01*
X170852973Y-92948807D01*
X170638955Y-92860158D01*
X170574751Y-92817258D01*
X170446346Y-92731461D01*
X170282539Y-92567654D01*
X170153843Y-92375046D01*
X170153842Y-92375045D01*
X170065193Y-92161027D01*
X170020000Y-91933826D01*
X170020000Y-91702174D01*
X170065193Y-91474973D01*
X170153842Y-91260955D01*
X170196742Y-91196751D01*
X170282539Y-91068346D01*
X170446346Y-90904539D01*
X170638954Y-90775843D01*
X170638955Y-90775842D01*
X170852973Y-90687193D01*
X171004440Y-90657064D01*
X171080173Y-90642000D01*
X171311827Y-90642000D01*
X171387560Y-90657064D01*
G37*
G36*
X157671560Y-90657064D02*
G01*
X157823027Y-90687193D01*
X158037045Y-90775842D01*
X158037046Y-90775843D01*
X158229654Y-90904539D01*
X158393461Y-91068346D01*
X158479258Y-91196751D01*
X158522158Y-91260955D01*
X158610807Y-91474973D01*
X158656000Y-91702174D01*
X158656000Y-91933826D01*
X158610807Y-92161027D01*
X158522158Y-92375045D01*
X158522157Y-92375046D01*
X158393461Y-92567654D01*
X158229654Y-92731461D01*
X158101249Y-92817258D01*
X158037045Y-92860158D01*
X157823027Y-92948807D01*
X157671560Y-92978936D01*
X157595827Y-92994000D01*
X157364173Y-92994000D01*
X157288440Y-92978936D01*
X157136973Y-92948807D01*
X156922955Y-92860158D01*
X156858751Y-92817258D01*
X156730346Y-92731461D01*
X156566539Y-92567654D01*
X156437843Y-92375046D01*
X156437842Y-92375045D01*
X156349193Y-92161027D01*
X156304000Y-91933826D01*
X156304000Y-91702174D01*
X156349193Y-91474973D01*
X156437842Y-91260955D01*
X156480742Y-91196751D01*
X156566539Y-91068346D01*
X156730346Y-90904539D01*
X156922954Y-90775843D01*
X156922955Y-90775842D01*
X157136973Y-90687193D01*
X157288440Y-90657064D01*
X157364173Y-90642000D01*
X157595827Y-90642000D01*
X157671560Y-90657064D01*
G37*
G36*
X144209560Y-90657064D02*
G01*
X144361027Y-90687193D01*
X144575045Y-90775842D01*
X144575046Y-90775843D01*
X144767654Y-90904539D01*
X144931461Y-91068346D01*
X145017258Y-91196751D01*
X145060158Y-91260955D01*
X145148807Y-91474973D01*
X145194000Y-91702174D01*
X145194000Y-91933826D01*
X145148807Y-92161027D01*
X145060158Y-92375045D01*
X145060157Y-92375046D01*
X144931461Y-92567654D01*
X144767654Y-92731461D01*
X144639249Y-92817258D01*
X144575045Y-92860158D01*
X144361027Y-92948807D01*
X144209560Y-92978936D01*
X144133827Y-92994000D01*
X143902173Y-92994000D01*
X143826440Y-92978936D01*
X143674973Y-92948807D01*
X143460955Y-92860158D01*
X143396751Y-92817258D01*
X143268346Y-92731461D01*
X143104539Y-92567654D01*
X142975843Y-92375046D01*
X142975842Y-92375045D01*
X142887193Y-92161027D01*
X142842000Y-91933826D01*
X142842000Y-91702174D01*
X142887193Y-91474973D01*
X142975842Y-91260955D01*
X143018742Y-91196751D01*
X143104539Y-91068346D01*
X143268346Y-90904539D01*
X143460954Y-90775843D01*
X143460955Y-90775842D01*
X143674973Y-90687193D01*
X143826440Y-90657064D01*
X143902173Y-90642000D01*
X144133827Y-90642000D01*
X144209560Y-90657064D01*
G37*
G36*
X117285560Y-90657064D02*
G01*
X117437027Y-90687193D01*
X117651045Y-90775842D01*
X117651046Y-90775843D01*
X117843654Y-90904539D01*
X118007461Y-91068346D01*
X118093258Y-91196751D01*
X118136158Y-91260955D01*
X118224807Y-91474973D01*
X118270000Y-91702174D01*
X118270000Y-91933826D01*
X118224807Y-92161027D01*
X118136158Y-92375045D01*
X118136157Y-92375046D01*
X118007461Y-92567654D01*
X117843654Y-92731461D01*
X117715249Y-92817258D01*
X117651045Y-92860158D01*
X117437027Y-92948807D01*
X117285560Y-92978936D01*
X117209827Y-92994000D01*
X116978173Y-92994000D01*
X116902440Y-92978936D01*
X116750973Y-92948807D01*
X116536955Y-92860158D01*
X116472751Y-92817258D01*
X116344346Y-92731461D01*
X116180539Y-92567654D01*
X116051843Y-92375046D01*
X116051842Y-92375045D01*
X115963193Y-92161027D01*
X115918000Y-91933826D01*
X115918000Y-91702174D01*
X115963193Y-91474973D01*
X116051842Y-91260955D01*
X116094742Y-91196751D01*
X116180539Y-91068346D01*
X116344346Y-90904539D01*
X116536954Y-90775843D01*
X116536955Y-90775842D01*
X116750973Y-90687193D01*
X116902440Y-90657064D01*
X116978173Y-90642000D01*
X117209827Y-90642000D01*
X117285560Y-90657064D01*
G37*
G36*
X130747560Y-90657064D02*
G01*
X130899027Y-90687193D01*
X131113045Y-90775842D01*
X131113046Y-90775843D01*
X131305654Y-90904539D01*
X131469461Y-91068346D01*
X131555258Y-91196751D01*
X131598158Y-91260955D01*
X131686807Y-91474973D01*
X131732000Y-91702174D01*
X131732000Y-91933826D01*
X131686807Y-92161027D01*
X131598158Y-92375045D01*
X131598157Y-92375046D01*
X131469461Y-92567654D01*
X131305654Y-92731461D01*
X131177249Y-92817258D01*
X131113045Y-92860158D01*
X130899027Y-92948807D01*
X130747560Y-92978936D01*
X130671827Y-92994000D01*
X130440173Y-92994000D01*
X130364440Y-92978936D01*
X130212973Y-92948807D01*
X129998955Y-92860158D01*
X129934751Y-92817258D01*
X129806346Y-92731461D01*
X129642539Y-92567654D01*
X129513843Y-92375046D01*
X129513842Y-92375045D01*
X129425193Y-92161027D01*
X129380000Y-91933826D01*
X129380000Y-91702174D01*
X129425193Y-91474973D01*
X129513842Y-91260955D01*
X129556742Y-91196751D01*
X129642539Y-91068346D01*
X129806346Y-90904539D01*
X129998954Y-90775843D01*
X129998955Y-90775842D01*
X130212973Y-90687193D01*
X130364440Y-90657064D01*
X130440173Y-90642000D01*
X130671827Y-90642000D01*
X130747560Y-90657064D01*
G37*
G36*
X188327512Y-86225927D02*
G01*
X188476812Y-86255624D01*
X188640784Y-86323544D01*
X188788354Y-86422147D01*
X188913853Y-86547646D01*
X189012456Y-86695216D01*
X189080376Y-86859188D01*
X189115000Y-87033259D01*
X189115000Y-87210741D01*
X189080376Y-87384812D01*
X189012456Y-87548784D01*
X188913853Y-87696354D01*
X188788354Y-87821853D01*
X188640784Y-87920456D01*
X188476812Y-87988376D01*
X188327512Y-88018073D01*
X188302742Y-88023000D01*
X188125258Y-88023000D01*
X188100488Y-88018073D01*
X187951188Y-87988376D01*
X187787216Y-87920456D01*
X187639646Y-87821853D01*
X187514147Y-87696354D01*
X187415544Y-87548784D01*
X187347624Y-87384812D01*
X187313000Y-87210741D01*
X187313000Y-87033259D01*
X187347624Y-86859188D01*
X187415544Y-86695216D01*
X187514147Y-86547646D01*
X187639646Y-86422147D01*
X187787216Y-86323544D01*
X187951188Y-86255624D01*
X188100488Y-86225927D01*
X188125258Y-86221000D01*
X188302742Y-86221000D01*
X188327512Y-86225927D01*
G37*
G36*
X113397512Y-86225927D02*
G01*
X113546812Y-86255624D01*
X113710784Y-86323544D01*
X113858354Y-86422147D01*
X113983853Y-86547646D01*
X114082456Y-86695216D01*
X114150376Y-86859188D01*
X114185000Y-87033259D01*
X114185000Y-87210741D01*
X114150376Y-87384812D01*
X114082456Y-87548784D01*
X113983853Y-87696354D01*
X113858354Y-87821853D01*
X113710784Y-87920456D01*
X113546812Y-87988376D01*
X113397512Y-88018073D01*
X113372742Y-88023000D01*
X113195258Y-88023000D01*
X113170488Y-88018073D01*
X113021188Y-87988376D01*
X112857216Y-87920456D01*
X112709646Y-87821853D01*
X112584147Y-87696354D01*
X112485544Y-87548784D01*
X112417624Y-87384812D01*
X112383000Y-87210741D01*
X112383000Y-87033259D01*
X112417624Y-86859188D01*
X112485544Y-86695216D01*
X112584147Y-86547646D01*
X112709646Y-86422147D01*
X112857216Y-86323544D01*
X113021188Y-86255624D01*
X113170488Y-86225927D01*
X113195258Y-86221000D01*
X113372742Y-86221000D01*
X113397512Y-86225927D01*
G37*
G36*
X173734441Y-84885960D02*
G01*
X173998505Y-84995339D01*
X174236158Y-85154134D01*
X174438266Y-85356242D01*
X174597061Y-85593895D01*
X174706440Y-85857959D01*
X174762200Y-86138288D01*
X174762200Y-86424112D01*
X174706440Y-86704441D01*
X174597061Y-86968505D01*
X174438266Y-87206158D01*
X174236158Y-87408266D01*
X173998505Y-87567061D01*
X173734441Y-87676440D01*
X173454112Y-87732200D01*
X173168288Y-87732200D01*
X172887959Y-87676440D01*
X172623895Y-87567061D01*
X172386242Y-87408266D01*
X172184134Y-87206158D01*
X172025339Y-86968505D01*
X171915960Y-86704441D01*
X171860200Y-86424112D01*
X171860200Y-86138288D01*
X171915960Y-85857959D01*
X172025339Y-85593895D01*
X172184134Y-85356242D01*
X172386242Y-85154134D01*
X172623895Y-84995339D01*
X172887959Y-84885960D01*
X173168288Y-84830200D01*
X173454112Y-84830200D01*
X173734441Y-84885960D01*
G37*
G36*
X128268441Y-84885960D02*
G01*
X128532505Y-84995339D01*
X128770158Y-85154134D01*
X128972266Y-85356242D01*
X129131061Y-85593895D01*
X129240440Y-85857959D01*
X129296200Y-86138288D01*
X129296200Y-86424112D01*
X129240440Y-86704441D01*
X129131061Y-86968505D01*
X128972266Y-87206158D01*
X128770158Y-87408266D01*
X128532505Y-87567061D01*
X128268441Y-87676440D01*
X127988112Y-87732200D01*
X127702288Y-87732200D01*
X127421959Y-87676440D01*
X127157895Y-87567061D01*
X126920242Y-87408266D01*
X126718134Y-87206158D01*
X126559339Y-86968505D01*
X126449960Y-86704441D01*
X126394200Y-86424112D01*
X126394200Y-86138288D01*
X126449960Y-85857959D01*
X126559339Y-85593895D01*
X126718134Y-85356242D01*
X126920242Y-85154134D01*
X127157895Y-84995339D01*
X127421959Y-84885960D01*
X127702288Y-84830200D01*
X127988112Y-84830200D01*
X128268441Y-84885960D01*
G37*
G36*
X188327512Y-83685927D02*
G01*
X188476812Y-83715624D01*
X188640784Y-83783544D01*
X188788354Y-83882147D01*
X188913853Y-84007646D01*
X189012456Y-84155216D01*
X189080376Y-84319188D01*
X189115000Y-84493259D01*
X189115000Y-84670741D01*
X189080376Y-84844812D01*
X189012456Y-85008784D01*
X188913853Y-85156354D01*
X188788354Y-85281853D01*
X188640784Y-85380456D01*
X188476812Y-85448376D01*
X188327512Y-85478073D01*
X188302742Y-85483000D01*
X188125258Y-85483000D01*
X188100488Y-85478073D01*
X187951188Y-85448376D01*
X187787216Y-85380456D01*
X187639646Y-85281853D01*
X187514147Y-85156354D01*
X187415544Y-85008784D01*
X187347624Y-84844812D01*
X187313000Y-84670741D01*
X187313000Y-84493259D01*
X187347624Y-84319188D01*
X187415544Y-84155216D01*
X187514147Y-84007646D01*
X187639646Y-83882147D01*
X187787216Y-83783544D01*
X187951188Y-83715624D01*
X188100488Y-83685927D01*
X188125258Y-83681000D01*
X188302742Y-83681000D01*
X188327512Y-83685927D01*
G37*
G36*
X113397512Y-83685927D02*
G01*
X113546812Y-83715624D01*
X113710784Y-83783544D01*
X113858354Y-83882147D01*
X113983853Y-84007646D01*
X114082456Y-84155216D01*
X114150376Y-84319188D01*
X114185000Y-84493259D01*
X114185000Y-84670741D01*
X114150376Y-84844812D01*
X114082456Y-85008784D01*
X113983853Y-85156354D01*
X113858354Y-85281853D01*
X113710784Y-85380456D01*
X113546812Y-85448376D01*
X113397512Y-85478073D01*
X113372742Y-85483000D01*
X113195258Y-85483000D01*
X113170488Y-85478073D01*
X113021188Y-85448376D01*
X112857216Y-85380456D01*
X112709646Y-85281853D01*
X112584147Y-85156354D01*
X112485544Y-85008784D01*
X112417624Y-84844812D01*
X112383000Y-84670741D01*
X112383000Y-84493259D01*
X112417624Y-84319188D01*
X112485544Y-84155216D01*
X112584147Y-84007646D01*
X112709646Y-83882147D01*
X112857216Y-83783544D01*
X113021188Y-83715624D01*
X113170488Y-83685927D01*
X113195258Y-83681000D01*
X113372742Y-83681000D01*
X113397512Y-83685927D01*
G37*
G36*
X120651764Y-82170589D02*
G01*
X120843033Y-82249815D01*
X120843035Y-82249816D01*
X121015173Y-82364835D01*
X121161565Y-82511227D01*
X121245029Y-82636139D01*
X121276585Y-82683367D01*
X121355811Y-82874636D01*
X121396200Y-83077684D01*
X121396200Y-83284716D01*
X121355811Y-83487764D01*
X121276585Y-83679033D01*
X121276584Y-83679035D01*
X121161565Y-83851173D01*
X121015173Y-83997565D01*
X120843035Y-84112584D01*
X120843034Y-84112585D01*
X120843033Y-84112585D01*
X120651764Y-84191811D01*
X120448716Y-84232200D01*
X120241684Y-84232200D01*
X120038636Y-84191811D01*
X119847367Y-84112585D01*
X119847366Y-84112585D01*
X119847365Y-84112584D01*
X119675227Y-83997565D01*
X119528835Y-83851173D01*
X119413816Y-83679035D01*
X119413815Y-83679033D01*
X119334589Y-83487764D01*
X119294200Y-83284716D01*
X119294200Y-83077684D01*
X119334589Y-82874636D01*
X119413815Y-82683367D01*
X119445372Y-82636139D01*
X119528835Y-82511227D01*
X119675227Y-82364835D01*
X119847365Y-82249816D01*
X119847367Y-82249815D01*
X120038636Y-82170589D01*
X120241684Y-82130200D01*
X120448716Y-82130200D01*
X120651764Y-82170589D01*
G37*
G36*
X135151764Y-82170589D02*
G01*
X135343033Y-82249815D01*
X135343035Y-82249816D01*
X135515173Y-82364835D01*
X135661565Y-82511227D01*
X135745029Y-82636139D01*
X135776585Y-82683367D01*
X135855811Y-82874636D01*
X135896200Y-83077684D01*
X135896200Y-83284716D01*
X135855811Y-83487764D01*
X135776585Y-83679033D01*
X135776584Y-83679035D01*
X135661565Y-83851173D01*
X135515173Y-83997565D01*
X135343035Y-84112584D01*
X135343034Y-84112585D01*
X135343033Y-84112585D01*
X135151764Y-84191811D01*
X134948716Y-84232200D01*
X134741684Y-84232200D01*
X134538636Y-84191811D01*
X134347367Y-84112585D01*
X134347366Y-84112585D01*
X134347365Y-84112584D01*
X134175227Y-83997565D01*
X134028835Y-83851173D01*
X133913816Y-83679035D01*
X133913815Y-83679033D01*
X133834589Y-83487764D01*
X133794200Y-83284716D01*
X133794200Y-83077684D01*
X133834589Y-82874636D01*
X133913815Y-82683367D01*
X133945372Y-82636139D01*
X134028835Y-82511227D01*
X134175227Y-82364835D01*
X134347365Y-82249816D01*
X134347367Y-82249815D01*
X134538636Y-82170589D01*
X134741684Y-82130200D01*
X134948716Y-82130200D01*
X135151764Y-82170589D01*
G37*
G36*
X166117764Y-82170589D02*
G01*
X166309033Y-82249815D01*
X166309035Y-82249816D01*
X166481173Y-82364835D01*
X166627565Y-82511227D01*
X166711029Y-82636139D01*
X166742585Y-82683367D01*
X166821811Y-82874636D01*
X166862200Y-83077684D01*
X166862200Y-83284716D01*
X166821811Y-83487764D01*
X166742585Y-83679033D01*
X166742584Y-83679035D01*
X166627565Y-83851173D01*
X166481173Y-83997565D01*
X166309035Y-84112584D01*
X166309034Y-84112585D01*
X166309033Y-84112585D01*
X166117764Y-84191811D01*
X165914716Y-84232200D01*
X165707684Y-84232200D01*
X165504636Y-84191811D01*
X165313367Y-84112585D01*
X165313366Y-84112585D01*
X165313365Y-84112584D01*
X165141227Y-83997565D01*
X164994835Y-83851173D01*
X164879816Y-83679035D01*
X164879815Y-83679033D01*
X164800589Y-83487764D01*
X164760200Y-83284716D01*
X164760200Y-83077684D01*
X164800589Y-82874636D01*
X164879815Y-82683367D01*
X164911372Y-82636139D01*
X164994835Y-82511227D01*
X165141227Y-82364835D01*
X165313365Y-82249816D01*
X165313367Y-82249815D01*
X165504636Y-82170589D01*
X165707684Y-82130200D01*
X165914716Y-82130200D01*
X166117764Y-82170589D01*
G37*
G36*
X180617764Y-82170589D02*
G01*
X180809033Y-82249815D01*
X180809035Y-82249816D01*
X180981173Y-82364835D01*
X181127565Y-82511227D01*
X181211029Y-82636139D01*
X181242585Y-82683367D01*
X181321811Y-82874636D01*
X181362200Y-83077684D01*
X181362200Y-83284716D01*
X181321811Y-83487764D01*
X181242585Y-83679033D01*
X181242584Y-83679035D01*
X181127565Y-83851173D01*
X180981173Y-83997565D01*
X180809035Y-84112584D01*
X180809034Y-84112585D01*
X180809033Y-84112585D01*
X180617764Y-84191811D01*
X180414716Y-84232200D01*
X180207684Y-84232200D01*
X180004636Y-84191811D01*
X179813367Y-84112585D01*
X179813366Y-84112585D01*
X179813365Y-84112584D01*
X179641227Y-83997565D01*
X179494835Y-83851173D01*
X179379816Y-83679035D01*
X179379815Y-83679033D01*
X179300589Y-83487764D01*
X179260200Y-83284716D01*
X179260200Y-83077684D01*
X179300589Y-82874636D01*
X179379815Y-82683367D01*
X179411372Y-82636139D01*
X179494835Y-82511227D01*
X179641227Y-82364835D01*
X179813365Y-82249816D01*
X179813367Y-82249815D01*
X180004636Y-82170589D01*
X180207684Y-82130200D01*
X180414716Y-82130200D01*
X180617764Y-82170589D01*
G37*
G36*
X113397512Y-81145927D02*
G01*
X113546812Y-81175624D01*
X113710784Y-81243544D01*
X113858354Y-81342147D01*
X113983853Y-81467646D01*
X114082456Y-81615216D01*
X114150376Y-81779188D01*
X114185000Y-81953259D01*
X114185000Y-82130741D01*
X114150376Y-82304812D01*
X114082456Y-82468784D01*
X113983853Y-82616354D01*
X113858354Y-82741853D01*
X113710784Y-82840456D01*
X113546812Y-82908376D01*
X113397512Y-82938073D01*
X113372742Y-82943000D01*
X113195258Y-82943000D01*
X113170488Y-82938073D01*
X113021188Y-82908376D01*
X112857216Y-82840456D01*
X112709646Y-82741853D01*
X112584147Y-82616354D01*
X112485544Y-82468784D01*
X112417624Y-82304812D01*
X112383000Y-82130741D01*
X112383000Y-81953259D01*
X112417624Y-81779188D01*
X112485544Y-81615216D01*
X112584147Y-81467646D01*
X112709646Y-81342147D01*
X112857216Y-81243544D01*
X113021188Y-81175624D01*
X113170488Y-81145927D01*
X113195258Y-81141000D01*
X113372742Y-81141000D01*
X113397512Y-81145927D01*
G37*
G36*
X188327512Y-81145927D02*
G01*
X188476812Y-81175624D01*
X188640784Y-81243544D01*
X188788354Y-81342147D01*
X188913853Y-81467646D01*
X189012456Y-81615216D01*
X189080376Y-81779188D01*
X189115000Y-81953259D01*
X189115000Y-82130741D01*
X189080376Y-82304812D01*
X189012456Y-82468784D01*
X188913853Y-82616354D01*
X188788354Y-82741853D01*
X188640784Y-82840456D01*
X188476812Y-82908376D01*
X188327512Y-82938073D01*
X188302742Y-82943000D01*
X188125258Y-82943000D01*
X188100488Y-82938073D01*
X187951188Y-82908376D01*
X187787216Y-82840456D01*
X187639646Y-82741853D01*
X187514147Y-82616354D01*
X187415544Y-82468784D01*
X187347624Y-82304812D01*
X187313000Y-82130741D01*
X187313000Y-81953259D01*
X187347624Y-81779188D01*
X187415544Y-81615216D01*
X187514147Y-81467646D01*
X187639646Y-81342147D01*
X187787216Y-81243544D01*
X187951188Y-81175624D01*
X188100488Y-81145927D01*
X188125258Y-81141000D01*
X188302742Y-81141000D01*
X188327512Y-81145927D01*
G37*
G36*
X158985074Y-81346265D02*
G01*
X159022767Y-81357699D01*
X159057503Y-81376266D01*
X159087948Y-81401252D01*
X159112934Y-81431697D01*
X159131501Y-81466433D01*
X159142935Y-81504126D01*
X159147400Y-81549461D01*
X159147400Y-82636139D01*
X159142935Y-82681474D01*
X159131501Y-82719167D01*
X159112934Y-82753903D01*
X159087948Y-82784348D01*
X159057503Y-82809334D01*
X159022767Y-82827901D01*
X158985074Y-82839335D01*
X158939739Y-82843800D01*
X158103061Y-82843800D01*
X158057726Y-82839335D01*
X158020033Y-82827901D01*
X157985297Y-82809334D01*
X157954852Y-82784348D01*
X157929866Y-82753903D01*
X157911299Y-82719167D01*
X157899865Y-82681474D01*
X157895400Y-82636139D01*
X157895400Y-81549461D01*
X157899865Y-81504126D01*
X157911299Y-81466433D01*
X157929866Y-81431697D01*
X157954852Y-81401252D01*
X157985297Y-81376266D01*
X158020033Y-81357699D01*
X158057726Y-81346265D01*
X158103061Y-81341800D01*
X158939739Y-81341800D01*
X158985074Y-81346265D01*
G37*
G36*
X161035074Y-81346265D02*
G01*
X161072767Y-81357699D01*
X161107503Y-81376266D01*
X161137948Y-81401252D01*
X161162934Y-81431697D01*
X161181501Y-81466433D01*
X161192935Y-81504126D01*
X161197400Y-81549461D01*
X161197400Y-82636139D01*
X161192935Y-82681474D01*
X161181501Y-82719167D01*
X161162934Y-82753903D01*
X161137948Y-82784348D01*
X161107503Y-82809334D01*
X161072767Y-82827901D01*
X161035074Y-82839335D01*
X160989739Y-82843800D01*
X160153061Y-82843800D01*
X160107726Y-82839335D01*
X160070033Y-82827901D01*
X160035297Y-82809334D01*
X160004852Y-82784348D01*
X159979866Y-82753903D01*
X159961299Y-82719167D01*
X159949865Y-82681474D01*
X159945400Y-82636139D01*
X159945400Y-81549461D01*
X159949865Y-81504126D01*
X159961299Y-81466433D01*
X159979866Y-81431697D01*
X160004852Y-81401252D01*
X160035297Y-81376266D01*
X160070033Y-81357699D01*
X160107726Y-81346265D01*
X160153061Y-81341800D01*
X160989739Y-81341800D01*
X161035074Y-81346265D01*
G37*
G36*
X155709600Y-81766600D02*
G01*
X153707600Y-81766600D01*
X153707600Y-80864600D01*
X155709600Y-80864600D01*
X155709600Y-81766600D01*
G37*
G36*
X166117764Y-79670589D02*
G01*
X166309033Y-79749815D01*
X166309035Y-79749816D01*
X166331478Y-79764812D01*
X166481173Y-79864835D01*
X166627565Y-80011227D01*
X166742585Y-80183367D01*
X166821811Y-80374636D01*
X166862200Y-80577684D01*
X166862200Y-80784716D01*
X166821811Y-80987764D01*
X166742585Y-81179033D01*
X166742584Y-81179035D01*
X166627565Y-81351173D01*
X166481173Y-81497565D01*
X166309035Y-81612584D01*
X166309034Y-81612585D01*
X166309033Y-81612585D01*
X166117764Y-81691811D01*
X165914716Y-81732200D01*
X165707684Y-81732200D01*
X165504636Y-81691811D01*
X165313367Y-81612585D01*
X165313366Y-81612585D01*
X165313365Y-81612584D01*
X165141227Y-81497565D01*
X164994835Y-81351173D01*
X164879816Y-81179035D01*
X164879815Y-81179033D01*
X164800589Y-80987764D01*
X164760200Y-80784716D01*
X164760200Y-80577684D01*
X164800589Y-80374636D01*
X164879815Y-80183367D01*
X164994835Y-80011227D01*
X165141227Y-79864835D01*
X165290922Y-79764812D01*
X165313365Y-79749816D01*
X165313367Y-79749815D01*
X165504636Y-79670589D01*
X165707684Y-79630200D01*
X165914716Y-79630200D01*
X166117764Y-79670589D01*
G37*
G36*
X120651764Y-79670589D02*
G01*
X120843033Y-79749815D01*
X120843035Y-79749816D01*
X120865478Y-79764812D01*
X121015173Y-79864835D01*
X121161565Y-80011227D01*
X121276585Y-80183367D01*
X121355811Y-80374636D01*
X121396200Y-80577684D01*
X121396200Y-80784716D01*
X121355811Y-80987764D01*
X121276585Y-81179033D01*
X121276584Y-81179035D01*
X121161565Y-81351173D01*
X121015173Y-81497565D01*
X120843035Y-81612584D01*
X120843034Y-81612585D01*
X120843033Y-81612585D01*
X120651764Y-81691811D01*
X120448716Y-81732200D01*
X120241684Y-81732200D01*
X120038636Y-81691811D01*
X119847367Y-81612585D01*
X119847366Y-81612585D01*
X119847365Y-81612584D01*
X119675227Y-81497565D01*
X119528835Y-81351173D01*
X119413816Y-81179035D01*
X119413815Y-81179033D01*
X119334589Y-80987764D01*
X119294200Y-80784716D01*
X119294200Y-80577684D01*
X119334589Y-80374636D01*
X119413815Y-80183367D01*
X119528835Y-80011227D01*
X119675227Y-79864835D01*
X119824922Y-79764812D01*
X119847365Y-79749816D01*
X119847367Y-79749815D01*
X120038636Y-79670589D01*
X120241684Y-79630200D01*
X120448716Y-79630200D01*
X120651764Y-79670589D01*
G37*
G36*
X152128755Y-79763566D02*
G01*
X152301826Y-79835254D01*
X152379178Y-79886939D01*
X152457587Y-79939330D01*
X152590050Y-80071793D01*
X152642441Y-80150202D01*
X152694126Y-80227554D01*
X152765814Y-80400625D01*
X152802360Y-80584353D01*
X152802360Y-80771687D01*
X152765814Y-80955415D01*
X152694126Y-81128486D01*
X152660350Y-81179035D01*
X152590050Y-81284247D01*
X152457587Y-81416710D01*
X152450391Y-81421518D01*
X152301826Y-81520786D01*
X152128755Y-81592474D01*
X151945027Y-81629020D01*
X151757693Y-81629020D01*
X151573965Y-81592474D01*
X151400894Y-81520786D01*
X151252329Y-81421518D01*
X151245133Y-81416710D01*
X151112670Y-81284247D01*
X151042370Y-81179035D01*
X151008594Y-81128486D01*
X150936906Y-80955415D01*
X150900360Y-80771687D01*
X150900360Y-80584353D01*
X150936906Y-80400625D01*
X151008594Y-80227554D01*
X151060279Y-80150202D01*
X151112670Y-80071793D01*
X151245133Y-79939330D01*
X151323542Y-79886939D01*
X151400894Y-79835254D01*
X151573965Y-79763566D01*
X151757693Y-79727020D01*
X151945027Y-79727020D01*
X152128755Y-79763566D01*
G37*
G36*
X150262360Y-81629020D02*
G01*
X148360360Y-81629020D01*
X148360360Y-79727020D01*
X150262360Y-79727020D01*
X150262360Y-81629020D01*
G37*
G36*
X158709600Y-80816600D02*
G01*
X156707600Y-80816600D01*
X156707600Y-79914600D01*
X158709600Y-79914600D01*
X158709600Y-80816600D01*
G37*
G36*
X188327512Y-78605927D02*
G01*
X188476812Y-78635624D01*
X188640784Y-78703544D01*
X188788354Y-78802147D01*
X188913853Y-78927646D01*
X189012456Y-79075216D01*
X189080376Y-79239188D01*
X189115000Y-79413259D01*
X189115000Y-79590741D01*
X189080376Y-79764812D01*
X189012456Y-79928784D01*
X188913853Y-80076354D01*
X188788354Y-80201853D01*
X188640784Y-80300456D01*
X188476812Y-80368376D01*
X188327512Y-80398073D01*
X188302742Y-80403000D01*
X188125258Y-80403000D01*
X188100488Y-80398073D01*
X187951188Y-80368376D01*
X187787216Y-80300456D01*
X187639646Y-80201853D01*
X187514147Y-80076354D01*
X187415544Y-79928784D01*
X187347624Y-79764812D01*
X187313000Y-79590741D01*
X187313000Y-79413259D01*
X187347624Y-79239188D01*
X187415544Y-79075216D01*
X187514147Y-78927646D01*
X187639646Y-78802147D01*
X187787216Y-78703544D01*
X187951188Y-78635624D01*
X188100488Y-78605927D01*
X188125258Y-78601000D01*
X188302742Y-78601000D01*
X188327512Y-78605927D01*
G37*
G36*
X113397512Y-78605927D02*
G01*
X113546812Y-78635624D01*
X113710784Y-78703544D01*
X113858354Y-78802147D01*
X113983853Y-78927646D01*
X114082456Y-79075216D01*
X114150376Y-79239188D01*
X114185000Y-79413259D01*
X114185000Y-79590741D01*
X114150376Y-79764812D01*
X114082456Y-79928784D01*
X113983853Y-80076354D01*
X113858354Y-80201853D01*
X113710784Y-80300456D01*
X113546812Y-80368376D01*
X113397512Y-80398073D01*
X113372742Y-80403000D01*
X113195258Y-80403000D01*
X113170488Y-80398073D01*
X113021188Y-80368376D01*
X112857216Y-80300456D01*
X112709646Y-80201853D01*
X112584147Y-80076354D01*
X112485544Y-79928784D01*
X112417624Y-79764812D01*
X112383000Y-79590741D01*
X112383000Y-79413259D01*
X112417624Y-79239188D01*
X112485544Y-79075216D01*
X112584147Y-78927646D01*
X112709646Y-78802147D01*
X112857216Y-78703544D01*
X113021188Y-78635624D01*
X113170488Y-78605927D01*
X113195258Y-78601000D01*
X113372742Y-78601000D01*
X113397512Y-78605927D01*
G37*
G36*
X155709600Y-79866600D02*
G01*
X153707600Y-79866600D01*
X153707600Y-78964600D01*
X155709600Y-78964600D01*
X155709600Y-79866600D01*
G37*
G36*
X161076874Y-77866465D02*
G01*
X161114567Y-77877899D01*
X161149303Y-77896466D01*
X161179748Y-77921452D01*
X161204734Y-77951897D01*
X161223301Y-77986633D01*
X161234735Y-78024326D01*
X161239200Y-78069661D01*
X161239200Y-79156339D01*
X161234735Y-79201674D01*
X161223301Y-79239367D01*
X161204734Y-79274103D01*
X161179748Y-79304548D01*
X161149303Y-79329534D01*
X161114567Y-79348101D01*
X161076874Y-79359535D01*
X161031539Y-79364000D01*
X160194861Y-79364000D01*
X160149526Y-79359535D01*
X160111833Y-79348101D01*
X160077097Y-79329534D01*
X160046652Y-79304548D01*
X160021666Y-79274103D01*
X160003099Y-79239367D01*
X159991665Y-79201674D01*
X159987200Y-79156339D01*
X159987200Y-78069661D01*
X159991665Y-78024326D01*
X160003099Y-77986633D01*
X160021666Y-77951897D01*
X160046652Y-77921452D01*
X160077097Y-77896466D01*
X160111833Y-77877899D01*
X160149526Y-77866465D01*
X160194861Y-77862000D01*
X161031539Y-77862000D01*
X161076874Y-77866465D01*
G37*
G36*
X159026874Y-77866465D02*
G01*
X159064567Y-77877899D01*
X159099303Y-77896466D01*
X159129748Y-77921452D01*
X159154734Y-77951897D01*
X159173301Y-77986633D01*
X159184735Y-78024326D01*
X159189200Y-78069661D01*
X159189200Y-79156339D01*
X159184735Y-79201674D01*
X159173301Y-79239367D01*
X159154734Y-79274103D01*
X159129748Y-79304548D01*
X159099303Y-79329534D01*
X159064567Y-79348101D01*
X159026874Y-79359535D01*
X158981539Y-79364000D01*
X158144861Y-79364000D01*
X158099526Y-79359535D01*
X158061833Y-79348101D01*
X158027097Y-79329534D01*
X157996652Y-79304548D01*
X157971666Y-79274103D01*
X157953099Y-79239367D01*
X157941665Y-79201674D01*
X157937200Y-79156339D01*
X157937200Y-78069661D01*
X157941665Y-78024326D01*
X157953099Y-77986633D01*
X157971666Y-77951897D01*
X157996652Y-77921452D01*
X158027097Y-77896466D01*
X158061833Y-77877899D01*
X158099526Y-77866465D01*
X158144861Y-77862000D01*
X158981539Y-77862000D01*
X159026874Y-77866465D01*
G37*
G36*
X135151764Y-77170589D02*
G01*
X135282670Y-77224812D01*
X135343035Y-77249816D01*
X135515173Y-77364835D01*
X135661565Y-77511227D01*
X135776585Y-77683367D01*
X135855811Y-77874636D01*
X135896200Y-78077684D01*
X135896200Y-78284716D01*
X135855811Y-78487764D01*
X135794565Y-78635625D01*
X135776584Y-78679035D01*
X135661565Y-78851173D01*
X135515173Y-78997565D01*
X135343035Y-79112584D01*
X135343034Y-79112585D01*
X135343033Y-79112585D01*
X135151764Y-79191811D01*
X134948716Y-79232200D01*
X134741684Y-79232200D01*
X134538636Y-79191811D01*
X134347367Y-79112585D01*
X134347366Y-79112585D01*
X134347365Y-79112584D01*
X134175227Y-78997565D01*
X134028835Y-78851173D01*
X133913816Y-78679035D01*
X133895835Y-78635625D01*
X133834589Y-78487764D01*
X133794200Y-78284716D01*
X133794200Y-78077684D01*
X133834589Y-77874636D01*
X133913815Y-77683367D01*
X134028835Y-77511227D01*
X134175227Y-77364835D01*
X134347365Y-77249816D01*
X134407730Y-77224812D01*
X134538636Y-77170589D01*
X134741684Y-77130200D01*
X134948716Y-77130200D01*
X135151764Y-77170589D01*
G37*
G36*
X121396200Y-79232200D02*
G01*
X119294200Y-79232200D01*
X119294200Y-77130200D01*
X121396200Y-77130200D01*
X121396200Y-79232200D01*
G37*
G36*
X166862200Y-79232200D02*
G01*
X164760200Y-79232200D01*
X164760200Y-77130200D01*
X166862200Y-77130200D01*
X166862200Y-79232200D01*
G37*
G36*
X180617764Y-77170589D02*
G01*
X180748670Y-77224812D01*
X180809035Y-77249816D01*
X180981173Y-77364835D01*
X181127565Y-77511227D01*
X181242585Y-77683367D01*
X181321811Y-77874636D01*
X181362200Y-78077684D01*
X181362200Y-78284716D01*
X181321811Y-78487764D01*
X181260565Y-78635625D01*
X181242584Y-78679035D01*
X181127565Y-78851173D01*
X180981173Y-78997565D01*
X180809035Y-79112584D01*
X180809034Y-79112585D01*
X180809033Y-79112585D01*
X180617764Y-79191811D01*
X180414716Y-79232200D01*
X180207684Y-79232200D01*
X180004636Y-79191811D01*
X179813367Y-79112585D01*
X179813366Y-79112585D01*
X179813365Y-79112584D01*
X179641227Y-78997565D01*
X179494835Y-78851173D01*
X179379816Y-78679035D01*
X179361835Y-78635625D01*
X179300589Y-78487764D01*
X179260200Y-78284716D01*
X179260200Y-78077684D01*
X179300589Y-77874636D01*
X179379815Y-77683367D01*
X179494835Y-77511227D01*
X179641227Y-77364835D01*
X179813365Y-77249816D01*
X179873730Y-77224812D01*
X180004636Y-77170589D01*
X180207684Y-77130200D01*
X180414716Y-77130200D01*
X180617764Y-77170589D01*
G37*
G36*
X113397512Y-76065927D02*
G01*
X113546812Y-76095624D01*
X113710784Y-76163544D01*
X113858354Y-76262147D01*
X113983853Y-76387646D01*
X114082456Y-76535216D01*
X114150376Y-76699188D01*
X114185000Y-76873259D01*
X114185000Y-77050741D01*
X114150376Y-77224812D01*
X114082456Y-77388784D01*
X113983853Y-77536354D01*
X113858354Y-77661853D01*
X113710784Y-77760456D01*
X113546812Y-77828376D01*
X113397512Y-77858073D01*
X113372742Y-77863000D01*
X113195258Y-77863000D01*
X113170488Y-77858073D01*
X113021188Y-77828376D01*
X112857216Y-77760456D01*
X112709646Y-77661853D01*
X112584147Y-77536354D01*
X112485544Y-77388784D01*
X112417624Y-77224812D01*
X112383000Y-77050741D01*
X112383000Y-76873259D01*
X112417624Y-76699188D01*
X112485544Y-76535216D01*
X112584147Y-76387646D01*
X112709646Y-76262147D01*
X112857216Y-76163544D01*
X113021188Y-76095624D01*
X113170488Y-76065927D01*
X113195258Y-76061000D01*
X113372742Y-76061000D01*
X113397512Y-76065927D01*
G37*
G36*
X188327512Y-76065927D02*
G01*
X188476812Y-76095624D01*
X188640784Y-76163544D01*
X188788354Y-76262147D01*
X188913853Y-76387646D01*
X189012456Y-76535216D01*
X189080376Y-76699188D01*
X189115000Y-76873259D01*
X189115000Y-77050741D01*
X189080376Y-77224812D01*
X189012456Y-77388784D01*
X188913853Y-77536354D01*
X188788354Y-77661853D01*
X188640784Y-77760456D01*
X188476812Y-77828376D01*
X188327512Y-77858073D01*
X188302742Y-77863000D01*
X188125258Y-77863000D01*
X188100488Y-77858073D01*
X187951188Y-77828376D01*
X187787216Y-77760456D01*
X187639646Y-77661853D01*
X187514147Y-77536354D01*
X187415544Y-77388784D01*
X187347624Y-77224812D01*
X187313000Y-77050741D01*
X187313000Y-76873259D01*
X187347624Y-76699188D01*
X187415544Y-76535216D01*
X187514147Y-76387646D01*
X187639646Y-76262147D01*
X187787216Y-76163544D01*
X187951188Y-76095624D01*
X188100488Y-76065927D01*
X188125258Y-76061000D01*
X188302742Y-76061000D01*
X188327512Y-76065927D01*
G37*
G36*
X173734441Y-73685960D02*
G01*
X173998505Y-73795339D01*
X174236158Y-73954134D01*
X174438266Y-74156242D01*
X174597061Y-74393895D01*
X174706440Y-74657959D01*
X174762200Y-74938288D01*
X174762200Y-75224112D01*
X174706440Y-75504441D01*
X174597061Y-75768505D01*
X174438266Y-76006158D01*
X174236158Y-76208266D01*
X173998505Y-76367061D01*
X173734441Y-76476440D01*
X173454112Y-76532200D01*
X173168288Y-76532200D01*
X172887959Y-76476440D01*
X172623895Y-76367061D01*
X172386242Y-76208266D01*
X172184134Y-76006158D01*
X172025339Y-75768505D01*
X171915960Y-75504441D01*
X171860200Y-75224112D01*
X171860200Y-74938288D01*
X171915960Y-74657959D01*
X172025339Y-74393895D01*
X172184134Y-74156242D01*
X172386242Y-73954134D01*
X172623895Y-73795339D01*
X172887959Y-73685960D01*
X173168288Y-73630200D01*
X173454112Y-73630200D01*
X173734441Y-73685960D01*
G37*
G36*
X128268441Y-73685960D02*
G01*
X128532505Y-73795339D01*
X128770158Y-73954134D01*
X128972266Y-74156242D01*
X129131061Y-74393895D01*
X129240440Y-74657959D01*
X129296200Y-74938288D01*
X129296200Y-75224112D01*
X129240440Y-75504441D01*
X129131061Y-75768505D01*
X128972266Y-76006158D01*
X128770158Y-76208266D01*
X128532505Y-76367061D01*
X128268441Y-76476440D01*
X127988112Y-76532200D01*
X127702288Y-76532200D01*
X127421959Y-76476440D01*
X127157895Y-76367061D01*
X126920242Y-76208266D01*
X126718134Y-76006158D01*
X126559339Y-75768505D01*
X126449960Y-75504441D01*
X126394200Y-75224112D01*
X126394200Y-74938288D01*
X126449960Y-74657959D01*
X126559339Y-74393895D01*
X126718134Y-74156242D01*
X126920242Y-73954134D01*
X127157895Y-73795339D01*
X127421959Y-73685960D01*
X127702288Y-73630200D01*
X127988112Y-73630200D01*
X128268441Y-73685960D01*
G37*
G36*
X188327512Y-73525927D02*
G01*
X188476812Y-73555624D01*
X188640784Y-73623544D01*
X188788354Y-73722147D01*
X188913853Y-73847646D01*
X189012456Y-73995216D01*
X189080376Y-74159188D01*
X189115000Y-74333259D01*
X189115000Y-74510741D01*
X189080376Y-74684812D01*
X189012456Y-74848784D01*
X188913853Y-74996354D01*
X188788354Y-75121853D01*
X188640784Y-75220456D01*
X188476812Y-75288376D01*
X188327512Y-75318073D01*
X188302742Y-75323000D01*
X188125258Y-75323000D01*
X188100488Y-75318073D01*
X187951188Y-75288376D01*
X187787216Y-75220456D01*
X187639646Y-75121853D01*
X187514147Y-74996354D01*
X187415544Y-74848784D01*
X187347624Y-74684812D01*
X187313000Y-74510741D01*
X187313000Y-74333259D01*
X187347624Y-74159188D01*
X187415544Y-73995216D01*
X187514147Y-73847646D01*
X187639646Y-73722147D01*
X187787216Y-73623544D01*
X187951188Y-73555624D01*
X188100488Y-73525927D01*
X188125258Y-73521000D01*
X188302742Y-73521000D01*
X188327512Y-73525927D01*
G37*
G36*
X113397512Y-73525927D02*
G01*
X113546812Y-73555624D01*
X113710784Y-73623544D01*
X113858354Y-73722147D01*
X113983853Y-73847646D01*
X114082456Y-73995216D01*
X114150376Y-74159188D01*
X114185000Y-74333259D01*
X114185000Y-74510741D01*
X114150376Y-74684812D01*
X114082456Y-74848784D01*
X113983853Y-74996354D01*
X113858354Y-75121853D01*
X113710784Y-75220456D01*
X113546812Y-75288376D01*
X113397512Y-75318073D01*
X113372742Y-75323000D01*
X113195258Y-75323000D01*
X113170488Y-75318073D01*
X113021188Y-75288376D01*
X112857216Y-75220456D01*
X112709646Y-75121853D01*
X112584147Y-74996354D01*
X112485544Y-74848784D01*
X112417624Y-74684812D01*
X112383000Y-74510741D01*
X112383000Y-74333259D01*
X112417624Y-74159188D01*
X112485544Y-73995216D01*
X112584147Y-73847646D01*
X112709646Y-73722147D01*
X112857216Y-73623544D01*
X113021188Y-73555624D01*
X113170488Y-73525927D01*
X113195258Y-73521000D01*
X113372742Y-73521000D01*
X113397512Y-73525927D01*
G37*
G36*
X188327512Y-70985927D02*
G01*
X188476812Y-71015624D01*
X188640784Y-71083544D01*
X188788354Y-71182147D01*
X188913853Y-71307646D01*
X189012456Y-71455216D01*
X189080376Y-71619188D01*
X189115000Y-71793259D01*
X189115000Y-71970741D01*
X189080376Y-72144812D01*
X189012456Y-72308784D01*
X188913853Y-72456354D01*
X188788354Y-72581853D01*
X188640784Y-72680456D01*
X188476812Y-72748376D01*
X188327512Y-72778073D01*
X188302742Y-72783000D01*
X188125258Y-72783000D01*
X188100488Y-72778073D01*
X187951188Y-72748376D01*
X187787216Y-72680456D01*
X187639646Y-72581853D01*
X187514147Y-72456354D01*
X187415544Y-72308784D01*
X187347624Y-72144812D01*
X187313000Y-71970741D01*
X187313000Y-71793259D01*
X187347624Y-71619188D01*
X187415544Y-71455216D01*
X187514147Y-71307646D01*
X187639646Y-71182147D01*
X187787216Y-71083544D01*
X187951188Y-71015624D01*
X188100488Y-70985927D01*
X188125258Y-70981000D01*
X188302742Y-70981000D01*
X188327512Y-70985927D01*
G37*
G36*
X113397512Y-70985927D02*
G01*
X113546812Y-71015624D01*
X113710784Y-71083544D01*
X113858354Y-71182147D01*
X113983853Y-71307646D01*
X114082456Y-71455216D01*
X114150376Y-71619188D01*
X114185000Y-71793259D01*
X114185000Y-71970741D01*
X114150376Y-72144812D01*
X114082456Y-72308784D01*
X113983853Y-72456354D01*
X113858354Y-72581853D01*
X113710784Y-72680456D01*
X113546812Y-72748376D01*
X113397512Y-72778073D01*
X113372742Y-72783000D01*
X113195258Y-72783000D01*
X113170488Y-72778073D01*
X113021188Y-72748376D01*
X112857216Y-72680456D01*
X112709646Y-72581853D01*
X112584147Y-72456354D01*
X112485544Y-72308784D01*
X112417624Y-72144812D01*
X112383000Y-71970741D01*
X112383000Y-71793259D01*
X112417624Y-71619188D01*
X112485544Y-71455216D01*
X112584147Y-71307646D01*
X112709646Y-71182147D01*
X112857216Y-71083544D01*
X113021188Y-71015624D01*
X113170488Y-70985927D01*
X113195258Y-70981000D01*
X113372742Y-70981000D01*
X113397512Y-70985927D01*
G37*
G36*
X149002874Y-69459065D02*
G01*
X149040567Y-69470499D01*
X149075303Y-69489066D01*
X149105748Y-69514052D01*
X149130734Y-69544497D01*
X149149301Y-69579233D01*
X149160735Y-69616926D01*
X149165200Y-69662261D01*
X149165200Y-70748939D01*
X149160735Y-70794274D01*
X149149301Y-70831967D01*
X149130734Y-70866703D01*
X149105748Y-70897148D01*
X149075303Y-70922134D01*
X149040567Y-70940701D01*
X149002874Y-70952135D01*
X148957539Y-70956600D01*
X148120861Y-70956600D01*
X148075526Y-70952135D01*
X148037833Y-70940701D01*
X148003097Y-70922134D01*
X147972652Y-70897148D01*
X147947666Y-70866703D01*
X147929099Y-70831967D01*
X147917665Y-70794274D01*
X147913200Y-70748939D01*
X147913200Y-69662261D01*
X147917665Y-69616926D01*
X147929099Y-69579233D01*
X147947666Y-69544497D01*
X147972652Y-69514052D01*
X148003097Y-69489066D01*
X148037833Y-69470499D01*
X148075526Y-69459065D01*
X148120861Y-69454600D01*
X148957539Y-69454600D01*
X149002874Y-69459065D01*
G37*
G36*
X151052874Y-69459065D02*
G01*
X151090567Y-69470499D01*
X151125303Y-69489066D01*
X151155748Y-69514052D01*
X151180734Y-69544497D01*
X151199301Y-69579233D01*
X151210735Y-69616926D01*
X151215200Y-69662261D01*
X151215200Y-70748939D01*
X151210735Y-70794274D01*
X151199301Y-70831967D01*
X151180734Y-70866703D01*
X151155748Y-70897148D01*
X151125303Y-70922134D01*
X151090567Y-70940701D01*
X151052874Y-70952135D01*
X151007539Y-70956600D01*
X150170861Y-70956600D01*
X150125526Y-70952135D01*
X150087833Y-70940701D01*
X150053097Y-70922134D01*
X150022652Y-70897148D01*
X149997666Y-70866703D01*
X149979099Y-70831967D01*
X149967665Y-70794274D01*
X149963200Y-70748939D01*
X149963200Y-69662261D01*
X149967665Y-69616926D01*
X149979099Y-69579233D01*
X149997666Y-69544497D01*
X150022652Y-69514052D01*
X150053097Y-69489066D01*
X150087833Y-69470499D01*
X150125526Y-69459065D01*
X150170861Y-69454600D01*
X151007539Y-69454600D01*
X151052874Y-69459065D01*
G37*
G36*
X172033274Y-69433665D02*
G01*
X172070967Y-69445099D01*
X172105703Y-69463666D01*
X172136148Y-69488652D01*
X172161134Y-69519097D01*
X172179701Y-69553833D01*
X172191135Y-69591526D01*
X172195600Y-69636861D01*
X172195600Y-70723539D01*
X172191135Y-70768874D01*
X172179701Y-70806567D01*
X172161134Y-70841303D01*
X172136148Y-70871748D01*
X172105703Y-70896734D01*
X172070967Y-70915301D01*
X172033274Y-70926735D01*
X171987939Y-70931200D01*
X171151261Y-70931200D01*
X171105926Y-70926735D01*
X171068233Y-70915301D01*
X171033497Y-70896734D01*
X171003052Y-70871748D01*
X170978066Y-70841303D01*
X170959499Y-70806567D01*
X170948065Y-70768874D01*
X170943600Y-70723539D01*
X170943600Y-69636861D01*
X170948065Y-69591526D01*
X170959499Y-69553833D01*
X170978066Y-69519097D01*
X171003052Y-69488652D01*
X171033497Y-69463666D01*
X171068233Y-69445099D01*
X171105926Y-69433665D01*
X171151261Y-69429200D01*
X171987939Y-69429200D01*
X172033274Y-69433665D01*
G37*
G36*
X169983274Y-69433665D02*
G01*
X170020967Y-69445099D01*
X170055703Y-69463666D01*
X170086148Y-69488652D01*
X170111134Y-69519097D01*
X170129701Y-69553833D01*
X170141135Y-69591526D01*
X170145600Y-69636861D01*
X170145600Y-70723539D01*
X170141135Y-70768874D01*
X170129701Y-70806567D01*
X170111134Y-70841303D01*
X170086148Y-70871748D01*
X170055703Y-70896734D01*
X170020967Y-70915301D01*
X169983274Y-70926735D01*
X169937939Y-70931200D01*
X169101261Y-70931200D01*
X169055926Y-70926735D01*
X169018233Y-70915301D01*
X168983497Y-70896734D01*
X168953052Y-70871748D01*
X168928066Y-70841303D01*
X168909499Y-70806567D01*
X168898065Y-70768874D01*
X168893600Y-70723539D01*
X168893600Y-69636861D01*
X168898065Y-69591526D01*
X168909499Y-69553833D01*
X168928066Y-69519097D01*
X168953052Y-69488652D01*
X168983497Y-69463666D01*
X169018233Y-69445099D01*
X169055926Y-69433665D01*
X169101261Y-69429200D01*
X169937939Y-69429200D01*
X169983274Y-69433665D01*
G37*
G36*
X113397512Y-68445927D02*
G01*
X113546812Y-68475624D01*
X113710784Y-68543544D01*
X113858354Y-68642147D01*
X113983853Y-68767646D01*
X114082456Y-68915216D01*
X114150376Y-69079188D01*
X114180073Y-69228488D01*
X114185000Y-69253258D01*
X114185000Y-69430742D01*
X114184266Y-69434430D01*
X114150376Y-69604812D01*
X114082456Y-69768784D01*
X113983853Y-69916354D01*
X113858354Y-70041853D01*
X113710784Y-70140456D01*
X113546812Y-70208376D01*
X113397512Y-70238073D01*
X113372742Y-70243000D01*
X113195258Y-70243000D01*
X113170488Y-70238073D01*
X113021188Y-70208376D01*
X112857216Y-70140456D01*
X112709646Y-70041853D01*
X112584147Y-69916354D01*
X112485544Y-69768784D01*
X112417624Y-69604812D01*
X112383734Y-69434430D01*
X112383000Y-69430742D01*
X112383000Y-69253258D01*
X112387927Y-69228488D01*
X112417624Y-69079188D01*
X112485544Y-68915216D01*
X112584147Y-68767646D01*
X112709646Y-68642147D01*
X112857216Y-68543544D01*
X113021188Y-68475624D01*
X113170488Y-68445927D01*
X113195258Y-68441000D01*
X113372742Y-68441000D01*
X113397512Y-68445927D01*
G37*
G36*
X188327512Y-68445927D02*
G01*
X188476812Y-68475624D01*
X188640784Y-68543544D01*
X188788354Y-68642147D01*
X188913853Y-68767646D01*
X189012456Y-68915216D01*
X189080376Y-69079188D01*
X189110073Y-69228488D01*
X189115000Y-69253258D01*
X189115000Y-69430742D01*
X189114266Y-69434430D01*
X189080376Y-69604812D01*
X189012456Y-69768784D01*
X188913853Y-69916354D01*
X188788354Y-70041853D01*
X188640784Y-70140456D01*
X188476812Y-70208376D01*
X188327512Y-70238073D01*
X188302742Y-70243000D01*
X188125258Y-70243000D01*
X188100488Y-70238073D01*
X187951188Y-70208376D01*
X187787216Y-70140456D01*
X187639646Y-70041853D01*
X187514147Y-69916354D01*
X187415544Y-69768784D01*
X187347624Y-69604812D01*
X187313734Y-69434430D01*
X187313000Y-69430742D01*
X187313000Y-69253258D01*
X187317927Y-69228488D01*
X187347624Y-69079188D01*
X187415544Y-68915216D01*
X187514147Y-68767646D01*
X187639646Y-68642147D01*
X187787216Y-68543544D01*
X187951188Y-68475624D01*
X188100488Y-68445927D01*
X188125258Y-68441000D01*
X188302742Y-68441000D01*
X188327512Y-68445927D01*
G37*
G36*
X145600400Y-69904800D02*
G01*
X143598400Y-69904800D01*
X143598400Y-69002800D01*
X145600400Y-69002800D01*
X145600400Y-69904800D01*
G37*
G36*
X162684995Y-67904306D02*
G01*
X162858066Y-67975994D01*
X162858067Y-67975995D01*
X163013827Y-68080070D01*
X163146290Y-68212533D01*
X163146291Y-68212535D01*
X163250366Y-68368294D01*
X163322054Y-68541365D01*
X163358600Y-68725093D01*
X163358600Y-68912427D01*
X163322054Y-69096155D01*
X163250366Y-69269226D01*
X163250365Y-69269227D01*
X163146290Y-69424987D01*
X163013827Y-69557450D01*
X162986720Y-69575562D01*
X162858066Y-69661526D01*
X162684995Y-69733214D01*
X162501267Y-69769760D01*
X162313933Y-69769760D01*
X162130205Y-69733214D01*
X161957134Y-69661526D01*
X161828480Y-69575562D01*
X161801373Y-69557450D01*
X161668910Y-69424987D01*
X161564835Y-69269227D01*
X161564834Y-69269226D01*
X161493146Y-69096155D01*
X161456600Y-68912427D01*
X161456600Y-68725093D01*
X161493146Y-68541365D01*
X161564834Y-68368294D01*
X161668909Y-68212535D01*
X161668910Y-68212533D01*
X161801373Y-68080070D01*
X161957133Y-67975995D01*
X161957134Y-67975994D01*
X162130205Y-67904306D01*
X162313933Y-67867760D01*
X162501267Y-67867760D01*
X162684995Y-67904306D01*
G37*
G36*
X160818600Y-69769760D02*
G01*
X158916600Y-69769760D01*
X158916600Y-67867760D01*
X160818600Y-67867760D01*
X160818600Y-69769760D01*
G37*
G36*
X166761400Y-69767600D02*
G01*
X164759400Y-69767600D01*
X164759400Y-68865600D01*
X166761400Y-68865600D01*
X166761400Y-69767600D01*
G37*
G36*
X139591820Y-69757060D02*
G01*
X137689820Y-69757060D01*
X137689820Y-67855060D01*
X139591820Y-67855060D01*
X139591820Y-69757060D01*
G37*
G36*
X141458215Y-67891606D02*
G01*
X141631286Y-67963294D01*
X141650294Y-67975995D01*
X141787047Y-68067370D01*
X141919510Y-68199833D01*
X141919511Y-68199835D01*
X142023586Y-68355594D01*
X142095274Y-68528665D01*
X142131820Y-68712393D01*
X142131820Y-68899727D01*
X142095274Y-69083455D01*
X142023586Y-69256526D01*
X142023585Y-69256527D01*
X141919510Y-69412287D01*
X141787047Y-69544750D01*
X141740933Y-69575562D01*
X141631286Y-69648826D01*
X141458215Y-69720514D01*
X141274487Y-69757060D01*
X141087153Y-69757060D01*
X140903425Y-69720514D01*
X140730354Y-69648826D01*
X140620707Y-69575562D01*
X140574593Y-69544750D01*
X140442130Y-69412287D01*
X140338055Y-69256527D01*
X140338054Y-69256526D01*
X140266366Y-69083455D01*
X140229820Y-68899727D01*
X140229820Y-68712393D01*
X140266366Y-68528665D01*
X140338054Y-68355594D01*
X140442129Y-68199835D01*
X140442130Y-68199833D01*
X140574593Y-68067370D01*
X140711346Y-67975995D01*
X140730354Y-67963294D01*
X140903425Y-67891606D01*
X141087153Y-67855060D01*
X141274487Y-67855060D01*
X141458215Y-67891606D01*
G37*
G36*
X148600400Y-68954800D02*
G01*
X146598400Y-68954800D01*
X146598400Y-68052800D01*
X148600400Y-68052800D01*
X148600400Y-68954800D01*
G37*
G36*
X169761400Y-68817600D02*
G01*
X167759400Y-68817600D01*
X167759400Y-67915600D01*
X169761400Y-67915600D01*
X169761400Y-68817600D01*
G37*
G36*
X145600400Y-68004800D02*
G01*
X143598400Y-68004800D01*
X143598400Y-67102800D01*
X145600400Y-67102800D01*
X145600400Y-68004800D01*
G37*
G36*
X166761400Y-67867600D02*
G01*
X164759400Y-67867600D01*
X164759400Y-66965600D01*
X166761400Y-66965600D01*
X166761400Y-67867600D01*
G37*
G36*
X113397512Y-65905927D02*
G01*
X113546812Y-65935624D01*
X113710784Y-66003544D01*
X113858354Y-66102147D01*
X113983853Y-66227646D01*
X114082456Y-66375216D01*
X114150376Y-66539188D01*
X114185000Y-66713259D01*
X114185000Y-66890741D01*
X114150376Y-67064812D01*
X114082456Y-67228784D01*
X113983853Y-67376354D01*
X113858354Y-67501853D01*
X113710784Y-67600456D01*
X113546812Y-67668376D01*
X113397512Y-67698073D01*
X113372742Y-67703000D01*
X113195258Y-67703000D01*
X113170488Y-67698073D01*
X113021188Y-67668376D01*
X112857216Y-67600456D01*
X112709646Y-67501853D01*
X112584147Y-67376354D01*
X112485544Y-67228784D01*
X112417624Y-67064812D01*
X112383000Y-66890741D01*
X112383000Y-66713259D01*
X112417624Y-66539188D01*
X112485544Y-66375216D01*
X112584147Y-66227646D01*
X112709646Y-66102147D01*
X112857216Y-66003544D01*
X113021188Y-65935624D01*
X113170488Y-65905927D01*
X113195258Y-65901000D01*
X113372742Y-65901000D01*
X113397512Y-65905927D01*
G37*
G36*
X188327512Y-65905927D02*
G01*
X188476812Y-65935624D01*
X188640784Y-66003544D01*
X188788354Y-66102147D01*
X188913853Y-66227646D01*
X189012456Y-66375216D01*
X189080376Y-66539188D01*
X189115000Y-66713259D01*
X189115000Y-66890741D01*
X189080376Y-67064812D01*
X189012456Y-67228784D01*
X188913853Y-67376354D01*
X188788354Y-67501853D01*
X188640784Y-67600456D01*
X188476812Y-67668376D01*
X188327512Y-67698073D01*
X188302742Y-67703000D01*
X188125258Y-67703000D01*
X188100488Y-67698073D01*
X187951188Y-67668376D01*
X187787216Y-67600456D01*
X187639646Y-67501853D01*
X187514147Y-67376354D01*
X187415544Y-67228784D01*
X187347624Y-67064812D01*
X187313000Y-66890741D01*
X187313000Y-66713259D01*
X187347624Y-66539188D01*
X187415544Y-66375216D01*
X187514147Y-66227646D01*
X187639646Y-66102147D01*
X187787216Y-66003544D01*
X187951188Y-65935624D01*
X188100488Y-65905927D01*
X188125258Y-65901000D01*
X188302742Y-65901000D01*
X188327512Y-65905927D01*
G37*
G36*
X149028274Y-65953865D02*
G01*
X149065967Y-65965299D01*
X149100703Y-65983866D01*
X149131148Y-66008852D01*
X149156134Y-66039297D01*
X149174701Y-66074033D01*
X149186135Y-66111726D01*
X149190600Y-66157061D01*
X149190600Y-67243739D01*
X149186135Y-67289074D01*
X149174701Y-67326767D01*
X149156134Y-67361503D01*
X149131148Y-67391948D01*
X149100703Y-67416934D01*
X149065967Y-67435501D01*
X149028274Y-67446935D01*
X148982939Y-67451400D01*
X148146261Y-67451400D01*
X148100926Y-67446935D01*
X148063233Y-67435501D01*
X148028497Y-67416934D01*
X147998052Y-67391948D01*
X147973066Y-67361503D01*
X147954499Y-67326767D01*
X147943065Y-67289074D01*
X147938600Y-67243739D01*
X147938600Y-66157061D01*
X147943065Y-66111726D01*
X147954499Y-66074033D01*
X147973066Y-66039297D01*
X147998052Y-66008852D01*
X148028497Y-65983866D01*
X148063233Y-65965299D01*
X148100926Y-65953865D01*
X148146261Y-65949400D01*
X148982939Y-65949400D01*
X149028274Y-65953865D01*
G37*
G36*
X151078274Y-65953865D02*
G01*
X151115967Y-65965299D01*
X151150703Y-65983866D01*
X151181148Y-66008852D01*
X151206134Y-66039297D01*
X151224701Y-66074033D01*
X151236135Y-66111726D01*
X151240600Y-66157061D01*
X151240600Y-67243739D01*
X151236135Y-67289074D01*
X151224701Y-67326767D01*
X151206134Y-67361503D01*
X151181148Y-67391948D01*
X151150703Y-67416934D01*
X151115967Y-67435501D01*
X151078274Y-67446935D01*
X151032939Y-67451400D01*
X150196261Y-67451400D01*
X150150926Y-67446935D01*
X150113233Y-67435501D01*
X150078497Y-67416934D01*
X150048052Y-67391948D01*
X150023066Y-67361503D01*
X150004499Y-67326767D01*
X149993065Y-67289074D01*
X149988600Y-67243739D01*
X149988600Y-66157061D01*
X149993065Y-66111726D01*
X150004499Y-66074033D01*
X150023066Y-66039297D01*
X150048052Y-66008852D01*
X150078497Y-65983866D01*
X150113233Y-65965299D01*
X150150926Y-65953865D01*
X150196261Y-65949400D01*
X151032939Y-65949400D01*
X151078274Y-65953865D01*
G37*
G36*
X172007874Y-65750665D02*
G01*
X172045567Y-65762099D01*
X172080303Y-65780666D01*
X172110748Y-65805652D01*
X172135734Y-65836097D01*
X172154301Y-65870833D01*
X172165735Y-65908526D01*
X172170200Y-65953861D01*
X172170200Y-67040539D01*
X172165735Y-67085874D01*
X172154301Y-67123567D01*
X172135734Y-67158303D01*
X172110748Y-67188748D01*
X172080303Y-67213734D01*
X172045567Y-67232301D01*
X172007874Y-67243735D01*
X171962539Y-67248200D01*
X171125861Y-67248200D01*
X171080526Y-67243735D01*
X171042833Y-67232301D01*
X171008097Y-67213734D01*
X170977652Y-67188748D01*
X170952666Y-67158303D01*
X170934099Y-67123567D01*
X170922665Y-67085874D01*
X170918200Y-67040539D01*
X170918200Y-65953861D01*
X170922665Y-65908526D01*
X170934099Y-65870833D01*
X170952666Y-65836097D01*
X170977652Y-65805652D01*
X171008097Y-65780666D01*
X171042833Y-65762099D01*
X171080526Y-65750665D01*
X171125861Y-65746200D01*
X171962539Y-65746200D01*
X172007874Y-65750665D01*
G37*
G36*
X169957874Y-65750665D02*
G01*
X169995567Y-65762099D01*
X170030303Y-65780666D01*
X170060748Y-65805652D01*
X170085734Y-65836097D01*
X170104301Y-65870833D01*
X170115735Y-65908526D01*
X170120200Y-65953861D01*
X170120200Y-67040539D01*
X170115735Y-67085874D01*
X170104301Y-67123567D01*
X170085734Y-67158303D01*
X170060748Y-67188748D01*
X170030303Y-67213734D01*
X169995567Y-67232301D01*
X169957874Y-67243735D01*
X169912539Y-67248200D01*
X169075861Y-67248200D01*
X169030526Y-67243735D01*
X168992833Y-67232301D01*
X168958097Y-67213734D01*
X168927652Y-67188748D01*
X168902666Y-67158303D01*
X168884099Y-67123567D01*
X168872665Y-67085874D01*
X168868200Y-67040539D01*
X168868200Y-65953861D01*
X168872665Y-65908526D01*
X168884099Y-65870833D01*
X168902666Y-65836097D01*
X168927652Y-65805652D01*
X168958097Y-65780666D01*
X168992833Y-65762099D01*
X169030526Y-65750665D01*
X169075861Y-65746200D01*
X169912539Y-65746200D01*
X169957874Y-65750665D01*
G37*
G36*
X188327512Y-63365927D02*
G01*
X188476812Y-63395624D01*
X188640784Y-63463544D01*
X188788354Y-63562147D01*
X188913853Y-63687646D01*
X189012456Y-63835216D01*
X189080376Y-63999188D01*
X189115000Y-64173259D01*
X189115000Y-64350741D01*
X189080376Y-64524812D01*
X189012456Y-64688784D01*
X188913853Y-64836354D01*
X188788354Y-64961853D01*
X188640784Y-65060456D01*
X188476812Y-65128376D01*
X188327512Y-65158073D01*
X188302742Y-65163000D01*
X188125258Y-65163000D01*
X188100488Y-65158073D01*
X187951188Y-65128376D01*
X187787216Y-65060456D01*
X187639646Y-64961853D01*
X187514147Y-64836354D01*
X187415544Y-64688784D01*
X187347624Y-64524812D01*
X187313000Y-64350741D01*
X187313000Y-64173259D01*
X187347624Y-63999188D01*
X187415544Y-63835216D01*
X187514147Y-63687646D01*
X187639646Y-63562147D01*
X187787216Y-63463544D01*
X187951188Y-63395624D01*
X188100488Y-63365927D01*
X188125258Y-63361000D01*
X188302742Y-63361000D01*
X188327512Y-63365927D01*
G37*
G36*
X113397512Y-63365927D02*
G01*
X113546812Y-63395624D01*
X113710784Y-63463544D01*
X113858354Y-63562147D01*
X113983853Y-63687646D01*
X114082456Y-63835216D01*
X114150376Y-63999188D01*
X114185000Y-64173259D01*
X114185000Y-64350741D01*
X114150376Y-64524812D01*
X114082456Y-64688784D01*
X113983853Y-64836354D01*
X113858354Y-64961853D01*
X113710784Y-65060456D01*
X113546812Y-65128376D01*
X113397512Y-65158073D01*
X113372742Y-65163000D01*
X113195258Y-65163000D01*
X113170488Y-65158073D01*
X113021188Y-65128376D01*
X112857216Y-65060456D01*
X112709646Y-64961853D01*
X112584147Y-64836354D01*
X112485544Y-64688784D01*
X112417624Y-64524812D01*
X112383000Y-64350741D01*
X112383000Y-64173259D01*
X112417624Y-63999188D01*
X112485544Y-63835216D01*
X112584147Y-63687646D01*
X112709646Y-63562147D01*
X112857216Y-63463544D01*
X113021188Y-63395624D01*
X113170488Y-63365927D01*
X113195258Y-63361000D01*
X113372742Y-63361000D01*
X113397512Y-63365927D01*
G37*
G36*
X188327512Y-60825927D02*
G01*
X188476812Y-60855624D01*
X188640784Y-60923544D01*
X188788354Y-61022147D01*
X188913853Y-61147646D01*
X189012456Y-61295216D01*
X189080376Y-61459188D01*
X189115000Y-61633259D01*
X189115000Y-61810741D01*
X189080376Y-61984812D01*
X189012456Y-62148784D01*
X188913853Y-62296354D01*
X188788354Y-62421853D01*
X188640784Y-62520456D01*
X188476812Y-62588376D01*
X188327512Y-62618073D01*
X188302742Y-62623000D01*
X188125258Y-62623000D01*
X188100488Y-62618073D01*
X187951188Y-62588376D01*
X187787216Y-62520456D01*
X187639646Y-62421853D01*
X187514147Y-62296354D01*
X187415544Y-62148784D01*
X187347624Y-61984812D01*
X187313000Y-61810741D01*
X187313000Y-61633259D01*
X187347624Y-61459188D01*
X187415544Y-61295216D01*
X187514147Y-61147646D01*
X187639646Y-61022147D01*
X187787216Y-60923544D01*
X187951188Y-60855624D01*
X188100488Y-60825927D01*
X188125258Y-60821000D01*
X188302742Y-60821000D01*
X188327512Y-60825927D01*
G37*
G36*
X113397512Y-60825927D02*
G01*
X113546812Y-60855624D01*
X113710784Y-60923544D01*
X113858354Y-61022147D01*
X113983853Y-61147646D01*
X114082456Y-61295216D01*
X114150376Y-61459188D01*
X114185000Y-61633259D01*
X114185000Y-61810741D01*
X114150376Y-61984812D01*
X114082456Y-62148784D01*
X113983853Y-62296354D01*
X113858354Y-62421853D01*
X113710784Y-62520456D01*
X113546812Y-62588376D01*
X113397512Y-62618073D01*
X113372742Y-62623000D01*
X113195258Y-62623000D01*
X113170488Y-62618073D01*
X113021188Y-62588376D01*
X112857216Y-62520456D01*
X112709646Y-62421853D01*
X112584147Y-62296354D01*
X112485544Y-62148784D01*
X112417624Y-61984812D01*
X112383000Y-61810741D01*
X112383000Y-61633259D01*
X112417624Y-61459188D01*
X112485544Y-61295216D01*
X112584147Y-61147646D01*
X112709646Y-61022147D01*
X112857216Y-60923544D01*
X113021188Y-60855624D01*
X113170488Y-60825927D01*
X113195258Y-60821000D01*
X113372742Y-60821000D01*
X113397512Y-60825927D01*
G37*
G36*
X138240674Y-59527665D02*
G01*
X138278367Y-59539099D01*
X138313103Y-59557666D01*
X138343548Y-59582652D01*
X138368534Y-59613097D01*
X138387101Y-59647833D01*
X138398535Y-59685526D01*
X138403000Y-59730861D01*
X138403000Y-60817539D01*
X138398535Y-60862874D01*
X138387101Y-60900567D01*
X138368534Y-60935303D01*
X138343548Y-60965748D01*
X138313103Y-60990734D01*
X138278367Y-61009301D01*
X138240674Y-61020735D01*
X138195339Y-61025200D01*
X137358661Y-61025200D01*
X137313326Y-61020735D01*
X137275633Y-61009301D01*
X137240897Y-60990734D01*
X137210452Y-60965748D01*
X137185466Y-60935303D01*
X137166899Y-60900567D01*
X137155465Y-60862874D01*
X137151000Y-60817539D01*
X137151000Y-59730861D01*
X137155465Y-59685526D01*
X137166899Y-59647833D01*
X137185466Y-59613097D01*
X137210452Y-59582652D01*
X137240897Y-59557666D01*
X137275633Y-59539099D01*
X137313326Y-59527665D01*
X137358661Y-59523200D01*
X138195339Y-59523200D01*
X138240674Y-59527665D01*
G37*
G36*
X140290674Y-59527665D02*
G01*
X140328367Y-59539099D01*
X140363103Y-59557666D01*
X140393548Y-59582652D01*
X140418534Y-59613097D01*
X140437101Y-59647833D01*
X140448535Y-59685526D01*
X140453000Y-59730861D01*
X140453000Y-60817539D01*
X140448535Y-60862874D01*
X140437101Y-60900567D01*
X140418534Y-60935303D01*
X140393548Y-60965748D01*
X140363103Y-60990734D01*
X140328367Y-61009301D01*
X140290674Y-61020735D01*
X140245339Y-61025200D01*
X139408661Y-61025200D01*
X139363326Y-61020735D01*
X139325633Y-61009301D01*
X139290897Y-60990734D01*
X139260452Y-60965748D01*
X139235466Y-60935303D01*
X139216899Y-60900567D01*
X139205465Y-60862874D01*
X139201000Y-60817539D01*
X139201000Y-59730861D01*
X139205465Y-59685526D01*
X139216899Y-59647833D01*
X139235466Y-59613097D01*
X139260452Y-59582652D01*
X139290897Y-59557666D01*
X139325633Y-59539099D01*
X139363326Y-59527665D01*
X139408661Y-59523200D01*
X140245339Y-59523200D01*
X140290674Y-59527665D01*
G37*
G36*
X161212874Y-58867265D02*
G01*
X161250567Y-58878699D01*
X161285303Y-58897266D01*
X161315748Y-58922252D01*
X161340734Y-58952697D01*
X161359301Y-58987433D01*
X161370735Y-59025126D01*
X161375200Y-59070461D01*
X161375200Y-60157139D01*
X161370735Y-60202474D01*
X161359301Y-60240167D01*
X161340734Y-60274903D01*
X161315748Y-60305348D01*
X161285303Y-60330334D01*
X161250567Y-60348901D01*
X161212874Y-60360335D01*
X161167539Y-60364800D01*
X160330861Y-60364800D01*
X160285526Y-60360335D01*
X160247833Y-60348901D01*
X160213097Y-60330334D01*
X160182652Y-60305348D01*
X160157666Y-60274903D01*
X160139099Y-60240167D01*
X160127665Y-60202474D01*
X160123200Y-60157139D01*
X160123200Y-59070461D01*
X160127665Y-59025126D01*
X160139099Y-58987433D01*
X160157666Y-58952697D01*
X160182652Y-58922252D01*
X160213097Y-58897266D01*
X160247833Y-58878699D01*
X160285526Y-58867265D01*
X160330861Y-58862800D01*
X161167539Y-58862800D01*
X161212874Y-58867265D01*
G37*
G36*
X159162874Y-58867265D02*
G01*
X159200567Y-58878699D01*
X159235303Y-58897266D01*
X159265748Y-58922252D01*
X159290734Y-58952697D01*
X159309301Y-58987433D01*
X159320735Y-59025126D01*
X159325200Y-59070461D01*
X159325200Y-60157139D01*
X159320735Y-60202474D01*
X159309301Y-60240167D01*
X159290734Y-60274903D01*
X159265748Y-60305348D01*
X159235303Y-60330334D01*
X159200567Y-60348901D01*
X159162874Y-60360335D01*
X159117539Y-60364800D01*
X158280861Y-60364800D01*
X158235526Y-60360335D01*
X158197833Y-60348901D01*
X158163097Y-60330334D01*
X158132652Y-60305348D01*
X158107666Y-60274903D01*
X158089099Y-60240167D01*
X158077665Y-60202474D01*
X158073200Y-60157139D01*
X158073200Y-59070461D01*
X158077665Y-59025126D01*
X158089099Y-58987433D01*
X158107666Y-58952697D01*
X158132652Y-58922252D01*
X158163097Y-58897266D01*
X158197833Y-58878699D01*
X158235526Y-58867265D01*
X158280861Y-58862800D01*
X159117539Y-58862800D01*
X159162874Y-58867265D01*
G37*
G36*
X184423174Y-58625965D02*
G01*
X184460867Y-58637399D01*
X184495603Y-58655966D01*
X184526048Y-58680952D01*
X184551034Y-58711397D01*
X184569601Y-58746133D01*
X184581035Y-58783826D01*
X184585500Y-58829161D01*
X184585500Y-59915839D01*
X184581035Y-59961174D01*
X184569601Y-59998867D01*
X184551034Y-60033603D01*
X184526048Y-60064048D01*
X184495603Y-60089034D01*
X184460867Y-60107601D01*
X184423174Y-60119035D01*
X184377839Y-60123500D01*
X183541161Y-60123500D01*
X183495826Y-60119035D01*
X183458133Y-60107601D01*
X183423397Y-60089034D01*
X183392952Y-60064048D01*
X183367966Y-60033603D01*
X183349399Y-59998867D01*
X183337965Y-59961174D01*
X183333500Y-59915839D01*
X183333500Y-58829161D01*
X183337965Y-58783826D01*
X183349399Y-58746133D01*
X183367966Y-58711397D01*
X183392952Y-58680952D01*
X183423397Y-58655966D01*
X183458133Y-58637399D01*
X183495826Y-58625965D01*
X183541161Y-58621500D01*
X184377839Y-58621500D01*
X184423174Y-58625965D01*
G37*
G36*
X182373174Y-58625965D02*
G01*
X182410867Y-58637399D01*
X182445603Y-58655966D01*
X182476048Y-58680952D01*
X182501034Y-58711397D01*
X182519601Y-58746133D01*
X182531035Y-58783826D01*
X182535500Y-58829161D01*
X182535500Y-59915839D01*
X182531035Y-59961174D01*
X182519601Y-59998867D01*
X182501034Y-60033603D01*
X182476048Y-60064048D01*
X182445603Y-60089034D01*
X182410867Y-60107601D01*
X182373174Y-60119035D01*
X182327839Y-60123500D01*
X181491161Y-60123500D01*
X181445826Y-60119035D01*
X181408133Y-60107601D01*
X181373397Y-60089034D01*
X181342952Y-60064048D01*
X181317966Y-60033603D01*
X181299399Y-59998867D01*
X181287965Y-59961174D01*
X181283500Y-59915839D01*
X181283500Y-58829161D01*
X181287965Y-58783826D01*
X181299399Y-58746133D01*
X181317966Y-58711397D01*
X181342952Y-58680952D01*
X181373397Y-58655966D01*
X181408133Y-58637399D01*
X181445826Y-58625965D01*
X181491161Y-58621500D01*
X182327839Y-58621500D01*
X182373174Y-58625965D01*
G37*
G36*
X188327512Y-58285927D02*
G01*
X188476812Y-58315624D01*
X188640784Y-58383544D01*
X188788354Y-58482147D01*
X188913853Y-58607646D01*
X189012456Y-58755216D01*
X189080376Y-58919188D01*
X189115000Y-59093259D01*
X189115000Y-59270741D01*
X189080376Y-59444812D01*
X189012456Y-59608784D01*
X188913853Y-59756354D01*
X188788354Y-59881853D01*
X188640784Y-59980456D01*
X188476812Y-60048376D01*
X188329733Y-60077631D01*
X188302742Y-60083000D01*
X188125258Y-60083000D01*
X188098267Y-60077631D01*
X187951188Y-60048376D01*
X187787216Y-59980456D01*
X187639646Y-59881853D01*
X187514147Y-59756354D01*
X187415544Y-59608784D01*
X187347624Y-59444812D01*
X187313000Y-59270741D01*
X187313000Y-59093259D01*
X187347624Y-58919188D01*
X187415544Y-58755216D01*
X187514147Y-58607646D01*
X187639646Y-58482147D01*
X187787216Y-58383544D01*
X187951188Y-58315624D01*
X188100488Y-58285927D01*
X188125258Y-58281000D01*
X188302742Y-58281000D01*
X188327512Y-58285927D01*
G37*
G36*
X113397512Y-58285927D02*
G01*
X113546812Y-58315624D01*
X113710784Y-58383544D01*
X113858354Y-58482147D01*
X113983853Y-58607646D01*
X114082456Y-58755216D01*
X114150376Y-58919188D01*
X114185000Y-59093259D01*
X114185000Y-59270741D01*
X114150376Y-59444812D01*
X114082456Y-59608784D01*
X113983853Y-59756354D01*
X113858354Y-59881853D01*
X113710784Y-59980456D01*
X113546812Y-60048376D01*
X113399733Y-60077631D01*
X113372742Y-60083000D01*
X113195258Y-60083000D01*
X113168267Y-60077631D01*
X113021188Y-60048376D01*
X112857216Y-59980456D01*
X112709646Y-59881853D01*
X112584147Y-59756354D01*
X112485544Y-59608784D01*
X112417624Y-59444812D01*
X112383000Y-59270741D01*
X112383000Y-59093259D01*
X112417624Y-58919188D01*
X112485544Y-58755216D01*
X112584147Y-58607646D01*
X112709646Y-58482147D01*
X112857216Y-58383544D01*
X113021188Y-58315624D01*
X113170488Y-58285927D01*
X113195258Y-58281000D01*
X113372742Y-58281000D01*
X113397512Y-58285927D01*
G37*
G36*
X134856200Y-59998800D02*
G01*
X132854200Y-59998800D01*
X132854200Y-59096800D01*
X134856200Y-59096800D01*
X134856200Y-59998800D01*
G37*
G36*
X155684200Y-59440000D02*
G01*
X153682200Y-59440000D01*
X153682200Y-58538000D01*
X155684200Y-58538000D01*
X155684200Y-59440000D01*
G37*
G36*
X129372895Y-57490306D02*
G01*
X129545966Y-57561994D01*
X129590476Y-57591735D01*
X129701727Y-57666070D01*
X129834190Y-57798533D01*
X129834191Y-57798535D01*
X129938266Y-57954294D01*
X130009954Y-58127365D01*
X130046500Y-58311093D01*
X130046500Y-58498427D01*
X130009954Y-58682155D01*
X129938266Y-58855226D01*
X129922582Y-58878699D01*
X129834190Y-59010987D01*
X129701727Y-59143450D01*
X129623318Y-59195841D01*
X129545966Y-59247526D01*
X129372895Y-59319214D01*
X129189167Y-59355760D01*
X129001833Y-59355760D01*
X128818105Y-59319214D01*
X128645034Y-59247526D01*
X128567682Y-59195841D01*
X128489273Y-59143450D01*
X128356810Y-59010987D01*
X128268418Y-58878699D01*
X128252734Y-58855226D01*
X128181046Y-58682155D01*
X128144500Y-58498427D01*
X128144500Y-58311093D01*
X128181046Y-58127365D01*
X128252734Y-57954294D01*
X128356809Y-57798535D01*
X128356810Y-57798533D01*
X128489273Y-57666070D01*
X128600524Y-57591735D01*
X128645034Y-57561994D01*
X128818105Y-57490306D01*
X129001833Y-57453760D01*
X129189167Y-57453760D01*
X129372895Y-57490306D01*
G37*
G36*
X127506500Y-59355760D02*
G01*
X125604500Y-59355760D01*
X125604500Y-57453760D01*
X127506500Y-57453760D01*
X127506500Y-59355760D01*
G37*
G36*
X172980120Y-59355760D02*
G01*
X171078120Y-59355760D01*
X171078120Y-57453760D01*
X172980120Y-57453760D01*
X172980120Y-59355760D01*
G37*
G36*
X174846515Y-57490306D02*
G01*
X175019586Y-57561994D01*
X175064096Y-57591735D01*
X175175347Y-57666070D01*
X175307810Y-57798533D01*
X175307811Y-57798535D01*
X175411886Y-57954294D01*
X175483574Y-58127365D01*
X175520120Y-58311093D01*
X175520120Y-58498427D01*
X175483574Y-58682155D01*
X175411886Y-58855226D01*
X175396202Y-58878699D01*
X175307810Y-59010987D01*
X175175347Y-59143450D01*
X175096938Y-59195841D01*
X175019586Y-59247526D01*
X174846515Y-59319214D01*
X174662787Y-59355760D01*
X174475453Y-59355760D01*
X174291725Y-59319214D01*
X174118654Y-59247526D01*
X174041302Y-59195841D01*
X173962893Y-59143450D01*
X173830430Y-59010987D01*
X173742038Y-58878699D01*
X173726354Y-58855226D01*
X173654666Y-58682155D01*
X173618120Y-58498427D01*
X173618120Y-58311093D01*
X173654666Y-58127365D01*
X173726354Y-57954294D01*
X173830429Y-57798535D01*
X173830430Y-57798533D01*
X173962893Y-57666070D01*
X174074144Y-57591735D01*
X174118654Y-57561994D01*
X174291725Y-57490306D01*
X174475453Y-57453760D01*
X174662787Y-57453760D01*
X174846515Y-57490306D01*
G37*
G36*
X152128755Y-57487766D02*
G01*
X152301826Y-57559454D01*
X152344548Y-57588000D01*
X152457587Y-57663530D01*
X152590050Y-57795993D01*
X152642441Y-57874402D01*
X152694126Y-57951754D01*
X152765814Y-58124825D01*
X152802360Y-58308553D01*
X152802360Y-58495887D01*
X152765814Y-58679615D01*
X152694126Y-58852686D01*
X152656719Y-58908669D01*
X152590050Y-59008447D01*
X152457587Y-59140910D01*
X152453784Y-59143451D01*
X152301826Y-59244986D01*
X152128755Y-59316674D01*
X151945027Y-59353220D01*
X151757693Y-59353220D01*
X151573965Y-59316674D01*
X151400894Y-59244986D01*
X151248936Y-59143451D01*
X151245133Y-59140910D01*
X151112670Y-59008447D01*
X151046001Y-58908669D01*
X151008594Y-58852686D01*
X150936906Y-58679615D01*
X150900360Y-58495887D01*
X150900360Y-58308553D01*
X150936906Y-58124825D01*
X151008594Y-57951754D01*
X151060279Y-57874402D01*
X151112670Y-57795993D01*
X151245133Y-57663530D01*
X151358172Y-57588000D01*
X151400894Y-57559454D01*
X151573965Y-57487766D01*
X151757693Y-57451220D01*
X151945027Y-57451220D01*
X152128755Y-57487766D01*
G37*
G36*
X150262360Y-59353220D02*
G01*
X148360360Y-59353220D01*
X148360360Y-57451220D01*
X150262360Y-57451220D01*
X150262360Y-59353220D01*
G37*
G36*
X137856200Y-59048800D02*
G01*
X135854200Y-59048800D01*
X135854200Y-58146800D01*
X137856200Y-58146800D01*
X137856200Y-59048800D01*
G37*
G36*
X179460000Y-58995500D02*
G01*
X177458000Y-58995500D01*
X177458000Y-58093500D01*
X179460000Y-58093500D01*
X179460000Y-58995500D01*
G37*
G36*
X158684200Y-58490000D02*
G01*
X156682200Y-58490000D01*
X156682200Y-57588000D01*
X158684200Y-57588000D01*
X158684200Y-58490000D01*
G37*
G36*
X134856200Y-58098800D02*
G01*
X132854200Y-58098800D01*
X132854200Y-57196800D01*
X134856200Y-57196800D01*
X134856200Y-58098800D01*
G37*
G36*
X182460000Y-58045500D02*
G01*
X180458000Y-58045500D01*
X180458000Y-57143500D01*
X182460000Y-57143500D01*
X182460000Y-58045500D01*
G37*
G36*
X138316874Y-56098665D02*
G01*
X138354567Y-56110099D01*
X138389303Y-56128666D01*
X138419748Y-56153652D01*
X138444734Y-56184097D01*
X138463301Y-56218833D01*
X138474735Y-56256526D01*
X138479200Y-56301861D01*
X138479200Y-57388539D01*
X138474735Y-57433874D01*
X138463301Y-57471567D01*
X138444734Y-57506303D01*
X138419748Y-57536748D01*
X138389303Y-57561734D01*
X138354567Y-57580301D01*
X138316874Y-57591735D01*
X138271539Y-57596200D01*
X137434861Y-57596200D01*
X137389526Y-57591735D01*
X137351833Y-57580301D01*
X137317097Y-57561734D01*
X137286652Y-57536748D01*
X137261666Y-57506303D01*
X137243099Y-57471567D01*
X137231665Y-57433874D01*
X137227200Y-57388539D01*
X137227200Y-56301861D01*
X137231665Y-56256526D01*
X137243099Y-56218833D01*
X137261666Y-56184097D01*
X137286652Y-56153652D01*
X137317097Y-56128666D01*
X137351833Y-56110099D01*
X137389526Y-56098665D01*
X137434861Y-56094200D01*
X138271539Y-56094200D01*
X138316874Y-56098665D01*
G37*
G36*
X140366874Y-56098665D02*
G01*
X140404567Y-56110099D01*
X140439303Y-56128666D01*
X140469748Y-56153652D01*
X140494734Y-56184097D01*
X140513301Y-56218833D01*
X140524735Y-56256526D01*
X140529200Y-56301861D01*
X140529200Y-57388539D01*
X140524735Y-57433874D01*
X140513301Y-57471567D01*
X140494734Y-57506303D01*
X140469748Y-57536748D01*
X140439303Y-57561734D01*
X140404567Y-57580301D01*
X140366874Y-57591735D01*
X140321539Y-57596200D01*
X139484861Y-57596200D01*
X139439526Y-57591735D01*
X139401833Y-57580301D01*
X139367097Y-57561734D01*
X139336652Y-57536748D01*
X139311666Y-57506303D01*
X139293099Y-57471567D01*
X139281665Y-57433874D01*
X139277200Y-57388539D01*
X139277200Y-56301861D01*
X139281665Y-56256526D01*
X139293099Y-56218833D01*
X139311666Y-56184097D01*
X139336652Y-56153652D01*
X139367097Y-56128666D01*
X139401833Y-56110099D01*
X139439526Y-56098665D01*
X139484861Y-56094200D01*
X140321539Y-56094200D01*
X140366874Y-56098665D01*
G37*
G36*
X188313103Y-55743061D02*
G01*
X188476812Y-55775624D01*
X188640784Y-55843544D01*
X188788354Y-55942147D01*
X188913853Y-56067646D01*
X189012456Y-56215216D01*
X189080376Y-56379188D01*
X189115000Y-56553259D01*
X189115000Y-56730741D01*
X189080376Y-56904812D01*
X189012456Y-57068784D01*
X188913853Y-57216354D01*
X188788354Y-57341853D01*
X188640784Y-57440456D01*
X188476812Y-57508376D01*
X188327512Y-57538073D01*
X188302742Y-57543000D01*
X188125258Y-57543000D01*
X188100488Y-57538073D01*
X187951188Y-57508376D01*
X187787216Y-57440456D01*
X187639646Y-57341853D01*
X187514147Y-57216354D01*
X187415544Y-57068784D01*
X187347624Y-56904812D01*
X187313000Y-56730741D01*
X187313000Y-56553259D01*
X187347624Y-56379188D01*
X187415544Y-56215216D01*
X187514147Y-56067646D01*
X187639646Y-55942147D01*
X187787216Y-55843544D01*
X187951188Y-55775624D01*
X188114897Y-55743061D01*
X188125258Y-55741000D01*
X188302742Y-55741000D01*
X188313103Y-55743061D01*
G37*
G36*
X113383103Y-55743061D02*
G01*
X113546812Y-55775624D01*
X113710784Y-55843544D01*
X113858354Y-55942147D01*
X113983853Y-56067646D01*
X114082456Y-56215216D01*
X114150376Y-56379188D01*
X114185000Y-56553259D01*
X114185000Y-56730741D01*
X114150376Y-56904812D01*
X114082456Y-57068784D01*
X113983853Y-57216354D01*
X113858354Y-57341853D01*
X113710784Y-57440456D01*
X113546812Y-57508376D01*
X113397512Y-57538073D01*
X113372742Y-57543000D01*
X113195258Y-57543000D01*
X113170488Y-57538073D01*
X113021188Y-57508376D01*
X112857216Y-57440456D01*
X112709646Y-57341853D01*
X112584147Y-57216354D01*
X112485544Y-57068784D01*
X112417624Y-56904812D01*
X112383000Y-56730741D01*
X112383000Y-56553259D01*
X112417624Y-56379188D01*
X112485544Y-56215216D01*
X112584147Y-56067646D01*
X112709646Y-55942147D01*
X112857216Y-55843544D01*
X113021188Y-55775624D01*
X113184897Y-55743061D01*
X113195258Y-55741000D01*
X113372742Y-55741000D01*
X113383103Y-55743061D01*
G37*
G36*
X155684200Y-57540000D02*
G01*
X153682200Y-57540000D01*
X153682200Y-56638000D01*
X155684200Y-56638000D01*
X155684200Y-57540000D01*
G37*
G36*
X179460000Y-57095500D02*
G01*
X177458000Y-57095500D01*
X177458000Y-56193500D01*
X179460000Y-56193500D01*
X179460000Y-57095500D01*
G37*
G36*
X161169474Y-55539865D02*
G01*
X161207167Y-55551299D01*
X161241903Y-55569866D01*
X161272348Y-55594852D01*
X161297334Y-55625297D01*
X161315901Y-55660033D01*
X161327335Y-55697726D01*
X161331800Y-55743061D01*
X161331800Y-56829739D01*
X161327335Y-56875074D01*
X161315901Y-56912767D01*
X161297334Y-56947503D01*
X161272348Y-56977948D01*
X161241903Y-57002934D01*
X161207167Y-57021501D01*
X161169474Y-57032935D01*
X161124139Y-57037400D01*
X160287461Y-57037400D01*
X160242126Y-57032935D01*
X160204433Y-57021501D01*
X160169697Y-57002934D01*
X160139252Y-56977948D01*
X160114266Y-56947503D01*
X160095699Y-56912767D01*
X160084265Y-56875074D01*
X160079800Y-56829739D01*
X160079800Y-55743061D01*
X160084265Y-55697726D01*
X160095699Y-55660033D01*
X160114266Y-55625297D01*
X160139252Y-55594852D01*
X160169697Y-55569866D01*
X160204433Y-55551299D01*
X160242126Y-55539865D01*
X160287461Y-55535400D01*
X161124139Y-55535400D01*
X161169474Y-55539865D01*
G37*
G36*
X159119474Y-55539865D02*
G01*
X159157167Y-55551299D01*
X159191903Y-55569866D01*
X159222348Y-55594852D01*
X159247334Y-55625297D01*
X159265901Y-55660033D01*
X159277335Y-55697726D01*
X159281800Y-55743061D01*
X159281800Y-56829739D01*
X159277335Y-56875074D01*
X159265901Y-56912767D01*
X159247334Y-56947503D01*
X159222348Y-56977948D01*
X159191903Y-57002934D01*
X159157167Y-57021501D01*
X159119474Y-57032935D01*
X159074139Y-57037400D01*
X158237461Y-57037400D01*
X158192126Y-57032935D01*
X158154433Y-57021501D01*
X158119697Y-57002934D01*
X158089252Y-56977948D01*
X158064266Y-56947503D01*
X158045699Y-56912767D01*
X158034265Y-56875074D01*
X158029800Y-56829739D01*
X158029800Y-55743061D01*
X158034265Y-55697726D01*
X158045699Y-55660033D01*
X158064266Y-55625297D01*
X158089252Y-55594852D01*
X158119697Y-55569866D01*
X158154433Y-55551299D01*
X158192126Y-55539865D01*
X158237461Y-55535400D01*
X159074139Y-55535400D01*
X159119474Y-55539865D01*
G37*
G36*
X184423174Y-55069965D02*
G01*
X184460867Y-55081399D01*
X184495603Y-55099966D01*
X184526048Y-55124952D01*
X184551034Y-55155397D01*
X184569601Y-55190133D01*
X184581035Y-55227826D01*
X184585500Y-55273161D01*
X184585500Y-56359839D01*
X184581035Y-56405174D01*
X184569601Y-56442867D01*
X184551034Y-56477603D01*
X184526048Y-56508048D01*
X184495603Y-56533034D01*
X184460867Y-56551601D01*
X184423174Y-56563035D01*
X184377839Y-56567500D01*
X183541161Y-56567500D01*
X183495826Y-56563035D01*
X183458133Y-56551601D01*
X183423397Y-56533034D01*
X183392952Y-56508048D01*
X183367966Y-56477603D01*
X183349399Y-56442867D01*
X183337965Y-56405174D01*
X183333500Y-56359839D01*
X183333500Y-55273161D01*
X183337965Y-55227826D01*
X183349399Y-55190133D01*
X183367966Y-55155397D01*
X183392952Y-55124952D01*
X183423397Y-55099966D01*
X183458133Y-55081399D01*
X183495826Y-55069965D01*
X183541161Y-55065500D01*
X184377839Y-55065500D01*
X184423174Y-55069965D01*
G37*
G36*
X182373174Y-55069965D02*
G01*
X182410867Y-55081399D01*
X182445603Y-55099966D01*
X182476048Y-55124952D01*
X182501034Y-55155397D01*
X182519601Y-55190133D01*
X182531035Y-55227826D01*
X182535500Y-55273161D01*
X182535500Y-56359839D01*
X182531035Y-56405174D01*
X182519601Y-56442867D01*
X182501034Y-56477603D01*
X182476048Y-56508048D01*
X182445603Y-56533034D01*
X182410867Y-56551601D01*
X182373174Y-56563035D01*
X182327839Y-56567500D01*
X181491161Y-56567500D01*
X181445826Y-56563035D01*
X181408133Y-56551601D01*
X181373397Y-56533034D01*
X181342952Y-56508048D01*
X181317966Y-56477603D01*
X181299399Y-56442867D01*
X181287965Y-56405174D01*
X181283500Y-56359839D01*
X181283500Y-55273161D01*
X181287965Y-55227826D01*
X181299399Y-55190133D01*
X181317966Y-55155397D01*
X181342952Y-55124952D01*
X181373397Y-55099966D01*
X181408133Y-55081399D01*
X181445826Y-55069965D01*
X181491161Y-55065500D01*
X182327839Y-55065500D01*
X182373174Y-55069965D01*
G37*
G36*
X113397512Y-53205927D02*
G01*
X113546812Y-53235624D01*
X113710784Y-53303544D01*
X113858354Y-53402147D01*
X113983853Y-53527646D01*
X114082456Y-53675216D01*
X114150376Y-53839188D01*
X114185000Y-54013259D01*
X114185000Y-54190741D01*
X114150376Y-54364812D01*
X114082456Y-54528784D01*
X113983853Y-54676354D01*
X113858354Y-54801853D01*
X113710784Y-54900456D01*
X113546812Y-54968376D01*
X113397512Y-54998073D01*
X113372742Y-55003000D01*
X113195258Y-55003000D01*
X113170488Y-54998073D01*
X113021188Y-54968376D01*
X112857216Y-54900456D01*
X112709646Y-54801853D01*
X112584147Y-54676354D01*
X112485544Y-54528784D01*
X112417624Y-54364812D01*
X112383000Y-54190741D01*
X112383000Y-54013259D01*
X112417624Y-53839188D01*
X112485544Y-53675216D01*
X112584147Y-53527646D01*
X112709646Y-53402147D01*
X112857216Y-53303544D01*
X113021188Y-53235624D01*
X113170488Y-53205927D01*
X113195258Y-53201000D01*
X113372742Y-53201000D01*
X113397512Y-53205927D01*
G37*
G36*
X188327512Y-53205927D02*
G01*
X188476812Y-53235624D01*
X188640784Y-53303544D01*
X188788354Y-53402147D01*
X188913853Y-53527646D01*
X189012456Y-53675216D01*
X189080376Y-53839188D01*
X189115000Y-54013259D01*
X189115000Y-54190741D01*
X189080376Y-54364812D01*
X189012456Y-54528784D01*
X188913853Y-54676354D01*
X188788354Y-54801853D01*
X188640784Y-54900456D01*
X188476812Y-54968376D01*
X188327512Y-54998073D01*
X188302742Y-55003000D01*
X188125258Y-55003000D01*
X188100488Y-54998073D01*
X187951188Y-54968376D01*
X187787216Y-54900456D01*
X187639646Y-54801853D01*
X187514147Y-54676354D01*
X187415544Y-54528784D01*
X187347624Y-54364812D01*
X187313000Y-54190741D01*
X187313000Y-54013259D01*
X187347624Y-53839188D01*
X187415544Y-53675216D01*
X187514147Y-53527646D01*
X187639646Y-53402147D01*
X187787216Y-53303544D01*
X187951188Y-53235624D01*
X188100488Y-53205927D01*
X188125258Y-53201000D01*
X188302742Y-53201000D01*
X188327512Y-53205927D01*
G37*
G36*
X188327512Y-50665927D02*
G01*
X188476812Y-50695624D01*
X188640784Y-50763544D01*
X188788354Y-50862147D01*
X188913853Y-50987646D01*
X189012456Y-51135216D01*
X189080376Y-51299188D01*
X189115000Y-51473259D01*
X189115000Y-51650741D01*
X189080376Y-51824812D01*
X189012456Y-51988784D01*
X188913853Y-52136354D01*
X188788354Y-52261853D01*
X188640784Y-52360456D01*
X188476812Y-52428376D01*
X188327512Y-52458073D01*
X188302742Y-52463000D01*
X188125258Y-52463000D01*
X188100488Y-52458073D01*
X187951188Y-52428376D01*
X187787216Y-52360456D01*
X187639646Y-52261853D01*
X187514147Y-52136354D01*
X187415544Y-51988784D01*
X187347624Y-51824812D01*
X187313000Y-51650741D01*
X187313000Y-51473259D01*
X187347624Y-51299188D01*
X187415544Y-51135216D01*
X187514147Y-50987646D01*
X187639646Y-50862147D01*
X187787216Y-50763544D01*
X187951188Y-50695624D01*
X188100488Y-50665927D01*
X188125258Y-50661000D01*
X188302742Y-50661000D01*
X188327512Y-50665927D01*
G37*
G36*
X113397512Y-50665927D02*
G01*
X113546812Y-50695624D01*
X113710784Y-50763544D01*
X113858354Y-50862147D01*
X113983853Y-50987646D01*
X114082456Y-51135216D01*
X114150376Y-51299188D01*
X114185000Y-51473259D01*
X114185000Y-51650741D01*
X114150376Y-51824812D01*
X114082456Y-51988784D01*
X113983853Y-52136354D01*
X113858354Y-52261853D01*
X113710784Y-52360456D01*
X113546812Y-52428376D01*
X113397512Y-52458073D01*
X113372742Y-52463000D01*
X113195258Y-52463000D01*
X113170488Y-52458073D01*
X113021188Y-52428376D01*
X112857216Y-52360456D01*
X112709646Y-52261853D01*
X112584147Y-52136354D01*
X112485544Y-51988784D01*
X112417624Y-51824812D01*
X112383000Y-51650741D01*
X112383000Y-51473259D01*
X112417624Y-51299188D01*
X112485544Y-51135216D01*
X112584147Y-50987646D01*
X112709646Y-50862147D01*
X112857216Y-50763544D01*
X113021188Y-50695624D01*
X113170488Y-50665927D01*
X113195258Y-50661000D01*
X113372742Y-50661000D01*
X113397512Y-50665927D01*
G37*
G36*
X131908674Y-49367665D02*
G01*
X131946367Y-49379099D01*
X131981103Y-49397666D01*
X132011548Y-49422652D01*
X132036534Y-49453097D01*
X132055101Y-49487833D01*
X132066535Y-49525526D01*
X132071000Y-49570861D01*
X132071000Y-50657539D01*
X132066535Y-50702874D01*
X132055101Y-50740567D01*
X132036534Y-50775303D01*
X132011548Y-50805748D01*
X131981103Y-50830734D01*
X131946367Y-50849301D01*
X131908674Y-50860735D01*
X131863339Y-50865200D01*
X131026661Y-50865200D01*
X130981326Y-50860735D01*
X130943633Y-50849301D01*
X130908897Y-50830734D01*
X130878452Y-50805748D01*
X130853466Y-50775303D01*
X130834899Y-50740567D01*
X130823465Y-50702874D01*
X130819000Y-50657539D01*
X130819000Y-49570861D01*
X130823465Y-49525526D01*
X130834899Y-49487833D01*
X130853466Y-49453097D01*
X130878452Y-49422652D01*
X130908897Y-49397666D01*
X130943633Y-49379099D01*
X130981326Y-49367665D01*
X131026661Y-49363200D01*
X131863339Y-49363200D01*
X131908674Y-49367665D01*
G37*
G36*
X129858674Y-49367665D02*
G01*
X129896367Y-49379099D01*
X129931103Y-49397666D01*
X129961548Y-49422652D01*
X129986534Y-49453097D01*
X130005101Y-49487833D01*
X130016535Y-49525526D01*
X130021000Y-49570861D01*
X130021000Y-50657539D01*
X130016535Y-50702874D01*
X130005101Y-50740567D01*
X129986534Y-50775303D01*
X129961548Y-50805748D01*
X129931103Y-50830734D01*
X129896367Y-50849301D01*
X129858674Y-50860735D01*
X129813339Y-50865200D01*
X128976661Y-50865200D01*
X128931326Y-50860735D01*
X128893633Y-50849301D01*
X128858897Y-50830734D01*
X128828452Y-50805748D01*
X128803466Y-50775303D01*
X128784899Y-50740567D01*
X128773465Y-50702874D01*
X128769000Y-50657539D01*
X128769000Y-49570861D01*
X128773465Y-49525526D01*
X128784899Y-49487833D01*
X128803466Y-49453097D01*
X128828452Y-49422652D01*
X128858897Y-49397666D01*
X128893633Y-49379099D01*
X128931326Y-49367665D01*
X128976661Y-49363200D01*
X129813339Y-49363200D01*
X129858674Y-49367665D01*
G37*
G36*
X172134874Y-49342265D02*
G01*
X172172567Y-49353699D01*
X172207303Y-49372266D01*
X172237748Y-49397252D01*
X172262734Y-49427697D01*
X172281301Y-49462433D01*
X172292735Y-49500126D01*
X172297200Y-49545461D01*
X172297200Y-50632139D01*
X172292735Y-50677474D01*
X172281301Y-50715167D01*
X172262734Y-50749903D01*
X172237748Y-50780348D01*
X172207303Y-50805334D01*
X172172567Y-50823901D01*
X172134874Y-50835335D01*
X172089539Y-50839800D01*
X171252861Y-50839800D01*
X171207526Y-50835335D01*
X171169833Y-50823901D01*
X171135097Y-50805334D01*
X171104652Y-50780348D01*
X171079666Y-50749903D01*
X171061099Y-50715167D01*
X171049665Y-50677474D01*
X171045200Y-50632139D01*
X171045200Y-49545461D01*
X171049665Y-49500126D01*
X171061099Y-49462433D01*
X171079666Y-49427697D01*
X171104652Y-49397252D01*
X171135097Y-49372266D01*
X171169833Y-49353699D01*
X171207526Y-49342265D01*
X171252861Y-49337800D01*
X172089539Y-49337800D01*
X172134874Y-49342265D01*
G37*
G36*
X170084874Y-49342265D02*
G01*
X170122567Y-49353699D01*
X170157303Y-49372266D01*
X170187748Y-49397252D01*
X170212734Y-49427697D01*
X170231301Y-49462433D01*
X170242735Y-49500126D01*
X170247200Y-49545461D01*
X170247200Y-50632139D01*
X170242735Y-50677474D01*
X170231301Y-50715167D01*
X170212734Y-50749903D01*
X170187748Y-50780348D01*
X170157303Y-50805334D01*
X170122567Y-50823901D01*
X170084874Y-50835335D01*
X170039539Y-50839800D01*
X169202861Y-50839800D01*
X169157526Y-50835335D01*
X169119833Y-50823901D01*
X169085097Y-50805334D01*
X169054652Y-50780348D01*
X169029666Y-50749903D01*
X169011099Y-50715167D01*
X168999665Y-50677474D01*
X168995200Y-50632139D01*
X168995200Y-49545461D01*
X168999665Y-49500126D01*
X169011099Y-49462433D01*
X169029666Y-49427697D01*
X169054652Y-49397252D01*
X169085097Y-49372266D01*
X169119833Y-49353699D01*
X169157526Y-49342265D01*
X169202861Y-49337800D01*
X170039539Y-49337800D01*
X170084874Y-49342265D01*
G37*
G36*
X113397512Y-48125927D02*
G01*
X113546812Y-48155624D01*
X113710784Y-48223544D01*
X113858354Y-48322147D01*
X113983853Y-48447646D01*
X114082456Y-48595216D01*
X114150376Y-48759188D01*
X114185000Y-48933259D01*
X114185000Y-49110741D01*
X114150376Y-49284812D01*
X114082456Y-49448784D01*
X113983853Y-49596354D01*
X113858354Y-49721853D01*
X113710784Y-49820456D01*
X113546812Y-49888376D01*
X113397512Y-49918073D01*
X113372742Y-49923000D01*
X113195258Y-49923000D01*
X113170488Y-49918073D01*
X113021188Y-49888376D01*
X112857216Y-49820456D01*
X112709646Y-49721853D01*
X112584147Y-49596354D01*
X112485544Y-49448784D01*
X112417624Y-49284812D01*
X112383000Y-49110741D01*
X112383000Y-48933259D01*
X112417624Y-48759188D01*
X112485544Y-48595216D01*
X112584147Y-48447646D01*
X112709646Y-48322147D01*
X112857216Y-48223544D01*
X113021188Y-48155624D01*
X113170488Y-48125927D01*
X113195258Y-48121000D01*
X113372742Y-48121000D01*
X113397512Y-48125927D01*
G37*
G36*
X188327512Y-48125927D02*
G01*
X188476812Y-48155624D01*
X188640784Y-48223544D01*
X188788354Y-48322147D01*
X188913853Y-48447646D01*
X189012456Y-48595216D01*
X189080376Y-48759188D01*
X189115000Y-48933259D01*
X189115000Y-49110741D01*
X189080376Y-49284812D01*
X189012456Y-49448784D01*
X188913853Y-49596354D01*
X188788354Y-49721853D01*
X188640784Y-49820456D01*
X188476812Y-49888376D01*
X188327512Y-49918073D01*
X188302742Y-49923000D01*
X188125258Y-49923000D01*
X188100488Y-49918073D01*
X187951188Y-49888376D01*
X187787216Y-49820456D01*
X187639646Y-49721853D01*
X187514147Y-49596354D01*
X187415544Y-49448784D01*
X187347624Y-49284812D01*
X187313000Y-49110741D01*
X187313000Y-48933259D01*
X187347624Y-48759188D01*
X187415544Y-48595216D01*
X187514147Y-48447646D01*
X187639646Y-48322147D01*
X187787216Y-48223544D01*
X187951188Y-48155624D01*
X188100488Y-48125927D01*
X188125258Y-48121000D01*
X188302742Y-48121000D01*
X188327512Y-48125927D01*
G37*
G36*
X166682400Y-49711800D02*
G01*
X164680400Y-49711800D01*
X164680400Y-48809800D01*
X166682400Y-48809800D01*
X166682400Y-49711800D01*
G37*
G36*
X136357600Y-49676200D02*
G01*
X134355600Y-49676200D01*
X134355600Y-48774200D01*
X136357600Y-48774200D01*
X136357600Y-49676200D01*
G37*
G36*
X162756115Y-47127106D02*
G01*
X162929186Y-47198794D01*
X162942365Y-47207600D01*
X163084947Y-47302870D01*
X163217410Y-47435333D01*
X163217411Y-47435335D01*
X163321486Y-47591094D01*
X163393174Y-47764165D01*
X163429720Y-47947893D01*
X163429720Y-48135227D01*
X163393174Y-48318955D01*
X163321486Y-48492026D01*
X163321485Y-48492027D01*
X163217410Y-48647787D01*
X163084947Y-48780250D01*
X163040722Y-48809800D01*
X162929186Y-48884326D01*
X162756115Y-48956014D01*
X162572387Y-48992560D01*
X162385053Y-48992560D01*
X162201325Y-48956014D01*
X162028254Y-48884326D01*
X161916718Y-48809800D01*
X161872493Y-48780250D01*
X161740030Y-48647787D01*
X161635955Y-48492027D01*
X161635954Y-48492026D01*
X161564266Y-48318955D01*
X161527720Y-48135227D01*
X161527720Y-47947893D01*
X161564266Y-47764165D01*
X161635954Y-47591094D01*
X161740029Y-47435335D01*
X161740030Y-47435333D01*
X161872493Y-47302870D01*
X162015075Y-47207600D01*
X162028254Y-47198794D01*
X162201325Y-47127106D01*
X162385053Y-47090560D01*
X162572387Y-47090560D01*
X162756115Y-47127106D01*
G37*
G36*
X160889720Y-48992560D02*
G01*
X158987720Y-48992560D01*
X158987720Y-47090560D01*
X160889720Y-47090560D01*
X160889720Y-48992560D01*
G37*
G36*
X142172460Y-48959540D02*
G01*
X140270460Y-48959540D01*
X140270460Y-47057540D01*
X142172460Y-47057540D01*
X142172460Y-48959540D01*
G37*
G36*
X138958855Y-47094086D02*
G01*
X139131926Y-47165774D01*
X139194523Y-47207600D01*
X139287687Y-47269850D01*
X139420150Y-47402313D01*
X139420151Y-47402315D01*
X139524226Y-47558074D01*
X139595914Y-47731145D01*
X139632460Y-47914873D01*
X139632460Y-48102207D01*
X139595914Y-48285935D01*
X139524226Y-48459006D01*
X139524225Y-48459007D01*
X139420150Y-48614767D01*
X139287687Y-48747230D01*
X139269789Y-48759189D01*
X139131926Y-48851306D01*
X138958855Y-48922994D01*
X138775127Y-48959540D01*
X138587793Y-48959540D01*
X138404065Y-48922994D01*
X138230994Y-48851306D01*
X138093131Y-48759189D01*
X138075233Y-48747230D01*
X137942770Y-48614767D01*
X137838695Y-48459007D01*
X137838694Y-48459006D01*
X137767006Y-48285935D01*
X137730460Y-48102207D01*
X137730460Y-47914873D01*
X137767006Y-47731145D01*
X137838694Y-47558074D01*
X137942769Y-47402315D01*
X137942770Y-47402313D01*
X138075233Y-47269850D01*
X138168397Y-47207600D01*
X138230994Y-47165774D01*
X138404065Y-47094086D01*
X138587793Y-47057540D01*
X138775127Y-47057540D01*
X138958855Y-47094086D01*
G37*
G36*
X169682400Y-48761800D02*
G01*
X167680400Y-48761800D01*
X167680400Y-47859800D01*
X169682400Y-47859800D01*
X169682400Y-48761800D01*
G37*
G36*
X133357600Y-48726200D02*
G01*
X131355600Y-48726200D01*
X131355600Y-47824200D01*
X133357600Y-47824200D01*
X133357600Y-48726200D01*
G37*
G36*
X166682400Y-47811800D02*
G01*
X164680400Y-47811800D01*
X164680400Y-46909800D01*
X166682400Y-46909800D01*
X166682400Y-47811800D01*
G37*
G36*
X136357600Y-47776200D02*
G01*
X134355600Y-47776200D01*
X134355600Y-46874200D01*
X136357600Y-46874200D01*
X136357600Y-47776200D01*
G37*
G36*
X113397512Y-45585927D02*
G01*
X113546812Y-45615624D01*
X113710784Y-45683544D01*
X113858354Y-45782147D01*
X113983853Y-45907646D01*
X114082456Y-46055216D01*
X114150376Y-46219188D01*
X114185000Y-46393259D01*
X114185000Y-46570741D01*
X114150376Y-46744812D01*
X114082456Y-46908784D01*
X113983853Y-47056354D01*
X113858354Y-47181853D01*
X113710784Y-47280456D01*
X113546812Y-47348376D01*
X113397512Y-47378073D01*
X113372742Y-47383000D01*
X113195258Y-47383000D01*
X113170488Y-47378073D01*
X113021188Y-47348376D01*
X112857216Y-47280456D01*
X112709646Y-47181853D01*
X112584147Y-47056354D01*
X112485544Y-46908784D01*
X112417624Y-46744812D01*
X112383000Y-46570741D01*
X112383000Y-46393259D01*
X112417624Y-46219188D01*
X112485544Y-46055216D01*
X112584147Y-45907646D01*
X112709646Y-45782147D01*
X112857216Y-45683544D01*
X113021188Y-45615624D01*
X113170488Y-45585927D01*
X113195258Y-45581000D01*
X113372742Y-45581000D01*
X113397512Y-45585927D01*
G37*
G36*
X188327512Y-45585927D02*
G01*
X188476812Y-45615624D01*
X188640784Y-45683544D01*
X188788354Y-45782147D01*
X188913853Y-45907646D01*
X189012456Y-46055216D01*
X189080376Y-46219188D01*
X189115000Y-46393259D01*
X189115000Y-46570741D01*
X189080376Y-46744812D01*
X189012456Y-46908784D01*
X188913853Y-47056354D01*
X188788354Y-47181853D01*
X188640784Y-47280456D01*
X188476812Y-47348376D01*
X188327512Y-47378073D01*
X188302742Y-47383000D01*
X188125258Y-47383000D01*
X188100488Y-47378073D01*
X187951188Y-47348376D01*
X187787216Y-47280456D01*
X187639646Y-47181853D01*
X187514147Y-47056354D01*
X187415544Y-46908784D01*
X187347624Y-46744812D01*
X187313000Y-46570741D01*
X187313000Y-46393259D01*
X187347624Y-46219188D01*
X187415544Y-46055216D01*
X187514147Y-45907646D01*
X187639646Y-45782147D01*
X187787216Y-45683544D01*
X187951188Y-45615624D01*
X188100488Y-45585927D01*
X188125258Y-45581000D01*
X188302742Y-45581000D01*
X188327512Y-45585927D01*
G37*
G36*
X131984874Y-45710065D02*
G01*
X132022567Y-45721499D01*
X132057303Y-45740066D01*
X132087748Y-45765052D01*
X132112734Y-45795497D01*
X132131301Y-45830233D01*
X132142735Y-45867926D01*
X132147200Y-45913261D01*
X132147200Y-46999939D01*
X132142735Y-47045274D01*
X132131301Y-47082967D01*
X132112734Y-47117703D01*
X132087748Y-47148148D01*
X132057303Y-47173134D01*
X132022567Y-47191701D01*
X131984874Y-47203135D01*
X131939539Y-47207600D01*
X131102861Y-47207600D01*
X131057526Y-47203135D01*
X131019833Y-47191701D01*
X130985097Y-47173134D01*
X130954652Y-47148148D01*
X130929666Y-47117703D01*
X130911099Y-47082967D01*
X130899665Y-47045274D01*
X130895200Y-46999939D01*
X130895200Y-45913261D01*
X130899665Y-45867926D01*
X130911099Y-45830233D01*
X130929666Y-45795497D01*
X130954652Y-45765052D01*
X130985097Y-45740066D01*
X131019833Y-45721499D01*
X131057526Y-45710065D01*
X131102861Y-45705600D01*
X131939539Y-45705600D01*
X131984874Y-45710065D01*
G37*
G36*
X129934874Y-45710065D02*
G01*
X129972567Y-45721499D01*
X130007303Y-45740066D01*
X130037748Y-45765052D01*
X130062734Y-45795497D01*
X130081301Y-45830233D01*
X130092735Y-45867926D01*
X130097200Y-45913261D01*
X130097200Y-46999939D01*
X130092735Y-47045274D01*
X130081301Y-47082967D01*
X130062734Y-47117703D01*
X130037748Y-47148148D01*
X130007303Y-47173134D01*
X129972567Y-47191701D01*
X129934874Y-47203135D01*
X129889539Y-47207600D01*
X129052861Y-47207600D01*
X129007526Y-47203135D01*
X128969833Y-47191701D01*
X128935097Y-47173134D01*
X128904652Y-47148148D01*
X128879666Y-47117703D01*
X128861099Y-47082967D01*
X128849665Y-47045274D01*
X128845200Y-46999939D01*
X128845200Y-45913261D01*
X128849665Y-45867926D01*
X128861099Y-45830233D01*
X128879666Y-45795497D01*
X128904652Y-45765052D01*
X128935097Y-45740066D01*
X128969833Y-45721499D01*
X129007526Y-45710065D01*
X129052861Y-45705600D01*
X129889539Y-45705600D01*
X129934874Y-45710065D01*
G37*
G36*
X172116874Y-45659265D02*
G01*
X172154567Y-45670699D01*
X172189303Y-45689266D01*
X172219748Y-45714252D01*
X172244734Y-45744697D01*
X172263301Y-45779433D01*
X172274735Y-45817126D01*
X172279200Y-45862461D01*
X172279200Y-46949139D01*
X172274735Y-46994474D01*
X172263301Y-47032167D01*
X172244734Y-47066903D01*
X172219748Y-47097348D01*
X172189303Y-47122334D01*
X172154567Y-47140901D01*
X172116874Y-47152335D01*
X172071539Y-47156800D01*
X171234861Y-47156800D01*
X171189526Y-47152335D01*
X171151833Y-47140901D01*
X171117097Y-47122334D01*
X171086652Y-47097348D01*
X171061666Y-47066903D01*
X171043099Y-47032167D01*
X171031665Y-46994474D01*
X171027200Y-46949139D01*
X171027200Y-45862461D01*
X171031665Y-45817126D01*
X171043099Y-45779433D01*
X171061666Y-45744697D01*
X171086652Y-45714252D01*
X171117097Y-45689266D01*
X171151833Y-45670699D01*
X171189526Y-45659265D01*
X171234861Y-45654800D01*
X172071539Y-45654800D01*
X172116874Y-45659265D01*
G37*
G36*
X170066874Y-45659265D02*
G01*
X170104567Y-45670699D01*
X170139303Y-45689266D01*
X170169748Y-45714252D01*
X170194734Y-45744697D01*
X170213301Y-45779433D01*
X170224735Y-45817126D01*
X170229200Y-45862461D01*
X170229200Y-46949139D01*
X170224735Y-46994474D01*
X170213301Y-47032167D01*
X170194734Y-47066903D01*
X170169748Y-47097348D01*
X170139303Y-47122334D01*
X170104567Y-47140901D01*
X170066874Y-47152335D01*
X170021539Y-47156800D01*
X169184861Y-47156800D01*
X169139526Y-47152335D01*
X169101833Y-47140901D01*
X169067097Y-47122334D01*
X169036652Y-47097348D01*
X169011666Y-47066903D01*
X168993099Y-47032167D01*
X168981665Y-46994474D01*
X168977200Y-46949139D01*
X168977200Y-45862461D01*
X168981665Y-45817126D01*
X168993099Y-45779433D01*
X169011666Y-45744697D01*
X169036652Y-45714252D01*
X169067097Y-45689266D01*
X169101833Y-45670699D01*
X169139526Y-45659265D01*
X169184861Y-45654800D01*
X170021539Y-45654800D01*
X170066874Y-45659265D01*
G37*
G36*
X153242674Y-44717465D02*
G01*
X153280367Y-44728899D01*
X153315103Y-44747466D01*
X153345548Y-44772452D01*
X153370534Y-44802897D01*
X153389101Y-44837633D01*
X153400535Y-44875326D01*
X153405000Y-44920661D01*
X153405000Y-45757339D01*
X153400535Y-45802674D01*
X153389101Y-45840367D01*
X153370534Y-45875103D01*
X153345548Y-45905548D01*
X153315103Y-45930534D01*
X153280367Y-45949101D01*
X153242674Y-45960535D01*
X153197339Y-45965000D01*
X152110661Y-45965000D01*
X152065326Y-45960535D01*
X152027633Y-45949101D01*
X151992897Y-45930534D01*
X151962452Y-45905548D01*
X151937466Y-45875103D01*
X151918899Y-45840367D01*
X151907465Y-45802674D01*
X151903000Y-45757339D01*
X151903000Y-44920661D01*
X151907465Y-44875326D01*
X151918899Y-44837633D01*
X151937466Y-44802897D01*
X151962452Y-44772452D01*
X151992897Y-44747466D01*
X152027633Y-44728899D01*
X152065326Y-44717465D01*
X152110661Y-44713000D01*
X153197339Y-44713000D01*
X153242674Y-44717465D01*
G37*
G36*
X149610474Y-44710065D02*
G01*
X149648167Y-44721499D01*
X149682903Y-44740066D01*
X149713348Y-44765052D01*
X149738334Y-44795497D01*
X149756901Y-44830233D01*
X149768335Y-44867926D01*
X149772800Y-44913261D01*
X149772800Y-45749939D01*
X149768335Y-45795274D01*
X149756901Y-45832967D01*
X149738334Y-45867703D01*
X149713348Y-45898148D01*
X149682903Y-45923134D01*
X149648167Y-45941701D01*
X149610474Y-45953135D01*
X149565139Y-45957600D01*
X148478461Y-45957600D01*
X148433126Y-45953135D01*
X148395433Y-45941701D01*
X148360697Y-45923134D01*
X148330252Y-45898148D01*
X148305266Y-45867703D01*
X148286699Y-45832967D01*
X148275265Y-45795274D01*
X148270800Y-45749939D01*
X148270800Y-44913261D01*
X148275265Y-44867926D01*
X148286699Y-44830233D01*
X148305266Y-44795497D01*
X148330252Y-44765052D01*
X148360697Y-44740066D01*
X148395433Y-44721499D01*
X148433126Y-44710065D01*
X148478461Y-44705600D01*
X149565139Y-44705600D01*
X149610474Y-44710065D01*
G37*
G36*
X188327512Y-43045927D02*
G01*
X188476812Y-43075624D01*
X188640784Y-43143544D01*
X188788354Y-43242147D01*
X188913853Y-43367646D01*
X189012456Y-43515216D01*
X189080376Y-43679188D01*
X189107928Y-43817703D01*
X189113984Y-43848148D01*
X189115000Y-43853259D01*
X189115000Y-44030741D01*
X189080376Y-44204812D01*
X189012456Y-44368784D01*
X188913853Y-44516354D01*
X188788354Y-44641853D01*
X188640784Y-44740456D01*
X188476812Y-44808376D01*
X188329723Y-44837633D01*
X188302742Y-44843000D01*
X188125258Y-44843000D01*
X188098277Y-44837633D01*
X187951188Y-44808376D01*
X187787216Y-44740456D01*
X187639646Y-44641853D01*
X187514147Y-44516354D01*
X187415544Y-44368784D01*
X187347624Y-44204812D01*
X187313000Y-44030741D01*
X187313000Y-43853259D01*
X187314017Y-43848148D01*
X187320072Y-43817703D01*
X187347624Y-43679188D01*
X187415544Y-43515216D01*
X187514147Y-43367646D01*
X187639646Y-43242147D01*
X187787216Y-43143544D01*
X187951188Y-43075624D01*
X188100488Y-43045927D01*
X188125258Y-43041000D01*
X188302742Y-43041000D01*
X188327512Y-43045927D01*
G37*
G36*
X113397512Y-43045927D02*
G01*
X113546812Y-43075624D01*
X113710784Y-43143544D01*
X113858354Y-43242147D01*
X113983853Y-43367646D01*
X114082456Y-43515216D01*
X114150376Y-43679188D01*
X114177928Y-43817703D01*
X114183984Y-43848148D01*
X114185000Y-43853259D01*
X114185000Y-44030741D01*
X114150376Y-44204812D01*
X114082456Y-44368784D01*
X113983853Y-44516354D01*
X113858354Y-44641853D01*
X113710784Y-44740456D01*
X113546812Y-44808376D01*
X113399723Y-44837633D01*
X113372742Y-44843000D01*
X113195258Y-44843000D01*
X113168277Y-44837633D01*
X113021188Y-44808376D01*
X112857216Y-44740456D01*
X112709646Y-44641853D01*
X112584147Y-44516354D01*
X112485544Y-44368784D01*
X112417624Y-44204812D01*
X112383000Y-44030741D01*
X112383000Y-43853259D01*
X112384017Y-43848148D01*
X112390072Y-43817703D01*
X112417624Y-43679188D01*
X112485544Y-43515216D01*
X112584147Y-43367646D01*
X112709646Y-43242147D01*
X112857216Y-43143544D01*
X113021188Y-43075624D01*
X113170488Y-43045927D01*
X113195258Y-43041000D01*
X113372742Y-43041000D01*
X113397512Y-43045927D01*
G37*
G36*
X153242674Y-42667465D02*
G01*
X153280367Y-42678899D01*
X153315103Y-42697466D01*
X153345548Y-42722452D01*
X153370534Y-42752897D01*
X153389101Y-42787633D01*
X153400535Y-42825326D01*
X153405000Y-42870661D01*
X153405000Y-43707339D01*
X153400535Y-43752674D01*
X153389101Y-43790367D01*
X153370534Y-43825103D01*
X153345548Y-43855548D01*
X153315103Y-43880534D01*
X153280367Y-43899101D01*
X153242674Y-43910535D01*
X153197339Y-43915000D01*
X152110661Y-43915000D01*
X152065326Y-43910535D01*
X152027633Y-43899101D01*
X151992897Y-43880534D01*
X151962452Y-43855548D01*
X151937466Y-43825103D01*
X151918899Y-43790367D01*
X151907465Y-43752674D01*
X151903000Y-43707339D01*
X151903000Y-42870661D01*
X151907465Y-42825326D01*
X151918899Y-42787633D01*
X151937466Y-42752897D01*
X151962452Y-42722452D01*
X151992897Y-42697466D01*
X152027633Y-42678899D01*
X152065326Y-42667465D01*
X152110661Y-42663000D01*
X153197339Y-42663000D01*
X153242674Y-42667465D01*
G37*
G36*
X149610474Y-42660065D02*
G01*
X149648167Y-42671499D01*
X149682903Y-42690066D01*
X149713348Y-42715052D01*
X149738334Y-42745497D01*
X149756901Y-42780233D01*
X149768335Y-42817926D01*
X149772800Y-42863261D01*
X149772800Y-43699939D01*
X149768335Y-43745274D01*
X149756901Y-43782967D01*
X149738334Y-43817703D01*
X149713348Y-43848148D01*
X149682903Y-43873134D01*
X149648167Y-43891701D01*
X149610474Y-43903135D01*
X149565139Y-43907600D01*
X148478461Y-43907600D01*
X148433126Y-43903135D01*
X148395433Y-43891701D01*
X148360697Y-43873134D01*
X148330252Y-43848148D01*
X148305266Y-43817703D01*
X148286699Y-43782967D01*
X148275265Y-43745274D01*
X148270800Y-43699939D01*
X148270800Y-42863261D01*
X148275265Y-42817926D01*
X148286699Y-42780233D01*
X148305266Y-42745497D01*
X148330252Y-42715052D01*
X148360697Y-42690066D01*
X148395433Y-42671499D01*
X148433126Y-42660065D01*
X148478461Y-42655600D01*
X149565139Y-42655600D01*
X149610474Y-42660065D01*
G37*
G36*
X151286400Y-43498000D02*
G01*
X150384400Y-43498000D01*
X150384400Y-41496000D01*
X151286400Y-41496000D01*
X151286400Y-43498000D01*
G37*
G36*
X128268441Y-40334360D02*
G01*
X128532505Y-40443739D01*
X128770158Y-40602534D01*
X128972266Y-40804642D01*
X129131061Y-41042295D01*
X129240440Y-41306359D01*
X129296200Y-41586688D01*
X129296200Y-41872512D01*
X129240440Y-42152841D01*
X129131061Y-42416905D01*
X128972266Y-42654558D01*
X128770158Y-42856666D01*
X128532505Y-43015461D01*
X128268441Y-43124840D01*
X127988112Y-43180600D01*
X127702288Y-43180600D01*
X127421959Y-43124840D01*
X127157895Y-43015461D01*
X126920242Y-42856666D01*
X126718134Y-42654558D01*
X126559339Y-42416905D01*
X126449960Y-42152841D01*
X126394200Y-41872512D01*
X126394200Y-41586688D01*
X126449960Y-41306359D01*
X126559339Y-41042295D01*
X126718134Y-40804642D01*
X126920242Y-40602534D01*
X127157895Y-40443739D01*
X127421959Y-40334360D01*
X127702288Y-40278600D01*
X127988112Y-40278600D01*
X128268441Y-40334360D01*
G37*
G36*
X173734441Y-40334360D02*
G01*
X173998505Y-40443739D01*
X174236158Y-40602534D01*
X174438266Y-40804642D01*
X174597061Y-41042295D01*
X174706440Y-41306359D01*
X174762200Y-41586688D01*
X174762200Y-41872512D01*
X174706440Y-42152841D01*
X174597061Y-42416905D01*
X174438266Y-42654558D01*
X174236158Y-42856666D01*
X173998505Y-43015461D01*
X173734441Y-43124840D01*
X173454112Y-43180600D01*
X173168288Y-43180600D01*
X172887959Y-43124840D01*
X172623895Y-43015461D01*
X172386242Y-42856666D01*
X172184134Y-42654558D01*
X172025339Y-42416905D01*
X171915960Y-42152841D01*
X171860200Y-41872512D01*
X171860200Y-41586688D01*
X171915960Y-41306359D01*
X172025339Y-41042295D01*
X172184134Y-40804642D01*
X172386242Y-40602534D01*
X172623895Y-40443739D01*
X172887959Y-40334360D01*
X173168288Y-40278600D01*
X173454112Y-40278600D01*
X173734441Y-40334360D01*
G37*
G36*
X114185000Y-42303000D02*
G01*
X112383000Y-42303000D01*
X112383000Y-40501000D01*
X114185000Y-40501000D01*
X114185000Y-42303000D01*
G37*
G36*
X189115000Y-42303000D02*
G01*
X187313000Y-42303000D01*
X187313000Y-40501000D01*
X189115000Y-40501000D01*
X189115000Y-42303000D01*
G37*
G36*
X152236400Y-40498000D02*
G01*
X151334400Y-40498000D01*
X151334400Y-38496000D01*
X152236400Y-38496000D01*
X152236400Y-40498000D01*
G37*
G36*
X150858755Y-36461646D02*
G01*
X151031826Y-36533334D01*
X151031827Y-36533335D01*
X151187587Y-36637410D01*
X151320050Y-36769873D01*
X151320051Y-36769875D01*
X151424126Y-36925634D01*
X151495814Y-37098705D01*
X151532360Y-37282433D01*
X151532360Y-37469767D01*
X151495814Y-37653495D01*
X151424126Y-37826566D01*
X151424125Y-37826567D01*
X151320050Y-37982327D01*
X151187587Y-38114790D01*
X151162182Y-38131765D01*
X151031826Y-38218866D01*
X150858755Y-38290554D01*
X150675027Y-38327100D01*
X150487694Y-38327100D01*
X150485789Y-38326721D01*
X150461403Y-38324318D01*
X150437016Y-38326719D01*
X150413567Y-38333832D01*
X150391956Y-38345382D01*
X150373014Y-38360927D01*
X150357468Y-38379868D01*
X150345916Y-38401479D01*
X150338803Y-38424927D01*
X150336400Y-38449317D01*
X150336400Y-40498000D01*
X149434400Y-40498000D01*
X149434400Y-38496000D01*
X150171542Y-38496000D01*
X150195928Y-38493598D01*
X150219377Y-38486485D01*
X150240988Y-38474934D01*
X150259930Y-38459389D01*
X150275475Y-38440447D01*
X150287026Y-38418836D01*
X150294139Y-38395387D01*
X150296541Y-38371001D01*
X150294139Y-38346615D01*
X150287026Y-38323166D01*
X150275475Y-38301555D01*
X150259930Y-38282613D01*
X150240988Y-38267068D01*
X150219377Y-38255517D01*
X150130894Y-38218866D01*
X150000538Y-38131765D01*
X149975133Y-38114790D01*
X149842670Y-37982327D01*
X149738595Y-37826567D01*
X149738594Y-37826566D01*
X149666906Y-37653495D01*
X149630360Y-37469767D01*
X149630360Y-37282433D01*
X149666906Y-37098705D01*
X149738594Y-36925634D01*
X149842669Y-36769875D01*
X149842670Y-36769873D01*
X149975133Y-36637410D01*
X150130893Y-36533335D01*
X150130894Y-36533334D01*
X150303965Y-36461646D01*
X150487693Y-36425100D01*
X150675027Y-36425100D01*
X150858755Y-36461646D01*
G37*
G36*
X180617764Y-37618989D02*
G01*
X180701071Y-37653496D01*
X180809035Y-37698216D01*
X180981173Y-37813235D01*
X181127565Y-37959627D01*
X181231242Y-38114790D01*
X181242585Y-38131767D01*
X181321811Y-38323036D01*
X181362200Y-38526084D01*
X181362200Y-38733116D01*
X181321811Y-38936164D01*
X181242585Y-39127433D01*
X181242584Y-39127435D01*
X181127565Y-39299573D01*
X180981173Y-39445965D01*
X180809035Y-39560984D01*
X180809034Y-39560985D01*
X180809033Y-39560985D01*
X180617764Y-39640211D01*
X180414716Y-39680600D01*
X180207684Y-39680600D01*
X180004636Y-39640211D01*
X179813367Y-39560985D01*
X179813366Y-39560985D01*
X179813365Y-39560984D01*
X179641227Y-39445965D01*
X179494835Y-39299573D01*
X179379816Y-39127435D01*
X179379815Y-39127433D01*
X179300589Y-38936164D01*
X179260200Y-38733116D01*
X179260200Y-38526084D01*
X179300589Y-38323036D01*
X179379815Y-38131767D01*
X179391159Y-38114790D01*
X179494835Y-37959627D01*
X179641227Y-37813235D01*
X179813365Y-37698216D01*
X179921329Y-37653496D01*
X180004636Y-37618989D01*
X180207684Y-37578600D01*
X180414716Y-37578600D01*
X180617764Y-37618989D01*
G37*
G36*
X166117764Y-37618989D02*
G01*
X166201071Y-37653496D01*
X166309035Y-37698216D01*
X166481173Y-37813235D01*
X166627565Y-37959627D01*
X166731242Y-38114790D01*
X166742585Y-38131767D01*
X166821811Y-38323036D01*
X166862200Y-38526084D01*
X166862200Y-38733116D01*
X166821811Y-38936164D01*
X166742585Y-39127433D01*
X166742584Y-39127435D01*
X166627565Y-39299573D01*
X166481173Y-39445965D01*
X166309035Y-39560984D01*
X166309034Y-39560985D01*
X166309033Y-39560985D01*
X166117764Y-39640211D01*
X165914716Y-39680600D01*
X165707684Y-39680600D01*
X165504636Y-39640211D01*
X165313367Y-39560985D01*
X165313366Y-39560985D01*
X165313365Y-39560984D01*
X165141227Y-39445965D01*
X164994835Y-39299573D01*
X164879816Y-39127435D01*
X164879815Y-39127433D01*
X164800589Y-38936164D01*
X164760200Y-38733116D01*
X164760200Y-38526084D01*
X164800589Y-38323036D01*
X164879815Y-38131767D01*
X164891159Y-38114790D01*
X164994835Y-37959627D01*
X165141227Y-37813235D01*
X165313365Y-37698216D01*
X165421329Y-37653496D01*
X165504636Y-37618989D01*
X165707684Y-37578600D01*
X165914716Y-37578600D01*
X166117764Y-37618989D01*
G37*
G36*
X135151764Y-37618989D02*
G01*
X135235071Y-37653496D01*
X135343035Y-37698216D01*
X135515173Y-37813235D01*
X135661565Y-37959627D01*
X135765242Y-38114790D01*
X135776585Y-38131767D01*
X135855811Y-38323036D01*
X135896200Y-38526084D01*
X135896200Y-38733116D01*
X135855811Y-38936164D01*
X135776585Y-39127433D01*
X135776584Y-39127435D01*
X135661565Y-39299573D01*
X135515173Y-39445965D01*
X135343035Y-39560984D01*
X135343034Y-39560985D01*
X135343033Y-39560985D01*
X135151764Y-39640211D01*
X134948716Y-39680600D01*
X134741684Y-39680600D01*
X134538636Y-39640211D01*
X134347367Y-39560985D01*
X134347366Y-39560985D01*
X134347365Y-39560984D01*
X134175227Y-39445965D01*
X134028835Y-39299573D01*
X133913816Y-39127435D01*
X133913815Y-39127433D01*
X133834589Y-38936164D01*
X133794200Y-38733116D01*
X133794200Y-38526084D01*
X133834589Y-38323036D01*
X133913815Y-38131767D01*
X133925159Y-38114790D01*
X134028835Y-37959627D01*
X134175227Y-37813235D01*
X134347365Y-37698216D01*
X134455329Y-37653496D01*
X134538636Y-37618989D01*
X134741684Y-37578600D01*
X134948716Y-37578600D01*
X135151764Y-37618989D01*
G37*
G36*
X120651764Y-37618989D02*
G01*
X120735071Y-37653496D01*
X120843035Y-37698216D01*
X121015173Y-37813235D01*
X121161565Y-37959627D01*
X121265242Y-38114790D01*
X121276585Y-38131767D01*
X121355811Y-38323036D01*
X121396200Y-38526084D01*
X121396200Y-38733116D01*
X121355811Y-38936164D01*
X121276585Y-39127433D01*
X121276584Y-39127435D01*
X121161565Y-39299573D01*
X121015173Y-39445965D01*
X120843035Y-39560984D01*
X120843034Y-39560985D01*
X120843033Y-39560985D01*
X120651764Y-39640211D01*
X120448716Y-39680600D01*
X120241684Y-39680600D01*
X120038636Y-39640211D01*
X119847367Y-39560985D01*
X119847366Y-39560985D01*
X119847365Y-39560984D01*
X119675227Y-39445965D01*
X119528835Y-39299573D01*
X119413816Y-39127435D01*
X119413815Y-39127433D01*
X119334589Y-38936164D01*
X119294200Y-38733116D01*
X119294200Y-38526084D01*
X119334589Y-38323036D01*
X119413815Y-38131767D01*
X119425159Y-38114790D01*
X119528835Y-37959627D01*
X119675227Y-37813235D01*
X119847365Y-37698216D01*
X119955329Y-37653496D01*
X120038636Y-37618989D01*
X120241684Y-37578600D01*
X120448716Y-37578600D01*
X120651764Y-37618989D01*
G37*
G36*
X166117764Y-35118989D02*
G01*
X166309033Y-35198215D01*
X166309035Y-35198216D01*
X166481173Y-35313235D01*
X166627565Y-35459627D01*
X166742585Y-35631767D01*
X166821811Y-35823036D01*
X166862200Y-36026084D01*
X166862200Y-36233116D01*
X166821811Y-36436164D01*
X166742585Y-36627433D01*
X166742584Y-36627435D01*
X166627565Y-36799573D01*
X166481173Y-36945965D01*
X166309035Y-37060984D01*
X166309034Y-37060985D01*
X166309033Y-37060985D01*
X166117764Y-37140211D01*
X165914716Y-37180600D01*
X165707684Y-37180600D01*
X165504636Y-37140211D01*
X165313367Y-37060985D01*
X165313366Y-37060985D01*
X165313365Y-37060984D01*
X165141227Y-36945965D01*
X164994835Y-36799573D01*
X164879816Y-36627435D01*
X164879815Y-36627433D01*
X164800589Y-36436164D01*
X164760200Y-36233116D01*
X164760200Y-36026084D01*
X164800589Y-35823036D01*
X164879815Y-35631767D01*
X164994835Y-35459627D01*
X165141227Y-35313235D01*
X165313365Y-35198216D01*
X165313367Y-35198215D01*
X165504636Y-35118989D01*
X165707684Y-35078600D01*
X165914716Y-35078600D01*
X166117764Y-35118989D01*
G37*
G36*
X120651764Y-35118989D02*
G01*
X120843033Y-35198215D01*
X120843035Y-35198216D01*
X121015173Y-35313235D01*
X121161565Y-35459627D01*
X121276585Y-35631767D01*
X121355811Y-35823036D01*
X121396200Y-36026084D01*
X121396200Y-36233116D01*
X121355811Y-36436164D01*
X121276585Y-36627433D01*
X121276584Y-36627435D01*
X121161565Y-36799573D01*
X121015173Y-36945965D01*
X120843035Y-37060984D01*
X120843034Y-37060985D01*
X120843033Y-37060985D01*
X120651764Y-37140211D01*
X120448716Y-37180600D01*
X120241684Y-37180600D01*
X120038636Y-37140211D01*
X119847367Y-37060985D01*
X119847366Y-37060985D01*
X119847365Y-37060984D01*
X119675227Y-36945965D01*
X119528835Y-36799573D01*
X119413816Y-36627435D01*
X119413815Y-36627433D01*
X119334589Y-36436164D01*
X119294200Y-36233116D01*
X119294200Y-36026084D01*
X119334589Y-35823036D01*
X119413815Y-35631767D01*
X119528835Y-35459627D01*
X119675227Y-35313235D01*
X119847365Y-35198216D01*
X119847367Y-35198215D01*
X120038636Y-35118989D01*
X120241684Y-35078600D01*
X120448716Y-35078600D01*
X120651764Y-35118989D01*
G37*
G36*
X151532360Y-35787100D02*
G01*
X149630360Y-35787100D01*
X149630360Y-33885100D01*
X151532360Y-33885100D01*
X151532360Y-35787100D01*
G37*
G36*
X135151764Y-32618989D02*
G01*
X135343033Y-32698215D01*
X135343035Y-32698216D01*
X135463061Y-32778415D01*
X135515173Y-32813235D01*
X135661565Y-32959627D01*
X135776585Y-33131767D01*
X135855811Y-33323036D01*
X135896200Y-33526084D01*
X135896200Y-33733116D01*
X135855811Y-33936164D01*
X135776585Y-34127433D01*
X135776584Y-34127435D01*
X135661565Y-34299573D01*
X135515173Y-34445965D01*
X135343035Y-34560984D01*
X135343034Y-34560985D01*
X135343033Y-34560985D01*
X135151764Y-34640211D01*
X134948716Y-34680600D01*
X134741684Y-34680600D01*
X134538636Y-34640211D01*
X134347367Y-34560985D01*
X134347366Y-34560985D01*
X134347365Y-34560984D01*
X134175227Y-34445965D01*
X134028835Y-34299573D01*
X133913816Y-34127435D01*
X133913815Y-34127433D01*
X133834589Y-33936164D01*
X133794200Y-33733116D01*
X133794200Y-33526084D01*
X133834589Y-33323036D01*
X133913815Y-33131767D01*
X134028835Y-32959627D01*
X134175227Y-32813235D01*
X134227339Y-32778415D01*
X134347365Y-32698216D01*
X134347367Y-32698215D01*
X134538636Y-32618989D01*
X134741684Y-32578600D01*
X134948716Y-32578600D01*
X135151764Y-32618989D01*
G37*
G36*
X180617764Y-32618989D02*
G01*
X180809033Y-32698215D01*
X180809035Y-32698216D01*
X180929061Y-32778415D01*
X180981173Y-32813235D01*
X181127565Y-32959627D01*
X181242585Y-33131767D01*
X181321811Y-33323036D01*
X181362200Y-33526084D01*
X181362200Y-33733116D01*
X181321811Y-33936164D01*
X181242585Y-34127433D01*
X181242584Y-34127435D01*
X181127565Y-34299573D01*
X180981173Y-34445965D01*
X180809035Y-34560984D01*
X180809034Y-34560985D01*
X180809033Y-34560985D01*
X180617764Y-34640211D01*
X180414716Y-34680600D01*
X180207684Y-34680600D01*
X180004636Y-34640211D01*
X179813367Y-34560985D01*
X179813366Y-34560985D01*
X179813365Y-34560984D01*
X179641227Y-34445965D01*
X179494835Y-34299573D01*
X179379816Y-34127435D01*
X179379815Y-34127433D01*
X179300589Y-33936164D01*
X179260200Y-33733116D01*
X179260200Y-33526084D01*
X179300589Y-33323036D01*
X179379815Y-33131767D01*
X179494835Y-32959627D01*
X179641227Y-32813235D01*
X179693339Y-32778415D01*
X179813365Y-32698216D01*
X179813367Y-32698215D01*
X180004636Y-32618989D01*
X180207684Y-32578600D01*
X180414716Y-32578600D01*
X180617764Y-32618989D01*
G37*
G36*
X166862200Y-34680600D02*
G01*
X164760200Y-34680600D01*
X164760200Y-32578600D01*
X166862200Y-32578600D01*
X166862200Y-34680600D01*
G37*
G36*
X121396200Y-34680600D02*
G01*
X119294200Y-34680600D01*
X119294200Y-32578600D01*
X121396200Y-32578600D01*
X121396200Y-34680600D01*
G37*
G36*
X186938256Y-29887298D02*
G01*
X187044579Y-29908447D01*
X187345042Y-30032903D01*
X187615451Y-30213585D01*
X187845415Y-30443549D01*
X188026097Y-30713958D01*
X188125046Y-30952841D01*
X188150553Y-31014422D01*
X188214000Y-31333389D01*
X188214000Y-31658611D01*
X188182800Y-31815461D01*
X188150553Y-31977579D01*
X188026097Y-32278042D01*
X187845415Y-32548451D01*
X187615451Y-32778415D01*
X187345042Y-32959097D01*
X187345041Y-32959098D01*
X187345040Y-32959098D01*
X187257037Y-32995550D01*
X187044579Y-33083553D01*
X186938256Y-33104702D01*
X186725611Y-33147000D01*
X186400389Y-33147000D01*
X186187744Y-33104702D01*
X186081421Y-33083553D01*
X185868963Y-32995550D01*
X185780960Y-32959098D01*
X185780959Y-32959098D01*
X185780958Y-32959097D01*
X185510549Y-32778415D01*
X185280585Y-32548451D01*
X185099903Y-32278042D01*
X184975447Y-31977579D01*
X184943200Y-31815461D01*
X184912000Y-31658611D01*
X184912000Y-31333389D01*
X184975447Y-31014422D01*
X185000955Y-30952841D01*
X185099903Y-30713958D01*
X185280585Y-30443549D01*
X185510549Y-30213585D01*
X185780958Y-30032903D01*
X186081421Y-29908447D01*
X186187744Y-29887298D01*
X186400389Y-29845000D01*
X186725611Y-29845000D01*
X186938256Y-29887298D01*
G37*
G36*
X115310256Y-29887298D02*
G01*
X115416579Y-29908447D01*
X115717042Y-30032903D01*
X115987451Y-30213585D01*
X116217415Y-30443549D01*
X116398097Y-30713958D01*
X116497046Y-30952841D01*
X116522553Y-31014422D01*
X116586000Y-31333389D01*
X116586000Y-31658611D01*
X116554800Y-31815461D01*
X116522553Y-31977579D01*
X116398097Y-32278042D01*
X116217415Y-32548451D01*
X115987451Y-32778415D01*
X115717042Y-32959097D01*
X115717041Y-32959098D01*
X115717040Y-32959098D01*
X115629037Y-32995550D01*
X115416579Y-33083553D01*
X115310256Y-33104702D01*
X115097611Y-33147000D01*
X114772389Y-33147000D01*
X114559744Y-33104702D01*
X114453421Y-33083553D01*
X114240963Y-32995550D01*
X114152960Y-32959098D01*
X114152959Y-32959098D01*
X114152958Y-32959097D01*
X113882549Y-32778415D01*
X113652585Y-32548451D01*
X113471903Y-32278042D01*
X113347447Y-31977579D01*
X113315200Y-31815461D01*
X113284000Y-31658611D01*
X113284000Y-31333389D01*
X113347447Y-31014422D01*
X113372955Y-30952841D01*
X113471903Y-30713958D01*
X113652585Y-30443549D01*
X113882549Y-30213585D01*
X114152958Y-30032903D01*
X114453421Y-29908447D01*
X114559744Y-29887298D01*
X114772389Y-29845000D01*
X115097611Y-29845000D01*
X115310256Y-29887298D01*
G37*
G36*
X173734441Y-29134360D02*
G01*
X173998505Y-29243739D01*
X174236158Y-29402534D01*
X174438266Y-29604642D01*
X174597061Y-29842295D01*
X174706440Y-30106359D01*
X174762200Y-30386688D01*
X174762200Y-30672512D01*
X174706440Y-30952841D01*
X174597061Y-31216905D01*
X174438266Y-31454558D01*
X174236158Y-31656666D01*
X173998505Y-31815461D01*
X173734441Y-31924840D01*
X173454112Y-31980600D01*
X173168288Y-31980600D01*
X172887959Y-31924840D01*
X172623895Y-31815461D01*
X172386242Y-31656666D01*
X172184134Y-31454558D01*
X172025339Y-31216905D01*
X171915960Y-30952841D01*
X171860200Y-30672512D01*
X171860200Y-30386688D01*
X171915960Y-30106359D01*
X172025339Y-29842295D01*
X172184134Y-29604642D01*
X172386242Y-29402534D01*
X172623895Y-29243739D01*
X172887959Y-29134360D01*
X173168288Y-29078600D01*
X173454112Y-29078600D01*
X173734441Y-29134360D01*
G37*
G36*
X128268441Y-29134360D02*
G01*
X128532505Y-29243739D01*
X128770158Y-29402534D01*
X128972266Y-29604642D01*
X129131061Y-29842295D01*
X129240440Y-30106359D01*
X129296200Y-30386688D01*
X129296200Y-30672512D01*
X129240440Y-30952841D01*
X129131061Y-31216905D01*
X128972266Y-31454558D01*
X128770158Y-31656666D01*
X128532505Y-31815461D01*
X128268441Y-31924840D01*
X127988112Y-31980600D01*
X127702288Y-31980600D01*
X127421959Y-31924840D01*
X127157895Y-31815461D01*
X126920242Y-31656666D01*
X126718134Y-31454558D01*
X126559339Y-31216905D01*
X126449960Y-30952841D01*
X126394200Y-30672512D01*
X126394200Y-30386688D01*
X126449960Y-30106359D01*
X126559339Y-29842295D01*
X126718134Y-29604642D01*
X126920242Y-29402534D01*
X127157895Y-29243739D01*
X127421959Y-29134360D01*
X127702288Y-29078600D01*
X127988112Y-29078600D01*
X128268441Y-29134360D01*
G37*
M02*
