M48
; DRILL file {KiCad (5.1.5-0)} date Monday, October 12, 2020 at 11:47:53 AM
; FORMAT={-:-/ absolute / inch / decimal}
; #@! TF.CreationDate,2020-10-12T11:47:53-05:00
; #@! TF.GenerationSoftware,Kicad,Pcbnew,(5.1.5-0)
; #@! TF.FileFunction,NonPlated,1,2,NPTH
FMAT,2
INCH
T1C0.1181
T2C0.1260
%
G90
G05
T1
X5.67Y-5.07
X5.14Y-5.07
X5.67Y-4.47
X6.2Y-4.47
X6.73Y-4.47
X4.61Y-5.07
X4.61Y-4.47
X5.14Y-4.47
X6.73Y-5.07
X7.26Y-5.07
X5.67Y-3.87
X6.2Y-5.07
X5.14Y-3.87
X4.61Y-3.87
X7.26Y-3.87
X7.26Y-4.47
X6.2Y-3.87
X6.74Y-3.87
T2
X7.345Y-1.24
X4.525Y-1.24
X6.995Y-4.8
X4.87Y-4.8
T0
M30
