G04 #@! TF.GenerationSoftware,KiCad,Pcbnew,(5.1.5-0)*
G04 #@! TF.CreationDate,2020-10-12T11:47:50-05:00*
G04 #@! TF.ProjectId,bells-venn,62656c6c-732d-4766-956e-6e2e6b696361,rev?*
G04 #@! TF.SameCoordinates,Original*
G04 #@! TF.FileFunction,Legend,Top*
G04 #@! TF.FilePolarity,Positive*
%FSLAX46Y46*%
G04 Gerber Fmt 4.6, Leading zero omitted, Abs format (unit mm)*
G04 Created by KiCad (PCBNEW (5.1.5-0)) date 2020-10-12 11:47:50*
%MOMM*%
%LPD*%
G04 APERTURE LIST*
%ADD10C,0.150000*%
%ADD11C,0.010000*%
%ADD12C,0.120000*%
G04 APERTURE END LIST*
D10*
X163848142Y-131154714D02*
X163920714Y-130937000D01*
X163993285Y-130864428D01*
X164138428Y-130791857D01*
X164356142Y-130791857D01*
X164501285Y-130864428D01*
X164573857Y-130937000D01*
X164646428Y-131082142D01*
X164646428Y-131662714D01*
X163122428Y-131662714D01*
X163122428Y-131154714D01*
X163195000Y-131009571D01*
X163267571Y-130937000D01*
X163412714Y-130864428D01*
X163557857Y-130864428D01*
X163703000Y-130937000D01*
X163775571Y-131009571D01*
X163848142Y-131154714D01*
X163848142Y-131662714D01*
X164573857Y-129558142D02*
X164646428Y-129703285D01*
X164646428Y-129993571D01*
X164573857Y-130138714D01*
X164428714Y-130211285D01*
X163848142Y-130211285D01*
X163703000Y-130138714D01*
X163630428Y-129993571D01*
X163630428Y-129703285D01*
X163703000Y-129558142D01*
X163848142Y-129485571D01*
X163993285Y-129485571D01*
X164138428Y-130211285D01*
X164646428Y-128614714D02*
X164573857Y-128759857D01*
X164428714Y-128832428D01*
X163122428Y-128832428D01*
X164646428Y-127816428D02*
X164573857Y-127961571D01*
X164428714Y-128034142D01*
X163122428Y-128034142D01*
X163122428Y-127163285D02*
X163195000Y-127163285D01*
X163340142Y-127235857D01*
X163412714Y-127308428D01*
X164573857Y-126582714D02*
X164646428Y-126437571D01*
X164646428Y-126147285D01*
X164573857Y-126002142D01*
X164428714Y-125929571D01*
X164356142Y-125929571D01*
X164211000Y-126002142D01*
X164138428Y-126147285D01*
X164138428Y-126365000D01*
X164065857Y-126510142D01*
X163920714Y-126582714D01*
X163848142Y-126582714D01*
X163703000Y-126510142D01*
X163630428Y-126365000D01*
X163630428Y-126147285D01*
X163703000Y-126002142D01*
X163122428Y-124333000D02*
X163122428Y-123462142D01*
X164646428Y-123897571D02*
X163122428Y-123897571D01*
X164646428Y-122954142D02*
X163122428Y-122954142D01*
X164646428Y-122301000D02*
X163848142Y-122301000D01*
X163703000Y-122373571D01*
X163630428Y-122518714D01*
X163630428Y-122736428D01*
X163703000Y-122881571D01*
X163775571Y-122954142D01*
X164573857Y-120994714D02*
X164646428Y-121139857D01*
X164646428Y-121430142D01*
X164573857Y-121575285D01*
X164428714Y-121647857D01*
X163848142Y-121647857D01*
X163703000Y-121575285D01*
X163630428Y-121430142D01*
X163630428Y-121139857D01*
X163703000Y-120994714D01*
X163848142Y-120922142D01*
X163993285Y-120922142D01*
X164138428Y-121647857D01*
X164646428Y-120051285D02*
X164573857Y-120196428D01*
X164501285Y-120269000D01*
X164356142Y-120341571D01*
X163920714Y-120341571D01*
X163775571Y-120269000D01*
X163703000Y-120196428D01*
X163630428Y-120051285D01*
X163630428Y-119833571D01*
X163703000Y-119688428D01*
X163775571Y-119615857D01*
X163920714Y-119543285D01*
X164356142Y-119543285D01*
X164501285Y-119615857D01*
X164573857Y-119688428D01*
X164646428Y-119833571D01*
X164646428Y-120051285D01*
X164646428Y-118890142D02*
X163630428Y-118890142D01*
X163920714Y-118890142D02*
X163775571Y-118817571D01*
X163703000Y-118745000D01*
X163630428Y-118599857D01*
X163630428Y-118454714D01*
X164573857Y-117366142D02*
X164646428Y-117511285D01*
X164646428Y-117801571D01*
X164573857Y-117946714D01*
X164428714Y-118019285D01*
X163848142Y-118019285D01*
X163703000Y-117946714D01*
X163630428Y-117801571D01*
X163630428Y-117511285D01*
X163703000Y-117366142D01*
X163848142Y-117293571D01*
X163993285Y-117293571D01*
X164138428Y-118019285D01*
X164646428Y-116640428D02*
X163630428Y-116640428D01*
X163775571Y-116640428D02*
X163703000Y-116567857D01*
X163630428Y-116422714D01*
X163630428Y-116205000D01*
X163703000Y-116059857D01*
X163848142Y-115987285D01*
X164646428Y-115987285D01*
X163848142Y-115987285D02*
X163703000Y-115914714D01*
X163630428Y-115769571D01*
X163630428Y-115551857D01*
X163703000Y-115406714D01*
X163848142Y-115334142D01*
X164646428Y-115334142D01*
X163630428Y-113447285D02*
X165154428Y-113447285D01*
X163703000Y-113447285D02*
X163630428Y-113302142D01*
X163630428Y-113011857D01*
X163703000Y-112866714D01*
X163775571Y-112794142D01*
X163920714Y-112721571D01*
X164356142Y-112721571D01*
X164501285Y-112794142D01*
X164573857Y-112866714D01*
X164646428Y-113011857D01*
X164646428Y-113302142D01*
X164573857Y-113447285D01*
X164646428Y-112068428D02*
X163630428Y-112068428D01*
X163920714Y-112068428D02*
X163775571Y-111995857D01*
X163703000Y-111923285D01*
X163630428Y-111778142D01*
X163630428Y-111633000D01*
X164646428Y-110907285D02*
X164573857Y-111052428D01*
X164501285Y-111125000D01*
X164356142Y-111197571D01*
X163920714Y-111197571D01*
X163775571Y-111125000D01*
X163703000Y-111052428D01*
X163630428Y-110907285D01*
X163630428Y-110689571D01*
X163703000Y-110544428D01*
X163775571Y-110471857D01*
X163920714Y-110399285D01*
X164356142Y-110399285D01*
X164501285Y-110471857D01*
X164573857Y-110544428D01*
X164646428Y-110689571D01*
X164646428Y-110907285D01*
X163630428Y-109963857D02*
X163630428Y-109383285D01*
X163122428Y-109746142D02*
X164428714Y-109746142D01*
X164573857Y-109673571D01*
X164646428Y-109528428D01*
X164646428Y-109383285D01*
X164646428Y-108657571D02*
X164573857Y-108802714D01*
X164501285Y-108875285D01*
X164356142Y-108947857D01*
X163920714Y-108947857D01*
X163775571Y-108875285D01*
X163703000Y-108802714D01*
X163630428Y-108657571D01*
X163630428Y-108439857D01*
X163703000Y-108294714D01*
X163775571Y-108222142D01*
X163920714Y-108149571D01*
X164356142Y-108149571D01*
X164501285Y-108222142D01*
X164573857Y-108294714D01*
X164646428Y-108439857D01*
X164646428Y-108657571D01*
X163630428Y-107714142D02*
X163630428Y-107133571D01*
X163122428Y-107496428D02*
X164428714Y-107496428D01*
X164573857Y-107423857D01*
X164646428Y-107278714D01*
X164646428Y-107133571D01*
X163630428Y-106770714D02*
X164646428Y-106407857D01*
X163630428Y-106045000D02*
X164646428Y-106407857D01*
X165009285Y-106553000D01*
X165081857Y-106625571D01*
X165154428Y-106770714D01*
X163630428Y-105464428D02*
X165154428Y-105464428D01*
X163703000Y-105464428D02*
X163630428Y-105319285D01*
X163630428Y-105029000D01*
X163703000Y-104883857D01*
X163775571Y-104811285D01*
X163920714Y-104738714D01*
X164356142Y-104738714D01*
X164501285Y-104811285D01*
X164573857Y-104883857D01*
X164646428Y-105029000D01*
X164646428Y-105319285D01*
X164573857Y-105464428D01*
X164573857Y-103505000D02*
X164646428Y-103650142D01*
X164646428Y-103940428D01*
X164573857Y-104085571D01*
X164428714Y-104158142D01*
X163848142Y-104158142D01*
X163703000Y-104085571D01*
X163630428Y-103940428D01*
X163630428Y-103650142D01*
X163703000Y-103505000D01*
X163848142Y-103432428D01*
X163993285Y-103432428D01*
X164138428Y-104158142D01*
X163122428Y-101327857D02*
X163122428Y-101182714D01*
X163195000Y-101037571D01*
X163267571Y-100965000D01*
X163412714Y-100892428D01*
X163703000Y-100819857D01*
X164065857Y-100819857D01*
X164356142Y-100892428D01*
X164501285Y-100965000D01*
X164573857Y-101037571D01*
X164646428Y-101182714D01*
X164646428Y-101327857D01*
X164573857Y-101473000D01*
X164501285Y-101545571D01*
X164356142Y-101618142D01*
X164065857Y-101690714D01*
X163703000Y-101690714D01*
X163412714Y-101618142D01*
X163267571Y-101545571D01*
X163195000Y-101473000D01*
X163122428Y-101327857D01*
X164501285Y-100166714D02*
X164573857Y-100094142D01*
X164646428Y-100166714D01*
X164573857Y-100239285D01*
X164501285Y-100166714D01*
X164646428Y-100166714D01*
X164646428Y-98642714D02*
X164646428Y-99513571D01*
X164646428Y-99078142D02*
X163122428Y-99078142D01*
X163340142Y-99223285D01*
X163485285Y-99368428D01*
X163557857Y-99513571D01*
D11*
G36*
X158766933Y-17958073D02*
G01*
X160776271Y-18416308D01*
X162667088Y-18935862D01*
X164483766Y-19531846D01*
X166270690Y-20219370D01*
X168072244Y-21013543D01*
X168884600Y-21402421D01*
X171171666Y-22615005D01*
X173366815Y-23965353D01*
X175464750Y-25446751D01*
X177460172Y-27052484D01*
X179347785Y-28775840D01*
X181122292Y-30610104D01*
X182778395Y-32548563D01*
X184310797Y-34584502D01*
X185714202Y-36711208D01*
X186983312Y-38921966D01*
X188112829Y-41210064D01*
X189097458Y-43568787D01*
X189931900Y-45991421D01*
X190610858Y-48471252D01*
X190762928Y-49132066D01*
X190874120Y-49634853D01*
X190970675Y-50078530D01*
X191053626Y-50478813D01*
X191124004Y-50851416D01*
X191182842Y-51212055D01*
X191231172Y-51576445D01*
X191270026Y-51960302D01*
X191300438Y-52379339D01*
X191323439Y-52849272D01*
X191340061Y-53385817D01*
X191351337Y-54004688D01*
X191358299Y-54721600D01*
X191361980Y-55552268D01*
X191363411Y-56512409D01*
X191363626Y-57617736D01*
X191363600Y-58276066D01*
X191363612Y-59465764D01*
X191362962Y-60501843D01*
X191360616Y-61400020D01*
X191355543Y-62176009D01*
X191346709Y-62845526D01*
X191333084Y-63424285D01*
X191313634Y-63928001D01*
X191287326Y-64372391D01*
X191253130Y-64773167D01*
X191210012Y-65146047D01*
X191156940Y-65506745D01*
X191092881Y-65870976D01*
X191016804Y-66254455D01*
X190927677Y-66672896D01*
X190824466Y-67142017D01*
X190762928Y-67420066D01*
X190125814Y-69912819D01*
X189330776Y-72352542D01*
X188382831Y-74732294D01*
X187286995Y-77045134D01*
X186048286Y-79284121D01*
X184671720Y-81442315D01*
X183162313Y-83512775D01*
X181525083Y-85488560D01*
X179765045Y-87362730D01*
X177887217Y-89128343D01*
X175896614Y-90778459D01*
X173798255Y-92306138D01*
X171892616Y-93527998D01*
X171167903Y-93947711D01*
X170332166Y-94402959D01*
X169428910Y-94872028D01*
X168501639Y-95333202D01*
X167593858Y-95764767D01*
X166749071Y-96145008D01*
X166125021Y-96406831D01*
X163733044Y-97278232D01*
X161268048Y-98003669D01*
X158750616Y-98578288D01*
X156201333Y-98997235D01*
X154237266Y-99210047D01*
X153841422Y-99234124D01*
X153305970Y-99253310D01*
X152660562Y-99267642D01*
X151934852Y-99277155D01*
X151158492Y-99281884D01*
X150361136Y-99281867D01*
X149572437Y-99277138D01*
X148822048Y-99267734D01*
X148139621Y-99253691D01*
X147554811Y-99235044D01*
X147097270Y-99211830D01*
X146955933Y-99201222D01*
X144813611Y-98954392D01*
X142626580Y-98581725D01*
X140449450Y-98094532D01*
X138336831Y-97504126D01*
X137565844Y-97256242D01*
X135549972Y-96518288D01*
X133529027Y-95653222D01*
X131693566Y-94754771D01*
X135341006Y-94754771D01*
X135399753Y-94797968D01*
X135594049Y-94886973D01*
X135899292Y-95012592D01*
X136290878Y-95165630D01*
X136744207Y-95336893D01*
X137234674Y-95517185D01*
X137737678Y-95697313D01*
X138228616Y-95868081D01*
X138682885Y-96020296D01*
X138988250Y-96117845D01*
X141244475Y-96749236D01*
X143541929Y-97258565D01*
X145836362Y-97637069D01*
X147717933Y-97846556D01*
X148210818Y-97878286D01*
X148832913Y-97902221D01*
X149545725Y-97918302D01*
X150310760Y-97926470D01*
X151089525Y-97926667D01*
X151843527Y-97918832D01*
X152534271Y-97902908D01*
X153123264Y-97878834D01*
X153475266Y-97855380D01*
X155998224Y-97565274D01*
X158498723Y-97122491D01*
X160954762Y-96532093D01*
X163344341Y-95799147D01*
X164928144Y-95218738D01*
X165358486Y-95047261D01*
X165724573Y-94896134D01*
X166001236Y-94776180D01*
X166163308Y-94698220D01*
X166194824Y-94674069D01*
X166099659Y-94669655D01*
X165890825Y-94694671D01*
X165702137Y-94727208D01*
X164713272Y-94879777D01*
X163598718Y-94988250D01*
X162396226Y-95052814D01*
X161143549Y-95073658D01*
X159878438Y-95050967D01*
X158638643Y-94984930D01*
X157461918Y-94875734D01*
X156386013Y-94723565D01*
X156142266Y-94679783D01*
X155753891Y-94598066D01*
X166386933Y-94598066D01*
X166429266Y-94640400D01*
X166471600Y-94598066D01*
X166429266Y-94555733D01*
X166386933Y-94598066D01*
X155753891Y-94598066D01*
X155256298Y-94493369D01*
X154321452Y-94261634D01*
X153381888Y-93997650D01*
X152481770Y-93714489D01*
X151665257Y-93425225D01*
X151027678Y-93165750D01*
X150554266Y-92956384D01*
X150080854Y-93165750D01*
X149066230Y-93569866D01*
X147923746Y-93946521D01*
X146693992Y-94285553D01*
X145417557Y-94576799D01*
X144135029Y-94810097D01*
X142886997Y-94975285D01*
X142829999Y-94981189D01*
X142359327Y-95015911D01*
X141764270Y-95039099D01*
X141076410Y-95051321D01*
X140327325Y-95053147D01*
X139548597Y-95045146D01*
X138771805Y-95027886D01*
X138028531Y-95001936D01*
X137350355Y-94967866D01*
X136768856Y-94926243D01*
X136315616Y-94877638D01*
X136210364Y-94861941D01*
X135854871Y-94807175D01*
X135567687Y-94769023D01*
X135385712Y-94752034D01*
X135341006Y-94754771D01*
X131693566Y-94754771D01*
X131541662Y-94680415D01*
X129626530Y-93619238D01*
X127822281Y-92489062D01*
X127186266Y-92054286D01*
X126525538Y-91578018D01*
X125806971Y-91036725D01*
X125058744Y-90453386D01*
X124309037Y-89850981D01*
X123586028Y-89252491D01*
X122917899Y-88680895D01*
X122332828Y-88159173D01*
X121858994Y-87710305D01*
X121857247Y-87708574D01*
X120697853Y-86499829D01*
X119527640Y-85165623D01*
X118376919Y-83744759D01*
X117276001Y-82276039D01*
X116255198Y-80798265D01*
X115400068Y-79442733D01*
X114147338Y-77189088D01*
X113036469Y-74844203D01*
X112068589Y-72411008D01*
X111244827Y-69892433D01*
X110566310Y-67291409D01*
X110363273Y-66361733D01*
X110125933Y-65218733D01*
X110125933Y-58289612D01*
X111049132Y-58289612D01*
X111055865Y-59230650D01*
X111075692Y-60137341D01*
X111108611Y-60975824D01*
X111154624Y-61712236D01*
X111211856Y-62297733D01*
X111567172Y-64692195D01*
X112028045Y-66977458D01*
X112602132Y-69182485D01*
X113297086Y-71336239D01*
X114120562Y-73467684D01*
X114236967Y-73743503D01*
X114403916Y-74130400D01*
X114546792Y-74452193D01*
X114653105Y-74681458D01*
X114710365Y-74790768D01*
X114716282Y-74795939D01*
X114711554Y-74708861D01*
X114679851Y-74496531D01*
X114627478Y-74199728D01*
X114609162Y-74102835D01*
X114430649Y-72956989D01*
X114306537Y-71691978D01*
X114236798Y-70348985D01*
X114221400Y-68969192D01*
X114224128Y-68872743D01*
X115597122Y-68872743D01*
X115651678Y-70788331D01*
X115863731Y-72704562D01*
X116230688Y-74609378D01*
X116749954Y-76490719D01*
X117418934Y-78336527D01*
X118235033Y-80134741D01*
X119195658Y-81873304D01*
X119779009Y-82791235D01*
X120282508Y-83527963D01*
X120748351Y-84163667D01*
X121214702Y-84744909D01*
X121719725Y-85318247D01*
X122301586Y-85930243D01*
X122596296Y-86228289D01*
X123478696Y-87087903D01*
X124299480Y-87833268D01*
X125090577Y-88491282D01*
X125883919Y-89088842D01*
X126483500Y-89502794D01*
X128236788Y-90570150D01*
X130069762Y-91489583D01*
X131974956Y-92258353D01*
X133944906Y-92873720D01*
X135972144Y-93332944D01*
X137600266Y-93582435D01*
X138264775Y-93642843D01*
X139044380Y-93680493D01*
X139886377Y-93695357D01*
X140738062Y-93687411D01*
X141546730Y-93656627D01*
X142259677Y-93602979D01*
X142426785Y-93584823D01*
X143996517Y-93357823D01*
X145489130Y-93049166D01*
X146983382Y-92641419D01*
X147662612Y-92425813D01*
X148707958Y-92080923D01*
X152400574Y-92080923D01*
X153445920Y-92425813D01*
X155288998Y-92961405D01*
X157135182Y-93355555D01*
X158966782Y-93606209D01*
X160766109Y-93711313D01*
X162515475Y-93668811D01*
X163424118Y-93584823D01*
X165435939Y-93268669D01*
X167402808Y-92800912D01*
X169314470Y-92187005D01*
X171160670Y-91432403D01*
X172931156Y-90542559D01*
X174615672Y-89522930D01*
X176203965Y-88378968D01*
X177685780Y-87116128D01*
X179050862Y-85739865D01*
X179799222Y-84874604D01*
X181003507Y-83282520D01*
X182072506Y-81610507D01*
X183003114Y-79870069D01*
X183792228Y-78072709D01*
X184436742Y-76229930D01*
X184933554Y-74353236D01*
X185279558Y-72454130D01*
X185471651Y-70544114D01*
X185506728Y-68634693D01*
X185381686Y-66737370D01*
X185137649Y-65091733D01*
X185026617Y-64554128D01*
X184885225Y-63949470D01*
X184721852Y-63306799D01*
X184544876Y-62655154D01*
X184362674Y-62023574D01*
X184183625Y-61441100D01*
X184016107Y-60936769D01*
X183868497Y-60539622D01*
X183749172Y-60278698D01*
X183748993Y-60278378D01*
X183681123Y-60267117D01*
X183564366Y-60400549D01*
X183407199Y-60659253D01*
X182874336Y-61535199D01*
X182228218Y-62472299D01*
X181495521Y-63436353D01*
X180702923Y-64393160D01*
X179877100Y-65308522D01*
X179386123Y-65814256D01*
X177837911Y-67245579D01*
X176200695Y-68533182D01*
X174477885Y-69675240D01*
X172672891Y-70669926D01*
X170789123Y-71515412D01*
X168829992Y-72209872D01*
X166798907Y-72751480D01*
X166196545Y-72879769D01*
X165907119Y-72950527D01*
X165746960Y-73029172D01*
X165676531Y-73136918D01*
X165670076Y-73162212D01*
X165637808Y-73326420D01*
X165585535Y-73607571D01*
X165522469Y-73955814D01*
X165495218Y-74108733D01*
X165065357Y-76053113D01*
X164475905Y-77957598D01*
X163733962Y-79812090D01*
X162846629Y-81606489D01*
X161821006Y-83330697D01*
X160664193Y-84974614D01*
X159383291Y-86528142D01*
X157985400Y-87981182D01*
X156477620Y-89323635D01*
X154867051Y-90545401D01*
X153179718Y-91625329D01*
X152400574Y-92080923D01*
X148707958Y-92080923D01*
X147928815Y-91625329D01*
X146223554Y-90532880D01*
X144614058Y-89309756D01*
X143107427Y-87966054D01*
X141710762Y-86511874D01*
X140431163Y-84957315D01*
X139275730Y-83312477D01*
X138251563Y-81587456D01*
X137365763Y-79792354D01*
X136625430Y-77937268D01*
X136037665Y-76032298D01*
X135613314Y-74108733D01*
X135548469Y-73747256D01*
X135490584Y-73432117D01*
X135478663Y-73369545D01*
X136959679Y-73369545D01*
X136962911Y-73416587D01*
X136965417Y-73428792D01*
X137424788Y-75337436D01*
X137970815Y-77118245D01*
X138612781Y-78794011D01*
X139359967Y-80387519D01*
X140221654Y-81921560D01*
X140782375Y-82800271D01*
X141885451Y-84338962D01*
X143054071Y-85736065D01*
X144310289Y-87013643D01*
X145676157Y-88193762D01*
X147173730Y-89298487D01*
X147491245Y-89512495D01*
X147824103Y-89726613D01*
X148220639Y-89970730D01*
X148654348Y-90229753D01*
X149098721Y-90488586D01*
X149527253Y-90732137D01*
X149913437Y-90945311D01*
X150230765Y-91113014D01*
X150452730Y-91220152D01*
X150546583Y-91252325D01*
X150630261Y-91215778D01*
X150834671Y-91114784D01*
X151130808Y-90963970D01*
X151489671Y-90777967D01*
X151562583Y-90739839D01*
X152696154Y-90096441D01*
X153858462Y-89344727D01*
X155004229Y-88517884D01*
X156088181Y-87649096D01*
X157065043Y-86771550D01*
X157328093Y-86513901D01*
X158555428Y-85175271D01*
X159702606Y-83703686D01*
X160755621Y-82122068D01*
X161700465Y-80453341D01*
X162523128Y-78720428D01*
X163209604Y-76946252D01*
X163253502Y-76817233D01*
X163409924Y-76319008D01*
X163585408Y-75703055D01*
X163767198Y-75017964D01*
X163942537Y-74312322D01*
X164098668Y-73634719D01*
X164143115Y-73428792D01*
X164149767Y-73379203D01*
X164134348Y-73340499D01*
X164078957Y-73311656D01*
X163965695Y-73291648D01*
X163776662Y-73279452D01*
X163493956Y-73274041D01*
X163099679Y-73274391D01*
X162575929Y-73279477D01*
X161904807Y-73288273D01*
X161730977Y-73290668D01*
X160736917Y-73299012D01*
X159878918Y-73293031D01*
X159124151Y-73270672D01*
X158439788Y-73229877D01*
X157793002Y-73168590D01*
X157150964Y-73084755D01*
X156480846Y-72976316D01*
X156353933Y-72953887D01*
X155375692Y-72756712D01*
X154360240Y-72511467D01*
X153351695Y-72230971D01*
X152394176Y-71928041D01*
X151531802Y-71615495D01*
X151027678Y-71406416D01*
X150554266Y-71197051D01*
X150080854Y-71406416D01*
X149307232Y-71718221D01*
X148408809Y-72029027D01*
X147429703Y-72326016D01*
X146414033Y-72596368D01*
X145405918Y-72827268D01*
X144754600Y-72953887D01*
X144075886Y-73067001D01*
X143431196Y-73155139D01*
X142787704Y-73220357D01*
X142112581Y-73264711D01*
X141372998Y-73290257D01*
X140536129Y-73299051D01*
X139569144Y-73293149D01*
X139377556Y-73290668D01*
X138670668Y-73281176D01*
X138115196Y-73275162D01*
X137693239Y-73273653D01*
X137386897Y-73277673D01*
X137178271Y-73288247D01*
X137049459Y-73306401D01*
X136982562Y-73333158D01*
X136959679Y-73369545D01*
X135478663Y-73369545D01*
X135448869Y-73213168D01*
X135438456Y-73162212D01*
X135380507Y-73046607D01*
X135240280Y-72964101D01*
X134978235Y-72893479D01*
X134911987Y-72879769D01*
X132860661Y-72382859D01*
X130880299Y-71732565D01*
X128974311Y-70930715D01*
X127146108Y-69979136D01*
X125399099Y-68879655D01*
X123736694Y-67634098D01*
X122162303Y-66244291D01*
X121722410Y-65814256D01*
X120889503Y-64939291D01*
X120074114Y-64002745D01*
X119302920Y-63038817D01*
X118602599Y-62081707D01*
X117999827Y-61165616D01*
X117701334Y-60659253D01*
X117533754Y-60385621D01*
X117420814Y-60263092D01*
X117359539Y-60278378D01*
X117240272Y-60539037D01*
X117092704Y-60935971D01*
X116925213Y-61440138D01*
X116746177Y-62022501D01*
X116563974Y-62654020D01*
X116386981Y-63305655D01*
X116223577Y-63948368D01*
X116082140Y-64553117D01*
X115971046Y-65090866D01*
X115970883Y-65091733D01*
X115702659Y-66969857D01*
X115597122Y-68872743D01*
X114224128Y-68872743D01*
X114260315Y-67593781D01*
X114353512Y-66263934D01*
X114500963Y-65020834D01*
X114616216Y-64329733D01*
X114890511Y-63065105D01*
X115238786Y-61768287D01*
X115642571Y-60500872D01*
X116083397Y-59324453D01*
X116203094Y-59038066D01*
X116493157Y-58360733D01*
X116492299Y-58358729D01*
X118218055Y-58358729D01*
X118645507Y-59164064D01*
X119222879Y-60168927D01*
X119907725Y-61222317D01*
X120666537Y-62278959D01*
X121465809Y-63293578D01*
X122272036Y-64220900D01*
X122782098Y-64753559D01*
X124072068Y-65937339D01*
X125496644Y-67053755D01*
X127028971Y-68086477D01*
X128642197Y-69019178D01*
X130309468Y-69835529D01*
X132003931Y-70519204D01*
X132604933Y-70726257D01*
X132900379Y-70818903D01*
X133278348Y-70930996D01*
X133701460Y-71052207D01*
X134132333Y-71172205D01*
X134533585Y-71280659D01*
X134867837Y-71367238D01*
X135097706Y-71421614D01*
X135166100Y-71434050D01*
X135183366Y-71355296D01*
X135198847Y-71129660D01*
X135211873Y-70779587D01*
X135221776Y-70327523D01*
X135227887Y-69795917D01*
X135229600Y-69303381D01*
X135234885Y-68791500D01*
X136597104Y-68791500D01*
X136604466Y-69941500D01*
X136620354Y-70457698D01*
X136639088Y-70914784D01*
X136659198Y-71286229D01*
X136679215Y-71545504D01*
X136697668Y-71666081D01*
X136700269Y-71670625D01*
X136825264Y-71716842D01*
X137092026Y-71764091D01*
X137473020Y-71810075D01*
X137940712Y-71852494D01*
X138467568Y-71889049D01*
X139026055Y-71917440D01*
X139588638Y-71935369D01*
X139929118Y-71940234D01*
X140519721Y-71935343D01*
X141149880Y-71915325D01*
X141757124Y-71883051D01*
X142278980Y-71841391D01*
X142426785Y-71825489D01*
X143996517Y-71598490D01*
X145489130Y-71289833D01*
X146983382Y-70882086D01*
X147662612Y-70666480D01*
X148707958Y-70321590D01*
X152400574Y-70321590D01*
X153445920Y-70666480D01*
X155271155Y-71201870D01*
X157088596Y-71596733D01*
X158597600Y-71823101D01*
X159202656Y-71878202D01*
X159925844Y-71914531D01*
X160717000Y-71932002D01*
X161525954Y-71930529D01*
X162302542Y-71910024D01*
X162996597Y-71870401D01*
X163404979Y-71831418D01*
X163789587Y-71782404D01*
X164109446Y-71734702D01*
X164328711Y-71694115D01*
X164410222Y-71668666D01*
X164427702Y-71572361D01*
X164447045Y-71333244D01*
X164466813Y-70977803D01*
X164485565Y-70532525D01*
X164501863Y-70023901D01*
X164504066Y-69941500D01*
X164506227Y-68535217D01*
X164432297Y-67205873D01*
X164275929Y-65897501D01*
X164030773Y-64554130D01*
X163761865Y-63398400D01*
X163658127Y-63012178D01*
X163525875Y-62557043D01*
X163376024Y-62066702D01*
X163219487Y-61574864D01*
X163067179Y-61115236D01*
X162930014Y-60721526D01*
X162818906Y-60427443D01*
X162751660Y-60278378D01*
X162683789Y-60267117D01*
X162567033Y-60400549D01*
X162409865Y-60659253D01*
X162251734Y-60925318D01*
X162026574Y-61283231D01*
X161764427Y-61686088D01*
X161495964Y-62086066D01*
X160316693Y-63672350D01*
X159003656Y-65181453D01*
X157576379Y-66595109D01*
X156054388Y-67895048D01*
X154457212Y-69063003D01*
X153179718Y-69865996D01*
X152400574Y-70321590D01*
X148707958Y-70321590D01*
X147928815Y-69865996D01*
X146286789Y-68812930D01*
X144704811Y-67613718D01*
X143202407Y-66286628D01*
X141799106Y-64849928D01*
X140514433Y-63321885D01*
X139612569Y-62086066D01*
X139343456Y-61685105D01*
X139081361Y-61282299D01*
X138856326Y-60924551D01*
X138698667Y-60659253D01*
X138531088Y-60385621D01*
X138418147Y-60263092D01*
X138356873Y-60278378D01*
X138277504Y-60457682D01*
X138162533Y-60766097D01*
X138022872Y-61169915D01*
X137869436Y-61635426D01*
X137713139Y-62128925D01*
X137564895Y-62616701D01*
X137435618Y-63065048D01*
X137346667Y-63398400D01*
X137024707Y-64811406D01*
X136796692Y-66143945D01*
X136656274Y-67451987D01*
X136597104Y-68791500D01*
X135234885Y-68791500D01*
X135241563Y-68144774D01*
X135280570Y-67113205D01*
X135351296Y-66167861D01*
X135458414Y-65267930D01*
X135606600Y-64372600D01*
X135800528Y-63441059D01*
X135993232Y-62636400D01*
X136225801Y-61791566D01*
X136511264Y-60884360D01*
X136825375Y-59987052D01*
X137143889Y-59171910D01*
X137200427Y-59038066D01*
X137489631Y-58362737D01*
X139215388Y-58362737D01*
X139643139Y-59166068D01*
X140228912Y-60182939D01*
X140921900Y-61246539D01*
X141688400Y-62311333D01*
X142494712Y-63331787D01*
X143307132Y-64262365D01*
X143779432Y-64754567D01*
X144720772Y-65631959D01*
X145782935Y-66510282D01*
X146920858Y-67356480D01*
X148089474Y-68137496D01*
X149243721Y-68820276D01*
X149538266Y-68978869D01*
X149904102Y-69170288D01*
X150212710Y-69329451D01*
X150435005Y-69441526D01*
X150541902Y-69491685D01*
X150546583Y-69492991D01*
X150630261Y-69456445D01*
X150834671Y-69355450D01*
X151130808Y-69204637D01*
X151489671Y-69018634D01*
X151562583Y-68980506D01*
X152701758Y-68333700D01*
X153869832Y-67577598D01*
X155021139Y-66745666D01*
X156110015Y-65871367D01*
X157090795Y-64988168D01*
X157329101Y-64754567D01*
X158129169Y-63899044D01*
X158943175Y-62926561D01*
X159737417Y-61882654D01*
X160478191Y-60812856D01*
X161131797Y-59762703D01*
X161465394Y-59166068D01*
X161893144Y-58362737D01*
X161892081Y-58360733D01*
X163618042Y-58360733D01*
X163908105Y-59038066D01*
X164224813Y-59830483D01*
X164541530Y-60718218D01*
X164834010Y-61629002D01*
X165078009Y-62490565D01*
X165115300Y-62636400D01*
X165348968Y-63624387D01*
X165533339Y-64543356D01*
X165673067Y-65433966D01*
X165772804Y-66336873D01*
X165837204Y-67292737D01*
X165870919Y-68342215D01*
X165878933Y-69309086D01*
X165879599Y-69966795D01*
X165882484Y-70473998D01*
X165888916Y-70849523D01*
X165900222Y-71112193D01*
X165917732Y-71280836D01*
X165942774Y-71374277D01*
X165976675Y-71411342D01*
X166020764Y-71410857D01*
X166027100Y-71409081D01*
X166168979Y-71370535D01*
X166432431Y-71302014D01*
X166774738Y-71214554D01*
X167021933Y-71152110D01*
X168755949Y-70637006D01*
X170487858Y-69969640D01*
X172192280Y-69164380D01*
X173843832Y-68235592D01*
X175417133Y-67197642D01*
X176886800Y-66064897D01*
X178227452Y-64851723D01*
X178326434Y-64753559D01*
X179121498Y-63904433D01*
X179931268Y-62938126D01*
X180722308Y-61899804D01*
X181461183Y-60834634D01*
X182114458Y-59787782D01*
X182462727Y-59166068D01*
X182890477Y-58362737D01*
X182889414Y-58360733D01*
X184615376Y-58360733D01*
X184905587Y-59038066D01*
X185544995Y-60714300D01*
X186073880Y-62491331D01*
X186483155Y-64334365D01*
X186752023Y-66107214D01*
X186804285Y-66690434D01*
X186842352Y-67402673D01*
X186866245Y-68204215D01*
X186875991Y-69055345D01*
X186871611Y-69916346D01*
X186853132Y-70747503D01*
X186820576Y-71509100D01*
X186773967Y-72161421D01*
X186748208Y-72410507D01*
X186687245Y-72872908D01*
X186605344Y-73411444D01*
X186510003Y-73984016D01*
X186408719Y-74548521D01*
X186308990Y-75062860D01*
X186218312Y-75484931D01*
X186157679Y-75726608D01*
X186152225Y-75784498D01*
X186204046Y-75707479D01*
X186303636Y-75516251D01*
X186441487Y-75231513D01*
X186608092Y-74873963D01*
X186793944Y-74464302D01*
X186989536Y-74023229D01*
X187185361Y-73571442D01*
X187371913Y-73129642D01*
X187539683Y-72718528D01*
X187542393Y-72711733D01*
X188418846Y-70290932D01*
X189133490Y-67832733D01*
X189684759Y-65345190D01*
X190071090Y-62836357D01*
X190290919Y-60314290D01*
X190345852Y-58276066D01*
X190261432Y-55748411D01*
X190009155Y-53227757D01*
X189590496Y-50721702D01*
X189006930Y-48237846D01*
X188259933Y-45783784D01*
X187542990Y-43840400D01*
X187380971Y-43443574D01*
X187196187Y-43007153D01*
X186998301Y-42552091D01*
X186796976Y-42099342D01*
X186601875Y-41669863D01*
X186422662Y-41284607D01*
X186268999Y-40964530D01*
X186150549Y-40730587D01*
X186076974Y-40603733D01*
X186057939Y-40604923D01*
X186064541Y-40634256D01*
X186147793Y-40974146D01*
X186250160Y-41432223D01*
X186361673Y-41959860D01*
X186472360Y-42508426D01*
X186572253Y-43029294D01*
X186651380Y-43473834D01*
X186669794Y-43586400D01*
X186722218Y-44016722D01*
X186767486Y-44584039D01*
X186804999Y-45256138D01*
X186834158Y-46000807D01*
X186854365Y-46785834D01*
X186865021Y-47579006D01*
X186865528Y-48348112D01*
X186855287Y-49060940D01*
X186833700Y-49685276D01*
X186800167Y-50188910D01*
X186793722Y-50255465D01*
X186552325Y-52004762D01*
X186189962Y-53757161D01*
X185717974Y-55468053D01*
X185147700Y-57092830D01*
X184905439Y-57683400D01*
X184615376Y-58360733D01*
X182889414Y-58360733D01*
X182463026Y-57557401D01*
X181885653Y-56552538D01*
X181200808Y-55499149D01*
X180441996Y-54442507D01*
X179642723Y-53427888D01*
X178836496Y-52500566D01*
X178326434Y-51967906D01*
X176996978Y-50749030D01*
X175536515Y-49609455D01*
X173970428Y-48563549D01*
X172324097Y-47625677D01*
X170622906Y-46810205D01*
X168892236Y-46131502D01*
X167157467Y-45603932D01*
X167021933Y-45569356D01*
X166651074Y-45475459D01*
X166331006Y-45393253D01*
X166104448Y-45333772D01*
X166027100Y-45312384D01*
X165981634Y-45308508D01*
X165946524Y-45339813D01*
X165920441Y-45425126D01*
X165902057Y-45583271D01*
X165890043Y-45833076D01*
X165883071Y-46193366D01*
X165879813Y-46682966D01*
X165878940Y-47320703D01*
X165878933Y-47412379D01*
X165867064Y-48569908D01*
X165828357Y-49600220D01*
X165758157Y-50543976D01*
X165651812Y-51441832D01*
X165504669Y-52334448D01*
X165312074Y-53262481D01*
X165115300Y-54085066D01*
X164883200Y-54928464D01*
X164598543Y-55833649D01*
X164285426Y-56728787D01*
X163967947Y-57542042D01*
X163908254Y-57683400D01*
X163618042Y-58360733D01*
X161892081Y-58360733D01*
X161465692Y-57557401D01*
X160888240Y-56552413D01*
X160203186Y-55498753D01*
X159443917Y-54441544D01*
X158643817Y-53425903D01*
X157836273Y-52496952D01*
X157329101Y-51966898D01*
X156376966Y-51079806D01*
X155304016Y-50193871D01*
X154155694Y-49342376D01*
X152977441Y-48558601D01*
X151814702Y-47875825D01*
X151549100Y-47733878D01*
X150554266Y-47212902D01*
X149559433Y-47733878D01*
X148406913Y-48388142D01*
X147228219Y-49151213D01*
X146068796Y-49989811D01*
X144974086Y-50870654D01*
X143989532Y-51760463D01*
X143779432Y-51966898D01*
X142984717Y-52816360D01*
X142176000Y-53781495D01*
X141386667Y-54817184D01*
X140650104Y-55878306D01*
X139999695Y-56919743D01*
X139642840Y-57557401D01*
X139215388Y-58362737D01*
X137489631Y-58362737D01*
X137490490Y-58360733D01*
X137200279Y-57683400D01*
X136884729Y-56894194D01*
X136568896Y-56009255D01*
X136276876Y-55100417D01*
X136032766Y-54239515D01*
X135993232Y-54085066D01*
X135759564Y-53097079D01*
X135575193Y-52178109D01*
X135435466Y-51287500D01*
X135335729Y-50384593D01*
X135271329Y-49428729D01*
X135237613Y-48379251D01*
X135236014Y-48186249D01*
X136602305Y-48186249D01*
X136676235Y-49515592D01*
X136832603Y-50823965D01*
X137077760Y-52167336D01*
X137346667Y-53323066D01*
X137448393Y-53703177D01*
X137575360Y-54142222D01*
X137718459Y-54612519D01*
X137868579Y-55086386D01*
X138016608Y-55536141D01*
X138153436Y-55934102D01*
X138269951Y-56252587D01*
X138357043Y-56463913D01*
X138405576Y-56540400D01*
X138456322Y-56472643D01*
X138564789Y-56295240D01*
X138703547Y-56053566D01*
X138859569Y-55791206D01*
X139082849Y-55436542D01*
X139343604Y-55036038D01*
X139612050Y-54636159D01*
X139612569Y-54635400D01*
X140791839Y-53049116D01*
X142104876Y-51540012D01*
X143532154Y-50126357D01*
X145054144Y-48826418D01*
X146651320Y-47658463D01*
X147928815Y-46855470D01*
X148707958Y-46399876D01*
X152400574Y-46399876D01*
X153179718Y-46855470D01*
X154821743Y-47908536D01*
X156403721Y-49107748D01*
X157906125Y-50434838D01*
X159309427Y-51871538D01*
X160594099Y-53399580D01*
X161495964Y-54635400D01*
X161765076Y-55036361D01*
X162027171Y-55439167D01*
X162252206Y-55796915D01*
X162409865Y-56062213D01*
X162577445Y-56335845D01*
X162690385Y-56458374D01*
X162751660Y-56443088D01*
X162802649Y-56322415D01*
X162895267Y-56076249D01*
X163016736Y-55739451D01*
X163154273Y-55346880D01*
X163166105Y-55312608D01*
X163720035Y-53475514D01*
X164143842Y-51565746D01*
X164427256Y-49630251D01*
X164443953Y-49471834D01*
X164469103Y-49136677D01*
X164487793Y-48706030D01*
X164500230Y-48207280D01*
X164506624Y-47667815D01*
X164507184Y-47115023D01*
X164502118Y-46576291D01*
X164491637Y-46079005D01*
X164475948Y-45650554D01*
X164455261Y-45318325D01*
X164429786Y-45109706D01*
X164410222Y-45052800D01*
X164288174Y-45008701D01*
X164025643Y-44962438D01*
X163651418Y-44916425D01*
X163194289Y-44873078D01*
X162683043Y-44834812D01*
X162146470Y-44804044D01*
X161613358Y-44783188D01*
X161112496Y-44774660D01*
X161094747Y-44774612D01*
X159255532Y-44845963D01*
X157414299Y-45069673D01*
X155554709Y-45448477D01*
X153660421Y-45985111D01*
X153445920Y-46054986D01*
X152400574Y-46399876D01*
X148707958Y-46399876D01*
X147662612Y-46054986D01*
X145763434Y-45500549D01*
X143900778Y-45104247D01*
X142058305Y-44863346D01*
X140219675Y-44775109D01*
X140013785Y-44774612D01*
X139514690Y-44782631D01*
X138982267Y-44803069D01*
X138445304Y-44833510D01*
X137932591Y-44871538D01*
X137472917Y-44914738D01*
X137095069Y-44960695D01*
X136827837Y-45006993D01*
X136700010Y-45051216D01*
X136698311Y-45052800D01*
X136680830Y-45149104D01*
X136661487Y-45388222D01*
X136641720Y-45743663D01*
X136622967Y-46188940D01*
X136606670Y-46697565D01*
X136604466Y-46779965D01*
X136602305Y-48186249D01*
X135236014Y-48186249D01*
X135229600Y-47412379D01*
X135228933Y-46754671D01*
X135226048Y-46247467D01*
X135219617Y-45871943D01*
X135208310Y-45609272D01*
X135190800Y-45440629D01*
X135165759Y-45347188D01*
X135131858Y-45310123D01*
X135087768Y-45310609D01*
X135081433Y-45312384D01*
X134939554Y-45350931D01*
X134676101Y-45419451D01*
X134333794Y-45506912D01*
X134086600Y-45569356D01*
X132352584Y-46084460D01*
X130620674Y-46751825D01*
X128916252Y-47557085D01*
X127264700Y-48485874D01*
X125691400Y-49523824D01*
X124221733Y-50656569D01*
X122881080Y-51869742D01*
X122782098Y-51967906D01*
X121987034Y-52817033D01*
X121177264Y-53783340D01*
X120386224Y-54821661D01*
X119647349Y-55886831D01*
X118994074Y-56933684D01*
X118645805Y-57555398D01*
X118218055Y-58358729D01*
X116492299Y-58358729D01*
X116202945Y-57683400D01*
X115887396Y-56894194D01*
X115571563Y-56009255D01*
X115279543Y-55100417D01*
X115035433Y-54239515D01*
X114995899Y-54085066D01*
X114755700Y-53066364D01*
X114567521Y-52117615D01*
X114426434Y-51196200D01*
X114327511Y-50259500D01*
X114265825Y-49264896D01*
X114236445Y-48169768D01*
X114232266Y-47481066D01*
X114236348Y-47085328D01*
X115585424Y-47085328D01*
X115626831Y-48859029D01*
X115816666Y-50653423D01*
X116154926Y-52493441D01*
X116350565Y-53323066D01*
X116451545Y-53701849D01*
X116577912Y-54139964D01*
X116720554Y-54609702D01*
X116870364Y-55083351D01*
X117018232Y-55533201D01*
X117155047Y-55931541D01*
X117271699Y-56250661D01*
X117359081Y-56462849D01*
X117408080Y-56540396D01*
X117408242Y-56540400D01*
X117458988Y-56472643D01*
X117567455Y-56295240D01*
X117706214Y-56053566D01*
X118232151Y-55188897D01*
X118870848Y-54262030D01*
X119595739Y-53307008D01*
X120380259Y-52357872D01*
X121197840Y-51448664D01*
X121722410Y-50907210D01*
X123270622Y-49475887D01*
X124907838Y-48188283D01*
X126630648Y-47046225D01*
X128435642Y-46051540D01*
X130319409Y-45206054D01*
X132278540Y-44511593D01*
X134309625Y-43969986D01*
X134911987Y-43841696D01*
X135201414Y-43770939D01*
X135361572Y-43692294D01*
X135432002Y-43584548D01*
X135438456Y-43559253D01*
X135470725Y-43395046D01*
X135480538Y-43342263D01*
X136958765Y-43342263D01*
X136974184Y-43380967D01*
X137029575Y-43409810D01*
X137142837Y-43429817D01*
X137331871Y-43442014D01*
X137614576Y-43447425D01*
X138008854Y-43447075D01*
X138532603Y-43441989D01*
X139203725Y-43433193D01*
X139377556Y-43430797D01*
X140557740Y-43424571D01*
X141604449Y-43443019D01*
X142552216Y-43489693D01*
X143435577Y-43568142D01*
X144289064Y-43681917D01*
X145147214Y-43834569D01*
X146044559Y-44029648D01*
X146659600Y-44179467D01*
X147174072Y-44318386D01*
X147740171Y-44486807D01*
X148327430Y-44674105D01*
X148905386Y-44869653D01*
X149443572Y-45062827D01*
X149911522Y-45243000D01*
X150278772Y-45399546D01*
X150514856Y-45521840D01*
X150522564Y-45526796D01*
X150598797Y-45499121D01*
X150787022Y-45420086D01*
X151017143Y-45319708D01*
X151802834Y-45003002D01*
X152713089Y-44688250D01*
X153703493Y-44388372D01*
X154729631Y-44116283D01*
X155747089Y-43884902D01*
X156353933Y-43767579D01*
X157032647Y-43654465D01*
X157677336Y-43566326D01*
X158320828Y-43501109D01*
X158995951Y-43456755D01*
X159735534Y-43431209D01*
X160572404Y-43422415D01*
X161539389Y-43428317D01*
X161730977Y-43430797D01*
X162437864Y-43440290D01*
X162993336Y-43446304D01*
X163415293Y-43447813D01*
X163721635Y-43443793D01*
X163930262Y-43433219D01*
X164059073Y-43415065D01*
X164125971Y-43388307D01*
X164148853Y-43351920D01*
X164145622Y-43304879D01*
X164143115Y-43292673D01*
X163995966Y-42634628D01*
X163825466Y-41932765D01*
X163644372Y-41235672D01*
X163465441Y-40591938D01*
X163301430Y-40050152D01*
X163253502Y-39904233D01*
X162577396Y-38127966D01*
X161764091Y-36391308D01*
X160827596Y-34717182D01*
X159781919Y-33128510D01*
X158641066Y-31648217D01*
X157419047Y-30299225D01*
X157328093Y-30207565D01*
X156383893Y-29326731D01*
X155318648Y-28445979D01*
X154177414Y-27598313D01*
X153005250Y-26816735D01*
X151847210Y-26134250D01*
X151549100Y-25974544D01*
X150554266Y-25453569D01*
X149559433Y-25974544D01*
X148412658Y-26625316D01*
X147239847Y-27383905D01*
X146086054Y-28217308D01*
X144996339Y-29092523D01*
X144015756Y-29976544D01*
X143780440Y-30207565D01*
X142553105Y-31546195D01*
X141405926Y-33017780D01*
X140352911Y-34599398D01*
X139408068Y-36268125D01*
X138585404Y-38001038D01*
X137898928Y-39775214D01*
X137855031Y-39904233D01*
X137698609Y-40402458D01*
X137523124Y-41018410D01*
X137341334Y-41703502D01*
X137165995Y-42409144D01*
X137009864Y-43086747D01*
X136965417Y-43292673D01*
X136958765Y-43342263D01*
X135480538Y-43342263D01*
X135522997Y-43113895D01*
X135586063Y-42765652D01*
X135613314Y-42612733D01*
X136043175Y-40668353D01*
X136632627Y-38763868D01*
X137374570Y-36909376D01*
X138261903Y-35114977D01*
X139287526Y-33390769D01*
X140444339Y-31746852D01*
X141725241Y-30193324D01*
X143123133Y-28740284D01*
X144630913Y-27397831D01*
X146241481Y-26176064D01*
X147928815Y-25096137D01*
X148707958Y-24640542D01*
X152400574Y-24640542D01*
X153179718Y-25096137D01*
X154884978Y-26188585D01*
X156494474Y-27411710D01*
X158001105Y-28755412D01*
X159397770Y-30209591D01*
X160677369Y-31764150D01*
X161832803Y-33408989D01*
X162856969Y-35134009D01*
X163742769Y-36929112D01*
X164483102Y-38784198D01*
X165070868Y-40689168D01*
X165495218Y-42612733D01*
X165560063Y-42974210D01*
X165617948Y-43289348D01*
X165659664Y-43508298D01*
X165670076Y-43559253D01*
X165728026Y-43674858D01*
X165868253Y-43757365D01*
X166130297Y-43827987D01*
X166196545Y-43841696D01*
X168247871Y-44338607D01*
X170228233Y-44988901D01*
X172134221Y-45790750D01*
X173962424Y-46742329D01*
X175709434Y-47841811D01*
X177371839Y-49087368D01*
X178946229Y-50477175D01*
X179386123Y-50907210D01*
X180219030Y-51782174D01*
X181034419Y-52718721D01*
X181805613Y-53682649D01*
X182505934Y-54639758D01*
X183108705Y-55555849D01*
X183407199Y-56062213D01*
X183574778Y-56335845D01*
X183687719Y-56458374D01*
X183748993Y-56443088D01*
X183799982Y-56322415D01*
X183892601Y-56076249D01*
X184014069Y-55739451D01*
X184151606Y-55346880D01*
X184163438Y-55312608D01*
X184729311Y-53442583D01*
X185146476Y-51553200D01*
X185411031Y-49666961D01*
X185519074Y-47806371D01*
X185521600Y-47481066D01*
X185438721Y-45569657D01*
X185194347Y-43660430D01*
X184794868Y-41766948D01*
X184246675Y-39902771D01*
X183556159Y-38081461D01*
X182729712Y-36316580D01*
X181773723Y-34621689D01*
X180694586Y-33010350D01*
X179498689Y-31496124D01*
X178192425Y-30092572D01*
X176782185Y-28813256D01*
X176687138Y-28734777D01*
X175113980Y-27547380D01*
X173436454Y-26477459D01*
X171676866Y-25536308D01*
X169857521Y-24735219D01*
X168000727Y-24085485D01*
X166894933Y-23777267D01*
X164963864Y-23363555D01*
X163070061Y-23108204D01*
X161199214Y-23011765D01*
X159337011Y-23074791D01*
X157469141Y-23297833D01*
X155581293Y-23681443D01*
X153659156Y-24226171D01*
X153445920Y-24295652D01*
X152400574Y-24640542D01*
X148707958Y-24640542D01*
X147662612Y-24295652D01*
X145732687Y-23733903D01*
X143835207Y-23334009D01*
X141959279Y-23094131D01*
X140094007Y-23012433D01*
X140055599Y-23012399D01*
X138144190Y-23095278D01*
X136234964Y-23339652D01*
X134341481Y-23739131D01*
X132477304Y-24287324D01*
X130655995Y-24977840D01*
X128891114Y-25804287D01*
X127196223Y-26760276D01*
X125584883Y-27839413D01*
X124070657Y-29035310D01*
X122667105Y-30341574D01*
X121387789Y-31751814D01*
X121309311Y-31846861D01*
X120121913Y-33420019D01*
X119051993Y-35097545D01*
X118110841Y-36857133D01*
X117309752Y-38676478D01*
X116660019Y-40533272D01*
X116351800Y-41639066D01*
X115947906Y-43500278D01*
X115692448Y-45307389D01*
X115585424Y-47085328D01*
X114236348Y-47085328D01*
X114243671Y-46375550D01*
X114280073Y-45397829D01*
X114344749Y-44507762D01*
X114440978Y-43665210D01*
X114572040Y-42830032D01*
X114643741Y-42443400D01*
X114710408Y-42088467D01*
X114760272Y-41802631D01*
X114787299Y-41621801D01*
X114789392Y-41576920D01*
X114751809Y-41643258D01*
X114660353Y-41839189D01*
X114526921Y-42138270D01*
X114363411Y-42514054D01*
X114275171Y-42719920D01*
X113445813Y-44808415D01*
X112743921Y-46895122D01*
X112160529Y-49013801D01*
X111686673Y-51198207D01*
X111313386Y-53482097D01*
X111211856Y-54254400D01*
X111153125Y-54859238D01*
X111107488Y-55599040D01*
X111074943Y-56439945D01*
X111055491Y-57348090D01*
X111049132Y-58289612D01*
X110125933Y-58289612D01*
X110125933Y-51333400D01*
X110363273Y-50190400D01*
X110821918Y-48179423D01*
X111341940Y-46287247D01*
X111938342Y-44469815D01*
X112626126Y-42683067D01*
X113420297Y-40882945D01*
X113808560Y-40072733D01*
X115031204Y-37768914D01*
X116392592Y-35558108D01*
X117886578Y-33445688D01*
X119507018Y-31437026D01*
X121247766Y-29537495D01*
X123102677Y-27752468D01*
X125065605Y-26087318D01*
X127130405Y-24547416D01*
X129290931Y-23138136D01*
X131079642Y-22125945D01*
X134570242Y-22125945D01*
X134658767Y-22122203D01*
X134871049Y-22091418D01*
X135164827Y-22039890D01*
X135229600Y-22027657D01*
X136087951Y-21884635D01*
X136985005Y-21778713D01*
X137954077Y-21707339D01*
X139028481Y-21667959D01*
X140055600Y-21657733D01*
X141227466Y-21670833D01*
X142274408Y-21713420D01*
X143239045Y-21790421D01*
X144163996Y-21906764D01*
X145091880Y-22067378D01*
X146065316Y-22277191D01*
X146659600Y-22421365D01*
X147172333Y-22559295D01*
X147737344Y-22726995D01*
X148324083Y-22913821D01*
X148901998Y-23109126D01*
X149440539Y-23302265D01*
X149909155Y-23482591D01*
X150277296Y-23639460D01*
X150514411Y-23762224D01*
X150522564Y-23767463D01*
X150598797Y-23739788D01*
X150787022Y-23660753D01*
X151017143Y-23560375D01*
X151514445Y-23357136D01*
X152126819Y-23132713D01*
X152804270Y-22903697D01*
X153496805Y-22686684D01*
X154154428Y-22498265D01*
X154448933Y-22421365D01*
X154994470Y-22292733D01*
X167148933Y-22292733D01*
X167191266Y-22335066D01*
X167233600Y-22292733D01*
X167191266Y-22250400D01*
X167148933Y-22292733D01*
X154994470Y-22292733D01*
X155467635Y-22181166D01*
X156416384Y-21992988D01*
X157337799Y-21851901D01*
X158274499Y-21752978D01*
X159269103Y-21691291D01*
X160364231Y-21661912D01*
X161052933Y-21657733D01*
X162158449Y-21669138D01*
X163136170Y-21705539D01*
X164026237Y-21770215D01*
X164868789Y-21866445D01*
X165703967Y-21997506D01*
X166090600Y-22069208D01*
X166446235Y-22135392D01*
X166733550Y-22183875D01*
X166916343Y-22208844D01*
X166962703Y-22209235D01*
X166899127Y-22169595D01*
X166707144Y-22077864D01*
X166414753Y-21946837D01*
X166049955Y-21789310D01*
X165965454Y-21753505D01*
X163688440Y-20872098D01*
X161362627Y-20132485D01*
X158970002Y-19529935D01*
X156492552Y-19059718D01*
X154787600Y-18817756D01*
X154204324Y-18759687D01*
X153489533Y-18711030D01*
X152680824Y-18672512D01*
X151815792Y-18644861D01*
X150932032Y-18628805D01*
X150067140Y-18625073D01*
X149258713Y-18634392D01*
X148544346Y-18657491D01*
X148053736Y-18687336D01*
X145424381Y-18979054D01*
X142841879Y-19433029D01*
X140301603Y-20050203D01*
X138235266Y-20682600D01*
X137813479Y-20828264D01*
X137339842Y-20999025D01*
X136838487Y-21185379D01*
X136333546Y-21377822D01*
X135849153Y-21566850D01*
X135409440Y-21742960D01*
X135038539Y-21896647D01*
X134760583Y-22018409D01*
X134599705Y-22098740D01*
X134570242Y-22125945D01*
X131079642Y-22125945D01*
X131541039Y-21864851D01*
X133874582Y-20732933D01*
X136285416Y-19747755D01*
X137578318Y-19291641D01*
X138735623Y-18928719D01*
X140000724Y-18574152D01*
X141312269Y-18244247D01*
X142595600Y-17958073D01*
X143738600Y-17720733D01*
X157623933Y-17720733D01*
X158766933Y-17958073D01*
G37*
X158766933Y-17958073D02*
X160776271Y-18416308D01*
X162667088Y-18935862D01*
X164483766Y-19531846D01*
X166270690Y-20219370D01*
X168072244Y-21013543D01*
X168884600Y-21402421D01*
X171171666Y-22615005D01*
X173366815Y-23965353D01*
X175464750Y-25446751D01*
X177460172Y-27052484D01*
X179347785Y-28775840D01*
X181122292Y-30610104D01*
X182778395Y-32548563D01*
X184310797Y-34584502D01*
X185714202Y-36711208D01*
X186983312Y-38921966D01*
X188112829Y-41210064D01*
X189097458Y-43568787D01*
X189931900Y-45991421D01*
X190610858Y-48471252D01*
X190762928Y-49132066D01*
X190874120Y-49634853D01*
X190970675Y-50078530D01*
X191053626Y-50478813D01*
X191124004Y-50851416D01*
X191182842Y-51212055D01*
X191231172Y-51576445D01*
X191270026Y-51960302D01*
X191300438Y-52379339D01*
X191323439Y-52849272D01*
X191340061Y-53385817D01*
X191351337Y-54004688D01*
X191358299Y-54721600D01*
X191361980Y-55552268D01*
X191363411Y-56512409D01*
X191363626Y-57617736D01*
X191363600Y-58276066D01*
X191363612Y-59465764D01*
X191362962Y-60501843D01*
X191360616Y-61400020D01*
X191355543Y-62176009D01*
X191346709Y-62845526D01*
X191333084Y-63424285D01*
X191313634Y-63928001D01*
X191287326Y-64372391D01*
X191253130Y-64773167D01*
X191210012Y-65146047D01*
X191156940Y-65506745D01*
X191092881Y-65870976D01*
X191016804Y-66254455D01*
X190927677Y-66672896D01*
X190824466Y-67142017D01*
X190762928Y-67420066D01*
X190125814Y-69912819D01*
X189330776Y-72352542D01*
X188382831Y-74732294D01*
X187286995Y-77045134D01*
X186048286Y-79284121D01*
X184671720Y-81442315D01*
X183162313Y-83512775D01*
X181525083Y-85488560D01*
X179765045Y-87362730D01*
X177887217Y-89128343D01*
X175896614Y-90778459D01*
X173798255Y-92306138D01*
X171892616Y-93527998D01*
X171167903Y-93947711D01*
X170332166Y-94402959D01*
X169428910Y-94872028D01*
X168501639Y-95333202D01*
X167593858Y-95764767D01*
X166749071Y-96145008D01*
X166125021Y-96406831D01*
X163733044Y-97278232D01*
X161268048Y-98003669D01*
X158750616Y-98578288D01*
X156201333Y-98997235D01*
X154237266Y-99210047D01*
X153841422Y-99234124D01*
X153305970Y-99253310D01*
X152660562Y-99267642D01*
X151934852Y-99277155D01*
X151158492Y-99281884D01*
X150361136Y-99281867D01*
X149572437Y-99277138D01*
X148822048Y-99267734D01*
X148139621Y-99253691D01*
X147554811Y-99235044D01*
X147097270Y-99211830D01*
X146955933Y-99201222D01*
X144813611Y-98954392D01*
X142626580Y-98581725D01*
X140449450Y-98094532D01*
X138336831Y-97504126D01*
X137565844Y-97256242D01*
X135549972Y-96518288D01*
X133529027Y-95653222D01*
X131693566Y-94754771D01*
X135341006Y-94754771D01*
X135399753Y-94797968D01*
X135594049Y-94886973D01*
X135899292Y-95012592D01*
X136290878Y-95165630D01*
X136744207Y-95336893D01*
X137234674Y-95517185D01*
X137737678Y-95697313D01*
X138228616Y-95868081D01*
X138682885Y-96020296D01*
X138988250Y-96117845D01*
X141244475Y-96749236D01*
X143541929Y-97258565D01*
X145836362Y-97637069D01*
X147717933Y-97846556D01*
X148210818Y-97878286D01*
X148832913Y-97902221D01*
X149545725Y-97918302D01*
X150310760Y-97926470D01*
X151089525Y-97926667D01*
X151843527Y-97918832D01*
X152534271Y-97902908D01*
X153123264Y-97878834D01*
X153475266Y-97855380D01*
X155998224Y-97565274D01*
X158498723Y-97122491D01*
X160954762Y-96532093D01*
X163344341Y-95799147D01*
X164928144Y-95218738D01*
X165358486Y-95047261D01*
X165724573Y-94896134D01*
X166001236Y-94776180D01*
X166163308Y-94698220D01*
X166194824Y-94674069D01*
X166099659Y-94669655D01*
X165890825Y-94694671D01*
X165702137Y-94727208D01*
X164713272Y-94879777D01*
X163598718Y-94988250D01*
X162396226Y-95052814D01*
X161143549Y-95073658D01*
X159878438Y-95050967D01*
X158638643Y-94984930D01*
X157461918Y-94875734D01*
X156386013Y-94723565D01*
X156142266Y-94679783D01*
X155753891Y-94598066D01*
X166386933Y-94598066D01*
X166429266Y-94640400D01*
X166471600Y-94598066D01*
X166429266Y-94555733D01*
X166386933Y-94598066D01*
X155753891Y-94598066D01*
X155256298Y-94493369D01*
X154321452Y-94261634D01*
X153381888Y-93997650D01*
X152481770Y-93714489D01*
X151665257Y-93425225D01*
X151027678Y-93165750D01*
X150554266Y-92956384D01*
X150080854Y-93165750D01*
X149066230Y-93569866D01*
X147923746Y-93946521D01*
X146693992Y-94285553D01*
X145417557Y-94576799D01*
X144135029Y-94810097D01*
X142886997Y-94975285D01*
X142829999Y-94981189D01*
X142359327Y-95015911D01*
X141764270Y-95039099D01*
X141076410Y-95051321D01*
X140327325Y-95053147D01*
X139548597Y-95045146D01*
X138771805Y-95027886D01*
X138028531Y-95001936D01*
X137350355Y-94967866D01*
X136768856Y-94926243D01*
X136315616Y-94877638D01*
X136210364Y-94861941D01*
X135854871Y-94807175D01*
X135567687Y-94769023D01*
X135385712Y-94752034D01*
X135341006Y-94754771D01*
X131693566Y-94754771D01*
X131541662Y-94680415D01*
X129626530Y-93619238D01*
X127822281Y-92489062D01*
X127186266Y-92054286D01*
X126525538Y-91578018D01*
X125806971Y-91036725D01*
X125058744Y-90453386D01*
X124309037Y-89850981D01*
X123586028Y-89252491D01*
X122917899Y-88680895D01*
X122332828Y-88159173D01*
X121858994Y-87710305D01*
X121857247Y-87708574D01*
X120697853Y-86499829D01*
X119527640Y-85165623D01*
X118376919Y-83744759D01*
X117276001Y-82276039D01*
X116255198Y-80798265D01*
X115400068Y-79442733D01*
X114147338Y-77189088D01*
X113036469Y-74844203D01*
X112068589Y-72411008D01*
X111244827Y-69892433D01*
X110566310Y-67291409D01*
X110363273Y-66361733D01*
X110125933Y-65218733D01*
X110125933Y-58289612D01*
X111049132Y-58289612D01*
X111055865Y-59230650D01*
X111075692Y-60137341D01*
X111108611Y-60975824D01*
X111154624Y-61712236D01*
X111211856Y-62297733D01*
X111567172Y-64692195D01*
X112028045Y-66977458D01*
X112602132Y-69182485D01*
X113297086Y-71336239D01*
X114120562Y-73467684D01*
X114236967Y-73743503D01*
X114403916Y-74130400D01*
X114546792Y-74452193D01*
X114653105Y-74681458D01*
X114710365Y-74790768D01*
X114716282Y-74795939D01*
X114711554Y-74708861D01*
X114679851Y-74496531D01*
X114627478Y-74199728D01*
X114609162Y-74102835D01*
X114430649Y-72956989D01*
X114306537Y-71691978D01*
X114236798Y-70348985D01*
X114221400Y-68969192D01*
X114224128Y-68872743D01*
X115597122Y-68872743D01*
X115651678Y-70788331D01*
X115863731Y-72704562D01*
X116230688Y-74609378D01*
X116749954Y-76490719D01*
X117418934Y-78336527D01*
X118235033Y-80134741D01*
X119195658Y-81873304D01*
X119779009Y-82791235D01*
X120282508Y-83527963D01*
X120748351Y-84163667D01*
X121214702Y-84744909D01*
X121719725Y-85318247D01*
X122301586Y-85930243D01*
X122596296Y-86228289D01*
X123478696Y-87087903D01*
X124299480Y-87833268D01*
X125090577Y-88491282D01*
X125883919Y-89088842D01*
X126483500Y-89502794D01*
X128236788Y-90570150D01*
X130069762Y-91489583D01*
X131974956Y-92258353D01*
X133944906Y-92873720D01*
X135972144Y-93332944D01*
X137600266Y-93582435D01*
X138264775Y-93642843D01*
X139044380Y-93680493D01*
X139886377Y-93695357D01*
X140738062Y-93687411D01*
X141546730Y-93656627D01*
X142259677Y-93602979D01*
X142426785Y-93584823D01*
X143996517Y-93357823D01*
X145489130Y-93049166D01*
X146983382Y-92641419D01*
X147662612Y-92425813D01*
X148707958Y-92080923D01*
X152400574Y-92080923D01*
X153445920Y-92425813D01*
X155288998Y-92961405D01*
X157135182Y-93355555D01*
X158966782Y-93606209D01*
X160766109Y-93711313D01*
X162515475Y-93668811D01*
X163424118Y-93584823D01*
X165435939Y-93268669D01*
X167402808Y-92800912D01*
X169314470Y-92187005D01*
X171160670Y-91432403D01*
X172931156Y-90542559D01*
X174615672Y-89522930D01*
X176203965Y-88378968D01*
X177685780Y-87116128D01*
X179050862Y-85739865D01*
X179799222Y-84874604D01*
X181003507Y-83282520D01*
X182072506Y-81610507D01*
X183003114Y-79870069D01*
X183792228Y-78072709D01*
X184436742Y-76229930D01*
X184933554Y-74353236D01*
X185279558Y-72454130D01*
X185471651Y-70544114D01*
X185506728Y-68634693D01*
X185381686Y-66737370D01*
X185137649Y-65091733D01*
X185026617Y-64554128D01*
X184885225Y-63949470D01*
X184721852Y-63306799D01*
X184544876Y-62655154D01*
X184362674Y-62023574D01*
X184183625Y-61441100D01*
X184016107Y-60936769D01*
X183868497Y-60539622D01*
X183749172Y-60278698D01*
X183748993Y-60278378D01*
X183681123Y-60267117D01*
X183564366Y-60400549D01*
X183407199Y-60659253D01*
X182874336Y-61535199D01*
X182228218Y-62472299D01*
X181495521Y-63436353D01*
X180702923Y-64393160D01*
X179877100Y-65308522D01*
X179386123Y-65814256D01*
X177837911Y-67245579D01*
X176200695Y-68533182D01*
X174477885Y-69675240D01*
X172672891Y-70669926D01*
X170789123Y-71515412D01*
X168829992Y-72209872D01*
X166798907Y-72751480D01*
X166196545Y-72879769D01*
X165907119Y-72950527D01*
X165746960Y-73029172D01*
X165676531Y-73136918D01*
X165670076Y-73162212D01*
X165637808Y-73326420D01*
X165585535Y-73607571D01*
X165522469Y-73955814D01*
X165495218Y-74108733D01*
X165065357Y-76053113D01*
X164475905Y-77957598D01*
X163733962Y-79812090D01*
X162846629Y-81606489D01*
X161821006Y-83330697D01*
X160664193Y-84974614D01*
X159383291Y-86528142D01*
X157985400Y-87981182D01*
X156477620Y-89323635D01*
X154867051Y-90545401D01*
X153179718Y-91625329D01*
X152400574Y-92080923D01*
X148707958Y-92080923D01*
X147928815Y-91625329D01*
X146223554Y-90532880D01*
X144614058Y-89309756D01*
X143107427Y-87966054D01*
X141710762Y-86511874D01*
X140431163Y-84957315D01*
X139275730Y-83312477D01*
X138251563Y-81587456D01*
X137365763Y-79792354D01*
X136625430Y-77937268D01*
X136037665Y-76032298D01*
X135613314Y-74108733D01*
X135548469Y-73747256D01*
X135490584Y-73432117D01*
X135478663Y-73369545D01*
X136959679Y-73369545D01*
X136962911Y-73416587D01*
X136965417Y-73428792D01*
X137424788Y-75337436D01*
X137970815Y-77118245D01*
X138612781Y-78794011D01*
X139359967Y-80387519D01*
X140221654Y-81921560D01*
X140782375Y-82800271D01*
X141885451Y-84338962D01*
X143054071Y-85736065D01*
X144310289Y-87013643D01*
X145676157Y-88193762D01*
X147173730Y-89298487D01*
X147491245Y-89512495D01*
X147824103Y-89726613D01*
X148220639Y-89970730D01*
X148654348Y-90229753D01*
X149098721Y-90488586D01*
X149527253Y-90732137D01*
X149913437Y-90945311D01*
X150230765Y-91113014D01*
X150452730Y-91220152D01*
X150546583Y-91252325D01*
X150630261Y-91215778D01*
X150834671Y-91114784D01*
X151130808Y-90963970D01*
X151489671Y-90777967D01*
X151562583Y-90739839D01*
X152696154Y-90096441D01*
X153858462Y-89344727D01*
X155004229Y-88517884D01*
X156088181Y-87649096D01*
X157065043Y-86771550D01*
X157328093Y-86513901D01*
X158555428Y-85175271D01*
X159702606Y-83703686D01*
X160755621Y-82122068D01*
X161700465Y-80453341D01*
X162523128Y-78720428D01*
X163209604Y-76946252D01*
X163253502Y-76817233D01*
X163409924Y-76319008D01*
X163585408Y-75703055D01*
X163767198Y-75017964D01*
X163942537Y-74312322D01*
X164098668Y-73634719D01*
X164143115Y-73428792D01*
X164149767Y-73379203D01*
X164134348Y-73340499D01*
X164078957Y-73311656D01*
X163965695Y-73291648D01*
X163776662Y-73279452D01*
X163493956Y-73274041D01*
X163099679Y-73274391D01*
X162575929Y-73279477D01*
X161904807Y-73288273D01*
X161730977Y-73290668D01*
X160736917Y-73299012D01*
X159878918Y-73293031D01*
X159124151Y-73270672D01*
X158439788Y-73229877D01*
X157793002Y-73168590D01*
X157150964Y-73084755D01*
X156480846Y-72976316D01*
X156353933Y-72953887D01*
X155375692Y-72756712D01*
X154360240Y-72511467D01*
X153351695Y-72230971D01*
X152394176Y-71928041D01*
X151531802Y-71615495D01*
X151027678Y-71406416D01*
X150554266Y-71197051D01*
X150080854Y-71406416D01*
X149307232Y-71718221D01*
X148408809Y-72029027D01*
X147429703Y-72326016D01*
X146414033Y-72596368D01*
X145405918Y-72827268D01*
X144754600Y-72953887D01*
X144075886Y-73067001D01*
X143431196Y-73155139D01*
X142787704Y-73220357D01*
X142112581Y-73264711D01*
X141372998Y-73290257D01*
X140536129Y-73299051D01*
X139569144Y-73293149D01*
X139377556Y-73290668D01*
X138670668Y-73281176D01*
X138115196Y-73275162D01*
X137693239Y-73273653D01*
X137386897Y-73277673D01*
X137178271Y-73288247D01*
X137049459Y-73306401D01*
X136982562Y-73333158D01*
X136959679Y-73369545D01*
X135478663Y-73369545D01*
X135448869Y-73213168D01*
X135438456Y-73162212D01*
X135380507Y-73046607D01*
X135240280Y-72964101D01*
X134978235Y-72893479D01*
X134911987Y-72879769D01*
X132860661Y-72382859D01*
X130880299Y-71732565D01*
X128974311Y-70930715D01*
X127146108Y-69979136D01*
X125399099Y-68879655D01*
X123736694Y-67634098D01*
X122162303Y-66244291D01*
X121722410Y-65814256D01*
X120889503Y-64939291D01*
X120074114Y-64002745D01*
X119302920Y-63038817D01*
X118602599Y-62081707D01*
X117999827Y-61165616D01*
X117701334Y-60659253D01*
X117533754Y-60385621D01*
X117420814Y-60263092D01*
X117359539Y-60278378D01*
X117240272Y-60539037D01*
X117092704Y-60935971D01*
X116925213Y-61440138D01*
X116746177Y-62022501D01*
X116563974Y-62654020D01*
X116386981Y-63305655D01*
X116223577Y-63948368D01*
X116082140Y-64553117D01*
X115971046Y-65090866D01*
X115970883Y-65091733D01*
X115702659Y-66969857D01*
X115597122Y-68872743D01*
X114224128Y-68872743D01*
X114260315Y-67593781D01*
X114353512Y-66263934D01*
X114500963Y-65020834D01*
X114616216Y-64329733D01*
X114890511Y-63065105D01*
X115238786Y-61768287D01*
X115642571Y-60500872D01*
X116083397Y-59324453D01*
X116203094Y-59038066D01*
X116493157Y-58360733D01*
X116492299Y-58358729D01*
X118218055Y-58358729D01*
X118645507Y-59164064D01*
X119222879Y-60168927D01*
X119907725Y-61222317D01*
X120666537Y-62278959D01*
X121465809Y-63293578D01*
X122272036Y-64220900D01*
X122782098Y-64753559D01*
X124072068Y-65937339D01*
X125496644Y-67053755D01*
X127028971Y-68086477D01*
X128642197Y-69019178D01*
X130309468Y-69835529D01*
X132003931Y-70519204D01*
X132604933Y-70726257D01*
X132900379Y-70818903D01*
X133278348Y-70930996D01*
X133701460Y-71052207D01*
X134132333Y-71172205D01*
X134533585Y-71280659D01*
X134867837Y-71367238D01*
X135097706Y-71421614D01*
X135166100Y-71434050D01*
X135183366Y-71355296D01*
X135198847Y-71129660D01*
X135211873Y-70779587D01*
X135221776Y-70327523D01*
X135227887Y-69795917D01*
X135229600Y-69303381D01*
X135234885Y-68791500D01*
X136597104Y-68791500D01*
X136604466Y-69941500D01*
X136620354Y-70457698D01*
X136639088Y-70914784D01*
X136659198Y-71286229D01*
X136679215Y-71545504D01*
X136697668Y-71666081D01*
X136700269Y-71670625D01*
X136825264Y-71716842D01*
X137092026Y-71764091D01*
X137473020Y-71810075D01*
X137940712Y-71852494D01*
X138467568Y-71889049D01*
X139026055Y-71917440D01*
X139588638Y-71935369D01*
X139929118Y-71940234D01*
X140519721Y-71935343D01*
X141149880Y-71915325D01*
X141757124Y-71883051D01*
X142278980Y-71841391D01*
X142426785Y-71825489D01*
X143996517Y-71598490D01*
X145489130Y-71289833D01*
X146983382Y-70882086D01*
X147662612Y-70666480D01*
X148707958Y-70321590D01*
X152400574Y-70321590D01*
X153445920Y-70666480D01*
X155271155Y-71201870D01*
X157088596Y-71596733D01*
X158597600Y-71823101D01*
X159202656Y-71878202D01*
X159925844Y-71914531D01*
X160717000Y-71932002D01*
X161525954Y-71930529D01*
X162302542Y-71910024D01*
X162996597Y-71870401D01*
X163404979Y-71831418D01*
X163789587Y-71782404D01*
X164109446Y-71734702D01*
X164328711Y-71694115D01*
X164410222Y-71668666D01*
X164427702Y-71572361D01*
X164447045Y-71333244D01*
X164466813Y-70977803D01*
X164485565Y-70532525D01*
X164501863Y-70023901D01*
X164504066Y-69941500D01*
X164506227Y-68535217D01*
X164432297Y-67205873D01*
X164275929Y-65897501D01*
X164030773Y-64554130D01*
X163761865Y-63398400D01*
X163658127Y-63012178D01*
X163525875Y-62557043D01*
X163376024Y-62066702D01*
X163219487Y-61574864D01*
X163067179Y-61115236D01*
X162930014Y-60721526D01*
X162818906Y-60427443D01*
X162751660Y-60278378D01*
X162683789Y-60267117D01*
X162567033Y-60400549D01*
X162409865Y-60659253D01*
X162251734Y-60925318D01*
X162026574Y-61283231D01*
X161764427Y-61686088D01*
X161495964Y-62086066D01*
X160316693Y-63672350D01*
X159003656Y-65181453D01*
X157576379Y-66595109D01*
X156054388Y-67895048D01*
X154457212Y-69063003D01*
X153179718Y-69865996D01*
X152400574Y-70321590D01*
X148707958Y-70321590D01*
X147928815Y-69865996D01*
X146286789Y-68812930D01*
X144704811Y-67613718D01*
X143202407Y-66286628D01*
X141799106Y-64849928D01*
X140514433Y-63321885D01*
X139612569Y-62086066D01*
X139343456Y-61685105D01*
X139081361Y-61282299D01*
X138856326Y-60924551D01*
X138698667Y-60659253D01*
X138531088Y-60385621D01*
X138418147Y-60263092D01*
X138356873Y-60278378D01*
X138277504Y-60457682D01*
X138162533Y-60766097D01*
X138022872Y-61169915D01*
X137869436Y-61635426D01*
X137713139Y-62128925D01*
X137564895Y-62616701D01*
X137435618Y-63065048D01*
X137346667Y-63398400D01*
X137024707Y-64811406D01*
X136796692Y-66143945D01*
X136656274Y-67451987D01*
X136597104Y-68791500D01*
X135234885Y-68791500D01*
X135241563Y-68144774D01*
X135280570Y-67113205D01*
X135351296Y-66167861D01*
X135458414Y-65267930D01*
X135606600Y-64372600D01*
X135800528Y-63441059D01*
X135993232Y-62636400D01*
X136225801Y-61791566D01*
X136511264Y-60884360D01*
X136825375Y-59987052D01*
X137143889Y-59171910D01*
X137200427Y-59038066D01*
X137489631Y-58362737D01*
X139215388Y-58362737D01*
X139643139Y-59166068D01*
X140228912Y-60182939D01*
X140921900Y-61246539D01*
X141688400Y-62311333D01*
X142494712Y-63331787D01*
X143307132Y-64262365D01*
X143779432Y-64754567D01*
X144720772Y-65631959D01*
X145782935Y-66510282D01*
X146920858Y-67356480D01*
X148089474Y-68137496D01*
X149243721Y-68820276D01*
X149538266Y-68978869D01*
X149904102Y-69170288D01*
X150212710Y-69329451D01*
X150435005Y-69441526D01*
X150541902Y-69491685D01*
X150546583Y-69492991D01*
X150630261Y-69456445D01*
X150834671Y-69355450D01*
X151130808Y-69204637D01*
X151489671Y-69018634D01*
X151562583Y-68980506D01*
X152701758Y-68333700D01*
X153869832Y-67577598D01*
X155021139Y-66745666D01*
X156110015Y-65871367D01*
X157090795Y-64988168D01*
X157329101Y-64754567D01*
X158129169Y-63899044D01*
X158943175Y-62926561D01*
X159737417Y-61882654D01*
X160478191Y-60812856D01*
X161131797Y-59762703D01*
X161465394Y-59166068D01*
X161893144Y-58362737D01*
X161892081Y-58360733D01*
X163618042Y-58360733D01*
X163908105Y-59038066D01*
X164224813Y-59830483D01*
X164541530Y-60718218D01*
X164834010Y-61629002D01*
X165078009Y-62490565D01*
X165115300Y-62636400D01*
X165348968Y-63624387D01*
X165533339Y-64543356D01*
X165673067Y-65433966D01*
X165772804Y-66336873D01*
X165837204Y-67292737D01*
X165870919Y-68342215D01*
X165878933Y-69309086D01*
X165879599Y-69966795D01*
X165882484Y-70473998D01*
X165888916Y-70849523D01*
X165900222Y-71112193D01*
X165917732Y-71280836D01*
X165942774Y-71374277D01*
X165976675Y-71411342D01*
X166020764Y-71410857D01*
X166027100Y-71409081D01*
X166168979Y-71370535D01*
X166432431Y-71302014D01*
X166774738Y-71214554D01*
X167021933Y-71152110D01*
X168755949Y-70637006D01*
X170487858Y-69969640D01*
X172192280Y-69164380D01*
X173843832Y-68235592D01*
X175417133Y-67197642D01*
X176886800Y-66064897D01*
X178227452Y-64851723D01*
X178326434Y-64753559D01*
X179121498Y-63904433D01*
X179931268Y-62938126D01*
X180722308Y-61899804D01*
X181461183Y-60834634D01*
X182114458Y-59787782D01*
X182462727Y-59166068D01*
X182890477Y-58362737D01*
X182889414Y-58360733D01*
X184615376Y-58360733D01*
X184905587Y-59038066D01*
X185544995Y-60714300D01*
X186073880Y-62491331D01*
X186483155Y-64334365D01*
X186752023Y-66107214D01*
X186804285Y-66690434D01*
X186842352Y-67402673D01*
X186866245Y-68204215D01*
X186875991Y-69055345D01*
X186871611Y-69916346D01*
X186853132Y-70747503D01*
X186820576Y-71509100D01*
X186773967Y-72161421D01*
X186748208Y-72410507D01*
X186687245Y-72872908D01*
X186605344Y-73411444D01*
X186510003Y-73984016D01*
X186408719Y-74548521D01*
X186308990Y-75062860D01*
X186218312Y-75484931D01*
X186157679Y-75726608D01*
X186152225Y-75784498D01*
X186204046Y-75707479D01*
X186303636Y-75516251D01*
X186441487Y-75231513D01*
X186608092Y-74873963D01*
X186793944Y-74464302D01*
X186989536Y-74023229D01*
X187185361Y-73571442D01*
X187371913Y-73129642D01*
X187539683Y-72718528D01*
X187542393Y-72711733D01*
X188418846Y-70290932D01*
X189133490Y-67832733D01*
X189684759Y-65345190D01*
X190071090Y-62836357D01*
X190290919Y-60314290D01*
X190345852Y-58276066D01*
X190261432Y-55748411D01*
X190009155Y-53227757D01*
X189590496Y-50721702D01*
X189006930Y-48237846D01*
X188259933Y-45783784D01*
X187542990Y-43840400D01*
X187380971Y-43443574D01*
X187196187Y-43007153D01*
X186998301Y-42552091D01*
X186796976Y-42099342D01*
X186601875Y-41669863D01*
X186422662Y-41284607D01*
X186268999Y-40964530D01*
X186150549Y-40730587D01*
X186076974Y-40603733D01*
X186057939Y-40604923D01*
X186064541Y-40634256D01*
X186147793Y-40974146D01*
X186250160Y-41432223D01*
X186361673Y-41959860D01*
X186472360Y-42508426D01*
X186572253Y-43029294D01*
X186651380Y-43473834D01*
X186669794Y-43586400D01*
X186722218Y-44016722D01*
X186767486Y-44584039D01*
X186804999Y-45256138D01*
X186834158Y-46000807D01*
X186854365Y-46785834D01*
X186865021Y-47579006D01*
X186865528Y-48348112D01*
X186855287Y-49060940D01*
X186833700Y-49685276D01*
X186800167Y-50188910D01*
X186793722Y-50255465D01*
X186552325Y-52004762D01*
X186189962Y-53757161D01*
X185717974Y-55468053D01*
X185147700Y-57092830D01*
X184905439Y-57683400D01*
X184615376Y-58360733D01*
X182889414Y-58360733D01*
X182463026Y-57557401D01*
X181885653Y-56552538D01*
X181200808Y-55499149D01*
X180441996Y-54442507D01*
X179642723Y-53427888D01*
X178836496Y-52500566D01*
X178326434Y-51967906D01*
X176996978Y-50749030D01*
X175536515Y-49609455D01*
X173970428Y-48563549D01*
X172324097Y-47625677D01*
X170622906Y-46810205D01*
X168892236Y-46131502D01*
X167157467Y-45603932D01*
X167021933Y-45569356D01*
X166651074Y-45475459D01*
X166331006Y-45393253D01*
X166104448Y-45333772D01*
X166027100Y-45312384D01*
X165981634Y-45308508D01*
X165946524Y-45339813D01*
X165920441Y-45425126D01*
X165902057Y-45583271D01*
X165890043Y-45833076D01*
X165883071Y-46193366D01*
X165879813Y-46682966D01*
X165878940Y-47320703D01*
X165878933Y-47412379D01*
X165867064Y-48569908D01*
X165828357Y-49600220D01*
X165758157Y-50543976D01*
X165651812Y-51441832D01*
X165504669Y-52334448D01*
X165312074Y-53262481D01*
X165115300Y-54085066D01*
X164883200Y-54928464D01*
X164598543Y-55833649D01*
X164285426Y-56728787D01*
X163967947Y-57542042D01*
X163908254Y-57683400D01*
X163618042Y-58360733D01*
X161892081Y-58360733D01*
X161465692Y-57557401D01*
X160888240Y-56552413D01*
X160203186Y-55498753D01*
X159443917Y-54441544D01*
X158643817Y-53425903D01*
X157836273Y-52496952D01*
X157329101Y-51966898D01*
X156376966Y-51079806D01*
X155304016Y-50193871D01*
X154155694Y-49342376D01*
X152977441Y-48558601D01*
X151814702Y-47875825D01*
X151549100Y-47733878D01*
X150554266Y-47212902D01*
X149559433Y-47733878D01*
X148406913Y-48388142D01*
X147228219Y-49151213D01*
X146068796Y-49989811D01*
X144974086Y-50870654D01*
X143989532Y-51760463D01*
X143779432Y-51966898D01*
X142984717Y-52816360D01*
X142176000Y-53781495D01*
X141386667Y-54817184D01*
X140650104Y-55878306D01*
X139999695Y-56919743D01*
X139642840Y-57557401D01*
X139215388Y-58362737D01*
X137489631Y-58362737D01*
X137490490Y-58360733D01*
X137200279Y-57683400D01*
X136884729Y-56894194D01*
X136568896Y-56009255D01*
X136276876Y-55100417D01*
X136032766Y-54239515D01*
X135993232Y-54085066D01*
X135759564Y-53097079D01*
X135575193Y-52178109D01*
X135435466Y-51287500D01*
X135335729Y-50384593D01*
X135271329Y-49428729D01*
X135237613Y-48379251D01*
X135236014Y-48186249D01*
X136602305Y-48186249D01*
X136676235Y-49515592D01*
X136832603Y-50823965D01*
X137077760Y-52167336D01*
X137346667Y-53323066D01*
X137448393Y-53703177D01*
X137575360Y-54142222D01*
X137718459Y-54612519D01*
X137868579Y-55086386D01*
X138016608Y-55536141D01*
X138153436Y-55934102D01*
X138269951Y-56252587D01*
X138357043Y-56463913D01*
X138405576Y-56540400D01*
X138456322Y-56472643D01*
X138564789Y-56295240D01*
X138703547Y-56053566D01*
X138859569Y-55791206D01*
X139082849Y-55436542D01*
X139343604Y-55036038D01*
X139612050Y-54636159D01*
X139612569Y-54635400D01*
X140791839Y-53049116D01*
X142104876Y-51540012D01*
X143532154Y-50126357D01*
X145054144Y-48826418D01*
X146651320Y-47658463D01*
X147928815Y-46855470D01*
X148707958Y-46399876D01*
X152400574Y-46399876D01*
X153179718Y-46855470D01*
X154821743Y-47908536D01*
X156403721Y-49107748D01*
X157906125Y-50434838D01*
X159309427Y-51871538D01*
X160594099Y-53399580D01*
X161495964Y-54635400D01*
X161765076Y-55036361D01*
X162027171Y-55439167D01*
X162252206Y-55796915D01*
X162409865Y-56062213D01*
X162577445Y-56335845D01*
X162690385Y-56458374D01*
X162751660Y-56443088D01*
X162802649Y-56322415D01*
X162895267Y-56076249D01*
X163016736Y-55739451D01*
X163154273Y-55346880D01*
X163166105Y-55312608D01*
X163720035Y-53475514D01*
X164143842Y-51565746D01*
X164427256Y-49630251D01*
X164443953Y-49471834D01*
X164469103Y-49136677D01*
X164487793Y-48706030D01*
X164500230Y-48207280D01*
X164506624Y-47667815D01*
X164507184Y-47115023D01*
X164502118Y-46576291D01*
X164491637Y-46079005D01*
X164475948Y-45650554D01*
X164455261Y-45318325D01*
X164429786Y-45109706D01*
X164410222Y-45052800D01*
X164288174Y-45008701D01*
X164025643Y-44962438D01*
X163651418Y-44916425D01*
X163194289Y-44873078D01*
X162683043Y-44834812D01*
X162146470Y-44804044D01*
X161613358Y-44783188D01*
X161112496Y-44774660D01*
X161094747Y-44774612D01*
X159255532Y-44845963D01*
X157414299Y-45069673D01*
X155554709Y-45448477D01*
X153660421Y-45985111D01*
X153445920Y-46054986D01*
X152400574Y-46399876D01*
X148707958Y-46399876D01*
X147662612Y-46054986D01*
X145763434Y-45500549D01*
X143900778Y-45104247D01*
X142058305Y-44863346D01*
X140219675Y-44775109D01*
X140013785Y-44774612D01*
X139514690Y-44782631D01*
X138982267Y-44803069D01*
X138445304Y-44833510D01*
X137932591Y-44871538D01*
X137472917Y-44914738D01*
X137095069Y-44960695D01*
X136827837Y-45006993D01*
X136700010Y-45051216D01*
X136698311Y-45052800D01*
X136680830Y-45149104D01*
X136661487Y-45388222D01*
X136641720Y-45743663D01*
X136622967Y-46188940D01*
X136606670Y-46697565D01*
X136604466Y-46779965D01*
X136602305Y-48186249D01*
X135236014Y-48186249D01*
X135229600Y-47412379D01*
X135228933Y-46754671D01*
X135226048Y-46247467D01*
X135219617Y-45871943D01*
X135208310Y-45609272D01*
X135190800Y-45440629D01*
X135165759Y-45347188D01*
X135131858Y-45310123D01*
X135087768Y-45310609D01*
X135081433Y-45312384D01*
X134939554Y-45350931D01*
X134676101Y-45419451D01*
X134333794Y-45506912D01*
X134086600Y-45569356D01*
X132352584Y-46084460D01*
X130620674Y-46751825D01*
X128916252Y-47557085D01*
X127264700Y-48485874D01*
X125691400Y-49523824D01*
X124221733Y-50656569D01*
X122881080Y-51869742D01*
X122782098Y-51967906D01*
X121987034Y-52817033D01*
X121177264Y-53783340D01*
X120386224Y-54821661D01*
X119647349Y-55886831D01*
X118994074Y-56933684D01*
X118645805Y-57555398D01*
X118218055Y-58358729D01*
X116492299Y-58358729D01*
X116202945Y-57683400D01*
X115887396Y-56894194D01*
X115571563Y-56009255D01*
X115279543Y-55100417D01*
X115035433Y-54239515D01*
X114995899Y-54085066D01*
X114755700Y-53066364D01*
X114567521Y-52117615D01*
X114426434Y-51196200D01*
X114327511Y-50259500D01*
X114265825Y-49264896D01*
X114236445Y-48169768D01*
X114232266Y-47481066D01*
X114236348Y-47085328D01*
X115585424Y-47085328D01*
X115626831Y-48859029D01*
X115816666Y-50653423D01*
X116154926Y-52493441D01*
X116350565Y-53323066D01*
X116451545Y-53701849D01*
X116577912Y-54139964D01*
X116720554Y-54609702D01*
X116870364Y-55083351D01*
X117018232Y-55533201D01*
X117155047Y-55931541D01*
X117271699Y-56250661D01*
X117359081Y-56462849D01*
X117408080Y-56540396D01*
X117408242Y-56540400D01*
X117458988Y-56472643D01*
X117567455Y-56295240D01*
X117706214Y-56053566D01*
X118232151Y-55188897D01*
X118870848Y-54262030D01*
X119595739Y-53307008D01*
X120380259Y-52357872D01*
X121197840Y-51448664D01*
X121722410Y-50907210D01*
X123270622Y-49475887D01*
X124907838Y-48188283D01*
X126630648Y-47046225D01*
X128435642Y-46051540D01*
X130319409Y-45206054D01*
X132278540Y-44511593D01*
X134309625Y-43969986D01*
X134911987Y-43841696D01*
X135201414Y-43770939D01*
X135361572Y-43692294D01*
X135432002Y-43584548D01*
X135438456Y-43559253D01*
X135470725Y-43395046D01*
X135480538Y-43342263D01*
X136958765Y-43342263D01*
X136974184Y-43380967D01*
X137029575Y-43409810D01*
X137142837Y-43429817D01*
X137331871Y-43442014D01*
X137614576Y-43447425D01*
X138008854Y-43447075D01*
X138532603Y-43441989D01*
X139203725Y-43433193D01*
X139377556Y-43430797D01*
X140557740Y-43424571D01*
X141604449Y-43443019D01*
X142552216Y-43489693D01*
X143435577Y-43568142D01*
X144289064Y-43681917D01*
X145147214Y-43834569D01*
X146044559Y-44029648D01*
X146659600Y-44179467D01*
X147174072Y-44318386D01*
X147740171Y-44486807D01*
X148327430Y-44674105D01*
X148905386Y-44869653D01*
X149443572Y-45062827D01*
X149911522Y-45243000D01*
X150278772Y-45399546D01*
X150514856Y-45521840D01*
X150522564Y-45526796D01*
X150598797Y-45499121D01*
X150787022Y-45420086D01*
X151017143Y-45319708D01*
X151802834Y-45003002D01*
X152713089Y-44688250D01*
X153703493Y-44388372D01*
X154729631Y-44116283D01*
X155747089Y-43884902D01*
X156353933Y-43767579D01*
X157032647Y-43654465D01*
X157677336Y-43566326D01*
X158320828Y-43501109D01*
X158995951Y-43456755D01*
X159735534Y-43431209D01*
X160572404Y-43422415D01*
X161539389Y-43428317D01*
X161730977Y-43430797D01*
X162437864Y-43440290D01*
X162993336Y-43446304D01*
X163415293Y-43447813D01*
X163721635Y-43443793D01*
X163930262Y-43433219D01*
X164059073Y-43415065D01*
X164125971Y-43388307D01*
X164148853Y-43351920D01*
X164145622Y-43304879D01*
X164143115Y-43292673D01*
X163995966Y-42634628D01*
X163825466Y-41932765D01*
X163644372Y-41235672D01*
X163465441Y-40591938D01*
X163301430Y-40050152D01*
X163253502Y-39904233D01*
X162577396Y-38127966D01*
X161764091Y-36391308D01*
X160827596Y-34717182D01*
X159781919Y-33128510D01*
X158641066Y-31648217D01*
X157419047Y-30299225D01*
X157328093Y-30207565D01*
X156383893Y-29326731D01*
X155318648Y-28445979D01*
X154177414Y-27598313D01*
X153005250Y-26816735D01*
X151847210Y-26134250D01*
X151549100Y-25974544D01*
X150554266Y-25453569D01*
X149559433Y-25974544D01*
X148412658Y-26625316D01*
X147239847Y-27383905D01*
X146086054Y-28217308D01*
X144996339Y-29092523D01*
X144015756Y-29976544D01*
X143780440Y-30207565D01*
X142553105Y-31546195D01*
X141405926Y-33017780D01*
X140352911Y-34599398D01*
X139408068Y-36268125D01*
X138585404Y-38001038D01*
X137898928Y-39775214D01*
X137855031Y-39904233D01*
X137698609Y-40402458D01*
X137523124Y-41018410D01*
X137341334Y-41703502D01*
X137165995Y-42409144D01*
X137009864Y-43086747D01*
X136965417Y-43292673D01*
X136958765Y-43342263D01*
X135480538Y-43342263D01*
X135522997Y-43113895D01*
X135586063Y-42765652D01*
X135613314Y-42612733D01*
X136043175Y-40668353D01*
X136632627Y-38763868D01*
X137374570Y-36909376D01*
X138261903Y-35114977D01*
X139287526Y-33390769D01*
X140444339Y-31746852D01*
X141725241Y-30193324D01*
X143123133Y-28740284D01*
X144630913Y-27397831D01*
X146241481Y-26176064D01*
X147928815Y-25096137D01*
X148707958Y-24640542D01*
X152400574Y-24640542D01*
X153179718Y-25096137D01*
X154884978Y-26188585D01*
X156494474Y-27411710D01*
X158001105Y-28755412D01*
X159397770Y-30209591D01*
X160677369Y-31764150D01*
X161832803Y-33408989D01*
X162856969Y-35134009D01*
X163742769Y-36929112D01*
X164483102Y-38784198D01*
X165070868Y-40689168D01*
X165495218Y-42612733D01*
X165560063Y-42974210D01*
X165617948Y-43289348D01*
X165659664Y-43508298D01*
X165670076Y-43559253D01*
X165728026Y-43674858D01*
X165868253Y-43757365D01*
X166130297Y-43827987D01*
X166196545Y-43841696D01*
X168247871Y-44338607D01*
X170228233Y-44988901D01*
X172134221Y-45790750D01*
X173962424Y-46742329D01*
X175709434Y-47841811D01*
X177371839Y-49087368D01*
X178946229Y-50477175D01*
X179386123Y-50907210D01*
X180219030Y-51782174D01*
X181034419Y-52718721D01*
X181805613Y-53682649D01*
X182505934Y-54639758D01*
X183108705Y-55555849D01*
X183407199Y-56062213D01*
X183574778Y-56335845D01*
X183687719Y-56458374D01*
X183748993Y-56443088D01*
X183799982Y-56322415D01*
X183892601Y-56076249D01*
X184014069Y-55739451D01*
X184151606Y-55346880D01*
X184163438Y-55312608D01*
X184729311Y-53442583D01*
X185146476Y-51553200D01*
X185411031Y-49666961D01*
X185519074Y-47806371D01*
X185521600Y-47481066D01*
X185438721Y-45569657D01*
X185194347Y-43660430D01*
X184794868Y-41766948D01*
X184246675Y-39902771D01*
X183556159Y-38081461D01*
X182729712Y-36316580D01*
X181773723Y-34621689D01*
X180694586Y-33010350D01*
X179498689Y-31496124D01*
X178192425Y-30092572D01*
X176782185Y-28813256D01*
X176687138Y-28734777D01*
X175113980Y-27547380D01*
X173436454Y-26477459D01*
X171676866Y-25536308D01*
X169857521Y-24735219D01*
X168000727Y-24085485D01*
X166894933Y-23777267D01*
X164963864Y-23363555D01*
X163070061Y-23108204D01*
X161199214Y-23011765D01*
X159337011Y-23074791D01*
X157469141Y-23297833D01*
X155581293Y-23681443D01*
X153659156Y-24226171D01*
X153445920Y-24295652D01*
X152400574Y-24640542D01*
X148707958Y-24640542D01*
X147662612Y-24295652D01*
X145732687Y-23733903D01*
X143835207Y-23334009D01*
X141959279Y-23094131D01*
X140094007Y-23012433D01*
X140055599Y-23012399D01*
X138144190Y-23095278D01*
X136234964Y-23339652D01*
X134341481Y-23739131D01*
X132477304Y-24287324D01*
X130655995Y-24977840D01*
X128891114Y-25804287D01*
X127196223Y-26760276D01*
X125584883Y-27839413D01*
X124070657Y-29035310D01*
X122667105Y-30341574D01*
X121387789Y-31751814D01*
X121309311Y-31846861D01*
X120121913Y-33420019D01*
X119051993Y-35097545D01*
X118110841Y-36857133D01*
X117309752Y-38676478D01*
X116660019Y-40533272D01*
X116351800Y-41639066D01*
X115947906Y-43500278D01*
X115692448Y-45307389D01*
X115585424Y-47085328D01*
X114236348Y-47085328D01*
X114243671Y-46375550D01*
X114280073Y-45397829D01*
X114344749Y-44507762D01*
X114440978Y-43665210D01*
X114572040Y-42830032D01*
X114643741Y-42443400D01*
X114710408Y-42088467D01*
X114760272Y-41802631D01*
X114787299Y-41621801D01*
X114789392Y-41576920D01*
X114751809Y-41643258D01*
X114660353Y-41839189D01*
X114526921Y-42138270D01*
X114363411Y-42514054D01*
X114275171Y-42719920D01*
X113445813Y-44808415D01*
X112743921Y-46895122D01*
X112160529Y-49013801D01*
X111686673Y-51198207D01*
X111313386Y-53482097D01*
X111211856Y-54254400D01*
X111153125Y-54859238D01*
X111107488Y-55599040D01*
X111074943Y-56439945D01*
X111055491Y-57348090D01*
X111049132Y-58289612D01*
X110125933Y-58289612D01*
X110125933Y-51333400D01*
X110363273Y-50190400D01*
X110821918Y-48179423D01*
X111341940Y-46287247D01*
X111938342Y-44469815D01*
X112626126Y-42683067D01*
X113420297Y-40882945D01*
X113808560Y-40072733D01*
X115031204Y-37768914D01*
X116392592Y-35558108D01*
X117886578Y-33445688D01*
X119507018Y-31437026D01*
X121247766Y-29537495D01*
X123102677Y-27752468D01*
X125065605Y-26087318D01*
X127130405Y-24547416D01*
X129290931Y-23138136D01*
X131079642Y-22125945D01*
X134570242Y-22125945D01*
X134658767Y-22122203D01*
X134871049Y-22091418D01*
X135164827Y-22039890D01*
X135229600Y-22027657D01*
X136087951Y-21884635D01*
X136985005Y-21778713D01*
X137954077Y-21707339D01*
X139028481Y-21667959D01*
X140055600Y-21657733D01*
X141227466Y-21670833D01*
X142274408Y-21713420D01*
X143239045Y-21790421D01*
X144163996Y-21906764D01*
X145091880Y-22067378D01*
X146065316Y-22277191D01*
X146659600Y-22421365D01*
X147172333Y-22559295D01*
X147737344Y-22726995D01*
X148324083Y-22913821D01*
X148901998Y-23109126D01*
X149440539Y-23302265D01*
X149909155Y-23482591D01*
X150277296Y-23639460D01*
X150514411Y-23762224D01*
X150522564Y-23767463D01*
X150598797Y-23739788D01*
X150787022Y-23660753D01*
X151017143Y-23560375D01*
X151514445Y-23357136D01*
X152126819Y-23132713D01*
X152804270Y-22903697D01*
X153496805Y-22686684D01*
X154154428Y-22498265D01*
X154448933Y-22421365D01*
X154994470Y-22292733D01*
X167148933Y-22292733D01*
X167191266Y-22335066D01*
X167233600Y-22292733D01*
X167191266Y-22250400D01*
X167148933Y-22292733D01*
X154994470Y-22292733D01*
X155467635Y-22181166D01*
X156416384Y-21992988D01*
X157337799Y-21851901D01*
X158274499Y-21752978D01*
X159269103Y-21691291D01*
X160364231Y-21661912D01*
X161052933Y-21657733D01*
X162158449Y-21669138D01*
X163136170Y-21705539D01*
X164026237Y-21770215D01*
X164868789Y-21866445D01*
X165703967Y-21997506D01*
X166090600Y-22069208D01*
X166446235Y-22135392D01*
X166733550Y-22183875D01*
X166916343Y-22208844D01*
X166962703Y-22209235D01*
X166899127Y-22169595D01*
X166707144Y-22077864D01*
X166414753Y-21946837D01*
X166049955Y-21789310D01*
X165965454Y-21753505D01*
X163688440Y-20872098D01*
X161362627Y-20132485D01*
X158970002Y-19529935D01*
X156492552Y-19059718D01*
X154787600Y-18817756D01*
X154204324Y-18759687D01*
X153489533Y-18711030D01*
X152680824Y-18672512D01*
X151815792Y-18644861D01*
X150932032Y-18628805D01*
X150067140Y-18625073D01*
X149258713Y-18634392D01*
X148544346Y-18657491D01*
X148053736Y-18687336D01*
X145424381Y-18979054D01*
X142841879Y-19433029D01*
X140301603Y-20050203D01*
X138235266Y-20682600D01*
X137813479Y-20828264D01*
X137339842Y-20999025D01*
X136838487Y-21185379D01*
X136333546Y-21377822D01*
X135849153Y-21566850D01*
X135409440Y-21742960D01*
X135038539Y-21896647D01*
X134760583Y-22018409D01*
X134599705Y-22098740D01*
X134570242Y-22125945D01*
X131079642Y-22125945D01*
X131541039Y-21864851D01*
X133874582Y-20732933D01*
X136285416Y-19747755D01*
X137578318Y-19291641D01*
X138735623Y-18928719D01*
X140000724Y-18574152D01*
X141312269Y-18244247D01*
X142595600Y-17958073D01*
X143738600Y-17720733D01*
X157623933Y-17720733D01*
X158766933Y-17958073D01*
D12*
X148021360Y-56857220D02*
X148021360Y-59947220D01*
X153081360Y-58402220D02*
G75*
G03X153081360Y-58402220I-2500000J0D01*
G01*
X153571360Y-58402682D02*
G75*
G03X148021360Y-56857390I-2990000J462D01*
G01*
X153571360Y-58401758D02*
G75*
G02X148021360Y-59947050I-2990000J-462D01*
G01*
X150581822Y-39096100D02*
G75*
G02X149036530Y-33546100I-462J2990000D01*
G01*
X150580898Y-39096100D02*
G75*
G03X152126190Y-33546100I462J2990000D01*
G01*
X153081360Y-36106100D02*
G75*
G03X153081360Y-36106100I-2500000J0D01*
G01*
X152126360Y-33546100D02*
X149036360Y-33546100D01*
X158648720Y-46496560D02*
X158648720Y-49586560D01*
X163708720Y-48041560D02*
G75*
G03X163708720Y-48041560I-2500000J0D01*
G01*
X164198720Y-48042022D02*
G75*
G03X158648720Y-46496730I-2990000J462D01*
G01*
X164198720Y-48041098D02*
G75*
G02X158648720Y-49586390I-2990000J-462D01*
G01*
X176289120Y-58404298D02*
G75*
G02X170739120Y-59949590I-2990000J-462D01*
G01*
X176289120Y-58405222D02*
G75*
G03X170739120Y-56859930I-2990000J462D01*
G01*
X175799120Y-58404760D02*
G75*
G03X175799120Y-58404760I-2500000J0D01*
G01*
X170739120Y-56859760D02*
X170739120Y-59949760D01*
X158577600Y-67273760D02*
X158577600Y-70363760D01*
X163637600Y-68818760D02*
G75*
G03X163637600Y-68818760I-2500000J0D01*
G01*
X164127600Y-68819222D02*
G75*
G03X158577600Y-67273930I-2990000J462D01*
G01*
X164127600Y-68818298D02*
G75*
G02X158577600Y-70363590I-2990000J-462D01*
G01*
X148021360Y-79133020D02*
X148021360Y-82223020D01*
X153081360Y-80678020D02*
G75*
G03X153081360Y-80678020I-2500000J0D01*
G01*
X153571360Y-80678482D02*
G75*
G03X148021360Y-79133190I-2990000J462D01*
G01*
X153571360Y-80677558D02*
G75*
G02X148021360Y-82222850I-2990000J-462D01*
G01*
X142900820Y-68805598D02*
G75*
G02X137350820Y-70350890I-2990000J-462D01*
G01*
X142900820Y-68806522D02*
G75*
G03X137350820Y-67261230I-2990000J462D01*
G01*
X142410820Y-68806060D02*
G75*
G03X142410820Y-68806060I-2500000J0D01*
G01*
X137350820Y-67261060D02*
X137350820Y-70351060D01*
X130815500Y-58404298D02*
G75*
G02X125265500Y-59949590I-2990000J-462D01*
G01*
X130815500Y-58405222D02*
G75*
G03X125265500Y-56859930I-2990000J462D01*
G01*
X130325500Y-58404760D02*
G75*
G03X130325500Y-58404760I-2500000J0D01*
G01*
X125265500Y-56859760D02*
X125265500Y-59949760D01*
X136961460Y-48009002D02*
G75*
G02X142511460Y-46463710I2990000J462D01*
G01*
X136961460Y-48008078D02*
G75*
G03X142511460Y-49553370I2990000J-462D01*
G01*
X142451460Y-48008540D02*
G75*
G03X142451460Y-48008540I-2500000J0D01*
G01*
X142511460Y-49553540D02*
X142511460Y-46463540D01*
D10*
X121594000Y-134778000D02*
X121594000Y-124278000D01*
X112594000Y-134778000D02*
X121594000Y-134778000D01*
X112594000Y-124278000D02*
X112594000Y-134778000D01*
X121594000Y-124278000D02*
X112594000Y-124278000D01*
X135056000Y-124278000D02*
X126056000Y-124278000D01*
X126056000Y-124278000D02*
X126056000Y-134778000D01*
X126056000Y-134778000D02*
X135056000Y-134778000D01*
X135056000Y-134778000D02*
X135056000Y-124278000D01*
X148518000Y-134778000D02*
X148518000Y-124278000D01*
X139518000Y-134778000D02*
X148518000Y-134778000D01*
X139518000Y-124278000D02*
X139518000Y-134778000D01*
X148518000Y-124278000D02*
X139518000Y-124278000D01*
X161980000Y-124278000D02*
X152980000Y-124278000D01*
X152980000Y-124278000D02*
X152980000Y-134778000D01*
X152980000Y-134778000D02*
X161980000Y-134778000D01*
X161980000Y-134778000D02*
X161980000Y-124278000D01*
X175442000Y-134778000D02*
X175442000Y-124278000D01*
X166442000Y-134778000D02*
X175442000Y-134778000D01*
X166442000Y-124278000D02*
X166442000Y-134778000D01*
X175442000Y-124278000D02*
X166442000Y-124278000D01*
X188904000Y-124278000D02*
X179904000Y-124278000D01*
X179904000Y-124278000D02*
X179904000Y-134778000D01*
X179904000Y-134778000D02*
X188904000Y-134778000D01*
X188904000Y-134778000D02*
X188904000Y-124278000D01*
X121594000Y-119538000D02*
X121594000Y-109038000D01*
X112594000Y-119538000D02*
X121594000Y-119538000D01*
X112594000Y-109038000D02*
X112594000Y-119538000D01*
X121594000Y-109038000D02*
X112594000Y-109038000D01*
X135056000Y-109038000D02*
X126056000Y-109038000D01*
X126056000Y-109038000D02*
X126056000Y-119538000D01*
X126056000Y-119538000D02*
X135056000Y-119538000D01*
X135056000Y-119538000D02*
X135056000Y-109038000D01*
X148518000Y-119538000D02*
X148518000Y-109038000D01*
X139518000Y-119538000D02*
X148518000Y-119538000D01*
X139518000Y-109038000D02*
X139518000Y-119538000D01*
X148518000Y-109038000D02*
X139518000Y-109038000D01*
X161980000Y-109038000D02*
X152980000Y-109038000D01*
X152980000Y-109038000D02*
X152980000Y-119538000D01*
X152980000Y-119538000D02*
X161980000Y-119538000D01*
X161980000Y-119538000D02*
X161980000Y-109038000D01*
X175442000Y-119538000D02*
X175442000Y-109038000D01*
X166442000Y-119538000D02*
X175442000Y-119538000D01*
X166442000Y-109038000D02*
X166442000Y-119538000D01*
X175442000Y-109038000D02*
X166442000Y-109038000D01*
X188904000Y-109038000D02*
X179904000Y-109038000D01*
X179904000Y-109038000D02*
X179904000Y-119538000D01*
X179904000Y-119538000D02*
X188904000Y-119538000D01*
X188904000Y-119538000D02*
X188904000Y-109038000D01*
X121594000Y-104298000D02*
X121594000Y-93798000D01*
X112594000Y-104298000D02*
X121594000Y-104298000D01*
X112594000Y-93798000D02*
X112594000Y-104298000D01*
X121594000Y-93798000D02*
X112594000Y-93798000D01*
X135056000Y-93798000D02*
X126056000Y-93798000D01*
X126056000Y-93798000D02*
X126056000Y-104298000D01*
X126056000Y-104298000D02*
X135056000Y-104298000D01*
X135056000Y-104298000D02*
X135056000Y-93798000D01*
X148518000Y-104298000D02*
X148518000Y-93798000D01*
X139518000Y-104298000D02*
X148518000Y-104298000D01*
X139518000Y-93798000D02*
X139518000Y-104298000D01*
X148518000Y-93798000D02*
X139518000Y-93798000D01*
X161980000Y-93798000D02*
X152980000Y-93798000D01*
X152980000Y-93798000D02*
X152980000Y-104298000D01*
X152980000Y-104298000D02*
X161980000Y-104298000D01*
X161980000Y-104298000D02*
X161980000Y-93798000D01*
X175696000Y-104298000D02*
X175696000Y-93798000D01*
X166696000Y-104298000D02*
X175696000Y-104298000D01*
X166696000Y-93798000D02*
X166696000Y-104298000D01*
X175696000Y-93798000D02*
X166696000Y-93798000D01*
X188904000Y-93798000D02*
X179904000Y-93798000D01*
X179904000Y-93798000D02*
X179904000Y-104298000D01*
X179904000Y-104298000D02*
X188904000Y-104298000D01*
X188904000Y-104298000D02*
X188904000Y-93798000D01*
D12*
X130845200Y-36129600D02*
G75*
G03X130845200Y-36129600I-3000000J0D01*
G01*
X129645200Y-29829600D02*
X134545200Y-29829600D01*
X134545200Y-42429600D02*
X129645200Y-42429600D01*
X126045200Y-42429600D02*
X121145200Y-42429600D01*
X121145200Y-42429600D02*
X121145200Y-39629600D01*
X125945200Y-29829600D02*
X121145200Y-29829600D01*
X121145200Y-29829600D02*
X121145200Y-32329600D01*
X120345200Y-32329600D02*
X120045200Y-32029600D01*
X120045200Y-32029600D02*
X120645200Y-32029600D01*
X120645200Y-32029600D02*
X120345200Y-32329600D01*
X134545200Y-29829600D02*
X134545200Y-32429600D01*
X134545200Y-34829600D02*
X134545200Y-37429600D01*
X134545200Y-39829600D02*
X134545200Y-42429600D01*
X127845200Y-35629600D02*
X127845200Y-36629600D01*
X127345200Y-36129600D02*
X128345200Y-36129600D01*
X130845200Y-80681200D02*
G75*
G03X130845200Y-80681200I-3000000J0D01*
G01*
X129645200Y-74381200D02*
X134545200Y-74381200D01*
X134545200Y-86981200D02*
X129645200Y-86981200D01*
X126045200Y-86981200D02*
X121145200Y-86981200D01*
X121145200Y-86981200D02*
X121145200Y-84181200D01*
X125945200Y-74381200D02*
X121145200Y-74381200D01*
X121145200Y-74381200D02*
X121145200Y-76881200D01*
X120345200Y-76881200D02*
X120045200Y-76581200D01*
X120045200Y-76581200D02*
X120645200Y-76581200D01*
X120645200Y-76581200D02*
X120345200Y-76881200D01*
X134545200Y-74381200D02*
X134545200Y-76981200D01*
X134545200Y-79381200D02*
X134545200Y-81981200D01*
X134545200Y-84381200D02*
X134545200Y-86981200D01*
X127845200Y-80181200D02*
X127845200Y-81181200D01*
X127345200Y-80681200D02*
X128345200Y-80681200D01*
X172811200Y-36129600D02*
X173811200Y-36129600D01*
X173311200Y-35629600D02*
X173311200Y-36629600D01*
X180011200Y-39829600D02*
X180011200Y-42429600D01*
X180011200Y-34829600D02*
X180011200Y-37429600D01*
X180011200Y-29829600D02*
X180011200Y-32429600D01*
X166111200Y-32029600D02*
X165811200Y-32329600D01*
X165511200Y-32029600D02*
X166111200Y-32029600D01*
X165811200Y-32329600D02*
X165511200Y-32029600D01*
X166611200Y-29829600D02*
X166611200Y-32329600D01*
X171411200Y-29829600D02*
X166611200Y-29829600D01*
X166611200Y-42429600D02*
X166611200Y-39629600D01*
X171511200Y-42429600D02*
X166611200Y-42429600D01*
X180011200Y-42429600D02*
X175111200Y-42429600D01*
X175111200Y-29829600D02*
X180011200Y-29829600D01*
X176311200Y-36129600D02*
G75*
G03X176311200Y-36129600I-3000000J0D01*
G01*
X172811200Y-80681200D02*
X173811200Y-80681200D01*
X173311200Y-80181200D02*
X173311200Y-81181200D01*
X180011200Y-84381200D02*
X180011200Y-86981200D01*
X180011200Y-79381200D02*
X180011200Y-81981200D01*
X180011200Y-74381200D02*
X180011200Y-76981200D01*
X166111200Y-76581200D02*
X165811200Y-76881200D01*
X165511200Y-76581200D02*
X166111200Y-76581200D01*
X165811200Y-76881200D02*
X165511200Y-76581200D01*
X166611200Y-74381200D02*
X166611200Y-76881200D01*
X171411200Y-74381200D02*
X166611200Y-74381200D01*
X166611200Y-86981200D02*
X166611200Y-84181200D01*
X171511200Y-86981200D02*
X166611200Y-86981200D01*
X180011200Y-86981200D02*
X175111200Y-86981200D01*
X175111200Y-74381200D02*
X180011200Y-74381200D01*
X176311200Y-80681200D02*
G75*
G03X176311200Y-80681200I-3000000J0D01*
G01*
X156943200Y-59619000D02*
X156943200Y-58689000D01*
X156943200Y-56459000D02*
X156943200Y-57389000D01*
X156943200Y-56459000D02*
X153783200Y-56459000D01*
X156943200Y-59619000D02*
X155483200Y-59619000D01*
X149255400Y-41757000D02*
X150185400Y-41757000D01*
X152415400Y-41757000D02*
X151485400Y-41757000D01*
X152415400Y-41757000D02*
X152415400Y-38597000D01*
X149255400Y-41757000D02*
X149255400Y-40297000D01*
X167941400Y-49890800D02*
X166481400Y-49890800D01*
X167941400Y-46730800D02*
X164781400Y-46730800D01*
X167941400Y-46730800D02*
X167941400Y-47660800D01*
X167941400Y-49890800D02*
X167941400Y-48960800D01*
X180719000Y-59174500D02*
X179259000Y-59174500D01*
X180719000Y-56014500D02*
X177559000Y-56014500D01*
X180719000Y-56014500D02*
X180719000Y-56944500D01*
X180719000Y-59174500D02*
X180719000Y-58244500D01*
X168020400Y-69946600D02*
X168020400Y-69016600D01*
X168020400Y-66786600D02*
X168020400Y-67716600D01*
X168020400Y-66786600D02*
X164860400Y-66786600D01*
X168020400Y-69946600D02*
X166560400Y-69946600D01*
X156968600Y-81945600D02*
X156968600Y-81015600D01*
X156968600Y-78785600D02*
X156968600Y-79715600D01*
X156968600Y-78785600D02*
X153808600Y-78785600D01*
X156968600Y-81945600D02*
X155508600Y-81945600D01*
X146859400Y-70083800D02*
X145399400Y-70083800D01*
X146859400Y-66923800D02*
X143699400Y-66923800D01*
X146859400Y-66923800D02*
X146859400Y-67853800D01*
X146859400Y-70083800D02*
X146859400Y-69153800D01*
X136115200Y-60177800D02*
X134655200Y-60177800D01*
X136115200Y-57017800D02*
X132955200Y-57017800D01*
X136115200Y-57017800D02*
X136115200Y-57947800D01*
X136115200Y-60177800D02*
X136115200Y-59247800D01*
X133096600Y-46695200D02*
X134556600Y-46695200D01*
X133096600Y-49855200D02*
X136256600Y-49855200D01*
X133096600Y-49855200D02*
X133096600Y-48925200D01*
X133096600Y-46695200D02*
X133096600Y-47625200D01*
X159419548Y-56996400D02*
X159942052Y-56996400D01*
X159419548Y-55576400D02*
X159942052Y-55576400D01*
X159985452Y-58903800D02*
X159462948Y-58903800D01*
X159985452Y-60323800D02*
X159462948Y-60323800D01*
X151944000Y-44052748D02*
X151944000Y-44575252D01*
X153364000Y-44052748D02*
X153364000Y-44575252D01*
X170366948Y-47115800D02*
X170889452Y-47115800D01*
X170366948Y-45695800D02*
X170889452Y-45695800D01*
X148311800Y-44567852D02*
X148311800Y-44045348D01*
X149731800Y-44567852D02*
X149731800Y-44045348D01*
X170907452Y-50798800D02*
X170384948Y-50798800D01*
X170907452Y-49378800D02*
X170384948Y-49378800D01*
X182673248Y-56526500D02*
X183195752Y-56526500D01*
X182673248Y-55106500D02*
X183195752Y-55106500D01*
X170257948Y-65787200D02*
X170780452Y-65787200D01*
X170257948Y-67207200D02*
X170780452Y-67207200D01*
X183195752Y-60082500D02*
X182673248Y-60082500D01*
X183195752Y-58662500D02*
X182673248Y-58662500D01*
X170805852Y-69470200D02*
X170283348Y-69470200D01*
X170805852Y-70890200D02*
X170283348Y-70890200D01*
X159326948Y-79323000D02*
X159849452Y-79323000D01*
X159326948Y-77903000D02*
X159849452Y-77903000D01*
X149328348Y-65990400D02*
X149850852Y-65990400D01*
X149328348Y-67410400D02*
X149850852Y-67410400D01*
X159807652Y-82802800D02*
X159285148Y-82802800D01*
X159807652Y-81382800D02*
X159285148Y-81382800D01*
X149825452Y-69495600D02*
X149302948Y-69495600D01*
X149825452Y-70915600D02*
X149302948Y-70915600D01*
X138616948Y-57555200D02*
X139139452Y-57555200D01*
X138616948Y-56135200D02*
X139139452Y-56135200D01*
X130681252Y-50824200D02*
X130158748Y-50824200D01*
X130681252Y-49404200D02*
X130158748Y-49404200D01*
X139063252Y-60984200D02*
X138540748Y-60984200D01*
X139063252Y-59564200D02*
X138540748Y-59564200D01*
X130234948Y-47166600D02*
X130757452Y-47166600D01*
X130234948Y-45746600D02*
X130757452Y-45746600D01*
D10*
X149843264Y-54894600D02*
X149843264Y-53894600D01*
X150081360Y-53894600D01*
X150224217Y-53942220D01*
X150319455Y-54037458D01*
X150367074Y-54132696D01*
X150414693Y-54323172D01*
X150414693Y-54466029D01*
X150367074Y-54656505D01*
X150319455Y-54751743D01*
X150224217Y-54846981D01*
X150081360Y-54894600D01*
X149843264Y-54894600D01*
X150748026Y-53894600D02*
X151367074Y-53894600D01*
X151033740Y-54275553D01*
X151176598Y-54275553D01*
X151271836Y-54323172D01*
X151319455Y-54370791D01*
X151367074Y-54466029D01*
X151367074Y-54704124D01*
X151319455Y-54799362D01*
X151271836Y-54846981D01*
X151176598Y-54894600D01*
X150890883Y-54894600D01*
X150795645Y-54846981D01*
X150748026Y-54799362D01*
X154993740Y-36844195D02*
X153993740Y-36844195D01*
X153993740Y-36606100D01*
X154041360Y-36463242D01*
X154136598Y-36368004D01*
X154231836Y-36320385D01*
X154422312Y-36272766D01*
X154565169Y-36272766D01*
X154755645Y-36320385D01*
X154850883Y-36368004D01*
X154946121Y-36463242D01*
X154993740Y-36606100D01*
X154993740Y-36844195D01*
X153993740Y-35368004D02*
X153993740Y-35844195D01*
X154469931Y-35891814D01*
X154422312Y-35844195D01*
X154374693Y-35748957D01*
X154374693Y-35510861D01*
X154422312Y-35415623D01*
X154469931Y-35368004D01*
X154565169Y-35320385D01*
X154803264Y-35320385D01*
X154898502Y-35368004D01*
X154946121Y-35415623D01*
X154993740Y-35510861D01*
X154993740Y-35748957D01*
X154946121Y-35844195D01*
X154898502Y-35891814D01*
X160470624Y-44533940D02*
X160470624Y-43533940D01*
X160708720Y-43533940D01*
X160851577Y-43581560D01*
X160946815Y-43676798D01*
X160994434Y-43772036D01*
X161042053Y-43962512D01*
X161042053Y-44105369D01*
X160994434Y-44295845D01*
X160946815Y-44391083D01*
X160851577Y-44486321D01*
X160708720Y-44533940D01*
X160470624Y-44533940D01*
X161899196Y-43533940D02*
X161708720Y-43533940D01*
X161613481Y-43581560D01*
X161565862Y-43629179D01*
X161470624Y-43772036D01*
X161423005Y-43962512D01*
X161423005Y-44343464D01*
X161470624Y-44438702D01*
X161518243Y-44486321D01*
X161613481Y-44533940D01*
X161803958Y-44533940D01*
X161899196Y-44486321D01*
X161946815Y-44438702D01*
X161994434Y-44343464D01*
X161994434Y-44105369D01*
X161946815Y-44010131D01*
X161899196Y-43962512D01*
X161803958Y-43914893D01*
X161613481Y-43914893D01*
X161518243Y-43962512D01*
X161470624Y-44010131D01*
X161423005Y-44105369D01*
X172561024Y-54897140D02*
X172561024Y-53897140D01*
X172799120Y-53897140D01*
X172941977Y-53944760D01*
X173037215Y-54039998D01*
X173084834Y-54135236D01*
X173132453Y-54325712D01*
X173132453Y-54468569D01*
X173084834Y-54659045D01*
X173037215Y-54754283D01*
X172941977Y-54849521D01*
X172799120Y-54897140D01*
X172561024Y-54897140D01*
X173703881Y-54325712D02*
X173608643Y-54278093D01*
X173561024Y-54230474D01*
X173513405Y-54135236D01*
X173513405Y-54087617D01*
X173561024Y-53992379D01*
X173608643Y-53944760D01*
X173703881Y-53897140D01*
X173894358Y-53897140D01*
X173989596Y-53944760D01*
X174037215Y-53992379D01*
X174084834Y-54087617D01*
X174084834Y-54135236D01*
X174037215Y-54230474D01*
X173989596Y-54278093D01*
X173894358Y-54325712D01*
X173703881Y-54325712D01*
X173608643Y-54373331D01*
X173561024Y-54420950D01*
X173513405Y-54516188D01*
X173513405Y-54706664D01*
X173561024Y-54801902D01*
X173608643Y-54849521D01*
X173703881Y-54897140D01*
X173894358Y-54897140D01*
X173989596Y-54849521D01*
X174037215Y-54801902D01*
X174084834Y-54706664D01*
X174084834Y-54516188D01*
X174037215Y-54420950D01*
X173989596Y-54373331D01*
X173894358Y-54325712D01*
X160399504Y-65311140D02*
X160399504Y-64311140D01*
X160637600Y-64311140D01*
X160780457Y-64358760D01*
X160875695Y-64453998D01*
X160923314Y-64549236D01*
X160970933Y-64739712D01*
X160970933Y-64882569D01*
X160923314Y-65073045D01*
X160875695Y-65168283D01*
X160780457Y-65263521D01*
X160637600Y-65311140D01*
X160399504Y-65311140D01*
X161447123Y-65311140D02*
X161637600Y-65311140D01*
X161732838Y-65263521D01*
X161780457Y-65215902D01*
X161875695Y-65073045D01*
X161923314Y-64882569D01*
X161923314Y-64501617D01*
X161875695Y-64406379D01*
X161828076Y-64358760D01*
X161732838Y-64311140D01*
X161542361Y-64311140D01*
X161447123Y-64358760D01*
X161399504Y-64406379D01*
X161351885Y-64501617D01*
X161351885Y-64739712D01*
X161399504Y-64834950D01*
X161447123Y-64882569D01*
X161542361Y-64930188D01*
X161732838Y-64930188D01*
X161828076Y-64882569D01*
X161875695Y-64834950D01*
X161923314Y-64739712D01*
X149367074Y-77170400D02*
X149367074Y-76170400D01*
X149605169Y-76170400D01*
X149748026Y-76218020D01*
X149843264Y-76313258D01*
X149890883Y-76408496D01*
X149938502Y-76598972D01*
X149938502Y-76741829D01*
X149890883Y-76932305D01*
X149843264Y-77027543D01*
X149748026Y-77122781D01*
X149605169Y-77170400D01*
X149367074Y-77170400D01*
X150890883Y-77170400D02*
X150319455Y-77170400D01*
X150605169Y-77170400D02*
X150605169Y-76170400D01*
X150509931Y-76313258D01*
X150414693Y-76408496D01*
X150319455Y-76456115D01*
X151843264Y-77170400D02*
X151271836Y-77170400D01*
X151557550Y-77170400D02*
X151557550Y-76170400D01*
X151462312Y-76313258D01*
X151367074Y-76408496D01*
X151271836Y-76456115D01*
X138696534Y-65298440D02*
X138696534Y-64298440D01*
X138934629Y-64298440D01*
X139077486Y-64346060D01*
X139172724Y-64441298D01*
X139220343Y-64536536D01*
X139267962Y-64727012D01*
X139267962Y-64869869D01*
X139220343Y-65060345D01*
X139172724Y-65155583D01*
X139077486Y-65250821D01*
X138934629Y-65298440D01*
X138696534Y-65298440D01*
X140220343Y-65298440D02*
X139648915Y-65298440D01*
X139934629Y-65298440D02*
X139934629Y-64298440D01*
X139839391Y-64441298D01*
X139744153Y-64536536D01*
X139648915Y-64584155D01*
X140601296Y-64393679D02*
X140648915Y-64346060D01*
X140744153Y-64298440D01*
X140982248Y-64298440D01*
X141077486Y-64346060D01*
X141125105Y-64393679D01*
X141172724Y-64488917D01*
X141172724Y-64584155D01*
X141125105Y-64727012D01*
X140553677Y-65298440D01*
X141172724Y-65298440D01*
X126611214Y-54897140D02*
X126611214Y-53897140D01*
X126849309Y-53897140D01*
X126992166Y-53944760D01*
X127087404Y-54039998D01*
X127135023Y-54135236D01*
X127182642Y-54325712D01*
X127182642Y-54468569D01*
X127135023Y-54659045D01*
X127087404Y-54754283D01*
X126992166Y-54849521D01*
X126849309Y-54897140D01*
X126611214Y-54897140D01*
X128135023Y-54897140D02*
X127563595Y-54897140D01*
X127849309Y-54897140D02*
X127849309Y-53897140D01*
X127754071Y-54039998D01*
X127658833Y-54135236D01*
X127563595Y-54182855D01*
X128992166Y-54230474D02*
X128992166Y-54897140D01*
X128754071Y-53849521D02*
X128515976Y-54563807D01*
X129135023Y-54563807D01*
X138737174Y-52420920D02*
X138737174Y-51420920D01*
X138975269Y-51420920D01*
X139118126Y-51468540D01*
X139213364Y-51563778D01*
X139260983Y-51659016D01*
X139308602Y-51849492D01*
X139308602Y-51992349D01*
X139260983Y-52182825D01*
X139213364Y-52278063D01*
X139118126Y-52373301D01*
X138975269Y-52420920D01*
X138737174Y-52420920D01*
X140260983Y-52420920D02*
X139689555Y-52420920D01*
X139975269Y-52420920D02*
X139975269Y-51420920D01*
X139880031Y-51563778D01*
X139784793Y-51659016D01*
X139689555Y-51706635D01*
X141165745Y-51420920D02*
X140689555Y-51420920D01*
X140641936Y-51897111D01*
X140689555Y-51849492D01*
X140784793Y-51801873D01*
X141022888Y-51801873D01*
X141118126Y-51849492D01*
X141165745Y-51897111D01*
X141213364Y-51992349D01*
X141213364Y-52230444D01*
X141165745Y-52325682D01*
X141118126Y-52373301D01*
X141022888Y-52420920D01*
X140784793Y-52420920D01*
X140689555Y-52373301D01*
X140641936Y-52325682D01*
X116760666Y-135230380D02*
X116760666Y-135944666D01*
X116713047Y-136087523D01*
X116617809Y-136182761D01*
X116474952Y-136230380D01*
X116379714Y-136230380D01*
X117665428Y-135563714D02*
X117665428Y-136230380D01*
X117427333Y-135182761D02*
X117189238Y-135897047D01*
X117808285Y-135897047D01*
X130222666Y-135230380D02*
X130222666Y-135944666D01*
X130175047Y-136087523D01*
X130079809Y-136182761D01*
X129936952Y-136230380D01*
X129841714Y-136230380D01*
X131175047Y-135230380D02*
X130698857Y-135230380D01*
X130651238Y-135706571D01*
X130698857Y-135658952D01*
X130794095Y-135611333D01*
X131032190Y-135611333D01*
X131127428Y-135658952D01*
X131175047Y-135706571D01*
X131222666Y-135801809D01*
X131222666Y-136039904D01*
X131175047Y-136135142D01*
X131127428Y-136182761D01*
X131032190Y-136230380D01*
X130794095Y-136230380D01*
X130698857Y-136182761D01*
X130651238Y-136135142D01*
X143684666Y-135230380D02*
X143684666Y-135944666D01*
X143637047Y-136087523D01*
X143541809Y-136182761D01*
X143398952Y-136230380D01*
X143303714Y-136230380D01*
X144589428Y-135230380D02*
X144398952Y-135230380D01*
X144303714Y-135278000D01*
X144256095Y-135325619D01*
X144160857Y-135468476D01*
X144113238Y-135658952D01*
X144113238Y-136039904D01*
X144160857Y-136135142D01*
X144208476Y-136182761D01*
X144303714Y-136230380D01*
X144494190Y-136230380D01*
X144589428Y-136182761D01*
X144637047Y-136135142D01*
X144684666Y-136039904D01*
X144684666Y-135801809D01*
X144637047Y-135706571D01*
X144589428Y-135658952D01*
X144494190Y-135611333D01*
X144303714Y-135611333D01*
X144208476Y-135658952D01*
X144160857Y-135706571D01*
X144113238Y-135801809D01*
X157146666Y-135230380D02*
X157146666Y-135944666D01*
X157099047Y-136087523D01*
X157003809Y-136182761D01*
X156860952Y-136230380D01*
X156765714Y-136230380D01*
X157527619Y-135230380D02*
X158194285Y-135230380D01*
X157765714Y-136230380D01*
X170608666Y-135230380D02*
X170608666Y-135944666D01*
X170561047Y-136087523D01*
X170465809Y-136182761D01*
X170322952Y-136230380D01*
X170227714Y-136230380D01*
X171227714Y-135658952D02*
X171132476Y-135611333D01*
X171084857Y-135563714D01*
X171037238Y-135468476D01*
X171037238Y-135420857D01*
X171084857Y-135325619D01*
X171132476Y-135278000D01*
X171227714Y-135230380D01*
X171418190Y-135230380D01*
X171513428Y-135278000D01*
X171561047Y-135325619D01*
X171608666Y-135420857D01*
X171608666Y-135468476D01*
X171561047Y-135563714D01*
X171513428Y-135611333D01*
X171418190Y-135658952D01*
X171227714Y-135658952D01*
X171132476Y-135706571D01*
X171084857Y-135754190D01*
X171037238Y-135849428D01*
X171037238Y-136039904D01*
X171084857Y-136135142D01*
X171132476Y-136182761D01*
X171227714Y-136230380D01*
X171418190Y-136230380D01*
X171513428Y-136182761D01*
X171561047Y-136135142D01*
X171608666Y-136039904D01*
X171608666Y-135849428D01*
X171561047Y-135754190D01*
X171513428Y-135706571D01*
X171418190Y-135658952D01*
X184070666Y-135230380D02*
X184070666Y-135944666D01*
X184023047Y-136087523D01*
X183927809Y-136182761D01*
X183784952Y-136230380D01*
X183689714Y-136230380D01*
X184594476Y-136230380D02*
X184784952Y-136230380D01*
X184880190Y-136182761D01*
X184927809Y-136135142D01*
X185023047Y-135992285D01*
X185070666Y-135801809D01*
X185070666Y-135420857D01*
X185023047Y-135325619D01*
X184975428Y-135278000D01*
X184880190Y-135230380D01*
X184689714Y-135230380D01*
X184594476Y-135278000D01*
X184546857Y-135325619D01*
X184499238Y-135420857D01*
X184499238Y-135658952D01*
X184546857Y-135754190D01*
X184594476Y-135801809D01*
X184689714Y-135849428D01*
X184880190Y-135849428D01*
X184975428Y-135801809D01*
X185023047Y-135754190D01*
X185070666Y-135658952D01*
X116284476Y-119990380D02*
X116284476Y-120704666D01*
X116236857Y-120847523D01*
X116141619Y-120942761D01*
X115998761Y-120990380D01*
X115903523Y-120990380D01*
X117284476Y-120990380D02*
X116713047Y-120990380D01*
X116998761Y-120990380D02*
X116998761Y-119990380D01*
X116903523Y-120133238D01*
X116808285Y-120228476D01*
X116713047Y-120276095D01*
X117903523Y-119990380D02*
X117998761Y-119990380D01*
X118094000Y-120038000D01*
X118141619Y-120085619D01*
X118189238Y-120180857D01*
X118236857Y-120371333D01*
X118236857Y-120609428D01*
X118189238Y-120799904D01*
X118141619Y-120895142D01*
X118094000Y-120942761D01*
X117998761Y-120990380D01*
X117903523Y-120990380D01*
X117808285Y-120942761D01*
X117760666Y-120895142D01*
X117713047Y-120799904D01*
X117665428Y-120609428D01*
X117665428Y-120371333D01*
X117713047Y-120180857D01*
X117760666Y-120085619D01*
X117808285Y-120038000D01*
X117903523Y-119990380D01*
X129746476Y-119990380D02*
X129746476Y-120704666D01*
X129698857Y-120847523D01*
X129603619Y-120942761D01*
X129460761Y-120990380D01*
X129365523Y-120990380D01*
X130746476Y-120990380D02*
X130175047Y-120990380D01*
X130460761Y-120990380D02*
X130460761Y-119990380D01*
X130365523Y-120133238D01*
X130270285Y-120228476D01*
X130175047Y-120276095D01*
X131698857Y-120990380D02*
X131127428Y-120990380D01*
X131413142Y-120990380D02*
X131413142Y-119990380D01*
X131317904Y-120133238D01*
X131222666Y-120228476D01*
X131127428Y-120276095D01*
X143208476Y-119990380D02*
X143208476Y-120704666D01*
X143160857Y-120847523D01*
X143065619Y-120942761D01*
X142922761Y-120990380D01*
X142827523Y-120990380D01*
X144208476Y-120990380D02*
X143637047Y-120990380D01*
X143922761Y-120990380D02*
X143922761Y-119990380D01*
X143827523Y-120133238D01*
X143732285Y-120228476D01*
X143637047Y-120276095D01*
X144589428Y-120085619D02*
X144637047Y-120038000D01*
X144732285Y-119990380D01*
X144970380Y-119990380D01*
X145065619Y-120038000D01*
X145113238Y-120085619D01*
X145160857Y-120180857D01*
X145160857Y-120276095D01*
X145113238Y-120418952D01*
X144541809Y-120990380D01*
X145160857Y-120990380D01*
X156670476Y-119990380D02*
X156670476Y-120704666D01*
X156622857Y-120847523D01*
X156527619Y-120942761D01*
X156384761Y-120990380D01*
X156289523Y-120990380D01*
X157670476Y-120990380D02*
X157099047Y-120990380D01*
X157384761Y-120990380D02*
X157384761Y-119990380D01*
X157289523Y-120133238D01*
X157194285Y-120228476D01*
X157099047Y-120276095D01*
X158003809Y-119990380D02*
X158622857Y-119990380D01*
X158289523Y-120371333D01*
X158432380Y-120371333D01*
X158527619Y-120418952D01*
X158575238Y-120466571D01*
X158622857Y-120561809D01*
X158622857Y-120799904D01*
X158575238Y-120895142D01*
X158527619Y-120942761D01*
X158432380Y-120990380D01*
X158146666Y-120990380D01*
X158051428Y-120942761D01*
X158003809Y-120895142D01*
X170132476Y-119990380D02*
X170132476Y-120704666D01*
X170084857Y-120847523D01*
X169989619Y-120942761D01*
X169846761Y-120990380D01*
X169751523Y-120990380D01*
X171132476Y-120990380D02*
X170561047Y-120990380D01*
X170846761Y-120990380D02*
X170846761Y-119990380D01*
X170751523Y-120133238D01*
X170656285Y-120228476D01*
X170561047Y-120276095D01*
X171989619Y-120323714D02*
X171989619Y-120990380D01*
X171751523Y-119942761D02*
X171513428Y-120657047D01*
X172132476Y-120657047D01*
X183594476Y-119990380D02*
X183594476Y-120704666D01*
X183546857Y-120847523D01*
X183451619Y-120942761D01*
X183308761Y-120990380D01*
X183213523Y-120990380D01*
X184594476Y-120990380D02*
X184023047Y-120990380D01*
X184308761Y-120990380D02*
X184308761Y-119990380D01*
X184213523Y-120133238D01*
X184118285Y-120228476D01*
X184023047Y-120276095D01*
X185499238Y-119990380D02*
X185023047Y-119990380D01*
X184975428Y-120466571D01*
X185023047Y-120418952D01*
X185118285Y-120371333D01*
X185356380Y-120371333D01*
X185451619Y-120418952D01*
X185499238Y-120466571D01*
X185546857Y-120561809D01*
X185546857Y-120799904D01*
X185499238Y-120895142D01*
X185451619Y-120942761D01*
X185356380Y-120990380D01*
X185118285Y-120990380D01*
X185023047Y-120942761D01*
X184975428Y-120895142D01*
X116284476Y-104750380D02*
X116284476Y-105464666D01*
X116236857Y-105607523D01*
X116141619Y-105702761D01*
X115998761Y-105750380D01*
X115903523Y-105750380D01*
X117284476Y-105750380D02*
X116713047Y-105750380D01*
X116998761Y-105750380D02*
X116998761Y-104750380D01*
X116903523Y-104893238D01*
X116808285Y-104988476D01*
X116713047Y-105036095D01*
X118141619Y-104750380D02*
X117951142Y-104750380D01*
X117855904Y-104798000D01*
X117808285Y-104845619D01*
X117713047Y-104988476D01*
X117665428Y-105178952D01*
X117665428Y-105559904D01*
X117713047Y-105655142D01*
X117760666Y-105702761D01*
X117855904Y-105750380D01*
X118046380Y-105750380D01*
X118141619Y-105702761D01*
X118189238Y-105655142D01*
X118236857Y-105559904D01*
X118236857Y-105321809D01*
X118189238Y-105226571D01*
X118141619Y-105178952D01*
X118046380Y-105131333D01*
X117855904Y-105131333D01*
X117760666Y-105178952D01*
X117713047Y-105226571D01*
X117665428Y-105321809D01*
X129746476Y-104750380D02*
X129746476Y-105464666D01*
X129698857Y-105607523D01*
X129603619Y-105702761D01*
X129460761Y-105750380D01*
X129365523Y-105750380D01*
X130746476Y-105750380D02*
X130175047Y-105750380D01*
X130460761Y-105750380D02*
X130460761Y-104750380D01*
X130365523Y-104893238D01*
X130270285Y-104988476D01*
X130175047Y-105036095D01*
X131079809Y-104750380D02*
X131746476Y-104750380D01*
X131317904Y-105750380D01*
X143208476Y-104750380D02*
X143208476Y-105464666D01*
X143160857Y-105607523D01*
X143065619Y-105702761D01*
X142922761Y-105750380D01*
X142827523Y-105750380D01*
X144208476Y-105750380D02*
X143637047Y-105750380D01*
X143922761Y-105750380D02*
X143922761Y-104750380D01*
X143827523Y-104893238D01*
X143732285Y-104988476D01*
X143637047Y-105036095D01*
X144779904Y-105178952D02*
X144684666Y-105131333D01*
X144637047Y-105083714D01*
X144589428Y-104988476D01*
X144589428Y-104940857D01*
X144637047Y-104845619D01*
X144684666Y-104798000D01*
X144779904Y-104750380D01*
X144970380Y-104750380D01*
X145065619Y-104798000D01*
X145113238Y-104845619D01*
X145160857Y-104940857D01*
X145160857Y-104988476D01*
X145113238Y-105083714D01*
X145065619Y-105131333D01*
X144970380Y-105178952D01*
X144779904Y-105178952D01*
X144684666Y-105226571D01*
X144637047Y-105274190D01*
X144589428Y-105369428D01*
X144589428Y-105559904D01*
X144637047Y-105655142D01*
X144684666Y-105702761D01*
X144779904Y-105750380D01*
X144970380Y-105750380D01*
X145065619Y-105702761D01*
X145113238Y-105655142D01*
X145160857Y-105559904D01*
X145160857Y-105369428D01*
X145113238Y-105274190D01*
X145065619Y-105226571D01*
X144970380Y-105178952D01*
X156670476Y-104750380D02*
X156670476Y-105464666D01*
X156622857Y-105607523D01*
X156527619Y-105702761D01*
X156384761Y-105750380D01*
X156289523Y-105750380D01*
X157670476Y-105750380D02*
X157099047Y-105750380D01*
X157384761Y-105750380D02*
X157384761Y-104750380D01*
X157289523Y-104893238D01*
X157194285Y-104988476D01*
X157099047Y-105036095D01*
X158146666Y-105750380D02*
X158337142Y-105750380D01*
X158432380Y-105702761D01*
X158480000Y-105655142D01*
X158575238Y-105512285D01*
X158622857Y-105321809D01*
X158622857Y-104940857D01*
X158575238Y-104845619D01*
X158527619Y-104798000D01*
X158432380Y-104750380D01*
X158241904Y-104750380D01*
X158146666Y-104798000D01*
X158099047Y-104845619D01*
X158051428Y-104940857D01*
X158051428Y-105178952D01*
X158099047Y-105274190D01*
X158146666Y-105321809D01*
X158241904Y-105369428D01*
X158432380Y-105369428D01*
X158527619Y-105321809D01*
X158575238Y-105274190D01*
X158622857Y-105178952D01*
X170386476Y-104750380D02*
X170386476Y-105464666D01*
X170338857Y-105607523D01*
X170243619Y-105702761D01*
X170100761Y-105750380D01*
X170005523Y-105750380D01*
X170815047Y-104845619D02*
X170862666Y-104798000D01*
X170957904Y-104750380D01*
X171196000Y-104750380D01*
X171291238Y-104798000D01*
X171338857Y-104845619D01*
X171386476Y-104940857D01*
X171386476Y-105036095D01*
X171338857Y-105178952D01*
X170767428Y-105750380D01*
X171386476Y-105750380D01*
X172005523Y-104750380D02*
X172100761Y-104750380D01*
X172196000Y-104798000D01*
X172243619Y-104845619D01*
X172291238Y-104940857D01*
X172338857Y-105131333D01*
X172338857Y-105369428D01*
X172291238Y-105559904D01*
X172243619Y-105655142D01*
X172196000Y-105702761D01*
X172100761Y-105750380D01*
X172005523Y-105750380D01*
X171910285Y-105702761D01*
X171862666Y-105655142D01*
X171815047Y-105559904D01*
X171767428Y-105369428D01*
X171767428Y-105131333D01*
X171815047Y-104940857D01*
X171862666Y-104845619D01*
X171910285Y-104798000D01*
X172005523Y-104750380D01*
X183594476Y-104750380D02*
X183594476Y-105464666D01*
X183546857Y-105607523D01*
X183451619Y-105702761D01*
X183308761Y-105750380D01*
X183213523Y-105750380D01*
X184023047Y-104845619D02*
X184070666Y-104798000D01*
X184165904Y-104750380D01*
X184404000Y-104750380D01*
X184499238Y-104798000D01*
X184546857Y-104845619D01*
X184594476Y-104940857D01*
X184594476Y-105036095D01*
X184546857Y-105178952D01*
X183975428Y-105750380D01*
X184594476Y-105750380D01*
X185546857Y-105750380D02*
X184975428Y-105750380D01*
X185261142Y-105750380D02*
X185261142Y-104750380D01*
X185165904Y-104893238D01*
X185070666Y-104988476D01*
X184975428Y-105036095D01*
X121811866Y-29334361D02*
X121954723Y-29381980D01*
X122192819Y-29381980D01*
X122288057Y-29334361D01*
X122335676Y-29286742D01*
X122383295Y-29191504D01*
X122383295Y-29096266D01*
X122335676Y-29001028D01*
X122288057Y-28953409D01*
X122192819Y-28905790D01*
X122002342Y-28858171D01*
X121907104Y-28810552D01*
X121859485Y-28762933D01*
X121811866Y-28667695D01*
X121811866Y-28572457D01*
X121859485Y-28477219D01*
X121907104Y-28429600D01*
X122002342Y-28381980D01*
X122240438Y-28381980D01*
X122383295Y-28429600D01*
X122716628Y-28381980D02*
X122954723Y-29381980D01*
X123145200Y-28667695D01*
X123335676Y-29381980D01*
X123573771Y-28381980D01*
X124478533Y-29381980D02*
X123907104Y-29381980D01*
X124192819Y-29381980D02*
X124192819Y-28381980D01*
X124097580Y-28524838D01*
X124002342Y-28620076D01*
X123907104Y-28667695D01*
X121811866Y-73885961D02*
X121954723Y-73933580D01*
X122192819Y-73933580D01*
X122288057Y-73885961D01*
X122335676Y-73838342D01*
X122383295Y-73743104D01*
X122383295Y-73647866D01*
X122335676Y-73552628D01*
X122288057Y-73505009D01*
X122192819Y-73457390D01*
X122002342Y-73409771D01*
X121907104Y-73362152D01*
X121859485Y-73314533D01*
X121811866Y-73219295D01*
X121811866Y-73124057D01*
X121859485Y-73028819D01*
X121907104Y-72981200D01*
X122002342Y-72933580D01*
X122240438Y-72933580D01*
X122383295Y-72981200D01*
X122716628Y-72933580D02*
X122954723Y-73933580D01*
X123145200Y-73219295D01*
X123335676Y-73933580D01*
X123573771Y-72933580D01*
X123907104Y-73028819D02*
X123954723Y-72981200D01*
X124049961Y-72933580D01*
X124288057Y-72933580D01*
X124383295Y-72981200D01*
X124430914Y-73028819D01*
X124478533Y-73124057D01*
X124478533Y-73219295D01*
X124430914Y-73362152D01*
X123859485Y-73933580D01*
X124478533Y-73933580D01*
X167277866Y-29334361D02*
X167420723Y-29381980D01*
X167658819Y-29381980D01*
X167754057Y-29334361D01*
X167801676Y-29286742D01*
X167849295Y-29191504D01*
X167849295Y-29096266D01*
X167801676Y-29001028D01*
X167754057Y-28953409D01*
X167658819Y-28905790D01*
X167468342Y-28858171D01*
X167373104Y-28810552D01*
X167325485Y-28762933D01*
X167277866Y-28667695D01*
X167277866Y-28572457D01*
X167325485Y-28477219D01*
X167373104Y-28429600D01*
X167468342Y-28381980D01*
X167706438Y-28381980D01*
X167849295Y-28429600D01*
X168182628Y-28381980D02*
X168420723Y-29381980D01*
X168611200Y-28667695D01*
X168801676Y-29381980D01*
X169039771Y-28381980D01*
X169325485Y-28381980D02*
X169944533Y-28381980D01*
X169611200Y-28762933D01*
X169754057Y-28762933D01*
X169849295Y-28810552D01*
X169896914Y-28858171D01*
X169944533Y-28953409D01*
X169944533Y-29191504D01*
X169896914Y-29286742D01*
X169849295Y-29334361D01*
X169754057Y-29381980D01*
X169468342Y-29381980D01*
X169373104Y-29334361D01*
X169325485Y-29286742D01*
X167277866Y-73885961D02*
X167420723Y-73933580D01*
X167658819Y-73933580D01*
X167754057Y-73885961D01*
X167801676Y-73838342D01*
X167849295Y-73743104D01*
X167849295Y-73647866D01*
X167801676Y-73552628D01*
X167754057Y-73505009D01*
X167658819Y-73457390D01*
X167468342Y-73409771D01*
X167373104Y-73362152D01*
X167325485Y-73314533D01*
X167277866Y-73219295D01*
X167277866Y-73124057D01*
X167325485Y-73028819D01*
X167373104Y-72981200D01*
X167468342Y-72933580D01*
X167706438Y-72933580D01*
X167849295Y-72981200D01*
X168182628Y-72933580D02*
X168420723Y-73933580D01*
X168611200Y-73219295D01*
X168801676Y-73933580D01*
X169039771Y-72933580D01*
X169849295Y-73266914D02*
X169849295Y-73933580D01*
X169611200Y-72885961D02*
X169373104Y-73600247D01*
X169992152Y-73600247D01*
X156087961Y-56086619D02*
X155992723Y-56039000D01*
X155897485Y-55943761D01*
X155754628Y-55800904D01*
X155659390Y-55753285D01*
X155564152Y-55753285D01*
X155611771Y-55991380D02*
X155516533Y-55943761D01*
X155421295Y-55848523D01*
X155373676Y-55658047D01*
X155373676Y-55324714D01*
X155421295Y-55134238D01*
X155516533Y-55039000D01*
X155611771Y-54991380D01*
X155802247Y-54991380D01*
X155897485Y-55039000D01*
X155992723Y-55134238D01*
X156040342Y-55324714D01*
X156040342Y-55658047D01*
X155992723Y-55848523D01*
X155897485Y-55943761D01*
X155802247Y-55991380D01*
X155611771Y-55991380D01*
X156992723Y-55991380D02*
X156421295Y-55991380D01*
X156707009Y-55991380D02*
X156707009Y-54991380D01*
X156611771Y-55134238D01*
X156516533Y-55229476D01*
X156421295Y-55277095D01*
X153883019Y-41092238D02*
X153835400Y-41187476D01*
X153740161Y-41282714D01*
X153597304Y-41425571D01*
X153549685Y-41520809D01*
X153549685Y-41616047D01*
X153787780Y-41568428D02*
X153740161Y-41663666D01*
X153644923Y-41758904D01*
X153454447Y-41806523D01*
X153121114Y-41806523D01*
X152930638Y-41758904D01*
X152835400Y-41663666D01*
X152787780Y-41568428D01*
X152787780Y-41377952D01*
X152835400Y-41282714D01*
X152930638Y-41187476D01*
X153121114Y-41139857D01*
X153454447Y-41139857D01*
X153644923Y-41187476D01*
X153740161Y-41282714D01*
X153787780Y-41377952D01*
X153787780Y-41568428D01*
X152787780Y-40806523D02*
X152787780Y-40187476D01*
X153168733Y-40520809D01*
X153168733Y-40377952D01*
X153216352Y-40282714D01*
X153263971Y-40235095D01*
X153359209Y-40187476D01*
X153597304Y-40187476D01*
X153692542Y-40235095D01*
X153740161Y-40282714D01*
X153787780Y-40377952D01*
X153787780Y-40663666D01*
X153740161Y-40758904D01*
X153692542Y-40806523D01*
X167086161Y-46358419D02*
X166990923Y-46310800D01*
X166895685Y-46215561D01*
X166752828Y-46072704D01*
X166657590Y-46025085D01*
X166562352Y-46025085D01*
X166609971Y-46263180D02*
X166514733Y-46215561D01*
X166419495Y-46120323D01*
X166371876Y-45929847D01*
X166371876Y-45596514D01*
X166419495Y-45406038D01*
X166514733Y-45310800D01*
X166609971Y-45263180D01*
X166800447Y-45263180D01*
X166895685Y-45310800D01*
X166990923Y-45406038D01*
X167038542Y-45596514D01*
X167038542Y-45929847D01*
X166990923Y-46120323D01*
X166895685Y-46215561D01*
X166800447Y-46263180D01*
X166609971Y-46263180D01*
X167895685Y-45596514D02*
X167895685Y-46263180D01*
X167657590Y-45215561D02*
X167419495Y-45929847D01*
X168038542Y-45929847D01*
X179863761Y-55642119D02*
X179768523Y-55594500D01*
X179673285Y-55499261D01*
X179530428Y-55356404D01*
X179435190Y-55308785D01*
X179339952Y-55308785D01*
X179387571Y-55546880D02*
X179292333Y-55499261D01*
X179197095Y-55404023D01*
X179149476Y-55213547D01*
X179149476Y-54880214D01*
X179197095Y-54689738D01*
X179292333Y-54594500D01*
X179387571Y-54546880D01*
X179578047Y-54546880D01*
X179673285Y-54594500D01*
X179768523Y-54689738D01*
X179816142Y-54880214D01*
X179816142Y-55213547D01*
X179768523Y-55404023D01*
X179673285Y-55499261D01*
X179578047Y-55546880D01*
X179387571Y-55546880D01*
X180673285Y-54546880D02*
X180482809Y-54546880D01*
X180387571Y-54594500D01*
X180339952Y-54642119D01*
X180244714Y-54784976D01*
X180197095Y-54975452D01*
X180197095Y-55356404D01*
X180244714Y-55451642D01*
X180292333Y-55499261D01*
X180387571Y-55546880D01*
X180578047Y-55546880D01*
X180673285Y-55499261D01*
X180720904Y-55451642D01*
X180768523Y-55356404D01*
X180768523Y-55118309D01*
X180720904Y-55023071D01*
X180673285Y-54975452D01*
X180578047Y-54927833D01*
X180387571Y-54927833D01*
X180292333Y-54975452D01*
X180244714Y-55023071D01*
X180197095Y-55118309D01*
X167165161Y-66414219D02*
X167069923Y-66366600D01*
X166974685Y-66271361D01*
X166831828Y-66128504D01*
X166736590Y-66080885D01*
X166641352Y-66080885D01*
X166688971Y-66318980D02*
X166593733Y-66271361D01*
X166498495Y-66176123D01*
X166450876Y-65985647D01*
X166450876Y-65652314D01*
X166498495Y-65461838D01*
X166593733Y-65366600D01*
X166688971Y-65318980D01*
X166879447Y-65318980D01*
X166974685Y-65366600D01*
X167069923Y-65461838D01*
X167117542Y-65652314D01*
X167117542Y-65985647D01*
X167069923Y-66176123D01*
X166974685Y-66271361D01*
X166879447Y-66318980D01*
X166688971Y-66318980D01*
X167450876Y-65318980D02*
X168117542Y-65318980D01*
X167688971Y-66318980D01*
X156113361Y-78413219D02*
X156018123Y-78365600D01*
X155922885Y-78270361D01*
X155780028Y-78127504D01*
X155684790Y-78079885D01*
X155589552Y-78079885D01*
X155637171Y-78317980D02*
X155541933Y-78270361D01*
X155446695Y-78175123D01*
X155399076Y-77984647D01*
X155399076Y-77651314D01*
X155446695Y-77460838D01*
X155541933Y-77365600D01*
X155637171Y-77317980D01*
X155827647Y-77317980D01*
X155922885Y-77365600D01*
X156018123Y-77460838D01*
X156065742Y-77651314D01*
X156065742Y-77984647D01*
X156018123Y-78175123D01*
X155922885Y-78270361D01*
X155827647Y-78317980D01*
X155637171Y-78317980D01*
X156541933Y-78317980D02*
X156732409Y-78317980D01*
X156827647Y-78270361D01*
X156875266Y-78222742D01*
X156970504Y-78079885D01*
X157018123Y-77889409D01*
X157018123Y-77508457D01*
X156970504Y-77413219D01*
X156922885Y-77365600D01*
X156827647Y-77317980D01*
X156637171Y-77317980D01*
X156541933Y-77365600D01*
X156494314Y-77413219D01*
X156446695Y-77508457D01*
X156446695Y-77746552D01*
X156494314Y-77841790D01*
X156541933Y-77889409D01*
X156637171Y-77937028D01*
X156827647Y-77937028D01*
X156922885Y-77889409D01*
X156970504Y-77841790D01*
X157018123Y-77746552D01*
X145527971Y-66551419D02*
X145432733Y-66503800D01*
X145337495Y-66408561D01*
X145194638Y-66265704D01*
X145099400Y-66218085D01*
X145004161Y-66218085D01*
X145051780Y-66456180D02*
X144956542Y-66408561D01*
X144861304Y-66313323D01*
X144813685Y-66122847D01*
X144813685Y-65789514D01*
X144861304Y-65599038D01*
X144956542Y-65503800D01*
X145051780Y-65456180D01*
X145242257Y-65456180D01*
X145337495Y-65503800D01*
X145432733Y-65599038D01*
X145480352Y-65789514D01*
X145480352Y-66122847D01*
X145432733Y-66313323D01*
X145337495Y-66408561D01*
X145242257Y-66456180D01*
X145051780Y-66456180D01*
X146432733Y-66456180D02*
X145861304Y-66456180D01*
X146147019Y-66456180D02*
X146147019Y-65456180D01*
X146051780Y-65599038D01*
X145956542Y-65694276D01*
X145861304Y-65741895D01*
X147051780Y-65456180D02*
X147147019Y-65456180D01*
X147242257Y-65503800D01*
X147289876Y-65551419D01*
X147337495Y-65646657D01*
X147385114Y-65837133D01*
X147385114Y-66075228D01*
X147337495Y-66265704D01*
X147289876Y-66360942D01*
X147242257Y-66408561D01*
X147147019Y-66456180D01*
X147051780Y-66456180D01*
X146956542Y-66408561D01*
X146908923Y-66360942D01*
X146861304Y-66265704D01*
X146813685Y-66075228D01*
X146813685Y-65837133D01*
X146861304Y-65646657D01*
X146908923Y-65551419D01*
X146956542Y-65503800D01*
X147051780Y-65456180D01*
X134783771Y-56645419D02*
X134688533Y-56597800D01*
X134593295Y-56502561D01*
X134450438Y-56359704D01*
X134355200Y-56312085D01*
X134259961Y-56312085D01*
X134307580Y-56550180D02*
X134212342Y-56502561D01*
X134117104Y-56407323D01*
X134069485Y-56216847D01*
X134069485Y-55883514D01*
X134117104Y-55693038D01*
X134212342Y-55597800D01*
X134307580Y-55550180D01*
X134498057Y-55550180D01*
X134593295Y-55597800D01*
X134688533Y-55693038D01*
X134736152Y-55883514D01*
X134736152Y-56216847D01*
X134688533Y-56407323D01*
X134593295Y-56502561D01*
X134498057Y-56550180D01*
X134307580Y-56550180D01*
X135688533Y-56550180D02*
X135117104Y-56550180D01*
X135402819Y-56550180D02*
X135402819Y-55550180D01*
X135307580Y-55693038D01*
X135212342Y-55788276D01*
X135117104Y-55835895D01*
X136069485Y-55645419D02*
X136117104Y-55597800D01*
X136212342Y-55550180D01*
X136450438Y-55550180D01*
X136545676Y-55597800D01*
X136593295Y-55645419D01*
X136640914Y-55740657D01*
X136640914Y-55835895D01*
X136593295Y-55978752D01*
X136021866Y-56550180D01*
X136640914Y-56550180D01*
X133285171Y-51322819D02*
X133189933Y-51275200D01*
X133094695Y-51179961D01*
X132951838Y-51037104D01*
X132856600Y-50989485D01*
X132761361Y-50989485D01*
X132808980Y-51227580D02*
X132713742Y-51179961D01*
X132618504Y-51084723D01*
X132570885Y-50894247D01*
X132570885Y-50560914D01*
X132618504Y-50370438D01*
X132713742Y-50275200D01*
X132808980Y-50227580D01*
X132999457Y-50227580D01*
X133094695Y-50275200D01*
X133189933Y-50370438D01*
X133237552Y-50560914D01*
X133237552Y-50894247D01*
X133189933Y-51084723D01*
X133094695Y-51179961D01*
X132999457Y-51227580D01*
X132808980Y-51227580D01*
X134189933Y-51227580D02*
X133618504Y-51227580D01*
X133904219Y-51227580D02*
X133904219Y-50227580D01*
X133808980Y-50370438D01*
X133713742Y-50465676D01*
X133618504Y-50513295D01*
X134523266Y-50227580D02*
X135142314Y-50227580D01*
X134808980Y-50608533D01*
X134951838Y-50608533D01*
X135047076Y-50656152D01*
X135094695Y-50703771D01*
X135142314Y-50799009D01*
X135142314Y-51037104D01*
X135094695Y-51132342D01*
X135047076Y-51179961D01*
X134951838Y-51227580D01*
X134666123Y-51227580D01*
X134570885Y-51179961D01*
X134523266Y-51132342D01*
X159514133Y-55088780D02*
X159180800Y-54612590D01*
X158942704Y-55088780D02*
X158942704Y-54088780D01*
X159323657Y-54088780D01*
X159418895Y-54136400D01*
X159466514Y-54184019D01*
X159514133Y-54279257D01*
X159514133Y-54422114D01*
X159466514Y-54517352D01*
X159418895Y-54564971D01*
X159323657Y-54612590D01*
X158942704Y-54612590D01*
X159990323Y-55088780D02*
X160180800Y-55088780D01*
X160276038Y-55041161D01*
X160323657Y-54993542D01*
X160418895Y-54850685D01*
X160466514Y-54660209D01*
X160466514Y-54279257D01*
X160418895Y-54184019D01*
X160371276Y-54136400D01*
X160276038Y-54088780D01*
X160085561Y-54088780D01*
X159990323Y-54136400D01*
X159942704Y-54184019D01*
X159895085Y-54279257D01*
X159895085Y-54517352D01*
X159942704Y-54612590D01*
X159990323Y-54660209D01*
X160085561Y-54707828D01*
X160276038Y-54707828D01*
X160371276Y-54660209D01*
X160418895Y-54612590D01*
X160466514Y-54517352D01*
X159081342Y-61716180D02*
X158748009Y-61239990D01*
X158509914Y-61716180D02*
X158509914Y-60716180D01*
X158890866Y-60716180D01*
X158986104Y-60763800D01*
X159033723Y-60811419D01*
X159081342Y-60906657D01*
X159081342Y-61049514D01*
X159033723Y-61144752D01*
X158986104Y-61192371D01*
X158890866Y-61239990D01*
X158509914Y-61239990D01*
X160033723Y-61716180D02*
X159462295Y-61716180D01*
X159748009Y-61716180D02*
X159748009Y-60716180D01*
X159652771Y-60859038D01*
X159557533Y-60954276D01*
X159462295Y-61001895D01*
X160652771Y-60716180D02*
X160748009Y-60716180D01*
X160843247Y-60763800D01*
X160890866Y-60811419D01*
X160938485Y-60906657D01*
X160986104Y-61097133D01*
X160986104Y-61335228D01*
X160938485Y-61525704D01*
X160890866Y-61620942D01*
X160843247Y-61668561D01*
X160748009Y-61716180D01*
X160652771Y-61716180D01*
X160557533Y-61668561D01*
X160509914Y-61620942D01*
X160462295Y-61525704D01*
X160414676Y-61335228D01*
X160414676Y-61097133D01*
X160462295Y-60906657D01*
X160509914Y-60811419D01*
X160557533Y-60763800D01*
X160652771Y-60716180D01*
X154756380Y-44956857D02*
X154280190Y-45290190D01*
X154756380Y-45528285D02*
X153756380Y-45528285D01*
X153756380Y-45147333D01*
X153804000Y-45052095D01*
X153851619Y-45004476D01*
X153946857Y-44956857D01*
X154089714Y-44956857D01*
X154184952Y-45004476D01*
X154232571Y-45052095D01*
X154280190Y-45147333D01*
X154280190Y-45528285D01*
X154756380Y-44004476D02*
X154756380Y-44575904D01*
X154756380Y-44290190D02*
X153756380Y-44290190D01*
X153899238Y-44385428D01*
X153994476Y-44480666D01*
X154042095Y-44575904D01*
X153851619Y-43623523D02*
X153804000Y-43575904D01*
X153756380Y-43480666D01*
X153756380Y-43242571D01*
X153804000Y-43147333D01*
X153851619Y-43099714D01*
X153946857Y-43052095D01*
X154042095Y-43052095D01*
X154184952Y-43099714D01*
X154756380Y-43671142D01*
X154756380Y-43052095D01*
X169985342Y-45208180D02*
X169652009Y-44731990D01*
X169413914Y-45208180D02*
X169413914Y-44208180D01*
X169794866Y-44208180D01*
X169890104Y-44255800D01*
X169937723Y-44303419D01*
X169985342Y-44398657D01*
X169985342Y-44541514D01*
X169937723Y-44636752D01*
X169890104Y-44684371D01*
X169794866Y-44731990D01*
X169413914Y-44731990D01*
X170937723Y-45208180D02*
X170366295Y-45208180D01*
X170652009Y-45208180D02*
X170652009Y-44208180D01*
X170556771Y-44351038D01*
X170461533Y-44446276D01*
X170366295Y-44493895D01*
X171271057Y-44208180D02*
X171890104Y-44208180D01*
X171556771Y-44589133D01*
X171699628Y-44589133D01*
X171794866Y-44636752D01*
X171842485Y-44684371D01*
X171890104Y-44779609D01*
X171890104Y-45017704D01*
X171842485Y-45112942D01*
X171794866Y-45160561D01*
X171699628Y-45208180D01*
X171413914Y-45208180D01*
X171318676Y-45160561D01*
X171271057Y-45112942D01*
X147824180Y-44949457D02*
X147347990Y-45282790D01*
X147824180Y-45520885D02*
X146824180Y-45520885D01*
X146824180Y-45139933D01*
X146871800Y-45044695D01*
X146919419Y-44997076D01*
X147014657Y-44949457D01*
X147157514Y-44949457D01*
X147252752Y-44997076D01*
X147300371Y-45044695D01*
X147347990Y-45139933D01*
X147347990Y-45520885D01*
X147824180Y-43997076D02*
X147824180Y-44568504D01*
X147824180Y-44282790D02*
X146824180Y-44282790D01*
X146967038Y-44378028D01*
X147062276Y-44473266D01*
X147109895Y-44568504D01*
X146824180Y-43092314D02*
X146824180Y-43568504D01*
X147300371Y-43616123D01*
X147252752Y-43568504D01*
X147205133Y-43473266D01*
X147205133Y-43235171D01*
X147252752Y-43139933D01*
X147300371Y-43092314D01*
X147395609Y-43044695D01*
X147633704Y-43044695D01*
X147728942Y-43092314D01*
X147776561Y-43139933D01*
X147824180Y-43235171D01*
X147824180Y-43473266D01*
X147776561Y-43568504D01*
X147728942Y-43616123D01*
X170003342Y-52191180D02*
X169670009Y-51714990D01*
X169431914Y-52191180D02*
X169431914Y-51191180D01*
X169812866Y-51191180D01*
X169908104Y-51238800D01*
X169955723Y-51286419D01*
X170003342Y-51381657D01*
X170003342Y-51524514D01*
X169955723Y-51619752D01*
X169908104Y-51667371D01*
X169812866Y-51714990D01*
X169431914Y-51714990D01*
X170955723Y-52191180D02*
X170384295Y-52191180D01*
X170670009Y-52191180D02*
X170670009Y-51191180D01*
X170574771Y-51334038D01*
X170479533Y-51429276D01*
X170384295Y-51476895D01*
X171812866Y-51191180D02*
X171622390Y-51191180D01*
X171527152Y-51238800D01*
X171479533Y-51286419D01*
X171384295Y-51429276D01*
X171336676Y-51619752D01*
X171336676Y-52000704D01*
X171384295Y-52095942D01*
X171431914Y-52143561D01*
X171527152Y-52191180D01*
X171717628Y-52191180D01*
X171812866Y-52143561D01*
X171860485Y-52095942D01*
X171908104Y-52000704D01*
X171908104Y-51762609D01*
X171860485Y-51667371D01*
X171812866Y-51619752D01*
X171717628Y-51572133D01*
X171527152Y-51572133D01*
X171431914Y-51619752D01*
X171384295Y-51667371D01*
X171336676Y-51762609D01*
X182291642Y-54618880D02*
X181958309Y-54142690D01*
X181720214Y-54618880D02*
X181720214Y-53618880D01*
X182101166Y-53618880D01*
X182196404Y-53666500D01*
X182244023Y-53714119D01*
X182291642Y-53809357D01*
X182291642Y-53952214D01*
X182244023Y-54047452D01*
X182196404Y-54095071D01*
X182101166Y-54142690D01*
X181720214Y-54142690D01*
X183244023Y-54618880D02*
X182672595Y-54618880D01*
X182958309Y-54618880D02*
X182958309Y-53618880D01*
X182863071Y-53761738D01*
X182767833Y-53856976D01*
X182672595Y-53904595D01*
X183815452Y-54047452D02*
X183720214Y-53999833D01*
X183672595Y-53952214D01*
X183624976Y-53856976D01*
X183624976Y-53809357D01*
X183672595Y-53714119D01*
X183720214Y-53666500D01*
X183815452Y-53618880D01*
X184005928Y-53618880D01*
X184101166Y-53666500D01*
X184148785Y-53714119D01*
X184196404Y-53809357D01*
X184196404Y-53856976D01*
X184148785Y-53952214D01*
X184101166Y-53999833D01*
X184005928Y-54047452D01*
X183815452Y-54047452D01*
X183720214Y-54095071D01*
X183672595Y-54142690D01*
X183624976Y-54237928D01*
X183624976Y-54428404D01*
X183672595Y-54523642D01*
X183720214Y-54571261D01*
X183815452Y-54618880D01*
X184005928Y-54618880D01*
X184101166Y-54571261D01*
X184148785Y-54523642D01*
X184196404Y-54428404D01*
X184196404Y-54237928D01*
X184148785Y-54142690D01*
X184101166Y-54095071D01*
X184005928Y-54047452D01*
X169876342Y-65299580D02*
X169543009Y-64823390D01*
X169304914Y-65299580D02*
X169304914Y-64299580D01*
X169685866Y-64299580D01*
X169781104Y-64347200D01*
X169828723Y-64394819D01*
X169876342Y-64490057D01*
X169876342Y-64632914D01*
X169828723Y-64728152D01*
X169781104Y-64775771D01*
X169685866Y-64823390D01*
X169304914Y-64823390D01*
X170828723Y-65299580D02*
X170257295Y-65299580D01*
X170543009Y-65299580D02*
X170543009Y-64299580D01*
X170447771Y-64442438D01*
X170352533Y-64537676D01*
X170257295Y-64585295D01*
X171304914Y-65299580D02*
X171495390Y-65299580D01*
X171590628Y-65251961D01*
X171638247Y-65204342D01*
X171733485Y-65061485D01*
X171781104Y-64871009D01*
X171781104Y-64490057D01*
X171733485Y-64394819D01*
X171685866Y-64347200D01*
X171590628Y-64299580D01*
X171400152Y-64299580D01*
X171304914Y-64347200D01*
X171257295Y-64394819D01*
X171209676Y-64490057D01*
X171209676Y-64728152D01*
X171257295Y-64823390D01*
X171304914Y-64871009D01*
X171400152Y-64918628D01*
X171590628Y-64918628D01*
X171685866Y-64871009D01*
X171733485Y-64823390D01*
X171781104Y-64728152D01*
X182291642Y-61474880D02*
X181958309Y-60998690D01*
X181720214Y-61474880D02*
X181720214Y-60474880D01*
X182101166Y-60474880D01*
X182196404Y-60522500D01*
X182244023Y-60570119D01*
X182291642Y-60665357D01*
X182291642Y-60808214D01*
X182244023Y-60903452D01*
X182196404Y-60951071D01*
X182101166Y-60998690D01*
X181720214Y-60998690D01*
X182672595Y-60570119D02*
X182720214Y-60522500D01*
X182815452Y-60474880D01*
X183053547Y-60474880D01*
X183148785Y-60522500D01*
X183196404Y-60570119D01*
X183244023Y-60665357D01*
X183244023Y-60760595D01*
X183196404Y-60903452D01*
X182624976Y-61474880D01*
X183244023Y-61474880D01*
X184196404Y-61474880D02*
X183624976Y-61474880D01*
X183910690Y-61474880D02*
X183910690Y-60474880D01*
X183815452Y-60617738D01*
X183720214Y-60712976D01*
X183624976Y-60760595D01*
X169901742Y-72282580D02*
X169568409Y-71806390D01*
X169330314Y-72282580D02*
X169330314Y-71282580D01*
X169711266Y-71282580D01*
X169806504Y-71330200D01*
X169854123Y-71377819D01*
X169901742Y-71473057D01*
X169901742Y-71615914D01*
X169854123Y-71711152D01*
X169806504Y-71758771D01*
X169711266Y-71806390D01*
X169330314Y-71806390D01*
X170282695Y-71377819D02*
X170330314Y-71330200D01*
X170425552Y-71282580D01*
X170663647Y-71282580D01*
X170758885Y-71330200D01*
X170806504Y-71377819D01*
X170854123Y-71473057D01*
X170854123Y-71568295D01*
X170806504Y-71711152D01*
X170235076Y-72282580D01*
X170854123Y-72282580D01*
X171235076Y-71377819D02*
X171282695Y-71330200D01*
X171377933Y-71282580D01*
X171616028Y-71282580D01*
X171711266Y-71330200D01*
X171758885Y-71377819D01*
X171806504Y-71473057D01*
X171806504Y-71568295D01*
X171758885Y-71711152D01*
X171187457Y-72282580D01*
X171806504Y-72282580D01*
X158945342Y-77415380D02*
X158612009Y-76939190D01*
X158373914Y-77415380D02*
X158373914Y-76415380D01*
X158754866Y-76415380D01*
X158850104Y-76463000D01*
X158897723Y-76510619D01*
X158945342Y-76605857D01*
X158945342Y-76748714D01*
X158897723Y-76843952D01*
X158850104Y-76891571D01*
X158754866Y-76939190D01*
X158373914Y-76939190D01*
X159326295Y-76510619D02*
X159373914Y-76463000D01*
X159469152Y-76415380D01*
X159707247Y-76415380D01*
X159802485Y-76463000D01*
X159850104Y-76510619D01*
X159897723Y-76605857D01*
X159897723Y-76701095D01*
X159850104Y-76843952D01*
X159278676Y-77415380D01*
X159897723Y-77415380D01*
X160754866Y-76748714D02*
X160754866Y-77415380D01*
X160516771Y-76367761D02*
X160278676Y-77082047D01*
X160897723Y-77082047D01*
X148946742Y-65502780D02*
X148613409Y-65026590D01*
X148375314Y-65502780D02*
X148375314Y-64502780D01*
X148756266Y-64502780D01*
X148851504Y-64550400D01*
X148899123Y-64598019D01*
X148946742Y-64693257D01*
X148946742Y-64836114D01*
X148899123Y-64931352D01*
X148851504Y-64978971D01*
X148756266Y-65026590D01*
X148375314Y-65026590D01*
X149327695Y-64598019D02*
X149375314Y-64550400D01*
X149470552Y-64502780D01*
X149708647Y-64502780D01*
X149803885Y-64550400D01*
X149851504Y-64598019D01*
X149899123Y-64693257D01*
X149899123Y-64788495D01*
X149851504Y-64931352D01*
X149280076Y-65502780D01*
X149899123Y-65502780D01*
X150803885Y-64502780D02*
X150327695Y-64502780D01*
X150280076Y-64978971D01*
X150327695Y-64931352D01*
X150422933Y-64883733D01*
X150661028Y-64883733D01*
X150756266Y-64931352D01*
X150803885Y-64978971D01*
X150851504Y-65074209D01*
X150851504Y-65312304D01*
X150803885Y-65407542D01*
X150756266Y-65455161D01*
X150661028Y-65502780D01*
X150422933Y-65502780D01*
X150327695Y-65455161D01*
X150280076Y-65407542D01*
X158903542Y-84195180D02*
X158570209Y-83718990D01*
X158332114Y-84195180D02*
X158332114Y-83195180D01*
X158713066Y-83195180D01*
X158808304Y-83242800D01*
X158855923Y-83290419D01*
X158903542Y-83385657D01*
X158903542Y-83528514D01*
X158855923Y-83623752D01*
X158808304Y-83671371D01*
X158713066Y-83718990D01*
X158332114Y-83718990D01*
X159284495Y-83290419D02*
X159332114Y-83242800D01*
X159427352Y-83195180D01*
X159665447Y-83195180D01*
X159760685Y-83242800D01*
X159808304Y-83290419D01*
X159855923Y-83385657D01*
X159855923Y-83480895D01*
X159808304Y-83623752D01*
X159236876Y-84195180D01*
X159855923Y-84195180D01*
X160189257Y-83195180D02*
X160855923Y-83195180D01*
X160427352Y-84195180D01*
X148921342Y-72307980D02*
X148588009Y-71831790D01*
X148349914Y-72307980D02*
X148349914Y-71307980D01*
X148730866Y-71307980D01*
X148826104Y-71355600D01*
X148873723Y-71403219D01*
X148921342Y-71498457D01*
X148921342Y-71641314D01*
X148873723Y-71736552D01*
X148826104Y-71784171D01*
X148730866Y-71831790D01*
X148349914Y-71831790D01*
X149302295Y-71403219D02*
X149349914Y-71355600D01*
X149445152Y-71307980D01*
X149683247Y-71307980D01*
X149778485Y-71355600D01*
X149826104Y-71403219D01*
X149873723Y-71498457D01*
X149873723Y-71593695D01*
X149826104Y-71736552D01*
X149254676Y-72307980D01*
X149873723Y-72307980D01*
X150445152Y-71736552D02*
X150349914Y-71688933D01*
X150302295Y-71641314D01*
X150254676Y-71546076D01*
X150254676Y-71498457D01*
X150302295Y-71403219D01*
X150349914Y-71355600D01*
X150445152Y-71307980D01*
X150635628Y-71307980D01*
X150730866Y-71355600D01*
X150778485Y-71403219D01*
X150826104Y-71498457D01*
X150826104Y-71546076D01*
X150778485Y-71641314D01*
X150730866Y-71688933D01*
X150635628Y-71736552D01*
X150445152Y-71736552D01*
X150349914Y-71784171D01*
X150302295Y-71831790D01*
X150254676Y-71927028D01*
X150254676Y-72117504D01*
X150302295Y-72212742D01*
X150349914Y-72260361D01*
X150445152Y-72307980D01*
X150635628Y-72307980D01*
X150730866Y-72260361D01*
X150778485Y-72212742D01*
X150826104Y-72117504D01*
X150826104Y-71927028D01*
X150778485Y-71831790D01*
X150730866Y-71784171D01*
X150635628Y-71736552D01*
X138235342Y-55647580D02*
X137902009Y-55171390D01*
X137663914Y-55647580D02*
X137663914Y-54647580D01*
X138044866Y-54647580D01*
X138140104Y-54695200D01*
X138187723Y-54742819D01*
X138235342Y-54838057D01*
X138235342Y-54980914D01*
X138187723Y-55076152D01*
X138140104Y-55123771D01*
X138044866Y-55171390D01*
X137663914Y-55171390D01*
X138568676Y-54647580D02*
X139187723Y-54647580D01*
X138854390Y-55028533D01*
X138997247Y-55028533D01*
X139092485Y-55076152D01*
X139140104Y-55123771D01*
X139187723Y-55219009D01*
X139187723Y-55457104D01*
X139140104Y-55552342D01*
X139092485Y-55599961D01*
X138997247Y-55647580D01*
X138711533Y-55647580D01*
X138616295Y-55599961D01*
X138568676Y-55552342D01*
X139806771Y-54647580D02*
X139902009Y-54647580D01*
X139997247Y-54695200D01*
X140044866Y-54742819D01*
X140092485Y-54838057D01*
X140140104Y-55028533D01*
X140140104Y-55266628D01*
X140092485Y-55457104D01*
X140044866Y-55552342D01*
X139997247Y-55599961D01*
X139902009Y-55647580D01*
X139806771Y-55647580D01*
X139711533Y-55599961D01*
X139663914Y-55552342D01*
X139616295Y-55457104D01*
X139568676Y-55266628D01*
X139568676Y-55028533D01*
X139616295Y-54838057D01*
X139663914Y-54742819D01*
X139711533Y-54695200D01*
X139806771Y-54647580D01*
X129777142Y-52216580D02*
X129443809Y-51740390D01*
X129205714Y-52216580D02*
X129205714Y-51216580D01*
X129586666Y-51216580D01*
X129681904Y-51264200D01*
X129729523Y-51311819D01*
X129777142Y-51407057D01*
X129777142Y-51549914D01*
X129729523Y-51645152D01*
X129681904Y-51692771D01*
X129586666Y-51740390D01*
X129205714Y-51740390D01*
X130110476Y-51216580D02*
X130729523Y-51216580D01*
X130396190Y-51597533D01*
X130539047Y-51597533D01*
X130634285Y-51645152D01*
X130681904Y-51692771D01*
X130729523Y-51788009D01*
X130729523Y-52026104D01*
X130681904Y-52121342D01*
X130634285Y-52168961D01*
X130539047Y-52216580D01*
X130253333Y-52216580D01*
X130158095Y-52168961D01*
X130110476Y-52121342D01*
X131681904Y-52216580D02*
X131110476Y-52216580D01*
X131396190Y-52216580D02*
X131396190Y-51216580D01*
X131300952Y-51359438D01*
X131205714Y-51454676D01*
X131110476Y-51502295D01*
X138159142Y-62376580D02*
X137825809Y-61900390D01*
X137587714Y-62376580D02*
X137587714Y-61376580D01*
X137968666Y-61376580D01*
X138063904Y-61424200D01*
X138111523Y-61471819D01*
X138159142Y-61567057D01*
X138159142Y-61709914D01*
X138111523Y-61805152D01*
X138063904Y-61852771D01*
X137968666Y-61900390D01*
X137587714Y-61900390D01*
X138492476Y-61376580D02*
X139111523Y-61376580D01*
X138778190Y-61757533D01*
X138921047Y-61757533D01*
X139016285Y-61805152D01*
X139063904Y-61852771D01*
X139111523Y-61948009D01*
X139111523Y-62186104D01*
X139063904Y-62281342D01*
X139016285Y-62328961D01*
X138921047Y-62376580D01*
X138635333Y-62376580D01*
X138540095Y-62328961D01*
X138492476Y-62281342D01*
X139444857Y-61376580D02*
X140063904Y-61376580D01*
X139730571Y-61757533D01*
X139873428Y-61757533D01*
X139968666Y-61805152D01*
X140016285Y-61852771D01*
X140063904Y-61948009D01*
X140063904Y-62186104D01*
X140016285Y-62281342D01*
X139968666Y-62328961D01*
X139873428Y-62376580D01*
X139587714Y-62376580D01*
X139492476Y-62328961D01*
X139444857Y-62281342D01*
X129853342Y-45258980D02*
X129520009Y-44782790D01*
X129281914Y-45258980D02*
X129281914Y-44258980D01*
X129662866Y-44258980D01*
X129758104Y-44306600D01*
X129805723Y-44354219D01*
X129853342Y-44449457D01*
X129853342Y-44592314D01*
X129805723Y-44687552D01*
X129758104Y-44735171D01*
X129662866Y-44782790D01*
X129281914Y-44782790D01*
X130186676Y-44258980D02*
X130805723Y-44258980D01*
X130472390Y-44639933D01*
X130615247Y-44639933D01*
X130710485Y-44687552D01*
X130758104Y-44735171D01*
X130805723Y-44830409D01*
X130805723Y-45068504D01*
X130758104Y-45163742D01*
X130710485Y-45211361D01*
X130615247Y-45258980D01*
X130329533Y-45258980D01*
X130234295Y-45211361D01*
X130186676Y-45163742D01*
X131662866Y-44592314D02*
X131662866Y-45258980D01*
X131424771Y-44211361D02*
X131186676Y-44925647D01*
X131805723Y-44925647D01*
M02*
