M48
; DRILL file {KiCad (5.1.5-0)} date Wednesday, May 05, 2021 at 09:22:17 AM
; FORMAT={-:-/ absolute / inch / decimal}
; #@! TF.CreationDate,2021-05-05T09:22:17-05:00
; #@! TF.GenerationSoftware,Kicad,Pcbnew,(5.1.5-0)
; #@! TF.FileFunction,Plated,1,2,PTH
FMAT,2
INCH
T1C0.0118
T2C0.0157
T3C0.0354
T4C0.0394
T5C0.0433
T6C0.0591
T7C0.0827
%
G90
G05
T1
X5.181Y-2.94
X6.269Y-1.58
X6.82Y-3.574
X4.627Y-3.153
X4.563Y-1.862
X7.15Y-1.85
X4.853Y-2.093
X7.033Y-3.339
X6.26Y-3.36
X6.83Y-1.38
X6.38Y-1.43
X6.989Y-2.762
X5.103Y-2.11
X4.92Y-1.69
X7.015Y-3.609
T2
X4.571Y-2.697
X4.614Y-2.892
X4.646Y-2.836
X4.684Y-1.367
X4.893Y-3.086
X4.959Y-3.031
X5.305Y-2.75
X5.319Y-3.403
X5.426Y-3.487
X5.561Y-4.225
X5.565Y-3.488
X6.24Y-3.44
X6.451Y-4.698
X6.725Y-2.693
X6.76Y-3.23
X6.763Y-3.989
X6.773Y-1.445
X6.794Y-2.689
X6.938Y-2.77
X7.241Y-2.313
X7.265Y-3.287
T3
X5.798Y-2.29
X5.883Y-2.29
X5.968Y-2.29
X6.053Y-2.29
X5.421Y-1.913
X5.506Y-1.913
X5.591Y-1.913
X5.676Y-1.913
X6.175Y-2.667
X6.26Y-2.667
X6.345Y-2.667
X6.43Y-2.667
X6.658Y-2.29
X6.743Y-2.29
X6.828Y-2.29
X6.913Y-2.29
X5.798Y-3.15
X5.883Y-3.15
X5.968Y-3.15
X6.053Y-3.15
X6.175Y-1.913
X6.26Y-1.913
X6.345Y-1.913
X6.43Y-1.913
X5.421Y-2.667
X5.506Y-2.667
X5.591Y-2.667
X5.676Y-2.667
X5.798Y-1.43
X5.883Y-1.43
X5.968Y-1.43
X6.053Y-1.43
X4.938Y-2.29
X5.023Y-2.29
X5.108Y-2.29
X5.193Y-2.29
T4
X7.41Y-1.63
X7.41Y-1.73
X7.41Y-1.83
X7.41Y-1.93
X7.41Y-2.03
X7.41Y-2.13
X7.41Y-2.23
X7.41Y-2.33
X7.41Y-2.43
X7.41Y-2.53
X7.41Y-2.63
X7.41Y-2.73
X7.41Y-2.83
X7.41Y-2.93
X7.41Y-3.03
X7.41Y-3.13
X7.41Y-3.23
X7.41Y-3.33
X7.41Y-3.43
X4.46Y-1.63
X4.46Y-1.73
X4.46Y-1.83
X4.46Y-1.93
X4.46Y-2.03
X4.46Y-2.13
X4.46Y-2.23
X4.46Y-2.33
X4.46Y-2.43
X4.46Y-2.53
X4.46Y-2.63
X4.46Y-2.73
X4.46Y-2.83
X4.46Y-2.93
X4.46Y-3.03
X4.46Y-3.13
X4.46Y-3.23
X4.46Y-3.33
X4.46Y-3.43
T5
X4.7724Y-1.2475
X4.7724Y-1.3263
X4.7724Y-1.405
X4.7724Y-1.4837
X4.7724Y-1.5625
X5.3433Y-1.3066
X5.3433Y-1.405
X5.3433Y-1.5034
X6.5414Y-1.2475
X6.5414Y-1.3263
X6.5414Y-1.405
X6.5414Y-1.4837
X6.5414Y-1.5625
X7.1123Y-1.3066
X7.1123Y-1.405
X7.1123Y-1.5034
X6.5414Y-3.0165
X6.5414Y-3.0953
X6.5414Y-3.174
X6.5414Y-3.2527
X6.5414Y-3.3315
X7.1123Y-3.0756
X7.1123Y-3.174
X7.1123Y-3.2724
X4.7724Y-3.0165
X4.7724Y-3.0953
X4.7724Y-3.174
X4.7724Y-3.2527
X4.7724Y-3.3315
X5.3433Y-3.0756
X5.3433Y-3.174
X5.3433Y-3.2724
T6
X7.26Y-3.6149
X7.26Y-3.7369
X7.26Y-4.0637
X5.14Y-4.2149
X5.14Y-4.3369
X5.14Y-4.6637
X5.67Y-4.8149
X5.67Y-4.9369
X5.67Y-5.2637
X6.74Y-3.6149
X6.74Y-3.7369
X6.74Y-4.0637
X7.26Y-4.2149
X7.26Y-4.3369
X7.26Y-4.6637
X5.14Y-4.8149
X5.14Y-4.9369
X5.14Y-5.2637
X6.2Y-3.6149
X6.2Y-3.7369
X6.2Y-4.0637
X4.61Y-4.2149
X4.61Y-4.3369
X4.61Y-4.6637
X4.61Y-4.8149
X4.61Y-4.9369
X4.61Y-5.2637
X5.14Y-3.6149
X5.14Y-3.7369
X5.14Y-4.0637
X5.67Y-3.6149
X5.67Y-3.7369
X5.67Y-4.0637
X6.73Y-4.2149
X6.73Y-4.3369
X6.73Y-4.6637
X7.26Y-4.8149
X7.26Y-4.9369
X7.26Y-5.2637
X6.2Y-4.2149
X6.2Y-4.3369
X6.2Y-4.6637
X6.2Y-4.8149
X6.2Y-4.9369
X6.2Y-5.2637
X6.73Y-4.8149
X6.73Y-4.9369
X6.73Y-5.2637
X4.61Y-3.6149
X4.61Y-3.7369
X4.61Y-4.0637
X5.67Y-4.2149
X5.67Y-4.3369
X5.67Y-4.6637
T7
X5.048Y-1.1865
X5.048Y-1.6235
X6.817Y-1.1865
X6.817Y-1.6235
X6.817Y-2.9555
X6.817Y-3.3925
X5.048Y-2.9555
X5.048Y-3.3925
T0
M30
