M48
; DRILL file {KiCad (5.1.5-0)} date Monday, October 12, 2020 at 11:47:53 AM
; FORMAT={-:-/ absolute / inch / decimal}
; #@! TF.CreationDate,2020-10-12T11:47:53-05:00
; #@! TF.GenerationSoftware,Kicad,Pcbnew,(5.1.5-0)
; #@! TF.FileFunction,Plated,1,2,PTH
FMAT,2
INCH
T1C0.0118
T2C0.0157
T3C0.0354
T4C0.0394
T5C0.0591
T6C0.0866
%
G90
G05
T1
X4.64Y-2.87
T2
X4.545Y-3.32
X4.547Y-3.265
X4.58Y-3.13
X4.58Y-3.18
X4.82Y-1.85
X5.13Y-2.04
X5.46Y-2.3
X5.96Y-1.81
X6.0Y-2.81
X6.32Y-3.3
X6.37Y-3.15
T3
X4.9825Y-2.2994
X5.0825Y-2.2994
X5.4599Y-1.8901
X5.5599Y-1.8901
X5.8784Y-2.2993
X5.9784Y-2.2993
X5.9284Y-1.3715
X5.9284Y-1.4715
X6.2968Y-1.8914
X6.3968Y-1.8914
X6.294Y-2.7094
X6.394Y-2.7094
X6.7728Y-2.2994
X6.8728Y-2.2994
X5.8784Y-3.1763
X5.9784Y-3.1763
X5.4583Y-2.7089
X5.5583Y-2.7089
T4
X6.528Y-1.324
X6.528Y-1.4224
X6.528Y-1.5209
X7.0989Y-1.324
X7.0989Y-1.5209
X6.528Y-3.078
X6.528Y-3.1764
X6.528Y-3.2749
X7.0989Y-3.078
X7.0989Y-3.2749
X4.46Y-1.63
X4.46Y-1.73
X4.46Y-1.83
X4.46Y-1.93
X4.46Y-2.03
X4.46Y-2.13
X4.46Y-2.23
X4.46Y-2.33
X4.46Y-2.43
X4.46Y-2.53
X4.46Y-2.63
X4.46Y-2.73
X4.46Y-2.83
X4.46Y-2.93
X4.46Y-3.03
X4.46Y-3.13
X4.46Y-3.23
X4.46Y-3.33
X4.46Y-3.43
X7.41Y-1.63
X7.41Y-1.73
X7.41Y-1.83
X7.41Y-1.93
X7.41Y-2.03
X7.41Y-2.13
X7.41Y-2.23
X7.41Y-2.33
X7.41Y-2.43
X7.41Y-2.53
X7.41Y-2.63
X7.41Y-2.73
X7.41Y-2.83
X7.41Y-2.93
X7.41Y-3.03
X7.41Y-3.13
X7.41Y-3.23
X7.41Y-3.33
X7.41Y-3.43
X4.738Y-1.324
X4.738Y-1.4224
X4.738Y-1.5209
X5.3089Y-1.324
X5.3089Y-1.5209
X4.738Y-3.078
X4.738Y-3.1764
X4.738Y-3.2749
X5.3089Y-3.078
X5.3089Y-3.2749
T5
X5.14Y-3.6149
X5.14Y-3.7369
X5.14Y-4.0637
X4.61Y-3.6149
X4.61Y-3.7369
X4.61Y-4.0637
X7.26Y-3.6149
X7.26Y-3.7369
X7.26Y-4.0637
X5.67Y-4.8149
X5.67Y-4.9369
X5.67Y-5.2637
X7.26Y-4.2149
X7.26Y-4.3369
X7.26Y-4.6637
X5.14Y-4.8149
X5.14Y-4.9369
X5.14Y-5.2637
X5.67Y-4.2149
X5.67Y-4.3369
X5.67Y-4.6637
X6.2Y-4.2149
X6.2Y-4.3369
X6.2Y-4.6637
X6.73Y-4.2149
X6.73Y-4.3369
X6.73Y-4.6637
X6.2Y-3.6149
X6.2Y-3.7369
X6.2Y-4.0637
X6.74Y-3.6149
X6.74Y-3.7369
X6.74Y-4.0637
X4.61Y-4.8149
X4.61Y-4.9369
X4.61Y-5.2637
X4.61Y-4.2149
X4.61Y-4.3369
X4.61Y-4.6637
X5.14Y-4.2149
X5.14Y-4.3369
X5.14Y-4.6637
X6.73Y-4.8149
X6.73Y-4.9369
X6.73Y-5.2637
X7.26Y-4.8149
X7.26Y-4.9369
X7.26Y-5.2637
X5.67Y-3.6149
X5.67Y-3.7369
X5.67Y-4.0637
X6.2Y-4.8149
X6.2Y-4.9369
X6.2Y-5.2637
T6
X5.0333Y-1.202
X5.0333Y-1.6429
X5.0333Y-2.956
X5.0333Y-3.3969
X6.8233Y-1.202
X6.8233Y-1.6429
X6.8233Y-2.956
X6.8233Y-3.3969
T0
M30
