M48
INCH,TZ
T1C0.0118
T2C0.0157
T3C0.0354
T4C0.0394
T5C0.0433
T6C0.0591
T7C0.0827
%
G90
G05
T1
X45630Y-18620
X46270Y-31530
X46980Y-26820
X47160Y-21060
X49260Y-16200
X51030Y-21100
X62690Y-15800
X63600Y-33260
X63800Y-14300
X67620Y-14000
X68200Y-35740
X69890Y-27620
X70150Y-36090
X70330Y-33390
X71500Y-18500
T2
X45600Y-33340
X45660Y-28620
X45700Y-28180
X45710Y-27580
X46520Y-13760
X47320Y-19960
X48930Y-30860
X49681Y-30464
X49700Y-21940
X53190Y-34030
X53260Y-28220
X53300Y-27640
X53640Y-36280
X54240Y-31280
X54700Y-28780
X55610Y-42250
X55860Y-28360
X57220Y-34780
X63062Y-31119
X63400Y-31320
X64510Y-46980
X66920Y-33820
X67600Y-32300
X67630Y-39890
X67660Y-14860
X69420Y-30080
X72410Y-23130
X72650Y-32870
T3
X49380Y-22900
X50230Y-22900
X51080Y-22900
X51930Y-22900
X54210Y-19130
X54210Y-26670
X55060Y-19130
X55060Y-26670
X55910Y-19130
X55910Y-26670
X56760Y-19130
X56760Y-26670
X57980Y-14300
X57980Y-22900
X57980Y-31500
X58830Y-14300
X58830Y-22900
X58830Y-31500
X59680Y-14300
X59680Y-22900
X59680Y-31500
X60530Y-14300
X60530Y-22900
X60530Y-31500
X61750Y-19130
X61750Y-26670
X62600Y-19130
X62600Y-26670
X63450Y-19130
X63450Y-26670
X64300Y-19130
X64300Y-26670
X66580Y-22900
X67430Y-22900
X68280Y-22900
X69130Y-22900
T4
X44600Y-16300
X44600Y-17300
X44600Y-18300
X44600Y-19300
X44600Y-20300
X44600Y-21300
X44600Y-22300
X44600Y-23300
X44600Y-24300
X44600Y-25300
X44600Y-26300
X44600Y-27300
X44600Y-28300
X44600Y-29300
X44600Y-30300
X44600Y-31300
X44600Y-32300
X44600Y-33300
X44600Y-34300
X74100Y-16300
X74100Y-17300
X74100Y-18300
X74100Y-19300
X74100Y-20300
X74100Y-21300
X74100Y-22300
X74100Y-23300
X74100Y-24300
X74100Y-25300
X74100Y-26300
X74100Y-27300
X74100Y-28300
X74100Y-29300
X74100Y-30300
X74100Y-31300
X74100Y-32300
X74100Y-33300
X74100Y-34300
T5
X47724Y-12475
X47724Y-13263
X47724Y-14050
X47724Y-14837
X47724Y-15625
X47724Y-30165
X47724Y-30953
X47724Y-31740
X47724Y-32527
X47724Y-33315
X53433Y-13066
X53433Y-14050
X53433Y-15034
X53433Y-30756
X53433Y-31740
X53433Y-32724
X65414Y-12475
X65414Y-13263
X65414Y-14050
X65414Y-14837
X65414Y-15625
X65414Y-30165
X65414Y-30953
X65414Y-31740
X65414Y-32527
X65414Y-33315
X71123Y-13066
X71123Y-14050
X71123Y-15034
X71123Y-30756
X71123Y-31740
X71123Y-32724
T6
X46100Y-36149
X46100Y-37369
X46100Y-40637
X46100Y-42149
X46100Y-43369
X46100Y-46637
X46100Y-48149
X46100Y-49369
X46100Y-52637
X51400Y-36149
X51400Y-37369
X51400Y-40637
X51400Y-42149
X51400Y-43369
X51400Y-46637
X51400Y-48149
X51400Y-49369
X51400Y-52637
X56700Y-36149
X56700Y-37369
X56700Y-40637
X56700Y-42149
X56700Y-43369
X56700Y-46637
X56700Y-48149
X56700Y-49369
X56700Y-52637
X62000Y-36149
X62000Y-37369
X62000Y-40637
X62000Y-42149
X62000Y-43369
X62000Y-46637
X62000Y-48149
X62000Y-49369
X62000Y-52637
X67300Y-42149
X67300Y-43369
X67300Y-46637
X67300Y-48149
X67300Y-49369
X67300Y-52637
X67400Y-36149
X67400Y-37369
X67400Y-40637
X72600Y-36149
X72600Y-37369
X72600Y-40637
X72600Y-42149
X72600Y-43369
X72600Y-46637
X72600Y-48149
X72600Y-49369
X72600Y-52637
T7
X50480Y-11865
X50480Y-16235
X50480Y-29555
X50480Y-33925
X68170Y-11865
X68170Y-16235
X68170Y-29555
X68170Y-33925
T0
M30
