G04 #@! TF.GenerationSoftware,KiCad,Pcbnew,(6.0.0-0)*
G04 #@! TF.CreationDate,2022-02-14T22:07:48-06:00*
G04 #@! TF.ProjectId,bells-venn,62656c6c-732d-4766-956e-6e2e6b696361,rev?*
G04 #@! TF.SameCoordinates,Original*
G04 #@! TF.FileFunction,Paste,Bot*
G04 #@! TF.FilePolarity,Positive*
%FSLAX46Y46*%
G04 Gerber Fmt 4.6, Leading zero omitted, Abs format (unit mm)*
G04 Created by KiCad (PCBNEW (6.0.0-0)) date 2022-02-14 22:07:48*
%MOMM*%
%LPD*%
G01*
G04 APERTURE LIST*
G04 Aperture macros list*
%AMRoundRect*
0 Rectangle with rounded corners*
0 $1 Rounding radius*
0 $2 $3 $4 $5 $6 $7 $8 $9 X,Y pos of 4 corners*
0 Add a 4 corners polygon primitive as box body*
4,1,4,$2,$3,$4,$5,$6,$7,$8,$9,$2,$3,0*
0 Add four circle primitives for the rounded corners*
1,1,$1+$1,$2,$3*
1,1,$1+$1,$4,$5*
1,1,$1+$1,$6,$7*
1,1,$1+$1,$8,$9*
0 Add four rect primitives between the rounded corners*
20,1,$1+$1,$2,$3,$4,$5,0*
20,1,$1+$1,$4,$5,$6,$7,0*
20,1,$1+$1,$6,$7,$8,$9,0*
20,1,$1+$1,$8,$9,$2,$3,0*%
G04 Aperture macros list end*
%ADD10RoundRect,0.150000X0.150000X-0.825000X0.150000X0.825000X-0.150000X0.825000X-0.150000X-0.825000X0*%
%ADD11RoundRect,0.250000X-0.450000X0.350000X-0.450000X-0.350000X0.450000X-0.350000X0.450000X0.350000X0*%
%ADD12RoundRect,0.250000X0.337500X0.475000X-0.337500X0.475000X-0.337500X-0.475000X0.337500X-0.475000X0*%
%ADD13RoundRect,0.250000X0.350000X0.450000X-0.350000X0.450000X-0.350000X-0.450000X0.350000X-0.450000X0*%
%ADD14RoundRect,0.250000X0.450000X-0.350000X0.450000X0.350000X-0.450000X0.350000X-0.450000X-0.350000X0*%
%ADD15RoundRect,0.250000X-0.337500X-0.475000X0.337500X-0.475000X0.337500X0.475000X-0.337500X0.475000X0*%
%ADD16RoundRect,0.250000X-0.350000X-0.450000X0.350000X-0.450000X0.350000X0.450000X-0.350000X0.450000X0*%
%ADD17RoundRect,0.250000X0.475000X-0.337500X0.475000X0.337500X-0.475000X0.337500X-0.475000X-0.337500X0*%
%ADD18RoundRect,0.150000X-0.150000X0.825000X-0.150000X-0.825000X0.150000X-0.825000X0.150000X0.825000X0*%
G04 APERTURE END LIST*
D10*
X125857000Y-71766200D03*
X124587000Y-71766200D03*
X123317000Y-71766200D03*
X122047000Y-71766200D03*
X122047000Y-66816200D03*
X123317000Y-66816200D03*
X124587000Y-66816200D03*
X125857000Y-66816200D03*
D11*
X144119600Y-51054000D03*
X144119600Y-53054000D03*
X153688800Y-75520800D03*
X153688800Y-77520800D03*
X153720800Y-53848000D03*
X153720800Y-55848000D03*
D12*
X123334600Y-53340000D03*
X121259600Y-53340000D03*
D13*
X170554400Y-63042800D03*
X168554400Y-63042800D03*
D12*
X125823800Y-62839600D03*
X123748800Y-62839600D03*
D14*
X123621800Y-36797600D03*
X123621800Y-34797600D03*
D13*
X127441200Y-53035200D03*
X125441200Y-53035200D03*
D14*
X123444000Y-81763000D03*
X123444000Y-79763000D03*
X168402000Y-82035000D03*
X168402000Y-80035000D03*
X168402000Y-36823000D03*
X168402000Y-34823000D03*
D15*
X149423100Y-33858200D03*
X151498100Y-33858200D03*
D16*
X163404800Y-65328800D03*
X165404800Y-65328800D03*
X121393200Y-51003200D03*
X123393200Y-51003200D03*
D11*
X153771600Y-38658800D03*
X153771600Y-40658800D03*
D15*
X173591400Y-66700400D03*
X175666400Y-66700400D03*
D14*
X144983200Y-78200000D03*
X144983200Y-76200000D03*
D16*
X121564400Y-48666400D03*
X123564400Y-48666400D03*
D14*
X144170400Y-72002400D03*
X144170400Y-70002400D03*
D17*
X166776400Y-47417900D03*
X166776400Y-45342900D03*
D18*
X125526800Y-45342000D03*
X126796800Y-45342000D03*
X128066800Y-45342000D03*
X129336800Y-45342000D03*
X129336800Y-50292000D03*
X128066800Y-50292000D03*
X126796800Y-50292000D03*
X125526800Y-50292000D03*
D13*
X129863600Y-62788800D03*
X127863600Y-62788800D03*
D18*
X170561000Y-45226200D03*
X171831000Y-45226200D03*
X173101000Y-45226200D03*
X174371000Y-45226200D03*
X174371000Y-50176200D03*
X173101000Y-50176200D03*
X171831000Y-50176200D03*
X170561000Y-50176200D03*
D11*
X163271200Y-51035200D03*
X163271200Y-53035200D03*
D10*
X171577000Y-71461400D03*
X170307000Y-71461400D03*
X169037000Y-71461400D03*
X167767000Y-71461400D03*
X167767000Y-66511400D03*
X169037000Y-66511400D03*
X170307000Y-66511400D03*
X171577000Y-66511400D03*
D16*
X131558900Y-78168500D03*
X133558900Y-78168500D03*
X131673192Y-83121500D03*
X133673192Y-83121500D03*
D14*
X125730000Y-36779600D03*
X125730000Y-34779600D03*
D11*
X125730000Y-79763000D03*
X125730000Y-81763000D03*
D16*
X166808400Y-49326800D03*
X168808400Y-49326800D03*
X176504200Y-33185100D03*
X178504200Y-33185100D03*
X176567700Y-78130400D03*
X178567700Y-78130400D03*
X176537000Y-37084000D03*
X178537000Y-37084000D03*
X176567700Y-83121500D03*
X178567700Y-83121500D03*
D14*
X170434000Y-36805000D03*
X170434000Y-34805000D03*
D11*
X170434000Y-80035000D03*
X170434000Y-82035000D03*
D16*
X131584300Y-33172400D03*
X133584300Y-33172400D03*
X131597000Y-38214300D03*
X133597000Y-38214300D03*
D15*
X127655300Y-55778400D03*
X129730300Y-55778400D03*
X149415700Y-55778400D03*
X151490700Y-55778400D03*
X159227500Y-65303400D03*
X161302500Y-65303400D03*
X171394100Y-55702200D03*
X173469100Y-55702200D03*
X159049700Y-46202600D03*
X161124700Y-46202600D03*
X149466500Y-77597000D03*
X151541500Y-77597000D03*
D11*
X135534400Y-48768000D03*
X135534400Y-50768000D03*
D16*
X173920400Y-53543200D03*
X175920400Y-53543200D03*
D13*
X175685200Y-62636400D03*
X173685200Y-62636400D03*
D15*
X139796500Y-46151800D03*
X141871500Y-46151800D03*
X139847300Y-65303400D03*
X141922300Y-65303400D03*
M02*
