G04 #@! TF.GenerationSoftware,KiCad,Pcbnew,(6.0.5-0)*
G04 #@! TF.CreationDate,2023-09-16T19:39:01-05:00*
G04 #@! TF.ProjectId,bells-venn,62656c6c-732d-4766-956e-6e2e6b696361,rev?*
G04 #@! TF.SameCoordinates,Original*
G04 #@! TF.FileFunction,Soldermask,Top*
G04 #@! TF.FilePolarity,Negative*
%FSLAX46Y46*%
G04 Gerber Fmt 4.6, Leading zero omitted, Abs format (unit mm)*
G04 Created by KiCad (PCBNEW (6.0.5-0)) date 2023-09-16 19:39:01*
%MOMM*%
%LPD*%
G01*
G04 APERTURE LIST*
G04 Aperture macros list*
%AMRoundRect*
0 Rectangle with rounded corners*
0 $1 Rounding radius*
0 $2 $3 $4 $5 $6 $7 $8 $9 X,Y pos of 4 corners*
0 Add a 4 corners polygon primitive as box body*
4,1,4,$2,$3,$4,$5,$6,$7,$8,$9,$2,$3,0*
0 Add four circle primitives for the rounded corners*
1,1,$1+$1,$2,$3*
1,1,$1+$1,$4,$5*
1,1,$1+$1,$6,$7*
1,1,$1+$1,$8,$9*
0 Add four rect primitives between the rounded corners*
20,1,$1+$1,$2,$3,$4,$5,0*
20,1,$1+$1,$4,$5,$6,$7,0*
20,1,$1+$1,$6,$7,$8,$9,0*
20,1,$1+$1,$8,$9,$2,$3,0*%
G04 Aperture macros list end*
%ADD10C,3.102000*%
%ADD11C,2.352000*%
%ADD12RoundRect,0.051000X0.900000X0.900000X-0.900000X0.900000X-0.900000X-0.900000X0.900000X-0.900000X0*%
%ADD13C,1.902000*%
%ADD14C,1.880000*%
%ADD15C,3.252000*%
%ADD16C,3.251999*%
%ADD17C,3.302000*%
%ADD18RoundRect,0.051000X0.850000X0.850000X-0.850000X0.850000X-0.850000X-0.850000X0.850000X-0.850000X0*%
%ADD19O,1.802000X1.802000*%
G04 APERTURE END LIST*
G36*
X121542482Y-76158641D02*
G01*
X121664159Y-76280318D01*
X121742281Y-76433641D01*
X121769200Y-76603600D01*
X121769200Y-76653600D01*
X121673708Y-76947493D01*
X121563093Y-77058108D01*
X121423708Y-77129128D01*
X121269200Y-77153600D01*
X121219200Y-77153600D01*
X120895918Y-77048559D01*
X120774241Y-76926882D01*
X120696119Y-76773559D01*
X120669200Y-76603600D01*
X120774241Y-76280318D01*
X120895918Y-76158641D01*
X121049241Y-76080519D01*
X121219200Y-76053600D01*
X121542482Y-76158641D01*
G37*
G36*
X120895918Y-80190641D02*
G01*
X121049241Y-80112519D01*
X121219200Y-80085600D01*
X121542482Y-80190641D01*
X121664159Y-80312318D01*
X121742281Y-80465641D01*
X121769200Y-80635600D01*
X121769200Y-80685600D01*
X121744729Y-80840109D01*
X121673709Y-80979493D01*
X121563092Y-81090109D01*
X121423708Y-81161129D01*
X121269199Y-81185600D01*
X121219200Y-81185600D01*
X120895918Y-81080558D01*
X120774241Y-80958881D01*
X120696119Y-80805558D01*
X120669200Y-80635600D01*
X120774241Y-80312318D01*
X120895918Y-80190641D01*
G37*
G36*
X128653084Y-85268631D02*
G01*
X128842690Y-85387769D01*
X129001031Y-85546110D01*
X129120169Y-85735716D01*
X129194128Y-85947079D01*
X129219200Y-86169600D01*
X129120169Y-86603484D01*
X129001031Y-86793090D01*
X128842690Y-86951431D01*
X128653084Y-87070569D01*
X128441721Y-87144528D01*
X128219200Y-87169600D01*
X127785316Y-87070569D01*
X127595710Y-86951431D01*
X127437369Y-86793090D01*
X127318231Y-86603484D01*
X127244272Y-86392121D01*
X127219200Y-86169600D01*
X127318231Y-85735716D01*
X127437369Y-85546110D01*
X127595710Y-85387769D01*
X127785316Y-85268631D01*
X127996679Y-85194672D01*
X128219200Y-85169600D01*
X128653084Y-85268631D01*
G37*
G36*
X136042482Y-77624641D02*
G01*
X136164159Y-77746318D01*
X136242281Y-77899641D01*
X136269200Y-78069600D01*
X136269200Y-78119600D01*
X136173708Y-78413493D01*
X136063093Y-78524108D01*
X135923708Y-78595128D01*
X135769200Y-78619600D01*
X135719200Y-78619600D01*
X135395918Y-78514559D01*
X135274241Y-78392882D01*
X135196119Y-78239559D01*
X135169200Y-78069600D01*
X135274241Y-77746318D01*
X135395918Y-77624641D01*
X135549241Y-77546519D01*
X135719200Y-77519600D01*
X136042482Y-77624641D01*
G37*
G36*
X128653084Y-74168631D02*
G01*
X128842690Y-74287769D01*
X129001031Y-74446110D01*
X129120169Y-74635716D01*
X129194128Y-74847079D01*
X129219200Y-75069600D01*
X129120169Y-75503484D01*
X129001031Y-75693090D01*
X128842690Y-75851431D01*
X128653084Y-75970569D01*
X128441721Y-76044528D01*
X128219200Y-76069600D01*
X127785316Y-75970569D01*
X127595710Y-75851431D01*
X127437369Y-75693090D01*
X127318231Y-75503484D01*
X127244272Y-75292121D01*
X127219200Y-75069600D01*
X127318231Y-74635716D01*
X127437369Y-74446110D01*
X127595710Y-74287769D01*
X127785316Y-74168631D01*
X127996679Y-74094672D01*
X128219200Y-74069600D01*
X128653084Y-74168631D01*
G37*
G36*
X121542482Y-82190641D02*
G01*
X121664159Y-82312318D01*
X121742281Y-82465641D01*
X121769200Y-82635600D01*
X121769200Y-82685600D01*
X121673708Y-82979493D01*
X121563093Y-83090108D01*
X121423708Y-83161128D01*
X121269200Y-83185600D01*
X121219200Y-83185600D01*
X120895918Y-83080559D01*
X120774241Y-82958882D01*
X120696119Y-82805559D01*
X120669200Y-82635600D01*
X120774241Y-82312318D01*
X120895918Y-82190641D01*
X121049241Y-82112519D01*
X121219200Y-82085600D01*
X121542482Y-82190641D01*
G37*
G36*
X121542482Y-78190641D02*
G01*
X121664159Y-78312318D01*
X121742281Y-78465641D01*
X121769200Y-78635600D01*
X121769200Y-78685600D01*
X121673708Y-78979493D01*
X121563093Y-79090108D01*
X121423708Y-79161128D01*
X121269200Y-79185600D01*
X121219200Y-79185600D01*
X120895918Y-79080559D01*
X120774241Y-78958882D01*
X120696119Y-78805559D01*
X120669200Y-78635600D01*
X120774241Y-78312318D01*
X120895918Y-78190641D01*
X121049241Y-78112519D01*
X121219200Y-78085600D01*
X121542482Y-78190641D01*
G37*
G36*
X136042482Y-80174641D02*
G01*
X136164159Y-80296318D01*
X136242281Y-80449641D01*
X136269200Y-80619600D01*
X136269200Y-80669600D01*
X136244729Y-80824109D01*
X136173709Y-80963493D01*
X136063092Y-81074109D01*
X135923708Y-81145129D01*
X135769199Y-81169600D01*
X135719200Y-81169600D01*
X135395918Y-81064559D01*
X135274241Y-80942882D01*
X135196119Y-80789559D01*
X135169200Y-80619600D01*
X135274241Y-80296318D01*
X135395918Y-80174641D01*
X135549241Y-80096519D01*
X135719200Y-80069600D01*
X136042482Y-80174641D01*
G37*
G36*
X136042482Y-82674641D02*
G01*
X136164159Y-82796318D01*
X136242281Y-82949641D01*
X136269200Y-83119600D01*
X136269200Y-83169600D01*
X136173708Y-83463493D01*
X136063093Y-83574108D01*
X135923708Y-83645128D01*
X135769200Y-83669600D01*
X135719200Y-83669600D01*
X135395918Y-83564559D01*
X135274241Y-83442882D01*
X135196119Y-83289559D01*
X135169200Y-83119600D01*
X135274241Y-82796318D01*
X135395918Y-82674641D01*
X135549241Y-82596519D01*
X135719200Y-82569600D01*
X136042482Y-82674641D01*
G37*
G36*
X121542482Y-84190641D02*
G01*
X121664159Y-84312318D01*
X121742281Y-84465641D01*
X121769200Y-84635600D01*
X121769200Y-84685600D01*
X121673708Y-84979493D01*
X121563093Y-85090108D01*
X121423708Y-85161128D01*
X121269200Y-85185600D01*
X121219200Y-85185600D01*
X120895918Y-85080559D01*
X120774241Y-84958882D01*
X120696119Y-84805559D01*
X120669200Y-84635600D01*
X120774241Y-84312318D01*
X120895918Y-84190641D01*
X121049241Y-84112519D01*
X121219200Y-84085600D01*
X121542482Y-84190641D01*
G37*
G36*
X128653084Y-40336031D02*
G01*
X128842690Y-40455169D01*
X129001031Y-40613510D01*
X129120169Y-40803116D01*
X129194128Y-41014479D01*
X129219200Y-41237000D01*
X129120169Y-41670884D01*
X129001031Y-41860490D01*
X128842690Y-42018831D01*
X128653084Y-42137969D01*
X128441721Y-42211928D01*
X128219200Y-42237000D01*
X127785316Y-42137969D01*
X127595710Y-42018831D01*
X127437369Y-41860490D01*
X127318231Y-41670884D01*
X127244272Y-41459521D01*
X127219200Y-41237000D01*
X127318231Y-40803116D01*
X127437369Y-40613510D01*
X127595710Y-40455169D01*
X127785316Y-40336031D01*
X127996679Y-40262072D01*
X128219200Y-40237000D01*
X128653084Y-40336031D01*
G37*
G36*
X128653084Y-29236031D02*
G01*
X128842690Y-29355169D01*
X129001031Y-29513510D01*
X129120169Y-29703116D01*
X129194128Y-29914479D01*
X129219200Y-30137000D01*
X129120169Y-30570884D01*
X129001031Y-30760490D01*
X128842690Y-30918831D01*
X128653084Y-31037969D01*
X128441721Y-31111928D01*
X128219200Y-31137000D01*
X127785316Y-31037969D01*
X127595710Y-30918831D01*
X127437369Y-30760490D01*
X127318231Y-30570884D01*
X127244272Y-30359521D01*
X127219200Y-30137000D01*
X127318231Y-29703116D01*
X127437369Y-29513510D01*
X127595710Y-29355169D01*
X127785316Y-29236031D01*
X127996679Y-29162072D01*
X128219200Y-29137000D01*
X128653084Y-29236031D01*
G37*
G36*
X120895918Y-35258041D02*
G01*
X121049241Y-35179919D01*
X121219200Y-35153000D01*
X121542482Y-35258041D01*
X121664159Y-35379718D01*
X121742281Y-35533041D01*
X121769200Y-35703000D01*
X121769200Y-35753000D01*
X121744729Y-35907509D01*
X121673709Y-36046893D01*
X121563092Y-36157509D01*
X121423708Y-36228529D01*
X121269199Y-36253000D01*
X121219200Y-36253000D01*
X120895918Y-36147958D01*
X120774241Y-36026281D01*
X120696119Y-35872958D01*
X120669200Y-35703000D01*
X120774241Y-35379718D01*
X120895918Y-35258041D01*
G37*
G36*
X136042482Y-37742041D02*
G01*
X136164159Y-37863718D01*
X136242281Y-38017041D01*
X136269200Y-38187000D01*
X136269200Y-38237000D01*
X136173708Y-38530893D01*
X136063093Y-38641508D01*
X135923708Y-38712528D01*
X135769200Y-38737000D01*
X135719200Y-38737000D01*
X135395918Y-38631959D01*
X135274241Y-38510282D01*
X135196119Y-38356959D01*
X135169200Y-38187000D01*
X135274241Y-37863718D01*
X135395918Y-37742041D01*
X135549241Y-37663919D01*
X135719200Y-37637000D01*
X136042482Y-37742041D01*
G37*
G36*
X136042482Y-32692041D02*
G01*
X136164159Y-32813718D01*
X136242281Y-32967041D01*
X136269200Y-33137000D01*
X136269200Y-33187000D01*
X136173708Y-33480893D01*
X136063093Y-33591508D01*
X135923708Y-33662528D01*
X135769200Y-33687000D01*
X135719200Y-33687000D01*
X135395918Y-33581959D01*
X135274241Y-33460282D01*
X135196119Y-33306959D01*
X135169200Y-33137000D01*
X135274241Y-32813718D01*
X135395918Y-32692041D01*
X135549241Y-32613919D01*
X135719200Y-32587000D01*
X136042482Y-32692041D01*
G37*
G36*
X121542482Y-39258041D02*
G01*
X121664159Y-39379718D01*
X121742281Y-39533041D01*
X121769200Y-39703000D01*
X121769200Y-39753000D01*
X121673708Y-40046893D01*
X121563093Y-40157508D01*
X121423708Y-40228528D01*
X121269200Y-40253000D01*
X121219200Y-40253000D01*
X120895918Y-40147959D01*
X120774241Y-40026282D01*
X120696119Y-39872959D01*
X120669200Y-39703000D01*
X120774241Y-39379718D01*
X120895918Y-39258041D01*
X121049241Y-39179919D01*
X121219200Y-39153000D01*
X121542482Y-39258041D01*
G37*
G36*
X121542482Y-31226041D02*
G01*
X121664159Y-31347718D01*
X121742281Y-31501041D01*
X121769200Y-31671000D01*
X121769200Y-31721000D01*
X121673708Y-32014893D01*
X121563093Y-32125508D01*
X121423708Y-32196528D01*
X121269200Y-32221000D01*
X121219200Y-32221000D01*
X120895918Y-32115959D01*
X120774241Y-31994282D01*
X120696119Y-31840959D01*
X120669200Y-31671000D01*
X120774241Y-31347718D01*
X120895918Y-31226041D01*
X121049241Y-31147919D01*
X121219200Y-31121000D01*
X121542482Y-31226041D01*
G37*
G36*
X136042482Y-35242041D02*
G01*
X136164159Y-35363718D01*
X136242281Y-35517041D01*
X136269200Y-35687000D01*
X136269200Y-35737000D01*
X136244729Y-35891509D01*
X136173709Y-36030893D01*
X136063092Y-36141509D01*
X135923708Y-36212529D01*
X135769199Y-36237000D01*
X135719200Y-36237000D01*
X135395918Y-36131959D01*
X135274241Y-36010282D01*
X135196119Y-35856959D01*
X135169200Y-35687000D01*
X135274241Y-35363718D01*
X135395918Y-35242041D01*
X135549241Y-35163919D01*
X135719200Y-35137000D01*
X136042482Y-35242041D01*
G37*
G36*
X121542482Y-33258041D02*
G01*
X121664159Y-33379718D01*
X121742281Y-33533041D01*
X121769200Y-33703000D01*
X121769200Y-33753000D01*
X121673708Y-34046893D01*
X121563093Y-34157508D01*
X121423708Y-34228528D01*
X121269200Y-34253000D01*
X121219200Y-34253000D01*
X120895918Y-34147959D01*
X120774241Y-34026282D01*
X120696119Y-33872959D01*
X120669200Y-33703000D01*
X120774241Y-33379718D01*
X120895918Y-33258041D01*
X121049241Y-33179919D01*
X121219200Y-33153000D01*
X121542482Y-33258041D01*
G37*
G36*
X121542482Y-37258041D02*
G01*
X121664159Y-37379718D01*
X121742281Y-37533041D01*
X121769200Y-37703000D01*
X121769200Y-37753000D01*
X121673708Y-38046893D01*
X121563093Y-38157508D01*
X121423708Y-38228528D01*
X121269200Y-38253000D01*
X121219200Y-38253000D01*
X120895918Y-38147959D01*
X120774241Y-38026282D01*
X120696119Y-37872959D01*
X120669200Y-37703000D01*
X120774241Y-37379718D01*
X120895918Y-37258041D01*
X121049241Y-37179919D01*
X121219200Y-37153000D01*
X121542482Y-37258041D01*
G37*
G36*
X165828518Y-35258041D02*
G01*
X165981841Y-35179919D01*
X166151800Y-35153000D01*
X166475082Y-35258041D01*
X166596759Y-35379718D01*
X166674881Y-35533041D01*
X166701800Y-35703000D01*
X166701800Y-35753000D01*
X166677329Y-35907509D01*
X166606309Y-36046893D01*
X166495692Y-36157509D01*
X166356308Y-36228529D01*
X166201799Y-36253000D01*
X166151800Y-36253000D01*
X165828518Y-36147958D01*
X165706841Y-36026281D01*
X165628719Y-35872958D01*
X165601800Y-35703000D01*
X165706841Y-35379718D01*
X165828518Y-35258041D01*
G37*
G36*
X180975082Y-37742041D02*
G01*
X181096759Y-37863718D01*
X181174881Y-38017041D01*
X181201800Y-38187000D01*
X181201800Y-38237000D01*
X181106308Y-38530893D01*
X180995693Y-38641508D01*
X180856308Y-38712528D01*
X180701800Y-38737000D01*
X180651800Y-38737000D01*
X180328518Y-38631959D01*
X180206841Y-38510282D01*
X180128719Y-38356959D01*
X180101800Y-38187000D01*
X180206841Y-37863718D01*
X180328518Y-37742041D01*
X180481841Y-37663919D01*
X180651800Y-37637000D01*
X180975082Y-37742041D01*
G37*
G36*
X166475082Y-39258041D02*
G01*
X166596759Y-39379718D01*
X166674881Y-39533041D01*
X166701800Y-39703000D01*
X166701800Y-39753000D01*
X166606308Y-40046893D01*
X166495693Y-40157508D01*
X166356308Y-40228528D01*
X166201800Y-40253000D01*
X166151800Y-40253000D01*
X165828518Y-40147959D01*
X165706841Y-40026282D01*
X165628719Y-39872959D01*
X165601800Y-39703000D01*
X165706841Y-39379718D01*
X165828518Y-39258041D01*
X165981841Y-39179919D01*
X166151800Y-39153000D01*
X166475082Y-39258041D01*
G37*
G36*
X180975082Y-35242041D02*
G01*
X181096759Y-35363718D01*
X181174881Y-35517041D01*
X181201800Y-35687000D01*
X181201800Y-35737000D01*
X181177329Y-35891509D01*
X181106309Y-36030893D01*
X180995692Y-36141509D01*
X180856308Y-36212529D01*
X180701799Y-36237000D01*
X180651800Y-36237000D01*
X180328518Y-36131959D01*
X180206841Y-36010282D01*
X180128719Y-35856959D01*
X180101800Y-35687000D01*
X180206841Y-35363718D01*
X180328518Y-35242041D01*
X180481841Y-35163919D01*
X180651800Y-35137000D01*
X180975082Y-35242041D01*
G37*
G36*
X166475082Y-33258041D02*
G01*
X166596759Y-33379718D01*
X166674881Y-33533041D01*
X166701800Y-33703000D01*
X166701800Y-33753000D01*
X166606308Y-34046893D01*
X166495693Y-34157508D01*
X166356308Y-34228528D01*
X166201800Y-34253000D01*
X166151800Y-34253000D01*
X165828518Y-34147959D01*
X165706841Y-34026282D01*
X165628719Y-33872959D01*
X165601800Y-33703000D01*
X165706841Y-33379718D01*
X165828518Y-33258041D01*
X165981841Y-33179919D01*
X166151800Y-33153000D01*
X166475082Y-33258041D01*
G37*
G36*
X173585684Y-40336031D02*
G01*
X173775290Y-40455169D01*
X173933631Y-40613510D01*
X174052769Y-40803116D01*
X174126728Y-41014479D01*
X174151800Y-41237000D01*
X174052769Y-41670884D01*
X173933631Y-41860490D01*
X173775290Y-42018831D01*
X173585684Y-42137969D01*
X173374321Y-42211928D01*
X173151800Y-42237000D01*
X172717916Y-42137969D01*
X172528310Y-42018831D01*
X172369969Y-41860490D01*
X172250831Y-41670884D01*
X172176872Y-41459521D01*
X172151800Y-41237000D01*
X172250831Y-40803116D01*
X172369969Y-40613510D01*
X172528310Y-40455169D01*
X172717916Y-40336031D01*
X172929279Y-40262072D01*
X173151800Y-40237000D01*
X173585684Y-40336031D01*
G37*
G36*
X180975082Y-32692041D02*
G01*
X181096759Y-32813718D01*
X181174881Y-32967041D01*
X181201800Y-33137000D01*
X181201800Y-33187000D01*
X181106308Y-33480893D01*
X180995693Y-33591508D01*
X180856308Y-33662528D01*
X180701800Y-33687000D01*
X180651800Y-33687000D01*
X180328518Y-33581959D01*
X180206841Y-33460282D01*
X180128719Y-33306959D01*
X180101800Y-33137000D01*
X180206841Y-32813718D01*
X180328518Y-32692041D01*
X180481841Y-32613919D01*
X180651800Y-32587000D01*
X180975082Y-32692041D01*
G37*
G36*
X173585684Y-29236031D02*
G01*
X173775290Y-29355169D01*
X173933631Y-29513510D01*
X174052769Y-29703116D01*
X174126728Y-29914479D01*
X174151800Y-30137000D01*
X174052769Y-30570884D01*
X173933631Y-30760490D01*
X173775290Y-30918831D01*
X173585684Y-31037969D01*
X173374321Y-31111928D01*
X173151800Y-31137000D01*
X172717916Y-31037969D01*
X172528310Y-30918831D01*
X172369969Y-30760490D01*
X172250831Y-30570884D01*
X172176872Y-30359521D01*
X172151800Y-30137000D01*
X172250831Y-29703116D01*
X172369969Y-29513510D01*
X172528310Y-29355169D01*
X172717916Y-29236031D01*
X172929279Y-29162072D01*
X173151800Y-29137000D01*
X173585684Y-29236031D01*
G37*
G36*
X166475082Y-37258041D02*
G01*
X166596759Y-37379718D01*
X166674881Y-37533041D01*
X166701800Y-37703000D01*
X166701800Y-37753000D01*
X166606308Y-38046893D01*
X166495693Y-38157508D01*
X166356308Y-38228528D01*
X166201800Y-38253000D01*
X166151800Y-38253000D01*
X165828518Y-38147959D01*
X165706841Y-38026282D01*
X165628719Y-37872959D01*
X165601800Y-37703000D01*
X165706841Y-37379718D01*
X165828518Y-37258041D01*
X165981841Y-37179919D01*
X166151800Y-37153000D01*
X166475082Y-37258041D01*
G37*
G36*
X166475082Y-31226041D02*
G01*
X166596759Y-31347718D01*
X166674881Y-31501041D01*
X166701800Y-31671000D01*
X166701800Y-31721000D01*
X166606308Y-32014893D01*
X166495693Y-32125508D01*
X166356308Y-32196528D01*
X166201800Y-32221000D01*
X166151800Y-32221000D01*
X165828518Y-32115959D01*
X165706841Y-31994282D01*
X165628719Y-31840959D01*
X165601800Y-31671000D01*
X165706841Y-31347718D01*
X165828518Y-31226041D01*
X165981841Y-31147919D01*
X166151800Y-31121000D01*
X166475082Y-31226041D01*
G37*
G36*
X173585684Y-74168631D02*
G01*
X173775290Y-74287769D01*
X173933631Y-74446110D01*
X174052769Y-74635716D01*
X174126728Y-74847079D01*
X174151800Y-75069600D01*
X174052769Y-75503484D01*
X173933631Y-75693090D01*
X173775290Y-75851431D01*
X173585684Y-75970569D01*
X173374321Y-76044528D01*
X173151800Y-76069600D01*
X172717916Y-75970569D01*
X172528310Y-75851431D01*
X172369969Y-75693090D01*
X172250831Y-75503484D01*
X172176872Y-75292121D01*
X172151800Y-75069600D01*
X172250831Y-74635716D01*
X172369969Y-74446110D01*
X172528310Y-74287769D01*
X172717916Y-74168631D01*
X172929279Y-74094672D01*
X173151800Y-74069600D01*
X173585684Y-74168631D01*
G37*
G36*
X173585684Y-85268631D02*
G01*
X173775290Y-85387769D01*
X173933631Y-85546110D01*
X174052769Y-85735716D01*
X174126728Y-85947079D01*
X174151800Y-86169600D01*
X174052769Y-86603484D01*
X173933631Y-86793090D01*
X173775290Y-86951431D01*
X173585684Y-87070569D01*
X173374321Y-87144528D01*
X173151800Y-87169600D01*
X172717916Y-87070569D01*
X172528310Y-86951431D01*
X172369969Y-86793090D01*
X172250831Y-86603484D01*
X172176872Y-86392121D01*
X172151800Y-86169600D01*
X172250831Y-85735716D01*
X172369969Y-85546110D01*
X172528310Y-85387769D01*
X172717916Y-85268631D01*
X172929279Y-85194672D01*
X173151800Y-85169600D01*
X173585684Y-85268631D01*
G37*
G36*
X180975082Y-82674641D02*
G01*
X181096759Y-82796318D01*
X181174881Y-82949641D01*
X181201800Y-83119600D01*
X181201800Y-83169600D01*
X181106308Y-83463493D01*
X180995693Y-83574108D01*
X180856308Y-83645128D01*
X180701800Y-83669600D01*
X180651800Y-83669600D01*
X180328518Y-83564559D01*
X180206841Y-83442882D01*
X180128719Y-83289559D01*
X180101800Y-83119600D01*
X180206841Y-82796318D01*
X180328518Y-82674641D01*
X180481841Y-82596519D01*
X180651800Y-82569600D01*
X180975082Y-82674641D01*
G37*
G36*
X166475082Y-84190641D02*
G01*
X166596759Y-84312318D01*
X166674881Y-84465641D01*
X166701800Y-84635600D01*
X166701800Y-84685600D01*
X166606308Y-84979493D01*
X166495693Y-85090108D01*
X166356308Y-85161128D01*
X166201800Y-85185600D01*
X166151800Y-85185600D01*
X165828518Y-85080559D01*
X165706841Y-84958882D01*
X165628719Y-84805559D01*
X165601800Y-84635600D01*
X165706841Y-84312318D01*
X165828518Y-84190641D01*
X165981841Y-84112519D01*
X166151800Y-84085600D01*
X166475082Y-84190641D01*
G37*
G36*
X166475082Y-76158641D02*
G01*
X166596759Y-76280318D01*
X166674881Y-76433641D01*
X166701800Y-76603600D01*
X166701800Y-76653600D01*
X166606308Y-76947493D01*
X166495693Y-77058108D01*
X166356308Y-77129128D01*
X166201800Y-77153600D01*
X166151800Y-77153600D01*
X165828518Y-77048559D01*
X165706841Y-76926882D01*
X165628719Y-76773559D01*
X165601800Y-76603600D01*
X165706841Y-76280318D01*
X165828518Y-76158641D01*
X165981841Y-76080519D01*
X166151800Y-76053600D01*
X166475082Y-76158641D01*
G37*
G36*
X165828518Y-80190641D02*
G01*
X165981841Y-80112519D01*
X166151800Y-80085600D01*
X166475082Y-80190641D01*
X166596759Y-80312318D01*
X166674881Y-80465641D01*
X166701800Y-80635600D01*
X166701800Y-80685600D01*
X166677329Y-80840109D01*
X166606309Y-80979493D01*
X166495692Y-81090109D01*
X166356308Y-81161129D01*
X166201799Y-81185600D01*
X166151800Y-81185600D01*
X165828518Y-81080558D01*
X165706841Y-80958881D01*
X165628719Y-80805558D01*
X165601800Y-80635600D01*
X165706841Y-80312318D01*
X165828518Y-80190641D01*
G37*
G36*
X180975082Y-80174641D02*
G01*
X181096759Y-80296318D01*
X181174881Y-80449641D01*
X181201800Y-80619600D01*
X181201800Y-80669600D01*
X181177329Y-80824109D01*
X181106309Y-80963493D01*
X180995692Y-81074109D01*
X180856308Y-81145129D01*
X180701799Y-81169600D01*
X180651800Y-81169600D01*
X180328518Y-81064559D01*
X180206841Y-80942882D01*
X180128719Y-80789559D01*
X180101800Y-80619600D01*
X180206841Y-80296318D01*
X180328518Y-80174641D01*
X180481841Y-80096519D01*
X180651800Y-80069600D01*
X180975082Y-80174641D01*
G37*
G36*
X180975082Y-77624641D02*
G01*
X181096759Y-77746318D01*
X181174881Y-77899641D01*
X181201800Y-78069600D01*
X181201800Y-78119600D01*
X181106308Y-78413493D01*
X180995693Y-78524108D01*
X180856308Y-78595128D01*
X180701800Y-78619600D01*
X180651800Y-78619600D01*
X180328518Y-78514559D01*
X180206841Y-78392882D01*
X180128719Y-78239559D01*
X180101800Y-78069600D01*
X180206841Y-77746318D01*
X180328518Y-77624641D01*
X180481841Y-77546519D01*
X180651800Y-77519600D01*
X180975082Y-77624641D01*
G37*
G36*
X166475082Y-78190641D02*
G01*
X166596759Y-78312318D01*
X166674881Y-78465641D01*
X166701800Y-78635600D01*
X166701800Y-78685600D01*
X166606308Y-78979493D01*
X166495693Y-79090108D01*
X166356308Y-79161128D01*
X166201800Y-79185600D01*
X166151800Y-79185600D01*
X165828518Y-79080559D01*
X165706841Y-78958882D01*
X165628719Y-78805559D01*
X165601800Y-78635600D01*
X165706841Y-78312318D01*
X165828518Y-78190641D01*
X165981841Y-78112519D01*
X166151800Y-78085600D01*
X166475082Y-78190641D01*
G37*
G36*
X166475082Y-82190641D02*
G01*
X166596759Y-82312318D01*
X166674881Y-82465641D01*
X166701800Y-82635600D01*
X166701800Y-82685600D01*
X166606308Y-82979493D01*
X166495693Y-83090108D01*
X166356308Y-83161128D01*
X166201800Y-83185600D01*
X166151800Y-83185600D01*
X165828518Y-83080559D01*
X165706841Y-82958882D01*
X165628719Y-82805559D01*
X165601800Y-82635600D01*
X165706841Y-82312318D01*
X165828518Y-82190641D01*
X165981841Y-82112519D01*
X166151800Y-82085600D01*
X166475082Y-82190641D01*
G37*
G36*
X121542482Y-76158641D02*
G01*
X121664159Y-76280318D01*
X121742281Y-76433641D01*
X121769200Y-76603600D01*
X121769200Y-76653600D01*
X121673708Y-76947493D01*
X121563093Y-77058108D01*
X121423708Y-77129128D01*
X121269200Y-77153600D01*
X121219200Y-77153600D01*
X120895918Y-77048559D01*
X120774241Y-76926882D01*
X120696119Y-76773559D01*
X120669200Y-76603600D01*
X120774241Y-76280318D01*
X120895918Y-76158641D01*
X121049241Y-76080519D01*
X121219200Y-76053600D01*
X121542482Y-76158641D01*
G37*
G36*
X120895918Y-80190641D02*
G01*
X121049241Y-80112519D01*
X121219200Y-80085600D01*
X121542482Y-80190641D01*
X121664159Y-80312318D01*
X121742281Y-80465641D01*
X121769200Y-80635600D01*
X121769200Y-80685600D01*
X121744729Y-80840109D01*
X121673709Y-80979493D01*
X121563092Y-81090109D01*
X121423708Y-81161129D01*
X121269199Y-81185600D01*
X121219200Y-81185600D01*
X120895918Y-81080558D01*
X120774241Y-80958881D01*
X120696119Y-80805558D01*
X120669200Y-80635600D01*
X120774241Y-80312318D01*
X120895918Y-80190641D01*
G37*
G36*
X128653084Y-85268631D02*
G01*
X128842690Y-85387769D01*
X129001031Y-85546110D01*
X129120169Y-85735716D01*
X129194128Y-85947079D01*
X129219200Y-86169600D01*
X129120169Y-86603484D01*
X129001031Y-86793090D01*
X128842690Y-86951431D01*
X128653084Y-87070569D01*
X128441721Y-87144528D01*
X128219200Y-87169600D01*
X127785316Y-87070569D01*
X127595710Y-86951431D01*
X127437369Y-86793090D01*
X127318231Y-86603484D01*
X127244272Y-86392121D01*
X127219200Y-86169600D01*
X127318231Y-85735716D01*
X127437369Y-85546110D01*
X127595710Y-85387769D01*
X127785316Y-85268631D01*
X127996679Y-85194672D01*
X128219200Y-85169600D01*
X128653084Y-85268631D01*
G37*
G36*
X136042482Y-77624641D02*
G01*
X136164159Y-77746318D01*
X136242281Y-77899641D01*
X136269200Y-78069600D01*
X136269200Y-78119600D01*
X136173708Y-78413493D01*
X136063093Y-78524108D01*
X135923708Y-78595128D01*
X135769200Y-78619600D01*
X135719200Y-78619600D01*
X135395918Y-78514559D01*
X135274241Y-78392882D01*
X135196119Y-78239559D01*
X135169200Y-78069600D01*
X135274241Y-77746318D01*
X135395918Y-77624641D01*
X135549241Y-77546519D01*
X135719200Y-77519600D01*
X136042482Y-77624641D01*
G37*
G36*
X128653084Y-74168631D02*
G01*
X128842690Y-74287769D01*
X129001031Y-74446110D01*
X129120169Y-74635716D01*
X129194128Y-74847079D01*
X129219200Y-75069600D01*
X129120169Y-75503484D01*
X129001031Y-75693090D01*
X128842690Y-75851431D01*
X128653084Y-75970569D01*
X128441721Y-76044528D01*
X128219200Y-76069600D01*
X127785316Y-75970569D01*
X127595710Y-75851431D01*
X127437369Y-75693090D01*
X127318231Y-75503484D01*
X127244272Y-75292121D01*
X127219200Y-75069600D01*
X127318231Y-74635716D01*
X127437369Y-74446110D01*
X127595710Y-74287769D01*
X127785316Y-74168631D01*
X127996679Y-74094672D01*
X128219200Y-74069600D01*
X128653084Y-74168631D01*
G37*
G36*
X121542482Y-82190641D02*
G01*
X121664159Y-82312318D01*
X121742281Y-82465641D01*
X121769200Y-82635600D01*
X121769200Y-82685600D01*
X121673708Y-82979493D01*
X121563093Y-83090108D01*
X121423708Y-83161128D01*
X121269200Y-83185600D01*
X121219200Y-83185600D01*
X120895918Y-83080559D01*
X120774241Y-82958882D01*
X120696119Y-82805559D01*
X120669200Y-82635600D01*
X120774241Y-82312318D01*
X120895918Y-82190641D01*
X121049241Y-82112519D01*
X121219200Y-82085600D01*
X121542482Y-82190641D01*
G37*
G36*
X121542482Y-78190641D02*
G01*
X121664159Y-78312318D01*
X121742281Y-78465641D01*
X121769200Y-78635600D01*
X121769200Y-78685600D01*
X121673708Y-78979493D01*
X121563093Y-79090108D01*
X121423708Y-79161128D01*
X121269200Y-79185600D01*
X121219200Y-79185600D01*
X120895918Y-79080559D01*
X120774241Y-78958882D01*
X120696119Y-78805559D01*
X120669200Y-78635600D01*
X120774241Y-78312318D01*
X120895918Y-78190641D01*
X121049241Y-78112519D01*
X121219200Y-78085600D01*
X121542482Y-78190641D01*
G37*
G36*
X136042482Y-80174641D02*
G01*
X136164159Y-80296318D01*
X136242281Y-80449641D01*
X136269200Y-80619600D01*
X136269200Y-80669600D01*
X136244729Y-80824109D01*
X136173709Y-80963493D01*
X136063092Y-81074109D01*
X135923708Y-81145129D01*
X135769199Y-81169600D01*
X135719200Y-81169600D01*
X135395918Y-81064559D01*
X135274241Y-80942882D01*
X135196119Y-80789559D01*
X135169200Y-80619600D01*
X135274241Y-80296318D01*
X135395918Y-80174641D01*
X135549241Y-80096519D01*
X135719200Y-80069600D01*
X136042482Y-80174641D01*
G37*
G36*
X136042482Y-82674641D02*
G01*
X136164159Y-82796318D01*
X136242281Y-82949641D01*
X136269200Y-83119600D01*
X136269200Y-83169600D01*
X136173708Y-83463493D01*
X136063093Y-83574108D01*
X135923708Y-83645128D01*
X135769200Y-83669600D01*
X135719200Y-83669600D01*
X135395918Y-83564559D01*
X135274241Y-83442882D01*
X135196119Y-83289559D01*
X135169200Y-83119600D01*
X135274241Y-82796318D01*
X135395918Y-82674641D01*
X135549241Y-82596519D01*
X135719200Y-82569600D01*
X136042482Y-82674641D01*
G37*
G36*
X121542482Y-84190641D02*
G01*
X121664159Y-84312318D01*
X121742281Y-84465641D01*
X121769200Y-84635600D01*
X121769200Y-84685600D01*
X121673708Y-84979493D01*
X121563093Y-85090108D01*
X121423708Y-85161128D01*
X121269200Y-85185600D01*
X121219200Y-85185600D01*
X120895918Y-85080559D01*
X120774241Y-84958882D01*
X120696119Y-84805559D01*
X120669200Y-84635600D01*
X120774241Y-84312318D01*
X120895918Y-84190641D01*
X121049241Y-84112519D01*
X121219200Y-84085600D01*
X121542482Y-84190641D01*
G37*
G36*
X128653084Y-40336031D02*
G01*
X128842690Y-40455169D01*
X129001031Y-40613510D01*
X129120169Y-40803116D01*
X129194128Y-41014479D01*
X129219200Y-41237000D01*
X129120169Y-41670884D01*
X129001031Y-41860490D01*
X128842690Y-42018831D01*
X128653084Y-42137969D01*
X128441721Y-42211928D01*
X128219200Y-42237000D01*
X127785316Y-42137969D01*
X127595710Y-42018831D01*
X127437369Y-41860490D01*
X127318231Y-41670884D01*
X127244272Y-41459521D01*
X127219200Y-41237000D01*
X127318231Y-40803116D01*
X127437369Y-40613510D01*
X127595710Y-40455169D01*
X127785316Y-40336031D01*
X127996679Y-40262072D01*
X128219200Y-40237000D01*
X128653084Y-40336031D01*
G37*
G36*
X128653084Y-29236031D02*
G01*
X128842690Y-29355169D01*
X129001031Y-29513510D01*
X129120169Y-29703116D01*
X129194128Y-29914479D01*
X129219200Y-30137000D01*
X129120169Y-30570884D01*
X129001031Y-30760490D01*
X128842690Y-30918831D01*
X128653084Y-31037969D01*
X128441721Y-31111928D01*
X128219200Y-31137000D01*
X127785316Y-31037969D01*
X127595710Y-30918831D01*
X127437369Y-30760490D01*
X127318231Y-30570884D01*
X127244272Y-30359521D01*
X127219200Y-30137000D01*
X127318231Y-29703116D01*
X127437369Y-29513510D01*
X127595710Y-29355169D01*
X127785316Y-29236031D01*
X127996679Y-29162072D01*
X128219200Y-29137000D01*
X128653084Y-29236031D01*
G37*
G36*
X120895918Y-35258041D02*
G01*
X121049241Y-35179919D01*
X121219200Y-35153000D01*
X121542482Y-35258041D01*
X121664159Y-35379718D01*
X121742281Y-35533041D01*
X121769200Y-35703000D01*
X121769200Y-35753000D01*
X121744729Y-35907509D01*
X121673709Y-36046893D01*
X121563092Y-36157509D01*
X121423708Y-36228529D01*
X121269199Y-36253000D01*
X121219200Y-36253000D01*
X120895918Y-36147958D01*
X120774241Y-36026281D01*
X120696119Y-35872958D01*
X120669200Y-35703000D01*
X120774241Y-35379718D01*
X120895918Y-35258041D01*
G37*
G36*
X136042482Y-37742041D02*
G01*
X136164159Y-37863718D01*
X136242281Y-38017041D01*
X136269200Y-38187000D01*
X136269200Y-38237000D01*
X136173708Y-38530893D01*
X136063093Y-38641508D01*
X135923708Y-38712528D01*
X135769200Y-38737000D01*
X135719200Y-38737000D01*
X135395918Y-38631959D01*
X135274241Y-38510282D01*
X135196119Y-38356959D01*
X135169200Y-38187000D01*
X135274241Y-37863718D01*
X135395918Y-37742041D01*
X135549241Y-37663919D01*
X135719200Y-37637000D01*
X136042482Y-37742041D01*
G37*
G36*
X136042482Y-32692041D02*
G01*
X136164159Y-32813718D01*
X136242281Y-32967041D01*
X136269200Y-33137000D01*
X136269200Y-33187000D01*
X136173708Y-33480893D01*
X136063093Y-33591508D01*
X135923708Y-33662528D01*
X135769200Y-33687000D01*
X135719200Y-33687000D01*
X135395918Y-33581959D01*
X135274241Y-33460282D01*
X135196119Y-33306959D01*
X135169200Y-33137000D01*
X135274241Y-32813718D01*
X135395918Y-32692041D01*
X135549241Y-32613919D01*
X135719200Y-32587000D01*
X136042482Y-32692041D01*
G37*
G36*
X121542482Y-39258041D02*
G01*
X121664159Y-39379718D01*
X121742281Y-39533041D01*
X121769200Y-39703000D01*
X121769200Y-39753000D01*
X121673708Y-40046893D01*
X121563093Y-40157508D01*
X121423708Y-40228528D01*
X121269200Y-40253000D01*
X121219200Y-40253000D01*
X120895918Y-40147959D01*
X120774241Y-40026282D01*
X120696119Y-39872959D01*
X120669200Y-39703000D01*
X120774241Y-39379718D01*
X120895918Y-39258041D01*
X121049241Y-39179919D01*
X121219200Y-39153000D01*
X121542482Y-39258041D01*
G37*
G36*
X121542482Y-31226041D02*
G01*
X121664159Y-31347718D01*
X121742281Y-31501041D01*
X121769200Y-31671000D01*
X121769200Y-31721000D01*
X121673708Y-32014893D01*
X121563093Y-32125508D01*
X121423708Y-32196528D01*
X121269200Y-32221000D01*
X121219200Y-32221000D01*
X120895918Y-32115959D01*
X120774241Y-31994282D01*
X120696119Y-31840959D01*
X120669200Y-31671000D01*
X120774241Y-31347718D01*
X120895918Y-31226041D01*
X121049241Y-31147919D01*
X121219200Y-31121000D01*
X121542482Y-31226041D01*
G37*
G36*
X136042482Y-35242041D02*
G01*
X136164159Y-35363718D01*
X136242281Y-35517041D01*
X136269200Y-35687000D01*
X136269200Y-35737000D01*
X136244729Y-35891509D01*
X136173709Y-36030893D01*
X136063092Y-36141509D01*
X135923708Y-36212529D01*
X135769199Y-36237000D01*
X135719200Y-36237000D01*
X135395918Y-36131959D01*
X135274241Y-36010282D01*
X135196119Y-35856959D01*
X135169200Y-35687000D01*
X135274241Y-35363718D01*
X135395918Y-35242041D01*
X135549241Y-35163919D01*
X135719200Y-35137000D01*
X136042482Y-35242041D01*
G37*
G36*
X121542482Y-33258041D02*
G01*
X121664159Y-33379718D01*
X121742281Y-33533041D01*
X121769200Y-33703000D01*
X121769200Y-33753000D01*
X121673708Y-34046893D01*
X121563093Y-34157508D01*
X121423708Y-34228528D01*
X121269200Y-34253000D01*
X121219200Y-34253000D01*
X120895918Y-34147959D01*
X120774241Y-34026282D01*
X120696119Y-33872959D01*
X120669200Y-33703000D01*
X120774241Y-33379718D01*
X120895918Y-33258041D01*
X121049241Y-33179919D01*
X121219200Y-33153000D01*
X121542482Y-33258041D01*
G37*
G36*
X121542482Y-37258041D02*
G01*
X121664159Y-37379718D01*
X121742281Y-37533041D01*
X121769200Y-37703000D01*
X121769200Y-37753000D01*
X121673708Y-38046893D01*
X121563093Y-38157508D01*
X121423708Y-38228528D01*
X121269200Y-38253000D01*
X121219200Y-38253000D01*
X120895918Y-38147959D01*
X120774241Y-38026282D01*
X120696119Y-37872959D01*
X120669200Y-37703000D01*
X120774241Y-37379718D01*
X120895918Y-37258041D01*
X121049241Y-37179919D01*
X121219200Y-37153000D01*
X121542482Y-37258041D01*
G37*
G36*
X165828518Y-35258041D02*
G01*
X165981841Y-35179919D01*
X166151800Y-35153000D01*
X166475082Y-35258041D01*
X166596759Y-35379718D01*
X166674881Y-35533041D01*
X166701800Y-35703000D01*
X166701800Y-35753000D01*
X166677329Y-35907509D01*
X166606309Y-36046893D01*
X166495692Y-36157509D01*
X166356308Y-36228529D01*
X166201799Y-36253000D01*
X166151800Y-36253000D01*
X165828518Y-36147958D01*
X165706841Y-36026281D01*
X165628719Y-35872958D01*
X165601800Y-35703000D01*
X165706841Y-35379718D01*
X165828518Y-35258041D01*
G37*
G36*
X180975082Y-37742041D02*
G01*
X181096759Y-37863718D01*
X181174881Y-38017041D01*
X181201800Y-38187000D01*
X181201800Y-38237000D01*
X181106308Y-38530893D01*
X180995693Y-38641508D01*
X180856308Y-38712528D01*
X180701800Y-38737000D01*
X180651800Y-38737000D01*
X180328518Y-38631959D01*
X180206841Y-38510282D01*
X180128719Y-38356959D01*
X180101800Y-38187000D01*
X180206841Y-37863718D01*
X180328518Y-37742041D01*
X180481841Y-37663919D01*
X180651800Y-37637000D01*
X180975082Y-37742041D01*
G37*
G36*
X166475082Y-39258041D02*
G01*
X166596759Y-39379718D01*
X166674881Y-39533041D01*
X166701800Y-39703000D01*
X166701800Y-39753000D01*
X166606308Y-40046893D01*
X166495693Y-40157508D01*
X166356308Y-40228528D01*
X166201800Y-40253000D01*
X166151800Y-40253000D01*
X165828518Y-40147959D01*
X165706841Y-40026282D01*
X165628719Y-39872959D01*
X165601800Y-39703000D01*
X165706841Y-39379718D01*
X165828518Y-39258041D01*
X165981841Y-39179919D01*
X166151800Y-39153000D01*
X166475082Y-39258041D01*
G37*
G36*
X180975082Y-35242041D02*
G01*
X181096759Y-35363718D01*
X181174881Y-35517041D01*
X181201800Y-35687000D01*
X181201800Y-35737000D01*
X181177329Y-35891509D01*
X181106309Y-36030893D01*
X180995692Y-36141509D01*
X180856308Y-36212529D01*
X180701799Y-36237000D01*
X180651800Y-36237000D01*
X180328518Y-36131959D01*
X180206841Y-36010282D01*
X180128719Y-35856959D01*
X180101800Y-35687000D01*
X180206841Y-35363718D01*
X180328518Y-35242041D01*
X180481841Y-35163919D01*
X180651800Y-35137000D01*
X180975082Y-35242041D01*
G37*
G36*
X166475082Y-33258041D02*
G01*
X166596759Y-33379718D01*
X166674881Y-33533041D01*
X166701800Y-33703000D01*
X166701800Y-33753000D01*
X166606308Y-34046893D01*
X166495693Y-34157508D01*
X166356308Y-34228528D01*
X166201800Y-34253000D01*
X166151800Y-34253000D01*
X165828518Y-34147959D01*
X165706841Y-34026282D01*
X165628719Y-33872959D01*
X165601800Y-33703000D01*
X165706841Y-33379718D01*
X165828518Y-33258041D01*
X165981841Y-33179919D01*
X166151800Y-33153000D01*
X166475082Y-33258041D01*
G37*
G36*
X173585684Y-40336031D02*
G01*
X173775290Y-40455169D01*
X173933631Y-40613510D01*
X174052769Y-40803116D01*
X174126728Y-41014479D01*
X174151800Y-41237000D01*
X174052769Y-41670884D01*
X173933631Y-41860490D01*
X173775290Y-42018831D01*
X173585684Y-42137969D01*
X173374321Y-42211928D01*
X173151800Y-42237000D01*
X172717916Y-42137969D01*
X172528310Y-42018831D01*
X172369969Y-41860490D01*
X172250831Y-41670884D01*
X172176872Y-41459521D01*
X172151800Y-41237000D01*
X172250831Y-40803116D01*
X172369969Y-40613510D01*
X172528310Y-40455169D01*
X172717916Y-40336031D01*
X172929279Y-40262072D01*
X173151800Y-40237000D01*
X173585684Y-40336031D01*
G37*
G36*
X180975082Y-32692041D02*
G01*
X181096759Y-32813718D01*
X181174881Y-32967041D01*
X181201800Y-33137000D01*
X181201800Y-33187000D01*
X181106308Y-33480893D01*
X180995693Y-33591508D01*
X180856308Y-33662528D01*
X180701800Y-33687000D01*
X180651800Y-33687000D01*
X180328518Y-33581959D01*
X180206841Y-33460282D01*
X180128719Y-33306959D01*
X180101800Y-33137000D01*
X180206841Y-32813718D01*
X180328518Y-32692041D01*
X180481841Y-32613919D01*
X180651800Y-32587000D01*
X180975082Y-32692041D01*
G37*
G36*
X173585684Y-29236031D02*
G01*
X173775290Y-29355169D01*
X173933631Y-29513510D01*
X174052769Y-29703116D01*
X174126728Y-29914479D01*
X174151800Y-30137000D01*
X174052769Y-30570884D01*
X173933631Y-30760490D01*
X173775290Y-30918831D01*
X173585684Y-31037969D01*
X173374321Y-31111928D01*
X173151800Y-31137000D01*
X172717916Y-31037969D01*
X172528310Y-30918831D01*
X172369969Y-30760490D01*
X172250831Y-30570884D01*
X172176872Y-30359521D01*
X172151800Y-30137000D01*
X172250831Y-29703116D01*
X172369969Y-29513510D01*
X172528310Y-29355169D01*
X172717916Y-29236031D01*
X172929279Y-29162072D01*
X173151800Y-29137000D01*
X173585684Y-29236031D01*
G37*
G36*
X166475082Y-37258041D02*
G01*
X166596759Y-37379718D01*
X166674881Y-37533041D01*
X166701800Y-37703000D01*
X166701800Y-37753000D01*
X166606308Y-38046893D01*
X166495693Y-38157508D01*
X166356308Y-38228528D01*
X166201800Y-38253000D01*
X166151800Y-38253000D01*
X165828518Y-38147959D01*
X165706841Y-38026282D01*
X165628719Y-37872959D01*
X165601800Y-37703000D01*
X165706841Y-37379718D01*
X165828518Y-37258041D01*
X165981841Y-37179919D01*
X166151800Y-37153000D01*
X166475082Y-37258041D01*
G37*
G36*
X166475082Y-31226041D02*
G01*
X166596759Y-31347718D01*
X166674881Y-31501041D01*
X166701800Y-31671000D01*
X166701800Y-31721000D01*
X166606308Y-32014893D01*
X166495693Y-32125508D01*
X166356308Y-32196528D01*
X166201800Y-32221000D01*
X166151800Y-32221000D01*
X165828518Y-32115959D01*
X165706841Y-31994282D01*
X165628719Y-31840959D01*
X165601800Y-31671000D01*
X165706841Y-31347718D01*
X165828518Y-31226041D01*
X165981841Y-31147919D01*
X166151800Y-31121000D01*
X166475082Y-31226041D01*
G37*
G36*
X173585684Y-74168631D02*
G01*
X173775290Y-74287769D01*
X173933631Y-74446110D01*
X174052769Y-74635716D01*
X174126728Y-74847079D01*
X174151800Y-75069600D01*
X174052769Y-75503484D01*
X173933631Y-75693090D01*
X173775290Y-75851431D01*
X173585684Y-75970569D01*
X173374321Y-76044528D01*
X173151800Y-76069600D01*
X172717916Y-75970569D01*
X172528310Y-75851431D01*
X172369969Y-75693090D01*
X172250831Y-75503484D01*
X172176872Y-75292121D01*
X172151800Y-75069600D01*
X172250831Y-74635716D01*
X172369969Y-74446110D01*
X172528310Y-74287769D01*
X172717916Y-74168631D01*
X172929279Y-74094672D01*
X173151800Y-74069600D01*
X173585684Y-74168631D01*
G37*
G36*
X173585684Y-85268631D02*
G01*
X173775290Y-85387769D01*
X173933631Y-85546110D01*
X174052769Y-85735716D01*
X174126728Y-85947079D01*
X174151800Y-86169600D01*
X174052769Y-86603484D01*
X173933631Y-86793090D01*
X173775290Y-86951431D01*
X173585684Y-87070569D01*
X173374321Y-87144528D01*
X173151800Y-87169600D01*
X172717916Y-87070569D01*
X172528310Y-86951431D01*
X172369969Y-86793090D01*
X172250831Y-86603484D01*
X172176872Y-86392121D01*
X172151800Y-86169600D01*
X172250831Y-85735716D01*
X172369969Y-85546110D01*
X172528310Y-85387769D01*
X172717916Y-85268631D01*
X172929279Y-85194672D01*
X173151800Y-85169600D01*
X173585684Y-85268631D01*
G37*
G36*
X180975082Y-82674641D02*
G01*
X181096759Y-82796318D01*
X181174881Y-82949641D01*
X181201800Y-83119600D01*
X181201800Y-83169600D01*
X181106308Y-83463493D01*
X180995693Y-83574108D01*
X180856308Y-83645128D01*
X180701800Y-83669600D01*
X180651800Y-83669600D01*
X180328518Y-83564559D01*
X180206841Y-83442882D01*
X180128719Y-83289559D01*
X180101800Y-83119600D01*
X180206841Y-82796318D01*
X180328518Y-82674641D01*
X180481841Y-82596519D01*
X180651800Y-82569600D01*
X180975082Y-82674641D01*
G37*
G36*
X166475082Y-84190641D02*
G01*
X166596759Y-84312318D01*
X166674881Y-84465641D01*
X166701800Y-84635600D01*
X166701800Y-84685600D01*
X166606308Y-84979493D01*
X166495693Y-85090108D01*
X166356308Y-85161128D01*
X166201800Y-85185600D01*
X166151800Y-85185600D01*
X165828518Y-85080559D01*
X165706841Y-84958882D01*
X165628719Y-84805559D01*
X165601800Y-84635600D01*
X165706841Y-84312318D01*
X165828518Y-84190641D01*
X165981841Y-84112519D01*
X166151800Y-84085600D01*
X166475082Y-84190641D01*
G37*
G36*
X166475082Y-76158641D02*
G01*
X166596759Y-76280318D01*
X166674881Y-76433641D01*
X166701800Y-76603600D01*
X166701800Y-76653600D01*
X166606308Y-76947493D01*
X166495693Y-77058108D01*
X166356308Y-77129128D01*
X166201800Y-77153600D01*
X166151800Y-77153600D01*
X165828518Y-77048559D01*
X165706841Y-76926882D01*
X165628719Y-76773559D01*
X165601800Y-76603600D01*
X165706841Y-76280318D01*
X165828518Y-76158641D01*
X165981841Y-76080519D01*
X166151800Y-76053600D01*
X166475082Y-76158641D01*
G37*
G36*
X165828518Y-80190641D02*
G01*
X165981841Y-80112519D01*
X166151800Y-80085600D01*
X166475082Y-80190641D01*
X166596759Y-80312318D01*
X166674881Y-80465641D01*
X166701800Y-80635600D01*
X166701800Y-80685600D01*
X166677329Y-80840109D01*
X166606309Y-80979493D01*
X166495692Y-81090109D01*
X166356308Y-81161129D01*
X166201799Y-81185600D01*
X166151800Y-81185600D01*
X165828518Y-81080558D01*
X165706841Y-80958881D01*
X165628719Y-80805558D01*
X165601800Y-80635600D01*
X165706841Y-80312318D01*
X165828518Y-80190641D01*
G37*
G36*
X180975082Y-80174641D02*
G01*
X181096759Y-80296318D01*
X181174881Y-80449641D01*
X181201800Y-80619600D01*
X181201800Y-80669600D01*
X181177329Y-80824109D01*
X181106309Y-80963493D01*
X180995692Y-81074109D01*
X180856308Y-81145129D01*
X180701799Y-81169600D01*
X180651800Y-81169600D01*
X180328518Y-81064559D01*
X180206841Y-80942882D01*
X180128719Y-80789559D01*
X180101800Y-80619600D01*
X180206841Y-80296318D01*
X180328518Y-80174641D01*
X180481841Y-80096519D01*
X180651800Y-80069600D01*
X180975082Y-80174641D01*
G37*
G36*
X180975082Y-77624641D02*
G01*
X181096759Y-77746318D01*
X181174881Y-77899641D01*
X181201800Y-78069600D01*
X181201800Y-78119600D01*
X181106308Y-78413493D01*
X180995693Y-78524108D01*
X180856308Y-78595128D01*
X180701800Y-78619600D01*
X180651800Y-78619600D01*
X180328518Y-78514559D01*
X180206841Y-78392882D01*
X180128719Y-78239559D01*
X180101800Y-78069600D01*
X180206841Y-77746318D01*
X180328518Y-77624641D01*
X180481841Y-77546519D01*
X180651800Y-77519600D01*
X180975082Y-77624641D01*
G37*
G36*
X166475082Y-78190641D02*
G01*
X166596759Y-78312318D01*
X166674881Y-78465641D01*
X166701800Y-78635600D01*
X166701800Y-78685600D01*
X166606308Y-78979493D01*
X166495693Y-79090108D01*
X166356308Y-79161128D01*
X166201800Y-79185600D01*
X166151800Y-79185600D01*
X165828518Y-79080559D01*
X165706841Y-78958882D01*
X165628719Y-78805559D01*
X165601800Y-78635600D01*
X165706841Y-78312318D01*
X165828518Y-78190641D01*
X165981841Y-78112519D01*
X166151800Y-78085600D01*
X166475082Y-78190641D01*
G37*
G36*
X166475082Y-82190641D02*
G01*
X166596759Y-82312318D01*
X166674881Y-82465641D01*
X166701800Y-82635600D01*
X166701800Y-82685600D01*
X166606308Y-82979493D01*
X166495693Y-83090108D01*
X166356308Y-83161128D01*
X166201800Y-83185600D01*
X166151800Y-83185600D01*
X165828518Y-83080559D01*
X165706841Y-82958882D01*
X165628719Y-82805559D01*
X165601800Y-82635600D01*
X165706841Y-82312318D01*
X165828518Y-82190641D01*
X165981841Y-82112519D01*
X166151800Y-82085600D01*
X166475082Y-82190641D01*
G37*
D10*
X144018000Y-113538000D03*
D11*
X144018000Y-118458000D03*
X144018000Y-110158000D03*
X144018000Y-107058000D03*
D10*
X170942000Y-113538000D03*
D11*
X170942000Y-118458000D03*
X170942000Y-110158000D03*
X170942000Y-107058000D03*
D10*
X157480000Y-113538000D03*
D11*
X157480000Y-118458000D03*
X157480000Y-110158000D03*
X157480000Y-107058000D03*
D10*
X130556000Y-113538000D03*
D11*
X130556000Y-118458000D03*
X130556000Y-110158000D03*
X130556000Y-107058000D03*
D12*
X144170400Y-48590200D03*
D13*
X142011400Y-48590200D03*
X139852400Y-48590200D03*
X137693400Y-48590200D03*
D12*
X144170400Y-67741800D03*
D13*
X142011400Y-67741800D03*
X139852400Y-67741800D03*
X137693400Y-67741800D03*
D12*
X153746200Y-58166000D03*
D13*
X151587200Y-58166000D03*
X149428200Y-58166000D03*
X147269200Y-58166000D03*
D12*
X153746200Y-80010000D03*
D13*
X151587200Y-80010000D03*
X149428200Y-80010000D03*
X147269200Y-80010000D03*
D12*
X163322000Y-48590200D03*
D13*
X161163000Y-48590200D03*
X159004000Y-48590200D03*
X156845000Y-48590200D03*
D12*
X163322000Y-67741800D03*
D13*
X161163000Y-67741800D03*
X159004000Y-67741800D03*
X156845000Y-67741800D03*
D12*
X175590200Y-58166000D03*
D13*
X173431200Y-58166000D03*
X171272200Y-58166000D03*
X169113200Y-58166000D03*
D12*
X153746200Y-36322000D03*
D13*
X151587200Y-36322000D03*
X149428200Y-36322000D03*
X147269200Y-36322000D03*
D12*
X131902200Y-58166000D03*
D13*
X129743200Y-58166000D03*
X127584200Y-58166000D03*
X125425200Y-58166000D03*
D10*
X144018000Y-128778000D03*
D11*
X144018000Y-133698000D03*
X144018000Y-125398000D03*
X144018000Y-122298000D03*
D10*
X117094000Y-98298000D03*
D11*
X117094000Y-103218000D03*
X117094000Y-94918000D03*
X117094000Y-91818000D03*
D14*
X121219200Y-84619600D03*
X121219200Y-82619600D03*
X121219200Y-80619600D03*
X121219200Y-78619600D03*
X121219200Y-76619600D03*
D13*
X135719200Y-83119600D03*
X135719200Y-78119600D03*
X135719200Y-80619600D03*
D15*
X128219200Y-86169600D03*
D16*
X128219200Y-75069600D03*
D10*
X157480000Y-128778000D03*
D11*
X157480000Y-133698000D03*
X157480000Y-125398000D03*
X157480000Y-122298000D03*
D14*
X121219200Y-39687000D03*
X121219200Y-37687000D03*
X121219200Y-35687000D03*
X121219200Y-33687000D03*
X121219200Y-31687000D03*
D13*
X135719200Y-38187000D03*
X135719200Y-33187000D03*
X135719200Y-35687000D03*
D15*
X128219200Y-41237000D03*
X128219200Y-30137000D03*
D14*
X166151800Y-39687000D03*
X166151800Y-37687000D03*
X166151800Y-35687000D03*
X166151800Y-33687000D03*
X166151800Y-31687000D03*
D13*
X180651800Y-38187000D03*
X180651800Y-33187000D03*
X180651800Y-35687000D03*
D16*
X173151800Y-41237000D03*
D15*
X173151800Y-30137000D03*
D14*
X166151800Y-84619600D03*
X166151800Y-82619600D03*
X166151800Y-80619600D03*
X166151800Y-78619600D03*
X166151800Y-76619600D03*
D13*
X180651800Y-83119600D03*
X180651800Y-78119600D03*
X180651800Y-80619600D03*
D15*
X173151800Y-86169600D03*
X173151800Y-75069600D03*
D10*
X117094000Y-113538000D03*
D11*
X117094000Y-118458000D03*
X117094000Y-110158000D03*
X117094000Y-107058000D03*
D10*
X117094000Y-128778000D03*
D11*
X117094000Y-133698000D03*
X117094000Y-125398000D03*
X117094000Y-122298000D03*
D10*
X130556000Y-128778000D03*
D11*
X130556000Y-133698000D03*
X130556000Y-125398000D03*
X130556000Y-122298000D03*
D10*
X130556000Y-98298000D03*
D11*
X130556000Y-103218000D03*
X130556000Y-94918000D03*
X130556000Y-91818000D03*
D10*
X144018000Y-98298000D03*
D11*
X144018000Y-103218000D03*
X144018000Y-94918000D03*
X144018000Y-91818000D03*
D10*
X157480000Y-98298000D03*
D11*
X157480000Y-103218000D03*
X157480000Y-94918000D03*
X157480000Y-91818000D03*
D10*
X171196000Y-98298000D03*
D11*
X171196000Y-103218000D03*
X171196000Y-94918000D03*
X171196000Y-91818000D03*
D10*
X184404000Y-98298000D03*
D11*
X184404000Y-103218000D03*
X184404000Y-94918000D03*
X184404000Y-91818000D03*
D10*
X184404000Y-128778000D03*
D11*
X184404000Y-133698000D03*
X184404000Y-125398000D03*
X184404000Y-122298000D03*
D17*
X123698000Y-121920000D03*
X177673000Y-121920000D03*
X114935000Y-31496000D03*
X186563000Y-31496000D03*
D10*
X184404000Y-113538000D03*
D11*
X184404000Y-118458000D03*
X184404000Y-110158000D03*
X184404000Y-107058000D03*
D10*
X170942000Y-128778000D03*
D11*
X170942000Y-133698000D03*
X170942000Y-125398000D03*
X170942000Y-122298000D03*
D18*
X113284000Y-41402000D03*
D19*
X113284000Y-43942000D03*
X113284000Y-46482000D03*
X113284000Y-49022000D03*
X113284000Y-51562000D03*
X113284000Y-54102000D03*
X113284000Y-56642000D03*
X113284000Y-59182000D03*
X113284000Y-61722000D03*
X113284000Y-64262000D03*
X113284000Y-66802000D03*
X113284000Y-69342000D03*
X113284000Y-71882000D03*
X113284000Y-74422000D03*
X113284000Y-76962000D03*
X113284000Y-79502000D03*
X113284000Y-82042000D03*
X113284000Y-84582000D03*
X113284000Y-87122000D03*
D18*
X188214000Y-41402000D03*
D19*
X188214000Y-43942000D03*
X188214000Y-46482000D03*
X188214000Y-49022000D03*
X188214000Y-51562000D03*
X188214000Y-54102000D03*
X188214000Y-56642000D03*
X188214000Y-59182000D03*
X188214000Y-61722000D03*
X188214000Y-64262000D03*
X188214000Y-66802000D03*
X188214000Y-69342000D03*
X188214000Y-71882000D03*
X188214000Y-74422000D03*
X188214000Y-76962000D03*
X188214000Y-79502000D03*
X188214000Y-82042000D03*
X188214000Y-84582000D03*
X188214000Y-87122000D03*
G36*
X121622730Y-83462164D02*
G01*
X121623543Y-83463991D01*
X121622456Y-83465567D01*
X121559812Y-83497211D01*
X121559448Y-83497352D01*
X121543069Y-83501925D01*
X121484056Y-83538749D01*
X121454448Y-83601360D01*
X121463390Y-83670037D01*
X121508143Y-83723096D01*
X121508894Y-83723452D01*
X121510031Y-83725097D01*
X121509175Y-83726904D01*
X121507622Y-83727215D01*
X121317248Y-83686749D01*
X121121152Y-83686749D01*
X120929345Y-83727519D01*
X120904264Y-83738686D01*
X120902275Y-83738477D01*
X120901462Y-83736650D01*
X120902369Y-83735177D01*
X120957948Y-83699408D01*
X120986679Y-83636389D01*
X120976779Y-83567845D01*
X120931667Y-83515851D01*
X120931288Y-83513887D01*
X120932798Y-83512576D01*
X120933594Y-83512584D01*
X121121152Y-83552451D01*
X121317248Y-83552451D01*
X121509055Y-83511681D01*
X121620741Y-83461955D01*
X121622730Y-83462164D01*
G37*
G36*
X166555330Y-83462164D02*
G01*
X166556143Y-83463991D01*
X166555056Y-83465567D01*
X166492412Y-83497211D01*
X166492048Y-83497352D01*
X166475669Y-83501925D01*
X166416656Y-83538749D01*
X166387048Y-83601360D01*
X166395990Y-83670037D01*
X166440743Y-83723096D01*
X166441494Y-83723452D01*
X166442631Y-83725097D01*
X166441775Y-83726904D01*
X166440222Y-83727215D01*
X166249848Y-83686749D01*
X166053752Y-83686749D01*
X165861945Y-83727519D01*
X165836864Y-83738686D01*
X165834875Y-83738477D01*
X165834062Y-83736650D01*
X165834969Y-83735177D01*
X165890548Y-83699408D01*
X165919279Y-83636389D01*
X165909379Y-83567845D01*
X165864267Y-83515851D01*
X165863888Y-83513887D01*
X165865398Y-83512576D01*
X165866194Y-83512584D01*
X166053752Y-83552451D01*
X166249848Y-83552451D01*
X166441655Y-83511681D01*
X166553341Y-83461955D01*
X166555330Y-83462164D01*
G37*
G36*
X121622730Y-81462164D02*
G01*
X121623543Y-81463991D01*
X121622456Y-81465567D01*
X121559812Y-81497211D01*
X121559448Y-81497352D01*
X121543069Y-81501925D01*
X121484056Y-81538749D01*
X121454448Y-81601360D01*
X121463390Y-81670037D01*
X121508143Y-81723096D01*
X121508894Y-81723452D01*
X121510031Y-81725097D01*
X121509175Y-81726904D01*
X121507622Y-81727215D01*
X121317248Y-81686749D01*
X121121152Y-81686749D01*
X120929345Y-81727519D01*
X120904264Y-81738686D01*
X120902275Y-81738477D01*
X120901462Y-81736650D01*
X120902369Y-81735177D01*
X120957948Y-81699408D01*
X120986679Y-81636389D01*
X120976779Y-81567845D01*
X120931667Y-81515851D01*
X120931288Y-81513887D01*
X120932798Y-81512576D01*
X120933594Y-81512584D01*
X121121152Y-81552451D01*
X121317248Y-81552451D01*
X121509055Y-81511681D01*
X121620741Y-81461955D01*
X121622730Y-81462164D01*
G37*
G36*
X166555330Y-81462164D02*
G01*
X166556143Y-81463991D01*
X166555056Y-81465567D01*
X166492412Y-81497211D01*
X166492048Y-81497352D01*
X166475669Y-81501925D01*
X166416656Y-81538749D01*
X166387048Y-81601360D01*
X166395990Y-81670037D01*
X166440743Y-81723096D01*
X166441494Y-81723452D01*
X166442631Y-81725097D01*
X166441775Y-81726904D01*
X166440222Y-81727215D01*
X166249848Y-81686749D01*
X166053752Y-81686749D01*
X165861945Y-81727519D01*
X165836864Y-81738686D01*
X165834875Y-81738477D01*
X165834062Y-81736650D01*
X165834969Y-81735177D01*
X165890548Y-81699408D01*
X165919279Y-81636389D01*
X165909379Y-81567845D01*
X165864267Y-81515851D01*
X165863888Y-81513887D01*
X165865398Y-81512576D01*
X165866194Y-81512584D01*
X166053752Y-81552451D01*
X166249848Y-81552451D01*
X166441655Y-81511681D01*
X166553341Y-81461955D01*
X166555330Y-81462164D01*
G37*
G36*
X121622730Y-79462164D02*
G01*
X121623543Y-79463991D01*
X121622456Y-79465567D01*
X121559812Y-79497211D01*
X121559448Y-79497352D01*
X121543069Y-79501925D01*
X121484056Y-79538749D01*
X121454448Y-79601360D01*
X121463390Y-79670037D01*
X121508143Y-79723096D01*
X121508894Y-79723452D01*
X121510031Y-79725097D01*
X121509175Y-79726904D01*
X121507622Y-79727215D01*
X121317248Y-79686749D01*
X121121152Y-79686749D01*
X120929345Y-79727519D01*
X120904264Y-79738686D01*
X120902275Y-79738477D01*
X120901462Y-79736650D01*
X120902369Y-79735177D01*
X120957948Y-79699408D01*
X120986679Y-79636389D01*
X120976779Y-79567845D01*
X120931667Y-79515851D01*
X120931288Y-79513887D01*
X120932798Y-79512576D01*
X120933594Y-79512584D01*
X121121152Y-79552451D01*
X121317248Y-79552451D01*
X121509055Y-79511681D01*
X121620741Y-79461955D01*
X121622730Y-79462164D01*
G37*
G36*
X166555330Y-79462164D02*
G01*
X166556143Y-79463991D01*
X166555056Y-79465567D01*
X166492412Y-79497211D01*
X166492048Y-79497352D01*
X166475669Y-79501925D01*
X166416656Y-79538749D01*
X166387048Y-79601360D01*
X166395990Y-79670037D01*
X166440743Y-79723096D01*
X166441494Y-79723452D01*
X166442631Y-79725097D01*
X166441775Y-79726904D01*
X166440222Y-79727215D01*
X166249848Y-79686749D01*
X166053752Y-79686749D01*
X165861945Y-79727519D01*
X165836864Y-79738686D01*
X165834875Y-79738477D01*
X165834062Y-79736650D01*
X165834969Y-79735177D01*
X165890548Y-79699408D01*
X165919279Y-79636389D01*
X165909379Y-79567845D01*
X165864267Y-79515851D01*
X165863888Y-79513887D01*
X165865398Y-79512576D01*
X165866194Y-79512584D01*
X166053752Y-79552451D01*
X166249848Y-79552451D01*
X166441655Y-79511681D01*
X166553341Y-79461955D01*
X166555330Y-79462164D01*
G37*
G36*
X121622730Y-77462164D02*
G01*
X121623543Y-77463991D01*
X121622456Y-77465567D01*
X121559812Y-77497211D01*
X121559448Y-77497352D01*
X121543069Y-77501925D01*
X121484056Y-77538749D01*
X121454448Y-77601360D01*
X121463390Y-77670037D01*
X121508143Y-77723096D01*
X121508894Y-77723452D01*
X121510031Y-77725097D01*
X121509175Y-77726904D01*
X121507622Y-77727215D01*
X121317248Y-77686749D01*
X121121152Y-77686749D01*
X120929345Y-77727519D01*
X120904264Y-77738686D01*
X120902275Y-77738477D01*
X120901462Y-77736650D01*
X120902369Y-77735177D01*
X120957948Y-77699408D01*
X120986679Y-77636389D01*
X120976779Y-77567845D01*
X120931667Y-77515851D01*
X120931288Y-77513887D01*
X120932798Y-77512576D01*
X120933594Y-77512584D01*
X121121152Y-77552451D01*
X121317248Y-77552451D01*
X121509055Y-77511681D01*
X121620741Y-77461955D01*
X121622730Y-77462164D01*
G37*
G36*
X166555330Y-77462164D02*
G01*
X166556143Y-77463991D01*
X166555056Y-77465567D01*
X166492412Y-77497211D01*
X166492048Y-77497352D01*
X166475669Y-77501925D01*
X166416656Y-77538749D01*
X166387048Y-77601360D01*
X166395990Y-77670037D01*
X166440743Y-77723096D01*
X166441494Y-77723452D01*
X166442631Y-77725097D01*
X166441775Y-77726904D01*
X166440222Y-77727215D01*
X166249848Y-77686749D01*
X166053752Y-77686749D01*
X165861945Y-77727519D01*
X165836864Y-77738686D01*
X165834875Y-77738477D01*
X165834062Y-77736650D01*
X165834969Y-77735177D01*
X165890548Y-77699408D01*
X165919279Y-77636389D01*
X165909379Y-77567845D01*
X165864267Y-77515851D01*
X165863888Y-77513887D01*
X165865398Y-77512576D01*
X165866194Y-77512584D01*
X166053752Y-77552451D01*
X166249848Y-77552451D01*
X166441655Y-77511681D01*
X166553341Y-77461955D01*
X166555330Y-77462164D01*
G37*
G36*
X121622730Y-38529564D02*
G01*
X121623543Y-38531391D01*
X121622456Y-38532967D01*
X121559812Y-38564611D01*
X121559448Y-38564752D01*
X121543069Y-38569325D01*
X121484056Y-38606149D01*
X121454448Y-38668760D01*
X121463390Y-38737437D01*
X121508143Y-38790496D01*
X121508894Y-38790852D01*
X121510031Y-38792497D01*
X121509175Y-38794304D01*
X121507622Y-38794615D01*
X121317248Y-38754149D01*
X121121152Y-38754149D01*
X120929345Y-38794919D01*
X120904264Y-38806086D01*
X120902275Y-38805877D01*
X120901462Y-38804050D01*
X120902369Y-38802577D01*
X120957948Y-38766808D01*
X120986679Y-38703789D01*
X120976779Y-38635245D01*
X120931667Y-38583251D01*
X120931288Y-38581287D01*
X120932798Y-38579976D01*
X120933594Y-38579984D01*
X121121152Y-38619851D01*
X121317248Y-38619851D01*
X121509055Y-38579081D01*
X121620741Y-38529355D01*
X121622730Y-38529564D01*
G37*
G36*
X166555330Y-38529564D02*
G01*
X166556143Y-38531391D01*
X166555056Y-38532967D01*
X166492412Y-38564611D01*
X166492048Y-38564752D01*
X166475669Y-38569325D01*
X166416656Y-38606149D01*
X166387048Y-38668760D01*
X166395990Y-38737437D01*
X166440743Y-38790496D01*
X166441494Y-38790852D01*
X166442631Y-38792497D01*
X166441775Y-38794304D01*
X166440222Y-38794615D01*
X166249848Y-38754149D01*
X166053752Y-38754149D01*
X165861945Y-38794919D01*
X165836864Y-38806086D01*
X165834875Y-38805877D01*
X165834062Y-38804050D01*
X165834969Y-38802577D01*
X165890548Y-38766808D01*
X165919279Y-38703789D01*
X165909379Y-38635245D01*
X165864267Y-38583251D01*
X165863888Y-38581287D01*
X165865398Y-38579976D01*
X165866194Y-38579984D01*
X166053752Y-38619851D01*
X166249848Y-38619851D01*
X166441655Y-38579081D01*
X166553341Y-38529355D01*
X166555330Y-38529564D01*
G37*
G36*
X121622730Y-36529564D02*
G01*
X121623543Y-36531391D01*
X121622456Y-36532967D01*
X121559812Y-36564611D01*
X121559448Y-36564752D01*
X121543069Y-36569325D01*
X121484056Y-36606149D01*
X121454448Y-36668760D01*
X121463390Y-36737437D01*
X121508143Y-36790496D01*
X121508894Y-36790852D01*
X121510031Y-36792497D01*
X121509175Y-36794304D01*
X121507622Y-36794615D01*
X121317248Y-36754149D01*
X121121152Y-36754149D01*
X120929345Y-36794919D01*
X120904264Y-36806086D01*
X120902275Y-36805877D01*
X120901462Y-36804050D01*
X120902369Y-36802577D01*
X120957948Y-36766808D01*
X120986679Y-36703789D01*
X120976779Y-36635245D01*
X120931667Y-36583251D01*
X120931288Y-36581287D01*
X120932798Y-36579976D01*
X120933594Y-36579984D01*
X121121152Y-36619851D01*
X121317248Y-36619851D01*
X121509055Y-36579081D01*
X121620741Y-36529355D01*
X121622730Y-36529564D01*
G37*
G36*
X166555330Y-36529564D02*
G01*
X166556143Y-36531391D01*
X166555056Y-36532967D01*
X166492412Y-36564611D01*
X166492048Y-36564752D01*
X166475669Y-36569325D01*
X166416656Y-36606149D01*
X166387048Y-36668760D01*
X166395990Y-36737437D01*
X166440743Y-36790496D01*
X166441494Y-36790852D01*
X166442631Y-36792497D01*
X166441775Y-36794304D01*
X166440222Y-36794615D01*
X166249848Y-36754149D01*
X166053752Y-36754149D01*
X165861945Y-36794919D01*
X165836864Y-36806086D01*
X165834875Y-36805877D01*
X165834062Y-36804050D01*
X165834969Y-36802577D01*
X165890548Y-36766808D01*
X165919279Y-36703789D01*
X165909379Y-36635245D01*
X165864267Y-36583251D01*
X165863888Y-36581287D01*
X165865398Y-36579976D01*
X165866194Y-36579984D01*
X166053752Y-36619851D01*
X166249848Y-36619851D01*
X166441655Y-36579081D01*
X166553341Y-36529355D01*
X166555330Y-36529564D01*
G37*
G36*
X166555330Y-34529564D02*
G01*
X166556143Y-34531391D01*
X166555056Y-34532967D01*
X166492412Y-34564611D01*
X166492048Y-34564752D01*
X166475669Y-34569325D01*
X166416656Y-34606149D01*
X166387048Y-34668760D01*
X166395990Y-34737437D01*
X166440743Y-34790496D01*
X166441494Y-34790852D01*
X166442631Y-34792497D01*
X166441775Y-34794304D01*
X166440222Y-34794615D01*
X166249848Y-34754149D01*
X166053752Y-34754149D01*
X165861945Y-34794919D01*
X165836864Y-34806086D01*
X165834875Y-34805877D01*
X165834062Y-34804050D01*
X165834969Y-34802577D01*
X165890548Y-34766808D01*
X165919279Y-34703789D01*
X165909379Y-34635245D01*
X165864267Y-34583251D01*
X165863888Y-34581287D01*
X165865398Y-34579976D01*
X165866194Y-34579984D01*
X166053752Y-34619851D01*
X166249848Y-34619851D01*
X166441655Y-34579081D01*
X166553341Y-34529355D01*
X166555330Y-34529564D01*
G37*
G36*
X121622730Y-34529564D02*
G01*
X121623543Y-34531391D01*
X121622456Y-34532967D01*
X121559812Y-34564611D01*
X121559448Y-34564752D01*
X121543069Y-34569325D01*
X121484056Y-34606149D01*
X121454448Y-34668760D01*
X121463390Y-34737437D01*
X121508143Y-34790496D01*
X121508894Y-34790852D01*
X121510031Y-34792497D01*
X121509175Y-34794304D01*
X121507622Y-34794615D01*
X121317248Y-34754149D01*
X121121152Y-34754149D01*
X120929345Y-34794919D01*
X120904264Y-34806086D01*
X120902275Y-34805877D01*
X120901462Y-34804050D01*
X120902369Y-34802577D01*
X120957948Y-34766808D01*
X120986679Y-34703789D01*
X120976779Y-34635245D01*
X120931667Y-34583251D01*
X120931288Y-34581287D01*
X120932798Y-34579976D01*
X120933594Y-34579984D01*
X121121152Y-34619851D01*
X121317248Y-34619851D01*
X121509055Y-34579081D01*
X121620741Y-34529355D01*
X121622730Y-34529564D01*
G37*
G36*
X121622730Y-32529564D02*
G01*
X121623543Y-32531391D01*
X121622456Y-32532967D01*
X121559812Y-32564611D01*
X121559448Y-32564752D01*
X121543069Y-32569325D01*
X121484056Y-32606149D01*
X121454448Y-32668760D01*
X121463390Y-32737437D01*
X121508143Y-32790496D01*
X121508894Y-32790852D01*
X121510031Y-32792497D01*
X121509175Y-32794304D01*
X121507622Y-32794615D01*
X121317248Y-32754149D01*
X121121152Y-32754149D01*
X120929345Y-32794919D01*
X120904264Y-32806086D01*
X120902275Y-32805877D01*
X120901462Y-32804050D01*
X120902369Y-32802577D01*
X120957948Y-32766808D01*
X120986679Y-32703789D01*
X120976779Y-32635245D01*
X120931667Y-32583251D01*
X120931288Y-32581287D01*
X120932798Y-32579976D01*
X120933594Y-32579984D01*
X121121152Y-32619851D01*
X121317248Y-32619851D01*
X121509055Y-32579081D01*
X121620741Y-32529355D01*
X121622730Y-32529564D01*
G37*
G36*
X166555330Y-32529564D02*
G01*
X166556143Y-32531391D01*
X166555056Y-32532967D01*
X166492412Y-32564611D01*
X166492048Y-32564752D01*
X166475669Y-32569325D01*
X166416656Y-32606149D01*
X166387048Y-32668760D01*
X166395990Y-32737437D01*
X166440743Y-32790496D01*
X166441494Y-32790852D01*
X166442631Y-32792497D01*
X166441775Y-32794304D01*
X166440222Y-32794615D01*
X166249848Y-32754149D01*
X166053752Y-32754149D01*
X165861945Y-32794919D01*
X165836864Y-32806086D01*
X165834875Y-32805877D01*
X165834062Y-32804050D01*
X165834969Y-32802577D01*
X165890548Y-32766808D01*
X165919279Y-32703789D01*
X165909379Y-32635245D01*
X165864267Y-32583251D01*
X165863888Y-32581287D01*
X165865398Y-32579976D01*
X165866194Y-32579984D01*
X166053752Y-32619851D01*
X166249848Y-32619851D01*
X166441655Y-32579081D01*
X166553341Y-32529355D01*
X166555330Y-32529564D01*
G37*
M02*
