M48
INCH,TZ
T1C0.1181
T2C0.1260
%
G90
G05
T1
X46100Y-38700
X46100Y-44700
X46100Y-50700
X51400Y-38700
X51400Y-44700
X51400Y-50700
X56700Y-38700
X56700Y-44700
X56700Y-50700
X62000Y-38700
X62000Y-44700
X62000Y-50700
X67300Y-44700
X67300Y-50700
X67400Y-38700
X72600Y-38700
X72600Y-44700
X72600Y-50700
T2
X45250Y-12400
X48700Y-48000
X69950Y-48000
X73450Y-12400
T0
M30
