M48
INCH,TZ
T1C0.0118
T2C0.0157
T3C0.0354
T4C0.0394
T5C0.0433
T6C0.0591
T7C0.0827
%
G90
G05
T1
X45770Y-17730
X46270Y-31530
X46430Y-26880
X47840Y-21780
X48650Y-25460
X49240Y-12200
X49490Y-13170
X49510Y-30360
X51030Y-21100
X61730Y-15880
X63600Y-33260
X63800Y-14300
X67170Y-31040
X67620Y-14000
X68200Y-35740
X69410Y-27440
X70150Y-36090
X70330Y-33390
X71500Y-18500
T2
X45580Y-35100
X45580Y-31390
X46515Y-32295
X46745Y-25520
X47190Y-22480
X47310Y-24280
X47560Y-16410
X47630Y-45590
X47700Y-22270
X47930Y-44600
X47960Y-45170
X48290Y-22750
X48510Y-27040
X48750Y-29130
X49010Y-31000
X49060Y-16800
X49430Y-15230
X49960Y-33100
X50080Y-13590
X50470Y-35720
X51791Y-11914
X52042Y-25160
X52234Y-28454
X52300Y-19940
X52714Y-27170
X52815Y-28800
X52930Y-21020
X52945Y-26360
X53030Y-24090
X53285Y-28124
X53360Y-22840
X53950Y-46370
X54050Y-52350
X54285Y-30315
X54370Y-20940
X55050Y-22400
X55210Y-12260
X56220Y-20900
X56470Y-31520
X57050Y-29300
X57570Y-25950
X58120Y-21130
X58440Y-29460
X58820Y-12260
X59990Y-21140
X60040Y-29600
X61480Y-24860
X61570Y-22150
X62240Y-21110
X62580Y-23400
X62680Y-30190
X63020Y-12260
X63630Y-21060
X63960Y-24870
X64840Y-20670
X65300Y-19830
X65630Y-26280
X65870Y-24840
X66570Y-15130
X66690Y-30930
X66800Y-29100
X67120Y-15370
X67360Y-33260
X67880Y-13580
X68400Y-51810
X68620Y-20600
X69080Y-13180
X69560Y-16120
X70050Y-31510
X71050Y-52430
X71160Y-29400
X71210Y-39130
X71785Y-30490
X71836Y-39118
X72070Y-22320
X72110Y-15790
X72385Y-31806
X72460Y-24430
X72940Y-23410
X73205Y-26340
X73300Y-39530
X73442Y-29830
T3
X49380Y-22900
X50230Y-22900
X51080Y-22900
X51930Y-22900
X54210Y-19130
X54210Y-26670
X55060Y-19130
X55060Y-26670
X55910Y-19130
X55910Y-26670
X56760Y-19130
X56760Y-26670
X57980Y-14300
X57980Y-22900
X57980Y-31500
X58830Y-14300
X58830Y-22900
X58830Y-31500
X59680Y-14300
X59680Y-22900
X59680Y-31500
X60530Y-14300
X60530Y-22900
X60530Y-31500
X61750Y-19130
X61750Y-26670
X62600Y-19130
X62600Y-26670
X63450Y-19130
X63450Y-26670
X64300Y-19130
X64300Y-26670
X66580Y-22900
X67430Y-22900
X68280Y-22900
X69130Y-22900
T4
X44600Y-16300
X44600Y-17300
X44600Y-18300
X44600Y-19300
X44600Y-20300
X44600Y-21300
X44600Y-22300
X44600Y-23300
X44600Y-24300
X44600Y-25300
X44600Y-26300
X44600Y-27300
X44600Y-28300
X44600Y-29300
X44600Y-30300
X44600Y-31300
X44600Y-32300
X44600Y-33300
X44600Y-34300
X74100Y-16300
X74100Y-17300
X74100Y-18300
X74100Y-19300
X74100Y-20300
X74100Y-21300
X74100Y-22300
X74100Y-23300
X74100Y-24300
X74100Y-25300
X74100Y-26300
X74100Y-27300
X74100Y-28300
X74100Y-29300
X74100Y-30300
X74100Y-31300
X74100Y-32300
X74100Y-33300
X74100Y-34300
T5
X47724Y-12475
X47724Y-13263
X47724Y-14050
X47724Y-14837
X47724Y-15625
X47724Y-30165
X47724Y-30953
X47724Y-31740
X47724Y-32527
X47724Y-33315
X53433Y-13066
X53433Y-14050
X53433Y-15034
X53433Y-30756
X53433Y-31740
X53433Y-32724
X65414Y-12475
X65414Y-13263
X65414Y-14050
X65414Y-14837
X65414Y-15625
X65414Y-30165
X65414Y-30953
X65414Y-31740
X65414Y-32527
X65414Y-33315
X71123Y-13066
X71123Y-14050
X71123Y-15034
X71123Y-30756
X71123Y-31740
X71123Y-32724
T6
X46100Y-36149
X46100Y-37369
X46100Y-40637
X46100Y-42149
X46100Y-43369
X46100Y-46637
X46100Y-48149
X46100Y-49369
X46100Y-52637
X51400Y-36149
X51400Y-37369
X51400Y-40637
X51400Y-42149
X51400Y-43369
X51400Y-46637
X51400Y-48149
X51400Y-49369
X51400Y-52637
X56700Y-36149
X56700Y-37369
X56700Y-40637
X56700Y-42149
X56700Y-43369
X56700Y-46637
X56700Y-48149
X56700Y-49369
X56700Y-52637
X62000Y-36149
X62000Y-37369
X62000Y-40637
X62000Y-42149
X62000Y-43369
X62000Y-46637
X62000Y-48149
X62000Y-49369
X62000Y-52637
X67300Y-42149
X67300Y-43369
X67300Y-46637
X67300Y-48149
X67300Y-49369
X67300Y-52637
X67400Y-36149
X67400Y-37369
X67400Y-40637
X72600Y-36149
X72600Y-37369
X72600Y-40637
X72600Y-42149
X72600Y-43369
X72600Y-46637
X72600Y-48149
X72600Y-49369
X72600Y-52637
T7
X50480Y-11865
X50480Y-16235
X50480Y-29555
X50480Y-33925
X68170Y-11865
X68170Y-16235
X68170Y-29555
X68170Y-33925
T0
M30
