G04 #@! TF.GenerationSoftware,KiCad,Pcbnew,(5.1.5-0)*
G04 #@! TF.CreationDate,2020-10-12T11:47:50-05:00*
G04 #@! TF.ProjectId,bells-venn,62656c6c-732d-4766-956e-6e2e6b696361,rev?*
G04 #@! TF.SameCoordinates,Original*
G04 #@! TF.FileFunction,Paste,Bot*
G04 #@! TF.FilePolarity,Positive*
%FSLAX46Y46*%
G04 Gerber Fmt 4.6, Leading zero omitted, Abs format (unit mm)*
G04 Created by KiCad (PCBNEW (5.1.5-0)) date 2020-10-12 11:47:50*
%MOMM*%
%LPD*%
G04 APERTURE LIST*
%ADD10C,0.100000*%
G04 APERTURE END LIST*
D10*
G36*
X125063505Y-37909204D02*
G01*
X125087773Y-37912804D01*
X125111572Y-37918765D01*
X125134671Y-37927030D01*
X125156850Y-37937520D01*
X125177893Y-37950132D01*
X125197599Y-37964747D01*
X125215777Y-37981223D01*
X125232253Y-37999401D01*
X125246868Y-38019107D01*
X125259480Y-38040150D01*
X125269970Y-38062329D01*
X125278235Y-38085428D01*
X125284196Y-38109227D01*
X125287796Y-38133495D01*
X125289000Y-38157999D01*
X125289000Y-39058001D01*
X125287796Y-39082505D01*
X125284196Y-39106773D01*
X125278235Y-39130572D01*
X125269970Y-39153671D01*
X125259480Y-39175850D01*
X125246868Y-39196893D01*
X125232253Y-39216599D01*
X125215777Y-39234777D01*
X125197599Y-39251253D01*
X125177893Y-39265868D01*
X125156850Y-39278480D01*
X125134671Y-39288970D01*
X125111572Y-39297235D01*
X125087773Y-39303196D01*
X125063505Y-39306796D01*
X125039001Y-39308000D01*
X124388999Y-39308000D01*
X124364495Y-39306796D01*
X124340227Y-39303196D01*
X124316428Y-39297235D01*
X124293329Y-39288970D01*
X124271150Y-39278480D01*
X124250107Y-39265868D01*
X124230401Y-39251253D01*
X124212223Y-39234777D01*
X124195747Y-39216599D01*
X124181132Y-39196893D01*
X124168520Y-39175850D01*
X124158030Y-39153671D01*
X124149765Y-39130572D01*
X124143804Y-39106773D01*
X124140204Y-39082505D01*
X124139000Y-39058001D01*
X124139000Y-38157999D01*
X124140204Y-38133495D01*
X124143804Y-38109227D01*
X124149765Y-38085428D01*
X124158030Y-38062329D01*
X124168520Y-38040150D01*
X124181132Y-38019107D01*
X124195747Y-37999401D01*
X124212223Y-37981223D01*
X124230401Y-37964747D01*
X124250107Y-37950132D01*
X124271150Y-37937520D01*
X124293329Y-37927030D01*
X124316428Y-37918765D01*
X124340227Y-37912804D01*
X124364495Y-37909204D01*
X124388999Y-37908000D01*
X125039001Y-37908000D01*
X125063505Y-37909204D01*
G37*
G36*
X123013505Y-37909204D02*
G01*
X123037773Y-37912804D01*
X123061572Y-37918765D01*
X123084671Y-37927030D01*
X123106850Y-37937520D01*
X123127893Y-37950132D01*
X123147599Y-37964747D01*
X123165777Y-37981223D01*
X123182253Y-37999401D01*
X123196868Y-38019107D01*
X123209480Y-38040150D01*
X123219970Y-38062329D01*
X123228235Y-38085428D01*
X123234196Y-38109227D01*
X123237796Y-38133495D01*
X123239000Y-38157999D01*
X123239000Y-39058001D01*
X123237796Y-39082505D01*
X123234196Y-39106773D01*
X123228235Y-39130572D01*
X123219970Y-39153671D01*
X123209480Y-39175850D01*
X123196868Y-39196893D01*
X123182253Y-39216599D01*
X123165777Y-39234777D01*
X123147599Y-39251253D01*
X123127893Y-39265868D01*
X123106850Y-39278480D01*
X123084671Y-39288970D01*
X123061572Y-39297235D01*
X123037773Y-39303196D01*
X123013505Y-39306796D01*
X122989001Y-39308000D01*
X122338999Y-39308000D01*
X122314495Y-39306796D01*
X122290227Y-39303196D01*
X122266428Y-39297235D01*
X122243329Y-39288970D01*
X122221150Y-39278480D01*
X122200107Y-39265868D01*
X122180401Y-39251253D01*
X122162223Y-39234777D01*
X122145747Y-39216599D01*
X122131132Y-39196893D01*
X122118520Y-39175850D01*
X122108030Y-39153671D01*
X122099765Y-39130572D01*
X122093804Y-39106773D01*
X122090204Y-39082505D01*
X122089000Y-39058001D01*
X122089000Y-38157999D01*
X122090204Y-38133495D01*
X122093804Y-38109227D01*
X122099765Y-38085428D01*
X122108030Y-38062329D01*
X122118520Y-38040150D01*
X122131132Y-38019107D01*
X122145747Y-37999401D01*
X122162223Y-37981223D01*
X122180401Y-37964747D01*
X122200107Y-37950132D01*
X122221150Y-37937520D01*
X122243329Y-37927030D01*
X122266428Y-37918765D01*
X122290227Y-37912804D01*
X122314495Y-37909204D01*
X122338999Y-37908000D01*
X122989001Y-37908000D01*
X123013505Y-37909204D01*
G37*
G36*
X125072505Y-82613204D02*
G01*
X125096773Y-82616804D01*
X125120572Y-82622765D01*
X125143671Y-82631030D01*
X125165850Y-82641520D01*
X125186893Y-82654132D01*
X125206599Y-82668747D01*
X125224777Y-82685223D01*
X125241253Y-82703401D01*
X125255868Y-82723107D01*
X125268480Y-82744150D01*
X125278970Y-82766329D01*
X125287235Y-82789428D01*
X125293196Y-82813227D01*
X125296796Y-82837495D01*
X125298000Y-82861999D01*
X125298000Y-83762001D01*
X125296796Y-83786505D01*
X125293196Y-83810773D01*
X125287235Y-83834572D01*
X125278970Y-83857671D01*
X125268480Y-83879850D01*
X125255868Y-83900893D01*
X125241253Y-83920599D01*
X125224777Y-83938777D01*
X125206599Y-83955253D01*
X125186893Y-83969868D01*
X125165850Y-83982480D01*
X125143671Y-83992970D01*
X125120572Y-84001235D01*
X125096773Y-84007196D01*
X125072505Y-84010796D01*
X125048001Y-84012000D01*
X124397999Y-84012000D01*
X124373495Y-84010796D01*
X124349227Y-84007196D01*
X124325428Y-84001235D01*
X124302329Y-83992970D01*
X124280150Y-83982480D01*
X124259107Y-83969868D01*
X124239401Y-83955253D01*
X124221223Y-83938777D01*
X124204747Y-83920599D01*
X124190132Y-83900893D01*
X124177520Y-83879850D01*
X124167030Y-83857671D01*
X124158765Y-83834572D01*
X124152804Y-83810773D01*
X124149204Y-83786505D01*
X124148000Y-83762001D01*
X124148000Y-82861999D01*
X124149204Y-82837495D01*
X124152804Y-82813227D01*
X124158765Y-82789428D01*
X124167030Y-82766329D01*
X124177520Y-82744150D01*
X124190132Y-82723107D01*
X124204747Y-82703401D01*
X124221223Y-82685223D01*
X124239401Y-82668747D01*
X124259107Y-82654132D01*
X124280150Y-82641520D01*
X124302329Y-82631030D01*
X124325428Y-82622765D01*
X124349227Y-82616804D01*
X124373495Y-82613204D01*
X124397999Y-82612000D01*
X125048001Y-82612000D01*
X125072505Y-82613204D01*
G37*
G36*
X123022505Y-82613204D02*
G01*
X123046773Y-82616804D01*
X123070572Y-82622765D01*
X123093671Y-82631030D01*
X123115850Y-82641520D01*
X123136893Y-82654132D01*
X123156599Y-82668747D01*
X123174777Y-82685223D01*
X123191253Y-82703401D01*
X123205868Y-82723107D01*
X123218480Y-82744150D01*
X123228970Y-82766329D01*
X123237235Y-82789428D01*
X123243196Y-82813227D01*
X123246796Y-82837495D01*
X123248000Y-82861999D01*
X123248000Y-83762001D01*
X123246796Y-83786505D01*
X123243196Y-83810773D01*
X123237235Y-83834572D01*
X123228970Y-83857671D01*
X123218480Y-83879850D01*
X123205868Y-83900893D01*
X123191253Y-83920599D01*
X123174777Y-83938777D01*
X123156599Y-83955253D01*
X123136893Y-83969868D01*
X123115850Y-83982480D01*
X123093671Y-83992970D01*
X123070572Y-84001235D01*
X123046773Y-84007196D01*
X123022505Y-84010796D01*
X122998001Y-84012000D01*
X122347999Y-84012000D01*
X122323495Y-84010796D01*
X122299227Y-84007196D01*
X122275428Y-84001235D01*
X122252329Y-83992970D01*
X122230150Y-83982480D01*
X122209107Y-83969868D01*
X122189401Y-83955253D01*
X122171223Y-83938777D01*
X122154747Y-83920599D01*
X122140132Y-83900893D01*
X122127520Y-83879850D01*
X122117030Y-83857671D01*
X122108765Y-83834572D01*
X122102804Y-83810773D01*
X122099204Y-83786505D01*
X122098000Y-83762001D01*
X122098000Y-82861999D01*
X122099204Y-82837495D01*
X122102804Y-82813227D01*
X122108765Y-82789428D01*
X122117030Y-82766329D01*
X122127520Y-82744150D01*
X122140132Y-82723107D01*
X122154747Y-82703401D01*
X122171223Y-82685223D01*
X122189401Y-82668747D01*
X122209107Y-82654132D01*
X122230150Y-82641520D01*
X122252329Y-82631030D01*
X122275428Y-82622765D01*
X122299227Y-82616804D01*
X122323495Y-82613204D01*
X122347999Y-82612000D01*
X122998001Y-82612000D01*
X123022505Y-82613204D01*
G37*
G36*
X123031505Y-33083204D02*
G01*
X123055773Y-33086804D01*
X123079572Y-33092765D01*
X123102671Y-33101030D01*
X123124850Y-33111520D01*
X123145893Y-33124132D01*
X123165599Y-33138747D01*
X123183777Y-33155223D01*
X123200253Y-33173401D01*
X123214868Y-33193107D01*
X123227480Y-33214150D01*
X123237970Y-33236329D01*
X123246235Y-33259428D01*
X123252196Y-33283227D01*
X123255796Y-33307495D01*
X123257000Y-33331999D01*
X123257000Y-34232001D01*
X123255796Y-34256505D01*
X123252196Y-34280773D01*
X123246235Y-34304572D01*
X123237970Y-34327671D01*
X123227480Y-34349850D01*
X123214868Y-34370893D01*
X123200253Y-34390599D01*
X123183777Y-34408777D01*
X123165599Y-34425253D01*
X123145893Y-34439868D01*
X123124850Y-34452480D01*
X123102671Y-34462970D01*
X123079572Y-34471235D01*
X123055773Y-34477196D01*
X123031505Y-34480796D01*
X123007001Y-34482000D01*
X122356999Y-34482000D01*
X122332495Y-34480796D01*
X122308227Y-34477196D01*
X122284428Y-34471235D01*
X122261329Y-34462970D01*
X122239150Y-34452480D01*
X122218107Y-34439868D01*
X122198401Y-34425253D01*
X122180223Y-34408777D01*
X122163747Y-34390599D01*
X122149132Y-34370893D01*
X122136520Y-34349850D01*
X122126030Y-34327671D01*
X122117765Y-34304572D01*
X122111804Y-34280773D01*
X122108204Y-34256505D01*
X122107000Y-34232001D01*
X122107000Y-33331999D01*
X122108204Y-33307495D01*
X122111804Y-33283227D01*
X122117765Y-33259428D01*
X122126030Y-33236329D01*
X122136520Y-33214150D01*
X122149132Y-33193107D01*
X122163747Y-33173401D01*
X122180223Y-33155223D01*
X122198401Y-33138747D01*
X122218107Y-33124132D01*
X122239150Y-33111520D01*
X122261329Y-33101030D01*
X122284428Y-33092765D01*
X122308227Y-33086804D01*
X122332495Y-33083204D01*
X122356999Y-33082000D01*
X123007001Y-33082000D01*
X123031505Y-33083204D01*
G37*
G36*
X125081505Y-33083204D02*
G01*
X125105773Y-33086804D01*
X125129572Y-33092765D01*
X125152671Y-33101030D01*
X125174850Y-33111520D01*
X125195893Y-33124132D01*
X125215599Y-33138747D01*
X125233777Y-33155223D01*
X125250253Y-33173401D01*
X125264868Y-33193107D01*
X125277480Y-33214150D01*
X125287970Y-33236329D01*
X125296235Y-33259428D01*
X125302196Y-33283227D01*
X125305796Y-33307495D01*
X125307000Y-33331999D01*
X125307000Y-34232001D01*
X125305796Y-34256505D01*
X125302196Y-34280773D01*
X125296235Y-34304572D01*
X125287970Y-34327671D01*
X125277480Y-34349850D01*
X125264868Y-34370893D01*
X125250253Y-34390599D01*
X125233777Y-34408777D01*
X125215599Y-34425253D01*
X125195893Y-34439868D01*
X125174850Y-34452480D01*
X125152671Y-34462970D01*
X125129572Y-34471235D01*
X125105773Y-34477196D01*
X125081505Y-34480796D01*
X125057001Y-34482000D01*
X124406999Y-34482000D01*
X124382495Y-34480796D01*
X124358227Y-34477196D01*
X124334428Y-34471235D01*
X124311329Y-34462970D01*
X124289150Y-34452480D01*
X124268107Y-34439868D01*
X124248401Y-34425253D01*
X124230223Y-34408777D01*
X124213747Y-34390599D01*
X124199132Y-34370893D01*
X124186520Y-34349850D01*
X124176030Y-34327671D01*
X124167765Y-34304572D01*
X124161804Y-34280773D01*
X124158204Y-34256505D01*
X124157000Y-34232001D01*
X124157000Y-33331999D01*
X124158204Y-33307495D01*
X124161804Y-33283227D01*
X124167765Y-33259428D01*
X124176030Y-33236329D01*
X124186520Y-33214150D01*
X124199132Y-33193107D01*
X124213747Y-33173401D01*
X124230223Y-33155223D01*
X124248401Y-33138747D01*
X124268107Y-33124132D01*
X124289150Y-33111520D01*
X124311329Y-33101030D01*
X124334428Y-33092765D01*
X124358227Y-33086804D01*
X124382495Y-33083204D01*
X124406999Y-33082000D01*
X125057001Y-33082000D01*
X125081505Y-33083204D01*
G37*
G36*
X123031505Y-77533204D02*
G01*
X123055773Y-77536804D01*
X123079572Y-77542765D01*
X123102671Y-77551030D01*
X123124850Y-77561520D01*
X123145893Y-77574132D01*
X123165599Y-77588747D01*
X123183777Y-77605223D01*
X123200253Y-77623401D01*
X123214868Y-77643107D01*
X123227480Y-77664150D01*
X123237970Y-77686329D01*
X123246235Y-77709428D01*
X123252196Y-77733227D01*
X123255796Y-77757495D01*
X123257000Y-77781999D01*
X123257000Y-78682001D01*
X123255796Y-78706505D01*
X123252196Y-78730773D01*
X123246235Y-78754572D01*
X123237970Y-78777671D01*
X123227480Y-78799850D01*
X123214868Y-78820893D01*
X123200253Y-78840599D01*
X123183777Y-78858777D01*
X123165599Y-78875253D01*
X123145893Y-78889868D01*
X123124850Y-78902480D01*
X123102671Y-78912970D01*
X123079572Y-78921235D01*
X123055773Y-78927196D01*
X123031505Y-78930796D01*
X123007001Y-78932000D01*
X122356999Y-78932000D01*
X122332495Y-78930796D01*
X122308227Y-78927196D01*
X122284428Y-78921235D01*
X122261329Y-78912970D01*
X122239150Y-78902480D01*
X122218107Y-78889868D01*
X122198401Y-78875253D01*
X122180223Y-78858777D01*
X122163747Y-78840599D01*
X122149132Y-78820893D01*
X122136520Y-78799850D01*
X122126030Y-78777671D01*
X122117765Y-78754572D01*
X122111804Y-78730773D01*
X122108204Y-78706505D01*
X122107000Y-78682001D01*
X122107000Y-77781999D01*
X122108204Y-77757495D01*
X122111804Y-77733227D01*
X122117765Y-77709428D01*
X122126030Y-77686329D01*
X122136520Y-77664150D01*
X122149132Y-77643107D01*
X122163747Y-77623401D01*
X122180223Y-77605223D01*
X122198401Y-77588747D01*
X122218107Y-77574132D01*
X122239150Y-77561520D01*
X122261329Y-77551030D01*
X122284428Y-77542765D01*
X122308227Y-77536804D01*
X122332495Y-77533204D01*
X122356999Y-77532000D01*
X123007001Y-77532000D01*
X123031505Y-77533204D01*
G37*
G36*
X125081505Y-77533204D02*
G01*
X125105773Y-77536804D01*
X125129572Y-77542765D01*
X125152671Y-77551030D01*
X125174850Y-77561520D01*
X125195893Y-77574132D01*
X125215599Y-77588747D01*
X125233777Y-77605223D01*
X125250253Y-77623401D01*
X125264868Y-77643107D01*
X125277480Y-77664150D01*
X125287970Y-77686329D01*
X125296235Y-77709428D01*
X125302196Y-77733227D01*
X125305796Y-77757495D01*
X125307000Y-77781999D01*
X125307000Y-78682001D01*
X125305796Y-78706505D01*
X125302196Y-78730773D01*
X125296235Y-78754572D01*
X125287970Y-78777671D01*
X125277480Y-78799850D01*
X125264868Y-78820893D01*
X125250253Y-78840599D01*
X125233777Y-78858777D01*
X125215599Y-78875253D01*
X125195893Y-78889868D01*
X125174850Y-78902480D01*
X125152671Y-78912970D01*
X125129572Y-78921235D01*
X125105773Y-78927196D01*
X125081505Y-78930796D01*
X125057001Y-78932000D01*
X124406999Y-78932000D01*
X124382495Y-78930796D01*
X124358227Y-78927196D01*
X124334428Y-78921235D01*
X124311329Y-78912970D01*
X124289150Y-78902480D01*
X124268107Y-78889868D01*
X124248401Y-78875253D01*
X124230223Y-78858777D01*
X124213747Y-78840599D01*
X124199132Y-78820893D01*
X124186520Y-78799850D01*
X124176030Y-78777671D01*
X124167765Y-78754572D01*
X124161804Y-78730773D01*
X124158204Y-78706505D01*
X124157000Y-78682001D01*
X124157000Y-77781999D01*
X124158204Y-77757495D01*
X124161804Y-77733227D01*
X124167765Y-77709428D01*
X124176030Y-77686329D01*
X124186520Y-77664150D01*
X124199132Y-77643107D01*
X124213747Y-77623401D01*
X124230223Y-77605223D01*
X124248401Y-77588747D01*
X124268107Y-77574132D01*
X124289150Y-77561520D01*
X124311329Y-77551030D01*
X124334428Y-77542765D01*
X124358227Y-77536804D01*
X124382495Y-77533204D01*
X124406999Y-77532000D01*
X125057001Y-77532000D01*
X125081505Y-77533204D01*
G37*
G36*
X168497505Y-37909204D02*
G01*
X168521773Y-37912804D01*
X168545572Y-37918765D01*
X168568671Y-37927030D01*
X168590850Y-37937520D01*
X168611893Y-37950132D01*
X168631599Y-37964747D01*
X168649777Y-37981223D01*
X168666253Y-37999401D01*
X168680868Y-38019107D01*
X168693480Y-38040150D01*
X168703970Y-38062329D01*
X168712235Y-38085428D01*
X168718196Y-38109227D01*
X168721796Y-38133495D01*
X168723000Y-38157999D01*
X168723000Y-39058001D01*
X168721796Y-39082505D01*
X168718196Y-39106773D01*
X168712235Y-39130572D01*
X168703970Y-39153671D01*
X168693480Y-39175850D01*
X168680868Y-39196893D01*
X168666253Y-39216599D01*
X168649777Y-39234777D01*
X168631599Y-39251253D01*
X168611893Y-39265868D01*
X168590850Y-39278480D01*
X168568671Y-39288970D01*
X168545572Y-39297235D01*
X168521773Y-39303196D01*
X168497505Y-39306796D01*
X168473001Y-39308000D01*
X167822999Y-39308000D01*
X167798495Y-39306796D01*
X167774227Y-39303196D01*
X167750428Y-39297235D01*
X167727329Y-39288970D01*
X167705150Y-39278480D01*
X167684107Y-39265868D01*
X167664401Y-39251253D01*
X167646223Y-39234777D01*
X167629747Y-39216599D01*
X167615132Y-39196893D01*
X167602520Y-39175850D01*
X167592030Y-39153671D01*
X167583765Y-39130572D01*
X167577804Y-39106773D01*
X167574204Y-39082505D01*
X167573000Y-39058001D01*
X167573000Y-38157999D01*
X167574204Y-38133495D01*
X167577804Y-38109227D01*
X167583765Y-38085428D01*
X167592030Y-38062329D01*
X167602520Y-38040150D01*
X167615132Y-38019107D01*
X167629747Y-37999401D01*
X167646223Y-37981223D01*
X167664401Y-37964747D01*
X167684107Y-37950132D01*
X167705150Y-37937520D01*
X167727329Y-37927030D01*
X167750428Y-37918765D01*
X167774227Y-37912804D01*
X167798495Y-37909204D01*
X167822999Y-37908000D01*
X168473001Y-37908000D01*
X168497505Y-37909204D01*
G37*
G36*
X170547505Y-37909204D02*
G01*
X170571773Y-37912804D01*
X170595572Y-37918765D01*
X170618671Y-37927030D01*
X170640850Y-37937520D01*
X170661893Y-37950132D01*
X170681599Y-37964747D01*
X170699777Y-37981223D01*
X170716253Y-37999401D01*
X170730868Y-38019107D01*
X170743480Y-38040150D01*
X170753970Y-38062329D01*
X170762235Y-38085428D01*
X170768196Y-38109227D01*
X170771796Y-38133495D01*
X170773000Y-38157999D01*
X170773000Y-39058001D01*
X170771796Y-39082505D01*
X170768196Y-39106773D01*
X170762235Y-39130572D01*
X170753970Y-39153671D01*
X170743480Y-39175850D01*
X170730868Y-39196893D01*
X170716253Y-39216599D01*
X170699777Y-39234777D01*
X170681599Y-39251253D01*
X170661893Y-39265868D01*
X170640850Y-39278480D01*
X170618671Y-39288970D01*
X170595572Y-39297235D01*
X170571773Y-39303196D01*
X170547505Y-39306796D01*
X170523001Y-39308000D01*
X169872999Y-39308000D01*
X169848495Y-39306796D01*
X169824227Y-39303196D01*
X169800428Y-39297235D01*
X169777329Y-39288970D01*
X169755150Y-39278480D01*
X169734107Y-39265868D01*
X169714401Y-39251253D01*
X169696223Y-39234777D01*
X169679747Y-39216599D01*
X169665132Y-39196893D01*
X169652520Y-39175850D01*
X169642030Y-39153671D01*
X169633765Y-39130572D01*
X169627804Y-39106773D01*
X169624204Y-39082505D01*
X169623000Y-39058001D01*
X169623000Y-38157999D01*
X169624204Y-38133495D01*
X169627804Y-38109227D01*
X169633765Y-38085428D01*
X169642030Y-38062329D01*
X169652520Y-38040150D01*
X169665132Y-38019107D01*
X169679747Y-37999401D01*
X169696223Y-37981223D01*
X169714401Y-37964747D01*
X169734107Y-37950132D01*
X169755150Y-37937520D01*
X169777329Y-37927030D01*
X169800428Y-37918765D01*
X169824227Y-37912804D01*
X169848495Y-37909204D01*
X169872999Y-37908000D01*
X170523001Y-37908000D01*
X170547505Y-37909204D01*
G37*
G36*
X168479505Y-82613204D02*
G01*
X168503773Y-82616804D01*
X168527572Y-82622765D01*
X168550671Y-82631030D01*
X168572850Y-82641520D01*
X168593893Y-82654132D01*
X168613599Y-82668747D01*
X168631777Y-82685223D01*
X168648253Y-82703401D01*
X168662868Y-82723107D01*
X168675480Y-82744150D01*
X168685970Y-82766329D01*
X168694235Y-82789428D01*
X168700196Y-82813227D01*
X168703796Y-82837495D01*
X168705000Y-82861999D01*
X168705000Y-83762001D01*
X168703796Y-83786505D01*
X168700196Y-83810773D01*
X168694235Y-83834572D01*
X168685970Y-83857671D01*
X168675480Y-83879850D01*
X168662868Y-83900893D01*
X168648253Y-83920599D01*
X168631777Y-83938777D01*
X168613599Y-83955253D01*
X168593893Y-83969868D01*
X168572850Y-83982480D01*
X168550671Y-83992970D01*
X168527572Y-84001235D01*
X168503773Y-84007196D01*
X168479505Y-84010796D01*
X168455001Y-84012000D01*
X167804999Y-84012000D01*
X167780495Y-84010796D01*
X167756227Y-84007196D01*
X167732428Y-84001235D01*
X167709329Y-83992970D01*
X167687150Y-83982480D01*
X167666107Y-83969868D01*
X167646401Y-83955253D01*
X167628223Y-83938777D01*
X167611747Y-83920599D01*
X167597132Y-83900893D01*
X167584520Y-83879850D01*
X167574030Y-83857671D01*
X167565765Y-83834572D01*
X167559804Y-83810773D01*
X167556204Y-83786505D01*
X167555000Y-83762001D01*
X167555000Y-82861999D01*
X167556204Y-82837495D01*
X167559804Y-82813227D01*
X167565765Y-82789428D01*
X167574030Y-82766329D01*
X167584520Y-82744150D01*
X167597132Y-82723107D01*
X167611747Y-82703401D01*
X167628223Y-82685223D01*
X167646401Y-82668747D01*
X167666107Y-82654132D01*
X167687150Y-82641520D01*
X167709329Y-82631030D01*
X167732428Y-82622765D01*
X167756227Y-82616804D01*
X167780495Y-82613204D01*
X167804999Y-82612000D01*
X168455001Y-82612000D01*
X168479505Y-82613204D01*
G37*
G36*
X170529505Y-82613204D02*
G01*
X170553773Y-82616804D01*
X170577572Y-82622765D01*
X170600671Y-82631030D01*
X170622850Y-82641520D01*
X170643893Y-82654132D01*
X170663599Y-82668747D01*
X170681777Y-82685223D01*
X170698253Y-82703401D01*
X170712868Y-82723107D01*
X170725480Y-82744150D01*
X170735970Y-82766329D01*
X170744235Y-82789428D01*
X170750196Y-82813227D01*
X170753796Y-82837495D01*
X170755000Y-82861999D01*
X170755000Y-83762001D01*
X170753796Y-83786505D01*
X170750196Y-83810773D01*
X170744235Y-83834572D01*
X170735970Y-83857671D01*
X170725480Y-83879850D01*
X170712868Y-83900893D01*
X170698253Y-83920599D01*
X170681777Y-83938777D01*
X170663599Y-83955253D01*
X170643893Y-83969868D01*
X170622850Y-83982480D01*
X170600671Y-83992970D01*
X170577572Y-84001235D01*
X170553773Y-84007196D01*
X170529505Y-84010796D01*
X170505001Y-84012000D01*
X169854999Y-84012000D01*
X169830495Y-84010796D01*
X169806227Y-84007196D01*
X169782428Y-84001235D01*
X169759329Y-83992970D01*
X169737150Y-83982480D01*
X169716107Y-83969868D01*
X169696401Y-83955253D01*
X169678223Y-83938777D01*
X169661747Y-83920599D01*
X169647132Y-83900893D01*
X169634520Y-83879850D01*
X169624030Y-83857671D01*
X169615765Y-83834572D01*
X169609804Y-83810773D01*
X169606204Y-83786505D01*
X169605000Y-83762001D01*
X169605000Y-82861999D01*
X169606204Y-82837495D01*
X169609804Y-82813227D01*
X169615765Y-82789428D01*
X169624030Y-82766329D01*
X169634520Y-82744150D01*
X169647132Y-82723107D01*
X169661747Y-82703401D01*
X169678223Y-82685223D01*
X169696401Y-82668747D01*
X169716107Y-82654132D01*
X169737150Y-82641520D01*
X169759329Y-82631030D01*
X169782428Y-82622765D01*
X169806227Y-82616804D01*
X169830495Y-82613204D01*
X169854999Y-82612000D01*
X170505001Y-82612000D01*
X170529505Y-82613204D01*
G37*
G36*
X170547505Y-32829204D02*
G01*
X170571773Y-32832804D01*
X170595572Y-32838765D01*
X170618671Y-32847030D01*
X170640850Y-32857520D01*
X170661893Y-32870132D01*
X170681599Y-32884747D01*
X170699777Y-32901223D01*
X170716253Y-32919401D01*
X170730868Y-32939107D01*
X170743480Y-32960150D01*
X170753970Y-32982329D01*
X170762235Y-33005428D01*
X170768196Y-33029227D01*
X170771796Y-33053495D01*
X170773000Y-33077999D01*
X170773000Y-33978001D01*
X170771796Y-34002505D01*
X170768196Y-34026773D01*
X170762235Y-34050572D01*
X170753970Y-34073671D01*
X170743480Y-34095850D01*
X170730868Y-34116893D01*
X170716253Y-34136599D01*
X170699777Y-34154777D01*
X170681599Y-34171253D01*
X170661893Y-34185868D01*
X170640850Y-34198480D01*
X170618671Y-34208970D01*
X170595572Y-34217235D01*
X170571773Y-34223196D01*
X170547505Y-34226796D01*
X170523001Y-34228000D01*
X169872999Y-34228000D01*
X169848495Y-34226796D01*
X169824227Y-34223196D01*
X169800428Y-34217235D01*
X169777329Y-34208970D01*
X169755150Y-34198480D01*
X169734107Y-34185868D01*
X169714401Y-34171253D01*
X169696223Y-34154777D01*
X169679747Y-34136599D01*
X169665132Y-34116893D01*
X169652520Y-34095850D01*
X169642030Y-34073671D01*
X169633765Y-34050572D01*
X169627804Y-34026773D01*
X169624204Y-34002505D01*
X169623000Y-33978001D01*
X169623000Y-33077999D01*
X169624204Y-33053495D01*
X169627804Y-33029227D01*
X169633765Y-33005428D01*
X169642030Y-32982329D01*
X169652520Y-32960150D01*
X169665132Y-32939107D01*
X169679747Y-32919401D01*
X169696223Y-32901223D01*
X169714401Y-32884747D01*
X169734107Y-32870132D01*
X169755150Y-32857520D01*
X169777329Y-32847030D01*
X169800428Y-32838765D01*
X169824227Y-32832804D01*
X169848495Y-32829204D01*
X169872999Y-32828000D01*
X170523001Y-32828000D01*
X170547505Y-32829204D01*
G37*
G36*
X168497505Y-32829204D02*
G01*
X168521773Y-32832804D01*
X168545572Y-32838765D01*
X168568671Y-32847030D01*
X168590850Y-32857520D01*
X168611893Y-32870132D01*
X168631599Y-32884747D01*
X168649777Y-32901223D01*
X168666253Y-32919401D01*
X168680868Y-32939107D01*
X168693480Y-32960150D01*
X168703970Y-32982329D01*
X168712235Y-33005428D01*
X168718196Y-33029227D01*
X168721796Y-33053495D01*
X168723000Y-33077999D01*
X168723000Y-33978001D01*
X168721796Y-34002505D01*
X168718196Y-34026773D01*
X168712235Y-34050572D01*
X168703970Y-34073671D01*
X168693480Y-34095850D01*
X168680868Y-34116893D01*
X168666253Y-34136599D01*
X168649777Y-34154777D01*
X168631599Y-34171253D01*
X168611893Y-34185868D01*
X168590850Y-34198480D01*
X168568671Y-34208970D01*
X168545572Y-34217235D01*
X168521773Y-34223196D01*
X168497505Y-34226796D01*
X168473001Y-34228000D01*
X167822999Y-34228000D01*
X167798495Y-34226796D01*
X167774227Y-34223196D01*
X167750428Y-34217235D01*
X167727329Y-34208970D01*
X167705150Y-34198480D01*
X167684107Y-34185868D01*
X167664401Y-34171253D01*
X167646223Y-34154777D01*
X167629747Y-34136599D01*
X167615132Y-34116893D01*
X167602520Y-34095850D01*
X167592030Y-34073671D01*
X167583765Y-34050572D01*
X167577804Y-34026773D01*
X167574204Y-34002505D01*
X167573000Y-33978001D01*
X167573000Y-33077999D01*
X167574204Y-33053495D01*
X167577804Y-33029227D01*
X167583765Y-33005428D01*
X167592030Y-32982329D01*
X167602520Y-32960150D01*
X167615132Y-32939107D01*
X167629747Y-32919401D01*
X167646223Y-32901223D01*
X167664401Y-32884747D01*
X167684107Y-32870132D01*
X167705150Y-32857520D01*
X167727329Y-32847030D01*
X167750428Y-32838765D01*
X167774227Y-32832804D01*
X167798495Y-32829204D01*
X167822999Y-32828000D01*
X168473001Y-32828000D01*
X168497505Y-32829204D01*
G37*
G36*
X170529505Y-77533204D02*
G01*
X170553773Y-77536804D01*
X170577572Y-77542765D01*
X170600671Y-77551030D01*
X170622850Y-77561520D01*
X170643893Y-77574132D01*
X170663599Y-77588747D01*
X170681777Y-77605223D01*
X170698253Y-77623401D01*
X170712868Y-77643107D01*
X170725480Y-77664150D01*
X170735970Y-77686329D01*
X170744235Y-77709428D01*
X170750196Y-77733227D01*
X170753796Y-77757495D01*
X170755000Y-77781999D01*
X170755000Y-78682001D01*
X170753796Y-78706505D01*
X170750196Y-78730773D01*
X170744235Y-78754572D01*
X170735970Y-78777671D01*
X170725480Y-78799850D01*
X170712868Y-78820893D01*
X170698253Y-78840599D01*
X170681777Y-78858777D01*
X170663599Y-78875253D01*
X170643893Y-78889868D01*
X170622850Y-78902480D01*
X170600671Y-78912970D01*
X170577572Y-78921235D01*
X170553773Y-78927196D01*
X170529505Y-78930796D01*
X170505001Y-78932000D01*
X169854999Y-78932000D01*
X169830495Y-78930796D01*
X169806227Y-78927196D01*
X169782428Y-78921235D01*
X169759329Y-78912970D01*
X169737150Y-78902480D01*
X169716107Y-78889868D01*
X169696401Y-78875253D01*
X169678223Y-78858777D01*
X169661747Y-78840599D01*
X169647132Y-78820893D01*
X169634520Y-78799850D01*
X169624030Y-78777671D01*
X169615765Y-78754572D01*
X169609804Y-78730773D01*
X169606204Y-78706505D01*
X169605000Y-78682001D01*
X169605000Y-77781999D01*
X169606204Y-77757495D01*
X169609804Y-77733227D01*
X169615765Y-77709428D01*
X169624030Y-77686329D01*
X169634520Y-77664150D01*
X169647132Y-77643107D01*
X169661747Y-77623401D01*
X169678223Y-77605223D01*
X169696401Y-77588747D01*
X169716107Y-77574132D01*
X169737150Y-77561520D01*
X169759329Y-77551030D01*
X169782428Y-77542765D01*
X169806227Y-77536804D01*
X169830495Y-77533204D01*
X169854999Y-77532000D01*
X170505001Y-77532000D01*
X170529505Y-77533204D01*
G37*
G36*
X168479505Y-77533204D02*
G01*
X168503773Y-77536804D01*
X168527572Y-77542765D01*
X168550671Y-77551030D01*
X168572850Y-77561520D01*
X168593893Y-77574132D01*
X168613599Y-77588747D01*
X168631777Y-77605223D01*
X168648253Y-77623401D01*
X168662868Y-77643107D01*
X168675480Y-77664150D01*
X168685970Y-77686329D01*
X168694235Y-77709428D01*
X168700196Y-77733227D01*
X168703796Y-77757495D01*
X168705000Y-77781999D01*
X168705000Y-78682001D01*
X168703796Y-78706505D01*
X168700196Y-78730773D01*
X168694235Y-78754572D01*
X168685970Y-78777671D01*
X168675480Y-78799850D01*
X168662868Y-78820893D01*
X168648253Y-78840599D01*
X168631777Y-78858777D01*
X168613599Y-78875253D01*
X168593893Y-78889868D01*
X168572850Y-78902480D01*
X168550671Y-78912970D01*
X168527572Y-78921235D01*
X168503773Y-78927196D01*
X168479505Y-78930796D01*
X168455001Y-78932000D01*
X167804999Y-78932000D01*
X167780495Y-78930796D01*
X167756227Y-78927196D01*
X167732428Y-78921235D01*
X167709329Y-78912970D01*
X167687150Y-78902480D01*
X167666107Y-78889868D01*
X167646401Y-78875253D01*
X167628223Y-78858777D01*
X167611747Y-78840599D01*
X167597132Y-78820893D01*
X167584520Y-78799850D01*
X167574030Y-78777671D01*
X167565765Y-78754572D01*
X167559804Y-78730773D01*
X167556204Y-78706505D01*
X167555000Y-78682001D01*
X167555000Y-77781999D01*
X167556204Y-77757495D01*
X167559804Y-77733227D01*
X167565765Y-77709428D01*
X167574030Y-77686329D01*
X167584520Y-77664150D01*
X167597132Y-77643107D01*
X167611747Y-77623401D01*
X167628223Y-77605223D01*
X167646401Y-77588747D01*
X167666107Y-77574132D01*
X167687150Y-77561520D01*
X167709329Y-77551030D01*
X167732428Y-77542765D01*
X167756227Y-77536804D01*
X167780495Y-77533204D01*
X167804999Y-77532000D01*
X168455001Y-77532000D01*
X168479505Y-77533204D01*
G37*
M02*
