G04 #@! TF.GenerationSoftware,KiCad,Pcbnew,(5.1.5-0)*
G04 #@! TF.CreationDate,2020-10-12T11:50:34-05:00*
G04 #@! TF.ProjectId,bells-venn,62656c6c-732d-4766-956e-6e2e6b696361,rev?*
G04 #@! TF.SameCoordinates,Original*
G04 #@! TF.FileFunction,Soldermask,Bot*
G04 #@! TF.FilePolarity,Negative*
%FSLAX46Y46*%
G04 Gerber Fmt 4.6, Leading zero omitted, Abs format (unit mm)*
G04 Created by KiCad (PCBNEW (5.1.5-0)) date 2020-10-12 11:50:34*
%MOMM*%
%LPD*%
G04 APERTURE LIST*
%ADD10C,0.010000*%
%ADD11C,0.100000*%
G04 APERTURE END LIST*
D10*
G36*
X68745333Y-18039673D02*
G01*
X70754671Y-18497908D01*
X72645488Y-19017462D01*
X74462166Y-19613446D01*
X76249090Y-20300970D01*
X78050644Y-21095143D01*
X78863000Y-21484021D01*
X81150066Y-22696605D01*
X83345215Y-24046953D01*
X85443150Y-25528351D01*
X87438572Y-27134084D01*
X89326185Y-28857440D01*
X91100692Y-30691704D01*
X92756795Y-32630163D01*
X94289197Y-34666102D01*
X95692602Y-36792808D01*
X96961712Y-39003566D01*
X98091229Y-41291664D01*
X99075858Y-43650387D01*
X99910300Y-46073021D01*
X100589258Y-48552852D01*
X100741328Y-49213666D01*
X100852520Y-49716453D01*
X100949075Y-50160130D01*
X101032026Y-50560413D01*
X101102404Y-50933016D01*
X101161242Y-51293655D01*
X101209572Y-51658045D01*
X101248426Y-52041902D01*
X101278838Y-52460939D01*
X101301839Y-52930872D01*
X101318461Y-53467417D01*
X101329737Y-54086288D01*
X101336699Y-54803200D01*
X101340380Y-55633868D01*
X101341811Y-56594009D01*
X101342026Y-57699336D01*
X101342000Y-58357666D01*
X101342012Y-59547364D01*
X101341362Y-60583443D01*
X101339016Y-61481620D01*
X101333943Y-62257609D01*
X101325109Y-62927126D01*
X101311484Y-63505885D01*
X101292034Y-64009601D01*
X101265726Y-64453991D01*
X101231530Y-64854767D01*
X101188412Y-65227647D01*
X101135340Y-65588345D01*
X101071281Y-65952576D01*
X100995204Y-66336055D01*
X100906077Y-66754496D01*
X100802866Y-67223617D01*
X100741328Y-67501666D01*
X100104214Y-69994419D01*
X99309176Y-72434142D01*
X98361231Y-74813894D01*
X97265395Y-77126734D01*
X96026686Y-79365721D01*
X94650120Y-81523915D01*
X93140713Y-83594375D01*
X91503483Y-85570160D01*
X89743445Y-87444330D01*
X87865617Y-89209943D01*
X85875014Y-90860059D01*
X83776655Y-92387738D01*
X81871016Y-93609598D01*
X81146303Y-94029311D01*
X80310566Y-94484559D01*
X79407310Y-94953628D01*
X78480039Y-95414802D01*
X77572258Y-95846367D01*
X76727471Y-96226608D01*
X76103421Y-96488431D01*
X73711444Y-97359832D01*
X71246448Y-98085269D01*
X68729016Y-98659888D01*
X66179733Y-99078835D01*
X64215666Y-99291647D01*
X63819822Y-99315724D01*
X63284370Y-99334910D01*
X62638962Y-99349242D01*
X61913252Y-99358755D01*
X61136892Y-99363484D01*
X60339536Y-99363467D01*
X59550837Y-99358738D01*
X58800448Y-99349334D01*
X58118021Y-99335291D01*
X57533211Y-99316644D01*
X57075670Y-99293430D01*
X56934333Y-99282822D01*
X54792011Y-99035992D01*
X52604980Y-98663325D01*
X50427850Y-98176132D01*
X48315231Y-97585726D01*
X47544244Y-97337842D01*
X45528372Y-96599888D01*
X43507427Y-95734822D01*
X41671966Y-94836371D01*
X45319406Y-94836371D01*
X45378153Y-94879568D01*
X45572449Y-94968573D01*
X45877692Y-95094192D01*
X46269278Y-95247230D01*
X46722607Y-95418493D01*
X47213074Y-95598785D01*
X47716078Y-95778913D01*
X48207016Y-95949681D01*
X48661285Y-96101896D01*
X48966650Y-96199445D01*
X51222875Y-96830836D01*
X53520329Y-97340165D01*
X55814762Y-97718669D01*
X57696333Y-97928156D01*
X58189218Y-97959886D01*
X58811313Y-97983821D01*
X59524125Y-97999902D01*
X60289160Y-98008070D01*
X61067925Y-98008267D01*
X61821927Y-98000432D01*
X62512671Y-97984508D01*
X63101664Y-97960434D01*
X63453666Y-97936980D01*
X65976624Y-97646874D01*
X68477123Y-97204091D01*
X70933162Y-96613693D01*
X73322741Y-95880747D01*
X74906544Y-95300338D01*
X75336886Y-95128861D01*
X75702973Y-94977734D01*
X75979636Y-94857780D01*
X76141708Y-94779820D01*
X76173224Y-94755669D01*
X76078059Y-94751255D01*
X75869225Y-94776271D01*
X75680537Y-94808808D01*
X74691672Y-94961377D01*
X73577118Y-95069850D01*
X72374626Y-95134414D01*
X71121949Y-95155258D01*
X69856838Y-95132567D01*
X68617043Y-95066530D01*
X67440318Y-94957334D01*
X66364413Y-94805165D01*
X66120666Y-94761383D01*
X65732291Y-94679666D01*
X76365333Y-94679666D01*
X76407666Y-94722000D01*
X76450000Y-94679666D01*
X76407666Y-94637333D01*
X76365333Y-94679666D01*
X65732291Y-94679666D01*
X65234698Y-94574969D01*
X64299852Y-94343234D01*
X63360288Y-94079250D01*
X62460170Y-93796089D01*
X61643657Y-93506825D01*
X61006078Y-93247350D01*
X60532666Y-93037984D01*
X60059254Y-93247350D01*
X59044630Y-93651466D01*
X57902146Y-94028121D01*
X56672392Y-94367153D01*
X55395957Y-94658399D01*
X54113429Y-94891697D01*
X52865397Y-95056885D01*
X52808399Y-95062789D01*
X52337727Y-95097511D01*
X51742670Y-95120699D01*
X51054810Y-95132921D01*
X50305725Y-95134747D01*
X49526997Y-95126746D01*
X48750205Y-95109486D01*
X48006931Y-95083536D01*
X47328755Y-95049466D01*
X46747256Y-95007843D01*
X46294016Y-94959238D01*
X46188764Y-94943541D01*
X45833271Y-94888775D01*
X45546087Y-94850623D01*
X45364112Y-94833634D01*
X45319406Y-94836371D01*
X41671966Y-94836371D01*
X41520062Y-94762015D01*
X39604930Y-93700838D01*
X37800681Y-92570662D01*
X37164666Y-92135886D01*
X36503938Y-91659618D01*
X35785371Y-91118325D01*
X35037144Y-90534986D01*
X34287437Y-89932581D01*
X33564428Y-89334091D01*
X32896299Y-88762495D01*
X32311228Y-88240773D01*
X31837394Y-87791905D01*
X31835647Y-87790174D01*
X30676253Y-86581429D01*
X29506040Y-85247223D01*
X28355319Y-83826359D01*
X27254401Y-82357639D01*
X26233598Y-80879865D01*
X25378468Y-79524333D01*
X24125738Y-77270688D01*
X23014869Y-74925803D01*
X22046989Y-72492608D01*
X21223227Y-69974033D01*
X20544710Y-67373009D01*
X20341673Y-66443333D01*
X20104333Y-65300333D01*
X20104333Y-58371212D01*
X21027532Y-58371212D01*
X21034265Y-59312250D01*
X21054092Y-60218941D01*
X21087011Y-61057424D01*
X21133024Y-61793836D01*
X21190256Y-62379333D01*
X21545572Y-64773795D01*
X22006445Y-67059058D01*
X22580532Y-69264085D01*
X23275486Y-71417839D01*
X24098962Y-73549284D01*
X24215367Y-73825103D01*
X24382316Y-74212000D01*
X24525192Y-74533793D01*
X24631505Y-74763058D01*
X24688765Y-74872368D01*
X24694682Y-74877539D01*
X24689954Y-74790461D01*
X24658251Y-74578131D01*
X24605878Y-74281328D01*
X24587562Y-74184435D01*
X24409049Y-73038589D01*
X24284937Y-71773578D01*
X24215198Y-70430585D01*
X24199800Y-69050792D01*
X24238715Y-67675381D01*
X24331912Y-66345534D01*
X24479363Y-65102434D01*
X24594616Y-64411333D01*
X24868911Y-63146705D01*
X25217186Y-61849887D01*
X25620971Y-60582472D01*
X26061797Y-59406053D01*
X26181494Y-59119666D01*
X26471557Y-58442333D01*
X94593776Y-58442333D01*
X94883987Y-59119666D01*
X95523395Y-60795900D01*
X96052280Y-62572931D01*
X96461555Y-64415965D01*
X96730423Y-66188814D01*
X96782685Y-66772034D01*
X96820752Y-67484273D01*
X96844645Y-68285815D01*
X96854391Y-69136945D01*
X96850011Y-69997946D01*
X96831532Y-70829103D01*
X96798976Y-71590700D01*
X96752367Y-72243021D01*
X96726608Y-72492107D01*
X96665645Y-72954508D01*
X96583744Y-73493044D01*
X96488403Y-74065616D01*
X96387119Y-74630121D01*
X96287390Y-75144460D01*
X96196712Y-75566531D01*
X96136079Y-75808208D01*
X96130625Y-75866098D01*
X96182446Y-75789079D01*
X96282036Y-75597851D01*
X96419887Y-75313113D01*
X96586492Y-74955563D01*
X96772344Y-74545902D01*
X96967936Y-74104829D01*
X97163761Y-73653042D01*
X97350313Y-73211242D01*
X97518083Y-72800128D01*
X97520793Y-72793333D01*
X98397246Y-70372532D01*
X99111890Y-67914333D01*
X99663159Y-65426790D01*
X100049490Y-62917957D01*
X100269319Y-60395890D01*
X100324252Y-58357666D01*
X100239832Y-55830011D01*
X99987555Y-53309357D01*
X99568896Y-50803302D01*
X98985330Y-48319446D01*
X98238333Y-45865384D01*
X97521390Y-43922000D01*
X97359371Y-43525174D01*
X97174587Y-43088753D01*
X96976701Y-42633691D01*
X96775376Y-42180942D01*
X96580275Y-41751463D01*
X96401062Y-41366207D01*
X96247399Y-41046130D01*
X96128949Y-40812187D01*
X96055374Y-40685333D01*
X96036339Y-40686523D01*
X96042941Y-40715856D01*
X96126193Y-41055746D01*
X96228560Y-41513823D01*
X96340073Y-42041460D01*
X96450760Y-42590026D01*
X96550653Y-43110894D01*
X96629780Y-43555434D01*
X96648194Y-43668000D01*
X96700618Y-44098322D01*
X96745886Y-44665639D01*
X96783399Y-45337738D01*
X96812558Y-46082407D01*
X96832765Y-46867434D01*
X96843421Y-47660606D01*
X96843928Y-48429712D01*
X96833687Y-49142540D01*
X96812100Y-49766876D01*
X96778567Y-50270510D01*
X96772122Y-50337065D01*
X96530725Y-52086362D01*
X96168362Y-53838761D01*
X95696374Y-55549653D01*
X95126100Y-57174430D01*
X94883839Y-57765000D01*
X94593776Y-58442333D01*
X26471557Y-58442333D01*
X26181345Y-57765000D01*
X25865796Y-56975794D01*
X25549963Y-56090855D01*
X25257943Y-55182017D01*
X25013833Y-54321115D01*
X24974299Y-54166666D01*
X24734100Y-53147964D01*
X24545921Y-52199215D01*
X24404834Y-51277800D01*
X24305911Y-50341100D01*
X24244225Y-49346496D01*
X24214845Y-48251368D01*
X24210666Y-47562666D01*
X24222071Y-46457150D01*
X24258473Y-45479429D01*
X24323149Y-44589362D01*
X24419378Y-43746810D01*
X24550440Y-42911632D01*
X24622141Y-42525000D01*
X24688808Y-42170067D01*
X24738672Y-41884231D01*
X24765699Y-41703401D01*
X24767792Y-41658520D01*
X24730209Y-41724858D01*
X24638753Y-41920789D01*
X24505321Y-42219870D01*
X24341811Y-42595654D01*
X24253571Y-42801520D01*
X23424213Y-44890015D01*
X22722321Y-46976722D01*
X22138929Y-49095401D01*
X21665073Y-51279807D01*
X21291786Y-53563697D01*
X21190256Y-54336000D01*
X21131525Y-54940838D01*
X21085888Y-55680640D01*
X21053343Y-56521545D01*
X21033891Y-57429690D01*
X21027532Y-58371212D01*
X20104333Y-58371212D01*
X20104333Y-51415000D01*
X20341673Y-50272000D01*
X20800318Y-48261023D01*
X21320340Y-46368847D01*
X21916742Y-44551415D01*
X22604526Y-42764667D01*
X23398697Y-40964545D01*
X23786960Y-40154333D01*
X25009604Y-37850514D01*
X26370992Y-35639708D01*
X27864978Y-33527288D01*
X29485418Y-31518626D01*
X31226166Y-29619095D01*
X33081077Y-27834068D01*
X35044005Y-26168918D01*
X37108805Y-24629016D01*
X39269331Y-23219736D01*
X41058042Y-22207545D01*
X44548642Y-22207545D01*
X44637167Y-22203803D01*
X44849449Y-22173018D01*
X45143227Y-22121490D01*
X45208000Y-22109257D01*
X46066351Y-21966235D01*
X46963405Y-21860313D01*
X47932477Y-21788939D01*
X49006881Y-21749559D01*
X50034000Y-21739333D01*
X51205866Y-21752433D01*
X52252808Y-21795020D01*
X53217445Y-21872021D01*
X54142396Y-21988364D01*
X55070280Y-22148978D01*
X56043716Y-22358791D01*
X56638000Y-22502965D01*
X57150733Y-22640895D01*
X57715744Y-22808595D01*
X58302483Y-22995421D01*
X58880398Y-23190726D01*
X59418939Y-23383865D01*
X59887555Y-23564191D01*
X60255696Y-23721060D01*
X60492811Y-23843824D01*
X60500964Y-23849063D01*
X60577197Y-23821388D01*
X60765422Y-23742353D01*
X60995543Y-23641975D01*
X61492845Y-23438736D01*
X62105219Y-23214313D01*
X62782670Y-22985297D01*
X63475205Y-22768284D01*
X64132828Y-22579865D01*
X64427333Y-22502965D01*
X64972870Y-22374333D01*
X77127333Y-22374333D01*
X77169666Y-22416666D01*
X77212000Y-22374333D01*
X77169666Y-22332000D01*
X77127333Y-22374333D01*
X64972870Y-22374333D01*
X65446035Y-22262766D01*
X66394784Y-22074588D01*
X67316199Y-21933501D01*
X68252899Y-21834578D01*
X69247503Y-21772891D01*
X70342631Y-21743512D01*
X71031333Y-21739333D01*
X72136849Y-21750738D01*
X73114570Y-21787139D01*
X74004637Y-21851815D01*
X74847189Y-21948045D01*
X75682367Y-22079106D01*
X76069000Y-22150808D01*
X76424635Y-22216992D01*
X76711950Y-22265475D01*
X76894743Y-22290444D01*
X76941103Y-22290835D01*
X76877527Y-22251195D01*
X76685544Y-22159464D01*
X76393153Y-22028437D01*
X76028355Y-21870910D01*
X75943854Y-21835105D01*
X73666840Y-20953698D01*
X71341027Y-20214085D01*
X68948402Y-19611535D01*
X66470952Y-19141318D01*
X64766000Y-18899356D01*
X64182724Y-18841287D01*
X63467933Y-18792630D01*
X62659224Y-18754112D01*
X61794192Y-18726461D01*
X60910432Y-18710405D01*
X60045540Y-18706673D01*
X59237113Y-18715992D01*
X58522746Y-18739091D01*
X58032136Y-18768936D01*
X55402781Y-19060654D01*
X52820279Y-19514629D01*
X50280003Y-20131803D01*
X48213666Y-20764200D01*
X47791879Y-20909864D01*
X47318242Y-21080625D01*
X46816887Y-21266979D01*
X46311946Y-21459422D01*
X45827553Y-21648450D01*
X45387840Y-21824560D01*
X45016939Y-21978247D01*
X44738983Y-22100009D01*
X44578105Y-22180340D01*
X44548642Y-22207545D01*
X41058042Y-22207545D01*
X41519439Y-21946451D01*
X43852982Y-20814533D01*
X46263816Y-19829355D01*
X47556718Y-19373241D01*
X48714023Y-19010319D01*
X49979124Y-18655752D01*
X51290669Y-18325847D01*
X52574000Y-18039673D01*
X53717000Y-17802333D01*
X67602333Y-17802333D01*
X68745333Y-18039673D01*
G37*
X68745333Y-18039673D02*
X70754671Y-18497908D01*
X72645488Y-19017462D01*
X74462166Y-19613446D01*
X76249090Y-20300970D01*
X78050644Y-21095143D01*
X78863000Y-21484021D01*
X81150066Y-22696605D01*
X83345215Y-24046953D01*
X85443150Y-25528351D01*
X87438572Y-27134084D01*
X89326185Y-28857440D01*
X91100692Y-30691704D01*
X92756795Y-32630163D01*
X94289197Y-34666102D01*
X95692602Y-36792808D01*
X96961712Y-39003566D01*
X98091229Y-41291664D01*
X99075858Y-43650387D01*
X99910300Y-46073021D01*
X100589258Y-48552852D01*
X100741328Y-49213666D01*
X100852520Y-49716453D01*
X100949075Y-50160130D01*
X101032026Y-50560413D01*
X101102404Y-50933016D01*
X101161242Y-51293655D01*
X101209572Y-51658045D01*
X101248426Y-52041902D01*
X101278838Y-52460939D01*
X101301839Y-52930872D01*
X101318461Y-53467417D01*
X101329737Y-54086288D01*
X101336699Y-54803200D01*
X101340380Y-55633868D01*
X101341811Y-56594009D01*
X101342026Y-57699336D01*
X101342000Y-58357666D01*
X101342012Y-59547364D01*
X101341362Y-60583443D01*
X101339016Y-61481620D01*
X101333943Y-62257609D01*
X101325109Y-62927126D01*
X101311484Y-63505885D01*
X101292034Y-64009601D01*
X101265726Y-64453991D01*
X101231530Y-64854767D01*
X101188412Y-65227647D01*
X101135340Y-65588345D01*
X101071281Y-65952576D01*
X100995204Y-66336055D01*
X100906077Y-66754496D01*
X100802866Y-67223617D01*
X100741328Y-67501666D01*
X100104214Y-69994419D01*
X99309176Y-72434142D01*
X98361231Y-74813894D01*
X97265395Y-77126734D01*
X96026686Y-79365721D01*
X94650120Y-81523915D01*
X93140713Y-83594375D01*
X91503483Y-85570160D01*
X89743445Y-87444330D01*
X87865617Y-89209943D01*
X85875014Y-90860059D01*
X83776655Y-92387738D01*
X81871016Y-93609598D01*
X81146303Y-94029311D01*
X80310566Y-94484559D01*
X79407310Y-94953628D01*
X78480039Y-95414802D01*
X77572258Y-95846367D01*
X76727471Y-96226608D01*
X76103421Y-96488431D01*
X73711444Y-97359832D01*
X71246448Y-98085269D01*
X68729016Y-98659888D01*
X66179733Y-99078835D01*
X64215666Y-99291647D01*
X63819822Y-99315724D01*
X63284370Y-99334910D01*
X62638962Y-99349242D01*
X61913252Y-99358755D01*
X61136892Y-99363484D01*
X60339536Y-99363467D01*
X59550837Y-99358738D01*
X58800448Y-99349334D01*
X58118021Y-99335291D01*
X57533211Y-99316644D01*
X57075670Y-99293430D01*
X56934333Y-99282822D01*
X54792011Y-99035992D01*
X52604980Y-98663325D01*
X50427850Y-98176132D01*
X48315231Y-97585726D01*
X47544244Y-97337842D01*
X45528372Y-96599888D01*
X43507427Y-95734822D01*
X41671966Y-94836371D01*
X45319406Y-94836371D01*
X45378153Y-94879568D01*
X45572449Y-94968573D01*
X45877692Y-95094192D01*
X46269278Y-95247230D01*
X46722607Y-95418493D01*
X47213074Y-95598785D01*
X47716078Y-95778913D01*
X48207016Y-95949681D01*
X48661285Y-96101896D01*
X48966650Y-96199445D01*
X51222875Y-96830836D01*
X53520329Y-97340165D01*
X55814762Y-97718669D01*
X57696333Y-97928156D01*
X58189218Y-97959886D01*
X58811313Y-97983821D01*
X59524125Y-97999902D01*
X60289160Y-98008070D01*
X61067925Y-98008267D01*
X61821927Y-98000432D01*
X62512671Y-97984508D01*
X63101664Y-97960434D01*
X63453666Y-97936980D01*
X65976624Y-97646874D01*
X68477123Y-97204091D01*
X70933162Y-96613693D01*
X73322741Y-95880747D01*
X74906544Y-95300338D01*
X75336886Y-95128861D01*
X75702973Y-94977734D01*
X75979636Y-94857780D01*
X76141708Y-94779820D01*
X76173224Y-94755669D01*
X76078059Y-94751255D01*
X75869225Y-94776271D01*
X75680537Y-94808808D01*
X74691672Y-94961377D01*
X73577118Y-95069850D01*
X72374626Y-95134414D01*
X71121949Y-95155258D01*
X69856838Y-95132567D01*
X68617043Y-95066530D01*
X67440318Y-94957334D01*
X66364413Y-94805165D01*
X66120666Y-94761383D01*
X65732291Y-94679666D01*
X76365333Y-94679666D01*
X76407666Y-94722000D01*
X76450000Y-94679666D01*
X76407666Y-94637333D01*
X76365333Y-94679666D01*
X65732291Y-94679666D01*
X65234698Y-94574969D01*
X64299852Y-94343234D01*
X63360288Y-94079250D01*
X62460170Y-93796089D01*
X61643657Y-93506825D01*
X61006078Y-93247350D01*
X60532666Y-93037984D01*
X60059254Y-93247350D01*
X59044630Y-93651466D01*
X57902146Y-94028121D01*
X56672392Y-94367153D01*
X55395957Y-94658399D01*
X54113429Y-94891697D01*
X52865397Y-95056885D01*
X52808399Y-95062789D01*
X52337727Y-95097511D01*
X51742670Y-95120699D01*
X51054810Y-95132921D01*
X50305725Y-95134747D01*
X49526997Y-95126746D01*
X48750205Y-95109486D01*
X48006931Y-95083536D01*
X47328755Y-95049466D01*
X46747256Y-95007843D01*
X46294016Y-94959238D01*
X46188764Y-94943541D01*
X45833271Y-94888775D01*
X45546087Y-94850623D01*
X45364112Y-94833634D01*
X45319406Y-94836371D01*
X41671966Y-94836371D01*
X41520062Y-94762015D01*
X39604930Y-93700838D01*
X37800681Y-92570662D01*
X37164666Y-92135886D01*
X36503938Y-91659618D01*
X35785371Y-91118325D01*
X35037144Y-90534986D01*
X34287437Y-89932581D01*
X33564428Y-89334091D01*
X32896299Y-88762495D01*
X32311228Y-88240773D01*
X31837394Y-87791905D01*
X31835647Y-87790174D01*
X30676253Y-86581429D01*
X29506040Y-85247223D01*
X28355319Y-83826359D01*
X27254401Y-82357639D01*
X26233598Y-80879865D01*
X25378468Y-79524333D01*
X24125738Y-77270688D01*
X23014869Y-74925803D01*
X22046989Y-72492608D01*
X21223227Y-69974033D01*
X20544710Y-67373009D01*
X20341673Y-66443333D01*
X20104333Y-65300333D01*
X20104333Y-58371212D01*
X21027532Y-58371212D01*
X21034265Y-59312250D01*
X21054092Y-60218941D01*
X21087011Y-61057424D01*
X21133024Y-61793836D01*
X21190256Y-62379333D01*
X21545572Y-64773795D01*
X22006445Y-67059058D01*
X22580532Y-69264085D01*
X23275486Y-71417839D01*
X24098962Y-73549284D01*
X24215367Y-73825103D01*
X24382316Y-74212000D01*
X24525192Y-74533793D01*
X24631505Y-74763058D01*
X24688765Y-74872368D01*
X24694682Y-74877539D01*
X24689954Y-74790461D01*
X24658251Y-74578131D01*
X24605878Y-74281328D01*
X24587562Y-74184435D01*
X24409049Y-73038589D01*
X24284937Y-71773578D01*
X24215198Y-70430585D01*
X24199800Y-69050792D01*
X24238715Y-67675381D01*
X24331912Y-66345534D01*
X24479363Y-65102434D01*
X24594616Y-64411333D01*
X24868911Y-63146705D01*
X25217186Y-61849887D01*
X25620971Y-60582472D01*
X26061797Y-59406053D01*
X26181494Y-59119666D01*
X26471557Y-58442333D01*
X94593776Y-58442333D01*
X94883987Y-59119666D01*
X95523395Y-60795900D01*
X96052280Y-62572931D01*
X96461555Y-64415965D01*
X96730423Y-66188814D01*
X96782685Y-66772034D01*
X96820752Y-67484273D01*
X96844645Y-68285815D01*
X96854391Y-69136945D01*
X96850011Y-69997946D01*
X96831532Y-70829103D01*
X96798976Y-71590700D01*
X96752367Y-72243021D01*
X96726608Y-72492107D01*
X96665645Y-72954508D01*
X96583744Y-73493044D01*
X96488403Y-74065616D01*
X96387119Y-74630121D01*
X96287390Y-75144460D01*
X96196712Y-75566531D01*
X96136079Y-75808208D01*
X96130625Y-75866098D01*
X96182446Y-75789079D01*
X96282036Y-75597851D01*
X96419887Y-75313113D01*
X96586492Y-74955563D01*
X96772344Y-74545902D01*
X96967936Y-74104829D01*
X97163761Y-73653042D01*
X97350313Y-73211242D01*
X97518083Y-72800128D01*
X97520793Y-72793333D01*
X98397246Y-70372532D01*
X99111890Y-67914333D01*
X99663159Y-65426790D01*
X100049490Y-62917957D01*
X100269319Y-60395890D01*
X100324252Y-58357666D01*
X100239832Y-55830011D01*
X99987555Y-53309357D01*
X99568896Y-50803302D01*
X98985330Y-48319446D01*
X98238333Y-45865384D01*
X97521390Y-43922000D01*
X97359371Y-43525174D01*
X97174587Y-43088753D01*
X96976701Y-42633691D01*
X96775376Y-42180942D01*
X96580275Y-41751463D01*
X96401062Y-41366207D01*
X96247399Y-41046130D01*
X96128949Y-40812187D01*
X96055374Y-40685333D01*
X96036339Y-40686523D01*
X96042941Y-40715856D01*
X96126193Y-41055746D01*
X96228560Y-41513823D01*
X96340073Y-42041460D01*
X96450760Y-42590026D01*
X96550653Y-43110894D01*
X96629780Y-43555434D01*
X96648194Y-43668000D01*
X96700618Y-44098322D01*
X96745886Y-44665639D01*
X96783399Y-45337738D01*
X96812558Y-46082407D01*
X96832765Y-46867434D01*
X96843421Y-47660606D01*
X96843928Y-48429712D01*
X96833687Y-49142540D01*
X96812100Y-49766876D01*
X96778567Y-50270510D01*
X96772122Y-50337065D01*
X96530725Y-52086362D01*
X96168362Y-53838761D01*
X95696374Y-55549653D01*
X95126100Y-57174430D01*
X94883839Y-57765000D01*
X94593776Y-58442333D01*
X26471557Y-58442333D01*
X26181345Y-57765000D01*
X25865796Y-56975794D01*
X25549963Y-56090855D01*
X25257943Y-55182017D01*
X25013833Y-54321115D01*
X24974299Y-54166666D01*
X24734100Y-53147964D01*
X24545921Y-52199215D01*
X24404834Y-51277800D01*
X24305911Y-50341100D01*
X24244225Y-49346496D01*
X24214845Y-48251368D01*
X24210666Y-47562666D01*
X24222071Y-46457150D01*
X24258473Y-45479429D01*
X24323149Y-44589362D01*
X24419378Y-43746810D01*
X24550440Y-42911632D01*
X24622141Y-42525000D01*
X24688808Y-42170067D01*
X24738672Y-41884231D01*
X24765699Y-41703401D01*
X24767792Y-41658520D01*
X24730209Y-41724858D01*
X24638753Y-41920789D01*
X24505321Y-42219870D01*
X24341811Y-42595654D01*
X24253571Y-42801520D01*
X23424213Y-44890015D01*
X22722321Y-46976722D01*
X22138929Y-49095401D01*
X21665073Y-51279807D01*
X21291786Y-53563697D01*
X21190256Y-54336000D01*
X21131525Y-54940838D01*
X21085888Y-55680640D01*
X21053343Y-56521545D01*
X21033891Y-57429690D01*
X21027532Y-58371212D01*
X20104333Y-58371212D01*
X20104333Y-51415000D01*
X20341673Y-50272000D01*
X20800318Y-48261023D01*
X21320340Y-46368847D01*
X21916742Y-44551415D01*
X22604526Y-42764667D01*
X23398697Y-40964545D01*
X23786960Y-40154333D01*
X25009604Y-37850514D01*
X26370992Y-35639708D01*
X27864978Y-33527288D01*
X29485418Y-31518626D01*
X31226166Y-29619095D01*
X33081077Y-27834068D01*
X35044005Y-26168918D01*
X37108805Y-24629016D01*
X39269331Y-23219736D01*
X41058042Y-22207545D01*
X44548642Y-22207545D01*
X44637167Y-22203803D01*
X44849449Y-22173018D01*
X45143227Y-22121490D01*
X45208000Y-22109257D01*
X46066351Y-21966235D01*
X46963405Y-21860313D01*
X47932477Y-21788939D01*
X49006881Y-21749559D01*
X50034000Y-21739333D01*
X51205866Y-21752433D01*
X52252808Y-21795020D01*
X53217445Y-21872021D01*
X54142396Y-21988364D01*
X55070280Y-22148978D01*
X56043716Y-22358791D01*
X56638000Y-22502965D01*
X57150733Y-22640895D01*
X57715744Y-22808595D01*
X58302483Y-22995421D01*
X58880398Y-23190726D01*
X59418939Y-23383865D01*
X59887555Y-23564191D01*
X60255696Y-23721060D01*
X60492811Y-23843824D01*
X60500964Y-23849063D01*
X60577197Y-23821388D01*
X60765422Y-23742353D01*
X60995543Y-23641975D01*
X61492845Y-23438736D01*
X62105219Y-23214313D01*
X62782670Y-22985297D01*
X63475205Y-22768284D01*
X64132828Y-22579865D01*
X64427333Y-22502965D01*
X64972870Y-22374333D01*
X77127333Y-22374333D01*
X77169666Y-22416666D01*
X77212000Y-22374333D01*
X77169666Y-22332000D01*
X77127333Y-22374333D01*
X64972870Y-22374333D01*
X65446035Y-22262766D01*
X66394784Y-22074588D01*
X67316199Y-21933501D01*
X68252899Y-21834578D01*
X69247503Y-21772891D01*
X70342631Y-21743512D01*
X71031333Y-21739333D01*
X72136849Y-21750738D01*
X73114570Y-21787139D01*
X74004637Y-21851815D01*
X74847189Y-21948045D01*
X75682367Y-22079106D01*
X76069000Y-22150808D01*
X76424635Y-22216992D01*
X76711950Y-22265475D01*
X76894743Y-22290444D01*
X76941103Y-22290835D01*
X76877527Y-22251195D01*
X76685544Y-22159464D01*
X76393153Y-22028437D01*
X76028355Y-21870910D01*
X75943854Y-21835105D01*
X73666840Y-20953698D01*
X71341027Y-20214085D01*
X68948402Y-19611535D01*
X66470952Y-19141318D01*
X64766000Y-18899356D01*
X64182724Y-18841287D01*
X63467933Y-18792630D01*
X62659224Y-18754112D01*
X61794192Y-18726461D01*
X60910432Y-18710405D01*
X60045540Y-18706673D01*
X59237113Y-18715992D01*
X58522746Y-18739091D01*
X58032136Y-18768936D01*
X55402781Y-19060654D01*
X52820279Y-19514629D01*
X50280003Y-20131803D01*
X48213666Y-20764200D01*
X47791879Y-20909864D01*
X47318242Y-21080625D01*
X46816887Y-21266979D01*
X46311946Y-21459422D01*
X45827553Y-21648450D01*
X45387840Y-21824560D01*
X45016939Y-21978247D01*
X44738983Y-22100009D01*
X44578105Y-22180340D01*
X44548642Y-22207545D01*
X41058042Y-22207545D01*
X41519439Y-21946451D01*
X43852982Y-20814533D01*
X46263816Y-19829355D01*
X47556718Y-19373241D01*
X48714023Y-19010319D01*
X49979124Y-18655752D01*
X51290669Y-18325847D01*
X52574000Y-18039673D01*
X53717000Y-17802333D01*
X67602333Y-17802333D01*
X68745333Y-18039673D01*
D11*
G36*
X95699651Y-141628888D02*
G01*
X96010870Y-141723296D01*
X96297680Y-141876599D01*
X96297683Y-141876601D01*
X96297684Y-141876602D01*
X96549082Y-142082918D01*
X96755398Y-142334316D01*
X96755401Y-142334320D01*
X96908704Y-142621130D01*
X97003112Y-142932349D01*
X97034988Y-143256000D01*
X97003112Y-143579651D01*
X96908704Y-143890870D01*
X96755401Y-144177680D01*
X96755399Y-144177683D01*
X96755398Y-144177684D01*
X96549082Y-144429082D01*
X96297684Y-144635398D01*
X96297680Y-144635401D01*
X96010870Y-144788704D01*
X95699651Y-144883112D01*
X95457107Y-144907000D01*
X91994893Y-144907000D01*
X91752349Y-144883112D01*
X91441130Y-144788704D01*
X91154320Y-144635401D01*
X91154316Y-144635398D01*
X90902918Y-144429082D01*
X90696602Y-144177684D01*
X90696601Y-144177683D01*
X90696599Y-144177680D01*
X90543296Y-143890870D01*
X90448888Y-143579651D01*
X90417012Y-143256000D01*
X90448888Y-142932349D01*
X90543296Y-142621130D01*
X90696599Y-142334320D01*
X90696602Y-142334316D01*
X90902918Y-142082918D01*
X91154316Y-141876602D01*
X91154317Y-141876601D01*
X91154320Y-141876599D01*
X91441130Y-141723296D01*
X91752349Y-141628888D01*
X91994893Y-141605000D01*
X95457107Y-141605000D01*
X95699651Y-141628888D01*
G37*
G36*
X29786651Y-141628888D02*
G01*
X30097870Y-141723296D01*
X30384680Y-141876599D01*
X30384683Y-141876601D01*
X30384684Y-141876602D01*
X30636082Y-142082918D01*
X30842398Y-142334316D01*
X30842401Y-142334320D01*
X30995704Y-142621130D01*
X31090112Y-142932349D01*
X31121988Y-143256000D01*
X31090112Y-143579651D01*
X30995704Y-143890870D01*
X30842401Y-144177680D01*
X30842399Y-144177683D01*
X30842398Y-144177684D01*
X30636082Y-144429082D01*
X30384684Y-144635398D01*
X30384680Y-144635401D01*
X30097870Y-144788704D01*
X29786651Y-144883112D01*
X29544107Y-144907000D01*
X26081893Y-144907000D01*
X25839349Y-144883112D01*
X25528130Y-144788704D01*
X25241320Y-144635401D01*
X25241316Y-144635398D01*
X24989918Y-144429082D01*
X24783602Y-144177684D01*
X24783601Y-144177683D01*
X24783599Y-144177680D01*
X24630296Y-143890870D01*
X24535888Y-143579651D01*
X24504012Y-143256000D01*
X24535888Y-142932349D01*
X24630296Y-142621130D01*
X24783599Y-142334320D01*
X24783602Y-142334316D01*
X24989918Y-142082918D01*
X25241316Y-141876602D01*
X25241317Y-141876601D01*
X25241320Y-141876599D01*
X25528130Y-141723296D01*
X25839349Y-141628888D01*
X26081893Y-141605000D01*
X29544107Y-141605000D01*
X29786651Y-141628888D01*
G37*
G36*
X81718546Y-125651934D02*
G01*
X82037782Y-125715434D01*
X82629426Y-125960501D01*
X83161892Y-126316284D01*
X83614716Y-126769108D01*
X83970499Y-127301574D01*
X84215566Y-127893218D01*
X84340500Y-128521304D01*
X84340500Y-129161696D01*
X84215566Y-129789782D01*
X83970499Y-130381426D01*
X83685486Y-130807977D01*
X83657146Y-130850392D01*
X83614716Y-130913892D01*
X83161892Y-131366716D01*
X82629426Y-131722499D01*
X82037782Y-131967566D01*
X81728932Y-132029000D01*
X81409697Y-132092500D01*
X80769303Y-132092500D01*
X80450068Y-132029000D01*
X80141218Y-131967566D01*
X79549574Y-131722499D01*
X79017108Y-131366716D01*
X78564284Y-130913892D01*
X78521855Y-130850392D01*
X78493514Y-130807977D01*
X78208501Y-130381426D01*
X77963434Y-129789782D01*
X77838500Y-129161696D01*
X77838500Y-128521304D01*
X77963434Y-127893218D01*
X78208501Y-127301574D01*
X78564284Y-126769108D01*
X79017108Y-126316284D01*
X79549574Y-125960501D01*
X80141218Y-125715434D01*
X80460454Y-125651934D01*
X80769303Y-125590500D01*
X81409697Y-125590500D01*
X81718546Y-125651934D01*
G37*
G36*
X68198239Y-125589467D02*
G01*
X68512282Y-125651934D01*
X69103926Y-125897001D01*
X69530477Y-126182014D01*
X69636391Y-126252783D01*
X70089217Y-126705609D01*
X70131646Y-126769109D01*
X70444999Y-127238074D01*
X70690066Y-127829718D01*
X70815000Y-128457804D01*
X70815000Y-129098196D01*
X70690066Y-129726282D01*
X70444999Y-130317926D01*
X70089216Y-130850392D01*
X69636392Y-131303216D01*
X69103926Y-131658999D01*
X68512282Y-131904066D01*
X68198239Y-131966533D01*
X67884197Y-132029000D01*
X67243803Y-132029000D01*
X66929761Y-131966533D01*
X66615718Y-131904066D01*
X66024074Y-131658999D01*
X65491608Y-131303216D01*
X65038784Y-130850392D01*
X64683001Y-130317926D01*
X64437934Y-129726282D01*
X64313000Y-129098196D01*
X64313000Y-128457804D01*
X64437934Y-127829718D01*
X64683001Y-127238074D01*
X64996354Y-126769109D01*
X65038783Y-126705609D01*
X65491609Y-126252783D01*
X65597523Y-126182014D01*
X66024074Y-125897001D01*
X66615718Y-125651934D01*
X66929761Y-125589467D01*
X67243803Y-125527000D01*
X67884197Y-125527000D01*
X68198239Y-125589467D01*
G37*
G36*
X54736239Y-125589467D02*
G01*
X55050282Y-125651934D01*
X55641926Y-125897001D01*
X56068477Y-126182014D01*
X56174391Y-126252783D01*
X56627217Y-126705609D01*
X56669646Y-126769109D01*
X56982999Y-127238074D01*
X57228066Y-127829718D01*
X57353000Y-128457804D01*
X57353000Y-129098196D01*
X57228066Y-129726282D01*
X56982999Y-130317926D01*
X56627216Y-130850392D01*
X56174392Y-131303216D01*
X55641926Y-131658999D01*
X55050282Y-131904066D01*
X54736239Y-131966533D01*
X54422197Y-132029000D01*
X53781803Y-132029000D01*
X53467761Y-131966533D01*
X53153718Y-131904066D01*
X52562074Y-131658999D01*
X52029608Y-131303216D01*
X51576784Y-130850392D01*
X51221001Y-130317926D01*
X50975934Y-129726282D01*
X50851000Y-129098196D01*
X50851000Y-128457804D01*
X50975934Y-127829718D01*
X51221001Y-127238074D01*
X51534354Y-126769109D01*
X51576783Y-126705609D01*
X52029609Y-126252783D01*
X52135523Y-126182014D01*
X52562074Y-125897001D01*
X53153718Y-125651934D01*
X53467761Y-125589467D01*
X53781803Y-125527000D01*
X54422197Y-125527000D01*
X54736239Y-125589467D01*
G37*
G36*
X41274239Y-125589467D02*
G01*
X41588282Y-125651934D01*
X42179926Y-125897001D01*
X42606477Y-126182014D01*
X42712391Y-126252783D01*
X43165217Y-126705609D01*
X43207646Y-126769109D01*
X43520999Y-127238074D01*
X43766066Y-127829718D01*
X43891000Y-128457804D01*
X43891000Y-129098196D01*
X43766066Y-129726282D01*
X43520999Y-130317926D01*
X43165216Y-130850392D01*
X42712392Y-131303216D01*
X42179926Y-131658999D01*
X41588282Y-131904066D01*
X41274239Y-131966533D01*
X40960197Y-132029000D01*
X40319803Y-132029000D01*
X40005761Y-131966533D01*
X39691718Y-131904066D01*
X39100074Y-131658999D01*
X38567608Y-131303216D01*
X38114784Y-130850392D01*
X37759001Y-130317926D01*
X37513934Y-129726282D01*
X37389000Y-129098196D01*
X37389000Y-128457804D01*
X37513934Y-127829718D01*
X37759001Y-127238074D01*
X38072354Y-126769109D01*
X38114783Y-126705609D01*
X38567609Y-126252783D01*
X38673523Y-126182014D01*
X39100074Y-125897001D01*
X39691718Y-125651934D01*
X40005761Y-125589467D01*
X40319803Y-125527000D01*
X40960197Y-125527000D01*
X41274239Y-125589467D01*
G37*
G36*
X27812239Y-125589467D02*
G01*
X28126282Y-125651934D01*
X28717926Y-125897001D01*
X29144477Y-126182014D01*
X29250391Y-126252783D01*
X29703217Y-126705609D01*
X29745646Y-126769109D01*
X30058999Y-127238074D01*
X30304066Y-127829718D01*
X30429000Y-128457804D01*
X30429000Y-129098196D01*
X30304066Y-129726282D01*
X30058999Y-130317926D01*
X29703216Y-130850392D01*
X29250392Y-131303216D01*
X28717926Y-131658999D01*
X28126282Y-131904066D01*
X27812239Y-131966533D01*
X27498197Y-132029000D01*
X26857803Y-132029000D01*
X26543761Y-131966533D01*
X26229718Y-131904066D01*
X25638074Y-131658999D01*
X25105608Y-131303216D01*
X24652784Y-130850392D01*
X24297001Y-130317926D01*
X24051934Y-129726282D01*
X23927000Y-129098196D01*
X23927000Y-128457804D01*
X24051934Y-127829718D01*
X24297001Y-127238074D01*
X24610354Y-126769109D01*
X24652783Y-126705609D01*
X25105609Y-126252783D01*
X25211523Y-126182014D01*
X25638074Y-125897001D01*
X26229718Y-125651934D01*
X26543761Y-125589467D01*
X26857803Y-125527000D01*
X27498197Y-125527000D01*
X27812239Y-125589467D01*
G37*
G36*
X95122239Y-125589467D02*
G01*
X95436282Y-125651934D01*
X96027926Y-125897001D01*
X96454477Y-126182014D01*
X96560391Y-126252783D01*
X97013217Y-126705609D01*
X97055646Y-126769109D01*
X97368999Y-127238074D01*
X97614066Y-127829718D01*
X97739000Y-128457804D01*
X97739000Y-129098196D01*
X97614066Y-129726282D01*
X97368999Y-130317926D01*
X97013216Y-130850392D01*
X96560392Y-131303216D01*
X96027926Y-131658999D01*
X95436282Y-131904066D01*
X95122239Y-131966533D01*
X94808197Y-132029000D01*
X94167803Y-132029000D01*
X93853761Y-131966533D01*
X93539718Y-131904066D01*
X92948074Y-131658999D01*
X92415608Y-131303216D01*
X91962784Y-130850392D01*
X91607001Y-130317926D01*
X91361934Y-129726282D01*
X91237000Y-129098196D01*
X91237000Y-128457804D01*
X91361934Y-127829718D01*
X91607001Y-127238074D01*
X91920354Y-126769109D01*
X91962783Y-126705609D01*
X92415609Y-126252783D01*
X92521523Y-126182014D01*
X92948074Y-125897001D01*
X93539718Y-125651934D01*
X93853761Y-125589467D01*
X94167803Y-125527000D01*
X94808197Y-125527000D01*
X95122239Y-125589467D01*
G37*
G36*
X27807046Y-110411934D02*
G01*
X28126282Y-110475434D01*
X28717926Y-110720501D01*
X29250392Y-111076284D01*
X29703216Y-111529108D01*
X30058999Y-112061574D01*
X30304066Y-112653218D01*
X30429000Y-113281304D01*
X30429000Y-113921696D01*
X30304066Y-114549782D01*
X30058999Y-115141426D01*
X29773986Y-115567977D01*
X29745646Y-115610392D01*
X29703216Y-115673892D01*
X29250392Y-116126716D01*
X28717926Y-116482499D01*
X28126282Y-116727566D01*
X27817432Y-116789000D01*
X27498197Y-116852500D01*
X26857803Y-116852500D01*
X26538568Y-116789000D01*
X26229718Y-116727566D01*
X25638074Y-116482499D01*
X25105608Y-116126716D01*
X24652784Y-115673892D01*
X24610355Y-115610392D01*
X24582014Y-115567977D01*
X24297001Y-115141426D01*
X24051934Y-114549782D01*
X23927000Y-113921696D01*
X23927000Y-113281304D01*
X24051934Y-112653218D01*
X24297001Y-112061574D01*
X24652784Y-111529108D01*
X25105608Y-111076284D01*
X25638074Y-110720501D01*
X26229718Y-110475434D01*
X26548954Y-110411934D01*
X26857803Y-110350500D01*
X27498197Y-110350500D01*
X27807046Y-110411934D01*
G37*
G36*
X41274239Y-110349467D02*
G01*
X41588282Y-110411934D01*
X42179926Y-110657001D01*
X42606477Y-110942014D01*
X42712391Y-111012783D01*
X43165217Y-111465609D01*
X43207646Y-111529109D01*
X43520999Y-111998074D01*
X43766066Y-112589718D01*
X43891000Y-113217804D01*
X43891000Y-113858196D01*
X43766066Y-114486282D01*
X43520999Y-115077926D01*
X43165216Y-115610392D01*
X42712392Y-116063216D01*
X42179926Y-116418999D01*
X41588282Y-116664066D01*
X41274239Y-116726533D01*
X40960197Y-116789000D01*
X40319803Y-116789000D01*
X40005761Y-116726533D01*
X39691718Y-116664066D01*
X39100074Y-116418999D01*
X38567608Y-116063216D01*
X38114784Y-115610392D01*
X37759001Y-115077926D01*
X37513934Y-114486282D01*
X37389000Y-113858196D01*
X37389000Y-113217804D01*
X37513934Y-112589718D01*
X37759001Y-111998074D01*
X38072354Y-111529109D01*
X38114783Y-111465609D01*
X38567609Y-111012783D01*
X38673523Y-110942014D01*
X39100074Y-110657001D01*
X39691718Y-110411934D01*
X40005761Y-110349467D01*
X40319803Y-110287000D01*
X40960197Y-110287000D01*
X41274239Y-110349467D01*
G37*
G36*
X81660239Y-110349467D02*
G01*
X81974282Y-110411934D01*
X82565926Y-110657001D01*
X82992477Y-110942014D01*
X83098391Y-111012783D01*
X83551217Y-111465609D01*
X83593646Y-111529109D01*
X83906999Y-111998074D01*
X84152066Y-112589718D01*
X84277000Y-113217804D01*
X84277000Y-113858196D01*
X84152066Y-114486282D01*
X83906999Y-115077926D01*
X83551216Y-115610392D01*
X83098392Y-116063216D01*
X82565926Y-116418999D01*
X81974282Y-116664066D01*
X81660239Y-116726533D01*
X81346197Y-116789000D01*
X80705803Y-116789000D01*
X80391761Y-116726533D01*
X80077718Y-116664066D01*
X79486074Y-116418999D01*
X78953608Y-116063216D01*
X78500784Y-115610392D01*
X78145001Y-115077926D01*
X77899934Y-114486282D01*
X77775000Y-113858196D01*
X77775000Y-113217804D01*
X77899934Y-112589718D01*
X78145001Y-111998074D01*
X78458354Y-111529109D01*
X78500783Y-111465609D01*
X78953609Y-111012783D01*
X79059523Y-110942014D01*
X79486074Y-110657001D01*
X80077718Y-110411934D01*
X80391761Y-110349467D01*
X80705803Y-110287000D01*
X81346197Y-110287000D01*
X81660239Y-110349467D01*
G37*
G36*
X54736239Y-110349467D02*
G01*
X55050282Y-110411934D01*
X55641926Y-110657001D01*
X56068477Y-110942014D01*
X56174391Y-111012783D01*
X56627217Y-111465609D01*
X56669646Y-111529109D01*
X56982999Y-111998074D01*
X57228066Y-112589718D01*
X57353000Y-113217804D01*
X57353000Y-113858196D01*
X57228066Y-114486282D01*
X56982999Y-115077926D01*
X56627216Y-115610392D01*
X56174392Y-116063216D01*
X55641926Y-116418999D01*
X55050282Y-116664066D01*
X54736239Y-116726533D01*
X54422197Y-116789000D01*
X53781803Y-116789000D01*
X53467761Y-116726533D01*
X53153718Y-116664066D01*
X52562074Y-116418999D01*
X52029608Y-116063216D01*
X51576784Y-115610392D01*
X51221001Y-115077926D01*
X50975934Y-114486282D01*
X50851000Y-113858196D01*
X50851000Y-113217804D01*
X50975934Y-112589718D01*
X51221001Y-111998074D01*
X51534354Y-111529109D01*
X51576783Y-111465609D01*
X52029609Y-111012783D01*
X52135523Y-110942014D01*
X52562074Y-110657001D01*
X53153718Y-110411934D01*
X53467761Y-110349467D01*
X53781803Y-110287000D01*
X54422197Y-110287000D01*
X54736239Y-110349467D01*
G37*
G36*
X68198239Y-110349467D02*
G01*
X68512282Y-110411934D01*
X69103926Y-110657001D01*
X69530477Y-110942014D01*
X69636391Y-111012783D01*
X70089217Y-111465609D01*
X70131646Y-111529109D01*
X70444999Y-111998074D01*
X70690066Y-112589718D01*
X70815000Y-113217804D01*
X70815000Y-113858196D01*
X70690066Y-114486282D01*
X70444999Y-115077926D01*
X70089216Y-115610392D01*
X69636392Y-116063216D01*
X69103926Y-116418999D01*
X68512282Y-116664066D01*
X68198239Y-116726533D01*
X67884197Y-116789000D01*
X67243803Y-116789000D01*
X66929761Y-116726533D01*
X66615718Y-116664066D01*
X66024074Y-116418999D01*
X65491608Y-116063216D01*
X65038784Y-115610392D01*
X64683001Y-115077926D01*
X64437934Y-114486282D01*
X64313000Y-113858196D01*
X64313000Y-113217804D01*
X64437934Y-112589718D01*
X64683001Y-111998074D01*
X64996354Y-111529109D01*
X65038783Y-111465609D01*
X65491609Y-111012783D01*
X65597523Y-110942014D01*
X66024074Y-110657001D01*
X66615718Y-110411934D01*
X66929761Y-110349467D01*
X67243803Y-110287000D01*
X67884197Y-110287000D01*
X68198239Y-110349467D01*
G37*
G36*
X95122239Y-110349467D02*
G01*
X95436282Y-110411934D01*
X96027926Y-110657001D01*
X96454477Y-110942014D01*
X96560391Y-111012783D01*
X97013217Y-111465609D01*
X97055646Y-111529109D01*
X97368999Y-111998074D01*
X97614066Y-112589718D01*
X97739000Y-113217804D01*
X97739000Y-113858196D01*
X97614066Y-114486282D01*
X97368999Y-115077926D01*
X97013216Y-115610392D01*
X96560392Y-116063216D01*
X96027926Y-116418999D01*
X95436282Y-116664066D01*
X95122239Y-116726533D01*
X94808197Y-116789000D01*
X94167803Y-116789000D01*
X93853761Y-116726533D01*
X93539718Y-116664066D01*
X92948074Y-116418999D01*
X92415608Y-116063216D01*
X91962784Y-115610392D01*
X91607001Y-115077926D01*
X91361934Y-114486282D01*
X91237000Y-113858196D01*
X91237000Y-113217804D01*
X91361934Y-112589718D01*
X91607001Y-111998074D01*
X91920354Y-111529109D01*
X91962783Y-111465609D01*
X92415609Y-111012783D01*
X92521523Y-110942014D01*
X92948074Y-110657001D01*
X93539718Y-110411934D01*
X93853761Y-110349467D01*
X94167803Y-110287000D01*
X94808197Y-110287000D01*
X95122239Y-110349467D01*
G37*
G36*
X27807046Y-95171934D02*
G01*
X28126282Y-95235434D01*
X28717926Y-95480501D01*
X29250392Y-95836284D01*
X29703216Y-96289108D01*
X30058999Y-96821574D01*
X30304066Y-97413218D01*
X30429000Y-98041304D01*
X30429000Y-98681696D01*
X30304066Y-99309782D01*
X30058999Y-99901426D01*
X29773986Y-100327977D01*
X29745646Y-100370392D01*
X29703216Y-100433892D01*
X29250392Y-100886716D01*
X28717926Y-101242499D01*
X28126282Y-101487566D01*
X27817432Y-101549000D01*
X27498197Y-101612500D01*
X26857803Y-101612500D01*
X26538568Y-101549000D01*
X26229718Y-101487566D01*
X25638074Y-101242499D01*
X25105608Y-100886716D01*
X24652784Y-100433892D01*
X24610355Y-100370392D01*
X24582014Y-100327977D01*
X24297001Y-99901426D01*
X24051934Y-99309782D01*
X23927000Y-98681696D01*
X23927000Y-98041304D01*
X24051934Y-97413218D01*
X24297001Y-96821574D01*
X24652784Y-96289108D01*
X25105608Y-95836284D01*
X25638074Y-95480501D01*
X26229718Y-95235434D01*
X26548954Y-95171934D01*
X26857803Y-95110500D01*
X27498197Y-95110500D01*
X27807046Y-95171934D01*
G37*
G36*
X41274239Y-95109467D02*
G01*
X41588282Y-95171934D01*
X42179926Y-95417001D01*
X42606477Y-95702014D01*
X42712391Y-95772783D01*
X43165217Y-96225609D01*
X43207646Y-96289109D01*
X43520999Y-96758074D01*
X43766066Y-97349718D01*
X43891000Y-97977804D01*
X43891000Y-98618196D01*
X43766066Y-99246282D01*
X43520999Y-99837926D01*
X43165216Y-100370392D01*
X42712392Y-100823216D01*
X42179926Y-101178999D01*
X41588282Y-101424066D01*
X41274239Y-101486533D01*
X40960197Y-101549000D01*
X40319803Y-101549000D01*
X40005761Y-101486533D01*
X39691718Y-101424066D01*
X39100074Y-101178999D01*
X38567608Y-100823216D01*
X38114784Y-100370392D01*
X37759001Y-99837926D01*
X37513934Y-99246282D01*
X37389000Y-98618196D01*
X37389000Y-97977804D01*
X37513934Y-97349718D01*
X37759001Y-96758074D01*
X38072354Y-96289109D01*
X38114783Y-96225609D01*
X38567609Y-95772783D01*
X38673523Y-95702014D01*
X39100074Y-95417001D01*
X39691718Y-95171934D01*
X40005761Y-95109467D01*
X40319803Y-95047000D01*
X40960197Y-95047000D01*
X41274239Y-95109467D01*
G37*
G36*
X54736239Y-95109467D02*
G01*
X55050282Y-95171934D01*
X55641926Y-95417001D01*
X56068477Y-95702014D01*
X56174391Y-95772783D01*
X56627217Y-96225609D01*
X56669646Y-96289109D01*
X56982999Y-96758074D01*
X57228066Y-97349718D01*
X57353000Y-97977804D01*
X57353000Y-98618196D01*
X57228066Y-99246282D01*
X56982999Y-99837926D01*
X56627216Y-100370392D01*
X56174392Y-100823216D01*
X55641926Y-101178999D01*
X55050282Y-101424066D01*
X54736239Y-101486533D01*
X54422197Y-101549000D01*
X53781803Y-101549000D01*
X53467761Y-101486533D01*
X53153718Y-101424066D01*
X52562074Y-101178999D01*
X52029608Y-100823216D01*
X51576784Y-100370392D01*
X51221001Y-99837926D01*
X50975934Y-99246282D01*
X50851000Y-98618196D01*
X50851000Y-97977804D01*
X50975934Y-97349718D01*
X51221001Y-96758074D01*
X51534354Y-96289109D01*
X51576783Y-96225609D01*
X52029609Y-95772783D01*
X52135523Y-95702014D01*
X52562074Y-95417001D01*
X53153718Y-95171934D01*
X53467761Y-95109467D01*
X53781803Y-95047000D01*
X54422197Y-95047000D01*
X54736239Y-95109467D01*
G37*
G36*
X68198239Y-95109467D02*
G01*
X68512282Y-95171934D01*
X69103926Y-95417001D01*
X69530477Y-95702014D01*
X69636391Y-95772783D01*
X70089217Y-96225609D01*
X70131646Y-96289109D01*
X70444999Y-96758074D01*
X70690066Y-97349718D01*
X70815000Y-97977804D01*
X70815000Y-98618196D01*
X70690066Y-99246282D01*
X70444999Y-99837926D01*
X70089216Y-100370392D01*
X69636392Y-100823216D01*
X69103926Y-101178999D01*
X68512282Y-101424066D01*
X68198239Y-101486533D01*
X67884197Y-101549000D01*
X67243803Y-101549000D01*
X66929761Y-101486533D01*
X66615718Y-101424066D01*
X66024074Y-101178999D01*
X65491608Y-100823216D01*
X65038784Y-100370392D01*
X64683001Y-99837926D01*
X64437934Y-99246282D01*
X64313000Y-98618196D01*
X64313000Y-97977804D01*
X64437934Y-97349718D01*
X64683001Y-96758074D01*
X64996354Y-96289109D01*
X65038783Y-96225609D01*
X65491609Y-95772783D01*
X65597523Y-95702014D01*
X66024074Y-95417001D01*
X66615718Y-95171934D01*
X66929761Y-95109467D01*
X67243803Y-95047000D01*
X67884197Y-95047000D01*
X68198239Y-95109467D01*
G37*
G36*
X81660239Y-95109467D02*
G01*
X81974282Y-95171934D01*
X82565926Y-95417001D01*
X82992477Y-95702014D01*
X83098391Y-95772783D01*
X83551217Y-96225609D01*
X83593646Y-96289109D01*
X83906999Y-96758074D01*
X84152066Y-97349718D01*
X84277000Y-97977804D01*
X84277000Y-98618196D01*
X84152066Y-99246282D01*
X83906999Y-99837926D01*
X83551216Y-100370392D01*
X83098392Y-100823216D01*
X82565926Y-101178999D01*
X81974282Y-101424066D01*
X81660239Y-101486533D01*
X81346197Y-101549000D01*
X80705803Y-101549000D01*
X80391761Y-101486533D01*
X80077718Y-101424066D01*
X79486074Y-101178999D01*
X78953608Y-100823216D01*
X78500784Y-100370392D01*
X78145001Y-99837926D01*
X77899934Y-99246282D01*
X77775000Y-98618196D01*
X77775000Y-97977804D01*
X77899934Y-97349718D01*
X78145001Y-96758074D01*
X78458354Y-96289109D01*
X78500783Y-96225609D01*
X78953609Y-95772783D01*
X79059523Y-95702014D01*
X79486074Y-95417001D01*
X80077718Y-95171934D01*
X80391761Y-95109467D01*
X80705803Y-95047000D01*
X81346197Y-95047000D01*
X81660239Y-95109467D01*
G37*
G36*
X95122239Y-95109467D02*
G01*
X95436282Y-95171934D01*
X96027926Y-95417001D01*
X96454477Y-95702014D01*
X96560391Y-95772783D01*
X97013217Y-96225609D01*
X97055646Y-96289109D01*
X97368999Y-96758074D01*
X97614066Y-97349718D01*
X97739000Y-97977804D01*
X97739000Y-98618196D01*
X97614066Y-99246282D01*
X97368999Y-99837926D01*
X97013216Y-100370392D01*
X96560392Y-100823216D01*
X96027926Y-101178999D01*
X95436282Y-101424066D01*
X95122239Y-101486533D01*
X94808197Y-101549000D01*
X94167803Y-101549000D01*
X93853761Y-101486533D01*
X93539718Y-101424066D01*
X92948074Y-101178999D01*
X92415608Y-100823216D01*
X91962784Y-100370392D01*
X91607001Y-99837926D01*
X91361934Y-99246282D01*
X91237000Y-98618196D01*
X91237000Y-97977804D01*
X91361934Y-97349718D01*
X91607001Y-96758074D01*
X91920354Y-96289109D01*
X91962783Y-96225609D01*
X92415609Y-95772783D01*
X92521523Y-95702014D01*
X92948074Y-95417001D01*
X93539718Y-95171934D01*
X93853761Y-95109467D01*
X94167803Y-95047000D01*
X94808197Y-95047000D01*
X95122239Y-95109467D01*
G37*
G36*
X38480239Y-77456467D02*
G01*
X38794282Y-77518934D01*
X39385926Y-77764001D01*
X39918392Y-78119784D01*
X40371216Y-78572608D01*
X40726999Y-79105074D01*
X40972066Y-79696718D01*
X41097000Y-80324804D01*
X41097000Y-80965196D01*
X40972066Y-81593282D01*
X40726999Y-82184926D01*
X40371216Y-82717392D01*
X39918392Y-83170216D01*
X39385926Y-83525999D01*
X38794282Y-83771066D01*
X38480239Y-83833533D01*
X38166197Y-83896000D01*
X37525803Y-83896000D01*
X37211761Y-83833533D01*
X36897718Y-83771066D01*
X36306074Y-83525999D01*
X35773608Y-83170216D01*
X35320784Y-82717392D01*
X34965001Y-82184926D01*
X34719934Y-81593282D01*
X34595000Y-80965196D01*
X34595000Y-80324804D01*
X34719934Y-79696718D01*
X34965001Y-79105074D01*
X35320784Y-78572608D01*
X35773608Y-78119784D01*
X36306074Y-77764001D01*
X36897718Y-77518934D01*
X37211761Y-77456467D01*
X37525803Y-77394000D01*
X38166197Y-77394000D01*
X38480239Y-77456467D01*
G37*
G36*
X83946239Y-77456467D02*
G01*
X84260282Y-77518934D01*
X84851926Y-77764001D01*
X85384392Y-78119784D01*
X85837216Y-78572608D01*
X86192999Y-79105074D01*
X86438066Y-79696718D01*
X86563000Y-80324804D01*
X86563000Y-80965196D01*
X86438066Y-81593282D01*
X86192999Y-82184926D01*
X85837216Y-82717392D01*
X85384392Y-83170216D01*
X84851926Y-83525999D01*
X84260282Y-83771066D01*
X83946239Y-83833533D01*
X83632197Y-83896000D01*
X82991803Y-83896000D01*
X82677761Y-83833533D01*
X82363718Y-83771066D01*
X81772074Y-83525999D01*
X81239608Y-83170216D01*
X80786784Y-82717392D01*
X80431001Y-82184926D01*
X80185934Y-81593282D01*
X80061000Y-80965196D01*
X80061000Y-80324804D01*
X80185934Y-79696718D01*
X80431001Y-79105074D01*
X80786784Y-78572608D01*
X81239608Y-78119784D01*
X81772074Y-77764001D01*
X82363718Y-77518934D01*
X82677761Y-77456467D01*
X82991803Y-77394000D01*
X83632197Y-77394000D01*
X83946239Y-77456467D01*
G37*
G36*
X38480239Y-32879467D02*
G01*
X38794282Y-32941934D01*
X39385926Y-33187001D01*
X39918392Y-33542784D01*
X40371216Y-33995608D01*
X40726999Y-34528074D01*
X40972066Y-35119718D01*
X41097000Y-35747804D01*
X41097000Y-36388196D01*
X40972066Y-37016282D01*
X40726999Y-37607926D01*
X40371216Y-38140392D01*
X39918392Y-38593216D01*
X39385926Y-38948999D01*
X38794282Y-39194066D01*
X38480239Y-39256533D01*
X38166197Y-39319000D01*
X37525803Y-39319000D01*
X37211761Y-39256533D01*
X36897718Y-39194066D01*
X36306074Y-38948999D01*
X35773608Y-38593216D01*
X35320784Y-38140392D01*
X34965001Y-37607926D01*
X34719934Y-37016282D01*
X34595000Y-36388196D01*
X34595000Y-35747804D01*
X34719934Y-35119718D01*
X34965001Y-34528074D01*
X35320784Y-33995608D01*
X35773608Y-33542784D01*
X36306074Y-33187001D01*
X36897718Y-32941934D01*
X37211761Y-32879467D01*
X37525803Y-32817000D01*
X38166197Y-32817000D01*
X38480239Y-32879467D01*
G37*
G36*
X83946239Y-32879467D02*
G01*
X84260282Y-32941934D01*
X84851926Y-33187001D01*
X85384392Y-33542784D01*
X85837216Y-33995608D01*
X86192999Y-34528074D01*
X86438066Y-35119718D01*
X86563000Y-35747804D01*
X86563000Y-36388196D01*
X86438066Y-37016282D01*
X86192999Y-37607926D01*
X85837216Y-38140392D01*
X85384392Y-38593216D01*
X84851926Y-38948999D01*
X84260282Y-39194066D01*
X83946239Y-39256533D01*
X83632197Y-39319000D01*
X82991803Y-39319000D01*
X82677761Y-39256533D01*
X82363718Y-39194066D01*
X81772074Y-38948999D01*
X81239608Y-38593216D01*
X80786784Y-38140392D01*
X80431001Y-37607926D01*
X80185934Y-37016282D01*
X80061000Y-36388196D01*
X80061000Y-35747804D01*
X80185934Y-35119718D01*
X80431001Y-34528074D01*
X80786784Y-33995608D01*
X81239608Y-33542784D01*
X81772074Y-33187001D01*
X82363718Y-32941934D01*
X82677761Y-32879467D01*
X82991803Y-32817000D01*
X83632197Y-32817000D01*
X83946239Y-32879467D01*
G37*
G36*
X29786651Y-19200888D02*
G01*
X30097870Y-19295296D01*
X30384680Y-19448599D01*
X30384683Y-19448601D01*
X30384684Y-19448602D01*
X30636082Y-19654918D01*
X30842398Y-19906316D01*
X30842401Y-19906320D01*
X30995704Y-20193130D01*
X31090112Y-20504349D01*
X31121988Y-20828000D01*
X31090112Y-21151651D01*
X30995704Y-21462870D01*
X30842401Y-21749680D01*
X30842399Y-21749683D01*
X30842398Y-21749684D01*
X30636082Y-22001082D01*
X30384684Y-22207398D01*
X30384680Y-22207401D01*
X30097870Y-22360704D01*
X29786651Y-22455112D01*
X29544107Y-22479000D01*
X26081893Y-22479000D01*
X25839349Y-22455112D01*
X25528130Y-22360704D01*
X25241320Y-22207401D01*
X25241316Y-22207398D01*
X24989918Y-22001082D01*
X24783602Y-21749684D01*
X24783601Y-21749683D01*
X24783599Y-21749680D01*
X24630296Y-21462870D01*
X24535888Y-21151651D01*
X24504012Y-20828000D01*
X24535888Y-20504349D01*
X24630296Y-20193130D01*
X24783599Y-19906320D01*
X24783602Y-19906316D01*
X24989918Y-19654918D01*
X25241316Y-19448602D01*
X25241317Y-19448601D01*
X25241320Y-19448599D01*
X25528130Y-19295296D01*
X25839349Y-19200888D01*
X26081893Y-19177000D01*
X29544107Y-19177000D01*
X29786651Y-19200888D01*
G37*
G36*
X95699651Y-19073888D02*
G01*
X96010870Y-19168296D01*
X96297680Y-19321599D01*
X96297683Y-19321601D01*
X96297684Y-19321602D01*
X96549082Y-19527918D01*
X96755398Y-19779316D01*
X96755401Y-19779320D01*
X96908704Y-20066130D01*
X97003112Y-20377349D01*
X97034988Y-20701000D01*
X97003112Y-21024651D01*
X96908704Y-21335870D01*
X96755401Y-21622680D01*
X96755399Y-21622683D01*
X96755398Y-21622684D01*
X96549082Y-21874082D01*
X96297684Y-22080398D01*
X96297680Y-22080401D01*
X96010870Y-22233704D01*
X95699651Y-22328112D01*
X95457107Y-22352000D01*
X91994893Y-22352000D01*
X91752349Y-22328112D01*
X91441130Y-22233704D01*
X91154320Y-22080401D01*
X91154316Y-22080398D01*
X90902918Y-21874082D01*
X90696602Y-21622684D01*
X90696601Y-21622683D01*
X90696599Y-21622680D01*
X90543296Y-21335870D01*
X90448888Y-21024651D01*
X90417012Y-20701000D01*
X90448888Y-20377349D01*
X90543296Y-20066130D01*
X90696599Y-19779320D01*
X90696602Y-19779316D01*
X90902918Y-19527918D01*
X91154316Y-19321602D01*
X91154317Y-19321601D01*
X91154320Y-19321599D01*
X91441130Y-19168296D01*
X91752349Y-19073888D01*
X91994893Y-19050000D01*
X95457107Y-19050000D01*
X95699651Y-19073888D01*
G37*
M02*
