G04 #@! TF.GenerationSoftware,KiCad,Pcbnew,(6.0.0-0)*
G04 #@! TF.CreationDate,2022-02-14T22:06:53-06:00*
G04 #@! TF.ProjectId,bells-venn,62656c6c-732d-4766-956e-6e2e6b696361,rev?*
G04 #@! TF.SameCoordinates,Original*
G04 #@! TF.FileFunction,Legend,Bot*
G04 #@! TF.FilePolarity,Positive*
%FSLAX46Y46*%
G04 Gerber Fmt 4.6, Leading zero omitted, Abs format (unit mm)*
G04 Created by KiCad (PCBNEW (6.0.0-0)) date 2022-02-14 22:06:53*
%MOMM*%
%LPD*%
G01*
G04 APERTURE LIST*
%ADD10C,0.300000*%
G04 APERTURE END LIST*
D10*
X52894285Y-24220214D02*
X52965714Y-24291642D01*
X53180000Y-24363071D01*
X53322857Y-24363071D01*
X53537142Y-24291642D01*
X53680000Y-24148785D01*
X53751428Y-24005928D01*
X53822857Y-23720214D01*
X53822857Y-23505928D01*
X53751428Y-23220214D01*
X53680000Y-23077357D01*
X53537142Y-22934500D01*
X53322857Y-22863071D01*
X53180000Y-22863071D01*
X52965714Y-22934500D01*
X52894285Y-23005928D01*
X52037142Y-24363071D02*
X52180000Y-24291642D01*
X52251428Y-24220214D01*
X52322857Y-24077357D01*
X52322857Y-23648785D01*
X52251428Y-23505928D01*
X52180000Y-23434500D01*
X52037142Y-23363071D01*
X51822857Y-23363071D01*
X51680000Y-23434500D01*
X51608571Y-23505928D01*
X51537142Y-23648785D01*
X51537142Y-24077357D01*
X51608571Y-24220214D01*
X51680000Y-24291642D01*
X51822857Y-24363071D01*
X52037142Y-24363071D01*
X50894285Y-23363071D02*
X50894285Y-24863071D01*
X50894285Y-23434500D02*
X50751428Y-23363071D01*
X50465714Y-23363071D01*
X50322857Y-23434500D01*
X50251428Y-23505928D01*
X50180000Y-23648785D01*
X50180000Y-24077357D01*
X50251428Y-24220214D01*
X50322857Y-24291642D01*
X50465714Y-24363071D01*
X50751428Y-24363071D01*
X50894285Y-24291642D01*
X49680000Y-23363071D02*
X49322857Y-24363071D01*
X48965714Y-23363071D02*
X49322857Y-24363071D01*
X49465714Y-24720214D01*
X49537142Y-24791642D01*
X49680000Y-24863071D01*
X48394285Y-24363071D02*
X48394285Y-23363071D01*
X48394285Y-23648785D02*
X48322857Y-23505928D01*
X48251428Y-23434500D01*
X48108571Y-23363071D01*
X47965714Y-23363071D01*
X47465714Y-24363071D02*
X47465714Y-23363071D01*
X47465714Y-22863071D02*
X47537142Y-22934500D01*
X47465714Y-23005928D01*
X47394285Y-22934500D01*
X47465714Y-22863071D01*
X47465714Y-23005928D01*
X46108571Y-23363071D02*
X46108571Y-24577357D01*
X46180000Y-24720214D01*
X46251428Y-24791642D01*
X46394285Y-24863071D01*
X46608571Y-24863071D01*
X46751428Y-24791642D01*
X46108571Y-24291642D02*
X46251428Y-24363071D01*
X46537142Y-24363071D01*
X46680000Y-24291642D01*
X46751428Y-24220214D01*
X46822857Y-24077357D01*
X46822857Y-23648785D01*
X46751428Y-23505928D01*
X46680000Y-23434500D01*
X46537142Y-23363071D01*
X46251428Y-23363071D01*
X46108571Y-23434500D01*
X45394285Y-24363071D02*
X45394285Y-22863071D01*
X44751428Y-24363071D02*
X44751428Y-23577357D01*
X44822857Y-23434500D01*
X44965714Y-23363071D01*
X45180000Y-23363071D01*
X45322857Y-23434500D01*
X45394285Y-23505928D01*
X44251428Y-23363071D02*
X43680000Y-23363071D01*
X44037142Y-22863071D02*
X44037142Y-24148785D01*
X43965714Y-24291642D01*
X43822857Y-24363071D01*
X43680000Y-24363071D01*
X41608571Y-24934500D02*
X41680000Y-24863071D01*
X41822857Y-24648785D01*
X41894285Y-24505928D01*
X41965714Y-24291642D01*
X42037142Y-23934500D01*
X42037142Y-23648785D01*
X41965714Y-23291642D01*
X41894285Y-23077357D01*
X41822857Y-22934500D01*
X41680000Y-22720214D01*
X41608571Y-22648785D01*
X40394285Y-24291642D02*
X40537142Y-24363071D01*
X40822857Y-24363071D01*
X40965714Y-24291642D01*
X41037142Y-24220214D01*
X41108571Y-24077357D01*
X41108571Y-23648785D01*
X41037142Y-23505928D01*
X40965714Y-23434500D01*
X40822857Y-23363071D01*
X40537142Y-23363071D01*
X40394285Y-23434500D01*
X39894285Y-24934500D02*
X39822857Y-24863071D01*
X39680000Y-24648785D01*
X39608571Y-24505928D01*
X39537142Y-24291642D01*
X39465714Y-23934500D01*
X39465714Y-23648785D01*
X39537142Y-23291642D01*
X39608571Y-23077357D01*
X39680000Y-22934500D01*
X39822857Y-22720214D01*
X39894285Y-22648785D01*
X37680000Y-23005928D02*
X37608571Y-22934500D01*
X37465714Y-22863071D01*
X37108571Y-22863071D01*
X36965714Y-22934500D01*
X36894285Y-23005928D01*
X36822857Y-23148785D01*
X36822857Y-23291642D01*
X36894285Y-23505928D01*
X37751428Y-24363071D01*
X36822857Y-24363071D01*
X35894285Y-22863071D02*
X35751428Y-22863071D01*
X35608571Y-22934500D01*
X35537142Y-23005928D01*
X35465714Y-23148785D01*
X35394285Y-23434500D01*
X35394285Y-23791642D01*
X35465714Y-24077357D01*
X35537142Y-24220214D01*
X35608571Y-24291642D01*
X35751428Y-24363071D01*
X35894285Y-24363071D01*
X36037142Y-24291642D01*
X36108571Y-24220214D01*
X36180000Y-24077357D01*
X36251428Y-23791642D01*
X36251428Y-23434500D01*
X36180000Y-23148785D01*
X36108571Y-23005928D01*
X36037142Y-22934500D01*
X35894285Y-22863071D01*
X34822857Y-23005928D02*
X34751428Y-22934500D01*
X34608571Y-22863071D01*
X34251428Y-22863071D01*
X34108571Y-22934500D01*
X34037142Y-23005928D01*
X33965714Y-23148785D01*
X33965714Y-23291642D01*
X34037142Y-23505928D01*
X34894285Y-24363071D01*
X33965714Y-24363071D01*
X33394285Y-23005928D02*
X33322857Y-22934500D01*
X33180000Y-22863071D01*
X32822857Y-22863071D01*
X32680000Y-22934500D01*
X32608571Y-23005928D01*
X32537142Y-23148785D01*
X32537142Y-23291642D01*
X32608571Y-23505928D01*
X33465714Y-24363071D01*
X32537142Y-24363071D01*
X52358571Y-25992357D02*
X52858571Y-25992357D01*
X52858571Y-26778071D02*
X52858571Y-25278071D01*
X52144285Y-25278071D01*
X51572857Y-26778071D02*
X51572857Y-25778071D01*
X51572857Y-26063785D02*
X51501428Y-25920928D01*
X51430000Y-25849500D01*
X51287142Y-25778071D01*
X51144285Y-25778071D01*
X50430000Y-26778071D02*
X50572857Y-26706642D01*
X50644285Y-26635214D01*
X50715714Y-26492357D01*
X50715714Y-26063785D01*
X50644285Y-25920928D01*
X50572857Y-25849500D01*
X50430000Y-25778071D01*
X50215714Y-25778071D01*
X50072857Y-25849500D01*
X50001428Y-25920928D01*
X49930000Y-26063785D01*
X49930000Y-26492357D01*
X50001428Y-26635214D01*
X50072857Y-26706642D01*
X50215714Y-26778071D01*
X50430000Y-26778071D01*
X48644285Y-25778071D02*
X48644285Y-26992357D01*
X48715714Y-27135214D01*
X48787142Y-27206642D01*
X48930000Y-27278071D01*
X49144285Y-27278071D01*
X49287142Y-27206642D01*
X48644285Y-26706642D02*
X48787142Y-26778071D01*
X49072857Y-26778071D01*
X49215714Y-26706642D01*
X49287142Y-26635214D01*
X49358571Y-26492357D01*
X49358571Y-26063785D01*
X49287142Y-25920928D01*
X49215714Y-25849500D01*
X49072857Y-25778071D01*
X48787142Y-25778071D01*
X48644285Y-25849500D01*
X47715714Y-26778071D02*
X47858571Y-26706642D01*
X47930000Y-26563785D01*
X47930000Y-25278071D01*
X46572857Y-26706642D02*
X46715714Y-26778071D01*
X47001428Y-26778071D01*
X47144285Y-26706642D01*
X47215714Y-26563785D01*
X47215714Y-25992357D01*
X47144285Y-25849500D01*
X47001428Y-25778071D01*
X46715714Y-25778071D01*
X46572857Y-25849500D01*
X46501428Y-25992357D01*
X46501428Y-26135214D01*
X47215714Y-26278071D01*
X45215714Y-25778071D02*
X45215714Y-26992357D01*
X45287142Y-27135214D01*
X45358571Y-27206642D01*
X45501428Y-27278071D01*
X45715714Y-27278071D01*
X45858571Y-27206642D01*
X45215714Y-26706642D02*
X45358571Y-26778071D01*
X45644285Y-26778071D01*
X45787142Y-26706642D01*
X45858571Y-26635214D01*
X45930000Y-26492357D01*
X45930000Y-26063785D01*
X45858571Y-25920928D01*
X45787142Y-25849500D01*
X45644285Y-25778071D01*
X45358571Y-25778071D01*
X45215714Y-25849500D01*
X43430000Y-26706642D02*
X43215714Y-26778071D01*
X42858571Y-26778071D01*
X42715714Y-26706642D01*
X42644285Y-26635214D01*
X42572857Y-26492357D01*
X42572857Y-26349500D01*
X42644285Y-26206642D01*
X42715714Y-26135214D01*
X42858571Y-26063785D01*
X43144285Y-25992357D01*
X43287142Y-25920928D01*
X43358571Y-25849500D01*
X43430000Y-25706642D01*
X43430000Y-25563785D01*
X43358571Y-25420928D01*
X43287142Y-25349500D01*
X43144285Y-25278071D01*
X42787142Y-25278071D01*
X42572857Y-25349500D01*
X42072857Y-25778071D02*
X41715714Y-26778071D01*
X41358571Y-25778071D02*
X41715714Y-26778071D01*
X41858571Y-27135214D01*
X41930000Y-27206642D01*
X42072857Y-27278071D01*
X40787142Y-25778071D02*
X40787142Y-26778071D01*
X40787142Y-25920928D02*
X40715714Y-25849500D01*
X40572857Y-25778071D01*
X40358571Y-25778071D01*
X40215714Y-25849500D01*
X40144285Y-25992357D01*
X40144285Y-26778071D01*
X39644285Y-25778071D02*
X39072857Y-25778071D01*
X39430000Y-25278071D02*
X39430000Y-26563785D01*
X39358571Y-26706642D01*
X39215714Y-26778071D01*
X39072857Y-26778071D01*
X38572857Y-26778071D02*
X38572857Y-25278071D01*
X37930000Y-26778071D02*
X37930000Y-25992357D01*
X38001428Y-25849500D01*
X38144285Y-25778071D01*
X38358571Y-25778071D01*
X38501428Y-25849500D01*
X38572857Y-25920928D01*
X36644285Y-26706642D02*
X36787142Y-26778071D01*
X37072857Y-26778071D01*
X37215714Y-26706642D01*
X37287142Y-26563785D01*
X37287142Y-25992357D01*
X37215714Y-25849500D01*
X37072857Y-25778071D01*
X36787142Y-25778071D01*
X36644285Y-25849500D01*
X36572857Y-25992357D01*
X36572857Y-26135214D01*
X37287142Y-26278071D01*
X36001428Y-26706642D02*
X35858571Y-26778071D01*
X35572857Y-26778071D01*
X35430000Y-26706642D01*
X35358571Y-26563785D01*
X35358571Y-26492357D01*
X35430000Y-26349500D01*
X35572857Y-26278071D01*
X35787142Y-26278071D01*
X35930000Y-26206642D01*
X36001428Y-26063785D01*
X36001428Y-25992357D01*
X35930000Y-25849500D01*
X35787142Y-25778071D01*
X35572857Y-25778071D01*
X35430000Y-25849500D01*
X34715714Y-26778071D02*
X34715714Y-25778071D01*
X34715714Y-25278071D02*
X34787142Y-25349500D01*
X34715714Y-25420928D01*
X34644285Y-25349500D01*
X34715714Y-25278071D01*
X34715714Y-25420928D01*
X34072857Y-26706642D02*
X33930000Y-26778071D01*
X33644285Y-26778071D01*
X33501428Y-26706642D01*
X33430000Y-26563785D01*
X33430000Y-26492357D01*
X33501428Y-26349500D01*
X33644285Y-26278071D01*
X33858571Y-26278071D01*
X34001428Y-26206642D01*
X34072857Y-26063785D01*
X34072857Y-25992357D01*
X34001428Y-25849500D01*
X33858571Y-25778071D01*
X33644285Y-25778071D01*
X33501428Y-25849500D01*
X75135828Y-140470771D02*
X75135828Y-141970771D01*
X75135828Y-140542200D02*
X74992971Y-140470771D01*
X74707257Y-140470771D01*
X74564400Y-140542200D01*
X74492971Y-140613628D01*
X74421542Y-140756485D01*
X74421542Y-141185057D01*
X74492971Y-141327914D01*
X74564400Y-141399342D01*
X74707257Y-141470771D01*
X74992971Y-141470771D01*
X75135828Y-141399342D01*
X73564400Y-141470771D02*
X73707257Y-141399342D01*
X73778685Y-141256485D01*
X73778685Y-139970771D01*
X72421542Y-141399342D02*
X72564400Y-141470771D01*
X72850114Y-141470771D01*
X72992971Y-141399342D01*
X73064400Y-141256485D01*
X73064400Y-140685057D01*
X72992971Y-140542200D01*
X72850114Y-140470771D01*
X72564400Y-140470771D01*
X72421542Y-140542200D01*
X72350114Y-140685057D01*
X72350114Y-140827914D01*
X73064400Y-140970771D01*
X71064400Y-141470771D02*
X71064400Y-140685057D01*
X71135828Y-140542200D01*
X71278685Y-140470771D01*
X71564400Y-140470771D01*
X71707257Y-140542200D01*
X71064400Y-141399342D02*
X71207257Y-141470771D01*
X71564400Y-141470771D01*
X71707257Y-141399342D01*
X71778685Y-141256485D01*
X71778685Y-141113628D01*
X71707257Y-140970771D01*
X71564400Y-140899342D01*
X71207257Y-140899342D01*
X71064400Y-140827914D01*
X70421542Y-141399342D02*
X70278685Y-141470771D01*
X69992971Y-141470771D01*
X69850114Y-141399342D01*
X69778685Y-141256485D01*
X69778685Y-141185057D01*
X69850114Y-141042200D01*
X69992971Y-140970771D01*
X70207257Y-140970771D01*
X70350114Y-140899342D01*
X70421542Y-140756485D01*
X70421542Y-140685057D01*
X70350114Y-140542200D01*
X70207257Y-140470771D01*
X69992971Y-140470771D01*
X69850114Y-140542200D01*
X68564400Y-141399342D02*
X68707257Y-141470771D01*
X68992971Y-141470771D01*
X69135828Y-141399342D01*
X69207257Y-141256485D01*
X69207257Y-140685057D01*
X69135828Y-140542200D01*
X68992971Y-140470771D01*
X68707257Y-140470771D01*
X68564400Y-140542200D01*
X68492971Y-140685057D01*
X68492971Y-140827914D01*
X69207257Y-140970771D01*
X66707257Y-140470771D02*
X66707257Y-141970771D01*
X66707257Y-140542200D02*
X66564400Y-140470771D01*
X66278685Y-140470771D01*
X66135828Y-140542200D01*
X66064400Y-140613628D01*
X65992971Y-140756485D01*
X65992971Y-141185057D01*
X66064400Y-141327914D01*
X66135828Y-141399342D01*
X66278685Y-141470771D01*
X66564400Y-141470771D01*
X66707257Y-141399342D01*
X64707257Y-140470771D02*
X64707257Y-141470771D01*
X65350114Y-140470771D02*
X65350114Y-141256485D01*
X65278685Y-141399342D01*
X65135828Y-141470771D01*
X64921542Y-141470771D01*
X64778685Y-141399342D01*
X64707257Y-141327914D01*
X64207257Y-140470771D02*
X63635828Y-140470771D01*
X63992971Y-139970771D02*
X63992971Y-141256485D01*
X63921542Y-141399342D01*
X63778685Y-141470771D01*
X63635828Y-141470771D01*
X62064400Y-141399342D02*
X61921542Y-141470771D01*
X61635828Y-141470771D01*
X61492971Y-141399342D01*
X61421542Y-141256485D01*
X61421542Y-141185057D01*
X61492971Y-141042200D01*
X61635828Y-140970771D01*
X61850114Y-140970771D01*
X61992971Y-140899342D01*
X62064400Y-140756485D01*
X62064400Y-140685057D01*
X61992971Y-140542200D01*
X61850114Y-140470771D01*
X61635828Y-140470771D01*
X61492971Y-140542200D01*
X60207257Y-141399342D02*
X60350114Y-141470771D01*
X60635828Y-141470771D01*
X60778685Y-141399342D01*
X60850114Y-141256485D01*
X60850114Y-140685057D01*
X60778685Y-140542200D01*
X60635828Y-140470771D01*
X60350114Y-140470771D01*
X60207257Y-140542200D01*
X60135828Y-140685057D01*
X60135828Y-140827914D01*
X60850114Y-140970771D01*
X59492971Y-141470771D02*
X59492971Y-140470771D01*
X59492971Y-140756485D02*
X59421542Y-140613628D01*
X59350114Y-140542200D01*
X59207257Y-140470771D01*
X59064400Y-140470771D01*
X58564400Y-141470771D02*
X58564400Y-140470771D01*
X58564400Y-139970771D02*
X58635828Y-140042200D01*
X58564400Y-140113628D01*
X58492971Y-140042200D01*
X58564400Y-139970771D01*
X58564400Y-140113628D01*
X57207257Y-141470771D02*
X57207257Y-140685057D01*
X57278685Y-140542200D01*
X57421542Y-140470771D01*
X57707257Y-140470771D01*
X57850114Y-140542200D01*
X57207257Y-141399342D02*
X57350114Y-141470771D01*
X57707257Y-141470771D01*
X57850114Y-141399342D01*
X57921542Y-141256485D01*
X57921542Y-141113628D01*
X57850114Y-140970771D01*
X57707257Y-140899342D01*
X57350114Y-140899342D01*
X57207257Y-140827914D01*
X56278685Y-141470771D02*
X56421542Y-141399342D01*
X56492971Y-141256485D01*
X56492971Y-139970771D01*
X54564400Y-140470771D02*
X54564400Y-141470771D01*
X54564400Y-140613628D02*
X54492971Y-140542200D01*
X54350114Y-140470771D01*
X54135828Y-140470771D01*
X53992971Y-140542200D01*
X53921542Y-140685057D01*
X53921542Y-141470771D01*
X52564400Y-140470771D02*
X52564400Y-141470771D01*
X53207257Y-140470771D02*
X53207257Y-141256485D01*
X53135828Y-141399342D01*
X52992971Y-141470771D01*
X52778685Y-141470771D01*
X52635828Y-141399342D01*
X52564400Y-141327914D01*
X51850114Y-141470771D02*
X51850114Y-140470771D01*
X51850114Y-140613628D02*
X51778685Y-140542200D01*
X51635828Y-140470771D01*
X51421542Y-140470771D01*
X51278685Y-140542200D01*
X51207257Y-140685057D01*
X51207257Y-141470771D01*
X51207257Y-140685057D02*
X51135828Y-140542200D01*
X50992971Y-140470771D01*
X50778685Y-140470771D01*
X50635828Y-140542200D01*
X50564400Y-140685057D01*
X50564400Y-141470771D01*
X49850114Y-141470771D02*
X49850114Y-139970771D01*
X49850114Y-140542200D02*
X49707257Y-140470771D01*
X49421542Y-140470771D01*
X49278685Y-140542200D01*
X49207257Y-140613628D01*
X49135828Y-140756485D01*
X49135828Y-141185057D01*
X49207257Y-141327914D01*
X49278685Y-141399342D01*
X49421542Y-141470771D01*
X49707257Y-141470771D01*
X49850114Y-141399342D01*
X47921542Y-141399342D02*
X48064400Y-141470771D01*
X48350114Y-141470771D01*
X48492971Y-141399342D01*
X48564400Y-141256485D01*
X48564400Y-140685057D01*
X48492971Y-140542200D01*
X48350114Y-140470771D01*
X48064400Y-140470771D01*
X47921542Y-140542200D01*
X47850114Y-140685057D01*
X47850114Y-140827914D01*
X48564400Y-140970771D01*
X47207257Y-141470771D02*
X47207257Y-140470771D01*
X47207257Y-140756485D02*
X47135828Y-140613628D01*
X47064400Y-140542200D01*
X46921542Y-140470771D01*
X46778685Y-140470771D01*
X45135828Y-141470771D02*
X45135828Y-139970771D01*
X44492971Y-141470771D02*
X44492971Y-140685057D01*
X44564400Y-140542200D01*
X44707257Y-140470771D01*
X44921542Y-140470771D01*
X45064400Y-140542200D01*
X45135828Y-140613628D01*
X43207257Y-141399342D02*
X43350114Y-141470771D01*
X43635828Y-141470771D01*
X43778685Y-141399342D01*
X43850114Y-141256485D01*
X43850114Y-140685057D01*
X43778685Y-140542200D01*
X43635828Y-140470771D01*
X43350114Y-140470771D01*
X43207257Y-140542200D01*
X43135828Y-140685057D01*
X43135828Y-140827914D01*
X43850114Y-140970771D01*
X42492971Y-141470771D02*
X42492971Y-140470771D01*
X42492971Y-140756485D02*
X42421542Y-140613628D01*
X42350114Y-140542200D01*
X42207257Y-140470771D01*
X42064400Y-140470771D01*
X40992971Y-141399342D02*
X41135828Y-141470771D01*
X41421542Y-141470771D01*
X41564400Y-141399342D01*
X41635828Y-141256485D01*
X41635828Y-140685057D01*
X41564400Y-140542200D01*
X41421542Y-140470771D01*
X41135828Y-140470771D01*
X40992971Y-140542200D01*
X40921542Y-140685057D01*
X40921542Y-140827914D01*
X41635828Y-140970771D01*
M02*
