G04 #@! TF.GenerationSoftware,KiCad,Pcbnew,(6.0.5-0)*
G04 #@! TF.CreationDate,2023-09-16T19:37:22-05:00*
G04 #@! TF.ProjectId,bells-venn,62656c6c-732d-4766-956e-6e2e6b696361,rev?*
G04 #@! TF.SameCoordinates,Original*
G04 #@! TF.FileFunction,Legend,Top*
G04 #@! TF.FilePolarity,Positive*
%FSLAX46Y46*%
G04 Gerber Fmt 4.6, Leading zero omitted, Abs format (unit mm)*
G04 Created by KiCad (PCBNEW (6.0.5-0)) date 2023-09-16 19:37:22*
%MOMM*%
%LPD*%
G01*
G04 APERTURE LIST*
%ADD10C,0.300000*%
%ADD11C,6.502000*%
%ADD12O,6.602000X3.302000*%
%ADD13C,9.102000*%
G04 APERTURE END LIST*
D10*
X68771714Y-24220214D02*
X68700285Y-24291642D01*
X68486000Y-24363071D01*
X68343142Y-24363071D01*
X68128857Y-24291642D01*
X67986000Y-24148785D01*
X67914571Y-24005928D01*
X67843142Y-23720214D01*
X67843142Y-23505928D01*
X67914571Y-23220214D01*
X67986000Y-23077357D01*
X68128857Y-22934500D01*
X68343142Y-22863071D01*
X68486000Y-22863071D01*
X68700285Y-22934500D01*
X68771714Y-23005928D01*
X69628857Y-24363071D02*
X69486000Y-24291642D01*
X69414571Y-24220214D01*
X69343142Y-24077357D01*
X69343142Y-23648785D01*
X69414571Y-23505928D01*
X69486000Y-23434500D01*
X69628857Y-23363071D01*
X69843142Y-23363071D01*
X69986000Y-23434500D01*
X70057428Y-23505928D01*
X70128857Y-23648785D01*
X70128857Y-24077357D01*
X70057428Y-24220214D01*
X69986000Y-24291642D01*
X69843142Y-24363071D01*
X69628857Y-24363071D01*
X70771714Y-23363071D02*
X70771714Y-24863071D01*
X70771714Y-23434500D02*
X70914571Y-23363071D01*
X71200285Y-23363071D01*
X71343142Y-23434500D01*
X71414571Y-23505928D01*
X71486000Y-23648785D01*
X71486000Y-24077357D01*
X71414571Y-24220214D01*
X71343142Y-24291642D01*
X71200285Y-24363071D01*
X70914571Y-24363071D01*
X70771714Y-24291642D01*
X71986000Y-23363071D02*
X72343142Y-24363071D01*
X72700285Y-23363071D02*
X72343142Y-24363071D01*
X72200285Y-24720214D01*
X72128857Y-24791642D01*
X71986000Y-24863071D01*
X73271714Y-24363071D02*
X73271714Y-23363071D01*
X73271714Y-23648785D02*
X73343142Y-23505928D01*
X73414571Y-23434500D01*
X73557428Y-23363071D01*
X73700285Y-23363071D01*
X74200285Y-24363071D02*
X74200285Y-23363071D01*
X74200285Y-22863071D02*
X74128857Y-22934500D01*
X74200285Y-23005928D01*
X74271714Y-22934500D01*
X74200285Y-22863071D01*
X74200285Y-23005928D01*
X75557428Y-23363071D02*
X75557428Y-24577357D01*
X75486000Y-24720214D01*
X75414571Y-24791642D01*
X75271714Y-24863071D01*
X75057428Y-24863071D01*
X74914571Y-24791642D01*
X75557428Y-24291642D02*
X75414571Y-24363071D01*
X75128857Y-24363071D01*
X74986000Y-24291642D01*
X74914571Y-24220214D01*
X74843142Y-24077357D01*
X74843142Y-23648785D01*
X74914571Y-23505928D01*
X74986000Y-23434500D01*
X75128857Y-23363071D01*
X75414571Y-23363071D01*
X75557428Y-23434500D01*
X76271714Y-24363071D02*
X76271714Y-22863071D01*
X76914571Y-24363071D02*
X76914571Y-23577357D01*
X76843142Y-23434500D01*
X76700285Y-23363071D01*
X76486000Y-23363071D01*
X76343142Y-23434500D01*
X76271714Y-23505928D01*
X77414571Y-23363071D02*
X77986000Y-23363071D01*
X77628857Y-22863071D02*
X77628857Y-24148785D01*
X77700285Y-24291642D01*
X77843142Y-24363071D01*
X77986000Y-24363071D01*
X80057428Y-24934500D02*
X79986000Y-24863071D01*
X79843142Y-24648785D01*
X79771714Y-24505928D01*
X79700285Y-24291642D01*
X79628857Y-23934500D01*
X79628857Y-23648785D01*
X79700285Y-23291642D01*
X79771714Y-23077357D01*
X79843142Y-22934500D01*
X79986000Y-22720214D01*
X80057428Y-22648785D01*
X81271714Y-24291642D02*
X81128857Y-24363071D01*
X80843142Y-24363071D01*
X80700285Y-24291642D01*
X80628857Y-24220214D01*
X80557428Y-24077357D01*
X80557428Y-23648785D01*
X80628857Y-23505928D01*
X80700285Y-23434500D01*
X80843142Y-23363071D01*
X81128857Y-23363071D01*
X81271714Y-23434500D01*
X81771714Y-24934500D02*
X81843142Y-24863071D01*
X81986000Y-24648785D01*
X82057428Y-24505928D01*
X82128857Y-24291642D01*
X82200285Y-23934500D01*
X82200285Y-23648785D01*
X82128857Y-23291642D01*
X82057428Y-23077357D01*
X81986000Y-22934500D01*
X81843142Y-22720214D01*
X81771714Y-22648785D01*
X83986000Y-23005928D02*
X84057428Y-22934500D01*
X84200285Y-22863071D01*
X84557428Y-22863071D01*
X84700285Y-22934500D01*
X84771714Y-23005928D01*
X84843142Y-23148785D01*
X84843142Y-23291642D01*
X84771714Y-23505928D01*
X83914571Y-24363071D01*
X84843142Y-24363071D01*
X85771714Y-22863071D02*
X85914571Y-22863071D01*
X86057428Y-22934500D01*
X86128857Y-23005928D01*
X86200285Y-23148785D01*
X86271714Y-23434500D01*
X86271714Y-23791642D01*
X86200285Y-24077357D01*
X86128857Y-24220214D01*
X86057428Y-24291642D01*
X85914571Y-24363071D01*
X85771714Y-24363071D01*
X85628857Y-24291642D01*
X85557428Y-24220214D01*
X85486000Y-24077357D01*
X85414571Y-23791642D01*
X85414571Y-23434500D01*
X85486000Y-23148785D01*
X85557428Y-23005928D01*
X85628857Y-22934500D01*
X85771714Y-22863071D01*
X86843142Y-23005928D02*
X86914571Y-22934500D01*
X87057428Y-22863071D01*
X87414571Y-22863071D01*
X87557428Y-22934500D01*
X87628857Y-23005928D01*
X87700285Y-23148785D01*
X87700285Y-23291642D01*
X87628857Y-23505928D01*
X86771714Y-24363071D01*
X87700285Y-24363071D01*
X88200285Y-22863071D02*
X89128857Y-22863071D01*
X88628857Y-23434500D01*
X88843142Y-23434500D01*
X88986000Y-23505928D01*
X89057428Y-23577357D01*
X89128857Y-23720214D01*
X89128857Y-24077357D01*
X89057428Y-24220214D01*
X88986000Y-24291642D01*
X88843142Y-24363071D01*
X88414571Y-24363071D01*
X88271714Y-24291642D01*
X88200285Y-24220214D01*
X69307428Y-25992357D02*
X68807428Y-25992357D01*
X68807428Y-26778071D02*
X68807428Y-25278071D01*
X69521714Y-25278071D01*
X70093142Y-26778071D02*
X70093142Y-25778071D01*
X70093142Y-26063785D02*
X70164571Y-25920928D01*
X70236000Y-25849500D01*
X70378857Y-25778071D01*
X70521714Y-25778071D01*
X71236000Y-26778071D02*
X71093142Y-26706642D01*
X71021714Y-26635214D01*
X70950285Y-26492357D01*
X70950285Y-26063785D01*
X71021714Y-25920928D01*
X71093142Y-25849500D01*
X71236000Y-25778071D01*
X71450285Y-25778071D01*
X71593142Y-25849500D01*
X71664571Y-25920928D01*
X71736000Y-26063785D01*
X71736000Y-26492357D01*
X71664571Y-26635214D01*
X71593142Y-26706642D01*
X71450285Y-26778071D01*
X71236000Y-26778071D01*
X73021714Y-25778071D02*
X73021714Y-26992357D01*
X72950285Y-27135214D01*
X72878857Y-27206642D01*
X72736000Y-27278071D01*
X72521714Y-27278071D01*
X72378857Y-27206642D01*
X73021714Y-26706642D02*
X72878857Y-26778071D01*
X72593142Y-26778071D01*
X72450285Y-26706642D01*
X72378857Y-26635214D01*
X72307428Y-26492357D01*
X72307428Y-26063785D01*
X72378857Y-25920928D01*
X72450285Y-25849500D01*
X72593142Y-25778071D01*
X72878857Y-25778071D01*
X73021714Y-25849500D01*
X73950285Y-26778071D02*
X73807428Y-26706642D01*
X73736000Y-26563785D01*
X73736000Y-25278071D01*
X75093142Y-26706642D02*
X74950285Y-26778071D01*
X74664571Y-26778071D01*
X74521714Y-26706642D01*
X74450285Y-26563785D01*
X74450285Y-25992357D01*
X74521714Y-25849500D01*
X74664571Y-25778071D01*
X74950285Y-25778071D01*
X75093142Y-25849500D01*
X75164571Y-25992357D01*
X75164571Y-26135214D01*
X74450285Y-26278071D01*
X76450285Y-25778071D02*
X76450285Y-26992357D01*
X76378857Y-27135214D01*
X76307428Y-27206642D01*
X76164571Y-27278071D01*
X75950285Y-27278071D01*
X75807428Y-27206642D01*
X76450285Y-26706642D02*
X76307428Y-26778071D01*
X76021714Y-26778071D01*
X75878857Y-26706642D01*
X75807428Y-26635214D01*
X75736000Y-26492357D01*
X75736000Y-26063785D01*
X75807428Y-25920928D01*
X75878857Y-25849500D01*
X76021714Y-25778071D01*
X76307428Y-25778071D01*
X76450285Y-25849500D01*
X78236000Y-26706642D02*
X78450285Y-26778071D01*
X78807428Y-26778071D01*
X78950285Y-26706642D01*
X79021714Y-26635214D01*
X79093142Y-26492357D01*
X79093142Y-26349500D01*
X79021714Y-26206642D01*
X78950285Y-26135214D01*
X78807428Y-26063785D01*
X78521714Y-25992357D01*
X78378857Y-25920928D01*
X78307428Y-25849500D01*
X78236000Y-25706642D01*
X78236000Y-25563785D01*
X78307428Y-25420928D01*
X78378857Y-25349500D01*
X78521714Y-25278071D01*
X78878857Y-25278071D01*
X79093142Y-25349500D01*
X79593142Y-25778071D02*
X79950285Y-26778071D01*
X80307428Y-25778071D02*
X79950285Y-26778071D01*
X79807428Y-27135214D01*
X79736000Y-27206642D01*
X79593142Y-27278071D01*
X80878857Y-25778071D02*
X80878857Y-26778071D01*
X80878857Y-25920928D02*
X80950285Y-25849500D01*
X81093142Y-25778071D01*
X81307428Y-25778071D01*
X81450285Y-25849500D01*
X81521714Y-25992357D01*
X81521714Y-26778071D01*
X82021714Y-25778071D02*
X82593142Y-25778071D01*
X82236000Y-25278071D02*
X82236000Y-26563785D01*
X82307428Y-26706642D01*
X82450285Y-26778071D01*
X82593142Y-26778071D01*
X83093142Y-26778071D02*
X83093142Y-25278071D01*
X83736000Y-26778071D02*
X83736000Y-25992357D01*
X83664571Y-25849500D01*
X83521714Y-25778071D01*
X83307428Y-25778071D01*
X83164571Y-25849500D01*
X83093142Y-25920928D01*
X85021714Y-26706642D02*
X84878857Y-26778071D01*
X84593142Y-26778071D01*
X84450285Y-26706642D01*
X84378857Y-26563785D01*
X84378857Y-25992357D01*
X84450285Y-25849500D01*
X84593142Y-25778071D01*
X84878857Y-25778071D01*
X85021714Y-25849500D01*
X85093142Y-25992357D01*
X85093142Y-26135214D01*
X84378857Y-26278071D01*
X85664571Y-26706642D02*
X85807428Y-26778071D01*
X86093142Y-26778071D01*
X86236000Y-26706642D01*
X86307428Y-26563785D01*
X86307428Y-26492357D01*
X86236000Y-26349500D01*
X86093142Y-26278071D01*
X85878857Y-26278071D01*
X85736000Y-26206642D01*
X85664571Y-26063785D01*
X85664571Y-25992357D01*
X85736000Y-25849500D01*
X85878857Y-25778071D01*
X86093142Y-25778071D01*
X86236000Y-25849500D01*
X86950285Y-26778071D02*
X86950285Y-25778071D01*
X86950285Y-25278071D02*
X86878857Y-25349500D01*
X86950285Y-25420928D01*
X87021714Y-25349500D01*
X86950285Y-25278071D01*
X86950285Y-25420928D01*
X87593142Y-26706642D02*
X87736000Y-26778071D01*
X88021714Y-26778071D01*
X88164571Y-26706642D01*
X88236000Y-26563785D01*
X88236000Y-26492357D01*
X88164571Y-26349500D01*
X88021714Y-26278071D01*
X87807428Y-26278071D01*
X87664571Y-26206642D01*
X87593142Y-26063785D01*
X87593142Y-25992357D01*
X87664571Y-25849500D01*
X87807428Y-25778071D01*
X88021714Y-25778071D01*
X88164571Y-25849500D01*
X46530171Y-140470771D02*
X46530171Y-141970771D01*
X46530171Y-140542200D02*
X46673028Y-140470771D01*
X46958742Y-140470771D01*
X47101599Y-140542200D01*
X47173028Y-140613628D01*
X47244457Y-140756485D01*
X47244457Y-141185057D01*
X47173028Y-141327914D01*
X47101599Y-141399342D01*
X46958742Y-141470771D01*
X46673028Y-141470771D01*
X46530171Y-141399342D01*
X48101599Y-141470771D02*
X47958742Y-141399342D01*
X47887314Y-141256485D01*
X47887314Y-139970771D01*
X49244457Y-141399342D02*
X49101599Y-141470771D01*
X48815885Y-141470771D01*
X48673028Y-141399342D01*
X48601599Y-141256485D01*
X48601599Y-140685057D01*
X48673028Y-140542200D01*
X48815885Y-140470771D01*
X49101599Y-140470771D01*
X49244457Y-140542200D01*
X49315885Y-140685057D01*
X49315885Y-140827914D01*
X48601599Y-140970771D01*
X50601599Y-141470771D02*
X50601599Y-140685057D01*
X50530171Y-140542200D01*
X50387314Y-140470771D01*
X50101599Y-140470771D01*
X49958742Y-140542200D01*
X50601599Y-141399342D02*
X50458742Y-141470771D01*
X50101599Y-141470771D01*
X49958742Y-141399342D01*
X49887314Y-141256485D01*
X49887314Y-141113628D01*
X49958742Y-140970771D01*
X50101599Y-140899342D01*
X50458742Y-140899342D01*
X50601599Y-140827914D01*
X51244457Y-141399342D02*
X51387314Y-141470771D01*
X51673028Y-141470771D01*
X51815885Y-141399342D01*
X51887314Y-141256485D01*
X51887314Y-141185057D01*
X51815885Y-141042200D01*
X51673028Y-140970771D01*
X51458742Y-140970771D01*
X51315885Y-140899342D01*
X51244457Y-140756485D01*
X51244457Y-140685057D01*
X51315885Y-140542200D01*
X51458742Y-140470771D01*
X51673028Y-140470771D01*
X51815885Y-140542200D01*
X53101600Y-141399342D02*
X52958742Y-141470771D01*
X52673028Y-141470771D01*
X52530171Y-141399342D01*
X52458742Y-141256485D01*
X52458742Y-140685057D01*
X52530171Y-140542200D01*
X52673028Y-140470771D01*
X52958742Y-140470771D01*
X53101600Y-140542200D01*
X53173028Y-140685057D01*
X53173028Y-140827914D01*
X52458742Y-140970771D01*
X54958742Y-140470771D02*
X54958742Y-141970771D01*
X54958742Y-140542200D02*
X55101600Y-140470771D01*
X55387314Y-140470771D01*
X55530171Y-140542200D01*
X55601600Y-140613628D01*
X55673028Y-140756485D01*
X55673028Y-141185057D01*
X55601600Y-141327914D01*
X55530171Y-141399342D01*
X55387314Y-141470771D01*
X55101600Y-141470771D01*
X54958742Y-141399342D01*
X56958742Y-140470771D02*
X56958742Y-141470771D01*
X56315885Y-140470771D02*
X56315885Y-141256485D01*
X56387314Y-141399342D01*
X56530171Y-141470771D01*
X56744457Y-141470771D01*
X56887314Y-141399342D01*
X56958742Y-141327914D01*
X57458742Y-140470771D02*
X58030171Y-140470771D01*
X57673028Y-139970771D02*
X57673028Y-141256485D01*
X57744457Y-141399342D01*
X57887314Y-141470771D01*
X58030171Y-141470771D01*
X59601599Y-141399342D02*
X59744457Y-141470771D01*
X60030171Y-141470771D01*
X60173028Y-141399342D01*
X60244457Y-141256485D01*
X60244457Y-141185057D01*
X60173028Y-141042200D01*
X60030171Y-140970771D01*
X59815885Y-140970771D01*
X59673028Y-140899342D01*
X59601599Y-140756485D01*
X59601599Y-140685057D01*
X59673028Y-140542200D01*
X59815885Y-140470771D01*
X60030171Y-140470771D01*
X60173028Y-140542200D01*
X61458742Y-141399342D02*
X61315885Y-141470771D01*
X61030171Y-141470771D01*
X60887314Y-141399342D01*
X60815885Y-141256485D01*
X60815885Y-140685057D01*
X60887314Y-140542200D01*
X61030171Y-140470771D01*
X61315885Y-140470771D01*
X61458742Y-140542200D01*
X61530171Y-140685057D01*
X61530171Y-140827914D01*
X60815885Y-140970771D01*
X62173028Y-141470771D02*
X62173028Y-140470771D01*
X62173028Y-140756485D02*
X62244457Y-140613628D01*
X62315885Y-140542200D01*
X62458742Y-140470771D01*
X62601599Y-140470771D01*
X63101600Y-141470771D02*
X63101600Y-140470771D01*
X63101600Y-139970771D02*
X63030171Y-140042200D01*
X63101600Y-140113628D01*
X63173028Y-140042200D01*
X63101600Y-139970771D01*
X63101600Y-140113628D01*
X64458742Y-141470771D02*
X64458742Y-140685057D01*
X64387314Y-140542200D01*
X64244457Y-140470771D01*
X63958742Y-140470771D01*
X63815885Y-140542200D01*
X64458742Y-141399342D02*
X64315885Y-141470771D01*
X63958742Y-141470771D01*
X63815885Y-141399342D01*
X63744457Y-141256485D01*
X63744457Y-141113628D01*
X63815885Y-140970771D01*
X63958742Y-140899342D01*
X64315885Y-140899342D01*
X64458742Y-140827914D01*
X65387314Y-141470771D02*
X65244457Y-141399342D01*
X65173028Y-141256485D01*
X65173028Y-139970771D01*
X67101600Y-140470771D02*
X67101600Y-141470771D01*
X67101600Y-140613628D02*
X67173028Y-140542200D01*
X67315885Y-140470771D01*
X67530171Y-140470771D01*
X67673028Y-140542200D01*
X67744457Y-140685057D01*
X67744457Y-141470771D01*
X69101600Y-140470771D02*
X69101600Y-141470771D01*
X68458742Y-140470771D02*
X68458742Y-141256485D01*
X68530171Y-141399342D01*
X68673028Y-141470771D01*
X68887314Y-141470771D01*
X69030171Y-141399342D01*
X69101600Y-141327914D01*
X69815885Y-141470771D02*
X69815885Y-140470771D01*
X69815885Y-140613628D02*
X69887314Y-140542200D01*
X70030171Y-140470771D01*
X70244457Y-140470771D01*
X70387314Y-140542200D01*
X70458742Y-140685057D01*
X70458742Y-141470771D01*
X70458742Y-140685057D02*
X70530171Y-140542200D01*
X70673028Y-140470771D01*
X70887314Y-140470771D01*
X71030171Y-140542200D01*
X71101600Y-140685057D01*
X71101600Y-141470771D01*
X71815885Y-141470771D02*
X71815885Y-139970771D01*
X71815885Y-140542200D02*
X71958742Y-140470771D01*
X72244457Y-140470771D01*
X72387314Y-140542200D01*
X72458742Y-140613628D01*
X72530171Y-140756485D01*
X72530171Y-141185057D01*
X72458742Y-141327914D01*
X72387314Y-141399342D01*
X72244457Y-141470771D01*
X71958742Y-141470771D01*
X71815885Y-141399342D01*
X73744457Y-141399342D02*
X73601600Y-141470771D01*
X73315885Y-141470771D01*
X73173028Y-141399342D01*
X73101600Y-141256485D01*
X73101600Y-140685057D01*
X73173028Y-140542200D01*
X73315885Y-140470771D01*
X73601600Y-140470771D01*
X73744457Y-140542200D01*
X73815885Y-140685057D01*
X73815885Y-140827914D01*
X73101600Y-140970771D01*
X74458742Y-141470771D02*
X74458742Y-140470771D01*
X74458742Y-140756485D02*
X74530171Y-140613628D01*
X74601600Y-140542200D01*
X74744457Y-140470771D01*
X74887314Y-140470771D01*
X76530171Y-141470771D02*
X76530171Y-139970771D01*
X77173028Y-141470771D02*
X77173028Y-140685057D01*
X77101600Y-140542200D01*
X76958742Y-140470771D01*
X76744457Y-140470771D01*
X76601600Y-140542200D01*
X76530171Y-140613628D01*
X78458742Y-141399342D02*
X78315885Y-141470771D01*
X78030171Y-141470771D01*
X77887314Y-141399342D01*
X77815885Y-141256485D01*
X77815885Y-140685057D01*
X77887314Y-140542200D01*
X78030171Y-140470771D01*
X78315885Y-140470771D01*
X78458742Y-140542200D01*
X78530171Y-140685057D01*
X78530171Y-140827914D01*
X77815885Y-140970771D01*
X79173028Y-141470771D02*
X79173028Y-140470771D01*
X79173028Y-140756485D02*
X79244457Y-140613628D01*
X79315885Y-140542200D01*
X79458742Y-140470771D01*
X79601600Y-140470771D01*
X80673028Y-141399342D02*
X80530171Y-141470771D01*
X80244457Y-141470771D01*
X80101600Y-141399342D01*
X80030171Y-141256485D01*
X80030171Y-140685057D01*
X80101600Y-140542200D01*
X80244457Y-140470771D01*
X80530171Y-140470771D01*
X80673028Y-140542200D01*
X80744457Y-140685057D01*
X80744457Y-140827914D01*
X80030171Y-140970771D01*
%LPC*%
G36*
X60951824Y-70686173D02*
G01*
X61193074Y-70771073D01*
X61500894Y-70893096D01*
X61622073Y-70944135D01*
X62204238Y-71175764D01*
X62894727Y-71422080D01*
X63654689Y-71671583D01*
X64445273Y-71912773D01*
X65227629Y-72134150D01*
X65962907Y-72324214D01*
X66612256Y-72471466D01*
X67056000Y-72552607D01*
X67887288Y-72674210D01*
X68607518Y-72764068D01*
X69271071Y-72826529D01*
X69932333Y-72865941D01*
X70645685Y-72886652D01*
X71310351Y-72892737D01*
X73151703Y-72898000D01*
X73151851Y-73086160D01*
X73131536Y-73230830D01*
X73075409Y-73506050D01*
X72990863Y-73878641D01*
X72885290Y-74315423D01*
X72821749Y-74567827D01*
X72223690Y-76584967D01*
X71480977Y-78514825D01*
X70591198Y-80361998D01*
X69551942Y-82131080D01*
X68360795Y-83826667D01*
X67241978Y-85196500D01*
X66743750Y-85719480D01*
X66111824Y-86302241D01*
X65364280Y-86929477D01*
X64519196Y-87585883D01*
X63796333Y-88113700D01*
X63422699Y-88368293D01*
X62993092Y-88642939D01*
X62534212Y-88922528D01*
X62072757Y-89191949D01*
X61635425Y-89436091D01*
X61248915Y-89639846D01*
X60939925Y-89788101D01*
X60735154Y-89865746D01*
X60686680Y-89873666D01*
X60572838Y-89834210D01*
X60346370Y-89727114D01*
X60041364Y-89569287D01*
X59731765Y-89400016D01*
X58501929Y-88669461D01*
X57328412Y-87889635D01*
X56241113Y-87082347D01*
X55269931Y-86269402D01*
X54688109Y-85721511D01*
X53932769Y-84905245D01*
X53164524Y-83954118D01*
X52403645Y-82899322D01*
X51670400Y-81772046D01*
X50985061Y-80603482D01*
X50367897Y-79424820D01*
X49839178Y-78267252D01*
X49830749Y-78247165D01*
X49641763Y-77771664D01*
X49443338Y-77229348D01*
X49241989Y-76642603D01*
X49044229Y-76033813D01*
X48856573Y-75425362D01*
X48685535Y-74839634D01*
X48537628Y-74299014D01*
X48419368Y-73825886D01*
X48337268Y-73442635D01*
X48297842Y-73171644D01*
X48307605Y-73035299D01*
X48312250Y-73029189D01*
X48407310Y-73014567D01*
X48645538Y-73000781D01*
X49000766Y-72988681D01*
X49446829Y-72979119D01*
X49957559Y-72972943D01*
X50066217Y-72972183D01*
X52117684Y-72886424D01*
X54099965Y-72652277D01*
X56032086Y-72265897D01*
X57933074Y-71723437D01*
X59821953Y-71021052D01*
X59918516Y-70980788D01*
X60262309Y-70841666D01*
X60555764Y-70732062D01*
X60758728Y-70666498D01*
X60821180Y-70654333D01*
X60951824Y-70686173D01*
G37*
G36*
X49664603Y-60564967D02*
G01*
X49799270Y-60749070D01*
X49983954Y-61020987D01*
X50199025Y-61352683D01*
X50200213Y-61354554D01*
X50947800Y-62453517D01*
X51781095Y-63524639D01*
X52726538Y-64600354D01*
X53508146Y-65412618D01*
X54435636Y-66312035D01*
X55321676Y-67099580D01*
X56208745Y-67810449D01*
X57139321Y-68479842D01*
X57509833Y-68728448D01*
X57851605Y-68960757D01*
X58134832Y-69166578D01*
X58332717Y-69325452D01*
X58418465Y-69416917D01*
X58420000Y-69423454D01*
X58342697Y-69485828D01*
X58128382Y-69583797D01*
X57803444Y-69708531D01*
X57394274Y-69851201D01*
X56927259Y-70002975D01*
X56428791Y-70155025D01*
X55925258Y-70298520D01*
X55443051Y-70424629D01*
X55386184Y-70438586D01*
X54497351Y-70637017D01*
X53598131Y-70805114D01*
X52761803Y-70929569D01*
X52535666Y-70956237D01*
X52256639Y-70990988D01*
X52049873Y-71024533D01*
X51971485Y-71045231D01*
X51866430Y-71060257D01*
X51623822Y-71074457D01*
X51275443Y-71087304D01*
X50853072Y-71098269D01*
X50388492Y-71106824D01*
X49913481Y-71112441D01*
X49459822Y-71114592D01*
X49059295Y-71112747D01*
X48743681Y-71106380D01*
X48620661Y-71100929D01*
X48314547Y-71072961D01*
X48131767Y-71023837D01*
X48026403Y-70937640D01*
X47992351Y-70883148D01*
X47949160Y-70706993D01*
X47918053Y-70362588D01*
X47899066Y-69850585D01*
X47892238Y-69171639D01*
X47892216Y-69130333D01*
X47919517Y-67928041D01*
X48006526Y-66785469D01*
X48160507Y-65634281D01*
X48388725Y-64406142D01*
X48400439Y-64349970D01*
X48512897Y-63850750D01*
X48647673Y-63312832D01*
X48797199Y-62760527D01*
X48953911Y-62218147D01*
X49110243Y-61710002D01*
X49258629Y-61260402D01*
X49391504Y-60893659D01*
X49501302Y-60634084D01*
X49580458Y-60505986D01*
X49599583Y-60496715D01*
X49664603Y-60564967D01*
G37*
G36*
X75595213Y-45867594D02*
G01*
X75856618Y-45923766D01*
X76214428Y-46007189D01*
X76635084Y-46109510D01*
X77085023Y-46222373D01*
X77530686Y-46337422D01*
X77938512Y-46446302D01*
X78274940Y-46540657D01*
X78401333Y-46578373D01*
X79937116Y-47111869D01*
X81457684Y-47758316D01*
X82941357Y-48504067D01*
X84366453Y-49335475D01*
X85711294Y-50238892D01*
X86954200Y-51200671D01*
X88073489Y-52207165D01*
X89047483Y-53244727D01*
X89111285Y-53320100D01*
X89482676Y-53784513D01*
X89903248Y-54347677D01*
X90348998Y-54974111D01*
X90795921Y-55628333D01*
X91220014Y-56274864D01*
X91597273Y-56878220D01*
X91903694Y-57402922D01*
X92020875Y-57620887D01*
X92390084Y-58335333D01*
X91945323Y-59139666D01*
X91220314Y-60368123D01*
X90435432Y-61546250D01*
X89610281Y-62648762D01*
X88764462Y-63650373D01*
X87917580Y-64525798D01*
X87418333Y-64978903D01*
X85803759Y-66252719D01*
X84092532Y-67388437D01*
X82289977Y-68383138D01*
X80401423Y-69233903D01*
X78432198Y-69937814D01*
X78281871Y-69984462D01*
X77779832Y-70132564D01*
X77257000Y-70276318D01*
X76746385Y-70407700D01*
X76280999Y-70518682D01*
X75893851Y-70601242D01*
X75617954Y-70647354D01*
X75526630Y-70654273D01*
X75482668Y-70635789D01*
X75449287Y-70566847D01*
X75424899Y-70427149D01*
X75407920Y-70196394D01*
X75396764Y-69854285D01*
X75389846Y-69380521D01*
X75386090Y-68855107D01*
X75313637Y-66943735D01*
X75112656Y-65115181D01*
X74776345Y-63334550D01*
X74297907Y-61566947D01*
X73670540Y-59777479D01*
X73564818Y-59509142D01*
X73375506Y-59032904D01*
X73242722Y-58686546D01*
X73159910Y-58442804D01*
X73120513Y-58274412D01*
X73117974Y-58154108D01*
X73145737Y-58054627D01*
X73192000Y-57958845D01*
X73342591Y-57635376D01*
X73526856Y-57189956D01*
X73729926Y-56662861D01*
X73936934Y-56094367D01*
X74133010Y-55524750D01*
X74303287Y-54994285D01*
X74373594Y-54758096D01*
X74758005Y-53295446D01*
X75043297Y-51903667D01*
X75237730Y-50525114D01*
X75349563Y-49102146D01*
X75386680Y-47688531D01*
X75392286Y-47150664D01*
X75402955Y-46674729D01*
X75417667Y-46285033D01*
X75435406Y-46005881D01*
X75455154Y-45861579D01*
X75463775Y-45847031D01*
X75595213Y-45867594D01*
G37*
G36*
X71951066Y-60656271D02*
G01*
X72038968Y-60870011D01*
X72153773Y-61193107D01*
X72287051Y-61598446D01*
X72430372Y-62058916D01*
X72575308Y-62547404D01*
X72713428Y-63036797D01*
X72836305Y-63499983D01*
X72935507Y-63909849D01*
X72939286Y-63926635D01*
X73151016Y-64931006D01*
X73308620Y-65832692D01*
X73418492Y-66687158D01*
X73487026Y-67549866D01*
X73520615Y-68476282D01*
X73526466Y-69020266D01*
X73525034Y-69708727D01*
X73514887Y-70235354D01*
X73495678Y-70607438D01*
X73467059Y-70832272D01*
X73436395Y-70911804D01*
X73326389Y-70942136D01*
X73079154Y-70971003D01*
X72726793Y-70997279D01*
X72301409Y-71019837D01*
X71835106Y-71037552D01*
X71359988Y-71049299D01*
X70908157Y-71053951D01*
X70511718Y-71050382D01*
X70202773Y-71037468D01*
X70104000Y-71028667D01*
X68942355Y-70885306D01*
X67912402Y-70731561D01*
X66976532Y-70560347D01*
X66097136Y-70364575D01*
X65236604Y-70137159D01*
X64983381Y-70063738D01*
X64382507Y-69884151D01*
X63927242Y-69742535D01*
X63599822Y-69632330D01*
X63382485Y-69546975D01*
X63257467Y-69479909D01*
X63207003Y-69424572D01*
X63203666Y-69406445D01*
X63270429Y-69329220D01*
X63453013Y-69180537D01*
X63724862Y-68980605D01*
X64059419Y-68749630D01*
X64120586Y-68708754D01*
X65394516Y-67793290D01*
X66647767Y-66761369D01*
X67855185Y-65638927D01*
X68991612Y-64451900D01*
X70031893Y-63226224D01*
X70950873Y-61987835D01*
X71565291Y-61033089D01*
X71715943Y-60796415D01*
X71837876Y-60632147D01*
X71898496Y-60579000D01*
X71951066Y-60656271D01*
G37*
G36*
X72196617Y-45479692D02*
G01*
X72633907Y-45489849D01*
X72981760Y-45505080D01*
X73206223Y-45525332D01*
X73249450Y-45533623D01*
X73345545Y-45564309D01*
X73411533Y-45617294D01*
X73455719Y-45722884D01*
X73486409Y-45911384D01*
X73511909Y-46213098D01*
X73535452Y-46577120D01*
X73559681Y-47763308D01*
X73494426Y-49059077D01*
X73342840Y-50432261D01*
X73108076Y-51850695D01*
X72938651Y-52665333D01*
X72844479Y-53055835D01*
X72725108Y-53504930D01*
X72589062Y-53985371D01*
X72444864Y-54469910D01*
X72301038Y-54931300D01*
X72166108Y-55342293D01*
X72048598Y-55675641D01*
X71957032Y-55904098D01*
X71899935Y-56000415D01*
X71894901Y-56001784D01*
X71831977Y-55932831D01*
X71694141Y-55745828D01*
X71498379Y-55464952D01*
X71261681Y-55114379D01*
X71106628Y-54879951D01*
X69995155Y-53332450D01*
X68742540Y-51853535D01*
X67370249Y-50464550D01*
X65899751Y-49186840D01*
X64352514Y-48041751D01*
X63980291Y-47794333D01*
X63625140Y-47560185D01*
X63326850Y-47357613D01*
X63111436Y-47204739D01*
X63004916Y-47119684D01*
X62998092Y-47110178D01*
X63071563Y-47067399D01*
X63276388Y-46986448D01*
X63581633Y-46877493D01*
X63956364Y-46750701D01*
X64369649Y-46616240D01*
X64790554Y-46484278D01*
X65188145Y-46364983D01*
X65531489Y-46268523D01*
X65659000Y-46235537D01*
X66418401Y-46055257D01*
X67144763Y-45903049D01*
X67889137Y-45769740D01*
X68702574Y-45646157D01*
X69596000Y-45528133D01*
X69856922Y-45506782D01*
X70232120Y-45490810D01*
X70687640Y-45480166D01*
X71189531Y-45474799D01*
X71703841Y-45474658D01*
X72196617Y-45479692D01*
G37*
G36*
X49874868Y-45471483D02*
G01*
X50457985Y-45481589D01*
X51045819Y-45500799D01*
X51605540Y-45528421D01*
X52104319Y-45563762D01*
X52509325Y-45606131D01*
X52662666Y-45629086D01*
X52849726Y-45659439D01*
X53143361Y-45705007D01*
X53482619Y-45756341D01*
X53509333Y-45760328D01*
X53906069Y-45829365D01*
X54383080Y-45928158D01*
X54916827Y-46050235D01*
X55483773Y-46189125D01*
X56060376Y-46338354D01*
X56623100Y-46491452D01*
X57148405Y-46641945D01*
X57612751Y-46783362D01*
X57992601Y-46909230D01*
X58264415Y-47013077D01*
X58404654Y-47088431D01*
X58418653Y-47110178D01*
X58351491Y-47174290D01*
X58172575Y-47305174D01*
X57913857Y-47480041D01*
X57762487Y-47578171D01*
X56334066Y-48568163D01*
X54951622Y-49675909D01*
X53637700Y-50878708D01*
X52414844Y-52153857D01*
X51305601Y-53478653D01*
X50332516Y-54830395D01*
X49931720Y-55463430D01*
X49779818Y-55700217D01*
X49657354Y-55865382D01*
X49596784Y-55919932D01*
X49550967Y-55844701D01*
X49465580Y-55636149D01*
X49351254Y-55322675D01*
X49218618Y-54932678D01*
X49160301Y-54753801D01*
X48764777Y-53392927D01*
X48440117Y-51999108D01*
X48191111Y-50605324D01*
X48022552Y-49244556D01*
X47939230Y-47949785D01*
X47945936Y-46753991D01*
X47960718Y-46496409D01*
X47989625Y-46096422D01*
X48017306Y-45833714D01*
X48053188Y-45676563D01*
X48106699Y-45593250D01*
X48187265Y-45552055D01*
X48246169Y-45535947D01*
X48482118Y-45502713D01*
X48854105Y-45481353D01*
X49329298Y-45471173D01*
X49874868Y-45471483D01*
G37*
G36*
X46091101Y-46831033D02*
G01*
X46075545Y-47780585D01*
X46116729Y-48844200D01*
X46210345Y-49977996D01*
X46352085Y-51138091D01*
X46537641Y-52280603D01*
X46709354Y-53128333D01*
X46884306Y-53832901D01*
X47113114Y-54633234D01*
X47377304Y-55471990D01*
X47658399Y-56291825D01*
X47937924Y-57035398D01*
X48078145Y-57376681D01*
X48427771Y-58196029D01*
X48170798Y-58768773D01*
X47733550Y-59836239D01*
X47320727Y-61023503D01*
X46946605Y-62281335D01*
X46625463Y-63560504D01*
X46371577Y-64811780D01*
X46307649Y-65193333D01*
X46239454Y-65668276D01*
X46186097Y-66150970D01*
X46145235Y-66675911D01*
X46114528Y-67277597D01*
X46091637Y-67990525D01*
X46079295Y-68558833D01*
X46062989Y-69290527D01*
X46044121Y-69861981D01*
X46022122Y-70282273D01*
X45996421Y-70560485D01*
X45966447Y-70705698D01*
X45942793Y-70733086D01*
X45824850Y-70712474D01*
X45580725Y-70661355D01*
X45249064Y-70588027D01*
X44959927Y-70522016D01*
X42953606Y-69972482D01*
X41008305Y-69267167D01*
X39132564Y-68409793D01*
X37334920Y-67404080D01*
X36364333Y-66776656D01*
X35563161Y-66210672D01*
X34790583Y-65623846D01*
X34082548Y-65044907D01*
X33475005Y-64502586D01*
X33267443Y-64301613D01*
X32737351Y-63733844D01*
X32161484Y-63047919D01*
X31565416Y-62279250D01*
X30974719Y-61463250D01*
X30414968Y-60635331D01*
X29911736Y-59830905D01*
X29490596Y-59085384D01*
X29464388Y-59035429D01*
X29083776Y-58305808D01*
X29322485Y-57819089D01*
X29711623Y-57087182D01*
X30184772Y-56297330D01*
X30720651Y-55478368D01*
X31297976Y-54659130D01*
X31895467Y-53868448D01*
X32491841Y-53135157D01*
X33065815Y-52488091D01*
X33596108Y-51956083D01*
X33756199Y-51812155D01*
X35413984Y-50478225D01*
X37141109Y-49298578D01*
X38939986Y-48271953D01*
X40813024Y-47397089D01*
X42762636Y-46672725D01*
X44577000Y-46150371D01*
X44978974Y-46052989D01*
X45361193Y-45966186D01*
X45667236Y-45902524D01*
X45783365Y-45881811D01*
X46143065Y-45825400D01*
X46091101Y-46831033D01*
G37*
G36*
X60823996Y-48165508D02*
G01*
X61024269Y-48243370D01*
X61338416Y-48399274D01*
X61739125Y-48617769D01*
X62199087Y-48883404D01*
X62690992Y-49180726D01*
X63187529Y-49494285D01*
X63288333Y-49559769D01*
X64589038Y-50463131D01*
X65749877Y-51389945D01*
X66800214Y-52369534D01*
X67769414Y-53431223D01*
X68686843Y-54604337D01*
X69447670Y-55710666D01*
X69773508Y-56223027D01*
X70079801Y-56728614D01*
X70353454Y-57203570D01*
X70581371Y-57624035D01*
X70750456Y-57966151D01*
X70847614Y-58206059D01*
X70866000Y-58294670D01*
X70817908Y-58480959D01*
X70682301Y-58782691D01*
X70472185Y-59179036D01*
X70200564Y-59649167D01*
X69880442Y-60172253D01*
X69524823Y-60727468D01*
X69146712Y-61293982D01*
X68759113Y-61850966D01*
X68375030Y-62377592D01*
X68065366Y-62780333D01*
X67152078Y-63843805D01*
X66143145Y-64842106D01*
X65019318Y-65791720D01*
X63761347Y-66709130D01*
X62605464Y-67455538D01*
X62274999Y-67653246D01*
X61913977Y-67860867D01*
X61554495Y-68060978D01*
X61228652Y-68236157D01*
X60968547Y-68368984D01*
X60806279Y-68442036D01*
X60771914Y-68450707D01*
X60691859Y-68411996D01*
X60502080Y-68311854D01*
X60241112Y-68170666D01*
X60198000Y-68147093D01*
X58616458Y-67222607D01*
X57185560Y-66258514D01*
X55888151Y-65237946D01*
X54707073Y-64144037D01*
X53625172Y-62959918D01*
X52625291Y-61668723D01*
X51690276Y-60253584D01*
X51050077Y-59152952D01*
X50535678Y-58223073D01*
X50743650Y-57813536D01*
X51231557Y-56923701D01*
X51812787Y-55981158D01*
X52458770Y-55025923D01*
X53140937Y-54098010D01*
X53830717Y-53237435D01*
X54499542Y-52484214D01*
X54687848Y-52289197D01*
X55119634Y-51882156D01*
X55664914Y-51415053D01*
X56290683Y-50912748D01*
X56963933Y-50400098D01*
X57651659Y-49901962D01*
X58320855Y-49443198D01*
X58938513Y-49048666D01*
X59185637Y-48901718D01*
X59747887Y-48585285D01*
X60183753Y-48360308D01*
X60505628Y-48221216D01*
X60725907Y-48162440D01*
X60823996Y-48165508D01*
G37*
G36*
X60977755Y-26784821D02*
G01*
X61249869Y-26912895D01*
X61608748Y-27116132D01*
X61936528Y-27306652D01*
X63353378Y-28173534D01*
X64623942Y-29058587D01*
X65771237Y-29983207D01*
X66818281Y-30968791D01*
X67788090Y-32036735D01*
X68703682Y-33208437D01*
X69448695Y-34290000D01*
X70508973Y-36066420D01*
X71418822Y-37919962D01*
X72176731Y-39847138D01*
X72781189Y-41844464D01*
X72860911Y-42159553D01*
X72965423Y-42592352D01*
X73053298Y-42973049D01*
X73117119Y-43268211D01*
X73149472Y-43444406D01*
X73151989Y-43471887D01*
X73133778Y-43515987D01*
X73065601Y-43549457D01*
X72927131Y-43573886D01*
X72698039Y-43590862D01*
X72357996Y-43601974D01*
X71886674Y-43608812D01*
X71352822Y-43612527D01*
X69375726Y-43687788D01*
X67486805Y-43895779D01*
X65663741Y-44240914D01*
X63884213Y-44727608D01*
X62125902Y-45360276D01*
X61764333Y-45509122D01*
X61400162Y-45658764D01*
X61080133Y-45783949D01*
X60844768Y-45869184D01*
X60748333Y-45897546D01*
X60577437Y-45878424D01*
X60333089Y-45793301D01*
X60198000Y-45728803D01*
X59899795Y-45590016D01*
X59474112Y-45417127D01*
X58956295Y-45222541D01*
X58381687Y-45018663D01*
X57785633Y-44817897D01*
X57203475Y-44632650D01*
X56670558Y-44475324D01*
X56472666Y-44421286D01*
X54557430Y-43998139D01*
X52577506Y-43724653D01*
X50551583Y-43603106D01*
X49713549Y-43597704D01*
X48330764Y-43610157D01*
X48387430Y-43225745D01*
X48430171Y-42996661D01*
X48505869Y-42649289D01*
X48604194Y-42229046D01*
X48714814Y-41781350D01*
X48725861Y-41737968D01*
X49280070Y-39894067D01*
X49991924Y-38069825D01*
X50849751Y-36287441D01*
X51841882Y-34569112D01*
X52956647Y-32937035D01*
X54110554Y-31496000D01*
X55024761Y-30539653D01*
X56100116Y-29594923D01*
X57328520Y-28668097D01*
X58701873Y-27765460D01*
X59611110Y-27227264D01*
X60009781Y-26998652D01*
X60308421Y-26838826D01*
X60544391Y-26749062D01*
X60755049Y-26730635D01*
X60977755Y-26784821D01*
G37*
D11*
X67564000Y-98298000D03*
X81026000Y-98298000D03*
X40640000Y-98298000D03*
X54102000Y-98298000D03*
X40640000Y-113538000D03*
X94488000Y-113601500D03*
X81026000Y-113538000D03*
X54102000Y-113538000D03*
X67564000Y-113538000D03*
X27178000Y-113538000D03*
X40576500Y-128841500D03*
X54102000Y-128778000D03*
X67564000Y-128778000D03*
X27178000Y-128778000D03*
X94488000Y-128778000D03*
X81026000Y-128778000D03*
D12*
X93853000Y-143256000D03*
X93853000Y-20828000D03*
X27940000Y-20828000D03*
X27940000Y-143256000D03*
D11*
X27178000Y-98298000D03*
D13*
X38430200Y-80695800D03*
X38430200Y-35763200D03*
X83362800Y-35763200D03*
D11*
X94488000Y-98361500D03*
D13*
X83362800Y-80683100D03*
M02*
