G04 #@! TF.GenerationSoftware,KiCad,Pcbnew,(5.1.5-0)*
G04 #@! TF.CreationDate,2020-10-12T11:50:34-05:00*
G04 #@! TF.ProjectId,bells-venn,62656c6c-732d-4766-956e-6e2e6b696361,rev?*
G04 #@! TF.SameCoordinates,Original*
G04 #@! TF.FileFunction,Legend,Bot*
G04 #@! TF.FilePolarity,Positive*
%FSLAX46Y46*%
G04 Gerber Fmt 4.6, Leading zero omitted, Abs format (unit mm)*
G04 Created by KiCad (PCBNEW (5.1.5-0)) date 2020-10-12 11:50:34*
%MOMM*%
%LPD*%
G04 APERTURE LIST*
%ADD10C,0.300000*%
G04 APERTURE END LIST*
D10*
X75135828Y-140470771D02*
X75135828Y-141970771D01*
X75135828Y-140542200D02*
X74992971Y-140470771D01*
X74707257Y-140470771D01*
X74564400Y-140542200D01*
X74492971Y-140613628D01*
X74421542Y-140756485D01*
X74421542Y-141185057D01*
X74492971Y-141327914D01*
X74564400Y-141399342D01*
X74707257Y-141470771D01*
X74992971Y-141470771D01*
X75135828Y-141399342D01*
X73564400Y-141470771D02*
X73707257Y-141399342D01*
X73778685Y-141256485D01*
X73778685Y-139970771D01*
X72421542Y-141399342D02*
X72564400Y-141470771D01*
X72850114Y-141470771D01*
X72992971Y-141399342D01*
X73064400Y-141256485D01*
X73064400Y-140685057D01*
X72992971Y-140542200D01*
X72850114Y-140470771D01*
X72564400Y-140470771D01*
X72421542Y-140542200D01*
X72350114Y-140685057D01*
X72350114Y-140827914D01*
X73064400Y-140970771D01*
X71064400Y-141470771D02*
X71064400Y-140685057D01*
X71135828Y-140542200D01*
X71278685Y-140470771D01*
X71564400Y-140470771D01*
X71707257Y-140542200D01*
X71064400Y-141399342D02*
X71207257Y-141470771D01*
X71564400Y-141470771D01*
X71707257Y-141399342D01*
X71778685Y-141256485D01*
X71778685Y-141113628D01*
X71707257Y-140970771D01*
X71564400Y-140899342D01*
X71207257Y-140899342D01*
X71064400Y-140827914D01*
X70421542Y-141399342D02*
X70278685Y-141470771D01*
X69992971Y-141470771D01*
X69850114Y-141399342D01*
X69778685Y-141256485D01*
X69778685Y-141185057D01*
X69850114Y-141042200D01*
X69992971Y-140970771D01*
X70207257Y-140970771D01*
X70350114Y-140899342D01*
X70421542Y-140756485D01*
X70421542Y-140685057D01*
X70350114Y-140542200D01*
X70207257Y-140470771D01*
X69992971Y-140470771D01*
X69850114Y-140542200D01*
X68564400Y-141399342D02*
X68707257Y-141470771D01*
X68992971Y-141470771D01*
X69135828Y-141399342D01*
X69207257Y-141256485D01*
X69207257Y-140685057D01*
X69135828Y-140542200D01*
X68992971Y-140470771D01*
X68707257Y-140470771D01*
X68564400Y-140542200D01*
X68492971Y-140685057D01*
X68492971Y-140827914D01*
X69207257Y-140970771D01*
X66707257Y-140470771D02*
X66707257Y-141970771D01*
X66707257Y-140542200D02*
X66564400Y-140470771D01*
X66278685Y-140470771D01*
X66135828Y-140542200D01*
X66064400Y-140613628D01*
X65992971Y-140756485D01*
X65992971Y-141185057D01*
X66064400Y-141327914D01*
X66135828Y-141399342D01*
X66278685Y-141470771D01*
X66564400Y-141470771D01*
X66707257Y-141399342D01*
X64707257Y-140470771D02*
X64707257Y-141470771D01*
X65350114Y-140470771D02*
X65350114Y-141256485D01*
X65278685Y-141399342D01*
X65135828Y-141470771D01*
X64921542Y-141470771D01*
X64778685Y-141399342D01*
X64707257Y-141327914D01*
X64207257Y-140470771D02*
X63635828Y-140470771D01*
X63992971Y-139970771D02*
X63992971Y-141256485D01*
X63921542Y-141399342D01*
X63778685Y-141470771D01*
X63635828Y-141470771D01*
X62064400Y-141399342D02*
X61921542Y-141470771D01*
X61635828Y-141470771D01*
X61492971Y-141399342D01*
X61421542Y-141256485D01*
X61421542Y-141185057D01*
X61492971Y-141042200D01*
X61635828Y-140970771D01*
X61850114Y-140970771D01*
X61992971Y-140899342D01*
X62064400Y-140756485D01*
X62064400Y-140685057D01*
X61992971Y-140542200D01*
X61850114Y-140470771D01*
X61635828Y-140470771D01*
X61492971Y-140542200D01*
X60207257Y-141399342D02*
X60350114Y-141470771D01*
X60635828Y-141470771D01*
X60778685Y-141399342D01*
X60850114Y-141256485D01*
X60850114Y-140685057D01*
X60778685Y-140542200D01*
X60635828Y-140470771D01*
X60350114Y-140470771D01*
X60207257Y-140542200D01*
X60135828Y-140685057D01*
X60135828Y-140827914D01*
X60850114Y-140970771D01*
X59492971Y-141470771D02*
X59492971Y-140470771D01*
X59492971Y-140756485D02*
X59421542Y-140613628D01*
X59350114Y-140542200D01*
X59207257Y-140470771D01*
X59064400Y-140470771D01*
X58564400Y-141470771D02*
X58564400Y-140470771D01*
X58564400Y-139970771D02*
X58635828Y-140042200D01*
X58564400Y-140113628D01*
X58492971Y-140042200D01*
X58564400Y-139970771D01*
X58564400Y-140113628D01*
X57207257Y-141470771D02*
X57207257Y-140685057D01*
X57278685Y-140542200D01*
X57421542Y-140470771D01*
X57707257Y-140470771D01*
X57850114Y-140542200D01*
X57207257Y-141399342D02*
X57350114Y-141470771D01*
X57707257Y-141470771D01*
X57850114Y-141399342D01*
X57921542Y-141256485D01*
X57921542Y-141113628D01*
X57850114Y-140970771D01*
X57707257Y-140899342D01*
X57350114Y-140899342D01*
X57207257Y-140827914D01*
X56278685Y-141470771D02*
X56421542Y-141399342D01*
X56492971Y-141256485D01*
X56492971Y-139970771D01*
X54564400Y-140470771D02*
X54564400Y-141470771D01*
X54564400Y-140613628D02*
X54492971Y-140542200D01*
X54350114Y-140470771D01*
X54135828Y-140470771D01*
X53992971Y-140542200D01*
X53921542Y-140685057D01*
X53921542Y-141470771D01*
X52564400Y-140470771D02*
X52564400Y-141470771D01*
X53207257Y-140470771D02*
X53207257Y-141256485D01*
X53135828Y-141399342D01*
X52992971Y-141470771D01*
X52778685Y-141470771D01*
X52635828Y-141399342D01*
X52564400Y-141327914D01*
X51850114Y-141470771D02*
X51850114Y-140470771D01*
X51850114Y-140613628D02*
X51778685Y-140542200D01*
X51635828Y-140470771D01*
X51421542Y-140470771D01*
X51278685Y-140542200D01*
X51207257Y-140685057D01*
X51207257Y-141470771D01*
X51207257Y-140685057D02*
X51135828Y-140542200D01*
X50992971Y-140470771D01*
X50778685Y-140470771D01*
X50635828Y-140542200D01*
X50564400Y-140685057D01*
X50564400Y-141470771D01*
X49850114Y-141470771D02*
X49850114Y-139970771D01*
X49850114Y-140542200D02*
X49707257Y-140470771D01*
X49421542Y-140470771D01*
X49278685Y-140542200D01*
X49207257Y-140613628D01*
X49135828Y-140756485D01*
X49135828Y-141185057D01*
X49207257Y-141327914D01*
X49278685Y-141399342D01*
X49421542Y-141470771D01*
X49707257Y-141470771D01*
X49850114Y-141399342D01*
X47921542Y-141399342D02*
X48064400Y-141470771D01*
X48350114Y-141470771D01*
X48492971Y-141399342D01*
X48564400Y-141256485D01*
X48564400Y-140685057D01*
X48492971Y-140542200D01*
X48350114Y-140470771D01*
X48064400Y-140470771D01*
X47921542Y-140542200D01*
X47850114Y-140685057D01*
X47850114Y-140827914D01*
X48564400Y-140970771D01*
X47207257Y-141470771D02*
X47207257Y-140470771D01*
X47207257Y-140756485D02*
X47135828Y-140613628D01*
X47064400Y-140542200D01*
X46921542Y-140470771D01*
X46778685Y-140470771D01*
X45135828Y-141470771D02*
X45135828Y-139970771D01*
X44492971Y-141470771D02*
X44492971Y-140685057D01*
X44564400Y-140542200D01*
X44707257Y-140470771D01*
X44921542Y-140470771D01*
X45064400Y-140542200D01*
X45135828Y-140613628D01*
X43207257Y-141399342D02*
X43350114Y-141470771D01*
X43635828Y-141470771D01*
X43778685Y-141399342D01*
X43850114Y-141256485D01*
X43850114Y-140685057D01*
X43778685Y-140542200D01*
X43635828Y-140470771D01*
X43350114Y-140470771D01*
X43207257Y-140542200D01*
X43135828Y-140685057D01*
X43135828Y-140827914D01*
X43850114Y-140970771D01*
X42492971Y-141470771D02*
X42492971Y-140470771D01*
X42492971Y-140756485D02*
X42421542Y-140613628D01*
X42350114Y-140542200D01*
X42207257Y-140470771D01*
X42064400Y-140470771D01*
X40992971Y-141399342D02*
X41135828Y-141470771D01*
X41421542Y-141470771D01*
X41564400Y-141399342D01*
X41635828Y-141256485D01*
X41635828Y-140685057D01*
X41564400Y-140542200D01*
X41421542Y-140470771D01*
X41135828Y-140470771D01*
X40992971Y-140542200D01*
X40921542Y-140685057D01*
X40921542Y-140827914D01*
X41635828Y-140970771D01*
M02*
