M48
INCH,TZ
T1C0.1260
T2C0.2520
T3C0.3543
%
G90
G05
T2
X10700Y-38700
X10700Y-44700
X10700Y-50700
X15975Y-50725
X16000Y-38700
X16000Y-44700
X21300Y-38700
X21300Y-44700
X21300Y-50700
X26600Y-38700
X26600Y-44700
X26600Y-50700
X31900Y-38700
X31900Y-44700
X31900Y-50700
X37200Y-38725
X37200Y-44725
X37200Y-50700
T3
X15130Y-14080
X15130Y-31770
X32820Y-14080
X32820Y-31765
T1
G00X11650Y-8200
M15
G01X10350Y-8200
M16
G05
G00X11650Y-56400
M15
G01X10350Y-56400
M16
G05
G00X37600Y-8200
M15
G01X36300Y-8200
M16
G05
G00X37600Y-56400
M15
G01X36300Y-56400
M16
G05
T0
M30
