M48
INCH,TZ
T1C0.1260
T2C0.2520
T3C0.3543
%
G90
G05
T2
X10700Y-38725
X10700Y-44725
X10700Y-50700
X16000Y-38700
X16000Y-44700
X16000Y-50700
X21300Y-38700
X21300Y-44700
X21300Y-50700
X26600Y-38700
X26600Y-44700
X26600Y-50700
X31900Y-38700
X31900Y-44700
X31925Y-50725
X37200Y-38700
X37200Y-44700
X37200Y-50700
T3
X15080Y-14080
X15080Y-31765
X32770Y-14080
X32770Y-31770
T1
G00X10300Y-8200
M15
G01X11600Y-8200
M16
G05
G00X10300Y-56400
M15
G01X11600Y-56400
M16
G05
G00X36250Y-8150
M15
G01X37550Y-8150
M16
G05
G00X36250Y-56400
M15
G01X37550Y-56400
M16
G05
T0
M30
