G04 #@! TF.GenerationSoftware,KiCad,Pcbnew,(6.0.5-0)*
G04 #@! TF.CreationDate,2023-09-16T19:37:22-05:00*
G04 #@! TF.ProjectId,bells-venn,62656c6c-732d-4766-956e-6e2e6b696361,rev?*
G04 #@! TF.SameCoordinates,Original*
G04 #@! TF.FileFunction,Copper,L2,Bot*
G04 #@! TF.FilePolarity,Positive*
%FSLAX46Y46*%
G04 Gerber Fmt 4.6, Leading zero omitted, Abs format (unit mm)*
G04 Created by KiCad (PCBNEW (6.0.5-0)) date 2023-09-16 19:37:22*
%MOMM*%
%LPD*%
G01*
G04 APERTURE LIST*
G04 #@! TA.AperFunction,ComponentPad*
%ADD10C,0.600000*%
G04 #@! TD*
G04 APERTURE END LIST*
D10*
X60833000Y-101219000D03*
G04 #@! TA.AperFunction,Conductor*
G36*
X100779621Y-18308502D02*
G01*
X100826114Y-18362158D01*
X100837500Y-18414500D01*
X100837500Y-145644100D01*
X100817498Y-145712221D01*
X100763842Y-145758714D01*
X100711500Y-145770100D01*
X21081500Y-145770100D01*
X21013379Y-145750098D01*
X20966886Y-145696442D01*
X20955500Y-145644100D01*
X20955500Y-143388703D01*
X24180743Y-143388703D01*
X24218268Y-143673734D01*
X24294129Y-143951036D01*
X24406923Y-144215476D01*
X24554561Y-144462161D01*
X24734313Y-144686528D01*
X24942851Y-144884423D01*
X25176317Y-145052186D01*
X25180112Y-145054195D01*
X25180113Y-145054196D01*
X25201869Y-145065715D01*
X25430392Y-145186712D01*
X25700373Y-145285511D01*
X25981264Y-145346755D01*
X26009841Y-145349004D01*
X26204282Y-145364307D01*
X26204291Y-145364307D01*
X26206739Y-145364500D01*
X29662271Y-145364500D01*
X29664407Y-145364354D01*
X29664418Y-145364354D01*
X29872548Y-145350165D01*
X29872554Y-145350164D01*
X29876825Y-145349873D01*
X29881020Y-145349004D01*
X29881022Y-145349004D01*
X30017583Y-145320724D01*
X30158342Y-145291574D01*
X30429343Y-145195607D01*
X30684812Y-145063750D01*
X30688313Y-145061289D01*
X30688317Y-145061287D01*
X30802417Y-144981096D01*
X30920023Y-144898441D01*
X31130622Y-144702740D01*
X31312713Y-144480268D01*
X31462927Y-144235142D01*
X31578483Y-143971898D01*
X31657244Y-143695406D01*
X31697751Y-143410784D01*
X31697845Y-143392951D01*
X31697867Y-143388703D01*
X90093743Y-143388703D01*
X90131268Y-143673734D01*
X90207129Y-143951036D01*
X90319923Y-144215476D01*
X90467561Y-144462161D01*
X90647313Y-144686528D01*
X90855851Y-144884423D01*
X91089317Y-145052186D01*
X91093112Y-145054195D01*
X91093113Y-145054196D01*
X91114869Y-145065715D01*
X91343392Y-145186712D01*
X91613373Y-145285511D01*
X91894264Y-145346755D01*
X91922841Y-145349004D01*
X92117282Y-145364307D01*
X92117291Y-145364307D01*
X92119739Y-145364500D01*
X95575271Y-145364500D01*
X95577407Y-145364354D01*
X95577418Y-145364354D01*
X95785548Y-145350165D01*
X95785554Y-145350164D01*
X95789825Y-145349873D01*
X95794020Y-145349004D01*
X95794022Y-145349004D01*
X95930583Y-145320724D01*
X96071342Y-145291574D01*
X96342343Y-145195607D01*
X96597812Y-145063750D01*
X96601313Y-145061289D01*
X96601317Y-145061287D01*
X96715417Y-144981096D01*
X96833023Y-144898441D01*
X97043622Y-144702740D01*
X97225713Y-144480268D01*
X97375927Y-144235142D01*
X97491483Y-143971898D01*
X97570244Y-143695406D01*
X97610751Y-143410784D01*
X97610845Y-143392951D01*
X97612235Y-143127583D01*
X97612235Y-143127576D01*
X97612257Y-143123297D01*
X97574732Y-142838266D01*
X97498871Y-142560964D01*
X97386077Y-142296524D01*
X97238439Y-142049839D01*
X97058687Y-141825472D01*
X96850149Y-141627577D01*
X96616683Y-141459814D01*
X96594843Y-141448250D01*
X96571654Y-141435972D01*
X96362608Y-141325288D01*
X96092627Y-141226489D01*
X95811736Y-141165245D01*
X95780685Y-141162801D01*
X95588718Y-141147693D01*
X95588709Y-141147693D01*
X95586261Y-141147500D01*
X92130729Y-141147500D01*
X92128593Y-141147646D01*
X92128582Y-141147646D01*
X91920452Y-141161835D01*
X91920446Y-141161836D01*
X91916175Y-141162127D01*
X91911980Y-141162996D01*
X91911978Y-141162996D01*
X91775416Y-141191277D01*
X91634658Y-141220426D01*
X91363657Y-141316393D01*
X91108188Y-141448250D01*
X91104687Y-141450711D01*
X91104683Y-141450713D01*
X91094594Y-141457804D01*
X90872977Y-141613559D01*
X90662378Y-141809260D01*
X90480287Y-142031732D01*
X90330073Y-142276858D01*
X90214517Y-142540102D01*
X90135756Y-142816594D01*
X90095249Y-143101216D01*
X90095227Y-143105505D01*
X90095226Y-143105512D01*
X90093765Y-143384417D01*
X90093743Y-143388703D01*
X31697867Y-143388703D01*
X31699235Y-143127583D01*
X31699235Y-143127576D01*
X31699257Y-143123297D01*
X31661732Y-142838266D01*
X31585871Y-142560964D01*
X31473077Y-142296524D01*
X31325439Y-142049839D01*
X31145687Y-141825472D01*
X30937149Y-141627577D01*
X30703683Y-141459814D01*
X30681843Y-141448250D01*
X30658654Y-141435972D01*
X30449608Y-141325288D01*
X30179627Y-141226489D01*
X29898736Y-141165245D01*
X29867685Y-141162801D01*
X29675718Y-141147693D01*
X29675709Y-141147693D01*
X29673261Y-141147500D01*
X26217729Y-141147500D01*
X26215593Y-141147646D01*
X26215582Y-141147646D01*
X26007452Y-141161835D01*
X26007446Y-141161836D01*
X26003175Y-141162127D01*
X25998980Y-141162996D01*
X25998978Y-141162996D01*
X25862416Y-141191277D01*
X25721658Y-141220426D01*
X25450657Y-141316393D01*
X25195188Y-141448250D01*
X25191687Y-141450711D01*
X25191683Y-141450713D01*
X25181594Y-141457804D01*
X24959977Y-141613559D01*
X24749378Y-141809260D01*
X24567287Y-142031732D01*
X24417073Y-142276858D01*
X24301517Y-142540102D01*
X24222756Y-142816594D01*
X24182249Y-143101216D01*
X24182227Y-143105505D01*
X24182226Y-143105512D01*
X24180765Y-143384417D01*
X24180743Y-143388703D01*
X20955500Y-143388703D01*
X20955500Y-128778000D01*
X23464411Y-128778000D01*
X23484754Y-129166176D01*
X23485267Y-129169416D01*
X23485268Y-129169424D01*
X23495326Y-129232924D01*
X23545562Y-129550099D01*
X23646167Y-129925562D01*
X23647352Y-129928650D01*
X23647353Y-129928652D01*
X23700634Y-130067453D01*
X23785468Y-130288453D01*
X23961938Y-130634794D01*
X24173643Y-130960793D01*
X24418266Y-131262876D01*
X24693124Y-131537734D01*
X24695682Y-131539806D01*
X24695686Y-131539809D01*
X24774102Y-131603309D01*
X24995207Y-131782357D01*
X25321206Y-131994062D01*
X25324140Y-131995557D01*
X25324147Y-131995561D01*
X25445831Y-132057562D01*
X25667547Y-132170532D01*
X26030438Y-132309833D01*
X26405901Y-132410438D01*
X26609793Y-132442732D01*
X26786576Y-132470732D01*
X26786584Y-132470733D01*
X26789824Y-132471246D01*
X27080894Y-132486500D01*
X27275106Y-132486500D01*
X27566176Y-132471246D01*
X27569416Y-132470733D01*
X27569424Y-132470732D01*
X27746207Y-132442732D01*
X27950099Y-132410438D01*
X28325562Y-132309833D01*
X28688453Y-132170532D01*
X28910169Y-132057562D01*
X29031853Y-131995561D01*
X29031860Y-131995557D01*
X29034794Y-131994062D01*
X29360793Y-131782357D01*
X29581898Y-131603309D01*
X29660314Y-131539809D01*
X29660318Y-131539806D01*
X29662876Y-131537734D01*
X29937734Y-131262876D01*
X30182357Y-130960793D01*
X30352825Y-130698295D01*
X30392264Y-130637564D01*
X30392266Y-130637561D01*
X30394062Y-130634795D01*
X30395562Y-130631853D01*
X30569034Y-130291393D01*
X30570532Y-130288453D01*
X30655366Y-130067453D01*
X30708647Y-129928652D01*
X30708648Y-129928650D01*
X30709833Y-129925562D01*
X30810438Y-129550099D01*
X30860674Y-129232924D01*
X30870732Y-129169424D01*
X30870733Y-129169416D01*
X30871246Y-129166176D01*
X30888261Y-128841500D01*
X36862911Y-128841500D01*
X36883254Y-129229676D01*
X36944062Y-129613599D01*
X37044667Y-129989062D01*
X37183968Y-130351953D01*
X37185466Y-130354893D01*
X37328084Y-130634795D01*
X37360438Y-130698294D01*
X37572143Y-131024293D01*
X37574218Y-131026855D01*
X37765345Y-131262876D01*
X37816766Y-131326376D01*
X38091624Y-131601234D01*
X38393707Y-131845857D01*
X38719706Y-132057562D01*
X38722640Y-132059057D01*
X38722647Y-132059061D01*
X38943745Y-132171716D01*
X39066047Y-132234032D01*
X39428938Y-132373333D01*
X39804401Y-132473938D01*
X40008293Y-132506232D01*
X40185076Y-132534232D01*
X40185084Y-132534233D01*
X40188324Y-132534746D01*
X40479394Y-132550000D01*
X40673606Y-132550000D01*
X40964676Y-132534746D01*
X40967916Y-132534233D01*
X40967924Y-132534232D01*
X41144707Y-132506232D01*
X41348599Y-132473938D01*
X41724062Y-132373333D01*
X42086953Y-132234032D01*
X42209255Y-132171716D01*
X42430353Y-132059061D01*
X42430360Y-132059057D01*
X42433294Y-132057562D01*
X42759293Y-131845857D01*
X43061376Y-131601234D01*
X43336234Y-131326376D01*
X43387656Y-131262876D01*
X43578782Y-131026855D01*
X43580857Y-131024293D01*
X43582652Y-131021529D01*
X43790764Y-130701064D01*
X43790766Y-130701061D01*
X43792562Y-130698295D01*
X43794062Y-130695353D01*
X43967534Y-130354893D01*
X43969032Y-130351953D01*
X44108333Y-129989062D01*
X44208938Y-129613599D01*
X44269746Y-129229676D01*
X44290089Y-128841500D01*
X44286761Y-128778000D01*
X50388411Y-128778000D01*
X50408754Y-129166176D01*
X50409267Y-129169416D01*
X50409268Y-129169424D01*
X50419326Y-129232924D01*
X50469562Y-129550099D01*
X50570167Y-129925562D01*
X50571352Y-129928650D01*
X50571353Y-129928652D01*
X50624634Y-130067453D01*
X50709468Y-130288453D01*
X50885938Y-130634794D01*
X51097643Y-130960793D01*
X51342266Y-131262876D01*
X51617124Y-131537734D01*
X51619682Y-131539806D01*
X51619686Y-131539809D01*
X51698102Y-131603309D01*
X51919207Y-131782357D01*
X52245206Y-131994062D01*
X52248140Y-131995557D01*
X52248147Y-131995561D01*
X52369831Y-132057562D01*
X52591547Y-132170532D01*
X52954438Y-132309833D01*
X53329901Y-132410438D01*
X53533793Y-132442732D01*
X53710576Y-132470732D01*
X53710584Y-132470733D01*
X53713824Y-132471246D01*
X54004894Y-132486500D01*
X54199106Y-132486500D01*
X54490176Y-132471246D01*
X54493416Y-132470733D01*
X54493424Y-132470732D01*
X54670207Y-132442732D01*
X54874099Y-132410438D01*
X55249562Y-132309833D01*
X55612453Y-132170532D01*
X55834169Y-132057562D01*
X55955853Y-131995561D01*
X55955860Y-131995557D01*
X55958794Y-131994062D01*
X56284793Y-131782357D01*
X56505898Y-131603309D01*
X56584314Y-131539809D01*
X56584318Y-131539806D01*
X56586876Y-131537734D01*
X56861734Y-131262876D01*
X57106357Y-130960793D01*
X57276825Y-130698295D01*
X57316264Y-130637564D01*
X57316266Y-130637561D01*
X57318062Y-130634795D01*
X57319562Y-130631853D01*
X57493034Y-130291393D01*
X57494532Y-130288453D01*
X57579366Y-130067453D01*
X57632647Y-129928652D01*
X57632648Y-129928650D01*
X57633833Y-129925562D01*
X57734438Y-129550099D01*
X57784674Y-129232924D01*
X57794732Y-129169424D01*
X57794733Y-129169416D01*
X57795246Y-129166176D01*
X57815589Y-128778000D01*
X63850411Y-128778000D01*
X63870754Y-129166176D01*
X63871267Y-129169416D01*
X63871268Y-129169424D01*
X63881326Y-129232924D01*
X63931562Y-129550099D01*
X64032167Y-129925562D01*
X64033352Y-129928650D01*
X64033353Y-129928652D01*
X64086634Y-130067453D01*
X64171468Y-130288453D01*
X64347938Y-130634794D01*
X64559643Y-130960793D01*
X64804266Y-131262876D01*
X65079124Y-131537734D01*
X65081682Y-131539806D01*
X65081686Y-131539809D01*
X65160102Y-131603309D01*
X65381207Y-131782357D01*
X65707206Y-131994062D01*
X65710140Y-131995557D01*
X65710147Y-131995561D01*
X65831831Y-132057562D01*
X66053547Y-132170532D01*
X66416438Y-132309833D01*
X66791901Y-132410438D01*
X66995793Y-132442732D01*
X67172576Y-132470732D01*
X67172584Y-132470733D01*
X67175824Y-132471246D01*
X67466894Y-132486500D01*
X67661106Y-132486500D01*
X67952176Y-132471246D01*
X67955416Y-132470733D01*
X67955424Y-132470732D01*
X68132207Y-132442732D01*
X68336099Y-132410438D01*
X68711562Y-132309833D01*
X69074453Y-132170532D01*
X69296169Y-132057562D01*
X69417853Y-131995561D01*
X69417860Y-131995557D01*
X69420794Y-131994062D01*
X69746793Y-131782357D01*
X69967898Y-131603309D01*
X70046314Y-131539809D01*
X70046318Y-131539806D01*
X70048876Y-131537734D01*
X70323734Y-131262876D01*
X70568357Y-130960793D01*
X70738825Y-130698295D01*
X70778264Y-130637564D01*
X70778266Y-130637561D01*
X70780062Y-130634795D01*
X70781562Y-130631853D01*
X70955034Y-130291393D01*
X70956532Y-130288453D01*
X71041366Y-130067453D01*
X71094647Y-129928652D01*
X71094648Y-129928650D01*
X71095833Y-129925562D01*
X71196438Y-129550099D01*
X71246674Y-129232924D01*
X71256732Y-129169424D01*
X71256733Y-129169416D01*
X71257246Y-129166176D01*
X71277589Y-128778000D01*
X77312411Y-128778000D01*
X77332754Y-129166176D01*
X77333267Y-129169416D01*
X77333268Y-129169424D01*
X77343326Y-129232924D01*
X77393562Y-129550099D01*
X77494167Y-129925562D01*
X77495352Y-129928650D01*
X77495353Y-129928652D01*
X77548634Y-130067453D01*
X77633468Y-130288453D01*
X77809938Y-130634794D01*
X78021643Y-130960793D01*
X78266266Y-131262876D01*
X78541124Y-131537734D01*
X78543682Y-131539806D01*
X78543686Y-131539809D01*
X78622102Y-131603309D01*
X78843207Y-131782357D01*
X79169206Y-131994062D01*
X79172140Y-131995557D01*
X79172147Y-131995561D01*
X79293831Y-132057562D01*
X79515547Y-132170532D01*
X79878438Y-132309833D01*
X80253901Y-132410438D01*
X80457793Y-132442732D01*
X80634576Y-132470732D01*
X80634584Y-132470733D01*
X80637824Y-132471246D01*
X80928894Y-132486500D01*
X81123106Y-132486500D01*
X81414176Y-132471246D01*
X81417416Y-132470733D01*
X81417424Y-132470732D01*
X81594207Y-132442732D01*
X81798099Y-132410438D01*
X82173562Y-132309833D01*
X82536453Y-132170532D01*
X82758169Y-132057562D01*
X82879853Y-131995561D01*
X82879860Y-131995557D01*
X82882794Y-131994062D01*
X83208793Y-131782357D01*
X83429898Y-131603309D01*
X83508314Y-131539809D01*
X83508318Y-131539806D01*
X83510876Y-131537734D01*
X83785734Y-131262876D01*
X84030357Y-130960793D01*
X84200825Y-130698295D01*
X84240264Y-130637564D01*
X84240266Y-130637561D01*
X84242062Y-130634795D01*
X84243562Y-130631853D01*
X84417034Y-130291393D01*
X84418532Y-130288453D01*
X84503366Y-130067453D01*
X84556647Y-129928652D01*
X84556648Y-129928650D01*
X84557833Y-129925562D01*
X84658438Y-129550099D01*
X84708674Y-129232924D01*
X84718732Y-129169424D01*
X84718733Y-129169416D01*
X84719246Y-129166176D01*
X84739589Y-128778000D01*
X90774411Y-128778000D01*
X90794754Y-129166176D01*
X90795267Y-129169416D01*
X90795268Y-129169424D01*
X90805326Y-129232924D01*
X90855562Y-129550099D01*
X90956167Y-129925562D01*
X90957352Y-129928650D01*
X90957353Y-129928652D01*
X91010634Y-130067453D01*
X91095468Y-130288453D01*
X91271938Y-130634794D01*
X91483643Y-130960793D01*
X91728266Y-131262876D01*
X92003124Y-131537734D01*
X92005682Y-131539806D01*
X92005686Y-131539809D01*
X92084102Y-131603309D01*
X92305207Y-131782357D01*
X92631206Y-131994062D01*
X92634140Y-131995557D01*
X92634147Y-131995561D01*
X92755831Y-132057562D01*
X92977547Y-132170532D01*
X93340438Y-132309833D01*
X93715901Y-132410438D01*
X93919793Y-132442732D01*
X94096576Y-132470732D01*
X94096584Y-132470733D01*
X94099824Y-132471246D01*
X94390894Y-132486500D01*
X94585106Y-132486500D01*
X94876176Y-132471246D01*
X94879416Y-132470733D01*
X94879424Y-132470732D01*
X95056207Y-132442732D01*
X95260099Y-132410438D01*
X95635562Y-132309833D01*
X95998453Y-132170532D01*
X96220169Y-132057562D01*
X96341853Y-131995561D01*
X96341860Y-131995557D01*
X96344794Y-131994062D01*
X96670793Y-131782357D01*
X96891898Y-131603309D01*
X96970314Y-131539809D01*
X96970318Y-131539806D01*
X96972876Y-131537734D01*
X97247734Y-131262876D01*
X97492357Y-130960793D01*
X97662825Y-130698295D01*
X97702264Y-130637564D01*
X97702266Y-130637561D01*
X97704062Y-130634795D01*
X97705562Y-130631853D01*
X97879034Y-130291393D01*
X97880532Y-130288453D01*
X97965366Y-130067453D01*
X98018647Y-129928652D01*
X98018648Y-129928650D01*
X98019833Y-129925562D01*
X98120438Y-129550099D01*
X98170674Y-129232924D01*
X98180732Y-129169424D01*
X98180733Y-129169416D01*
X98181246Y-129166176D01*
X98201589Y-128778000D01*
X98181246Y-128389824D01*
X98120438Y-128005901D01*
X98019833Y-127630438D01*
X97880532Y-127267547D01*
X97879034Y-127264607D01*
X97705561Y-126924147D01*
X97705557Y-126924140D01*
X97704062Y-126921206D01*
X97492357Y-126595207D01*
X97301230Y-126359186D01*
X97249809Y-126295686D01*
X97249806Y-126295682D01*
X97247734Y-126293124D01*
X96972876Y-126018266D01*
X96670793Y-125773643D01*
X96344794Y-125561938D01*
X96341860Y-125560443D01*
X96341853Y-125560439D01*
X96001393Y-125386966D01*
X95998453Y-125385468D01*
X95635562Y-125246167D01*
X95260099Y-125145562D01*
X95056207Y-125113268D01*
X94879424Y-125085268D01*
X94879416Y-125085267D01*
X94876176Y-125084754D01*
X94585106Y-125069500D01*
X94390894Y-125069500D01*
X94099824Y-125084754D01*
X94096584Y-125085267D01*
X94096576Y-125085268D01*
X93919793Y-125113268D01*
X93715901Y-125145562D01*
X93340438Y-125246167D01*
X92977547Y-125385468D01*
X92974607Y-125386966D01*
X92634147Y-125560439D01*
X92634140Y-125560443D01*
X92631206Y-125561938D01*
X92305207Y-125773643D01*
X92003124Y-126018266D01*
X91728266Y-126293124D01*
X91726194Y-126295682D01*
X91726191Y-126295686D01*
X91674770Y-126359186D01*
X91483643Y-126595207D01*
X91481848Y-126597970D01*
X91481848Y-126597971D01*
X91273736Y-126918436D01*
X91273734Y-126918439D01*
X91271938Y-126921205D01*
X91270443Y-126924139D01*
X91270439Y-126924146D01*
X91238084Y-126987647D01*
X91095468Y-127267547D01*
X90956167Y-127630438D01*
X90855562Y-128005901D01*
X90794754Y-128389824D01*
X90774411Y-128778000D01*
X84739589Y-128778000D01*
X84719246Y-128389824D01*
X84658438Y-128005901D01*
X84557833Y-127630438D01*
X84418532Y-127267547D01*
X84417034Y-127264607D01*
X84243561Y-126924147D01*
X84243557Y-126924140D01*
X84242062Y-126921206D01*
X84030357Y-126595207D01*
X83839230Y-126359186D01*
X83787809Y-126295686D01*
X83787806Y-126295682D01*
X83785734Y-126293124D01*
X83510876Y-126018266D01*
X83208793Y-125773643D01*
X82882794Y-125561938D01*
X82879860Y-125560443D01*
X82879853Y-125560439D01*
X82539393Y-125386966D01*
X82536453Y-125385468D01*
X82173562Y-125246167D01*
X81798099Y-125145562D01*
X81594207Y-125113268D01*
X81417424Y-125085268D01*
X81417416Y-125085267D01*
X81414176Y-125084754D01*
X81123106Y-125069500D01*
X80928894Y-125069500D01*
X80637824Y-125084754D01*
X80634584Y-125085267D01*
X80634576Y-125085268D01*
X80457793Y-125113268D01*
X80253901Y-125145562D01*
X79878438Y-125246167D01*
X79515547Y-125385468D01*
X79512607Y-125386966D01*
X79172147Y-125560439D01*
X79172140Y-125560443D01*
X79169206Y-125561938D01*
X78843207Y-125773643D01*
X78541124Y-126018266D01*
X78266266Y-126293124D01*
X78264194Y-126295682D01*
X78264191Y-126295686D01*
X78212770Y-126359186D01*
X78021643Y-126595207D01*
X78019848Y-126597970D01*
X78019848Y-126597971D01*
X77811736Y-126918436D01*
X77811734Y-126918439D01*
X77809938Y-126921205D01*
X77808443Y-126924139D01*
X77808439Y-126924146D01*
X77776084Y-126987647D01*
X77633468Y-127267547D01*
X77494167Y-127630438D01*
X77393562Y-128005901D01*
X77332754Y-128389824D01*
X77312411Y-128778000D01*
X71277589Y-128778000D01*
X71257246Y-128389824D01*
X71196438Y-128005901D01*
X71095833Y-127630438D01*
X70956532Y-127267547D01*
X70955034Y-127264607D01*
X70781561Y-126924147D01*
X70781557Y-126924140D01*
X70780062Y-126921206D01*
X70568357Y-126595207D01*
X70377230Y-126359186D01*
X70325809Y-126295686D01*
X70325806Y-126295682D01*
X70323734Y-126293124D01*
X70048876Y-126018266D01*
X69746793Y-125773643D01*
X69420794Y-125561938D01*
X69417860Y-125560443D01*
X69417853Y-125560439D01*
X69077393Y-125386966D01*
X69074453Y-125385468D01*
X68711562Y-125246167D01*
X68336099Y-125145562D01*
X68132207Y-125113268D01*
X67955424Y-125085268D01*
X67955416Y-125085267D01*
X67952176Y-125084754D01*
X67661106Y-125069500D01*
X67466894Y-125069500D01*
X67175824Y-125084754D01*
X67172584Y-125085267D01*
X67172576Y-125085268D01*
X66995793Y-125113268D01*
X66791901Y-125145562D01*
X66416438Y-125246167D01*
X66053547Y-125385468D01*
X66050607Y-125386966D01*
X65710147Y-125560439D01*
X65710140Y-125560443D01*
X65707206Y-125561938D01*
X65381207Y-125773643D01*
X65079124Y-126018266D01*
X64804266Y-126293124D01*
X64802194Y-126295682D01*
X64802191Y-126295686D01*
X64750770Y-126359186D01*
X64559643Y-126595207D01*
X64557848Y-126597970D01*
X64557848Y-126597971D01*
X64349736Y-126918436D01*
X64349734Y-126918439D01*
X64347938Y-126921205D01*
X64346443Y-126924139D01*
X64346439Y-126924146D01*
X64314084Y-126987647D01*
X64171468Y-127267547D01*
X64032167Y-127630438D01*
X63931562Y-128005901D01*
X63870754Y-128389824D01*
X63850411Y-128778000D01*
X57815589Y-128778000D01*
X57795246Y-128389824D01*
X57734438Y-128005901D01*
X57633833Y-127630438D01*
X57494532Y-127267547D01*
X57493034Y-127264607D01*
X57319561Y-126924147D01*
X57319557Y-126924140D01*
X57318062Y-126921206D01*
X57106357Y-126595207D01*
X56915230Y-126359186D01*
X56863809Y-126295686D01*
X56863806Y-126295682D01*
X56861734Y-126293124D01*
X56586876Y-126018266D01*
X56284793Y-125773643D01*
X55958794Y-125561938D01*
X55955860Y-125560443D01*
X55955853Y-125560439D01*
X55615393Y-125386966D01*
X55612453Y-125385468D01*
X55249562Y-125246167D01*
X54874099Y-125145562D01*
X54670207Y-125113268D01*
X54493424Y-125085268D01*
X54493416Y-125085267D01*
X54490176Y-125084754D01*
X54199106Y-125069500D01*
X54004894Y-125069500D01*
X53713824Y-125084754D01*
X53710584Y-125085267D01*
X53710576Y-125085268D01*
X53533793Y-125113268D01*
X53329901Y-125145562D01*
X52954438Y-125246167D01*
X52591547Y-125385468D01*
X52588607Y-125386966D01*
X52248147Y-125560439D01*
X52248140Y-125560443D01*
X52245206Y-125561938D01*
X51919207Y-125773643D01*
X51617124Y-126018266D01*
X51342266Y-126293124D01*
X51340194Y-126295682D01*
X51340191Y-126295686D01*
X51288770Y-126359186D01*
X51097643Y-126595207D01*
X51095848Y-126597970D01*
X51095848Y-126597971D01*
X50887736Y-126918436D01*
X50887734Y-126918439D01*
X50885938Y-126921205D01*
X50884443Y-126924139D01*
X50884439Y-126924146D01*
X50852084Y-126987647D01*
X50709468Y-127267547D01*
X50570167Y-127630438D01*
X50469562Y-128005901D01*
X50408754Y-128389824D01*
X50388411Y-128778000D01*
X44286761Y-128778000D01*
X44269746Y-128453324D01*
X44259689Y-128389824D01*
X44209454Y-128072662D01*
X44208938Y-128069401D01*
X44108333Y-127693938D01*
X44082772Y-127627348D01*
X43970216Y-127334132D01*
X43969032Y-127331047D01*
X43792562Y-126984706D01*
X43580857Y-126658707D01*
X43336234Y-126356624D01*
X43061376Y-126081766D01*
X42985847Y-126020603D01*
X42761855Y-125839218D01*
X42759293Y-125837143D01*
X42433294Y-125625438D01*
X42430360Y-125623943D01*
X42430353Y-125623939D01*
X42089893Y-125450466D01*
X42086953Y-125448968D01*
X41724062Y-125309667D01*
X41348599Y-125209062D01*
X41144707Y-125176768D01*
X40967924Y-125148768D01*
X40967916Y-125148767D01*
X40964676Y-125148254D01*
X40673606Y-125133000D01*
X40479394Y-125133000D01*
X40188324Y-125148254D01*
X40185084Y-125148767D01*
X40185076Y-125148768D01*
X40008293Y-125176768D01*
X39804401Y-125209062D01*
X39428938Y-125309667D01*
X39066047Y-125448968D01*
X39063107Y-125450466D01*
X38722647Y-125623939D01*
X38722640Y-125623943D01*
X38719706Y-125625438D01*
X38393707Y-125837143D01*
X38391145Y-125839218D01*
X38167154Y-126020603D01*
X38091624Y-126081766D01*
X37816766Y-126356624D01*
X37572143Y-126658707D01*
X37570348Y-126661470D01*
X37570348Y-126661471D01*
X37362236Y-126981936D01*
X37362234Y-126981939D01*
X37360438Y-126984705D01*
X37358943Y-126987639D01*
X37358939Y-126987646D01*
X37217821Y-127264607D01*
X37183968Y-127331047D01*
X37182784Y-127334132D01*
X37070229Y-127627348D01*
X37044667Y-127693938D01*
X36944062Y-128069401D01*
X36943546Y-128072662D01*
X36893312Y-128389824D01*
X36883254Y-128453324D01*
X36862911Y-128841500D01*
X30888261Y-128841500D01*
X30891589Y-128778000D01*
X30871246Y-128389824D01*
X30810438Y-128005901D01*
X30709833Y-127630438D01*
X30570532Y-127267547D01*
X30569034Y-127264607D01*
X30395561Y-126924147D01*
X30395557Y-126924140D01*
X30394062Y-126921206D01*
X30182357Y-126595207D01*
X29991230Y-126359186D01*
X29939809Y-126295686D01*
X29939806Y-126295682D01*
X29937734Y-126293124D01*
X29662876Y-126018266D01*
X29360793Y-125773643D01*
X29034794Y-125561938D01*
X29031860Y-125560443D01*
X29031853Y-125560439D01*
X28691393Y-125386966D01*
X28688453Y-125385468D01*
X28325562Y-125246167D01*
X27950099Y-125145562D01*
X27746207Y-125113268D01*
X27569424Y-125085268D01*
X27569416Y-125085267D01*
X27566176Y-125084754D01*
X27275106Y-125069500D01*
X27080894Y-125069500D01*
X26789824Y-125084754D01*
X26786584Y-125085267D01*
X26786576Y-125085268D01*
X26609793Y-125113268D01*
X26405901Y-125145562D01*
X26030438Y-125246167D01*
X25667547Y-125385468D01*
X25664607Y-125386966D01*
X25324147Y-125560439D01*
X25324140Y-125560443D01*
X25321206Y-125561938D01*
X24995207Y-125773643D01*
X24693124Y-126018266D01*
X24418266Y-126293124D01*
X24416194Y-126295682D01*
X24416191Y-126295686D01*
X24364770Y-126359186D01*
X24173643Y-126595207D01*
X24171848Y-126597970D01*
X24171848Y-126597971D01*
X23963736Y-126918436D01*
X23963734Y-126918439D01*
X23961938Y-126921205D01*
X23960443Y-126924139D01*
X23960439Y-126924146D01*
X23928084Y-126987647D01*
X23785468Y-127267547D01*
X23646167Y-127630438D01*
X23545562Y-128005901D01*
X23484754Y-128389824D01*
X23464411Y-128778000D01*
X20955500Y-128778000D01*
X20955500Y-113538000D01*
X23464411Y-113538000D01*
X23484754Y-113926176D01*
X23485267Y-113929416D01*
X23485268Y-113929424D01*
X23495326Y-113992924D01*
X23545562Y-114310099D01*
X23646167Y-114685562D01*
X23647352Y-114688650D01*
X23647353Y-114688652D01*
X23700634Y-114827453D01*
X23785468Y-115048453D01*
X23961938Y-115394794D01*
X24173643Y-115720793D01*
X24418266Y-116022876D01*
X24693124Y-116297734D01*
X24695682Y-116299806D01*
X24695686Y-116299809D01*
X24774102Y-116363309D01*
X24995207Y-116542357D01*
X25321206Y-116754062D01*
X25324140Y-116755557D01*
X25324147Y-116755561D01*
X25445831Y-116817562D01*
X25667547Y-116930532D01*
X26030438Y-117069833D01*
X26405901Y-117170438D01*
X26609793Y-117202732D01*
X26786576Y-117230732D01*
X26786584Y-117230733D01*
X26789824Y-117231246D01*
X27080894Y-117246500D01*
X27275106Y-117246500D01*
X27566176Y-117231246D01*
X27569416Y-117230733D01*
X27569424Y-117230732D01*
X27746207Y-117202732D01*
X27950099Y-117170438D01*
X28325562Y-117069833D01*
X28688453Y-116930532D01*
X28910169Y-116817562D01*
X29031853Y-116755561D01*
X29031860Y-116755557D01*
X29034794Y-116754062D01*
X29360793Y-116542357D01*
X29581898Y-116363309D01*
X29660314Y-116299809D01*
X29660318Y-116299806D01*
X29662876Y-116297734D01*
X29937734Y-116022876D01*
X30182357Y-115720793D01*
X30352825Y-115458295D01*
X30392264Y-115397564D01*
X30392266Y-115397561D01*
X30394062Y-115394795D01*
X30395562Y-115391853D01*
X30569034Y-115051393D01*
X30570532Y-115048453D01*
X30655366Y-114827453D01*
X30708647Y-114688652D01*
X30708648Y-114688650D01*
X30709833Y-114685562D01*
X30810438Y-114310099D01*
X30860674Y-113992924D01*
X30870732Y-113929424D01*
X30870733Y-113929416D01*
X30871246Y-113926176D01*
X30891589Y-113538000D01*
X36926411Y-113538000D01*
X36946754Y-113926176D01*
X36947267Y-113929416D01*
X36947268Y-113929424D01*
X36957326Y-113992924D01*
X37007562Y-114310099D01*
X37108167Y-114685562D01*
X37109352Y-114688650D01*
X37109353Y-114688652D01*
X37162634Y-114827453D01*
X37247468Y-115048453D01*
X37423938Y-115394794D01*
X37635643Y-115720793D01*
X37880266Y-116022876D01*
X38155124Y-116297734D01*
X38157682Y-116299806D01*
X38157686Y-116299809D01*
X38236102Y-116363309D01*
X38457207Y-116542357D01*
X38783206Y-116754062D01*
X38786140Y-116755557D01*
X38786147Y-116755561D01*
X38907831Y-116817562D01*
X39129547Y-116930532D01*
X39492438Y-117069833D01*
X39867901Y-117170438D01*
X40071793Y-117202732D01*
X40248576Y-117230732D01*
X40248584Y-117230733D01*
X40251824Y-117231246D01*
X40542894Y-117246500D01*
X40737106Y-117246500D01*
X41028176Y-117231246D01*
X41031416Y-117230733D01*
X41031424Y-117230732D01*
X41208207Y-117202732D01*
X41412099Y-117170438D01*
X41787562Y-117069833D01*
X42150453Y-116930532D01*
X42372169Y-116817562D01*
X42493853Y-116755561D01*
X42493860Y-116755557D01*
X42496794Y-116754062D01*
X42822793Y-116542357D01*
X43043898Y-116363309D01*
X43122314Y-116299809D01*
X43122318Y-116299806D01*
X43124876Y-116297734D01*
X43399734Y-116022876D01*
X43644357Y-115720793D01*
X43814825Y-115458295D01*
X43854264Y-115397564D01*
X43854266Y-115397561D01*
X43856062Y-115394795D01*
X43857562Y-115391853D01*
X44031034Y-115051393D01*
X44032532Y-115048453D01*
X44117366Y-114827453D01*
X44170647Y-114688652D01*
X44170648Y-114688650D01*
X44171833Y-114685562D01*
X44272438Y-114310099D01*
X44322674Y-113992924D01*
X44332732Y-113929424D01*
X44332733Y-113929416D01*
X44333246Y-113926176D01*
X44353589Y-113538000D01*
X50388411Y-113538000D01*
X50408754Y-113926176D01*
X50409267Y-113929416D01*
X50409268Y-113929424D01*
X50419326Y-113992924D01*
X50469562Y-114310099D01*
X50570167Y-114685562D01*
X50571352Y-114688650D01*
X50571353Y-114688652D01*
X50624634Y-114827453D01*
X50709468Y-115048453D01*
X50885938Y-115394794D01*
X51097643Y-115720793D01*
X51342266Y-116022876D01*
X51617124Y-116297734D01*
X51619682Y-116299806D01*
X51619686Y-116299809D01*
X51698102Y-116363309D01*
X51919207Y-116542357D01*
X52245206Y-116754062D01*
X52248140Y-116755557D01*
X52248147Y-116755561D01*
X52369831Y-116817562D01*
X52591547Y-116930532D01*
X52954438Y-117069833D01*
X53329901Y-117170438D01*
X53533793Y-117202732D01*
X53710576Y-117230732D01*
X53710584Y-117230733D01*
X53713824Y-117231246D01*
X54004894Y-117246500D01*
X54199106Y-117246500D01*
X54490176Y-117231246D01*
X54493416Y-117230733D01*
X54493424Y-117230732D01*
X54670207Y-117202732D01*
X54874099Y-117170438D01*
X55249562Y-117069833D01*
X55612453Y-116930532D01*
X55834169Y-116817562D01*
X55955853Y-116755561D01*
X55955860Y-116755557D01*
X55958794Y-116754062D01*
X56284793Y-116542357D01*
X56505898Y-116363309D01*
X56584314Y-116299809D01*
X56584318Y-116299806D01*
X56586876Y-116297734D01*
X56861734Y-116022876D01*
X57106357Y-115720793D01*
X57276825Y-115458295D01*
X57316264Y-115397564D01*
X57316266Y-115397561D01*
X57318062Y-115394795D01*
X57319562Y-115391853D01*
X57493034Y-115051393D01*
X57494532Y-115048453D01*
X57579366Y-114827453D01*
X57632647Y-114688652D01*
X57632648Y-114688650D01*
X57633833Y-114685562D01*
X57734438Y-114310099D01*
X57784674Y-113992924D01*
X57794732Y-113929424D01*
X57794733Y-113929416D01*
X57795246Y-113926176D01*
X57815589Y-113538000D01*
X63850411Y-113538000D01*
X63870754Y-113926176D01*
X63871267Y-113929416D01*
X63871268Y-113929424D01*
X63881326Y-113992924D01*
X63931562Y-114310099D01*
X64032167Y-114685562D01*
X64033352Y-114688650D01*
X64033353Y-114688652D01*
X64086634Y-114827453D01*
X64171468Y-115048453D01*
X64347938Y-115394794D01*
X64559643Y-115720793D01*
X64804266Y-116022876D01*
X65079124Y-116297734D01*
X65081682Y-116299806D01*
X65081686Y-116299809D01*
X65160102Y-116363309D01*
X65381207Y-116542357D01*
X65707206Y-116754062D01*
X65710140Y-116755557D01*
X65710147Y-116755561D01*
X65831831Y-116817562D01*
X66053547Y-116930532D01*
X66416438Y-117069833D01*
X66791901Y-117170438D01*
X66995793Y-117202732D01*
X67172576Y-117230732D01*
X67172584Y-117230733D01*
X67175824Y-117231246D01*
X67466894Y-117246500D01*
X67661106Y-117246500D01*
X67952176Y-117231246D01*
X67955416Y-117230733D01*
X67955424Y-117230732D01*
X68132207Y-117202732D01*
X68336099Y-117170438D01*
X68711562Y-117069833D01*
X69074453Y-116930532D01*
X69296169Y-116817562D01*
X69417853Y-116755561D01*
X69417860Y-116755557D01*
X69420794Y-116754062D01*
X69746793Y-116542357D01*
X69967898Y-116363309D01*
X70046314Y-116299809D01*
X70046318Y-116299806D01*
X70048876Y-116297734D01*
X70323734Y-116022876D01*
X70568357Y-115720793D01*
X70738825Y-115458295D01*
X70778264Y-115397564D01*
X70778266Y-115397561D01*
X70780062Y-115394795D01*
X70781562Y-115391853D01*
X70955034Y-115051393D01*
X70956532Y-115048453D01*
X71041366Y-114827453D01*
X71094647Y-114688652D01*
X71094648Y-114688650D01*
X71095833Y-114685562D01*
X71196438Y-114310099D01*
X71246674Y-113992924D01*
X71256732Y-113929424D01*
X71256733Y-113929416D01*
X71257246Y-113926176D01*
X71277589Y-113538000D01*
X77312411Y-113538000D01*
X77332754Y-113926176D01*
X77333267Y-113929416D01*
X77333268Y-113929424D01*
X77343326Y-113992924D01*
X77393562Y-114310099D01*
X77494167Y-114685562D01*
X77495352Y-114688650D01*
X77495353Y-114688652D01*
X77548634Y-114827453D01*
X77633468Y-115048453D01*
X77809938Y-115394794D01*
X78021643Y-115720793D01*
X78266266Y-116022876D01*
X78541124Y-116297734D01*
X78543682Y-116299806D01*
X78543686Y-116299809D01*
X78622102Y-116363309D01*
X78843207Y-116542357D01*
X79169206Y-116754062D01*
X79172140Y-116755557D01*
X79172147Y-116755561D01*
X79293831Y-116817562D01*
X79515547Y-116930532D01*
X79878438Y-117069833D01*
X80253901Y-117170438D01*
X80457793Y-117202732D01*
X80634576Y-117230732D01*
X80634584Y-117230733D01*
X80637824Y-117231246D01*
X80928894Y-117246500D01*
X81123106Y-117246500D01*
X81414176Y-117231246D01*
X81417416Y-117230733D01*
X81417424Y-117230732D01*
X81594207Y-117202732D01*
X81798099Y-117170438D01*
X82173562Y-117069833D01*
X82536453Y-116930532D01*
X82758169Y-116817562D01*
X82879853Y-116755561D01*
X82879860Y-116755557D01*
X82882794Y-116754062D01*
X83208793Y-116542357D01*
X83429898Y-116363309D01*
X83508314Y-116299809D01*
X83508318Y-116299806D01*
X83510876Y-116297734D01*
X83785734Y-116022876D01*
X84030357Y-115720793D01*
X84200825Y-115458295D01*
X84240264Y-115397564D01*
X84240266Y-115397561D01*
X84242062Y-115394795D01*
X84243562Y-115391853D01*
X84417034Y-115051393D01*
X84418532Y-115048453D01*
X84503366Y-114827453D01*
X84556647Y-114688652D01*
X84556648Y-114688650D01*
X84557833Y-114685562D01*
X84658438Y-114310099D01*
X84708674Y-113992924D01*
X84718732Y-113929424D01*
X84718733Y-113929416D01*
X84719246Y-113926176D01*
X84736261Y-113601500D01*
X90774411Y-113601500D01*
X90794754Y-113989676D01*
X90855562Y-114373599D01*
X90956167Y-114749062D01*
X91095468Y-115111953D01*
X91096966Y-115114893D01*
X91239584Y-115394795D01*
X91271938Y-115458294D01*
X91483643Y-115784293D01*
X91485718Y-115786855D01*
X91676845Y-116022876D01*
X91728266Y-116086376D01*
X92003124Y-116361234D01*
X92305207Y-116605857D01*
X92631206Y-116817562D01*
X92634140Y-116819057D01*
X92634147Y-116819061D01*
X92855245Y-116931716D01*
X92977547Y-116994032D01*
X93340438Y-117133333D01*
X93715901Y-117233938D01*
X93919793Y-117266232D01*
X94096576Y-117294232D01*
X94096584Y-117294233D01*
X94099824Y-117294746D01*
X94390894Y-117310000D01*
X94585106Y-117310000D01*
X94876176Y-117294746D01*
X94879416Y-117294233D01*
X94879424Y-117294232D01*
X95056207Y-117266232D01*
X95260099Y-117233938D01*
X95635562Y-117133333D01*
X95998453Y-116994032D01*
X96120755Y-116931716D01*
X96341853Y-116819061D01*
X96341860Y-116819057D01*
X96344794Y-116817562D01*
X96670793Y-116605857D01*
X96972876Y-116361234D01*
X97247734Y-116086376D01*
X97299156Y-116022876D01*
X97490282Y-115786855D01*
X97492357Y-115784293D01*
X97494152Y-115781529D01*
X97702264Y-115461064D01*
X97702266Y-115461061D01*
X97704062Y-115458295D01*
X97705562Y-115455353D01*
X97879034Y-115114893D01*
X97880532Y-115111953D01*
X98019833Y-114749062D01*
X98120438Y-114373599D01*
X98181246Y-113989676D01*
X98201589Y-113601500D01*
X98181246Y-113213324D01*
X98171189Y-113149824D01*
X98120954Y-112832662D01*
X98120438Y-112829401D01*
X98019833Y-112453938D01*
X97994272Y-112387348D01*
X97881716Y-112094132D01*
X97880532Y-112091047D01*
X97704062Y-111744706D01*
X97492357Y-111418707D01*
X97247734Y-111116624D01*
X96972876Y-110841766D01*
X96897347Y-110780603D01*
X96673355Y-110599218D01*
X96670793Y-110597143D01*
X96344794Y-110385438D01*
X96341860Y-110383943D01*
X96341853Y-110383939D01*
X96001393Y-110210466D01*
X95998453Y-110208968D01*
X95635562Y-110069667D01*
X95260099Y-109969062D01*
X95056207Y-109936768D01*
X94879424Y-109908768D01*
X94879416Y-109908767D01*
X94876176Y-109908254D01*
X94585106Y-109893000D01*
X94390894Y-109893000D01*
X94099824Y-109908254D01*
X94096584Y-109908767D01*
X94096576Y-109908768D01*
X93919793Y-109936768D01*
X93715901Y-109969062D01*
X93340438Y-110069667D01*
X92977547Y-110208968D01*
X92974607Y-110210466D01*
X92634147Y-110383939D01*
X92634140Y-110383943D01*
X92631206Y-110385438D01*
X92305207Y-110597143D01*
X92302645Y-110599218D01*
X92078654Y-110780603D01*
X92003124Y-110841766D01*
X91728266Y-111116624D01*
X91483643Y-111418707D01*
X91481848Y-111421470D01*
X91481848Y-111421471D01*
X91273736Y-111741936D01*
X91273734Y-111741939D01*
X91271938Y-111744705D01*
X91270443Y-111747639D01*
X91270439Y-111747646D01*
X91129321Y-112024607D01*
X91095468Y-112091047D01*
X91094284Y-112094132D01*
X90981729Y-112387348D01*
X90956167Y-112453938D01*
X90855562Y-112829401D01*
X90855046Y-112832662D01*
X90804812Y-113149824D01*
X90794754Y-113213324D01*
X90774411Y-113601500D01*
X84736261Y-113601500D01*
X84739589Y-113538000D01*
X84719246Y-113149824D01*
X84658438Y-112765901D01*
X84557833Y-112390438D01*
X84418532Y-112027547D01*
X84417034Y-112024607D01*
X84243561Y-111684147D01*
X84243557Y-111684140D01*
X84242062Y-111681206D01*
X84030357Y-111355207D01*
X83839230Y-111119186D01*
X83787809Y-111055686D01*
X83787806Y-111055682D01*
X83785734Y-111053124D01*
X83510876Y-110778266D01*
X83208793Y-110533643D01*
X82882794Y-110321938D01*
X82879860Y-110320443D01*
X82879853Y-110320439D01*
X82539393Y-110146966D01*
X82536453Y-110145468D01*
X82173562Y-110006167D01*
X81798099Y-109905562D01*
X81594207Y-109873268D01*
X81417424Y-109845268D01*
X81417416Y-109845267D01*
X81414176Y-109844754D01*
X81123106Y-109829500D01*
X80928894Y-109829500D01*
X80637824Y-109844754D01*
X80634584Y-109845267D01*
X80634576Y-109845268D01*
X80457793Y-109873268D01*
X80253901Y-109905562D01*
X79878438Y-110006167D01*
X79515547Y-110145468D01*
X79512607Y-110146966D01*
X79172147Y-110320439D01*
X79172140Y-110320443D01*
X79169206Y-110321938D01*
X78843207Y-110533643D01*
X78541124Y-110778266D01*
X78266266Y-111053124D01*
X78264194Y-111055682D01*
X78264191Y-111055686D01*
X78212770Y-111119186D01*
X78021643Y-111355207D01*
X78019848Y-111357970D01*
X78019848Y-111357971D01*
X77811736Y-111678436D01*
X77811734Y-111678439D01*
X77809938Y-111681205D01*
X77808443Y-111684139D01*
X77808439Y-111684146D01*
X77776084Y-111747647D01*
X77633468Y-112027547D01*
X77494167Y-112390438D01*
X77393562Y-112765901D01*
X77332754Y-113149824D01*
X77312411Y-113538000D01*
X71277589Y-113538000D01*
X71257246Y-113149824D01*
X71196438Y-112765901D01*
X71095833Y-112390438D01*
X70956532Y-112027547D01*
X70955034Y-112024607D01*
X70781561Y-111684147D01*
X70781557Y-111684140D01*
X70780062Y-111681206D01*
X70568357Y-111355207D01*
X70377230Y-111119186D01*
X70325809Y-111055686D01*
X70325806Y-111055682D01*
X70323734Y-111053124D01*
X70048876Y-110778266D01*
X69746793Y-110533643D01*
X69420794Y-110321938D01*
X69417860Y-110320443D01*
X69417853Y-110320439D01*
X69077393Y-110146966D01*
X69074453Y-110145468D01*
X68711562Y-110006167D01*
X68336099Y-109905562D01*
X68132207Y-109873268D01*
X67955424Y-109845268D01*
X67955416Y-109845267D01*
X67952176Y-109844754D01*
X67661106Y-109829500D01*
X67466894Y-109829500D01*
X67175824Y-109844754D01*
X67172584Y-109845267D01*
X67172576Y-109845268D01*
X66995793Y-109873268D01*
X66791901Y-109905562D01*
X66416438Y-110006167D01*
X66053547Y-110145468D01*
X66050607Y-110146966D01*
X65710147Y-110320439D01*
X65710140Y-110320443D01*
X65707206Y-110321938D01*
X65381207Y-110533643D01*
X65079124Y-110778266D01*
X64804266Y-111053124D01*
X64802194Y-111055682D01*
X64802191Y-111055686D01*
X64750770Y-111119186D01*
X64559643Y-111355207D01*
X64557848Y-111357970D01*
X64557848Y-111357971D01*
X64349736Y-111678436D01*
X64349734Y-111678439D01*
X64347938Y-111681205D01*
X64346443Y-111684139D01*
X64346439Y-111684146D01*
X64314084Y-111747647D01*
X64171468Y-112027547D01*
X64032167Y-112390438D01*
X63931562Y-112765901D01*
X63870754Y-113149824D01*
X63850411Y-113538000D01*
X57815589Y-113538000D01*
X57795246Y-113149824D01*
X57734438Y-112765901D01*
X57633833Y-112390438D01*
X57494532Y-112027547D01*
X57493034Y-112024607D01*
X57319561Y-111684147D01*
X57319557Y-111684140D01*
X57318062Y-111681206D01*
X57106357Y-111355207D01*
X56915230Y-111119186D01*
X56863809Y-111055686D01*
X56863806Y-111055682D01*
X56861734Y-111053124D01*
X56586876Y-110778266D01*
X56284793Y-110533643D01*
X55958794Y-110321938D01*
X55955860Y-110320443D01*
X55955853Y-110320439D01*
X55615393Y-110146966D01*
X55612453Y-110145468D01*
X55249562Y-110006167D01*
X54874099Y-109905562D01*
X54670207Y-109873268D01*
X54493424Y-109845268D01*
X54493416Y-109845267D01*
X54490176Y-109844754D01*
X54199106Y-109829500D01*
X54004894Y-109829500D01*
X53713824Y-109844754D01*
X53710584Y-109845267D01*
X53710576Y-109845268D01*
X53533793Y-109873268D01*
X53329901Y-109905562D01*
X52954438Y-110006167D01*
X52591547Y-110145468D01*
X52588607Y-110146966D01*
X52248147Y-110320439D01*
X52248140Y-110320443D01*
X52245206Y-110321938D01*
X51919207Y-110533643D01*
X51617124Y-110778266D01*
X51342266Y-111053124D01*
X51340194Y-111055682D01*
X51340191Y-111055686D01*
X51288770Y-111119186D01*
X51097643Y-111355207D01*
X51095848Y-111357970D01*
X51095848Y-111357971D01*
X50887736Y-111678436D01*
X50887734Y-111678439D01*
X50885938Y-111681205D01*
X50884443Y-111684139D01*
X50884439Y-111684146D01*
X50852084Y-111747647D01*
X50709468Y-112027547D01*
X50570167Y-112390438D01*
X50469562Y-112765901D01*
X50408754Y-113149824D01*
X50388411Y-113538000D01*
X44353589Y-113538000D01*
X44333246Y-113149824D01*
X44272438Y-112765901D01*
X44171833Y-112390438D01*
X44032532Y-112027547D01*
X44031034Y-112024607D01*
X43857561Y-111684147D01*
X43857557Y-111684140D01*
X43856062Y-111681206D01*
X43644357Y-111355207D01*
X43453230Y-111119186D01*
X43401809Y-111055686D01*
X43401806Y-111055682D01*
X43399734Y-111053124D01*
X43124876Y-110778266D01*
X42822793Y-110533643D01*
X42496794Y-110321938D01*
X42493860Y-110320443D01*
X42493853Y-110320439D01*
X42153393Y-110146966D01*
X42150453Y-110145468D01*
X41787562Y-110006167D01*
X41412099Y-109905562D01*
X41208207Y-109873268D01*
X41031424Y-109845268D01*
X41031416Y-109845267D01*
X41028176Y-109844754D01*
X40737106Y-109829500D01*
X40542894Y-109829500D01*
X40251824Y-109844754D01*
X40248584Y-109845267D01*
X40248576Y-109845268D01*
X40071793Y-109873268D01*
X39867901Y-109905562D01*
X39492438Y-110006167D01*
X39129547Y-110145468D01*
X39126607Y-110146966D01*
X38786147Y-110320439D01*
X38786140Y-110320443D01*
X38783206Y-110321938D01*
X38457207Y-110533643D01*
X38155124Y-110778266D01*
X37880266Y-111053124D01*
X37878194Y-111055682D01*
X37878191Y-111055686D01*
X37826770Y-111119186D01*
X37635643Y-111355207D01*
X37633848Y-111357970D01*
X37633848Y-111357971D01*
X37425736Y-111678436D01*
X37425734Y-111678439D01*
X37423938Y-111681205D01*
X37422443Y-111684139D01*
X37422439Y-111684146D01*
X37390084Y-111747647D01*
X37247468Y-112027547D01*
X37108167Y-112390438D01*
X37007562Y-112765901D01*
X36946754Y-113149824D01*
X36926411Y-113538000D01*
X30891589Y-113538000D01*
X30871246Y-113149824D01*
X30810438Y-112765901D01*
X30709833Y-112390438D01*
X30570532Y-112027547D01*
X30569034Y-112024607D01*
X30395561Y-111684147D01*
X30395557Y-111684140D01*
X30394062Y-111681206D01*
X30182357Y-111355207D01*
X29991230Y-111119186D01*
X29939809Y-111055686D01*
X29939806Y-111055682D01*
X29937734Y-111053124D01*
X29662876Y-110778266D01*
X29360793Y-110533643D01*
X29034794Y-110321938D01*
X29031860Y-110320443D01*
X29031853Y-110320439D01*
X28691393Y-110146966D01*
X28688453Y-110145468D01*
X28325562Y-110006167D01*
X27950099Y-109905562D01*
X27746207Y-109873268D01*
X27569424Y-109845268D01*
X27569416Y-109845267D01*
X27566176Y-109844754D01*
X27275106Y-109829500D01*
X27080894Y-109829500D01*
X26789824Y-109844754D01*
X26786584Y-109845267D01*
X26786576Y-109845268D01*
X26609793Y-109873268D01*
X26405901Y-109905562D01*
X26030438Y-110006167D01*
X25667547Y-110145468D01*
X25664607Y-110146966D01*
X25324147Y-110320439D01*
X25324140Y-110320443D01*
X25321206Y-110321938D01*
X24995207Y-110533643D01*
X24693124Y-110778266D01*
X24418266Y-111053124D01*
X24416194Y-111055682D01*
X24416191Y-111055686D01*
X24364770Y-111119186D01*
X24173643Y-111355207D01*
X24171848Y-111357970D01*
X24171848Y-111357971D01*
X23963736Y-111678436D01*
X23963734Y-111678439D01*
X23961938Y-111681205D01*
X23960443Y-111684139D01*
X23960439Y-111684146D01*
X23928084Y-111747647D01*
X23785468Y-112027547D01*
X23646167Y-112390438D01*
X23545562Y-112765901D01*
X23484754Y-113149824D01*
X23464411Y-113538000D01*
X20955500Y-113538000D01*
X20955500Y-98298000D01*
X23464411Y-98298000D01*
X23484754Y-98686176D01*
X23485267Y-98689416D01*
X23485268Y-98689424D01*
X23495326Y-98752924D01*
X23545562Y-99070099D01*
X23646167Y-99445562D01*
X23647352Y-99448650D01*
X23647353Y-99448652D01*
X23700634Y-99587453D01*
X23785468Y-99808453D01*
X23961938Y-100154794D01*
X24173643Y-100480793D01*
X24418266Y-100782876D01*
X24693124Y-101057734D01*
X24695682Y-101059806D01*
X24695686Y-101059809D01*
X24774102Y-101123309D01*
X24995207Y-101302357D01*
X25321206Y-101514062D01*
X25324140Y-101515557D01*
X25324147Y-101515561D01*
X25445831Y-101577562D01*
X25667547Y-101690532D01*
X26030438Y-101829833D01*
X26405901Y-101930438D01*
X26609793Y-101962732D01*
X26786576Y-101990732D01*
X26786584Y-101990733D01*
X26789824Y-101991246D01*
X27080894Y-102006500D01*
X27275106Y-102006500D01*
X27566176Y-101991246D01*
X27569416Y-101990733D01*
X27569424Y-101990732D01*
X27746207Y-101962732D01*
X27950099Y-101930438D01*
X28325562Y-101829833D01*
X28688453Y-101690532D01*
X28910169Y-101577562D01*
X29031853Y-101515561D01*
X29031860Y-101515557D01*
X29034794Y-101514062D01*
X29360793Y-101302357D01*
X29581898Y-101123309D01*
X29660314Y-101059809D01*
X29660318Y-101059806D01*
X29662876Y-101057734D01*
X29937734Y-100782876D01*
X30182357Y-100480793D01*
X30352825Y-100218295D01*
X30392264Y-100157564D01*
X30392266Y-100157561D01*
X30394062Y-100154795D01*
X30395562Y-100151853D01*
X30569034Y-99811393D01*
X30570532Y-99808453D01*
X30655366Y-99587452D01*
X30708647Y-99448652D01*
X30708648Y-99448650D01*
X30709833Y-99445562D01*
X30810438Y-99070099D01*
X30860674Y-98752924D01*
X30870732Y-98689424D01*
X30870733Y-98689416D01*
X30871246Y-98686176D01*
X30891589Y-98298000D01*
X36926411Y-98298000D01*
X36946754Y-98686176D01*
X36947267Y-98689416D01*
X36947268Y-98689424D01*
X36957326Y-98752924D01*
X37007562Y-99070099D01*
X37108167Y-99445562D01*
X37109352Y-99448650D01*
X37109353Y-99448652D01*
X37162634Y-99587453D01*
X37247468Y-99808453D01*
X37423938Y-100154794D01*
X37635643Y-100480793D01*
X37880266Y-100782876D01*
X38155124Y-101057734D01*
X38157682Y-101059806D01*
X38157686Y-101059809D01*
X38236102Y-101123309D01*
X38457207Y-101302357D01*
X38783206Y-101514062D01*
X38786140Y-101515557D01*
X38786147Y-101515561D01*
X38907831Y-101577562D01*
X39129547Y-101690532D01*
X39492438Y-101829833D01*
X39867901Y-101930438D01*
X40071793Y-101962732D01*
X40248576Y-101990732D01*
X40248584Y-101990733D01*
X40251824Y-101991246D01*
X40542894Y-102006500D01*
X40737106Y-102006500D01*
X41028176Y-101991246D01*
X41031416Y-101990733D01*
X41031424Y-101990732D01*
X41208207Y-101962732D01*
X41412099Y-101930438D01*
X41787562Y-101829833D01*
X42150453Y-101690532D01*
X42372169Y-101577562D01*
X42493853Y-101515561D01*
X42493860Y-101515557D01*
X42496794Y-101514062D01*
X42822793Y-101302357D01*
X43043898Y-101123309D01*
X43122314Y-101059809D01*
X43122318Y-101059806D01*
X43124876Y-101057734D01*
X43399734Y-100782876D01*
X43644357Y-100480793D01*
X43814825Y-100218295D01*
X43854264Y-100157564D01*
X43854266Y-100157561D01*
X43856062Y-100154795D01*
X43857562Y-100151853D01*
X44031034Y-99811393D01*
X44032532Y-99808453D01*
X44117366Y-99587452D01*
X44170647Y-99448652D01*
X44170648Y-99448650D01*
X44171833Y-99445562D01*
X44272438Y-99070099D01*
X44322674Y-98752924D01*
X44332732Y-98689424D01*
X44332733Y-98689416D01*
X44333246Y-98686176D01*
X44353589Y-98298000D01*
X50388411Y-98298000D01*
X50408754Y-98686176D01*
X50409267Y-98689416D01*
X50409268Y-98689424D01*
X50419326Y-98752924D01*
X50469562Y-99070099D01*
X50570167Y-99445562D01*
X50571352Y-99448650D01*
X50571353Y-99448652D01*
X50624634Y-99587453D01*
X50709468Y-99808453D01*
X50885938Y-100154794D01*
X51097643Y-100480793D01*
X51342266Y-100782876D01*
X51617124Y-101057734D01*
X51619682Y-101059806D01*
X51619686Y-101059809D01*
X51698102Y-101123309D01*
X51919207Y-101302357D01*
X52245206Y-101514062D01*
X52248140Y-101515557D01*
X52248147Y-101515561D01*
X52369831Y-101577562D01*
X52591547Y-101690532D01*
X52954438Y-101829833D01*
X53329901Y-101930438D01*
X53533793Y-101962732D01*
X53710576Y-101990732D01*
X53710584Y-101990733D01*
X53713824Y-101991246D01*
X54004894Y-102006500D01*
X54199106Y-102006500D01*
X54490176Y-101991246D01*
X54493416Y-101990733D01*
X54493424Y-101990732D01*
X54670207Y-101962732D01*
X54874099Y-101930438D01*
X55249562Y-101829833D01*
X55612453Y-101690532D01*
X55834169Y-101577562D01*
X55955853Y-101515561D01*
X55955860Y-101515557D01*
X55958794Y-101514062D01*
X56284793Y-101302357D01*
X56505898Y-101123309D01*
X56584314Y-101059809D01*
X56584318Y-101059806D01*
X56586876Y-101057734D01*
X56861734Y-100782876D01*
X57106357Y-100480793D01*
X57276825Y-100218295D01*
X57316264Y-100157564D01*
X57316266Y-100157561D01*
X57318062Y-100154795D01*
X57319562Y-100151853D01*
X57493034Y-99811393D01*
X57494532Y-99808453D01*
X57579366Y-99587452D01*
X57632647Y-99448652D01*
X57632648Y-99448650D01*
X57633833Y-99445562D01*
X57734438Y-99070099D01*
X57784674Y-98752924D01*
X57794732Y-98689424D01*
X57794733Y-98689416D01*
X57795246Y-98686176D01*
X57815589Y-98298000D01*
X63850411Y-98298000D01*
X63870754Y-98686176D01*
X63871267Y-98689416D01*
X63871268Y-98689424D01*
X63881326Y-98752924D01*
X63931562Y-99070099D01*
X64032167Y-99445562D01*
X64033352Y-99448650D01*
X64033353Y-99448652D01*
X64086634Y-99587453D01*
X64171468Y-99808453D01*
X64347938Y-100154794D01*
X64559643Y-100480793D01*
X64804266Y-100782876D01*
X65079124Y-101057734D01*
X65081682Y-101059806D01*
X65081686Y-101059809D01*
X65160102Y-101123309D01*
X65381207Y-101302357D01*
X65707206Y-101514062D01*
X65710140Y-101515557D01*
X65710147Y-101515561D01*
X65831831Y-101577562D01*
X66053547Y-101690532D01*
X66416438Y-101829833D01*
X66791901Y-101930438D01*
X66995793Y-101962732D01*
X67172576Y-101990732D01*
X67172584Y-101990733D01*
X67175824Y-101991246D01*
X67466894Y-102006500D01*
X67661106Y-102006500D01*
X67952176Y-101991246D01*
X67955416Y-101990733D01*
X67955424Y-101990732D01*
X68132207Y-101962732D01*
X68336099Y-101930438D01*
X68711562Y-101829833D01*
X69074453Y-101690532D01*
X69296169Y-101577562D01*
X69417853Y-101515561D01*
X69417860Y-101515557D01*
X69420794Y-101514062D01*
X69746793Y-101302357D01*
X69967898Y-101123309D01*
X70046314Y-101059809D01*
X70046318Y-101059806D01*
X70048876Y-101057734D01*
X70323734Y-100782876D01*
X70568357Y-100480793D01*
X70738825Y-100218295D01*
X70778264Y-100157564D01*
X70778266Y-100157561D01*
X70780062Y-100154795D01*
X70781562Y-100151853D01*
X70955034Y-99811393D01*
X70956532Y-99808453D01*
X71041366Y-99587452D01*
X71094647Y-99448652D01*
X71094648Y-99448650D01*
X71095833Y-99445562D01*
X71196438Y-99070099D01*
X71246674Y-98752924D01*
X71256732Y-98689424D01*
X71256733Y-98689416D01*
X71257246Y-98686176D01*
X71277589Y-98298000D01*
X77312411Y-98298000D01*
X77332754Y-98686176D01*
X77333267Y-98689416D01*
X77333268Y-98689424D01*
X77343326Y-98752924D01*
X77393562Y-99070099D01*
X77494167Y-99445562D01*
X77495352Y-99448650D01*
X77495353Y-99448652D01*
X77548634Y-99587453D01*
X77633468Y-99808453D01*
X77809938Y-100154794D01*
X78021643Y-100480793D01*
X78266266Y-100782876D01*
X78541124Y-101057734D01*
X78543682Y-101059806D01*
X78543686Y-101059809D01*
X78622102Y-101123309D01*
X78843207Y-101302357D01*
X79169206Y-101514062D01*
X79172140Y-101515557D01*
X79172147Y-101515561D01*
X79293831Y-101577562D01*
X79515547Y-101690532D01*
X79878438Y-101829833D01*
X80253901Y-101930438D01*
X80457793Y-101962732D01*
X80634576Y-101990732D01*
X80634584Y-101990733D01*
X80637824Y-101991246D01*
X80928894Y-102006500D01*
X81123106Y-102006500D01*
X81414176Y-101991246D01*
X81417416Y-101990733D01*
X81417424Y-101990732D01*
X81594207Y-101962732D01*
X81798099Y-101930438D01*
X82173562Y-101829833D01*
X82536453Y-101690532D01*
X82758169Y-101577562D01*
X82879853Y-101515561D01*
X82879860Y-101515557D01*
X82882794Y-101514062D01*
X83208793Y-101302357D01*
X83429898Y-101123309D01*
X83508314Y-101059809D01*
X83508318Y-101059806D01*
X83510876Y-101057734D01*
X83785734Y-100782876D01*
X84030357Y-100480793D01*
X84200825Y-100218295D01*
X84240264Y-100157564D01*
X84240266Y-100157561D01*
X84242062Y-100154795D01*
X84243562Y-100151853D01*
X84417034Y-99811393D01*
X84418532Y-99808453D01*
X84503366Y-99587452D01*
X84556647Y-99448652D01*
X84556648Y-99448650D01*
X84557833Y-99445562D01*
X84658438Y-99070099D01*
X84708674Y-98752924D01*
X84718732Y-98689424D01*
X84718733Y-98689416D01*
X84719246Y-98686176D01*
X84736261Y-98361500D01*
X90774411Y-98361500D01*
X90794754Y-98749676D01*
X90855562Y-99133599D01*
X90956167Y-99509062D01*
X91095468Y-99871953D01*
X91096966Y-99874893D01*
X91239584Y-100154795D01*
X91271938Y-100218294D01*
X91483643Y-100544293D01*
X91485718Y-100546855D01*
X91676845Y-100782876D01*
X91728266Y-100846376D01*
X92003124Y-101121234D01*
X92305207Y-101365857D01*
X92631206Y-101577562D01*
X92634140Y-101579057D01*
X92634147Y-101579061D01*
X92855245Y-101691716D01*
X92977547Y-101754032D01*
X93340438Y-101893333D01*
X93715901Y-101993938D01*
X93919793Y-102026232D01*
X94096576Y-102054232D01*
X94096584Y-102054233D01*
X94099824Y-102054746D01*
X94390894Y-102070000D01*
X94585106Y-102070000D01*
X94876176Y-102054746D01*
X94879416Y-102054233D01*
X94879424Y-102054232D01*
X95056207Y-102026232D01*
X95260099Y-101993938D01*
X95635562Y-101893333D01*
X95998453Y-101754032D01*
X96120755Y-101691716D01*
X96341853Y-101579061D01*
X96341860Y-101579057D01*
X96344794Y-101577562D01*
X96670793Y-101365857D01*
X96972876Y-101121234D01*
X97247734Y-100846376D01*
X97299156Y-100782876D01*
X97490282Y-100546855D01*
X97492357Y-100544293D01*
X97494152Y-100541529D01*
X97702264Y-100221064D01*
X97702266Y-100221061D01*
X97704062Y-100218295D01*
X97705562Y-100215353D01*
X97879034Y-99874893D01*
X97880532Y-99871953D01*
X98019833Y-99509062D01*
X98120438Y-99133599D01*
X98181246Y-98749676D01*
X98201589Y-98361500D01*
X98181246Y-97973324D01*
X98171189Y-97909824D01*
X98120954Y-97592662D01*
X98120438Y-97589401D01*
X98019833Y-97213938D01*
X97994272Y-97147348D01*
X97881716Y-96854132D01*
X97880532Y-96851047D01*
X97704062Y-96504706D01*
X97492357Y-96178707D01*
X97247734Y-95876624D01*
X96972876Y-95601766D01*
X96897347Y-95540603D01*
X96673355Y-95359218D01*
X96670793Y-95357143D01*
X96344794Y-95145438D01*
X96341860Y-95143943D01*
X96341853Y-95143939D01*
X96001393Y-94970466D01*
X95998453Y-94968968D01*
X95635562Y-94829667D01*
X95260099Y-94729062D01*
X95056207Y-94696768D01*
X94879424Y-94668768D01*
X94879416Y-94668767D01*
X94876176Y-94668254D01*
X94585106Y-94653000D01*
X94390894Y-94653000D01*
X94099824Y-94668254D01*
X94096584Y-94668767D01*
X94096576Y-94668768D01*
X93919793Y-94696768D01*
X93715901Y-94729062D01*
X93340438Y-94829667D01*
X92977547Y-94968968D01*
X92974607Y-94970466D01*
X92634147Y-95143939D01*
X92634140Y-95143943D01*
X92631206Y-95145438D01*
X92305207Y-95357143D01*
X92302645Y-95359218D01*
X92078654Y-95540603D01*
X92003124Y-95601766D01*
X91728266Y-95876624D01*
X91483643Y-96178707D01*
X91481848Y-96181470D01*
X91481848Y-96181471D01*
X91273736Y-96501936D01*
X91273734Y-96501939D01*
X91271938Y-96504705D01*
X91270443Y-96507639D01*
X91270439Y-96507646D01*
X91129321Y-96784607D01*
X91095468Y-96851047D01*
X91094284Y-96854132D01*
X90981729Y-97147348D01*
X90956167Y-97213938D01*
X90855562Y-97589401D01*
X90855046Y-97592662D01*
X90804812Y-97909824D01*
X90794754Y-97973324D01*
X90774411Y-98361500D01*
X84736261Y-98361500D01*
X84739589Y-98298000D01*
X84719246Y-97909824D01*
X84658438Y-97525901D01*
X84557833Y-97150438D01*
X84418532Y-96787547D01*
X84417034Y-96784607D01*
X84243561Y-96444147D01*
X84243557Y-96444140D01*
X84242062Y-96441206D01*
X84030357Y-96115207D01*
X83839230Y-95879186D01*
X83787809Y-95815686D01*
X83787806Y-95815682D01*
X83785734Y-95813124D01*
X83510876Y-95538266D01*
X83208793Y-95293643D01*
X82882794Y-95081938D01*
X82879860Y-95080443D01*
X82879853Y-95080439D01*
X82539393Y-94906966D01*
X82536453Y-94905468D01*
X82173562Y-94766167D01*
X81798099Y-94665562D01*
X81594207Y-94633268D01*
X81417424Y-94605268D01*
X81417416Y-94605267D01*
X81414176Y-94604754D01*
X81123106Y-94589500D01*
X80928894Y-94589500D01*
X80637824Y-94604754D01*
X80634584Y-94605267D01*
X80634576Y-94605268D01*
X80457793Y-94633268D01*
X80253901Y-94665562D01*
X79878438Y-94766167D01*
X79515547Y-94905468D01*
X79512607Y-94906966D01*
X79172147Y-95080439D01*
X79172140Y-95080443D01*
X79169206Y-95081938D01*
X78843207Y-95293643D01*
X78541124Y-95538266D01*
X78266266Y-95813124D01*
X78264194Y-95815682D01*
X78264191Y-95815686D01*
X78212770Y-95879186D01*
X78021643Y-96115207D01*
X78019848Y-96117970D01*
X78019848Y-96117971D01*
X77811736Y-96438436D01*
X77811734Y-96438439D01*
X77809938Y-96441205D01*
X77808443Y-96444139D01*
X77808439Y-96444146D01*
X77776084Y-96507647D01*
X77633468Y-96787547D01*
X77494167Y-97150438D01*
X77393562Y-97525901D01*
X77332754Y-97909824D01*
X77312411Y-98298000D01*
X71277589Y-98298000D01*
X71257246Y-97909824D01*
X71196438Y-97525901D01*
X71095833Y-97150438D01*
X70956532Y-96787547D01*
X70955034Y-96784607D01*
X70781561Y-96444147D01*
X70781557Y-96444140D01*
X70780062Y-96441206D01*
X70568357Y-96115207D01*
X70377230Y-95879186D01*
X70325809Y-95815686D01*
X70325806Y-95815682D01*
X70323734Y-95813124D01*
X70048876Y-95538266D01*
X69746793Y-95293643D01*
X69420794Y-95081938D01*
X69417860Y-95080443D01*
X69417853Y-95080439D01*
X69077393Y-94906966D01*
X69074453Y-94905468D01*
X68711562Y-94766167D01*
X68336099Y-94665562D01*
X68132207Y-94633268D01*
X67955424Y-94605268D01*
X67955416Y-94605267D01*
X67952176Y-94604754D01*
X67661106Y-94589500D01*
X67466894Y-94589500D01*
X67175824Y-94604754D01*
X67172584Y-94605267D01*
X67172576Y-94605268D01*
X66995793Y-94633268D01*
X66791901Y-94665562D01*
X66416438Y-94766167D01*
X66053547Y-94905468D01*
X66050607Y-94906966D01*
X65710147Y-95080439D01*
X65710140Y-95080443D01*
X65707206Y-95081938D01*
X65381207Y-95293643D01*
X65079124Y-95538266D01*
X64804266Y-95813124D01*
X64802194Y-95815682D01*
X64802191Y-95815686D01*
X64750770Y-95879186D01*
X64559643Y-96115207D01*
X64557848Y-96117970D01*
X64557848Y-96117971D01*
X64349736Y-96438436D01*
X64349734Y-96438439D01*
X64347938Y-96441205D01*
X64346443Y-96444139D01*
X64346439Y-96444146D01*
X64314084Y-96507647D01*
X64171468Y-96787547D01*
X64032167Y-97150438D01*
X63931562Y-97525901D01*
X63870754Y-97909824D01*
X63850411Y-98298000D01*
X57815589Y-98298000D01*
X57795246Y-97909824D01*
X57734438Y-97525901D01*
X57633833Y-97150438D01*
X57494532Y-96787547D01*
X57493034Y-96784607D01*
X57319561Y-96444147D01*
X57319557Y-96444140D01*
X57318062Y-96441206D01*
X57106357Y-96115207D01*
X56915230Y-95879186D01*
X56863809Y-95815686D01*
X56863806Y-95815682D01*
X56861734Y-95813124D01*
X56586876Y-95538266D01*
X56284793Y-95293643D01*
X55958794Y-95081938D01*
X55955860Y-95080443D01*
X55955853Y-95080439D01*
X55615393Y-94906966D01*
X55612453Y-94905468D01*
X55249562Y-94766167D01*
X54874099Y-94665562D01*
X54670207Y-94633268D01*
X54493424Y-94605268D01*
X54493416Y-94605267D01*
X54490176Y-94604754D01*
X54199106Y-94589500D01*
X54004894Y-94589500D01*
X53713824Y-94604754D01*
X53710584Y-94605267D01*
X53710576Y-94605268D01*
X53533793Y-94633268D01*
X53329901Y-94665562D01*
X52954438Y-94766167D01*
X52591547Y-94905468D01*
X52588607Y-94906966D01*
X52248147Y-95080439D01*
X52248140Y-95080443D01*
X52245206Y-95081938D01*
X51919207Y-95293643D01*
X51617124Y-95538266D01*
X51342266Y-95813124D01*
X51340194Y-95815682D01*
X51340191Y-95815686D01*
X51288770Y-95879186D01*
X51097643Y-96115207D01*
X51095848Y-96117970D01*
X51095848Y-96117971D01*
X50887736Y-96438436D01*
X50887734Y-96438439D01*
X50885938Y-96441205D01*
X50884443Y-96444139D01*
X50884439Y-96444146D01*
X50852084Y-96507647D01*
X50709468Y-96787547D01*
X50570167Y-97150438D01*
X50469562Y-97525901D01*
X50408754Y-97909824D01*
X50388411Y-98298000D01*
X44353589Y-98298000D01*
X44333246Y-97909824D01*
X44272438Y-97525901D01*
X44171833Y-97150438D01*
X44032532Y-96787547D01*
X44031034Y-96784607D01*
X43857561Y-96444147D01*
X43857557Y-96444140D01*
X43856062Y-96441206D01*
X43644357Y-96115207D01*
X43453230Y-95879186D01*
X43401809Y-95815686D01*
X43401806Y-95815682D01*
X43399734Y-95813124D01*
X43124876Y-95538266D01*
X42822793Y-95293643D01*
X42496794Y-95081938D01*
X42493860Y-95080443D01*
X42493853Y-95080439D01*
X42153393Y-94906966D01*
X42150453Y-94905468D01*
X41787562Y-94766167D01*
X41412099Y-94665562D01*
X41208207Y-94633268D01*
X41031424Y-94605268D01*
X41031416Y-94605267D01*
X41028176Y-94604754D01*
X40737106Y-94589500D01*
X40542894Y-94589500D01*
X40251824Y-94604754D01*
X40248584Y-94605267D01*
X40248576Y-94605268D01*
X40071793Y-94633268D01*
X39867901Y-94665562D01*
X39492438Y-94766167D01*
X39129547Y-94905468D01*
X39126607Y-94906966D01*
X38786147Y-95080439D01*
X38786140Y-95080443D01*
X38783206Y-95081938D01*
X38457207Y-95293643D01*
X38155124Y-95538266D01*
X37880266Y-95813124D01*
X37878194Y-95815682D01*
X37878191Y-95815686D01*
X37826770Y-95879186D01*
X37635643Y-96115207D01*
X37633848Y-96117970D01*
X37633848Y-96117971D01*
X37425736Y-96438436D01*
X37425734Y-96438439D01*
X37423938Y-96441205D01*
X37422443Y-96444139D01*
X37422439Y-96444146D01*
X37390084Y-96507647D01*
X37247468Y-96787547D01*
X37108167Y-97150438D01*
X37007562Y-97525901D01*
X36946754Y-97909824D01*
X36926411Y-98298000D01*
X30891589Y-98298000D01*
X30871246Y-97909824D01*
X30810438Y-97525901D01*
X30709833Y-97150438D01*
X30570532Y-96787547D01*
X30569034Y-96784607D01*
X30395561Y-96444147D01*
X30395557Y-96444140D01*
X30394062Y-96441206D01*
X30182357Y-96115207D01*
X29991230Y-95879186D01*
X29939809Y-95815686D01*
X29939806Y-95815682D01*
X29937734Y-95813124D01*
X29662876Y-95538266D01*
X29360793Y-95293643D01*
X29034794Y-95081938D01*
X29031860Y-95080443D01*
X29031853Y-95080439D01*
X28691393Y-94906966D01*
X28688453Y-94905468D01*
X28325562Y-94766167D01*
X27950099Y-94665562D01*
X27746207Y-94633268D01*
X27569424Y-94605268D01*
X27569416Y-94605267D01*
X27566176Y-94604754D01*
X27275106Y-94589500D01*
X27080894Y-94589500D01*
X26789824Y-94604754D01*
X26786584Y-94605267D01*
X26786576Y-94605268D01*
X26609793Y-94633268D01*
X26405901Y-94665562D01*
X26030438Y-94766167D01*
X25667547Y-94905468D01*
X25664607Y-94906966D01*
X25324147Y-95080439D01*
X25324140Y-95080443D01*
X25321206Y-95081938D01*
X24995207Y-95293643D01*
X24693124Y-95538266D01*
X24418266Y-95813124D01*
X24416194Y-95815682D01*
X24416191Y-95815686D01*
X24364770Y-95879186D01*
X24173643Y-96115207D01*
X24171848Y-96117970D01*
X24171848Y-96117971D01*
X23963736Y-96438436D01*
X23963734Y-96438439D01*
X23961938Y-96441205D01*
X23960443Y-96444139D01*
X23960439Y-96444146D01*
X23928084Y-96507647D01*
X23785468Y-96787547D01*
X23646167Y-97150438D01*
X23545562Y-97525901D01*
X23484754Y-97909824D01*
X23464411Y-98298000D01*
X20955500Y-98298000D01*
X20955500Y-80853279D01*
X33419126Y-80853279D01*
X33452963Y-81298112D01*
X33526210Y-81738175D01*
X33526913Y-81740883D01*
X33637580Y-82167267D01*
X33637583Y-82167278D01*
X33638286Y-82169985D01*
X33683836Y-82297552D01*
X33782825Y-82574780D01*
X33788303Y-82590123D01*
X33975075Y-82995262D01*
X34197121Y-83382193D01*
X34452685Y-83747855D01*
X34454485Y-83749996D01*
X34454487Y-83749999D01*
X34729067Y-84076650D01*
X34739742Y-84089350D01*
X35056019Y-84403976D01*
X35399013Y-84689241D01*
X35766008Y-84942886D01*
X36154097Y-85162904D01*
X36156646Y-85164063D01*
X36156650Y-85164065D01*
X36557662Y-85346395D01*
X36557673Y-85346400D01*
X36560208Y-85347552D01*
X36562834Y-85348474D01*
X36562846Y-85348479D01*
X36802540Y-85432652D01*
X36981125Y-85495367D01*
X36983845Y-85496058D01*
X36983849Y-85496059D01*
X37360797Y-85591792D01*
X37413516Y-85605181D01*
X37416266Y-85605624D01*
X37416276Y-85605626D01*
X37851186Y-85675676D01*
X37851193Y-85675677D01*
X37853957Y-85676122D01*
X37856758Y-85676320D01*
X37856764Y-85676321D01*
X37996154Y-85686190D01*
X38251930Y-85704300D01*
X38543550Y-85704300D01*
X38544956Y-85704237D01*
X38544973Y-85704237D01*
X38832269Y-85691442D01*
X38875876Y-85689500D01*
X38878649Y-85689128D01*
X38878655Y-85689127D01*
X39024039Y-85669599D01*
X39318023Y-85630112D01*
X39320755Y-85629494D01*
X39320765Y-85629492D01*
X39584617Y-85569788D01*
X39753140Y-85531655D01*
X39755793Y-85530801D01*
X39755799Y-85530799D01*
X39932517Y-85473891D01*
X40177783Y-85394908D01*
X40180335Y-85393827D01*
X40180344Y-85393824D01*
X40586014Y-85222045D01*
X40586015Y-85222045D01*
X40588588Y-85220955D01*
X40591046Y-85219645D01*
X40591055Y-85219641D01*
X40979849Y-85012479D01*
X40982304Y-85011171D01*
X41001749Y-84998471D01*
X41353479Y-84768744D01*
X41353483Y-84768741D01*
X41355812Y-84767220D01*
X41452704Y-84690837D01*
X41703963Y-84492760D01*
X41703965Y-84492758D01*
X41706156Y-84491031D01*
X42030561Y-84184792D01*
X42124652Y-84078628D01*
X42324593Y-83853034D01*
X42324598Y-83853027D01*
X42326459Y-83850928D01*
X42591506Y-83492082D01*
X42823606Y-83111095D01*
X43020918Y-82710984D01*
X43181882Y-82294918D01*
X43305223Y-81866190D01*
X43307162Y-81856171D01*
X43334981Y-81712381D01*
X43389964Y-81428194D01*
X43390984Y-81418246D01*
X43435150Y-80987179D01*
X43435435Y-80984400D01*
X43435602Y-80971700D01*
X43441237Y-80541131D01*
X43441274Y-80538321D01*
X43407437Y-80093488D01*
X43334190Y-79653425D01*
X43300268Y-79522729D01*
X43222820Y-79224333D01*
X43222817Y-79224322D01*
X43222114Y-79221615D01*
X43072097Y-78801477D01*
X42885325Y-78396338D01*
X42811565Y-78267805D01*
X42664675Y-78011840D01*
X42663279Y-78009407D01*
X42656104Y-77999140D01*
X42409321Y-77646043D01*
X42407715Y-77643745D01*
X42397040Y-77631045D01*
X42122458Y-77304391D01*
X42122455Y-77304387D01*
X42120658Y-77302250D01*
X42107892Y-77289550D01*
X41806372Y-76989605D01*
X41804381Y-76987624D01*
X41461387Y-76702359D01*
X41440703Y-76688063D01*
X41096701Y-76450310D01*
X41094392Y-76448714D01*
X40706303Y-76228696D01*
X40678371Y-76215996D01*
X40302738Y-76045205D01*
X40302727Y-76045200D01*
X40300192Y-76044048D01*
X40297566Y-76043126D01*
X40297554Y-76043121D01*
X40057860Y-75958948D01*
X39879275Y-75896233D01*
X39876555Y-75895542D01*
X39876551Y-75895541D01*
X39449597Y-75787108D01*
X39446884Y-75786419D01*
X39444134Y-75785976D01*
X39444124Y-75785974D01*
X39009214Y-75715924D01*
X39009207Y-75715923D01*
X39006443Y-75715478D01*
X39003642Y-75715280D01*
X39003636Y-75715279D01*
X38864246Y-75705410D01*
X38608470Y-75687300D01*
X38316850Y-75687300D01*
X38315444Y-75687363D01*
X38315427Y-75687363D01*
X38028253Y-75700153D01*
X37984524Y-75702100D01*
X37981751Y-75702472D01*
X37981745Y-75702473D01*
X37836361Y-75722001D01*
X37542377Y-75761488D01*
X37539645Y-75762106D01*
X37539635Y-75762108D01*
X37275783Y-75821812D01*
X37107260Y-75859945D01*
X37104607Y-75860799D01*
X37104601Y-75860801D01*
X36996723Y-75895541D01*
X36682617Y-75996692D01*
X36680065Y-75997773D01*
X36680056Y-75997776D01*
X36304378Y-76156855D01*
X36271812Y-76170645D01*
X36269354Y-76171955D01*
X36269345Y-76171959D01*
X36160268Y-76230079D01*
X35878096Y-76380429D01*
X35875769Y-76381949D01*
X35875767Y-76381950D01*
X35521389Y-76613407D01*
X35504588Y-76624380D01*
X35502401Y-76626104D01*
X35502397Y-76626107D01*
X35156437Y-76898840D01*
X35154244Y-76900569D01*
X34829839Y-77206808D01*
X34827969Y-77208918D01*
X34535807Y-77538566D01*
X34535802Y-77538573D01*
X34533941Y-77540672D01*
X34268894Y-77899518D01*
X34267436Y-77901912D01*
X34043001Y-78270317D01*
X34036794Y-78280505D01*
X34035557Y-78283013D01*
X34035555Y-78283017D01*
X33980868Y-78393912D01*
X33839482Y-78680616D01*
X33678518Y-79096682D01*
X33677741Y-79099384D01*
X33677740Y-79099386D01*
X33558042Y-79515453D01*
X33555177Y-79525410D01*
X33554648Y-79528147D01*
X33554646Y-79528153D01*
X33532333Y-79643484D01*
X33470436Y-79963406D01*
X33470151Y-79966183D01*
X33470150Y-79966193D01*
X33457390Y-80090731D01*
X33424965Y-80407200D01*
X33424928Y-80409990D01*
X33424928Y-80409998D01*
X33423212Y-80541131D01*
X33419126Y-80853279D01*
X20955500Y-80853279D01*
X20955500Y-73184164D01*
X48291100Y-73184164D01*
X48330526Y-73455155D01*
X48412626Y-73838406D01*
X48530886Y-74311534D01*
X48531060Y-74312170D01*
X48531066Y-74312193D01*
X48604084Y-74579083D01*
X48678793Y-74852154D01*
X48849831Y-75437882D01*
X49037487Y-76046333D01*
X49235247Y-76655123D01*
X49235421Y-76655630D01*
X49235432Y-76655663D01*
X49319475Y-76900569D01*
X49436596Y-77241868D01*
X49436804Y-77242437D01*
X49436818Y-77242476D01*
X49584477Y-77646043D01*
X49635021Y-77784184D01*
X49635331Y-77784964D01*
X49681812Y-77901912D01*
X49824007Y-78259685D01*
X49832436Y-78279772D01*
X49832848Y-78280674D01*
X49832855Y-78280690D01*
X50263864Y-79224333D01*
X50361155Y-79437340D01*
X50978319Y-80616002D01*
X51192736Y-80981602D01*
X51662926Y-81783319D01*
X51662939Y-81783340D01*
X51663658Y-81784566D01*
X51664437Y-81785764D01*
X51664449Y-81785783D01*
X51916079Y-82172633D01*
X52396903Y-82911842D01*
X52397785Y-82913065D01*
X52397790Y-82913072D01*
X53075834Y-83853034D01*
X53157782Y-83966638D01*
X53926027Y-84917765D01*
X53927461Y-84919314D01*
X53927463Y-84919317D01*
X54117013Y-85124156D01*
X54681367Y-85734031D01*
X55263189Y-86281922D01*
X55264589Y-86283094D01*
X55264606Y-86283109D01*
X56050824Y-86941226D01*
X56234371Y-87094867D01*
X57321670Y-87902155D01*
X57657949Y-88125619D01*
X58455792Y-88655802D01*
X58495187Y-88681981D01*
X59725023Y-89412536D01*
X60034622Y-89581807D01*
X60035196Y-89582104D01*
X60035211Y-89582112D01*
X60171948Y-89652867D01*
X60339628Y-89739634D01*
X60340621Y-89740104D01*
X60340640Y-89740113D01*
X60563020Y-89845276D01*
X60563030Y-89845280D01*
X60566096Y-89846730D01*
X60679938Y-89886186D01*
X60695424Y-89883656D01*
X60695425Y-89883656D01*
X60722177Y-89879285D01*
X60722180Y-89879284D01*
X60728412Y-89878266D01*
X60933183Y-89800621D01*
X61242173Y-89652366D01*
X61628683Y-89448611D01*
X61629278Y-89448279D01*
X61629298Y-89448268D01*
X62065512Y-89204750D01*
X62065528Y-89204741D01*
X62066015Y-89204469D01*
X62066477Y-89204199D01*
X62066516Y-89204177D01*
X62527023Y-88935309D01*
X62527024Y-88935308D01*
X62527470Y-88935048D01*
X62986350Y-88655459D01*
X63415957Y-88380813D01*
X63789591Y-88126220D01*
X64512454Y-87598403D01*
X64513157Y-87597857D01*
X65356607Y-86942721D01*
X65356634Y-86942699D01*
X65357538Y-86941997D01*
X66105082Y-86314761D01*
X66139405Y-86283109D01*
X66733202Y-85735510D01*
X66737008Y-85732000D01*
X66775647Y-85691442D01*
X67233566Y-85210773D01*
X67235236Y-85209020D01*
X67271953Y-85164065D01*
X68352612Y-83840952D01*
X68352619Y-83840942D01*
X68354053Y-83839187D01*
X68416708Y-83749999D01*
X69447821Y-82282218D01*
X69545200Y-82143600D01*
X69717238Y-81850747D01*
X70310666Y-80840579D01*
X78351726Y-80840579D01*
X78385563Y-81285412D01*
X78458810Y-81725475D01*
X78459513Y-81728183D01*
X78570180Y-82154567D01*
X78570183Y-82154578D01*
X78570886Y-82157285D01*
X78720903Y-82577423D01*
X78907675Y-82982562D01*
X78909065Y-82984985D01*
X78909067Y-82984988D01*
X78982806Y-83113484D01*
X79129721Y-83369493D01*
X79131323Y-83371785D01*
X79131328Y-83371793D01*
X79204850Y-83476988D01*
X79385285Y-83735155D01*
X79387085Y-83737296D01*
X79387087Y-83737299D01*
X79482603Y-83850928D01*
X79672342Y-84076650D01*
X79674326Y-84078624D01*
X79674330Y-84078628D01*
X79827307Y-84230806D01*
X79988619Y-84391276D01*
X80331613Y-84676541D01*
X80333920Y-84678135D01*
X80333922Y-84678137D01*
X80441941Y-84752793D01*
X80698608Y-84930186D01*
X81086697Y-85150204D01*
X81089246Y-85151363D01*
X81089250Y-85151365D01*
X81490262Y-85333695D01*
X81490273Y-85333700D01*
X81492808Y-85334852D01*
X81495434Y-85335774D01*
X81495446Y-85335779D01*
X81660736Y-85393824D01*
X81913725Y-85482667D01*
X81916445Y-85483358D01*
X81916449Y-85483359D01*
X82109044Y-85532272D01*
X82346116Y-85592481D01*
X82348866Y-85592924D01*
X82348876Y-85592926D01*
X82783786Y-85662976D01*
X82783793Y-85662977D01*
X82786557Y-85663422D01*
X82789358Y-85663620D01*
X82789364Y-85663621D01*
X82928754Y-85673490D01*
X83184530Y-85691600D01*
X83476150Y-85691600D01*
X83477556Y-85691537D01*
X83477573Y-85691537D01*
X83764747Y-85678747D01*
X83808476Y-85676800D01*
X83811249Y-85676428D01*
X83811255Y-85676427D01*
X83956639Y-85656899D01*
X84250623Y-85617412D01*
X84253355Y-85616794D01*
X84253365Y-85616792D01*
X84626887Y-85532272D01*
X84685740Y-85518955D01*
X84688393Y-85518101D01*
X84688399Y-85518099D01*
X84865117Y-85461191D01*
X85110383Y-85382208D01*
X85112935Y-85381127D01*
X85112944Y-85381124D01*
X85518614Y-85209345D01*
X85518615Y-85209345D01*
X85521188Y-85208255D01*
X85523646Y-85206945D01*
X85523655Y-85206941D01*
X85891069Y-85011171D01*
X85914904Y-84998471D01*
X86019454Y-84930186D01*
X86286079Y-84756044D01*
X86286083Y-84756041D01*
X86288412Y-84754520D01*
X86369194Y-84690837D01*
X86636563Y-84480060D01*
X86636565Y-84480058D01*
X86638756Y-84478331D01*
X86963161Y-84172092D01*
X87144058Y-83967985D01*
X87257193Y-83840334D01*
X87257198Y-83840327D01*
X87259059Y-83838228D01*
X87524106Y-83479382D01*
X87748469Y-83111095D01*
X87754751Y-83100784D01*
X87754755Y-83100777D01*
X87756206Y-83098395D01*
X87808320Y-82992719D01*
X87952279Y-82700796D01*
X87953518Y-82698284D01*
X88114482Y-82282218D01*
X88146009Y-82172633D01*
X88237052Y-81856171D01*
X88237054Y-81856165D01*
X88237823Y-81853490D01*
X88260134Y-81738175D01*
X88319574Y-81430946D01*
X88322564Y-81415494D01*
X88334309Y-81300869D01*
X88367750Y-80974479D01*
X88368035Y-80971700D01*
X88369549Y-80856080D01*
X88373837Y-80528431D01*
X88373874Y-80525621D01*
X88340037Y-80080788D01*
X88266790Y-79640725D01*
X88214002Y-79437340D01*
X88155420Y-79211633D01*
X88155417Y-79211622D01*
X88154714Y-79208915D01*
X88058887Y-78940541D01*
X88005641Y-78791420D01*
X88005639Y-78791415D01*
X88004697Y-78788777D01*
X87817925Y-78383638D01*
X87595879Y-77996707D01*
X87340315Y-77631045D01*
X87266249Y-77542933D01*
X87055058Y-77291691D01*
X87055055Y-77291687D01*
X87053258Y-77289550D01*
X86736981Y-76974924D01*
X86393987Y-76689659D01*
X86344018Y-76655123D01*
X86210489Y-76562836D01*
X86026992Y-76436014D01*
X85638903Y-76215996D01*
X85636350Y-76214835D01*
X85235338Y-76032505D01*
X85235327Y-76032500D01*
X85232792Y-76031348D01*
X85230166Y-76030426D01*
X85230154Y-76030421D01*
X84990460Y-75946248D01*
X84811875Y-75883533D01*
X84809155Y-75882842D01*
X84809151Y-75882841D01*
X84382197Y-75774408D01*
X84379484Y-75773719D01*
X84376734Y-75773276D01*
X84376724Y-75773274D01*
X83941814Y-75703224D01*
X83941807Y-75703223D01*
X83939043Y-75702778D01*
X83936242Y-75702580D01*
X83936236Y-75702579D01*
X83796846Y-75692710D01*
X83541070Y-75674600D01*
X83249450Y-75674600D01*
X83248044Y-75674663D01*
X83248027Y-75674663D01*
X82964278Y-75687300D01*
X82917124Y-75689400D01*
X82914351Y-75689772D01*
X82914345Y-75689773D01*
X82768961Y-75709301D01*
X82474977Y-75748788D01*
X82472245Y-75749406D01*
X82472235Y-75749408D01*
X82208383Y-75809112D01*
X82039860Y-75847245D01*
X82037207Y-75848099D01*
X82037201Y-75848101D01*
X81887737Y-75896233D01*
X81615217Y-75983992D01*
X81612665Y-75985073D01*
X81612656Y-75985076D01*
X81206986Y-76156855D01*
X81204412Y-76157945D01*
X81201954Y-76159255D01*
X81201945Y-76159259D01*
X81069033Y-76230079D01*
X80810696Y-76367729D01*
X80808369Y-76369249D01*
X80808367Y-76369250D01*
X80458919Y-76597487D01*
X80437188Y-76611680D01*
X80435001Y-76613404D01*
X80434997Y-76613407D01*
X80322162Y-76702359D01*
X80086844Y-76887869D01*
X79762439Y-77194108D01*
X79760569Y-77196218D01*
X79468407Y-77525866D01*
X79468402Y-77525873D01*
X79466541Y-77527972D01*
X79201494Y-77886818D01*
X79193757Y-77899518D01*
X78974341Y-78259685D01*
X78969394Y-78267805D01*
X78968157Y-78270313D01*
X78968155Y-78270317D01*
X78963131Y-78280505D01*
X78772082Y-78667916D01*
X78611118Y-79083982D01*
X78487777Y-79512710D01*
X78487248Y-79515447D01*
X78487246Y-79515453D01*
X78485320Y-79525410D01*
X78403036Y-79950706D01*
X78402751Y-79953483D01*
X78402750Y-79953493D01*
X78388121Y-80096275D01*
X78357565Y-80394500D01*
X78357528Y-80397290D01*
X78357528Y-80397298D01*
X78354683Y-80614668D01*
X78351726Y-80840579D01*
X70310666Y-80840579D01*
X70583152Y-80376738D01*
X70583153Y-80376735D01*
X70584456Y-80374518D01*
X71474235Y-78527345D01*
X72216948Y-76597487D01*
X72260585Y-76450310D01*
X72814632Y-74581613D01*
X72814636Y-74581597D01*
X72815007Y-74580347D01*
X72878548Y-74327943D01*
X72984121Y-73891161D01*
X73068667Y-73518570D01*
X73081183Y-73457202D01*
X73124405Y-73245259D01*
X73124407Y-73245249D01*
X73124794Y-73243350D01*
X73145109Y-73098680D01*
X73145084Y-73066126D01*
X73144975Y-72928636D01*
X73144961Y-72910520D01*
X72314232Y-72908146D01*
X71304127Y-72905258D01*
X71303334Y-72905254D01*
X70640186Y-72899183D01*
X70637682Y-72899135D01*
X70115313Y-72883969D01*
X69927506Y-72878517D01*
X69923685Y-72878347D01*
X69266443Y-72839175D01*
X69262183Y-72838847D01*
X68806435Y-72795947D01*
X68602701Y-72776769D01*
X68598910Y-72776355D01*
X68378643Y-72748874D01*
X67881809Y-72686888D01*
X67879251Y-72686541D01*
X67300240Y-72601841D01*
X67051481Y-72565452D01*
X67047055Y-72564724D01*
X66608120Y-72484462D01*
X66602919Y-72483397D01*
X66275436Y-72409135D01*
X65957973Y-72337144D01*
X65954370Y-72336270D01*
X65411022Y-72195818D01*
X65222292Y-72147033D01*
X65219520Y-72146283D01*
X64439743Y-71925636D01*
X64437282Y-71924912D01*
X63649192Y-71684483D01*
X63646713Y-71683698D01*
X62889492Y-71435095D01*
X62886513Y-71434075D01*
X62473142Y-71286614D01*
X62199644Y-71189050D01*
X62195398Y-71187449D01*
X61616451Y-70957100D01*
X61614156Y-70956160D01*
X61494152Y-70905616D01*
X61321649Y-70837234D01*
X61187473Y-70784045D01*
X61187459Y-70784040D01*
X61186332Y-70783593D01*
X61185195Y-70783193D01*
X61185182Y-70783188D01*
X61078389Y-70745606D01*
X60945082Y-70698693D01*
X60814438Y-70666853D01*
X60801049Y-70669461D01*
X60801047Y-70669461D01*
X60763218Y-70676830D01*
X60751986Y-70679018D01*
X60549022Y-70744582D01*
X60396577Y-70801519D01*
X60256369Y-70853886D01*
X60256340Y-70853897D01*
X60255567Y-70854186D01*
X60254772Y-70854508D01*
X60254761Y-70854512D01*
X59912127Y-70993165D01*
X59911774Y-70993308D01*
X59911471Y-70993435D01*
X59911428Y-70993452D01*
X59887312Y-71003508D01*
X59817458Y-71032635D01*
X59812928Y-71034421D01*
X58735397Y-71435104D01*
X57930939Y-71734244D01*
X57921601Y-71737307D01*
X56030226Y-72277024D01*
X56020383Y-72279409D01*
X54098143Y-72663813D01*
X54088229Y-72665387D01*
X53395285Y-72747237D01*
X52115687Y-72898383D01*
X52106170Y-72899143D01*
X50061668Y-72984611D01*
X50057287Y-72984718D01*
X49969433Y-72985333D01*
X49950817Y-72985463D01*
X49950636Y-72985465D01*
X49950544Y-72985466D01*
X49440398Y-72991635D01*
X49440347Y-72991636D01*
X49440087Y-72991639D01*
X49439827Y-72991645D01*
X49439742Y-72991646D01*
X48994475Y-73001191D01*
X48994424Y-73001192D01*
X48994024Y-73001201D01*
X48993596Y-73001216D01*
X48993581Y-73001216D01*
X48906343Y-73004188D01*
X48638796Y-73013301D01*
X48568707Y-73017357D01*
X48403536Y-73026915D01*
X48403531Y-73026916D01*
X48400568Y-73027087D01*
X48397625Y-73027540D01*
X48397622Y-73027540D01*
X48378471Y-73030486D01*
X48305508Y-73041709D01*
X48300863Y-73047819D01*
X48299552Y-73066126D01*
X48297538Y-73094261D01*
X48291100Y-73184164D01*
X20955500Y-73184164D01*
X20955500Y-58318328D01*
X29077034Y-58318328D01*
X29457646Y-59047949D01*
X29483854Y-59097904D01*
X29904994Y-59843425D01*
X29905716Y-59844580D01*
X29905732Y-59844606D01*
X30118534Y-60184773D01*
X30408226Y-60647851D01*
X30967977Y-61475770D01*
X30968559Y-61476574D01*
X30968566Y-61476584D01*
X31345175Y-61996838D01*
X31558674Y-62291770D01*
X31559344Y-62292634D01*
X32146476Y-63049779D01*
X32154742Y-63060439D01*
X32399427Y-63351888D01*
X32661811Y-63664417D01*
X32730609Y-63746364D01*
X32833273Y-63856325D01*
X33259607Y-64312962D01*
X33259621Y-64312977D01*
X33260701Y-64314133D01*
X33261840Y-64315236D01*
X33261849Y-64315245D01*
X33367900Y-64417929D01*
X33468263Y-64515106D01*
X33575397Y-64610739D01*
X34074796Y-65056526D01*
X34074811Y-65056539D01*
X34075806Y-65057427D01*
X34076844Y-65058276D01*
X34076856Y-65058286D01*
X34255556Y-65204403D01*
X34783841Y-65636366D01*
X34803696Y-65651447D01*
X35555564Y-66222543D01*
X35555580Y-66222555D01*
X35556419Y-66223192D01*
X36357591Y-66789176D01*
X37328178Y-67416600D01*
X37329934Y-67417583D01*
X37329935Y-67417583D01*
X38951058Y-68324539D01*
X39125822Y-68422313D01*
X41001563Y-69279687D01*
X42946864Y-69985002D01*
X42949303Y-69985670D01*
X42949306Y-69985671D01*
X43530738Y-70144926D01*
X44953185Y-70534536D01*
X45242322Y-70600547D01*
X45242494Y-70600585D01*
X45242578Y-70600604D01*
X45384601Y-70632004D01*
X45573983Y-70673875D01*
X45574315Y-70673944D01*
X45574345Y-70673951D01*
X45817090Y-70724781D01*
X45817100Y-70724783D01*
X45818108Y-70724994D01*
X45849122Y-70730414D01*
X45918208Y-70742488D01*
X45918209Y-70742488D01*
X45936051Y-70745606D01*
X45959705Y-70718218D01*
X45962962Y-70702439D01*
X45962963Y-70702437D01*
X45988970Y-70576441D01*
X45988971Y-70576437D01*
X45989679Y-70573005D01*
X45993266Y-70534177D01*
X46015264Y-70296052D01*
X46015265Y-70296037D01*
X46015380Y-70294793D01*
X46022032Y-70167701D01*
X46037347Y-69875120D01*
X46037349Y-69875080D01*
X46037379Y-69874501D01*
X46037616Y-69867332D01*
X46056236Y-69303395D01*
X46056238Y-69303319D01*
X46056247Y-69303047D01*
X46059817Y-69142853D01*
X47885474Y-69142853D01*
X47885496Y-69184159D01*
X47892324Y-69863105D01*
X47892354Y-69863922D01*
X47892355Y-69863952D01*
X47908379Y-70296052D01*
X47911311Y-70375108D01*
X47942418Y-70719513D01*
X47985609Y-70895668D01*
X47990930Y-70904184D01*
X47990931Y-70904185D01*
X47998982Y-70917069D01*
X48019661Y-70950160D01*
X48125025Y-71036357D01*
X48137947Y-71039830D01*
X48302580Y-71084077D01*
X48302583Y-71084078D01*
X48307805Y-71085481D01*
X48313191Y-71085973D01*
X48313196Y-71085974D01*
X48577763Y-71110146D01*
X48613919Y-71113449D01*
X48736939Y-71118900D01*
X48965488Y-71123511D01*
X49052003Y-71125256D01*
X49052015Y-71125256D01*
X49052553Y-71125267D01*
X49453080Y-71127112D01*
X49453291Y-71127111D01*
X49906557Y-71124962D01*
X49906590Y-71124962D01*
X49906739Y-71124961D01*
X49906952Y-71124958D01*
X49907006Y-71124958D01*
X50381452Y-71119348D01*
X50381563Y-71119346D01*
X50381750Y-71119344D01*
X50846330Y-71110789D01*
X50949260Y-71108117D01*
X51268447Y-71099831D01*
X51268504Y-71099829D01*
X51268701Y-71099824D01*
X51617080Y-71086977D01*
X51859688Y-71072777D01*
X51964743Y-71057751D01*
X52037209Y-71038617D01*
X52049181Y-71036071D01*
X52151024Y-71019549D01*
X52247606Y-71003880D01*
X52252211Y-71003220D01*
X52332944Y-70993165D01*
X52528657Y-70968790D01*
X52529177Y-70968727D01*
X52755061Y-70942089D01*
X52755980Y-70941952D01*
X52756012Y-70941948D01*
X53408889Y-70844792D01*
X53591389Y-70817634D01*
X54490609Y-70649537D01*
X54491631Y-70649309D01*
X54491640Y-70649307D01*
X55378793Y-70451251D01*
X55378803Y-70451249D01*
X55379442Y-70451106D01*
X55414943Y-70442393D01*
X55435825Y-70437268D01*
X55435849Y-70437262D01*
X55436309Y-70437149D01*
X55918516Y-70311040D01*
X55919155Y-70310858D01*
X55919184Y-70310850D01*
X56143689Y-70246871D01*
X56422049Y-70167545D01*
X56721758Y-70076123D01*
X56919954Y-70015667D01*
X56919981Y-70015659D01*
X56920517Y-70015495D01*
X56921046Y-70015323D01*
X56921078Y-70015313D01*
X57286454Y-69896570D01*
X57387532Y-69863721D01*
X57796702Y-69721051D01*
X57996686Y-69644283D01*
X58119807Y-69597021D01*
X58119817Y-69597017D01*
X58121640Y-69596317D01*
X58123406Y-69595510D01*
X58123422Y-69595503D01*
X58328782Y-69501627D01*
X58335955Y-69498348D01*
X58413258Y-69435974D01*
X58411723Y-69429437D01*
X58401906Y-69418965D01*
X63196924Y-69418965D01*
X63200261Y-69437092D01*
X63250725Y-69492429D01*
X63375743Y-69559495D01*
X63379205Y-69560855D01*
X63379208Y-69560856D01*
X63471294Y-69597021D01*
X63593080Y-69644850D01*
X63920500Y-69755055D01*
X63921102Y-69755242D01*
X63921132Y-69755252D01*
X64375439Y-69896570D01*
X64375497Y-69896588D01*
X64375765Y-69896671D01*
X64376120Y-69896777D01*
X64376169Y-69896792D01*
X64976327Y-70076165D01*
X64976379Y-70076180D01*
X64976639Y-70076258D01*
X65229862Y-70149679D01*
X65230572Y-70149867D01*
X65230613Y-70149878D01*
X66005199Y-70354580D01*
X66090394Y-70377095D01*
X66091625Y-70377369D01*
X66091633Y-70377371D01*
X66283444Y-70420072D01*
X66969790Y-70572867D01*
X67905660Y-70744081D01*
X68935613Y-70897826D01*
X68936376Y-70897920D01*
X68936404Y-70897924D01*
X69710464Y-70993452D01*
X70097258Y-71041187D01*
X70098287Y-71041279D01*
X70098290Y-71041279D01*
X70194548Y-71049856D01*
X70194554Y-71049856D01*
X70196031Y-71049988D01*
X70504976Y-71062902D01*
X70901415Y-71066471D01*
X71353246Y-71061819D01*
X71353660Y-71061809D01*
X71353707Y-71061808D01*
X71827923Y-71050083D01*
X71827936Y-71050083D01*
X71828364Y-71050072D01*
X71940077Y-71045828D01*
X72294121Y-71032378D01*
X72294154Y-71032376D01*
X72294667Y-71032357D01*
X72295207Y-71032328D01*
X72295215Y-71032328D01*
X72719335Y-71009837D01*
X72719338Y-71009837D01*
X72720051Y-71009799D01*
X72799425Y-71003880D01*
X73071116Y-70983620D01*
X73071133Y-70983618D01*
X73072412Y-70983523D01*
X73073697Y-70983373D01*
X73314862Y-70955215D01*
X73314866Y-70955214D01*
X73319647Y-70954656D01*
X73335953Y-70950160D01*
X73412188Y-70929140D01*
X73412189Y-70929139D01*
X73429653Y-70924324D01*
X73460317Y-70844792D01*
X73488936Y-70619958D01*
X73508145Y-70247874D01*
X73518292Y-69721247D01*
X73519724Y-69032786D01*
X73519304Y-68993698D01*
X73513882Y-68489616D01*
X73513882Y-68489597D01*
X73513873Y-68488802D01*
X73512632Y-68454556D01*
X73480334Y-67563761D01*
X73480334Y-67563754D01*
X73480284Y-67562386D01*
X73419560Y-66797989D01*
X73411872Y-66701212D01*
X73411871Y-66701206D01*
X73411750Y-66699678D01*
X73363270Y-66322653D01*
X73302062Y-65846641D01*
X73302060Y-65846630D01*
X73301878Y-65845212D01*
X73144274Y-64943526D01*
X73125871Y-64856225D01*
X72932638Y-63939600D01*
X72932633Y-63939575D01*
X72932544Y-63939155D01*
X72928765Y-63922369D01*
X72829563Y-63512503D01*
X72757771Y-63241883D01*
X72706809Y-63049779D01*
X72706795Y-63049727D01*
X72706686Y-63049317D01*
X72684418Y-62970413D01*
X72568689Y-62560360D01*
X72568566Y-62559924D01*
X72540710Y-62466037D01*
X72423753Y-62071850D01*
X72423746Y-62071828D01*
X72423630Y-62071436D01*
X72280309Y-61610966D01*
X72271406Y-61583887D01*
X72147264Y-61206336D01*
X72147031Y-61205627D01*
X72032226Y-60882531D01*
X71944324Y-60668791D01*
X71891754Y-60591520D01*
X71831134Y-60644667D01*
X71709201Y-60808935D01*
X71707995Y-60810830D01*
X71707981Y-60810850D01*
X71558744Y-61045302D01*
X71558434Y-61045788D01*
X70946385Y-61996852D01*
X70941632Y-62003723D01*
X70027606Y-63235436D01*
X70022490Y-63241879D01*
X68987298Y-64461560D01*
X68982272Y-64467133D01*
X67852891Y-65646801D01*
X67850991Y-65648786D01*
X67845773Y-65653929D01*
X67122419Y-66326375D01*
X66643795Y-66771314D01*
X66638097Y-66776300D01*
X65390975Y-67803174D01*
X65384413Y-67808225D01*
X65114192Y-68002410D01*
X64115554Y-68720045D01*
X64112071Y-68722459D01*
X64052677Y-68762150D01*
X63718120Y-68993125D01*
X63717368Y-68993678D01*
X63717340Y-68993698D01*
X63663836Y-69033048D01*
X63446271Y-69193057D01*
X63263687Y-69341740D01*
X63260093Y-69345897D01*
X63260089Y-69345901D01*
X63208772Y-69405260D01*
X63196924Y-69418965D01*
X58401906Y-69418965D01*
X58325975Y-69337972D01*
X58322513Y-69335193D01*
X58322506Y-69335186D01*
X58129267Y-69180043D01*
X58128090Y-69179098D01*
X57927113Y-69033048D01*
X57845674Y-68973866D01*
X57845659Y-68973856D01*
X57844863Y-68973277D01*
X57844037Y-68972716D01*
X57844022Y-68972705D01*
X57503340Y-68741137D01*
X57502974Y-68740889D01*
X57134281Y-68493504D01*
X57130908Y-68491160D01*
X56979348Y-68382138D01*
X56204662Y-67824882D01*
X56199452Y-67820925D01*
X56005492Y-67665491D01*
X55317437Y-67114105D01*
X55312523Y-67109957D01*
X54430942Y-66326375D01*
X54426933Y-66322653D01*
X53890839Y-65802786D01*
X53502958Y-65426645D01*
X53499891Y-65423566D01*
X53333324Y-65250466D01*
X52721756Y-64614911D01*
X52717931Y-64610753D01*
X52054867Y-63856325D01*
X51776839Y-63539987D01*
X51772032Y-63534175D01*
X50943532Y-62469216D01*
X50938801Y-62462718D01*
X50194591Y-61368720D01*
X50192636Y-61365749D01*
X50192633Y-61365751D01*
X50192454Y-61365472D01*
X50192283Y-61365203D01*
X49977212Y-61033507D01*
X49792528Y-60761590D01*
X49657861Y-60577487D01*
X49592841Y-60509235D01*
X49573716Y-60518506D01*
X49564284Y-60533770D01*
X49564283Y-60533771D01*
X49535233Y-60580783D01*
X49494560Y-60646604D01*
X49492679Y-60651052D01*
X49492678Y-60651053D01*
X49482619Y-60674835D01*
X49384762Y-60906179D01*
X49251887Y-61272922D01*
X49103501Y-61722522D01*
X49103330Y-61723078D01*
X49016985Y-62003737D01*
X48947169Y-62230667D01*
X48947042Y-62231105D01*
X48947032Y-62231140D01*
X48790581Y-62772616D01*
X48790565Y-62772672D01*
X48790457Y-62773047D01*
X48790346Y-62773455D01*
X48790339Y-62773482D01*
X48663529Y-63241883D01*
X48640931Y-63325352D01*
X48640802Y-63325865D01*
X48640797Y-63325886D01*
X48507445Y-63858122D01*
X48506155Y-63863270D01*
X48452391Y-64101939D01*
X48404340Y-64315245D01*
X48393697Y-64362490D01*
X48381983Y-64418662D01*
X48153765Y-65646801D01*
X48132901Y-65802786D01*
X48001064Y-66788422D01*
X47999784Y-66797989D01*
X47912775Y-67940561D01*
X47912737Y-67942230D01*
X47912737Y-67942232D01*
X47907269Y-68183038D01*
X47885474Y-69142853D01*
X46059817Y-69142853D01*
X46072553Y-68571353D01*
X46084882Y-68003642D01*
X46084915Y-68002410D01*
X46086848Y-67942232D01*
X46107748Y-67291290D01*
X46107847Y-67288920D01*
X46110541Y-67236144D01*
X46133315Y-66789890D01*
X46138407Y-66690118D01*
X46138623Y-66686762D01*
X46179197Y-66165522D01*
X46179580Y-66161456D01*
X46232486Y-65682840D01*
X46233002Y-65678776D01*
X46239092Y-65636366D01*
X46300697Y-65207316D01*
X46301150Y-65204403D01*
X46364479Y-64826424D01*
X46365263Y-64822190D01*
X46618148Y-63575849D01*
X46619422Y-63570231D01*
X46681029Y-63324841D01*
X46939205Y-62296476D01*
X46940642Y-62291236D01*
X47313166Y-61038778D01*
X47314926Y-61033318D01*
X47725685Y-59851989D01*
X47728098Y-59845610D01*
X48163275Y-58783200D01*
X48164914Y-58779381D01*
X48408895Y-58235593D01*
X50528936Y-58235593D01*
X50535117Y-58246767D01*
X50535118Y-58246769D01*
X50784668Y-58697879D01*
X51043335Y-59165472D01*
X51043683Y-59166070D01*
X51043697Y-59166095D01*
X51636545Y-60185321D01*
X51683534Y-60266104D01*
X52618549Y-61681243D01*
X53618430Y-62972438D01*
X53620150Y-62974321D01*
X53620158Y-62974330D01*
X54698558Y-64154617D01*
X54700331Y-64156557D01*
X54702256Y-64158339D01*
X54702261Y-64158345D01*
X55879543Y-65248738D01*
X55881409Y-65250466D01*
X55883398Y-65252031D01*
X55883402Y-65252034D01*
X57176994Y-66269600D01*
X57177008Y-66269610D01*
X57178818Y-66271034D01*
X57180738Y-66272328D01*
X57180744Y-66272332D01*
X57588640Y-66547159D01*
X58609716Y-67235127D01*
X59167221Y-67561015D01*
X60043515Y-68073250D01*
X60191258Y-68159613D01*
X60234370Y-68183186D01*
X60495338Y-68324374D01*
X60685117Y-68424516D01*
X60686096Y-68424989D01*
X60686113Y-68424998D01*
X60726019Y-68444294D01*
X60765172Y-68463227D01*
X60786341Y-68457886D01*
X60794164Y-68455912D01*
X60794167Y-68455911D01*
X60799537Y-68454556D01*
X60804585Y-68452283D01*
X60804589Y-68452282D01*
X60960398Y-68382138D01*
X60960417Y-68382129D01*
X60961805Y-68381504D01*
X61221910Y-68248677D01*
X61547753Y-68073498D01*
X61907235Y-67873387D01*
X61994905Y-67822969D01*
X62041771Y-67796016D01*
X62268257Y-67665766D01*
X62268717Y-67665491D01*
X62597772Y-67468627D01*
X62597799Y-67468610D01*
X62598722Y-67468058D01*
X63754605Y-66721650D01*
X64954435Y-65846641D01*
X65010761Y-65805564D01*
X65010767Y-65805559D01*
X65012576Y-65804240D01*
X65161057Y-65678776D01*
X66134511Y-64856225D01*
X66134515Y-64856221D01*
X66136403Y-64854626D01*
X66164906Y-64826424D01*
X67143520Y-63858122D01*
X67143522Y-63858120D01*
X67145336Y-63856325D01*
X67311452Y-63662893D01*
X68057516Y-62794143D01*
X68058624Y-62792853D01*
X68237721Y-62559924D01*
X68367790Y-62390760D01*
X68367799Y-62390748D01*
X68368288Y-62390112D01*
X68752371Y-61863486D01*
X69099121Y-61365203D01*
X69139657Y-61306952D01*
X69139664Y-61306942D01*
X69139970Y-61306502D01*
X69406113Y-60907747D01*
X69517751Y-60740483D01*
X69518081Y-60739988D01*
X69873700Y-60184773D01*
X70193822Y-59661687D01*
X70465443Y-59191556D01*
X70675559Y-58795211D01*
X70811166Y-58493479D01*
X70859258Y-58307190D01*
X70856319Y-58293025D01*
X70856319Y-58293023D01*
X70842027Y-58224146D01*
X70840872Y-58218579D01*
X70819833Y-58166628D01*
X73111232Y-58166628D01*
X73111427Y-58175877D01*
X73111427Y-58175878D01*
X73112687Y-58235593D01*
X73113771Y-58286932D01*
X73153168Y-58455324D01*
X73235980Y-58699066D01*
X73368764Y-59045424D01*
X73368896Y-59045755D01*
X73368903Y-59045774D01*
X73426854Y-59191556D01*
X73558076Y-59521662D01*
X73662928Y-59787790D01*
X73664592Y-59792265D01*
X74289641Y-61575121D01*
X74292361Y-61583887D01*
X74768326Y-63342352D01*
X74770513Y-63351888D01*
X75105010Y-65122915D01*
X75106445Y-65132533D01*
X75114504Y-65205853D01*
X75288610Y-66789890D01*
X75306402Y-66951768D01*
X75307066Y-66960756D01*
X75368117Y-68571353D01*
X75379275Y-68865698D01*
X75379362Y-68869563D01*
X75383104Y-69393041D01*
X75390022Y-69866805D01*
X75390039Y-69867312D01*
X75390039Y-69867332D01*
X75399097Y-70145084D01*
X75401178Y-70208914D01*
X75401275Y-70210229D01*
X75416736Y-70420353D01*
X75418157Y-70439669D01*
X75442545Y-70579367D01*
X75475926Y-70648309D01*
X75497870Y-70657535D01*
X75506069Y-70660983D01*
X75506070Y-70660983D01*
X75519888Y-70666793D01*
X75577912Y-70662397D01*
X75608392Y-70660088D01*
X75608400Y-70660087D01*
X75611212Y-70659874D01*
X75887109Y-70613762D01*
X76166529Y-70554175D01*
X76273479Y-70531368D01*
X76273486Y-70531366D01*
X76274257Y-70531202D01*
X76515505Y-70473671D01*
X76739086Y-70420353D01*
X76739104Y-70420349D01*
X76739643Y-70420220D01*
X76740197Y-70420077D01*
X76740219Y-70420072D01*
X77249650Y-70288995D01*
X77249712Y-70288978D01*
X77250258Y-70288838D01*
X77250830Y-70288681D01*
X77250859Y-70288673D01*
X77772539Y-70145236D01*
X77772587Y-70145222D01*
X77773090Y-70145084D01*
X78006713Y-70076165D01*
X78274744Y-69997096D01*
X78274799Y-69997079D01*
X78275129Y-69996982D01*
X78275461Y-69996879D01*
X78275527Y-69996859D01*
X78364858Y-69969138D01*
X78425456Y-69950334D01*
X78426713Y-69949885D01*
X78426727Y-69949880D01*
X80392301Y-69247274D01*
X80392307Y-69247272D01*
X80394681Y-69246423D01*
X82283235Y-68395658D01*
X82285454Y-68394434D01*
X82285461Y-68394430D01*
X84083546Y-67402196D01*
X84083559Y-67402188D01*
X84085790Y-67400957D01*
X84251018Y-67291298D01*
X85710509Y-66322653D01*
X85797017Y-66265239D01*
X86331209Y-65843789D01*
X87409874Y-64992778D01*
X87409881Y-64992772D01*
X87411591Y-64991423D01*
X87910838Y-64538318D01*
X87979689Y-64467147D01*
X88126638Y-64315245D01*
X88757720Y-63662893D01*
X89603539Y-62661282D01*
X89679072Y-62560360D01*
X90427642Y-61560171D01*
X90427651Y-61560158D01*
X90428690Y-61558770D01*
X90429661Y-61557313D01*
X91212615Y-60382080D01*
X91212621Y-60382071D01*
X91213572Y-60380643D01*
X91281171Y-60266104D01*
X91938129Y-59152952D01*
X91938131Y-59152948D01*
X91938581Y-59152186D01*
X91969092Y-59097009D01*
X92374576Y-58363706D01*
X92383342Y-58347853D01*
X92021621Y-57647896D01*
X92014341Y-57633809D01*
X92014329Y-57633786D01*
X92014133Y-57633407D01*
X91896952Y-57415442D01*
X91590531Y-56890740D01*
X91227988Y-56310919D01*
X91213627Y-56287951D01*
X91213608Y-56287921D01*
X91213272Y-56287384D01*
X90789179Y-55640853D01*
X90686733Y-55490888D01*
X90342565Y-54987083D01*
X90342554Y-54987067D01*
X90342256Y-54986631D01*
X90312774Y-54945198D01*
X89896964Y-54360840D01*
X89896945Y-54360814D01*
X89896506Y-54360197D01*
X89896043Y-54359577D01*
X89476572Y-53797887D01*
X89476565Y-53797878D01*
X89475934Y-53797033D01*
X89251926Y-53516918D01*
X89105091Y-53333305D01*
X89105084Y-53333296D01*
X89104543Y-53332620D01*
X89040741Y-53257247D01*
X88066747Y-52219685D01*
X87186606Y-51428239D01*
X86949198Y-51214755D01*
X86949188Y-51214747D01*
X86947458Y-51213191D01*
X86945618Y-51211767D01*
X86945607Y-51211758D01*
X85706215Y-50252699D01*
X85704552Y-50251412D01*
X85702827Y-50250253D01*
X85702817Y-50250246D01*
X84361356Y-49349100D01*
X84361355Y-49349099D01*
X84359711Y-49347995D01*
X83615629Y-48913894D01*
X82936304Y-48517572D01*
X82936295Y-48517567D01*
X82934615Y-48516587D01*
X82369507Y-48232542D01*
X81452729Y-47771734D01*
X81452724Y-47771731D01*
X81450942Y-47770836D01*
X80796386Y-47492561D01*
X79932327Y-47125219D01*
X79932320Y-47125216D01*
X79930374Y-47124389D01*
X79928368Y-47123692D01*
X78395919Y-46591354D01*
X78395906Y-46591350D01*
X78394591Y-46590893D01*
X78365512Y-46582216D01*
X78268708Y-46553329D01*
X78268688Y-46553323D01*
X78268198Y-46553177D01*
X77931770Y-46458822D01*
X77924279Y-46456822D01*
X77524178Y-46350004D01*
X77524101Y-46349984D01*
X77523944Y-46349942D01*
X77078281Y-46234893D01*
X77041306Y-46225618D01*
X76789998Y-46162580D01*
X76628342Y-46122030D01*
X76628095Y-46121970D01*
X76628063Y-46121962D01*
X76207992Y-46019783D01*
X76207909Y-46019763D01*
X76207686Y-46019709D01*
X76207446Y-46019653D01*
X76207387Y-46019639D01*
X75850408Y-45936410D01*
X75850404Y-45936409D01*
X75849876Y-45936286D01*
X75849382Y-45936180D01*
X75849347Y-45936172D01*
X75595870Y-45881704D01*
X75588471Y-45880114D01*
X75586727Y-45879841D01*
X75586710Y-45879838D01*
X75474931Y-45862351D01*
X75457033Y-45859551D01*
X75448412Y-45874099D01*
X75446703Y-45886591D01*
X75446702Y-45886592D01*
X75439280Y-45940831D01*
X75428664Y-46018401D01*
X75410925Y-46297553D01*
X75408945Y-46350004D01*
X75396289Y-46685245D01*
X75396213Y-46687249D01*
X75396203Y-46687712D01*
X75396201Y-46687766D01*
X75394473Y-46764868D01*
X75385544Y-47163184D01*
X75385540Y-47163590D01*
X75385539Y-47163634D01*
X75379949Y-47700018D01*
X75379914Y-47701984D01*
X75377521Y-47793105D01*
X75342907Y-49111380D01*
X75342563Y-49117945D01*
X75231292Y-50533766D01*
X75230444Y-50541491D01*
X75039728Y-51893695D01*
X75037101Y-51912318D01*
X75035769Y-51920023D01*
X74751959Y-53304569D01*
X74750388Y-53311294D01*
X74367366Y-54768660D01*
X74366267Y-54772581D01*
X74296933Y-55005502D01*
X74296141Y-55008064D01*
X74126667Y-55536026D01*
X74125835Y-55538526D01*
X73930556Y-56105829D01*
X73929817Y-56107916D01*
X73723565Y-56674336D01*
X73722784Y-56676418D01*
X73640517Y-56889954D01*
X73520662Y-57201053D01*
X73519516Y-57203921D01*
X73336900Y-57645355D01*
X73334698Y-57650368D01*
X73185643Y-57970538D01*
X73184874Y-57972160D01*
X73138995Y-58067147D01*
X73111232Y-58166628D01*
X70819833Y-58166628D01*
X70743714Y-57978671D01*
X70574629Y-57636555D01*
X70572715Y-57633023D01*
X70347077Y-57216764D01*
X70346712Y-57216090D01*
X70073059Y-56741134D01*
X69766766Y-56235547D01*
X69684944Y-56106887D01*
X69441556Y-55724173D01*
X69441548Y-55724161D01*
X69440928Y-55723186D01*
X69389683Y-55648669D01*
X68869642Y-54892471D01*
X68680101Y-54616857D01*
X67802690Y-53494914D01*
X67764137Y-53445616D01*
X67764134Y-53445612D01*
X67762672Y-53443743D01*
X67661230Y-53332620D01*
X66795168Y-52383912D01*
X66793472Y-52382054D01*
X65743135Y-51402465D01*
X65741235Y-51400948D01*
X65741228Y-51400942D01*
X64583957Y-50476977D01*
X64583954Y-50476975D01*
X64582296Y-50475651D01*
X63977541Y-50055638D01*
X63282388Y-49572842D01*
X63282365Y-49572827D01*
X63281591Y-49572289D01*
X63180787Y-49506805D01*
X62684250Y-49193246D01*
X62683717Y-49192924D01*
X62683693Y-49192909D01*
X62192923Y-48896273D01*
X62192898Y-48896258D01*
X62192345Y-48895924D01*
X61732383Y-48630289D01*
X61731680Y-48629906D01*
X61731645Y-48629886D01*
X61509508Y-48508762D01*
X61331674Y-48411794D01*
X61017527Y-48255890D01*
X60817254Y-48178028D01*
X60760260Y-48176245D01*
X60728378Y-48175248D01*
X60728377Y-48175248D01*
X60719165Y-48174960D01*
X60498886Y-48233736D01*
X60346013Y-48299797D01*
X60178995Y-48371970D01*
X60178979Y-48371977D01*
X60177011Y-48372828D01*
X60175093Y-48373818D01*
X59742150Y-48597286D01*
X59742139Y-48597292D01*
X59741145Y-48597805D01*
X59178895Y-48914238D01*
X59178290Y-48914598D01*
X58932623Y-49060679D01*
X58932606Y-49060689D01*
X58931771Y-49061186D01*
X58930929Y-49061724D01*
X58930919Y-49061730D01*
X58842912Y-49117945D01*
X58314113Y-49455718D01*
X58313311Y-49456268D01*
X58313285Y-49456285D01*
X57970589Y-49691219D01*
X57644917Y-49914482D01*
X57359648Y-50121109D01*
X56957799Y-50412177D01*
X56957766Y-50412201D01*
X56957191Y-50412618D01*
X56956606Y-50413063D01*
X56956577Y-50413085D01*
X56787945Y-50541491D01*
X56283941Y-50925268D01*
X55658172Y-51427573D01*
X55657410Y-51428225D01*
X55657394Y-51428239D01*
X55442079Y-51612685D01*
X55112892Y-51894676D01*
X54890993Y-52103858D01*
X54682180Y-52300704D01*
X54682168Y-52300716D01*
X54681106Y-52301717D01*
X54680068Y-52302792D01*
X54601740Y-52383912D01*
X54492800Y-52496734D01*
X53823975Y-53249955D01*
X53134195Y-54110530D01*
X53133407Y-54111602D01*
X53133400Y-54111611D01*
X52452752Y-55037458D01*
X52452028Y-55038443D01*
X52451354Y-55039440D01*
X52451346Y-55039451D01*
X52392209Y-55126899D01*
X51806045Y-55993678D01*
X51224815Y-56936221D01*
X50736908Y-57826056D01*
X50528936Y-58235593D01*
X48408895Y-58235593D01*
X48413613Y-58225078D01*
X48421029Y-58208549D01*
X48083010Y-57416401D01*
X48071731Y-57389969D01*
X48071075Y-57388402D01*
X47931914Y-57049699D01*
X47930518Y-57046151D01*
X47652304Y-56306067D01*
X47651057Y-56302596D01*
X47645842Y-56287384D01*
X47524147Y-55932452D01*
X47371070Y-55485990D01*
X47370080Y-55482978D01*
X47106878Y-54647360D01*
X47105911Y-54644141D01*
X46953056Y-54109480D01*
X46878165Y-53847522D01*
X46877030Y-53843272D01*
X46865761Y-53797887D01*
X46744108Y-53307966D01*
X46703275Y-53143522D01*
X46702069Y-53138171D01*
X46608828Y-52677853D01*
X46531380Y-52295499D01*
X46530505Y-52290699D01*
X46519289Y-52221635D01*
X46345742Y-51153066D01*
X46345043Y-51148157D01*
X46317873Y-50925779D01*
X46203902Y-49992963D01*
X46203400Y-49988060D01*
X46197288Y-49914030D01*
X46159492Y-49456285D01*
X46110214Y-48859464D01*
X46109881Y-48853971D01*
X46075355Y-47962305D01*
X47932488Y-47962305D01*
X47932629Y-47964490D01*
X47932629Y-47964503D01*
X47968221Y-48517572D01*
X48015810Y-49257076D01*
X48054856Y-49572289D01*
X48168817Y-50492291D01*
X48184369Y-50617844D01*
X48433375Y-52011628D01*
X48433750Y-52013237D01*
X48433750Y-52013238D01*
X48741072Y-53332620D01*
X48758035Y-53405447D01*
X49153559Y-54766321D01*
X49211876Y-54945198D01*
X49212012Y-54945599D01*
X49212022Y-54945628D01*
X49273780Y-55127217D01*
X49344512Y-55335195D01*
X49344746Y-55335837D01*
X49344756Y-55335865D01*
X49398409Y-55482978D01*
X49458838Y-55648669D01*
X49544225Y-55857221D01*
X49546817Y-55861477D01*
X49546819Y-55861481D01*
X49580399Y-55916618D01*
X49590042Y-55932452D01*
X49607624Y-55916618D01*
X49645937Y-55882112D01*
X49650612Y-55877902D01*
X49654357Y-55872852D01*
X49654360Y-55872848D01*
X49739762Y-55757667D01*
X49773076Y-55712737D01*
X49924978Y-55475950D01*
X50001674Y-55354813D01*
X50323770Y-54846081D01*
X50327968Y-54839868D01*
X51296166Y-53494914D01*
X51301818Y-53487639D01*
X51432187Y-53331936D01*
X52405378Y-52169630D01*
X52411038Y-52163315D01*
X52668661Y-51894676D01*
X52979890Y-51570138D01*
X53628117Y-50894191D01*
X53633979Y-50888463D01*
X54941832Y-49691219D01*
X54948122Y-49685831D01*
X55089820Y-49572289D01*
X56323912Y-48583417D01*
X56330911Y-48578197D01*
X57754135Y-47591807D01*
X57757368Y-47589639D01*
X57906651Y-47492862D01*
X57906664Y-47492853D01*
X57907115Y-47492561D01*
X58036750Y-47404941D01*
X58164844Y-47318363D01*
X58164863Y-47318349D01*
X58165833Y-47317694D01*
X58344749Y-47186810D01*
X58411911Y-47122698D01*
X62991350Y-47122698D01*
X62998174Y-47132204D01*
X63004938Y-47137605D01*
X63004940Y-47137607D01*
X63103317Y-47216160D01*
X63103328Y-47216169D01*
X63104694Y-47217259D01*
X63320108Y-47370133D01*
X63320615Y-47370477D01*
X63320616Y-47370478D01*
X63376921Y-47408715D01*
X63618398Y-47572705D01*
X63618760Y-47572944D01*
X63618762Y-47572945D01*
X63973323Y-47806704D01*
X63973719Y-47806966D01*
X64210723Y-47964503D01*
X64343120Y-48052508D01*
X64348321Y-48056158D01*
X64828855Y-48411794D01*
X65889047Y-49196428D01*
X65896733Y-49202596D01*
X67359891Y-50473928D01*
X67366881Y-50480485D01*
X68732403Y-51862619D01*
X68738918Y-51869739D01*
X69985152Y-53341120D01*
X69991344Y-53349051D01*
X70294055Y-53770515D01*
X71010961Y-54768660D01*
X71098475Y-54890506D01*
X71101221Y-54894489D01*
X71254939Y-55126899D01*
X71491637Y-55477472D01*
X71491942Y-55477909D01*
X71491945Y-55477914D01*
X71496542Y-55484510D01*
X71687399Y-55758348D01*
X71825235Y-55945351D01*
X71888159Y-56014304D01*
X71893193Y-56012935D01*
X71903934Y-55994817D01*
X71934828Y-55942701D01*
X71950290Y-55916618D01*
X71965808Y-55877902D01*
X72041364Y-55689389D01*
X72041367Y-55689381D01*
X72041856Y-55688161D01*
X72094605Y-55538526D01*
X72159156Y-55355410D01*
X72159169Y-55355373D01*
X72159366Y-55354813D01*
X72294296Y-54943820D01*
X72438122Y-54482430D01*
X72548799Y-54110530D01*
X72582205Y-53998279D01*
X72582221Y-53998225D01*
X72582320Y-53997891D01*
X72718366Y-53517450D01*
X72837737Y-53068355D01*
X72931909Y-52677853D01*
X73101334Y-51863215D01*
X73307178Y-50619516D01*
X73335817Y-50446480D01*
X73335818Y-50446473D01*
X73336098Y-50444781D01*
X73339649Y-50412618D01*
X73487477Y-49073474D01*
X73487478Y-49073467D01*
X73487684Y-49071597D01*
X73552939Y-47775828D01*
X73552894Y-47773608D01*
X73528739Y-46591041D01*
X73528738Y-46591024D01*
X73528710Y-46589640D01*
X73523170Y-46503972D01*
X73505212Y-46226312D01*
X73505211Y-46226300D01*
X73505167Y-46225618D01*
X73479667Y-45923904D01*
X73448977Y-45735404D01*
X73425743Y-45679882D01*
X73410877Y-45644356D01*
X73410876Y-45644354D01*
X73404791Y-45629814D01*
X73392350Y-45619824D01*
X73365376Y-45598166D01*
X73338803Y-45576829D01*
X73327747Y-45573298D01*
X73327746Y-45573298D01*
X73285845Y-45559918D01*
X73242708Y-45546143D01*
X73239013Y-45545434D01*
X73239008Y-45545433D01*
X73202578Y-45538446D01*
X73199481Y-45537852D01*
X72975018Y-45517600D01*
X72627165Y-45502369D01*
X72626498Y-45502354D01*
X72626483Y-45502353D01*
X72190316Y-45492222D01*
X72190281Y-45492221D01*
X72189875Y-45492212D01*
X72189421Y-45492207D01*
X72189399Y-45492207D01*
X72071275Y-45491000D01*
X71697099Y-45487178D01*
X71696791Y-45487178D01*
X71425853Y-45487252D01*
X71182789Y-45487319D01*
X70851575Y-45490861D01*
X70681262Y-45492682D01*
X70681244Y-45492682D01*
X70680898Y-45492686D01*
X70680578Y-45492693D01*
X70680547Y-45492694D01*
X70550971Y-45495722D01*
X70225378Y-45503330D01*
X70224815Y-45503354D01*
X70224783Y-45503355D01*
X69937214Y-45515597D01*
X69850180Y-45519302D01*
X69848951Y-45519403D01*
X69848928Y-45519404D01*
X69590809Y-45540526D01*
X69590806Y-45540526D01*
X69589258Y-45540653D01*
X69587741Y-45540853D01*
X69587726Y-45540855D01*
X68989944Y-45619824D01*
X68695832Y-45658677D01*
X68158420Y-45740324D01*
X67883177Y-45782141D01*
X67883163Y-45782143D01*
X67882395Y-45782260D01*
X67138021Y-45915569D01*
X66411659Y-46067777D01*
X65652258Y-46248057D01*
X65524747Y-46281043D01*
X65181403Y-46377503D01*
X64783812Y-46496798D01*
X64783516Y-46496891D01*
X64783486Y-46496900D01*
X64745119Y-46508929D01*
X64362907Y-46628760D01*
X63949622Y-46763221D01*
X63574891Y-46890013D01*
X63574426Y-46890179D01*
X63270628Y-46998617D01*
X63270603Y-46998626D01*
X63269646Y-46998968D01*
X63064821Y-47079919D01*
X63060708Y-47082314D01*
X63007004Y-47113583D01*
X63007003Y-47113584D01*
X62991350Y-47122698D01*
X58411911Y-47122698D01*
X58397912Y-47100951D01*
X58257673Y-47025597D01*
X58133528Y-46978167D01*
X57987213Y-46922267D01*
X57987201Y-46922263D01*
X57985859Y-46921750D01*
X57606009Y-46795882D01*
X57605285Y-46795662D01*
X57605274Y-46795658D01*
X57142225Y-46654636D01*
X57142208Y-46654631D01*
X57141663Y-46654465D01*
X56616358Y-46503972D01*
X56363499Y-46435178D01*
X56053922Y-46350952D01*
X56053870Y-46350938D01*
X56053634Y-46350874D01*
X56053380Y-46350808D01*
X56053330Y-46350795D01*
X55477398Y-46201740D01*
X55477031Y-46201645D01*
X55410656Y-46185385D01*
X54910524Y-46062862D01*
X54910458Y-46062846D01*
X54910085Y-46062755D01*
X54909704Y-46062668D01*
X54909637Y-46062652D01*
X54377008Y-45940831D01*
X54376985Y-45940826D01*
X54376338Y-45940678D01*
X54375711Y-45940548D01*
X54375692Y-45940544D01*
X54153155Y-45894455D01*
X53899327Y-45841885D01*
X53898392Y-45841722D01*
X53898380Y-45841720D01*
X53683469Y-45804323D01*
X53502591Y-45772848D01*
X53501895Y-45772744D01*
X53501814Y-45772731D01*
X53475938Y-45768869D01*
X53475688Y-45768832D01*
X53254765Y-45735404D01*
X53136689Y-45717538D01*
X53136572Y-45717520D01*
X52982290Y-45693577D01*
X52843321Y-45672011D01*
X52842462Y-45671874D01*
X52656376Y-45641679D01*
X52656328Y-45641672D01*
X52655924Y-45641606D01*
X52502583Y-45618651D01*
X52501225Y-45618509D01*
X52501202Y-45618506D01*
X52253721Y-45592617D01*
X52097577Y-45576282D01*
X51862047Y-45559594D01*
X51599464Y-45540988D01*
X51599446Y-45540987D01*
X51598798Y-45540941D01*
X51598155Y-45540909D01*
X51598134Y-45540908D01*
X51039586Y-45513344D01*
X51039573Y-45513343D01*
X51039077Y-45513319D01*
X50451243Y-45494109D01*
X50368905Y-45492682D01*
X49868673Y-45484012D01*
X49868620Y-45484012D01*
X49868126Y-45484003D01*
X49627381Y-45483866D01*
X49323241Y-45483693D01*
X49322556Y-45483693D01*
X49094036Y-45488589D01*
X48848519Y-45493848D01*
X48848506Y-45493849D01*
X48847363Y-45493873D01*
X48475376Y-45515233D01*
X48472801Y-45515596D01*
X48472788Y-45515597D01*
X48243393Y-45547908D01*
X48243387Y-45547909D01*
X48239427Y-45548467D01*
X48216748Y-45554669D01*
X48186771Y-45562866D01*
X48186767Y-45562867D01*
X48180523Y-45564575D01*
X48174756Y-45567524D01*
X48174753Y-45567525D01*
X48146314Y-45582067D01*
X48099957Y-45605770D01*
X48046446Y-45689083D01*
X48044012Y-45699743D01*
X48011464Y-45842294D01*
X48010564Y-45846234D01*
X47982883Y-46108942D01*
X47953976Y-46508929D01*
X47953952Y-46509348D01*
X47953949Y-46509393D01*
X47943713Y-46687766D01*
X47939194Y-46766511D01*
X47937248Y-47113583D01*
X47933360Y-47806853D01*
X47932488Y-47962305D01*
X46075355Y-47962305D01*
X46068937Y-47796565D01*
X46068860Y-47789626D01*
X46084323Y-46845772D01*
X46084474Y-46841334D01*
X46122264Y-46109994D01*
X46136323Y-45837920D01*
X46121618Y-45840226D01*
X45777273Y-45894229D01*
X45776623Y-45894331D01*
X45660494Y-45915044D01*
X45354451Y-45978706D01*
X45353863Y-45978839D01*
X45353824Y-45978848D01*
X45189715Y-46016118D01*
X44972232Y-46065509D01*
X44971811Y-46065611D01*
X44971781Y-46065618D01*
X44797287Y-46107891D01*
X44570258Y-46162891D01*
X43542784Y-46458700D01*
X42952432Y-46628662D01*
X42755894Y-46685245D01*
X42458117Y-46795882D01*
X40913511Y-47369769D01*
X40806282Y-47409609D01*
X40803966Y-47410691D01*
X40803963Y-47410692D01*
X39985237Y-47793105D01*
X38933244Y-48284473D01*
X38931034Y-48285734D01*
X38931021Y-48285741D01*
X37557310Y-49069723D01*
X37134367Y-49311098D01*
X37132270Y-49312530D01*
X37132264Y-49312534D01*
X35431864Y-50473928D01*
X35407242Y-50490745D01*
X35405328Y-50492285D01*
X35405320Y-50492291D01*
X33750779Y-51823611D01*
X33749457Y-51824675D01*
X33748213Y-51825793D01*
X33748197Y-51825807D01*
X33647668Y-51916187D01*
X33589366Y-51968603D01*
X33588152Y-51969821D01*
X33060356Y-52499323D01*
X33060342Y-52499338D01*
X33059073Y-52500611D01*
X33057867Y-52501970D01*
X33057860Y-52501978D01*
X32555461Y-53068355D01*
X32485099Y-53147677D01*
X32183912Y-53518011D01*
X31919383Y-53843272D01*
X31888725Y-53880968D01*
X31888048Y-53881864D01*
X31312022Y-54644141D01*
X31291234Y-54671650D01*
X30713909Y-55490888D01*
X30713310Y-55491803D01*
X30713296Y-55491824D01*
X30429307Y-55925833D01*
X30178030Y-56309850D01*
X30177403Y-56310896D01*
X30177389Y-56310919D01*
X29705712Y-57098314D01*
X29704881Y-57099702D01*
X29315743Y-57831609D01*
X29315302Y-57832509D01*
X29315297Y-57832518D01*
X29085011Y-58302062D01*
X29085011Y-58302064D01*
X29077034Y-58318328D01*
X20955500Y-58318328D01*
X20955500Y-43622677D01*
X48324022Y-43622677D01*
X49705926Y-43610232D01*
X49707748Y-43610230D01*
X50541469Y-43615604D01*
X50548187Y-43615827D01*
X52565900Y-43736881D01*
X52575592Y-43737840D01*
X54545695Y-44009969D01*
X54555611Y-44011747D01*
X56462901Y-44433138D01*
X56468905Y-44434620D01*
X56662611Y-44487515D01*
X56665038Y-44488205D01*
X56943080Y-44570287D01*
X57195455Y-44644793D01*
X57197986Y-44645569D01*
X57491044Y-44738822D01*
X57777931Y-44830112D01*
X57779891Y-44830754D01*
X57996564Y-44903735D01*
X58373958Y-45030851D01*
X58375871Y-45031512D01*
X58948476Y-45234679D01*
X58950665Y-45235479D01*
X59465836Y-45429071D01*
X59468874Y-45430258D01*
X59806850Y-45567525D01*
X59890150Y-45601357D01*
X59895889Y-45603856D01*
X60140129Y-45717527D01*
X60190663Y-45741046D01*
X60191785Y-45741575D01*
X60323209Y-45804323D01*
X60326347Y-45805821D01*
X60570695Y-45890944D01*
X60741591Y-45910066D01*
X60806609Y-45890944D01*
X60836153Y-45882255D01*
X60836157Y-45882254D01*
X60838026Y-45881704D01*
X61073391Y-45796469D01*
X61371440Y-45679882D01*
X61392919Y-45671480D01*
X61392921Y-45671479D01*
X61393420Y-45671284D01*
X61757591Y-45521642D01*
X61763028Y-45519404D01*
X61982486Y-45429060D01*
X62116536Y-45373876D01*
X62121813Y-45371842D01*
X63872834Y-44741797D01*
X63882237Y-44738824D01*
X65652144Y-44254762D01*
X65661937Y-44252499D01*
X67475266Y-43909207D01*
X67484913Y-43907765D01*
X67650140Y-43889572D01*
X69364505Y-43700801D01*
X69373481Y-43700137D01*
X71344149Y-43625121D01*
X71348021Y-43625033D01*
X71879932Y-43621332D01*
X72351254Y-43614494D01*
X72351787Y-43614477D01*
X72351812Y-43614476D01*
X72481922Y-43610224D01*
X72691297Y-43603382D01*
X72692598Y-43603286D01*
X72692609Y-43603285D01*
X72836773Y-43592602D01*
X72920389Y-43586406D01*
X72991718Y-43573822D01*
X73050104Y-43563522D01*
X73050107Y-43563521D01*
X73058859Y-43561977D01*
X73066837Y-43558060D01*
X73066841Y-43558059D01*
X73110774Y-43536491D01*
X73110775Y-43536490D01*
X73127036Y-43528507D01*
X73145247Y-43484407D01*
X73142730Y-43456926D01*
X73110377Y-43280731D01*
X73051865Y-43010122D01*
X73046643Y-42985970D01*
X73046634Y-42985930D01*
X73046556Y-42985569D01*
X72958681Y-42604872D01*
X72854169Y-42172073D01*
X72774447Y-41856984D01*
X72755257Y-41793572D01*
X72446004Y-40771700D01*
X72169989Y-39859658D01*
X72160143Y-39834620D01*
X71413019Y-37934869D01*
X71413017Y-37934864D01*
X71412080Y-37932482D01*
X71072177Y-37240033D01*
X70503364Y-36081247D01*
X70503358Y-36081236D01*
X70502231Y-36078940D01*
X70407771Y-35920679D01*
X78351726Y-35920679D01*
X78385563Y-36365512D01*
X78458810Y-36805575D01*
X78459513Y-36808283D01*
X78570180Y-37234667D01*
X78570183Y-37234678D01*
X78570886Y-37237385D01*
X78720903Y-37657523D01*
X78907675Y-38062662D01*
X79129721Y-38449593D01*
X79385285Y-38815255D01*
X79672342Y-39156750D01*
X79988619Y-39471376D01*
X80331613Y-39756641D01*
X80698608Y-40010286D01*
X81086697Y-40230304D01*
X81089246Y-40231463D01*
X81089250Y-40231465D01*
X81490262Y-40413795D01*
X81490273Y-40413800D01*
X81492808Y-40414952D01*
X81495434Y-40415874D01*
X81495446Y-40415879D01*
X81735140Y-40500052D01*
X81913725Y-40562767D01*
X81916445Y-40563458D01*
X81916449Y-40563459D01*
X82343403Y-40671892D01*
X82346116Y-40672581D01*
X82348866Y-40673024D01*
X82348876Y-40673026D01*
X82783786Y-40743076D01*
X82783793Y-40743077D01*
X82786557Y-40743522D01*
X82789358Y-40743720D01*
X82789364Y-40743721D01*
X82928754Y-40753590D01*
X83184530Y-40771700D01*
X83476150Y-40771700D01*
X83477556Y-40771637D01*
X83477573Y-40771637D01*
X83764747Y-40758847D01*
X83808476Y-40756900D01*
X83811249Y-40756528D01*
X83811255Y-40756527D01*
X83956639Y-40736999D01*
X84250623Y-40697512D01*
X84253355Y-40696894D01*
X84253365Y-40696892D01*
X84517217Y-40637188D01*
X84685740Y-40599055D01*
X84688393Y-40598201D01*
X84688399Y-40598199D01*
X84865117Y-40541291D01*
X85110383Y-40462308D01*
X85112935Y-40461227D01*
X85112944Y-40461224D01*
X85518614Y-40289445D01*
X85518615Y-40289445D01*
X85521188Y-40288355D01*
X85523646Y-40287045D01*
X85523655Y-40287041D01*
X85912449Y-40079879D01*
X85914904Y-40078571D01*
X86019454Y-40010286D01*
X86286079Y-39836144D01*
X86286083Y-39836141D01*
X86288412Y-39834620D01*
X86385304Y-39758237D01*
X86636563Y-39560160D01*
X86636565Y-39560158D01*
X86638756Y-39558431D01*
X86963161Y-39252192D01*
X87049647Y-39154609D01*
X87257193Y-38920434D01*
X87257198Y-38920427D01*
X87259059Y-38918328D01*
X87524106Y-38559482D01*
X87756206Y-38178495D01*
X87953518Y-37778384D01*
X88114482Y-37362318D01*
X88237823Y-36933590D01*
X88322564Y-36495594D01*
X88342609Y-36299961D01*
X88367750Y-36054579D01*
X88368035Y-36051800D01*
X88369752Y-35920679D01*
X88373837Y-35608531D01*
X88373874Y-35605721D01*
X88340037Y-35160888D01*
X88266790Y-34720825D01*
X88230155Y-34579675D01*
X88155420Y-34291733D01*
X88155417Y-34291722D01*
X88154714Y-34289015D01*
X88004697Y-33868877D01*
X87817925Y-33463738D01*
X87595879Y-33076807D01*
X87505638Y-32947689D01*
X87341921Y-32713443D01*
X87340315Y-32711145D01*
X87053258Y-32369650D01*
X86736981Y-32055024D01*
X86393987Y-31769759D01*
X86026992Y-31516114D01*
X85638903Y-31296096D01*
X85636350Y-31294935D01*
X85235338Y-31112605D01*
X85235327Y-31112600D01*
X85232792Y-31111448D01*
X85230166Y-31110526D01*
X85230154Y-31110521D01*
X84990460Y-31026348D01*
X84811875Y-30963633D01*
X84809155Y-30962942D01*
X84809151Y-30962941D01*
X84382197Y-30854508D01*
X84379484Y-30853819D01*
X84376734Y-30853376D01*
X84376724Y-30853374D01*
X83941814Y-30783324D01*
X83941807Y-30783323D01*
X83939043Y-30782878D01*
X83936242Y-30782680D01*
X83936236Y-30782679D01*
X83796846Y-30772810D01*
X83541070Y-30754700D01*
X83249450Y-30754700D01*
X83248044Y-30754763D01*
X83248027Y-30754763D01*
X82960853Y-30767553D01*
X82917124Y-30769500D01*
X82914351Y-30769872D01*
X82914345Y-30769873D01*
X82768961Y-30789401D01*
X82474977Y-30828888D01*
X82472245Y-30829506D01*
X82472235Y-30829508D01*
X82208383Y-30889212D01*
X82039860Y-30927345D01*
X82037207Y-30928199D01*
X82037201Y-30928201D01*
X81929323Y-30962941D01*
X81615217Y-31064092D01*
X81612665Y-31065173D01*
X81612656Y-31065176D01*
X81500649Y-31112605D01*
X81204412Y-31238045D01*
X81201954Y-31239355D01*
X81201945Y-31239359D01*
X81092868Y-31297479D01*
X80810696Y-31447829D01*
X80808369Y-31449349D01*
X80808367Y-31449350D01*
X80703703Y-31517710D01*
X80437188Y-31691780D01*
X80435001Y-31693504D01*
X80434997Y-31693507D01*
X80338272Y-31769759D01*
X80086844Y-31967969D01*
X79762439Y-32274208D01*
X79760569Y-32276318D01*
X79468407Y-32605966D01*
X79468402Y-32605973D01*
X79466541Y-32608072D01*
X79201494Y-32966918D01*
X78969394Y-33347905D01*
X78772082Y-33748016D01*
X78611118Y-34164082D01*
X78610341Y-34166784D01*
X78610340Y-34166786D01*
X78490403Y-34583683D01*
X78487777Y-34592810D01*
X78403036Y-35030806D01*
X78357565Y-35474600D01*
X78357528Y-35477390D01*
X78357528Y-35477398D01*
X78355812Y-35608531D01*
X78351726Y-35920679D01*
X70407771Y-35920679D01*
X70219785Y-35605721D01*
X69442995Y-34304266D01*
X69441953Y-34302520D01*
X69440803Y-34300851D01*
X69440795Y-34300838D01*
X68698011Y-33222512D01*
X68696940Y-33220957D01*
X67781348Y-32049255D01*
X67707532Y-31967969D01*
X66930768Y-31112605D01*
X66811539Y-30981311D01*
X66465628Y-30655705D01*
X65766261Y-29997389D01*
X65766256Y-29997385D01*
X65764495Y-29995727D01*
X64617200Y-29071107D01*
X63346636Y-28186054D01*
X61929786Y-27319172D01*
X61929193Y-27318827D01*
X61929169Y-27318813D01*
X61602247Y-27128792D01*
X61602237Y-27128786D01*
X61602006Y-27128652D01*
X61393815Y-27010751D01*
X61245183Y-26926579D01*
X61245176Y-26926575D01*
X61243127Y-26925415D01*
X61240992Y-26924410D01*
X61240984Y-26924406D01*
X60976752Y-26800042D01*
X60976751Y-26800042D01*
X60971013Y-26797341D01*
X60964851Y-26795842D01*
X60964849Y-26795841D01*
X60820923Y-26760823D01*
X60748307Y-26743155D01*
X60537649Y-26761582D01*
X60529505Y-26764680D01*
X60305445Y-26849913D01*
X60305440Y-26849915D01*
X60301679Y-26851346D01*
X60165164Y-26924406D01*
X60003825Y-27010751D01*
X60003807Y-27010761D01*
X60003039Y-27011172D01*
X59837115Y-27106318D01*
X59604761Y-27239558D01*
X59604699Y-27239594D01*
X59604368Y-27239784D01*
X58695131Y-27777980D01*
X58693902Y-27778788D01*
X58693884Y-27778799D01*
X58072624Y-28187123D01*
X57321778Y-28680617D01*
X57320143Y-28681850D01*
X57320141Y-28681852D01*
X56095233Y-29606040D01*
X56095226Y-29606045D01*
X56093374Y-29607443D01*
X55018019Y-30552173D01*
X55016124Y-30554155D01*
X55016116Y-30554163D01*
X54363411Y-31236955D01*
X54103812Y-31508520D01*
X54102089Y-31510671D01*
X54102087Y-31510674D01*
X53140812Y-32711145D01*
X52949905Y-32949555D01*
X51835140Y-34581632D01*
X51833956Y-34583683D01*
X50971894Y-36076738D01*
X50843009Y-36299961D01*
X50841983Y-36302093D01*
X50130264Y-37780896D01*
X49985182Y-38082345D01*
X49946730Y-38180884D01*
X49291641Y-39859658D01*
X49273328Y-39906587D01*
X49272602Y-39909002D01*
X49272598Y-39909014D01*
X49013307Y-40771700D01*
X48719119Y-41750488D01*
X48708072Y-41793870D01*
X48708018Y-41794088D01*
X48707998Y-41794168D01*
X48614623Y-42172073D01*
X48597452Y-42241566D01*
X48499127Y-42661809D01*
X48423429Y-43009181D01*
X48380688Y-43238265D01*
X48380520Y-43239408D01*
X48380516Y-43239429D01*
X48348867Y-43454133D01*
X48324022Y-43622677D01*
X20955500Y-43622677D01*
X20955500Y-35920679D01*
X33419126Y-35920679D01*
X33452963Y-36365512D01*
X33526210Y-36805575D01*
X33526913Y-36808283D01*
X33637580Y-37234667D01*
X33637583Y-37234678D01*
X33638286Y-37237385D01*
X33788303Y-37657523D01*
X33975075Y-38062662D01*
X34197121Y-38449593D01*
X34452685Y-38815255D01*
X34739742Y-39156750D01*
X35056019Y-39471376D01*
X35399013Y-39756641D01*
X35766008Y-40010286D01*
X36154097Y-40230304D01*
X36156646Y-40231463D01*
X36156650Y-40231465D01*
X36557662Y-40413795D01*
X36557673Y-40413800D01*
X36560208Y-40414952D01*
X36562834Y-40415874D01*
X36562846Y-40415879D01*
X36802540Y-40500052D01*
X36981125Y-40562767D01*
X36983845Y-40563458D01*
X36983849Y-40563459D01*
X37410803Y-40671892D01*
X37413516Y-40672581D01*
X37416266Y-40673024D01*
X37416276Y-40673026D01*
X37851186Y-40743076D01*
X37851193Y-40743077D01*
X37853957Y-40743522D01*
X37856758Y-40743720D01*
X37856764Y-40743721D01*
X37996154Y-40753590D01*
X38251930Y-40771700D01*
X38543550Y-40771700D01*
X38544956Y-40771637D01*
X38544973Y-40771637D01*
X38832147Y-40758847D01*
X38875876Y-40756900D01*
X38878649Y-40756528D01*
X38878655Y-40756527D01*
X39024039Y-40736999D01*
X39318023Y-40697512D01*
X39320755Y-40696894D01*
X39320765Y-40696892D01*
X39584617Y-40637188D01*
X39753140Y-40599055D01*
X39755793Y-40598201D01*
X39755799Y-40598199D01*
X39932517Y-40541291D01*
X40177783Y-40462308D01*
X40180335Y-40461227D01*
X40180344Y-40461224D01*
X40586014Y-40289445D01*
X40586015Y-40289445D01*
X40588588Y-40288355D01*
X40591046Y-40287045D01*
X40591055Y-40287041D01*
X40979849Y-40079879D01*
X40982304Y-40078571D01*
X41086854Y-40010286D01*
X41353479Y-39836144D01*
X41353483Y-39836141D01*
X41355812Y-39834620D01*
X41452704Y-39758237D01*
X41703963Y-39560160D01*
X41703965Y-39560158D01*
X41706156Y-39558431D01*
X42030561Y-39252192D01*
X42117047Y-39154609D01*
X42324593Y-38920434D01*
X42324598Y-38920427D01*
X42326459Y-38918328D01*
X42591506Y-38559482D01*
X42823606Y-38178495D01*
X43020918Y-37778384D01*
X43181882Y-37362318D01*
X43305223Y-36933590D01*
X43389964Y-36495594D01*
X43410009Y-36299961D01*
X43435150Y-36054579D01*
X43435435Y-36051800D01*
X43437152Y-35920679D01*
X43441237Y-35608531D01*
X43441274Y-35605721D01*
X43407437Y-35160888D01*
X43334190Y-34720825D01*
X43297555Y-34579675D01*
X43222820Y-34291733D01*
X43222817Y-34291722D01*
X43222114Y-34289015D01*
X43072097Y-33868877D01*
X42885325Y-33463738D01*
X42663279Y-33076807D01*
X42573038Y-32947689D01*
X42409321Y-32713443D01*
X42407715Y-32711145D01*
X42120658Y-32369650D01*
X41804381Y-32055024D01*
X41461387Y-31769759D01*
X41094392Y-31516114D01*
X40706303Y-31296096D01*
X40703750Y-31294935D01*
X40302738Y-31112605D01*
X40302727Y-31112600D01*
X40300192Y-31111448D01*
X40297566Y-31110526D01*
X40297554Y-31110521D01*
X40057860Y-31026348D01*
X39879275Y-30963633D01*
X39876555Y-30962942D01*
X39876551Y-30962941D01*
X39449597Y-30854508D01*
X39446884Y-30853819D01*
X39444134Y-30853376D01*
X39444124Y-30853374D01*
X39009214Y-30783324D01*
X39009207Y-30783323D01*
X39006443Y-30782878D01*
X39003642Y-30782680D01*
X39003636Y-30782679D01*
X38864246Y-30772810D01*
X38608470Y-30754700D01*
X38316850Y-30754700D01*
X38315444Y-30754763D01*
X38315427Y-30754763D01*
X38028253Y-30767553D01*
X37984524Y-30769500D01*
X37981751Y-30769872D01*
X37981745Y-30769873D01*
X37836361Y-30789401D01*
X37542377Y-30828888D01*
X37539645Y-30829506D01*
X37539635Y-30829508D01*
X37275783Y-30889212D01*
X37107260Y-30927345D01*
X37104607Y-30928199D01*
X37104601Y-30928201D01*
X36996723Y-30962941D01*
X36682617Y-31064092D01*
X36680065Y-31065173D01*
X36680056Y-31065176D01*
X36568049Y-31112605D01*
X36271812Y-31238045D01*
X36269354Y-31239355D01*
X36269345Y-31239359D01*
X36160268Y-31297479D01*
X35878096Y-31447829D01*
X35875769Y-31449349D01*
X35875767Y-31449350D01*
X35771103Y-31517710D01*
X35504588Y-31691780D01*
X35502401Y-31693504D01*
X35502397Y-31693507D01*
X35405672Y-31769759D01*
X35154244Y-31967969D01*
X34829839Y-32274208D01*
X34827969Y-32276318D01*
X34535807Y-32605966D01*
X34535802Y-32605973D01*
X34533941Y-32608072D01*
X34268894Y-32966918D01*
X34036794Y-33347905D01*
X33839482Y-33748016D01*
X33678518Y-34164082D01*
X33677741Y-34166784D01*
X33677740Y-34166786D01*
X33557803Y-34583683D01*
X33555177Y-34592810D01*
X33470436Y-35030806D01*
X33424965Y-35474600D01*
X33424928Y-35477390D01*
X33424928Y-35477398D01*
X33423212Y-35608531D01*
X33419126Y-35920679D01*
X20955500Y-35920679D01*
X20955500Y-20960703D01*
X24180743Y-20960703D01*
X24218268Y-21245734D01*
X24294129Y-21523036D01*
X24406923Y-21787476D01*
X24554561Y-22034161D01*
X24734313Y-22258528D01*
X24942851Y-22456423D01*
X25176317Y-22624186D01*
X25180112Y-22626195D01*
X25180113Y-22626196D01*
X25201869Y-22637715D01*
X25430392Y-22758712D01*
X25700373Y-22857511D01*
X25981264Y-22918755D01*
X26009841Y-22921004D01*
X26204282Y-22936307D01*
X26204291Y-22936307D01*
X26206739Y-22936500D01*
X29662271Y-22936500D01*
X29664407Y-22936354D01*
X29664418Y-22936354D01*
X29872548Y-22922165D01*
X29872554Y-22922164D01*
X29876825Y-22921873D01*
X29881020Y-22921004D01*
X29881022Y-22921004D01*
X30017584Y-22892723D01*
X30158342Y-22863574D01*
X30429343Y-22767607D01*
X30684812Y-22635750D01*
X30688313Y-22633289D01*
X30688317Y-22633287D01*
X30802417Y-22553096D01*
X30920023Y-22470441D01*
X31130622Y-22274740D01*
X31312713Y-22052268D01*
X31462927Y-21807142D01*
X31578483Y-21543898D01*
X31657244Y-21267406D01*
X31697751Y-20982784D01*
X31697845Y-20964951D01*
X31697867Y-20960703D01*
X90093743Y-20960703D01*
X90131268Y-21245734D01*
X90207129Y-21523036D01*
X90319923Y-21787476D01*
X90467561Y-22034161D01*
X90647313Y-22258528D01*
X90855851Y-22456423D01*
X91089317Y-22624186D01*
X91093112Y-22626195D01*
X91093113Y-22626196D01*
X91114869Y-22637715D01*
X91343392Y-22758712D01*
X91613373Y-22857511D01*
X91894264Y-22918755D01*
X91922841Y-22921004D01*
X92117282Y-22936307D01*
X92117291Y-22936307D01*
X92119739Y-22936500D01*
X95575271Y-22936500D01*
X95577407Y-22936354D01*
X95577418Y-22936354D01*
X95785548Y-22922165D01*
X95785554Y-22922164D01*
X95789825Y-22921873D01*
X95794020Y-22921004D01*
X95794022Y-22921004D01*
X95930584Y-22892723D01*
X96071342Y-22863574D01*
X96342343Y-22767607D01*
X96597812Y-22635750D01*
X96601313Y-22633289D01*
X96601317Y-22633287D01*
X96715418Y-22553095D01*
X96833023Y-22470441D01*
X97043622Y-22274740D01*
X97225713Y-22052268D01*
X97375927Y-21807142D01*
X97491483Y-21543898D01*
X97570244Y-21267406D01*
X97610751Y-20982784D01*
X97610845Y-20964951D01*
X97612235Y-20699583D01*
X97612235Y-20699576D01*
X97612257Y-20695297D01*
X97574732Y-20410266D01*
X97498871Y-20132964D01*
X97386077Y-19868524D01*
X97238439Y-19621839D01*
X97058687Y-19397472D01*
X96850149Y-19199577D01*
X96616683Y-19031814D01*
X96594843Y-19020250D01*
X96571654Y-19007972D01*
X96362608Y-18897288D01*
X96092627Y-18798489D01*
X95811736Y-18737245D01*
X95780685Y-18734801D01*
X95588718Y-18719693D01*
X95588709Y-18719693D01*
X95586261Y-18719500D01*
X92130729Y-18719500D01*
X92128593Y-18719646D01*
X92128582Y-18719646D01*
X91920452Y-18733835D01*
X91920446Y-18733836D01*
X91916175Y-18734127D01*
X91911980Y-18734996D01*
X91911978Y-18734996D01*
X91775417Y-18763276D01*
X91634658Y-18792426D01*
X91363657Y-18888393D01*
X91108188Y-19020250D01*
X91104687Y-19022711D01*
X91104683Y-19022713D01*
X91094594Y-19029804D01*
X90872977Y-19185559D01*
X90662378Y-19381260D01*
X90480287Y-19603732D01*
X90330073Y-19848858D01*
X90214517Y-20112102D01*
X90135756Y-20388594D01*
X90095249Y-20673216D01*
X90095227Y-20677505D01*
X90095226Y-20677512D01*
X90093765Y-20956417D01*
X90093743Y-20960703D01*
X31697867Y-20960703D01*
X31699235Y-20699583D01*
X31699235Y-20699576D01*
X31699257Y-20695297D01*
X31661732Y-20410266D01*
X31585871Y-20132964D01*
X31473077Y-19868524D01*
X31325439Y-19621839D01*
X31145687Y-19397472D01*
X30937149Y-19199577D01*
X30703683Y-19031814D01*
X30681843Y-19020250D01*
X30658654Y-19007972D01*
X30449608Y-18897288D01*
X30179627Y-18798489D01*
X29898736Y-18737245D01*
X29867685Y-18734801D01*
X29675718Y-18719693D01*
X29675709Y-18719693D01*
X29673261Y-18719500D01*
X26217729Y-18719500D01*
X26215593Y-18719646D01*
X26215582Y-18719646D01*
X26007452Y-18733835D01*
X26007446Y-18733836D01*
X26003175Y-18734127D01*
X25998980Y-18734996D01*
X25998978Y-18734996D01*
X25862417Y-18763276D01*
X25721658Y-18792426D01*
X25450657Y-18888393D01*
X25195188Y-19020250D01*
X25191687Y-19022711D01*
X25191683Y-19022713D01*
X25181594Y-19029804D01*
X24959977Y-19185559D01*
X24749378Y-19381260D01*
X24567287Y-19603732D01*
X24417073Y-19848858D01*
X24301517Y-20112102D01*
X24222756Y-20388594D01*
X24182249Y-20673216D01*
X24182227Y-20677505D01*
X24182226Y-20677512D01*
X24180765Y-20956417D01*
X24180743Y-20960703D01*
X20955500Y-20960703D01*
X20955500Y-18414500D01*
X20975502Y-18346379D01*
X21029158Y-18299886D01*
X21081500Y-18288500D01*
X100711500Y-18288500D01*
X100779621Y-18308502D01*
G37*
G04 #@! TD.AperFunction*
M02*
