G04 #@! TF.GenerationSoftware,KiCad,Pcbnew,(6.0.0-0)*
G04 #@! TF.CreationDate,2022-02-14T22:06:53-06:00*
G04 #@! TF.ProjectId,bells-venn,62656c6c-732d-4766-956e-6e2e6b696361,rev?*
G04 #@! TF.SameCoordinates,Original*
G04 #@! TF.FileFunction,Copper,L1,Top*
G04 #@! TF.FilePolarity,Positive*
%FSLAX46Y46*%
G04 Gerber Fmt 4.6, Leading zero omitted, Abs format (unit mm)*
G04 Created by KiCad (PCBNEW (6.0.0-0)) date 2022-02-14 22:06:53*
%MOMM*%
%LPD*%
G01*
G04 APERTURE LIST*
G04 #@! TA.AperFunction,ComponentPad*
%ADD10C,0.600000*%
G04 #@! TD*
G04 APERTURE END LIST*
D10*
X60833000Y-101219000D03*
G04 #@! TA.AperFunction,Conductor*
G36*
X100653121Y-18308002D02*
G01*
X100699614Y-18361658D01*
X100711000Y-18414000D01*
X100711000Y-145644600D01*
X100690998Y-145712721D01*
X100637342Y-145759214D01*
X100585000Y-145770600D01*
X20954000Y-145770600D01*
X20885879Y-145750598D01*
X20839386Y-145696942D01*
X20828000Y-145644600D01*
X20828000Y-143388703D01*
X24053743Y-143388703D01*
X24091268Y-143673734D01*
X24167129Y-143951036D01*
X24279923Y-144215476D01*
X24427561Y-144462161D01*
X24607313Y-144686528D01*
X24815851Y-144884423D01*
X25049317Y-145052186D01*
X25053112Y-145054195D01*
X25053113Y-145054196D01*
X25074869Y-145065715D01*
X25303392Y-145186712D01*
X25573373Y-145285511D01*
X25854264Y-145346755D01*
X25882841Y-145349004D01*
X26077282Y-145364307D01*
X26077291Y-145364307D01*
X26079739Y-145364500D01*
X29535271Y-145364500D01*
X29537407Y-145364354D01*
X29537418Y-145364354D01*
X29745548Y-145350165D01*
X29745554Y-145350164D01*
X29749825Y-145349873D01*
X29754020Y-145349004D01*
X29754022Y-145349004D01*
X29890583Y-145320724D01*
X30031342Y-145291574D01*
X30302343Y-145195607D01*
X30557812Y-145063750D01*
X30561313Y-145061289D01*
X30561317Y-145061287D01*
X30675417Y-144981096D01*
X30793023Y-144898441D01*
X31003622Y-144702740D01*
X31185713Y-144480268D01*
X31335927Y-144235142D01*
X31451483Y-143971898D01*
X31530244Y-143695406D01*
X31570751Y-143410784D01*
X31570845Y-143392951D01*
X31570867Y-143388703D01*
X89966743Y-143388703D01*
X90004268Y-143673734D01*
X90080129Y-143951036D01*
X90192923Y-144215476D01*
X90340561Y-144462161D01*
X90520313Y-144686528D01*
X90728851Y-144884423D01*
X90962317Y-145052186D01*
X90966112Y-145054195D01*
X90966113Y-145054196D01*
X90987869Y-145065715D01*
X91216392Y-145186712D01*
X91486373Y-145285511D01*
X91767264Y-145346755D01*
X91795841Y-145349004D01*
X91990282Y-145364307D01*
X91990291Y-145364307D01*
X91992739Y-145364500D01*
X95448271Y-145364500D01*
X95450407Y-145364354D01*
X95450418Y-145364354D01*
X95658548Y-145350165D01*
X95658554Y-145350164D01*
X95662825Y-145349873D01*
X95667020Y-145349004D01*
X95667022Y-145349004D01*
X95803583Y-145320724D01*
X95944342Y-145291574D01*
X96215343Y-145195607D01*
X96470812Y-145063750D01*
X96474313Y-145061289D01*
X96474317Y-145061287D01*
X96588417Y-144981096D01*
X96706023Y-144898441D01*
X96916622Y-144702740D01*
X97098713Y-144480268D01*
X97248927Y-144235142D01*
X97364483Y-143971898D01*
X97443244Y-143695406D01*
X97483751Y-143410784D01*
X97483845Y-143392951D01*
X97485235Y-143127583D01*
X97485235Y-143127576D01*
X97485257Y-143123297D01*
X97447732Y-142838266D01*
X97371871Y-142560964D01*
X97259077Y-142296524D01*
X97111439Y-142049839D01*
X96931687Y-141825472D01*
X96723149Y-141627577D01*
X96489683Y-141459814D01*
X96467843Y-141448250D01*
X96444654Y-141435972D01*
X96235608Y-141325288D01*
X95965627Y-141226489D01*
X95684736Y-141165245D01*
X95653685Y-141162801D01*
X95461718Y-141147693D01*
X95461709Y-141147693D01*
X95459261Y-141147500D01*
X92003729Y-141147500D01*
X92001593Y-141147646D01*
X92001582Y-141147646D01*
X91793452Y-141161835D01*
X91793446Y-141161836D01*
X91789175Y-141162127D01*
X91784980Y-141162996D01*
X91784978Y-141162996D01*
X91648416Y-141191277D01*
X91507658Y-141220426D01*
X91236657Y-141316393D01*
X90981188Y-141448250D01*
X90977687Y-141450711D01*
X90977683Y-141450713D01*
X90967594Y-141457804D01*
X90745977Y-141613559D01*
X90535378Y-141809260D01*
X90353287Y-142031732D01*
X90203073Y-142276858D01*
X90087517Y-142540102D01*
X90008756Y-142816594D01*
X89968249Y-143101216D01*
X89968227Y-143105505D01*
X89968226Y-143105512D01*
X89966765Y-143384417D01*
X89966743Y-143388703D01*
X31570867Y-143388703D01*
X31572235Y-143127583D01*
X31572235Y-143127576D01*
X31572257Y-143123297D01*
X31534732Y-142838266D01*
X31458871Y-142560964D01*
X31346077Y-142296524D01*
X31198439Y-142049839D01*
X31018687Y-141825472D01*
X30810149Y-141627577D01*
X30576683Y-141459814D01*
X30554843Y-141448250D01*
X30531654Y-141435972D01*
X30322608Y-141325288D01*
X30052627Y-141226489D01*
X29771736Y-141165245D01*
X29740685Y-141162801D01*
X29548718Y-141147693D01*
X29548709Y-141147693D01*
X29546261Y-141147500D01*
X26090729Y-141147500D01*
X26088593Y-141147646D01*
X26088582Y-141147646D01*
X25880452Y-141161835D01*
X25880446Y-141161836D01*
X25876175Y-141162127D01*
X25871980Y-141162996D01*
X25871978Y-141162996D01*
X25735416Y-141191277D01*
X25594658Y-141220426D01*
X25323657Y-141316393D01*
X25068188Y-141448250D01*
X25064687Y-141450711D01*
X25064683Y-141450713D01*
X25054594Y-141457804D01*
X24832977Y-141613559D01*
X24622378Y-141809260D01*
X24440287Y-142031732D01*
X24290073Y-142276858D01*
X24174517Y-142540102D01*
X24095756Y-142816594D01*
X24055249Y-143101216D01*
X24055227Y-143105505D01*
X24055226Y-143105512D01*
X24053765Y-143384417D01*
X24053743Y-143388703D01*
X20828000Y-143388703D01*
X20828000Y-128778000D01*
X23464411Y-128778000D01*
X23484754Y-129166176D01*
X23485267Y-129169416D01*
X23485268Y-129169424D01*
X23495326Y-129232924D01*
X23545562Y-129550099D01*
X23646167Y-129925562D01*
X23647352Y-129928650D01*
X23647353Y-129928652D01*
X23700634Y-130067453D01*
X23785468Y-130288453D01*
X23961938Y-130634794D01*
X24173643Y-130960793D01*
X24418266Y-131262876D01*
X24693124Y-131537734D01*
X24695682Y-131539806D01*
X24695686Y-131539809D01*
X24774102Y-131603309D01*
X24995207Y-131782357D01*
X25321206Y-131994062D01*
X25324140Y-131995557D01*
X25324147Y-131995561D01*
X25445831Y-132057562D01*
X25667547Y-132170532D01*
X26030438Y-132309833D01*
X26405901Y-132410438D01*
X26609793Y-132442732D01*
X26786576Y-132470732D01*
X26786584Y-132470733D01*
X26789824Y-132471246D01*
X27080894Y-132486500D01*
X27275106Y-132486500D01*
X27566176Y-132471246D01*
X27569416Y-132470733D01*
X27569424Y-132470732D01*
X27746207Y-132442732D01*
X27950099Y-132410438D01*
X28325562Y-132309833D01*
X28688453Y-132170532D01*
X28910169Y-132057562D01*
X29031853Y-131995561D01*
X29031860Y-131995557D01*
X29034794Y-131994062D01*
X29360793Y-131782357D01*
X29581898Y-131603309D01*
X29660314Y-131539809D01*
X29660318Y-131539806D01*
X29662876Y-131537734D01*
X29937734Y-131262876D01*
X30182357Y-130960793D01*
X30352825Y-130698295D01*
X30392264Y-130637564D01*
X30392266Y-130637561D01*
X30394062Y-130634795D01*
X30395562Y-130631853D01*
X30569034Y-130291393D01*
X30570532Y-130288453D01*
X30655366Y-130067453D01*
X30708647Y-129928652D01*
X30708648Y-129928650D01*
X30709833Y-129925562D01*
X30810438Y-129550099D01*
X30860674Y-129232924D01*
X30870732Y-129169424D01*
X30870733Y-129169416D01*
X30871246Y-129166176D01*
X30891589Y-128778000D01*
X36926411Y-128778000D01*
X36946754Y-129166176D01*
X36947267Y-129169416D01*
X36947268Y-129169424D01*
X36957326Y-129232924D01*
X37007562Y-129550099D01*
X37108167Y-129925562D01*
X37109352Y-129928650D01*
X37109353Y-129928652D01*
X37162634Y-130067453D01*
X37247468Y-130288453D01*
X37423938Y-130634794D01*
X37635643Y-130960793D01*
X37880266Y-131262876D01*
X38155124Y-131537734D01*
X38157682Y-131539806D01*
X38157686Y-131539809D01*
X38236102Y-131603309D01*
X38457207Y-131782357D01*
X38783206Y-131994062D01*
X38786140Y-131995557D01*
X38786147Y-131995561D01*
X38907831Y-132057562D01*
X39129547Y-132170532D01*
X39492438Y-132309833D01*
X39867901Y-132410438D01*
X40071793Y-132442732D01*
X40248576Y-132470732D01*
X40248584Y-132470733D01*
X40251824Y-132471246D01*
X40542894Y-132486500D01*
X40737106Y-132486500D01*
X41028176Y-132471246D01*
X41031416Y-132470733D01*
X41031424Y-132470732D01*
X41208207Y-132442732D01*
X41412099Y-132410438D01*
X41787562Y-132309833D01*
X42150453Y-132170532D01*
X42372169Y-132057562D01*
X42493853Y-131995561D01*
X42493860Y-131995557D01*
X42496794Y-131994062D01*
X42822793Y-131782357D01*
X43043898Y-131603309D01*
X43122314Y-131539809D01*
X43122318Y-131539806D01*
X43124876Y-131537734D01*
X43399734Y-131262876D01*
X43644357Y-130960793D01*
X43814825Y-130698295D01*
X43854264Y-130637564D01*
X43854266Y-130637561D01*
X43856062Y-130634795D01*
X43857562Y-130631853D01*
X44031034Y-130291393D01*
X44032532Y-130288453D01*
X44117366Y-130067453D01*
X44170647Y-129928652D01*
X44170648Y-129928650D01*
X44171833Y-129925562D01*
X44272438Y-129550099D01*
X44322674Y-129232924D01*
X44332732Y-129169424D01*
X44332733Y-129169416D01*
X44333246Y-129166176D01*
X44353589Y-128778000D01*
X50388411Y-128778000D01*
X50408754Y-129166176D01*
X50409267Y-129169416D01*
X50409268Y-129169424D01*
X50419326Y-129232924D01*
X50469562Y-129550099D01*
X50570167Y-129925562D01*
X50571352Y-129928650D01*
X50571353Y-129928652D01*
X50624634Y-130067453D01*
X50709468Y-130288453D01*
X50885938Y-130634794D01*
X51097643Y-130960793D01*
X51342266Y-131262876D01*
X51617124Y-131537734D01*
X51619682Y-131539806D01*
X51619686Y-131539809D01*
X51698102Y-131603309D01*
X51919207Y-131782357D01*
X52245206Y-131994062D01*
X52248140Y-131995557D01*
X52248147Y-131995561D01*
X52369831Y-132057562D01*
X52591547Y-132170532D01*
X52954438Y-132309833D01*
X53329901Y-132410438D01*
X53533793Y-132442732D01*
X53710576Y-132470732D01*
X53710584Y-132470733D01*
X53713824Y-132471246D01*
X54004894Y-132486500D01*
X54199106Y-132486500D01*
X54490176Y-132471246D01*
X54493416Y-132470733D01*
X54493424Y-132470732D01*
X54670207Y-132442732D01*
X54874099Y-132410438D01*
X55249562Y-132309833D01*
X55612453Y-132170532D01*
X55834169Y-132057562D01*
X55955853Y-131995561D01*
X55955860Y-131995557D01*
X55958794Y-131994062D01*
X56284793Y-131782357D01*
X56505898Y-131603309D01*
X56584314Y-131539809D01*
X56584318Y-131539806D01*
X56586876Y-131537734D01*
X56861734Y-131262876D01*
X57106357Y-130960793D01*
X57276825Y-130698295D01*
X57316264Y-130637564D01*
X57316266Y-130637561D01*
X57318062Y-130634795D01*
X57319562Y-130631853D01*
X57493034Y-130291393D01*
X57494532Y-130288453D01*
X57579366Y-130067453D01*
X57632647Y-129928652D01*
X57632648Y-129928650D01*
X57633833Y-129925562D01*
X57734438Y-129550099D01*
X57784674Y-129232924D01*
X57794732Y-129169424D01*
X57794733Y-129169416D01*
X57795246Y-129166176D01*
X57815589Y-128778000D01*
X63850411Y-128778000D01*
X63870754Y-129166176D01*
X63871267Y-129169416D01*
X63871268Y-129169424D01*
X63881326Y-129232924D01*
X63931562Y-129550099D01*
X64032167Y-129925562D01*
X64033352Y-129928650D01*
X64033353Y-129928652D01*
X64086634Y-130067453D01*
X64171468Y-130288453D01*
X64347938Y-130634794D01*
X64559643Y-130960793D01*
X64804266Y-131262876D01*
X65079124Y-131537734D01*
X65081682Y-131539806D01*
X65081686Y-131539809D01*
X65160102Y-131603309D01*
X65381207Y-131782357D01*
X65707206Y-131994062D01*
X65710140Y-131995557D01*
X65710147Y-131995561D01*
X65831831Y-132057562D01*
X66053547Y-132170532D01*
X66416438Y-132309833D01*
X66791901Y-132410438D01*
X66995793Y-132442732D01*
X67172576Y-132470732D01*
X67172584Y-132470733D01*
X67175824Y-132471246D01*
X67466894Y-132486500D01*
X67661106Y-132486500D01*
X67952176Y-132471246D01*
X67955416Y-132470733D01*
X67955424Y-132470732D01*
X68132207Y-132442732D01*
X68336099Y-132410438D01*
X68711562Y-132309833D01*
X69074453Y-132170532D01*
X69296169Y-132057562D01*
X69417853Y-131995561D01*
X69417860Y-131995557D01*
X69420794Y-131994062D01*
X69746793Y-131782357D01*
X69967898Y-131603309D01*
X70046314Y-131539809D01*
X70046318Y-131539806D01*
X70048876Y-131537734D01*
X70323734Y-131262876D01*
X70568357Y-130960793D01*
X70738825Y-130698295D01*
X70778264Y-130637564D01*
X70778266Y-130637561D01*
X70780062Y-130634795D01*
X70781562Y-130631853D01*
X70955034Y-130291393D01*
X70956532Y-130288453D01*
X71041366Y-130067453D01*
X71094647Y-129928652D01*
X71094648Y-129928650D01*
X71095833Y-129925562D01*
X71196438Y-129550099D01*
X71246674Y-129232924D01*
X71256732Y-129169424D01*
X71256733Y-129169416D01*
X71257246Y-129166176D01*
X71274261Y-128841500D01*
X77375911Y-128841500D01*
X77396254Y-129229676D01*
X77457062Y-129613599D01*
X77557667Y-129989062D01*
X77696968Y-130351953D01*
X77698466Y-130354893D01*
X77841084Y-130634795D01*
X77873438Y-130698294D01*
X78085143Y-131024293D01*
X78087218Y-131026855D01*
X78278345Y-131262876D01*
X78329766Y-131326376D01*
X78604624Y-131601234D01*
X78906707Y-131845857D01*
X79232706Y-132057562D01*
X79235640Y-132059057D01*
X79235647Y-132059061D01*
X79456745Y-132171716D01*
X79579047Y-132234032D01*
X79941938Y-132373333D01*
X80317401Y-132473938D01*
X80521293Y-132506232D01*
X80698076Y-132534232D01*
X80698084Y-132534233D01*
X80701324Y-132534746D01*
X80992394Y-132550000D01*
X81186606Y-132550000D01*
X81477676Y-132534746D01*
X81480916Y-132534233D01*
X81480924Y-132534232D01*
X81657707Y-132506232D01*
X81861599Y-132473938D01*
X82237062Y-132373333D01*
X82599953Y-132234032D01*
X82722255Y-132171716D01*
X82943353Y-132059061D01*
X82943360Y-132059057D01*
X82946294Y-132057562D01*
X83272293Y-131845857D01*
X83574376Y-131601234D01*
X83849234Y-131326376D01*
X83900656Y-131262876D01*
X84091782Y-131026855D01*
X84093857Y-131024293D01*
X84095652Y-131021529D01*
X84303764Y-130701064D01*
X84303766Y-130701061D01*
X84305562Y-130698295D01*
X84307062Y-130695353D01*
X84480534Y-130354893D01*
X84482032Y-130351953D01*
X84621333Y-129989062D01*
X84721938Y-129613599D01*
X84782746Y-129229676D01*
X84803089Y-128841500D01*
X84799761Y-128778000D01*
X90774411Y-128778000D01*
X90794754Y-129166176D01*
X90795267Y-129169416D01*
X90795268Y-129169424D01*
X90805326Y-129232924D01*
X90855562Y-129550099D01*
X90956167Y-129925562D01*
X90957352Y-129928650D01*
X90957353Y-129928652D01*
X91010634Y-130067453D01*
X91095468Y-130288453D01*
X91271938Y-130634794D01*
X91483643Y-130960793D01*
X91728266Y-131262876D01*
X92003124Y-131537734D01*
X92005682Y-131539806D01*
X92005686Y-131539809D01*
X92084102Y-131603309D01*
X92305207Y-131782357D01*
X92631206Y-131994062D01*
X92634140Y-131995557D01*
X92634147Y-131995561D01*
X92755831Y-132057562D01*
X92977547Y-132170532D01*
X93340438Y-132309833D01*
X93715901Y-132410438D01*
X93919793Y-132442732D01*
X94096576Y-132470732D01*
X94096584Y-132470733D01*
X94099824Y-132471246D01*
X94390894Y-132486500D01*
X94585106Y-132486500D01*
X94876176Y-132471246D01*
X94879416Y-132470733D01*
X94879424Y-132470732D01*
X95056207Y-132442732D01*
X95260099Y-132410438D01*
X95635562Y-132309833D01*
X95998453Y-132170532D01*
X96220169Y-132057562D01*
X96341853Y-131995561D01*
X96341860Y-131995557D01*
X96344794Y-131994062D01*
X96670793Y-131782357D01*
X96891898Y-131603309D01*
X96970314Y-131539809D01*
X96970318Y-131539806D01*
X96972876Y-131537734D01*
X97247734Y-131262876D01*
X97492357Y-130960793D01*
X97662825Y-130698295D01*
X97702264Y-130637564D01*
X97702266Y-130637561D01*
X97704062Y-130634795D01*
X97705562Y-130631853D01*
X97879034Y-130291393D01*
X97880532Y-130288453D01*
X97965366Y-130067453D01*
X98018647Y-129928652D01*
X98018648Y-129928650D01*
X98019833Y-129925562D01*
X98120438Y-129550099D01*
X98170674Y-129232924D01*
X98180732Y-129169424D01*
X98180733Y-129169416D01*
X98181246Y-129166176D01*
X98201589Y-128778000D01*
X98181246Y-128389824D01*
X98120438Y-128005901D01*
X98019833Y-127630438D01*
X97880532Y-127267547D01*
X97879034Y-127264607D01*
X97705561Y-126924147D01*
X97705557Y-126924140D01*
X97704062Y-126921206D01*
X97492357Y-126595207D01*
X97301230Y-126359186D01*
X97249809Y-126295686D01*
X97249806Y-126295682D01*
X97247734Y-126293124D01*
X96972876Y-126018266D01*
X96670793Y-125773643D01*
X96344794Y-125561938D01*
X96341860Y-125560443D01*
X96341853Y-125560439D01*
X96001393Y-125386966D01*
X95998453Y-125385468D01*
X95635562Y-125246167D01*
X95260099Y-125145562D01*
X95056207Y-125113268D01*
X94879424Y-125085268D01*
X94879416Y-125085267D01*
X94876176Y-125084754D01*
X94585106Y-125069500D01*
X94390894Y-125069500D01*
X94099824Y-125084754D01*
X94096584Y-125085267D01*
X94096576Y-125085268D01*
X93919793Y-125113268D01*
X93715901Y-125145562D01*
X93340438Y-125246167D01*
X92977547Y-125385468D01*
X92974607Y-125386966D01*
X92634147Y-125560439D01*
X92634140Y-125560443D01*
X92631206Y-125561938D01*
X92305207Y-125773643D01*
X92003124Y-126018266D01*
X91728266Y-126293124D01*
X91726194Y-126295682D01*
X91726191Y-126295686D01*
X91674770Y-126359186D01*
X91483643Y-126595207D01*
X91481848Y-126597970D01*
X91481848Y-126597971D01*
X91273736Y-126918436D01*
X91273734Y-126918439D01*
X91271938Y-126921205D01*
X91270443Y-126924139D01*
X91270439Y-126924146D01*
X91238084Y-126987647D01*
X91095468Y-127267547D01*
X90956167Y-127630438D01*
X90855562Y-128005901D01*
X90794754Y-128389824D01*
X90774411Y-128778000D01*
X84799761Y-128778000D01*
X84782746Y-128453324D01*
X84772689Y-128389824D01*
X84722454Y-128072662D01*
X84721938Y-128069401D01*
X84621333Y-127693938D01*
X84595772Y-127627348D01*
X84483216Y-127334132D01*
X84482032Y-127331047D01*
X84305562Y-126984706D01*
X84093857Y-126658707D01*
X83849234Y-126356624D01*
X83574376Y-126081766D01*
X83498847Y-126020603D01*
X83274855Y-125839218D01*
X83272293Y-125837143D01*
X82946294Y-125625438D01*
X82943360Y-125623943D01*
X82943353Y-125623939D01*
X82602893Y-125450466D01*
X82599953Y-125448968D01*
X82237062Y-125309667D01*
X81861599Y-125209062D01*
X81657707Y-125176768D01*
X81480924Y-125148768D01*
X81480916Y-125148767D01*
X81477676Y-125148254D01*
X81186606Y-125133000D01*
X80992394Y-125133000D01*
X80701324Y-125148254D01*
X80698084Y-125148767D01*
X80698076Y-125148768D01*
X80521293Y-125176768D01*
X80317401Y-125209062D01*
X79941938Y-125309667D01*
X79579047Y-125448968D01*
X79576107Y-125450466D01*
X79235647Y-125623939D01*
X79235640Y-125623943D01*
X79232706Y-125625438D01*
X78906707Y-125837143D01*
X78904145Y-125839218D01*
X78680154Y-126020603D01*
X78604624Y-126081766D01*
X78329766Y-126356624D01*
X78085143Y-126658707D01*
X78083348Y-126661470D01*
X78083348Y-126661471D01*
X77875236Y-126981936D01*
X77875234Y-126981939D01*
X77873438Y-126984705D01*
X77871943Y-126987639D01*
X77871939Y-126987646D01*
X77730821Y-127264607D01*
X77696968Y-127331047D01*
X77695784Y-127334132D01*
X77583229Y-127627348D01*
X77557667Y-127693938D01*
X77457062Y-128069401D01*
X77456546Y-128072662D01*
X77406312Y-128389824D01*
X77396254Y-128453324D01*
X77375911Y-128841500D01*
X71274261Y-128841500D01*
X71277589Y-128778000D01*
X71257246Y-128389824D01*
X71196438Y-128005901D01*
X71095833Y-127630438D01*
X70956532Y-127267547D01*
X70955034Y-127264607D01*
X70781561Y-126924147D01*
X70781557Y-126924140D01*
X70780062Y-126921206D01*
X70568357Y-126595207D01*
X70377230Y-126359186D01*
X70325809Y-126295686D01*
X70325806Y-126295682D01*
X70323734Y-126293124D01*
X70048876Y-126018266D01*
X69746793Y-125773643D01*
X69420794Y-125561938D01*
X69417860Y-125560443D01*
X69417853Y-125560439D01*
X69077393Y-125386966D01*
X69074453Y-125385468D01*
X68711562Y-125246167D01*
X68336099Y-125145562D01*
X68132207Y-125113268D01*
X67955424Y-125085268D01*
X67955416Y-125085267D01*
X67952176Y-125084754D01*
X67661106Y-125069500D01*
X67466894Y-125069500D01*
X67175824Y-125084754D01*
X67172584Y-125085267D01*
X67172576Y-125085268D01*
X66995793Y-125113268D01*
X66791901Y-125145562D01*
X66416438Y-125246167D01*
X66053547Y-125385468D01*
X66050607Y-125386966D01*
X65710147Y-125560439D01*
X65710140Y-125560443D01*
X65707206Y-125561938D01*
X65381207Y-125773643D01*
X65079124Y-126018266D01*
X64804266Y-126293124D01*
X64802194Y-126295682D01*
X64802191Y-126295686D01*
X64750770Y-126359186D01*
X64559643Y-126595207D01*
X64557848Y-126597970D01*
X64557848Y-126597971D01*
X64349736Y-126918436D01*
X64349734Y-126918439D01*
X64347938Y-126921205D01*
X64346443Y-126924139D01*
X64346439Y-126924146D01*
X64314084Y-126987647D01*
X64171468Y-127267547D01*
X64032167Y-127630438D01*
X63931562Y-128005901D01*
X63870754Y-128389824D01*
X63850411Y-128778000D01*
X57815589Y-128778000D01*
X57795246Y-128389824D01*
X57734438Y-128005901D01*
X57633833Y-127630438D01*
X57494532Y-127267547D01*
X57493034Y-127264607D01*
X57319561Y-126924147D01*
X57319557Y-126924140D01*
X57318062Y-126921206D01*
X57106357Y-126595207D01*
X56915230Y-126359186D01*
X56863809Y-126295686D01*
X56863806Y-126295682D01*
X56861734Y-126293124D01*
X56586876Y-126018266D01*
X56284793Y-125773643D01*
X55958794Y-125561938D01*
X55955860Y-125560443D01*
X55955853Y-125560439D01*
X55615393Y-125386966D01*
X55612453Y-125385468D01*
X55249562Y-125246167D01*
X54874099Y-125145562D01*
X54670207Y-125113268D01*
X54493424Y-125085268D01*
X54493416Y-125085267D01*
X54490176Y-125084754D01*
X54199106Y-125069500D01*
X54004894Y-125069500D01*
X53713824Y-125084754D01*
X53710584Y-125085267D01*
X53710576Y-125085268D01*
X53533793Y-125113268D01*
X53329901Y-125145562D01*
X52954438Y-125246167D01*
X52591547Y-125385468D01*
X52588607Y-125386966D01*
X52248147Y-125560439D01*
X52248140Y-125560443D01*
X52245206Y-125561938D01*
X51919207Y-125773643D01*
X51617124Y-126018266D01*
X51342266Y-126293124D01*
X51340194Y-126295682D01*
X51340191Y-126295686D01*
X51288770Y-126359186D01*
X51097643Y-126595207D01*
X51095848Y-126597970D01*
X51095848Y-126597971D01*
X50887736Y-126918436D01*
X50887734Y-126918439D01*
X50885938Y-126921205D01*
X50884443Y-126924139D01*
X50884439Y-126924146D01*
X50852084Y-126987647D01*
X50709468Y-127267547D01*
X50570167Y-127630438D01*
X50469562Y-128005901D01*
X50408754Y-128389824D01*
X50388411Y-128778000D01*
X44353589Y-128778000D01*
X44333246Y-128389824D01*
X44272438Y-128005901D01*
X44171833Y-127630438D01*
X44032532Y-127267547D01*
X44031034Y-127264607D01*
X43857561Y-126924147D01*
X43857557Y-126924140D01*
X43856062Y-126921206D01*
X43644357Y-126595207D01*
X43453230Y-126359186D01*
X43401809Y-126295686D01*
X43401806Y-126295682D01*
X43399734Y-126293124D01*
X43124876Y-126018266D01*
X42822793Y-125773643D01*
X42496794Y-125561938D01*
X42493860Y-125560443D01*
X42493853Y-125560439D01*
X42153393Y-125386966D01*
X42150453Y-125385468D01*
X41787562Y-125246167D01*
X41412099Y-125145562D01*
X41208207Y-125113268D01*
X41031424Y-125085268D01*
X41031416Y-125085267D01*
X41028176Y-125084754D01*
X40737106Y-125069500D01*
X40542894Y-125069500D01*
X40251824Y-125084754D01*
X40248584Y-125085267D01*
X40248576Y-125085268D01*
X40071793Y-125113268D01*
X39867901Y-125145562D01*
X39492438Y-125246167D01*
X39129547Y-125385468D01*
X39126607Y-125386966D01*
X38786147Y-125560439D01*
X38786140Y-125560443D01*
X38783206Y-125561938D01*
X38457207Y-125773643D01*
X38155124Y-126018266D01*
X37880266Y-126293124D01*
X37878194Y-126295682D01*
X37878191Y-126295686D01*
X37826770Y-126359186D01*
X37635643Y-126595207D01*
X37633848Y-126597970D01*
X37633848Y-126597971D01*
X37425736Y-126918436D01*
X37425734Y-126918439D01*
X37423938Y-126921205D01*
X37422443Y-126924139D01*
X37422439Y-126924146D01*
X37390084Y-126987647D01*
X37247468Y-127267547D01*
X37108167Y-127630438D01*
X37007562Y-128005901D01*
X36946754Y-128389824D01*
X36926411Y-128778000D01*
X30891589Y-128778000D01*
X30871246Y-128389824D01*
X30810438Y-128005901D01*
X30709833Y-127630438D01*
X30570532Y-127267547D01*
X30569034Y-127264607D01*
X30395561Y-126924147D01*
X30395557Y-126924140D01*
X30394062Y-126921206D01*
X30182357Y-126595207D01*
X29991230Y-126359186D01*
X29939809Y-126295686D01*
X29939806Y-126295682D01*
X29937734Y-126293124D01*
X29662876Y-126018266D01*
X29360793Y-125773643D01*
X29034794Y-125561938D01*
X29031860Y-125560443D01*
X29031853Y-125560439D01*
X28691393Y-125386966D01*
X28688453Y-125385468D01*
X28325562Y-125246167D01*
X27950099Y-125145562D01*
X27746207Y-125113268D01*
X27569424Y-125085268D01*
X27569416Y-125085267D01*
X27566176Y-125084754D01*
X27275106Y-125069500D01*
X27080894Y-125069500D01*
X26789824Y-125084754D01*
X26786584Y-125085267D01*
X26786576Y-125085268D01*
X26609793Y-125113268D01*
X26405901Y-125145562D01*
X26030438Y-125246167D01*
X25667547Y-125385468D01*
X25664607Y-125386966D01*
X25324147Y-125560439D01*
X25324140Y-125560443D01*
X25321206Y-125561938D01*
X24995207Y-125773643D01*
X24693124Y-126018266D01*
X24418266Y-126293124D01*
X24416194Y-126295682D01*
X24416191Y-126295686D01*
X24364770Y-126359186D01*
X24173643Y-126595207D01*
X24171848Y-126597970D01*
X24171848Y-126597971D01*
X23963736Y-126918436D01*
X23963734Y-126918439D01*
X23961938Y-126921205D01*
X23960443Y-126924139D01*
X23960439Y-126924146D01*
X23928084Y-126987647D01*
X23785468Y-127267547D01*
X23646167Y-127630438D01*
X23545562Y-128005901D01*
X23484754Y-128389824D01*
X23464411Y-128778000D01*
X20828000Y-128778000D01*
X20828000Y-113601500D01*
X23464411Y-113601500D01*
X23484754Y-113989676D01*
X23545562Y-114373599D01*
X23646167Y-114749062D01*
X23785468Y-115111953D01*
X23786966Y-115114893D01*
X23929584Y-115394795D01*
X23961938Y-115458294D01*
X24173643Y-115784293D01*
X24175718Y-115786855D01*
X24366845Y-116022876D01*
X24418266Y-116086376D01*
X24693124Y-116361234D01*
X24995207Y-116605857D01*
X25321206Y-116817562D01*
X25324140Y-116819057D01*
X25324147Y-116819061D01*
X25545245Y-116931716D01*
X25667547Y-116994032D01*
X26030438Y-117133333D01*
X26405901Y-117233938D01*
X26609793Y-117266232D01*
X26786576Y-117294232D01*
X26786584Y-117294233D01*
X26789824Y-117294746D01*
X27080894Y-117310000D01*
X27275106Y-117310000D01*
X27566176Y-117294746D01*
X27569416Y-117294233D01*
X27569424Y-117294232D01*
X27746207Y-117266232D01*
X27950099Y-117233938D01*
X28325562Y-117133333D01*
X28688453Y-116994032D01*
X28810755Y-116931716D01*
X29031853Y-116819061D01*
X29031860Y-116819057D01*
X29034794Y-116817562D01*
X29360793Y-116605857D01*
X29662876Y-116361234D01*
X29937734Y-116086376D01*
X29989156Y-116022876D01*
X30180282Y-115786855D01*
X30182357Y-115784293D01*
X30184152Y-115781529D01*
X30392264Y-115461064D01*
X30392266Y-115461061D01*
X30394062Y-115458295D01*
X30395562Y-115455353D01*
X30569034Y-115114893D01*
X30570532Y-115111953D01*
X30709833Y-114749062D01*
X30810438Y-114373599D01*
X30871246Y-113989676D01*
X30891589Y-113601500D01*
X30888261Y-113538000D01*
X36926411Y-113538000D01*
X36946754Y-113926176D01*
X36947267Y-113929416D01*
X36947268Y-113929424D01*
X36957326Y-113992924D01*
X37007562Y-114310099D01*
X37108167Y-114685562D01*
X37109352Y-114688650D01*
X37109353Y-114688652D01*
X37162634Y-114827453D01*
X37247468Y-115048453D01*
X37423938Y-115394794D01*
X37635643Y-115720793D01*
X37880266Y-116022876D01*
X38155124Y-116297734D01*
X38157682Y-116299806D01*
X38157686Y-116299809D01*
X38236102Y-116363309D01*
X38457207Y-116542357D01*
X38783206Y-116754062D01*
X38786140Y-116755557D01*
X38786147Y-116755561D01*
X38907831Y-116817562D01*
X39129547Y-116930532D01*
X39492438Y-117069833D01*
X39867901Y-117170438D01*
X40071793Y-117202732D01*
X40248576Y-117230732D01*
X40248584Y-117230733D01*
X40251824Y-117231246D01*
X40542894Y-117246500D01*
X40737106Y-117246500D01*
X41028176Y-117231246D01*
X41031416Y-117230733D01*
X41031424Y-117230732D01*
X41208207Y-117202732D01*
X41412099Y-117170438D01*
X41787562Y-117069833D01*
X42150453Y-116930532D01*
X42372169Y-116817562D01*
X42493853Y-116755561D01*
X42493860Y-116755557D01*
X42496794Y-116754062D01*
X42822793Y-116542357D01*
X43043898Y-116363309D01*
X43122314Y-116299809D01*
X43122318Y-116299806D01*
X43124876Y-116297734D01*
X43399734Y-116022876D01*
X43644357Y-115720793D01*
X43814825Y-115458295D01*
X43854264Y-115397564D01*
X43854266Y-115397561D01*
X43856062Y-115394795D01*
X43857562Y-115391853D01*
X44031034Y-115051393D01*
X44032532Y-115048453D01*
X44117366Y-114827453D01*
X44170647Y-114688652D01*
X44170648Y-114688650D01*
X44171833Y-114685562D01*
X44272438Y-114310099D01*
X44322674Y-113992924D01*
X44332732Y-113929424D01*
X44332733Y-113929416D01*
X44333246Y-113926176D01*
X44353589Y-113538000D01*
X50388411Y-113538000D01*
X50408754Y-113926176D01*
X50409267Y-113929416D01*
X50409268Y-113929424D01*
X50419326Y-113992924D01*
X50469562Y-114310099D01*
X50570167Y-114685562D01*
X50571352Y-114688650D01*
X50571353Y-114688652D01*
X50624634Y-114827453D01*
X50709468Y-115048453D01*
X50885938Y-115394794D01*
X51097643Y-115720793D01*
X51342266Y-116022876D01*
X51617124Y-116297734D01*
X51619682Y-116299806D01*
X51619686Y-116299809D01*
X51698102Y-116363309D01*
X51919207Y-116542357D01*
X52245206Y-116754062D01*
X52248140Y-116755557D01*
X52248147Y-116755561D01*
X52369831Y-116817562D01*
X52591547Y-116930532D01*
X52954438Y-117069833D01*
X53329901Y-117170438D01*
X53533793Y-117202732D01*
X53710576Y-117230732D01*
X53710584Y-117230733D01*
X53713824Y-117231246D01*
X54004894Y-117246500D01*
X54199106Y-117246500D01*
X54490176Y-117231246D01*
X54493416Y-117230733D01*
X54493424Y-117230732D01*
X54670207Y-117202732D01*
X54874099Y-117170438D01*
X55249562Y-117069833D01*
X55612453Y-116930532D01*
X55834169Y-116817562D01*
X55955853Y-116755561D01*
X55955860Y-116755557D01*
X55958794Y-116754062D01*
X56284793Y-116542357D01*
X56505898Y-116363309D01*
X56584314Y-116299809D01*
X56584318Y-116299806D01*
X56586876Y-116297734D01*
X56861734Y-116022876D01*
X57106357Y-115720793D01*
X57276825Y-115458295D01*
X57316264Y-115397564D01*
X57316266Y-115397561D01*
X57318062Y-115394795D01*
X57319562Y-115391853D01*
X57493034Y-115051393D01*
X57494532Y-115048453D01*
X57579366Y-114827453D01*
X57632647Y-114688652D01*
X57632648Y-114688650D01*
X57633833Y-114685562D01*
X57734438Y-114310099D01*
X57784674Y-113992924D01*
X57794732Y-113929424D01*
X57794733Y-113929416D01*
X57795246Y-113926176D01*
X57815589Y-113538000D01*
X63850411Y-113538000D01*
X63870754Y-113926176D01*
X63871267Y-113929416D01*
X63871268Y-113929424D01*
X63881326Y-113992924D01*
X63931562Y-114310099D01*
X64032167Y-114685562D01*
X64033352Y-114688650D01*
X64033353Y-114688652D01*
X64086634Y-114827453D01*
X64171468Y-115048453D01*
X64347938Y-115394794D01*
X64559643Y-115720793D01*
X64804266Y-116022876D01*
X65079124Y-116297734D01*
X65081682Y-116299806D01*
X65081686Y-116299809D01*
X65160102Y-116363309D01*
X65381207Y-116542357D01*
X65707206Y-116754062D01*
X65710140Y-116755557D01*
X65710147Y-116755561D01*
X65831831Y-116817562D01*
X66053547Y-116930532D01*
X66416438Y-117069833D01*
X66791901Y-117170438D01*
X66995793Y-117202732D01*
X67172576Y-117230732D01*
X67172584Y-117230733D01*
X67175824Y-117231246D01*
X67466894Y-117246500D01*
X67661106Y-117246500D01*
X67952176Y-117231246D01*
X67955416Y-117230733D01*
X67955424Y-117230732D01*
X68132207Y-117202732D01*
X68336099Y-117170438D01*
X68711562Y-117069833D01*
X69074453Y-116930532D01*
X69296169Y-116817562D01*
X69417853Y-116755561D01*
X69417860Y-116755557D01*
X69420794Y-116754062D01*
X69746793Y-116542357D01*
X69967898Y-116363309D01*
X70046314Y-116299809D01*
X70046318Y-116299806D01*
X70048876Y-116297734D01*
X70323734Y-116022876D01*
X70568357Y-115720793D01*
X70738825Y-115458295D01*
X70778264Y-115397564D01*
X70778266Y-115397561D01*
X70780062Y-115394795D01*
X70781562Y-115391853D01*
X70955034Y-115051393D01*
X70956532Y-115048453D01*
X71041366Y-114827453D01*
X71094647Y-114688652D01*
X71094648Y-114688650D01*
X71095833Y-114685562D01*
X71196438Y-114310099D01*
X71246674Y-113992924D01*
X71256732Y-113929424D01*
X71256733Y-113929416D01*
X71257246Y-113926176D01*
X71277589Y-113538000D01*
X77312411Y-113538000D01*
X77332754Y-113926176D01*
X77333267Y-113929416D01*
X77333268Y-113929424D01*
X77343326Y-113992924D01*
X77393562Y-114310099D01*
X77494167Y-114685562D01*
X77495352Y-114688650D01*
X77495353Y-114688652D01*
X77548634Y-114827453D01*
X77633468Y-115048453D01*
X77809938Y-115394794D01*
X78021643Y-115720793D01*
X78266266Y-116022876D01*
X78541124Y-116297734D01*
X78543682Y-116299806D01*
X78543686Y-116299809D01*
X78622102Y-116363309D01*
X78843207Y-116542357D01*
X79169206Y-116754062D01*
X79172140Y-116755557D01*
X79172147Y-116755561D01*
X79293831Y-116817562D01*
X79515547Y-116930532D01*
X79878438Y-117069833D01*
X80253901Y-117170438D01*
X80457793Y-117202732D01*
X80634576Y-117230732D01*
X80634584Y-117230733D01*
X80637824Y-117231246D01*
X80928894Y-117246500D01*
X81123106Y-117246500D01*
X81414176Y-117231246D01*
X81417416Y-117230733D01*
X81417424Y-117230732D01*
X81594207Y-117202732D01*
X81798099Y-117170438D01*
X82173562Y-117069833D01*
X82536453Y-116930532D01*
X82758169Y-116817562D01*
X82879853Y-116755561D01*
X82879860Y-116755557D01*
X82882794Y-116754062D01*
X83208793Y-116542357D01*
X83429898Y-116363309D01*
X83508314Y-116299809D01*
X83508318Y-116299806D01*
X83510876Y-116297734D01*
X83785734Y-116022876D01*
X84030357Y-115720793D01*
X84200825Y-115458295D01*
X84240264Y-115397564D01*
X84240266Y-115397561D01*
X84242062Y-115394795D01*
X84243562Y-115391853D01*
X84417034Y-115051393D01*
X84418532Y-115048453D01*
X84503366Y-114827453D01*
X84556647Y-114688652D01*
X84556648Y-114688650D01*
X84557833Y-114685562D01*
X84658438Y-114310099D01*
X84708674Y-113992924D01*
X84718732Y-113929424D01*
X84718733Y-113929416D01*
X84719246Y-113926176D01*
X84739589Y-113538000D01*
X90774411Y-113538000D01*
X90794754Y-113926176D01*
X90795267Y-113929416D01*
X90795268Y-113929424D01*
X90805326Y-113992924D01*
X90855562Y-114310099D01*
X90956167Y-114685562D01*
X90957352Y-114688650D01*
X90957353Y-114688652D01*
X91010634Y-114827453D01*
X91095468Y-115048453D01*
X91271938Y-115394794D01*
X91483643Y-115720793D01*
X91728266Y-116022876D01*
X92003124Y-116297734D01*
X92005682Y-116299806D01*
X92005686Y-116299809D01*
X92084102Y-116363309D01*
X92305207Y-116542357D01*
X92631206Y-116754062D01*
X92634140Y-116755557D01*
X92634147Y-116755561D01*
X92755831Y-116817562D01*
X92977547Y-116930532D01*
X93340438Y-117069833D01*
X93715901Y-117170438D01*
X93919793Y-117202732D01*
X94096576Y-117230732D01*
X94096584Y-117230733D01*
X94099824Y-117231246D01*
X94390894Y-117246500D01*
X94585106Y-117246500D01*
X94876176Y-117231246D01*
X94879416Y-117230733D01*
X94879424Y-117230732D01*
X95056207Y-117202732D01*
X95260099Y-117170438D01*
X95635562Y-117069833D01*
X95998453Y-116930532D01*
X96220169Y-116817562D01*
X96341853Y-116755561D01*
X96341860Y-116755557D01*
X96344794Y-116754062D01*
X96670793Y-116542357D01*
X96891898Y-116363309D01*
X96970314Y-116299809D01*
X96970318Y-116299806D01*
X96972876Y-116297734D01*
X97247734Y-116022876D01*
X97492357Y-115720793D01*
X97662825Y-115458295D01*
X97702264Y-115397564D01*
X97702266Y-115397561D01*
X97704062Y-115394795D01*
X97705562Y-115391853D01*
X97879034Y-115051393D01*
X97880532Y-115048453D01*
X97965366Y-114827452D01*
X98018647Y-114688652D01*
X98018648Y-114688650D01*
X98019833Y-114685562D01*
X98120438Y-114310099D01*
X98170674Y-113992924D01*
X98180732Y-113929424D01*
X98180733Y-113929416D01*
X98181246Y-113926176D01*
X98201589Y-113538000D01*
X98181246Y-113149824D01*
X98120438Y-112765901D01*
X98019833Y-112390438D01*
X97880532Y-112027547D01*
X97879034Y-112024607D01*
X97705561Y-111684147D01*
X97705557Y-111684140D01*
X97704062Y-111681206D01*
X97492357Y-111355207D01*
X97301230Y-111119186D01*
X97249809Y-111055686D01*
X97249806Y-111055682D01*
X97247734Y-111053124D01*
X96972876Y-110778266D01*
X96670793Y-110533643D01*
X96344794Y-110321938D01*
X96341860Y-110320443D01*
X96341853Y-110320439D01*
X96001393Y-110146966D01*
X95998453Y-110145468D01*
X95635562Y-110006167D01*
X95260099Y-109905562D01*
X95056207Y-109873268D01*
X94879424Y-109845268D01*
X94879416Y-109845267D01*
X94876176Y-109844754D01*
X94585106Y-109829500D01*
X94390894Y-109829500D01*
X94099824Y-109844754D01*
X94096584Y-109845267D01*
X94096576Y-109845268D01*
X93919793Y-109873268D01*
X93715901Y-109905562D01*
X93340438Y-110006167D01*
X92977547Y-110145468D01*
X92974607Y-110146966D01*
X92634147Y-110320439D01*
X92634140Y-110320443D01*
X92631206Y-110321938D01*
X92305207Y-110533643D01*
X92003124Y-110778266D01*
X91728266Y-111053124D01*
X91726194Y-111055682D01*
X91726191Y-111055686D01*
X91674770Y-111119186D01*
X91483643Y-111355207D01*
X91481848Y-111357970D01*
X91481848Y-111357971D01*
X91273736Y-111678436D01*
X91273734Y-111678439D01*
X91271938Y-111681205D01*
X91270443Y-111684139D01*
X91270439Y-111684146D01*
X91238084Y-111747647D01*
X91095468Y-112027547D01*
X90956167Y-112390438D01*
X90855562Y-112765901D01*
X90794754Y-113149824D01*
X90774411Y-113538000D01*
X84739589Y-113538000D01*
X84719246Y-113149824D01*
X84658438Y-112765901D01*
X84557833Y-112390438D01*
X84418532Y-112027547D01*
X84417034Y-112024607D01*
X84243561Y-111684147D01*
X84243557Y-111684140D01*
X84242062Y-111681206D01*
X84030357Y-111355207D01*
X83839230Y-111119186D01*
X83787809Y-111055686D01*
X83787806Y-111055682D01*
X83785734Y-111053124D01*
X83510876Y-110778266D01*
X83208793Y-110533643D01*
X82882794Y-110321938D01*
X82879860Y-110320443D01*
X82879853Y-110320439D01*
X82539393Y-110146966D01*
X82536453Y-110145468D01*
X82173562Y-110006167D01*
X81798099Y-109905562D01*
X81594207Y-109873268D01*
X81417424Y-109845268D01*
X81417416Y-109845267D01*
X81414176Y-109844754D01*
X81123106Y-109829500D01*
X80928894Y-109829500D01*
X80637824Y-109844754D01*
X80634584Y-109845267D01*
X80634576Y-109845268D01*
X80457793Y-109873268D01*
X80253901Y-109905562D01*
X79878438Y-110006167D01*
X79515547Y-110145468D01*
X79512607Y-110146966D01*
X79172147Y-110320439D01*
X79172140Y-110320443D01*
X79169206Y-110321938D01*
X78843207Y-110533643D01*
X78541124Y-110778266D01*
X78266266Y-111053124D01*
X78264194Y-111055682D01*
X78264191Y-111055686D01*
X78212770Y-111119186D01*
X78021643Y-111355207D01*
X78019848Y-111357970D01*
X78019848Y-111357971D01*
X77811736Y-111678436D01*
X77811734Y-111678439D01*
X77809938Y-111681205D01*
X77808443Y-111684139D01*
X77808439Y-111684146D01*
X77776084Y-111747647D01*
X77633468Y-112027547D01*
X77494167Y-112390438D01*
X77393562Y-112765901D01*
X77332754Y-113149824D01*
X77312411Y-113538000D01*
X71277589Y-113538000D01*
X71257246Y-113149824D01*
X71196438Y-112765901D01*
X71095833Y-112390438D01*
X70956532Y-112027547D01*
X70955034Y-112024607D01*
X70781561Y-111684147D01*
X70781557Y-111684140D01*
X70780062Y-111681206D01*
X70568357Y-111355207D01*
X70377230Y-111119186D01*
X70325809Y-111055686D01*
X70325806Y-111055682D01*
X70323734Y-111053124D01*
X70048876Y-110778266D01*
X69746793Y-110533643D01*
X69420794Y-110321938D01*
X69417860Y-110320443D01*
X69417853Y-110320439D01*
X69077393Y-110146966D01*
X69074453Y-110145468D01*
X68711562Y-110006167D01*
X68336099Y-109905562D01*
X68132207Y-109873268D01*
X67955424Y-109845268D01*
X67955416Y-109845267D01*
X67952176Y-109844754D01*
X67661106Y-109829500D01*
X67466894Y-109829500D01*
X67175824Y-109844754D01*
X67172584Y-109845267D01*
X67172576Y-109845268D01*
X66995793Y-109873268D01*
X66791901Y-109905562D01*
X66416438Y-110006167D01*
X66053547Y-110145468D01*
X66050607Y-110146966D01*
X65710147Y-110320439D01*
X65710140Y-110320443D01*
X65707206Y-110321938D01*
X65381207Y-110533643D01*
X65079124Y-110778266D01*
X64804266Y-111053124D01*
X64802194Y-111055682D01*
X64802191Y-111055686D01*
X64750770Y-111119186D01*
X64559643Y-111355207D01*
X64557848Y-111357970D01*
X64557848Y-111357971D01*
X64349736Y-111678436D01*
X64349734Y-111678439D01*
X64347938Y-111681205D01*
X64346443Y-111684139D01*
X64346439Y-111684146D01*
X64314084Y-111747647D01*
X64171468Y-112027547D01*
X64032167Y-112390438D01*
X63931562Y-112765901D01*
X63870754Y-113149824D01*
X63850411Y-113538000D01*
X57815589Y-113538000D01*
X57795246Y-113149824D01*
X57734438Y-112765901D01*
X57633833Y-112390438D01*
X57494532Y-112027547D01*
X57493034Y-112024607D01*
X57319561Y-111684147D01*
X57319557Y-111684140D01*
X57318062Y-111681206D01*
X57106357Y-111355207D01*
X56915230Y-111119186D01*
X56863809Y-111055686D01*
X56863806Y-111055682D01*
X56861734Y-111053124D01*
X56586876Y-110778266D01*
X56284793Y-110533643D01*
X55958794Y-110321938D01*
X55955860Y-110320443D01*
X55955853Y-110320439D01*
X55615393Y-110146966D01*
X55612453Y-110145468D01*
X55249562Y-110006167D01*
X54874099Y-109905562D01*
X54670207Y-109873268D01*
X54493424Y-109845268D01*
X54493416Y-109845267D01*
X54490176Y-109844754D01*
X54199106Y-109829500D01*
X54004894Y-109829500D01*
X53713824Y-109844754D01*
X53710584Y-109845267D01*
X53710576Y-109845268D01*
X53533793Y-109873268D01*
X53329901Y-109905562D01*
X52954438Y-110006167D01*
X52591547Y-110145468D01*
X52588607Y-110146966D01*
X52248147Y-110320439D01*
X52248140Y-110320443D01*
X52245206Y-110321938D01*
X51919207Y-110533643D01*
X51617124Y-110778266D01*
X51342266Y-111053124D01*
X51340194Y-111055682D01*
X51340191Y-111055686D01*
X51288770Y-111119186D01*
X51097643Y-111355207D01*
X51095848Y-111357970D01*
X51095848Y-111357971D01*
X50887736Y-111678436D01*
X50887734Y-111678439D01*
X50885938Y-111681205D01*
X50884443Y-111684139D01*
X50884439Y-111684146D01*
X50852084Y-111747647D01*
X50709468Y-112027547D01*
X50570167Y-112390438D01*
X50469562Y-112765901D01*
X50408754Y-113149824D01*
X50388411Y-113538000D01*
X44353589Y-113538000D01*
X44333246Y-113149824D01*
X44272438Y-112765901D01*
X44171833Y-112390438D01*
X44032532Y-112027547D01*
X44031034Y-112024607D01*
X43857561Y-111684147D01*
X43857557Y-111684140D01*
X43856062Y-111681206D01*
X43644357Y-111355207D01*
X43453230Y-111119186D01*
X43401809Y-111055686D01*
X43401806Y-111055682D01*
X43399734Y-111053124D01*
X43124876Y-110778266D01*
X42822793Y-110533643D01*
X42496794Y-110321938D01*
X42493860Y-110320443D01*
X42493853Y-110320439D01*
X42153393Y-110146966D01*
X42150453Y-110145468D01*
X41787562Y-110006167D01*
X41412099Y-109905562D01*
X41208207Y-109873268D01*
X41031424Y-109845268D01*
X41031416Y-109845267D01*
X41028176Y-109844754D01*
X40737106Y-109829500D01*
X40542894Y-109829500D01*
X40251824Y-109844754D01*
X40248584Y-109845267D01*
X40248576Y-109845268D01*
X40071793Y-109873268D01*
X39867901Y-109905562D01*
X39492438Y-110006167D01*
X39129547Y-110145468D01*
X39126607Y-110146966D01*
X38786147Y-110320439D01*
X38786140Y-110320443D01*
X38783206Y-110321938D01*
X38457207Y-110533643D01*
X38155124Y-110778266D01*
X37880266Y-111053124D01*
X37878194Y-111055682D01*
X37878191Y-111055686D01*
X37826770Y-111119186D01*
X37635643Y-111355207D01*
X37633848Y-111357970D01*
X37633848Y-111357971D01*
X37425736Y-111678436D01*
X37425734Y-111678439D01*
X37423938Y-111681205D01*
X37422443Y-111684139D01*
X37422439Y-111684146D01*
X37390084Y-111747647D01*
X37247468Y-112027547D01*
X37108167Y-112390438D01*
X37007562Y-112765901D01*
X36946754Y-113149824D01*
X36926411Y-113538000D01*
X30888261Y-113538000D01*
X30871246Y-113213324D01*
X30861189Y-113149824D01*
X30810954Y-112832662D01*
X30810438Y-112829401D01*
X30709833Y-112453938D01*
X30684272Y-112387348D01*
X30571716Y-112094132D01*
X30570532Y-112091047D01*
X30394062Y-111744706D01*
X30182357Y-111418707D01*
X29937734Y-111116624D01*
X29662876Y-110841766D01*
X29587347Y-110780603D01*
X29363355Y-110599218D01*
X29360793Y-110597143D01*
X29034794Y-110385438D01*
X29031860Y-110383943D01*
X29031853Y-110383939D01*
X28691393Y-110210466D01*
X28688453Y-110208968D01*
X28325562Y-110069667D01*
X27950099Y-109969062D01*
X27746207Y-109936768D01*
X27569424Y-109908768D01*
X27569416Y-109908767D01*
X27566176Y-109908254D01*
X27275106Y-109893000D01*
X27080894Y-109893000D01*
X26789824Y-109908254D01*
X26786584Y-109908767D01*
X26786576Y-109908768D01*
X26609793Y-109936768D01*
X26405901Y-109969062D01*
X26030438Y-110069667D01*
X25667547Y-110208968D01*
X25664607Y-110210466D01*
X25324147Y-110383939D01*
X25324140Y-110383943D01*
X25321206Y-110385438D01*
X24995207Y-110597143D01*
X24992645Y-110599218D01*
X24768654Y-110780603D01*
X24693124Y-110841766D01*
X24418266Y-111116624D01*
X24173643Y-111418707D01*
X24171848Y-111421470D01*
X24171848Y-111421471D01*
X23963736Y-111741936D01*
X23963734Y-111741939D01*
X23961938Y-111744705D01*
X23960443Y-111747639D01*
X23960439Y-111747646D01*
X23819321Y-112024607D01*
X23785468Y-112091047D01*
X23784284Y-112094132D01*
X23671729Y-112387348D01*
X23646167Y-112453938D01*
X23545562Y-112829401D01*
X23545046Y-112832662D01*
X23494812Y-113149824D01*
X23484754Y-113213324D01*
X23464411Y-113601500D01*
X20828000Y-113601500D01*
X20828000Y-98361500D01*
X23464411Y-98361500D01*
X23484754Y-98749676D01*
X23545562Y-99133599D01*
X23646167Y-99509062D01*
X23785468Y-99871953D01*
X23786966Y-99874893D01*
X23929584Y-100154795D01*
X23961938Y-100218294D01*
X24173643Y-100544293D01*
X24175718Y-100546855D01*
X24366845Y-100782876D01*
X24418266Y-100846376D01*
X24693124Y-101121234D01*
X24995207Y-101365857D01*
X25321206Y-101577562D01*
X25324140Y-101579057D01*
X25324147Y-101579061D01*
X25545245Y-101691716D01*
X25667547Y-101754032D01*
X26030438Y-101893333D01*
X26405901Y-101993938D01*
X26609793Y-102026232D01*
X26786576Y-102054232D01*
X26786584Y-102054233D01*
X26789824Y-102054746D01*
X27080894Y-102070000D01*
X27275106Y-102070000D01*
X27566176Y-102054746D01*
X27569416Y-102054233D01*
X27569424Y-102054232D01*
X27746207Y-102026232D01*
X27950099Y-101993938D01*
X28325562Y-101893333D01*
X28688453Y-101754032D01*
X28810755Y-101691716D01*
X29031853Y-101579061D01*
X29031860Y-101579057D01*
X29034794Y-101577562D01*
X29360793Y-101365857D01*
X29662876Y-101121234D01*
X29937734Y-100846376D01*
X29989156Y-100782876D01*
X30180282Y-100546855D01*
X30182357Y-100544293D01*
X30184152Y-100541529D01*
X30392264Y-100221064D01*
X30392266Y-100221061D01*
X30394062Y-100218295D01*
X30395562Y-100215353D01*
X30569034Y-99874893D01*
X30570532Y-99871953D01*
X30709833Y-99509062D01*
X30810438Y-99133599D01*
X30871246Y-98749676D01*
X30891589Y-98361500D01*
X30888261Y-98298000D01*
X36926411Y-98298000D01*
X36946754Y-98686176D01*
X36947267Y-98689416D01*
X36947268Y-98689424D01*
X36957326Y-98752924D01*
X37007562Y-99070099D01*
X37108167Y-99445562D01*
X37109352Y-99448650D01*
X37109353Y-99448652D01*
X37162634Y-99587453D01*
X37247468Y-99808453D01*
X37423938Y-100154794D01*
X37635643Y-100480793D01*
X37880266Y-100782876D01*
X38155124Y-101057734D01*
X38157682Y-101059806D01*
X38157686Y-101059809D01*
X38236102Y-101123309D01*
X38457207Y-101302357D01*
X38783206Y-101514062D01*
X38786140Y-101515557D01*
X38786147Y-101515561D01*
X38907831Y-101577562D01*
X39129547Y-101690532D01*
X39492438Y-101829833D01*
X39867901Y-101930438D01*
X40071793Y-101962732D01*
X40248576Y-101990732D01*
X40248584Y-101990733D01*
X40251824Y-101991246D01*
X40542894Y-102006500D01*
X40737106Y-102006500D01*
X41028176Y-101991246D01*
X41031416Y-101990733D01*
X41031424Y-101990732D01*
X41208207Y-101962732D01*
X41412099Y-101930438D01*
X41787562Y-101829833D01*
X42150453Y-101690532D01*
X42372169Y-101577562D01*
X42493853Y-101515561D01*
X42493860Y-101515557D01*
X42496794Y-101514062D01*
X42822793Y-101302357D01*
X43043898Y-101123309D01*
X43122314Y-101059809D01*
X43122318Y-101059806D01*
X43124876Y-101057734D01*
X43399734Y-100782876D01*
X43644357Y-100480793D01*
X43814825Y-100218295D01*
X43854264Y-100157564D01*
X43854266Y-100157561D01*
X43856062Y-100154795D01*
X43857562Y-100151853D01*
X44031034Y-99811393D01*
X44032532Y-99808453D01*
X44117366Y-99587452D01*
X44170647Y-99448652D01*
X44170648Y-99448650D01*
X44171833Y-99445562D01*
X44272438Y-99070099D01*
X44322674Y-98752924D01*
X44332732Y-98689424D01*
X44332733Y-98689416D01*
X44333246Y-98686176D01*
X44353589Y-98298000D01*
X50388411Y-98298000D01*
X50408754Y-98686176D01*
X50409267Y-98689416D01*
X50409268Y-98689424D01*
X50419326Y-98752924D01*
X50469562Y-99070099D01*
X50570167Y-99445562D01*
X50571352Y-99448650D01*
X50571353Y-99448652D01*
X50624634Y-99587453D01*
X50709468Y-99808453D01*
X50885938Y-100154794D01*
X51097643Y-100480793D01*
X51342266Y-100782876D01*
X51617124Y-101057734D01*
X51619682Y-101059806D01*
X51619686Y-101059809D01*
X51698102Y-101123309D01*
X51919207Y-101302357D01*
X52245206Y-101514062D01*
X52248140Y-101515557D01*
X52248147Y-101515561D01*
X52369831Y-101577562D01*
X52591547Y-101690532D01*
X52954438Y-101829833D01*
X53329901Y-101930438D01*
X53533793Y-101962732D01*
X53710576Y-101990732D01*
X53710584Y-101990733D01*
X53713824Y-101991246D01*
X54004894Y-102006500D01*
X54199106Y-102006500D01*
X54490176Y-101991246D01*
X54493416Y-101990733D01*
X54493424Y-101990732D01*
X54670207Y-101962732D01*
X54874099Y-101930438D01*
X55249562Y-101829833D01*
X55612453Y-101690532D01*
X55834169Y-101577562D01*
X55955853Y-101515561D01*
X55955860Y-101515557D01*
X55958794Y-101514062D01*
X56284793Y-101302357D01*
X56505898Y-101123309D01*
X56584314Y-101059809D01*
X56584318Y-101059806D01*
X56586876Y-101057734D01*
X56861734Y-100782876D01*
X57106357Y-100480793D01*
X57276825Y-100218295D01*
X57316264Y-100157564D01*
X57316266Y-100157561D01*
X57318062Y-100154795D01*
X57319562Y-100151853D01*
X57493034Y-99811393D01*
X57494532Y-99808453D01*
X57579366Y-99587452D01*
X57632647Y-99448652D01*
X57632648Y-99448650D01*
X57633833Y-99445562D01*
X57734438Y-99070099D01*
X57784674Y-98752924D01*
X57794732Y-98689424D01*
X57794733Y-98689416D01*
X57795246Y-98686176D01*
X57815589Y-98298000D01*
X63850411Y-98298000D01*
X63870754Y-98686176D01*
X63871267Y-98689416D01*
X63871268Y-98689424D01*
X63881326Y-98752924D01*
X63931562Y-99070099D01*
X64032167Y-99445562D01*
X64033352Y-99448650D01*
X64033353Y-99448652D01*
X64086634Y-99587453D01*
X64171468Y-99808453D01*
X64347938Y-100154794D01*
X64559643Y-100480793D01*
X64804266Y-100782876D01*
X65079124Y-101057734D01*
X65081682Y-101059806D01*
X65081686Y-101059809D01*
X65160102Y-101123309D01*
X65381207Y-101302357D01*
X65707206Y-101514062D01*
X65710140Y-101515557D01*
X65710147Y-101515561D01*
X65831831Y-101577562D01*
X66053547Y-101690532D01*
X66416438Y-101829833D01*
X66791901Y-101930438D01*
X66995793Y-101962732D01*
X67172576Y-101990732D01*
X67172584Y-101990733D01*
X67175824Y-101991246D01*
X67466894Y-102006500D01*
X67661106Y-102006500D01*
X67952176Y-101991246D01*
X67955416Y-101990733D01*
X67955424Y-101990732D01*
X68132207Y-101962732D01*
X68336099Y-101930438D01*
X68711562Y-101829833D01*
X69074453Y-101690532D01*
X69296169Y-101577562D01*
X69417853Y-101515561D01*
X69417860Y-101515557D01*
X69420794Y-101514062D01*
X69746793Y-101302357D01*
X69967898Y-101123309D01*
X70046314Y-101059809D01*
X70046318Y-101059806D01*
X70048876Y-101057734D01*
X70323734Y-100782876D01*
X70568357Y-100480793D01*
X70738825Y-100218295D01*
X70778264Y-100157564D01*
X70778266Y-100157561D01*
X70780062Y-100154795D01*
X70781562Y-100151853D01*
X70955034Y-99811393D01*
X70956532Y-99808453D01*
X71041366Y-99587452D01*
X71094647Y-99448652D01*
X71094648Y-99448650D01*
X71095833Y-99445562D01*
X71196438Y-99070099D01*
X71246674Y-98752924D01*
X71256732Y-98689424D01*
X71256733Y-98689416D01*
X71257246Y-98686176D01*
X71277589Y-98298000D01*
X77312411Y-98298000D01*
X77332754Y-98686176D01*
X77333267Y-98689416D01*
X77333268Y-98689424D01*
X77343326Y-98752924D01*
X77393562Y-99070099D01*
X77494167Y-99445562D01*
X77495352Y-99448650D01*
X77495353Y-99448652D01*
X77548634Y-99587453D01*
X77633468Y-99808453D01*
X77809938Y-100154794D01*
X78021643Y-100480793D01*
X78266266Y-100782876D01*
X78541124Y-101057734D01*
X78543682Y-101059806D01*
X78543686Y-101059809D01*
X78622102Y-101123309D01*
X78843207Y-101302357D01*
X79169206Y-101514062D01*
X79172140Y-101515557D01*
X79172147Y-101515561D01*
X79293831Y-101577562D01*
X79515547Y-101690532D01*
X79878438Y-101829833D01*
X80253901Y-101930438D01*
X80457793Y-101962732D01*
X80634576Y-101990732D01*
X80634584Y-101990733D01*
X80637824Y-101991246D01*
X80928894Y-102006500D01*
X81123106Y-102006500D01*
X81414176Y-101991246D01*
X81417416Y-101990733D01*
X81417424Y-101990732D01*
X81594207Y-101962732D01*
X81798099Y-101930438D01*
X82173562Y-101829833D01*
X82536453Y-101690532D01*
X82758169Y-101577562D01*
X82879853Y-101515561D01*
X82879860Y-101515557D01*
X82882794Y-101514062D01*
X83208793Y-101302357D01*
X83429898Y-101123309D01*
X83508314Y-101059809D01*
X83508318Y-101059806D01*
X83510876Y-101057734D01*
X83785734Y-100782876D01*
X84030357Y-100480793D01*
X84200825Y-100218295D01*
X84240264Y-100157564D01*
X84240266Y-100157561D01*
X84242062Y-100154795D01*
X84243562Y-100151853D01*
X84417034Y-99811393D01*
X84418532Y-99808453D01*
X84503366Y-99587452D01*
X84556647Y-99448652D01*
X84556648Y-99448650D01*
X84557833Y-99445562D01*
X84658438Y-99070099D01*
X84708674Y-98752924D01*
X84718732Y-98689424D01*
X84718733Y-98689416D01*
X84719246Y-98686176D01*
X84739589Y-98298000D01*
X90774411Y-98298000D01*
X90794754Y-98686176D01*
X90795267Y-98689416D01*
X90795268Y-98689424D01*
X90805326Y-98752924D01*
X90855562Y-99070099D01*
X90956167Y-99445562D01*
X90957352Y-99448650D01*
X90957353Y-99448652D01*
X91010634Y-99587453D01*
X91095468Y-99808453D01*
X91271938Y-100154794D01*
X91483643Y-100480793D01*
X91728266Y-100782876D01*
X92003124Y-101057734D01*
X92005682Y-101059806D01*
X92005686Y-101059809D01*
X92084102Y-101123309D01*
X92305207Y-101302357D01*
X92631206Y-101514062D01*
X92634140Y-101515557D01*
X92634147Y-101515561D01*
X92755831Y-101577562D01*
X92977547Y-101690532D01*
X93340438Y-101829833D01*
X93715901Y-101930438D01*
X93919793Y-101962732D01*
X94096576Y-101990732D01*
X94096584Y-101990733D01*
X94099824Y-101991246D01*
X94390894Y-102006500D01*
X94585106Y-102006500D01*
X94876176Y-101991246D01*
X94879416Y-101990733D01*
X94879424Y-101990732D01*
X95056207Y-101962732D01*
X95260099Y-101930438D01*
X95635562Y-101829833D01*
X95998453Y-101690532D01*
X96220169Y-101577562D01*
X96341853Y-101515561D01*
X96341860Y-101515557D01*
X96344794Y-101514062D01*
X96670793Y-101302357D01*
X96891898Y-101123309D01*
X96970314Y-101059809D01*
X96970318Y-101059806D01*
X96972876Y-101057734D01*
X97247734Y-100782876D01*
X97492357Y-100480793D01*
X97662825Y-100218295D01*
X97702264Y-100157564D01*
X97702266Y-100157561D01*
X97704062Y-100154795D01*
X97705562Y-100151853D01*
X97879034Y-99811393D01*
X97880532Y-99808453D01*
X97965366Y-99587452D01*
X98018647Y-99448652D01*
X98018648Y-99448650D01*
X98019833Y-99445562D01*
X98120438Y-99070099D01*
X98170674Y-98752924D01*
X98180732Y-98689424D01*
X98180733Y-98689416D01*
X98181246Y-98686176D01*
X98201589Y-98298000D01*
X98181246Y-97909824D01*
X98120438Y-97525901D01*
X98019833Y-97150438D01*
X97880532Y-96787547D01*
X97879034Y-96784607D01*
X97705561Y-96444147D01*
X97705557Y-96444140D01*
X97704062Y-96441206D01*
X97492357Y-96115207D01*
X97301230Y-95879186D01*
X97249809Y-95815686D01*
X97249806Y-95815682D01*
X97247734Y-95813124D01*
X96972876Y-95538266D01*
X96670793Y-95293643D01*
X96344794Y-95081938D01*
X96341860Y-95080443D01*
X96341853Y-95080439D01*
X96001393Y-94906966D01*
X95998453Y-94905468D01*
X95635562Y-94766167D01*
X95260099Y-94665562D01*
X95056207Y-94633268D01*
X94879424Y-94605268D01*
X94879416Y-94605267D01*
X94876176Y-94604754D01*
X94585106Y-94589500D01*
X94390894Y-94589500D01*
X94099824Y-94604754D01*
X94096584Y-94605267D01*
X94096576Y-94605268D01*
X93919793Y-94633268D01*
X93715901Y-94665562D01*
X93340438Y-94766167D01*
X92977547Y-94905468D01*
X92974607Y-94906966D01*
X92634147Y-95080439D01*
X92634140Y-95080443D01*
X92631206Y-95081938D01*
X92305207Y-95293643D01*
X92003124Y-95538266D01*
X91728266Y-95813124D01*
X91726194Y-95815682D01*
X91726191Y-95815686D01*
X91674770Y-95879186D01*
X91483643Y-96115207D01*
X91481848Y-96117970D01*
X91481848Y-96117971D01*
X91273736Y-96438436D01*
X91273734Y-96438439D01*
X91271938Y-96441205D01*
X91270443Y-96444139D01*
X91270439Y-96444146D01*
X91238084Y-96507647D01*
X91095468Y-96787547D01*
X90956167Y-97150438D01*
X90855562Y-97525901D01*
X90794754Y-97909824D01*
X90774411Y-98298000D01*
X84739589Y-98298000D01*
X84719246Y-97909824D01*
X84658438Y-97525901D01*
X84557833Y-97150438D01*
X84418532Y-96787547D01*
X84417034Y-96784607D01*
X84243561Y-96444147D01*
X84243557Y-96444140D01*
X84242062Y-96441206D01*
X84030357Y-96115207D01*
X83839230Y-95879186D01*
X83787809Y-95815686D01*
X83787806Y-95815682D01*
X83785734Y-95813124D01*
X83510876Y-95538266D01*
X83208793Y-95293643D01*
X82882794Y-95081938D01*
X82879860Y-95080443D01*
X82879853Y-95080439D01*
X82539393Y-94906966D01*
X82536453Y-94905468D01*
X82173562Y-94766167D01*
X81798099Y-94665562D01*
X81594207Y-94633268D01*
X81417424Y-94605268D01*
X81417416Y-94605267D01*
X81414176Y-94604754D01*
X81123106Y-94589500D01*
X80928894Y-94589500D01*
X80637824Y-94604754D01*
X80634584Y-94605267D01*
X80634576Y-94605268D01*
X80457793Y-94633268D01*
X80253901Y-94665562D01*
X79878438Y-94766167D01*
X79515547Y-94905468D01*
X79512607Y-94906966D01*
X79172147Y-95080439D01*
X79172140Y-95080443D01*
X79169206Y-95081938D01*
X78843207Y-95293643D01*
X78541124Y-95538266D01*
X78266266Y-95813124D01*
X78264194Y-95815682D01*
X78264191Y-95815686D01*
X78212770Y-95879186D01*
X78021643Y-96115207D01*
X78019848Y-96117970D01*
X78019848Y-96117971D01*
X77811736Y-96438436D01*
X77811734Y-96438439D01*
X77809938Y-96441205D01*
X77808443Y-96444139D01*
X77808439Y-96444146D01*
X77776084Y-96507647D01*
X77633468Y-96787547D01*
X77494167Y-97150438D01*
X77393562Y-97525901D01*
X77332754Y-97909824D01*
X77312411Y-98298000D01*
X71277589Y-98298000D01*
X71257246Y-97909824D01*
X71196438Y-97525901D01*
X71095833Y-97150438D01*
X70956532Y-96787547D01*
X70955034Y-96784607D01*
X70781561Y-96444147D01*
X70781557Y-96444140D01*
X70780062Y-96441206D01*
X70568357Y-96115207D01*
X70377230Y-95879186D01*
X70325809Y-95815686D01*
X70325806Y-95815682D01*
X70323734Y-95813124D01*
X70048876Y-95538266D01*
X69746793Y-95293643D01*
X69420794Y-95081938D01*
X69417860Y-95080443D01*
X69417853Y-95080439D01*
X69077393Y-94906966D01*
X69074453Y-94905468D01*
X68711562Y-94766167D01*
X68336099Y-94665562D01*
X68132207Y-94633268D01*
X67955424Y-94605268D01*
X67955416Y-94605267D01*
X67952176Y-94604754D01*
X67661106Y-94589500D01*
X67466894Y-94589500D01*
X67175824Y-94604754D01*
X67172584Y-94605267D01*
X67172576Y-94605268D01*
X66995793Y-94633268D01*
X66791901Y-94665562D01*
X66416438Y-94766167D01*
X66053547Y-94905468D01*
X66050607Y-94906966D01*
X65710147Y-95080439D01*
X65710140Y-95080443D01*
X65707206Y-95081938D01*
X65381207Y-95293643D01*
X65079124Y-95538266D01*
X64804266Y-95813124D01*
X64802194Y-95815682D01*
X64802191Y-95815686D01*
X64750770Y-95879186D01*
X64559643Y-96115207D01*
X64557848Y-96117970D01*
X64557848Y-96117971D01*
X64349736Y-96438436D01*
X64349734Y-96438439D01*
X64347938Y-96441205D01*
X64346443Y-96444139D01*
X64346439Y-96444146D01*
X64314084Y-96507647D01*
X64171468Y-96787547D01*
X64032167Y-97150438D01*
X63931562Y-97525901D01*
X63870754Y-97909824D01*
X63850411Y-98298000D01*
X57815589Y-98298000D01*
X57795246Y-97909824D01*
X57734438Y-97525901D01*
X57633833Y-97150438D01*
X57494532Y-96787547D01*
X57493034Y-96784607D01*
X57319561Y-96444147D01*
X57319557Y-96444140D01*
X57318062Y-96441206D01*
X57106357Y-96115207D01*
X56915230Y-95879186D01*
X56863809Y-95815686D01*
X56863806Y-95815682D01*
X56861734Y-95813124D01*
X56586876Y-95538266D01*
X56284793Y-95293643D01*
X55958794Y-95081938D01*
X55955860Y-95080443D01*
X55955853Y-95080439D01*
X55615393Y-94906966D01*
X55612453Y-94905468D01*
X55249562Y-94766167D01*
X54874099Y-94665562D01*
X54670207Y-94633268D01*
X54493424Y-94605268D01*
X54493416Y-94605267D01*
X54490176Y-94604754D01*
X54199106Y-94589500D01*
X54004894Y-94589500D01*
X53713824Y-94604754D01*
X53710584Y-94605267D01*
X53710576Y-94605268D01*
X53533793Y-94633268D01*
X53329901Y-94665562D01*
X52954438Y-94766167D01*
X52591547Y-94905468D01*
X52588607Y-94906966D01*
X52248147Y-95080439D01*
X52248140Y-95080443D01*
X52245206Y-95081938D01*
X51919207Y-95293643D01*
X51617124Y-95538266D01*
X51342266Y-95813124D01*
X51340194Y-95815682D01*
X51340191Y-95815686D01*
X51288770Y-95879186D01*
X51097643Y-96115207D01*
X51095848Y-96117970D01*
X51095848Y-96117971D01*
X50887736Y-96438436D01*
X50887734Y-96438439D01*
X50885938Y-96441205D01*
X50884443Y-96444139D01*
X50884439Y-96444146D01*
X50852084Y-96507647D01*
X50709468Y-96787547D01*
X50570167Y-97150438D01*
X50469562Y-97525901D01*
X50408754Y-97909824D01*
X50388411Y-98298000D01*
X44353589Y-98298000D01*
X44333246Y-97909824D01*
X44272438Y-97525901D01*
X44171833Y-97150438D01*
X44032532Y-96787547D01*
X44031034Y-96784607D01*
X43857561Y-96444147D01*
X43857557Y-96444140D01*
X43856062Y-96441206D01*
X43644357Y-96115207D01*
X43453230Y-95879186D01*
X43401809Y-95815686D01*
X43401806Y-95815682D01*
X43399734Y-95813124D01*
X43124876Y-95538266D01*
X42822793Y-95293643D01*
X42496794Y-95081938D01*
X42493860Y-95080443D01*
X42493853Y-95080439D01*
X42153393Y-94906966D01*
X42150453Y-94905468D01*
X41787562Y-94766167D01*
X41412099Y-94665562D01*
X41208207Y-94633268D01*
X41031424Y-94605268D01*
X41031416Y-94605267D01*
X41028176Y-94604754D01*
X40737106Y-94589500D01*
X40542894Y-94589500D01*
X40251824Y-94604754D01*
X40248584Y-94605267D01*
X40248576Y-94605268D01*
X40071793Y-94633268D01*
X39867901Y-94665562D01*
X39492438Y-94766167D01*
X39129547Y-94905468D01*
X39126607Y-94906966D01*
X38786147Y-95080439D01*
X38786140Y-95080443D01*
X38783206Y-95081938D01*
X38457207Y-95293643D01*
X38155124Y-95538266D01*
X37880266Y-95813124D01*
X37878194Y-95815682D01*
X37878191Y-95815686D01*
X37826770Y-95879186D01*
X37635643Y-96115207D01*
X37633848Y-96117970D01*
X37633848Y-96117971D01*
X37425736Y-96438436D01*
X37425734Y-96438439D01*
X37423938Y-96441205D01*
X37422443Y-96444139D01*
X37422439Y-96444146D01*
X37390084Y-96507647D01*
X37247468Y-96787547D01*
X37108167Y-97150438D01*
X37007562Y-97525901D01*
X36946754Y-97909824D01*
X36926411Y-98298000D01*
X30888261Y-98298000D01*
X30871246Y-97973324D01*
X30861189Y-97909824D01*
X30810954Y-97592662D01*
X30810438Y-97589401D01*
X30709833Y-97213938D01*
X30684272Y-97147348D01*
X30571716Y-96854132D01*
X30570532Y-96851047D01*
X30394062Y-96504706D01*
X30182357Y-96178707D01*
X29937734Y-95876624D01*
X29662876Y-95601766D01*
X29587347Y-95540603D01*
X29363355Y-95359218D01*
X29360793Y-95357143D01*
X29034794Y-95145438D01*
X29031860Y-95143943D01*
X29031853Y-95143939D01*
X28691393Y-94970466D01*
X28688453Y-94968968D01*
X28325562Y-94829667D01*
X27950099Y-94729062D01*
X27746207Y-94696768D01*
X27569424Y-94668768D01*
X27569416Y-94668767D01*
X27566176Y-94668254D01*
X27275106Y-94653000D01*
X27080894Y-94653000D01*
X26789824Y-94668254D01*
X26786584Y-94668767D01*
X26786576Y-94668768D01*
X26609793Y-94696768D01*
X26405901Y-94729062D01*
X26030438Y-94829667D01*
X25667547Y-94968968D01*
X25664607Y-94970466D01*
X25324147Y-95143939D01*
X25324140Y-95143943D01*
X25321206Y-95145438D01*
X24995207Y-95357143D01*
X24992645Y-95359218D01*
X24768654Y-95540603D01*
X24693124Y-95601766D01*
X24418266Y-95876624D01*
X24173643Y-96178707D01*
X24171848Y-96181470D01*
X24171848Y-96181471D01*
X23963736Y-96501936D01*
X23963734Y-96501939D01*
X23961938Y-96504705D01*
X23960443Y-96507639D01*
X23960439Y-96507646D01*
X23819321Y-96784607D01*
X23785468Y-96851047D01*
X23784284Y-96854132D01*
X23671729Y-97147348D01*
X23646167Y-97213938D01*
X23545562Y-97589401D01*
X23545046Y-97592662D01*
X23494812Y-97909824D01*
X23484754Y-97973324D01*
X23464411Y-98361500D01*
X20828000Y-98361500D01*
X20828000Y-80840579D01*
X33292126Y-80840579D01*
X33292339Y-80843379D01*
X33292339Y-80843380D01*
X33306909Y-81034926D01*
X33325963Y-81285412D01*
X33399210Y-81725475D01*
X33399913Y-81728183D01*
X33510580Y-82154567D01*
X33510583Y-82154578D01*
X33511286Y-82157285D01*
X33661303Y-82577423D01*
X33848075Y-82982562D01*
X33849465Y-82984985D01*
X33849467Y-82984988D01*
X33923206Y-83113484D01*
X34070121Y-83369493D01*
X34071723Y-83371785D01*
X34071728Y-83371793D01*
X34140730Y-83470521D01*
X34325685Y-83735155D01*
X34327485Y-83737296D01*
X34327487Y-83737299D01*
X34423003Y-83850928D01*
X34612742Y-84076650D01*
X34614726Y-84078624D01*
X34614730Y-84078628D01*
X34767707Y-84230806D01*
X34929019Y-84391276D01*
X35272013Y-84676541D01*
X35274320Y-84678135D01*
X35274322Y-84678137D01*
X35382341Y-84752793D01*
X35639008Y-84930186D01*
X36027097Y-85150204D01*
X36029646Y-85151363D01*
X36029650Y-85151365D01*
X36430662Y-85333695D01*
X36430673Y-85333700D01*
X36433208Y-85334852D01*
X36435834Y-85335774D01*
X36435846Y-85335779D01*
X36632377Y-85404795D01*
X36854125Y-85482667D01*
X36856845Y-85483358D01*
X36856849Y-85483359D01*
X37049444Y-85532272D01*
X37286516Y-85592481D01*
X37289266Y-85592924D01*
X37289276Y-85592926D01*
X37724186Y-85662976D01*
X37724193Y-85662977D01*
X37726957Y-85663422D01*
X37729758Y-85663620D01*
X37729764Y-85663621D01*
X37869154Y-85673490D01*
X38124930Y-85691600D01*
X38416550Y-85691600D01*
X38417956Y-85691537D01*
X38417973Y-85691537D01*
X38705147Y-85678747D01*
X38748876Y-85676800D01*
X38751649Y-85676428D01*
X38751655Y-85676427D01*
X38897039Y-85656899D01*
X39191023Y-85617412D01*
X39193755Y-85616794D01*
X39193765Y-85616792D01*
X39567287Y-85532272D01*
X39626140Y-85518955D01*
X39628793Y-85518101D01*
X39628799Y-85518099D01*
X39888238Y-85434552D01*
X40050783Y-85382208D01*
X40053335Y-85381127D01*
X40053344Y-85381124D01*
X40459014Y-85209345D01*
X40459015Y-85209345D01*
X40461588Y-85208255D01*
X40464046Y-85206945D01*
X40464055Y-85206941D01*
X40831469Y-85011171D01*
X40855304Y-84998471D01*
X40959854Y-84930186D01*
X41226479Y-84756044D01*
X41226483Y-84756041D01*
X41228812Y-84754520D01*
X41309594Y-84690837D01*
X41576963Y-84480060D01*
X41576965Y-84480058D01*
X41579156Y-84478331D01*
X41903561Y-84172092D01*
X42135351Y-83910562D01*
X42197593Y-83840334D01*
X42197598Y-83840327D01*
X42199459Y-83838228D01*
X42464506Y-83479382D01*
X42586855Y-83278549D01*
X42695151Y-83100784D01*
X42695155Y-83100777D01*
X42696606Y-83098395D01*
X42748720Y-82992719D01*
X42892679Y-82700796D01*
X42893918Y-82698284D01*
X43054882Y-82282218D01*
X43055660Y-82279514D01*
X43177452Y-81856171D01*
X43177454Y-81856165D01*
X43178223Y-81853490D01*
X43200534Y-81738175D01*
X43238975Y-81539485D01*
X43262964Y-81415494D01*
X43274709Y-81300869D01*
X43301861Y-81035861D01*
X43308435Y-80971700D01*
X43309819Y-80866023D01*
X43314237Y-80528431D01*
X43314274Y-80525621D01*
X43280437Y-80080788D01*
X43207190Y-79640725D01*
X43179823Y-79535286D01*
X43095820Y-79211633D01*
X43095817Y-79211622D01*
X43095114Y-79208915D01*
X42999287Y-78940541D01*
X42946041Y-78791420D01*
X42946039Y-78791415D01*
X42945097Y-78788777D01*
X42758325Y-78383638D01*
X42536279Y-77996707D01*
X42504236Y-77950859D01*
X42282321Y-77633343D01*
X42280715Y-77631045D01*
X42206649Y-77542933D01*
X41995458Y-77291691D01*
X41995455Y-77291687D01*
X41993658Y-77289550D01*
X41677381Y-76974924D01*
X41334387Y-76689659D01*
X40967392Y-76436014D01*
X40579303Y-76215996D01*
X40537744Y-76197100D01*
X40175738Y-76032505D01*
X40175727Y-76032500D01*
X40173192Y-76031348D01*
X40170566Y-76030426D01*
X40170554Y-76030421D01*
X39930860Y-75946248D01*
X39752275Y-75883533D01*
X39749555Y-75882842D01*
X39749551Y-75882841D01*
X39322597Y-75774408D01*
X39319884Y-75773719D01*
X39317134Y-75773276D01*
X39317124Y-75773274D01*
X38882214Y-75703224D01*
X38882207Y-75703223D01*
X38879443Y-75702778D01*
X38876642Y-75702580D01*
X38876636Y-75702579D01*
X38737246Y-75692710D01*
X38481470Y-75674600D01*
X38189850Y-75674600D01*
X38188444Y-75674663D01*
X38188427Y-75674663D01*
X37904678Y-75687300D01*
X37857524Y-75689400D01*
X37854751Y-75689772D01*
X37854745Y-75689773D01*
X37709361Y-75709301D01*
X37415377Y-75748788D01*
X37412645Y-75749406D01*
X37412635Y-75749408D01*
X37148783Y-75809112D01*
X36980260Y-75847245D01*
X36977607Y-75848099D01*
X36977601Y-75848101D01*
X36828137Y-75896233D01*
X36555617Y-75983992D01*
X36553065Y-75985073D01*
X36553056Y-75985076D01*
X36319047Y-76084166D01*
X36144812Y-76157945D01*
X36142354Y-76159255D01*
X36142345Y-76159259D01*
X35821233Y-76330358D01*
X35751096Y-76367729D01*
X35748769Y-76369249D01*
X35748767Y-76369250D01*
X35627102Y-76448714D01*
X35377588Y-76611680D01*
X35375401Y-76613404D01*
X35375397Y-76613407D01*
X35029437Y-76886140D01*
X35027244Y-76887869D01*
X34702839Y-77194108D01*
X34700969Y-77196218D01*
X34408807Y-77525866D01*
X34408802Y-77525873D01*
X34406941Y-77527972D01*
X34141894Y-77886818D01*
X33909794Y-78267805D01*
X33712482Y-78667916D01*
X33551518Y-79083982D01*
X33550741Y-79086684D01*
X33550740Y-79086686D01*
X33464022Y-79388116D01*
X33428177Y-79512710D01*
X33427648Y-79515447D01*
X33427646Y-79515453D01*
X33425720Y-79525410D01*
X33343436Y-79950706D01*
X33343151Y-79953483D01*
X33343150Y-79953493D01*
X33328521Y-80096275D01*
X33297965Y-80394500D01*
X33297928Y-80397290D01*
X33297928Y-80397298D01*
X33295763Y-80562740D01*
X33292126Y-80840579D01*
X20828000Y-80840579D01*
X20828000Y-72991131D01*
X48488600Y-72991131D01*
X48533901Y-73433929D01*
X48534099Y-73435278D01*
X48534100Y-73435282D01*
X48557160Y-73591990D01*
X48597693Y-73867446D01*
X48678349Y-74292056D01*
X48774239Y-74708133D01*
X48883737Y-75116052D01*
X49005213Y-75516187D01*
X49005498Y-75517036D01*
X49005505Y-75517058D01*
X49096153Y-75787108D01*
X49137039Y-75908913D01*
X49137302Y-75909635D01*
X49137307Y-75909649D01*
X49254075Y-76230079D01*
X49277588Y-76294604D01*
X49578340Y-77046378D01*
X49578698Y-77047203D01*
X49578704Y-77047217D01*
X49786501Y-77525866D01*
X49894443Y-77774506D01*
X49998677Y-78007107D01*
X50520019Y-79170502D01*
X50521155Y-79173116D01*
X50565892Y-79279324D01*
X50567048Y-79282164D01*
X50608635Y-79388116D01*
X50609878Y-79391420D01*
X50687287Y-79606136D01*
X50688236Y-79608864D01*
X50823198Y-80011949D01*
X50832374Y-80039356D01*
X50907457Y-80251765D01*
X50947668Y-80356735D01*
X50990408Y-80460744D01*
X51036241Y-80563691D01*
X51085731Y-80665472D01*
X51139440Y-80765986D01*
X51197933Y-80865130D01*
X51198492Y-80866008D01*
X51198501Y-80866023D01*
X51273844Y-80984400D01*
X51306326Y-81035436D01*
X51419080Y-81204413D01*
X51419601Y-81205150D01*
X51625267Y-81496105D01*
X51655449Y-81538804D01*
X51795116Y-81725475D01*
X51898347Y-81863447D01*
X51902612Y-81869148D01*
X51902936Y-81869566D01*
X51902958Y-81869595D01*
X52133643Y-82167267D01*
X52156137Y-82196293D01*
X52664051Y-82843724D01*
X52665026Y-82844983D01*
X52909733Y-83165867D01*
X52911436Y-83168154D01*
X53143658Y-83487586D01*
X53146782Y-83492085D01*
X54001568Y-84782278D01*
X54074463Y-84892304D01*
X54075055Y-84893138D01*
X54075064Y-84893151D01*
X54198253Y-85066672D01*
X54198655Y-85067238D01*
X54199067Y-85067791D01*
X54312149Y-85219641D01*
X54325956Y-85238182D01*
X54326488Y-85238856D01*
X54326497Y-85238868D01*
X54448761Y-85393824D01*
X54456763Y-85403966D01*
X54457452Y-85404782D01*
X54457463Y-85404795D01*
X54590641Y-85562434D01*
X54590654Y-85562449D01*
X54591472Y-85563417D01*
X54682553Y-85662976D01*
X54720301Y-85704237D01*
X54730480Y-85715364D01*
X54731504Y-85716385D01*
X54731506Y-85716387D01*
X54866853Y-85851326D01*
X54874184Y-85858635D01*
X55022981Y-85992060D01*
X55024471Y-85993242D01*
X55176228Y-86113643D01*
X55176243Y-86113655D01*
X55177266Y-86114466D01*
X55649904Y-86457666D01*
X56132423Y-86795473D01*
X56621912Y-87128424D01*
X56622084Y-87128538D01*
X56622104Y-87128552D01*
X57115326Y-87456969D01*
X57115566Y-87457128D01*
X58448182Y-88330390D01*
X59071934Y-88739134D01*
X59072244Y-88739331D01*
X59072292Y-88739362D01*
X59177903Y-88806472D01*
X59177918Y-88806481D01*
X59178788Y-88807034D01*
X59288876Y-88871844D01*
X59289580Y-88872234D01*
X59305853Y-88881253D01*
X59308700Y-88882880D01*
X59320215Y-88889659D01*
X59432813Y-88952066D01*
X59547200Y-89012758D01*
X59770889Y-89128907D01*
X60006648Y-89251324D01*
X60009723Y-89252975D01*
X60100139Y-89303150D01*
X60102996Y-89304785D01*
X60105831Y-89306457D01*
X60197461Y-89360491D01*
X60201137Y-89362744D01*
X60303745Y-89428083D01*
X60308210Y-89431062D01*
X60406081Y-89499412D01*
X60411282Y-89503246D01*
X60503750Y-89575147D01*
X60509568Y-89579958D01*
X60596040Y-89655962D01*
X60602359Y-89661915D01*
X60683196Y-89743497D01*
X60688096Y-89748732D01*
X60724707Y-89790148D01*
X60728012Y-89794043D01*
X60765267Y-89839798D01*
X60772035Y-89838255D01*
X60792022Y-89851983D01*
X60796606Y-89857613D01*
X60889921Y-89836337D01*
X60988497Y-89806187D01*
X60990235Y-89805540D01*
X60990250Y-89805535D01*
X61090525Y-89768209D01*
X61090524Y-89768209D01*
X61091957Y-89767676D01*
X61199924Y-89721317D01*
X61427871Y-89607103D01*
X61429491Y-89606167D01*
X61429499Y-89606163D01*
X61668115Y-89468342D01*
X61668130Y-89468333D01*
X61669321Y-89467645D01*
X61921257Y-89307044D01*
X62180663Y-89129399D01*
X62444522Y-88938811D01*
X62509908Y-88889659D01*
X62539639Y-88867309D01*
X62709819Y-88739380D01*
X63232656Y-88330390D01*
X63725043Y-87935232D01*
X64162020Y-87587364D01*
X64163757Y-87586007D01*
X64352497Y-87441134D01*
X64355012Y-87439253D01*
X64519862Y-87319126D01*
X64524065Y-87316192D01*
X64638710Y-87239589D01*
X64642807Y-87236965D01*
X64764002Y-87162607D01*
X64767199Y-87160711D01*
X64823534Y-87128424D01*
X64894205Y-87087920D01*
X64896610Y-87086576D01*
X65028120Y-87014977D01*
X65030281Y-87013828D01*
X65450584Y-86795473D01*
X65582262Y-86727064D01*
X65719727Y-86653245D01*
X65720250Y-86652951D01*
X65720278Y-86652936D01*
X65854004Y-86577857D01*
X65854745Y-86577441D01*
X65855421Y-86577038D01*
X65855454Y-86577019D01*
X65985335Y-86499605D01*
X65985354Y-86499593D01*
X65986252Y-86499058D01*
X66051108Y-86457387D01*
X66112089Y-86418205D01*
X66112094Y-86418202D01*
X66113186Y-86417500D01*
X66114235Y-86416762D01*
X66114250Y-86416752D01*
X66233171Y-86333096D01*
X66233180Y-86333089D01*
X66234484Y-86332172D01*
X66240052Y-86327814D01*
X66347583Y-86243654D01*
X66347592Y-86243647D01*
X66349085Y-86242478D01*
X66455924Y-86147824D01*
X66457488Y-86146225D01*
X66552709Y-86048872D01*
X66552716Y-86048864D01*
X66553940Y-86047613D01*
X66555091Y-86046296D01*
X66555104Y-86046282D01*
X66638357Y-85951026D01*
X66638992Y-85950300D01*
X66639577Y-85949588D01*
X66639600Y-85949561D01*
X66720326Y-85851326D01*
X66720328Y-85851324D01*
X66720879Y-85850653D01*
X66721396Y-85849988D01*
X66721416Y-85849963D01*
X66799479Y-85749554D01*
X66799497Y-85749531D01*
X66799966Y-85748927D01*
X66876617Y-85645381D01*
X67024072Y-85433853D01*
X67166163Y-85218123D01*
X67445382Y-84783132D01*
X67446469Y-84781467D01*
X67588445Y-84567777D01*
X67590498Y-84564782D01*
X67702881Y-84405772D01*
X67738122Y-84355910D01*
X67740478Y-84352688D01*
X67907505Y-84131770D01*
X67909290Y-84129466D01*
X67939544Y-84091328D01*
X68082943Y-83910556D01*
X68085035Y-83907989D01*
X68131039Y-83853034D01*
X68431304Y-83494341D01*
X68449292Y-83472853D01*
X68451292Y-83470521D01*
X69001964Y-82844367D01*
X69213244Y-82604126D01*
X69481524Y-82294918D01*
X69592196Y-82167363D01*
X69592203Y-82167354D01*
X69592549Y-82166956D01*
X69777873Y-81945933D01*
X69954407Y-81728183D01*
X69958494Y-81723142D01*
X69958502Y-81723132D01*
X69958870Y-81722678D01*
X70101237Y-81539485D01*
X70133963Y-81497375D01*
X70133982Y-81497350D01*
X70134456Y-81496740D01*
X70185054Y-81428194D01*
X70303015Y-81268388D01*
X70303020Y-81268381D01*
X70303550Y-81267663D01*
X70465071Y-81034995D01*
X70582420Y-80853279D01*
X78224726Y-80853279D01*
X78258563Y-81298112D01*
X78331810Y-81738175D01*
X78332513Y-81740883D01*
X78443180Y-82167267D01*
X78443183Y-82167278D01*
X78443886Y-82169985D01*
X78489436Y-82297552D01*
X78588425Y-82574780D01*
X78593903Y-82590123D01*
X78595074Y-82592663D01*
X78595076Y-82592668D01*
X78600358Y-82604126D01*
X78780675Y-82995262D01*
X79002721Y-83382193D01*
X79258285Y-83747855D01*
X79260085Y-83749996D01*
X79260087Y-83749999D01*
X79534667Y-84076650D01*
X79545342Y-84089350D01*
X79547326Y-84091324D01*
X79547330Y-84091328D01*
X79626397Y-84169982D01*
X79861619Y-84403976D01*
X80204613Y-84689241D01*
X80571608Y-84942886D01*
X80959697Y-85162904D01*
X80962246Y-85164063D01*
X80962250Y-85164065D01*
X81363262Y-85346395D01*
X81363273Y-85346400D01*
X81365808Y-85347552D01*
X81368434Y-85348474D01*
X81368446Y-85348479D01*
X81608140Y-85432652D01*
X81786725Y-85495367D01*
X81789445Y-85496058D01*
X81789449Y-85496059D01*
X82050800Y-85562434D01*
X82219116Y-85605181D01*
X82221866Y-85605624D01*
X82221876Y-85605626D01*
X82656786Y-85675676D01*
X82656793Y-85675677D01*
X82659557Y-85676122D01*
X82662358Y-85676320D01*
X82662364Y-85676321D01*
X82801754Y-85686190D01*
X83057530Y-85704300D01*
X83349150Y-85704300D01*
X83350556Y-85704237D01*
X83350573Y-85704237D01*
X83637869Y-85691442D01*
X83681476Y-85689500D01*
X83684249Y-85689128D01*
X83684255Y-85689127D01*
X83829639Y-85669599D01*
X84123623Y-85630112D01*
X84126355Y-85629494D01*
X84126365Y-85629492D01*
X84422716Y-85562434D01*
X84558740Y-85531655D01*
X84561393Y-85530801D01*
X84561399Y-85530799D01*
X84738117Y-85473891D01*
X84983383Y-85394908D01*
X84985935Y-85393827D01*
X84985944Y-85393824D01*
X85391614Y-85222045D01*
X85391615Y-85222045D01*
X85394188Y-85220955D01*
X85396646Y-85219645D01*
X85396655Y-85219641D01*
X85785449Y-85012479D01*
X85787904Y-85011171D01*
X85807349Y-84998471D01*
X86159079Y-84768744D01*
X86159083Y-84768741D01*
X86161412Y-84767220D01*
X86258304Y-84690837D01*
X86509563Y-84492760D01*
X86509565Y-84492758D01*
X86511756Y-84491031D01*
X86836161Y-84184792D01*
X86884172Y-84130621D01*
X87130193Y-83853034D01*
X87130198Y-83853027D01*
X87132059Y-83850928D01*
X87397106Y-83492082D01*
X87519455Y-83291249D01*
X87627751Y-83113484D01*
X87627755Y-83113477D01*
X87629206Y-83111095D01*
X87826518Y-82710984D01*
X87987482Y-82294918D01*
X88015803Y-82196475D01*
X88110052Y-81868871D01*
X88110054Y-81868865D01*
X88110823Y-81866190D01*
X88112762Y-81856171D01*
X88174032Y-81539485D01*
X88195564Y-81428194D01*
X88196584Y-81418246D01*
X88240750Y-80987179D01*
X88241035Y-80984400D01*
X88241202Y-80971700D01*
X88245224Y-80664408D01*
X88246874Y-80538321D01*
X88213037Y-80093488D01*
X88139790Y-79653425D01*
X88105591Y-79521661D01*
X88028420Y-79224333D01*
X88028417Y-79224322D01*
X88027714Y-79221615D01*
X87877697Y-78801477D01*
X87867006Y-78778285D01*
X87692097Y-78398881D01*
X87690925Y-78396338D01*
X87617165Y-78267805D01*
X87470275Y-78011840D01*
X87468879Y-78009407D01*
X87461704Y-77999140D01*
X87214921Y-77646043D01*
X87213315Y-77643745D01*
X87202640Y-77631045D01*
X86928058Y-77304391D01*
X86928055Y-77304387D01*
X86926258Y-77302250D01*
X86913492Y-77289550D01*
X86706297Y-77083437D01*
X86609981Y-76987624D01*
X86266987Y-76702359D01*
X86246303Y-76688063D01*
X85902301Y-76450310D01*
X85899992Y-76448714D01*
X85511903Y-76228696D01*
X85509350Y-76227535D01*
X85108338Y-76045205D01*
X85108327Y-76045200D01*
X85105792Y-76044048D01*
X85103166Y-76043126D01*
X85103154Y-76043121D01*
X84775303Y-75927989D01*
X84684875Y-75896233D01*
X84682155Y-75895542D01*
X84682151Y-75895541D01*
X84255197Y-75787108D01*
X84252484Y-75786419D01*
X84249734Y-75785976D01*
X84249724Y-75785974D01*
X83814814Y-75715924D01*
X83814807Y-75715923D01*
X83812043Y-75715478D01*
X83809242Y-75715280D01*
X83809236Y-75715279D01*
X83669846Y-75705410D01*
X83414070Y-75687300D01*
X83122450Y-75687300D01*
X83121044Y-75687363D01*
X83121027Y-75687363D01*
X82833853Y-75700153D01*
X82790124Y-75702100D01*
X82787351Y-75702472D01*
X82787345Y-75702473D01*
X82641961Y-75722001D01*
X82347977Y-75761488D01*
X82345245Y-75762106D01*
X82345235Y-75762108D01*
X82081383Y-75821812D01*
X81912860Y-75859945D01*
X81910207Y-75860799D01*
X81910201Y-75860801D01*
X81802323Y-75895541D01*
X81488217Y-75996692D01*
X81485665Y-75997773D01*
X81485656Y-75997776D01*
X81277372Y-76085973D01*
X81077412Y-76170645D01*
X81074954Y-76171955D01*
X81074945Y-76171959D01*
X80777668Y-76330358D01*
X80683696Y-76380429D01*
X80681369Y-76381949D01*
X80681367Y-76381950D01*
X80326989Y-76613407D01*
X80310188Y-76624380D01*
X80308001Y-76626104D01*
X80307997Y-76626107D01*
X79962037Y-76898840D01*
X79959844Y-76900569D01*
X79635439Y-77206808D01*
X79633569Y-77208918D01*
X79341407Y-77538566D01*
X79341402Y-77538573D01*
X79339541Y-77540672D01*
X79074494Y-77899518D01*
X79073036Y-77901912D01*
X78848601Y-78270317D01*
X78842394Y-78280505D01*
X78841157Y-78283013D01*
X78841155Y-78283017D01*
X78786468Y-78393912D01*
X78645082Y-78680616D01*
X78484118Y-79096682D01*
X78483341Y-79099384D01*
X78483340Y-79099386D01*
X78361856Y-79521661D01*
X78360777Y-79525410D01*
X78360248Y-79528147D01*
X78360246Y-79528153D01*
X78337933Y-79643484D01*
X78276036Y-79963406D01*
X78275751Y-79966183D01*
X78275750Y-79966193D01*
X78262990Y-80090731D01*
X78230565Y-80407200D01*
X78230528Y-80409990D01*
X78230528Y-80409998D01*
X78228504Y-80564630D01*
X78224726Y-80853279D01*
X70582420Y-80853279D01*
X70617936Y-80798282D01*
X71123140Y-79535281D01*
X71129550Y-79521674D01*
X71323419Y-79166888D01*
X71324346Y-79165223D01*
X71468539Y-78910658D01*
X71543273Y-78778720D01*
X71597746Y-78680616D01*
X71769008Y-78372174D01*
X71769020Y-78372152D01*
X71769307Y-78371635D01*
X71817587Y-78280505D01*
X71879877Y-78162928D01*
X71880185Y-78162347D01*
X71987168Y-77950117D01*
X72088404Y-77735611D01*
X72088788Y-77734724D01*
X72088801Y-77734696D01*
X72171886Y-77542933D01*
X72182041Y-77519495D01*
X72266229Y-77302434D01*
X72339115Y-77085096D01*
X72398847Y-76868145D01*
X72443574Y-76652248D01*
X72447201Y-76624380D01*
X72471191Y-76440022D01*
X72471445Y-76438071D01*
X72478480Y-76331836D01*
X72479249Y-76293702D01*
X72479917Y-76260522D01*
X72498535Y-76197100D01*
X72566812Y-76085973D01*
X72566815Y-76085968D01*
X72567922Y-76084166D01*
X72568903Y-76082297D01*
X72568910Y-76082285D01*
X72649911Y-75927989D01*
X72650748Y-75926395D01*
X72714078Y-75787108D01*
X72728276Y-75755882D01*
X72728279Y-75755876D01*
X72728911Y-75754485D01*
X72802241Y-75569956D01*
X72870566Y-75374326D01*
X72933712Y-75169116D01*
X72991510Y-74955844D01*
X73043786Y-74736030D01*
X73090369Y-74511192D01*
X73131088Y-74282850D01*
X73165769Y-74052523D01*
X73194241Y-73821730D01*
X73201515Y-73746089D01*
X73216249Y-73592869D01*
X73216252Y-73592832D01*
X73216333Y-73591990D01*
X73231872Y-73364823D01*
X73240686Y-73141748D01*
X73242604Y-72924283D01*
X73234807Y-72924211D01*
X73224143Y-72914805D01*
X73215482Y-72910372D01*
X73211239Y-72909408D01*
X73211265Y-72906468D01*
X73197738Y-72906343D01*
X73197736Y-72906342D01*
X72696216Y-72901690D01*
X72694483Y-72901662D01*
X72606338Y-72899631D01*
X72174310Y-72889679D01*
X72173995Y-72889671D01*
X71137493Y-72861190D01*
X71022305Y-72859389D01*
X70632854Y-72853298D01*
X70632833Y-72853298D01*
X70632264Y-72853289D01*
X70171017Y-72855222D01*
X70143723Y-72855336D01*
X70143721Y-72855336D01*
X70142775Y-72855340D01*
X69840603Y-72865850D01*
X69675231Y-72871602D01*
X69675228Y-72871602D01*
X69674255Y-72871636D01*
X69449492Y-72886467D01*
X69448736Y-72886537D01*
X69448717Y-72886538D01*
X69263028Y-72903609D01*
X69203101Y-72894475D01*
X69128328Y-72863372D01*
X69128327Y-72863372D01*
X69125984Y-72862397D01*
X69097893Y-72853298D01*
X69016800Y-72827031D01*
X69016795Y-72827030D01*
X69014768Y-72826373D01*
X68898658Y-72797325D01*
X68896921Y-72796992D01*
X68896913Y-72796990D01*
X68779416Y-72774448D01*
X68779401Y-72774446D01*
X68778033Y-72774183D01*
X68653267Y-72755879D01*
X68524738Y-72741342D01*
X68400106Y-72731042D01*
X68258178Y-72719312D01*
X68258107Y-72719307D01*
X68257895Y-72719289D01*
X68257689Y-72719274D01*
X68257465Y-72719257D01*
X67981778Y-72699556D01*
X67979243Y-72699350D01*
X67697685Y-72673508D01*
X67693504Y-72673053D01*
X67553283Y-72655447D01*
X67549325Y-72654886D01*
X67408590Y-72632660D01*
X67403794Y-72631808D01*
X67263523Y-72604060D01*
X67257937Y-72602822D01*
X67116719Y-72568157D01*
X67113868Y-72567422D01*
X66269585Y-72338388D01*
X65395845Y-72106080D01*
X65395459Y-72105982D01*
X65395390Y-72105964D01*
X64843984Y-71965989D01*
X64556316Y-71892964D01*
X64555826Y-71892847D01*
X64555769Y-71892833D01*
X64332739Y-71839616D01*
X64168839Y-71800507D01*
X64168465Y-71800424D01*
X64168424Y-71800414D01*
X64028820Y-71769250D01*
X63816330Y-71721815D01*
X63810251Y-71720297D01*
X63681778Y-71684782D01*
X63671924Y-71681616D01*
X63523686Y-71627171D01*
X63517794Y-71624836D01*
X63349649Y-71553239D01*
X63346039Y-71551634D01*
X63162392Y-71466539D01*
X63159641Y-71465224D01*
X62330346Y-71056298D01*
X62330341Y-71056296D01*
X62329918Y-71056087D01*
X62115262Y-70954319D01*
X62037528Y-70919499D01*
X61904366Y-70859851D01*
X61904358Y-70859848D01*
X61903466Y-70859448D01*
X61697336Y-70774784D01*
X61696011Y-70774307D01*
X61501512Y-70704297D01*
X61501500Y-70704293D01*
X61499680Y-70703638D01*
X61497829Y-70703099D01*
X61497815Y-70703094D01*
X61358127Y-70662385D01*
X61313304Y-70649322D01*
X61311407Y-70648895D01*
X61311402Y-70648894D01*
X61226830Y-70629871D01*
X61226821Y-70629869D01*
X61225224Y-70629510D01*
X61141017Y-70615147D01*
X61139070Y-70614940D01*
X61139062Y-70614939D01*
X61063415Y-70606901D01*
X61063412Y-70606901D01*
X61061033Y-70606648D01*
X61058634Y-70606577D01*
X61058630Y-70606577D01*
X60988555Y-70604511D01*
X60988546Y-70604511D01*
X60985624Y-70604425D01*
X60951683Y-70606577D01*
X60918684Y-70608669D01*
X60918679Y-70608670D01*
X60915140Y-70608894D01*
X60911648Y-70609514D01*
X60911646Y-70609514D01*
X60852752Y-70619966D01*
X60852741Y-70619968D01*
X60849932Y-70620467D01*
X60680427Y-70666728D01*
X60679073Y-70667164D01*
X60679071Y-70667165D01*
X60505141Y-70723223D01*
X60505118Y-70723231D01*
X60504072Y-70723568D01*
X60503027Y-70723947D01*
X60503015Y-70723951D01*
X60323059Y-70789200D01*
X60323047Y-70789204D01*
X60322188Y-70789516D01*
X60136098Y-70863098D01*
X59756583Y-71027279D01*
X59376099Y-71204337D01*
X58655686Y-71549414D01*
X58653328Y-71550513D01*
X58336330Y-71694201D01*
X58332761Y-71695751D01*
X58191382Y-71754599D01*
X58187469Y-71756152D01*
X58058307Y-71804902D01*
X58053506Y-71806604D01*
X57577275Y-71964674D01*
X57573068Y-71965989D01*
X57075929Y-72111903D01*
X57072043Y-72112976D01*
X56555229Y-72246863D01*
X56551633Y-72247739D01*
X56016109Y-72369809D01*
X56012777Y-72370521D01*
X55749488Y-72423091D01*
X55459664Y-72480958D01*
X55456642Y-72481522D01*
X55134141Y-72537574D01*
X54887651Y-72580415D01*
X54883411Y-72581078D01*
X53918912Y-72715057D01*
X53697971Y-72745747D01*
X53692936Y-72746344D01*
X52454693Y-72867739D01*
X52450275Y-72868092D01*
X51553226Y-72923991D01*
X51166857Y-72948067D01*
X51162868Y-72948252D01*
X49842647Y-72988583D01*
X49839032Y-72988642D01*
X49251962Y-72989724D01*
X48488600Y-72991131D01*
X20828000Y-72991131D01*
X20828000Y-58005133D01*
X29269268Y-58005133D01*
X29276240Y-58020898D01*
X29283562Y-58035549D01*
X29284318Y-58036893D01*
X29284325Y-58036907D01*
X29289767Y-58046586D01*
X29291206Y-58049146D01*
X29299143Y-58061750D01*
X29307344Y-58073423D01*
X29315781Y-58084224D01*
X29324424Y-58094216D01*
X29333244Y-58103458D01*
X29334303Y-58104468D01*
X29334319Y-58104484D01*
X29338515Y-58108486D01*
X29342214Y-58112013D01*
X29351303Y-58119941D01*
X29352290Y-58120732D01*
X29352305Y-58120745D01*
X29352964Y-58121273D01*
X29360484Y-58127303D01*
X29369727Y-58134159D01*
X29388285Y-58146602D01*
X29406745Y-58157755D01*
X29407431Y-58158147D01*
X29440947Y-58177288D01*
X29443956Y-58179062D01*
X29456161Y-58186489D01*
X29462208Y-58190410D01*
X29471777Y-58197012D01*
X29478076Y-58201653D01*
X29479869Y-58203062D01*
X29484911Y-58207241D01*
X29485535Y-58207785D01*
X29486776Y-58208870D01*
X29492148Y-58213846D01*
X29493308Y-58214985D01*
X29498961Y-58220909D01*
X29499611Y-58221636D01*
X29505261Y-58228420D01*
X29505599Y-58228856D01*
X29511041Y-58236439D01*
X29511273Y-58236789D01*
X29516222Y-58244905D01*
X29516510Y-58245420D01*
X29520830Y-58253879D01*
X29521463Y-58255243D01*
X29524795Y-58263110D01*
X29531318Y-58280095D01*
X29533955Y-58287674D01*
X29538951Y-58303656D01*
X29541182Y-58311727D01*
X29544730Y-58326448D01*
X29546457Y-58334863D01*
X29548784Y-58348557D01*
X29549937Y-58357099D01*
X29551237Y-58370069D01*
X29551798Y-58378540D01*
X29552205Y-58391056D01*
X29552207Y-58399193D01*
X29551806Y-58411611D01*
X29551331Y-58419194D01*
X29550165Y-58431726D01*
X29549334Y-58438590D01*
X29547412Y-58451478D01*
X29546358Y-58457524D01*
X29545701Y-58460820D01*
X29543890Y-58469893D01*
X29542240Y-58477061D01*
X29534448Y-58506900D01*
X29532282Y-58514269D01*
X29509615Y-58583482D01*
X29508523Y-58586873D01*
X29497749Y-58620313D01*
X29487460Y-58658137D01*
X29483266Y-58677592D01*
X29479898Y-58697499D01*
X29479711Y-58699092D01*
X29477807Y-58715314D01*
X29477500Y-58717927D01*
X29477393Y-58719676D01*
X29477392Y-58719687D01*
X29476410Y-58735742D01*
X29476214Y-58738945D01*
X29476186Y-58760619D01*
X29477559Y-58783019D01*
X29480477Y-58806212D01*
X29485083Y-58830267D01*
X29491521Y-58855252D01*
X29499935Y-58881235D01*
X29510470Y-58908284D01*
X29523268Y-58936468D01*
X29524046Y-58937964D01*
X29524049Y-58937971D01*
X29571152Y-59028591D01*
X29581161Y-59047847D01*
X29645687Y-59158413D01*
X29646398Y-59159522D01*
X29646410Y-59159542D01*
X29660024Y-59180783D01*
X29716037Y-59268181D01*
X29791405Y-59377168D01*
X29870982Y-59485388D01*
X29871390Y-59485916D01*
X29871407Y-59485939D01*
X29886140Y-59505020D01*
X29953962Y-59592858D01*
X30126899Y-59805612D01*
X30399662Y-60129658D01*
X30477265Y-60221852D01*
X30478840Y-60223762D01*
X30642300Y-60426161D01*
X30644478Y-60428938D01*
X30719640Y-60527606D01*
X30721667Y-60530343D01*
X30792127Y-60628217D01*
X30794373Y-60631441D01*
X30852488Y-60717723D01*
X30854369Y-60720602D01*
X30909640Y-60807755D01*
X30911196Y-60810274D01*
X30964141Y-60898340D01*
X30965378Y-60900446D01*
X31016157Y-60988862D01*
X31017485Y-60991233D01*
X31115807Y-61171316D01*
X31116645Y-61172877D01*
X31202244Y-61335116D01*
X31212343Y-61354258D01*
X31212378Y-61354325D01*
X31284463Y-61489753D01*
X31309052Y-61535950D01*
X31309416Y-61536599D01*
X31309420Y-61536607D01*
X31336975Y-61585787D01*
X31410023Y-61716163D01*
X31463298Y-61805489D01*
X31463708Y-61806141D01*
X31463716Y-61806154D01*
X31475305Y-61824582D01*
X31519061Y-61894159D01*
X31551314Y-61942447D01*
X31571579Y-61972786D01*
X31577783Y-61982075D01*
X31639935Y-62069134D01*
X31641200Y-62070686D01*
X31641207Y-62070695D01*
X31644661Y-62074932D01*
X31646409Y-62077076D01*
X31653699Y-62084570D01*
X31661750Y-62091643D01*
X31670506Y-62098323D01*
X31679913Y-62104637D01*
X31689915Y-62110614D01*
X31691744Y-62111551D01*
X31691749Y-62111554D01*
X31699109Y-62115326D01*
X31709094Y-62121033D01*
X31709882Y-62121532D01*
X31711252Y-62122452D01*
X31712660Y-62123293D01*
X31712672Y-62123301D01*
X31719503Y-62127383D01*
X31719511Y-62127388D01*
X31721254Y-62128429D01*
X31742824Y-62139482D01*
X31744740Y-62140308D01*
X31744745Y-62140310D01*
X31748045Y-62141732D01*
X31766114Y-62149518D01*
X31790686Y-62158759D01*
X31831592Y-62172322D01*
X31837850Y-62174397D01*
X31841909Y-62175743D01*
X31842135Y-62175816D01*
X31842285Y-62175865D01*
X31891357Y-62191693D01*
X31894585Y-62192782D01*
X31915054Y-62200002D01*
X31919600Y-62201705D01*
X31931282Y-62206343D01*
X31985831Y-62248172D01*
X32056629Y-62343197D01*
X32058398Y-62345572D01*
X32062654Y-62351650D01*
X32135029Y-62461775D01*
X32138195Y-62466851D01*
X32206656Y-62582646D01*
X32208921Y-62586642D01*
X32217493Y-62602430D01*
X32274081Y-62706649D01*
X32276057Y-62710439D01*
X32401995Y-62962403D01*
X32402639Y-62963712D01*
X32526691Y-63219551D01*
X32590443Y-63345987D01*
X32656639Y-63469841D01*
X32726328Y-63590083D01*
X32727094Y-63591276D01*
X32727102Y-63591289D01*
X32798016Y-63701721D01*
X32800561Y-63705685D01*
X32801623Y-63707147D01*
X32846195Y-63768530D01*
X32880388Y-63815620D01*
X32966859Y-63918858D01*
X33012914Y-63967645D01*
X33013864Y-63968567D01*
X33013884Y-63968588D01*
X33050087Y-64003749D01*
X33061024Y-64014372D01*
X33111321Y-64058911D01*
X33112511Y-64059866D01*
X33130992Y-64074697D01*
X33163934Y-64101134D01*
X33164792Y-64101775D01*
X33164795Y-64101778D01*
X33404841Y-64281300D01*
X33482428Y-64339325D01*
X33482801Y-64339596D01*
X33482845Y-64339628D01*
X33801689Y-64570916D01*
X33801863Y-64571042D01*
X33801991Y-64571133D01*
X33802019Y-64571153D01*
X34441110Y-65024942D01*
X34441305Y-65025081D01*
X34759277Y-65251770D01*
X34760230Y-65252457D01*
X34840456Y-65310787D01*
X35064405Y-65473614D01*
X35075984Y-65482033D01*
X35077509Y-65483160D01*
X35352558Y-65689627D01*
X35390645Y-65718217D01*
X35392743Y-65719826D01*
X35702482Y-65962662D01*
X35705328Y-65964961D01*
X35982383Y-66195468D01*
X35984705Y-66197448D01*
X36258754Y-66436929D01*
X36258802Y-66436971D01*
X36259586Y-66437664D01*
X36809914Y-66927328D01*
X37090789Y-67168349D01*
X37233861Y-67286076D01*
X37379167Y-67401266D01*
X37379670Y-67401647D01*
X37379703Y-67401673D01*
X37485581Y-67481953D01*
X37527069Y-67513411D01*
X37527686Y-67513855D01*
X37527721Y-67513881D01*
X37677162Y-67621451D01*
X37677185Y-67621467D01*
X37677924Y-67621999D01*
X37832093Y-67726521D01*
X37832936Y-67727055D01*
X37832947Y-67727062D01*
X37860227Y-67744336D01*
X37989935Y-67826468D01*
X38222164Y-67961838D01*
X38223168Y-67962376D01*
X38223208Y-67962398D01*
X38229725Y-67965888D01*
X38233697Y-67968108D01*
X38252531Y-67979087D01*
X38252557Y-67979102D01*
X38253503Y-67979653D01*
X38254456Y-67980164D01*
X38254475Y-67980174D01*
X38494764Y-68108862D01*
X38494798Y-68108880D01*
X38495613Y-68109316D01*
X38496463Y-68109738D01*
X38496469Y-68109741D01*
X38513963Y-68118424D01*
X38746109Y-68233651D01*
X38746854Y-68233997D01*
X38746857Y-68233998D01*
X39002582Y-68352615D01*
X39002607Y-68352626D01*
X39003495Y-68353038D01*
X39532957Y-68578479D01*
X39533802Y-68578809D01*
X39533818Y-68578815D01*
X40071380Y-68788417D01*
X40072037Y-68788673D01*
X41041882Y-69142831D01*
X41131197Y-69175446D01*
X41131504Y-69175559D01*
X41626131Y-69357640D01*
X41628593Y-69358576D01*
X41758361Y-69409450D01*
X42084490Y-69537306D01*
X42086062Y-69537936D01*
X42718153Y-69796357D01*
X42969577Y-69899148D01*
X42994951Y-69909522D01*
X43493045Y-70098100D01*
X43494151Y-70098474D01*
X43494160Y-70098477D01*
X44012836Y-70273768D01*
X44012850Y-70273773D01*
X44013905Y-70274129D01*
X44014964Y-70274445D01*
X44014975Y-70274449D01*
X44280615Y-70353838D01*
X44280650Y-70353848D01*
X44281450Y-70354087D01*
X44552978Y-70426886D01*
X44647006Y-70448876D01*
X44826795Y-70490923D01*
X44826813Y-70490927D01*
X44827921Y-70491186D01*
X44829034Y-70491404D01*
X44829047Y-70491407D01*
X44954604Y-70516022D01*
X45105710Y-70545646D01*
X45106949Y-70545837D01*
X45106952Y-70545838D01*
X45117442Y-70547459D01*
X45385775Y-70588926D01*
X45387164Y-70589078D01*
X45387182Y-70589080D01*
X45552356Y-70607111D01*
X45667548Y-70619686D01*
X45669088Y-70619778D01*
X45669100Y-70619779D01*
X45948782Y-70636485D01*
X45948788Y-70636485D01*
X45950459Y-70636585D01*
X45977133Y-70636745D01*
X46215827Y-70638174D01*
X46215828Y-70638174D01*
X46233940Y-70638282D01*
X46243432Y-69891084D01*
X46246877Y-69619954D01*
X48142310Y-69619954D01*
X48142315Y-69620963D01*
X48142315Y-69620972D01*
X48149609Y-71064316D01*
X48149933Y-71128465D01*
X48157677Y-71128383D01*
X48169359Y-71138403D01*
X48177714Y-71142518D01*
X48181257Y-71143260D01*
X48181272Y-71146280D01*
X48410419Y-71143859D01*
X49306456Y-71134393D01*
X49306494Y-71134392D01*
X49306810Y-71134389D01*
X50380910Y-71109334D01*
X50381517Y-71109307D01*
X50381561Y-71109306D01*
X51409739Y-71064316D01*
X51409770Y-71064314D01*
X51410620Y-71064277D01*
X52402985Y-70992378D01*
X52403786Y-70992298D01*
X52403802Y-70992297D01*
X52727768Y-70960092D01*
X52887366Y-70944227D01*
X52888007Y-70944150D01*
X52888043Y-70944146D01*
X53364333Y-70886888D01*
X53364372Y-70886883D01*
X53365053Y-70886801D01*
X53365725Y-70886705D01*
X53365769Y-70886699D01*
X53836153Y-70819357D01*
X53836169Y-70819355D01*
X53836927Y-70819246D01*
X53837653Y-70819124D01*
X53837678Y-70819120D01*
X54098083Y-70775320D01*
X54303870Y-70740707D01*
X54304663Y-70740552D01*
X54304686Y-70740548D01*
X54578840Y-70687020D01*
X54766762Y-70650329D01*
X55226483Y-70547257D01*
X55611601Y-70449074D01*
X55683033Y-70430863D01*
X55683042Y-70430861D01*
X55683915Y-70430638D01*
X55684765Y-70430394D01*
X55684790Y-70430387D01*
X56139837Y-70299644D01*
X56139938Y-70299615D01*
X56140009Y-70299594D01*
X56140065Y-70299578D01*
X56315396Y-70248240D01*
X56317646Y-70247604D01*
X56466852Y-70206906D01*
X56489136Y-70200828D01*
X56491629Y-70200175D01*
X56829775Y-70115399D01*
X56831177Y-70115058D01*
X57481217Y-69960842D01*
X57676532Y-69909522D01*
X57792047Y-69879170D01*
X57792061Y-69879166D01*
X57792990Y-69878922D01*
X57793882Y-69878659D01*
X57793909Y-69878652D01*
X57944910Y-69834217D01*
X57944930Y-69834211D01*
X57945694Y-69833986D01*
X58096361Y-69785335D01*
X58245056Y-69732171D01*
X58391841Y-69673695D01*
X58392972Y-69673191D01*
X58392991Y-69673183D01*
X58469174Y-69639235D01*
X58536781Y-69609109D01*
X58638733Y-69558192D01*
X58663730Y-69545708D01*
X58663731Y-69545707D01*
X58679938Y-69537613D01*
X58663829Y-69493520D01*
X58644468Y-69460261D01*
X58636623Y-69446784D01*
X58636620Y-69446779D01*
X58634255Y-69442717D01*
X58631307Y-69439045D01*
X58560186Y-69350467D01*
X63220599Y-69350467D01*
X63254167Y-69407119D01*
X63256122Y-69409750D01*
X63280619Y-69442717D01*
X63293655Y-69460261D01*
X63338749Y-69510049D01*
X63389137Y-69556639D01*
X63444503Y-69600187D01*
X63457675Y-69609109D01*
X63502151Y-69639235D01*
X63502158Y-69639239D01*
X63504536Y-69640850D01*
X63507052Y-69642239D01*
X63507056Y-69642241D01*
X63527360Y-69653447D01*
X63532316Y-69656332D01*
X63533516Y-69657068D01*
X63535875Y-69658665D01*
X63538362Y-69660037D01*
X63538366Y-69660040D01*
X63586423Y-69686562D01*
X63668683Y-69731959D01*
X63671498Y-69733172D01*
X63671507Y-69733176D01*
X63752708Y-69768154D01*
X63816391Y-69795587D01*
X63976492Y-69850797D01*
X64146478Y-69898840D01*
X64147755Y-69899143D01*
X64147773Y-69899148D01*
X64269717Y-69928111D01*
X64323839Y-69940966D01*
X64325069Y-69941206D01*
X64325084Y-69941209D01*
X64689910Y-70012322D01*
X64689945Y-70012328D01*
X64690656Y-70012467D01*
X64855320Y-70040718D01*
X65056048Y-70075156D01*
X65057743Y-70075459D01*
X65181718Y-70098477D01*
X65400129Y-70139029D01*
X65404723Y-70139972D01*
X65539637Y-70170312D01*
X65558456Y-70174544D01*
X65563922Y-70175903D01*
X65706368Y-70214701D01*
X65708207Y-70215217D01*
X66130241Y-70337066D01*
X66131080Y-70337283D01*
X66131104Y-70337290D01*
X66475856Y-70426623D01*
X66562498Y-70449074D01*
X66563247Y-70449247D01*
X66563271Y-70449253D01*
X66852154Y-70516022D01*
X67004181Y-70551160D01*
X67250315Y-70601535D01*
X67454300Y-70643284D01*
X67454313Y-70643286D01*
X67455425Y-70643514D01*
X67817834Y-70704297D01*
X68385773Y-70799552D01*
X68385793Y-70799555D01*
X68387147Y-70799782D01*
X69358756Y-70919395D01*
X69359979Y-70919497D01*
X69359998Y-70919499D01*
X70370263Y-71003778D01*
X70370287Y-71003780D01*
X70371347Y-71003868D01*
X71185914Y-71043143D01*
X71425035Y-71054672D01*
X71425042Y-71054672D01*
X71426012Y-71054719D01*
X71426960Y-71054735D01*
X71426985Y-71054736D01*
X72523022Y-71073449D01*
X72523026Y-71073449D01*
X72523845Y-71073463D01*
X73353573Y-71064857D01*
X73647822Y-71061805D01*
X73665939Y-71061617D01*
X73669401Y-71003778D01*
X73696499Y-70550978D01*
X73706993Y-70375628D01*
X73741459Y-69663270D01*
X73741601Y-69658665D01*
X73763721Y-68936658D01*
X73763743Y-68935940D01*
X73766822Y-68436554D01*
X73768243Y-68206061D01*
X73768243Y-68206041D01*
X73768249Y-68205036D01*
X73767284Y-68168027D01*
X73755749Y-67725954D01*
X73749383Y-67481953D01*
X73747269Y-67444308D01*
X73729477Y-67127598D01*
X73729476Y-67127583D01*
X73729438Y-67126907D01*
X73728947Y-67120759D01*
X73701619Y-66778941D01*
X73701619Y-66778938D01*
X73701551Y-66778091D01*
X73696303Y-66729070D01*
X73666969Y-66455108D01*
X73665023Y-66436929D01*
X73663187Y-66423632D01*
X73619305Y-66105930D01*
X73619304Y-66105922D01*
X73619155Y-66104845D01*
X73609021Y-66046550D01*
X73563468Y-65784524D01*
X73563465Y-65784510D01*
X73563249Y-65783266D01*
X73542785Y-65688183D01*
X73496603Y-65473614D01*
X73496565Y-65473439D01*
X73488660Y-65437025D01*
X73453874Y-65276788D01*
X73453124Y-65273059D01*
X73449305Y-65252457D01*
X73415867Y-65072109D01*
X73415459Y-65069786D01*
X73345878Y-64650845D01*
X73345858Y-64650725D01*
X73345811Y-64650444D01*
X73345744Y-64650054D01*
X73308795Y-64436025D01*
X73308787Y-64435979D01*
X73308683Y-64435379D01*
X73307050Y-64426930D01*
X73266873Y-64219083D01*
X73266867Y-64219055D01*
X73266692Y-64218149D01*
X73217292Y-63999526D01*
X73213151Y-63983473D01*
X73189195Y-63890623D01*
X73189017Y-63889933D01*
X73157936Y-63780282D01*
X73153040Y-63765859D01*
X73146027Y-63745200D01*
X73146023Y-63745188D01*
X73145511Y-63743681D01*
X73130408Y-63705685D01*
X73128832Y-63701721D01*
X73128826Y-63701707D01*
X73128363Y-63700542D01*
X73082947Y-63598389D01*
X73079599Y-63591289D01*
X72994800Y-63411496D01*
X72969395Y-63357631D01*
X72968579Y-63355866D01*
X72964422Y-63346679D01*
X72913263Y-63233637D01*
X72912016Y-63230788D01*
X72887907Y-63173809D01*
X72886685Y-63170814D01*
X72865655Y-63117326D01*
X72864085Y-63113112D01*
X72847122Y-63064939D01*
X72845126Y-63058765D01*
X72833049Y-63017843D01*
X72830663Y-63008438D01*
X72823612Y-62975349D01*
X72821831Y-62964822D01*
X72821607Y-62963043D01*
X72820703Y-62955852D01*
X72819860Y-62946096D01*
X72819328Y-62934851D01*
X72819235Y-62932379D01*
X72816280Y-62825492D01*
X72816280Y-62825484D01*
X72816238Y-62823980D01*
X72806887Y-62701071D01*
X72791445Y-62566933D01*
X72779025Y-62483359D01*
X72770281Y-62424517D01*
X72770276Y-62424484D01*
X72770146Y-62423612D01*
X72756713Y-62348549D01*
X72743375Y-62274012D01*
X72743369Y-62273981D01*
X72743221Y-62273154D01*
X72738031Y-62248173D01*
X72711070Y-62118418D01*
X72711069Y-62118413D01*
X72710901Y-62117605D01*
X72710555Y-62116138D01*
X72676673Y-61972786D01*
X72673418Y-61959012D01*
X72662897Y-61919424D01*
X72631241Y-61800311D01*
X72631237Y-61800298D01*
X72631004Y-61799420D01*
X72583889Y-61640876D01*
X72532306Y-61485426D01*
X72476486Y-61335116D01*
X72452234Y-61277097D01*
X72417239Y-61193374D01*
X72417234Y-61193362D01*
X72416661Y-61191992D01*
X72353063Y-61058101D01*
X72352207Y-61056539D01*
X72352200Y-61056524D01*
X72287005Y-60937465D01*
X72287000Y-60937456D01*
X72285922Y-60935488D01*
X72215470Y-60826199D01*
X72213700Y-60823938D01*
X72213692Y-60823927D01*
X72168729Y-60766498D01*
X72142485Y-60700530D01*
X72141940Y-60688824D01*
X72141940Y-60647616D01*
X72136879Y-60649984D01*
X72121637Y-60636777D01*
X72120891Y-60636436D01*
X72110601Y-60634957D01*
X72110601Y-60629801D01*
X72095692Y-60636777D01*
X72060403Y-60653288D01*
X72060399Y-60653290D01*
X72057232Y-60654772D01*
X72054252Y-60656593D01*
X72054246Y-60656596D01*
X72009155Y-60684147D01*
X72001518Y-60688813D01*
X71999337Y-60690417D01*
X71999336Y-60690418D01*
X71945359Y-60730123D01*
X71945351Y-60730130D01*
X71943644Y-60731385D01*
X71883797Y-60781949D01*
X71882103Y-60783617D01*
X71882092Y-60783627D01*
X71779288Y-60884850D01*
X71758928Y-60904897D01*
X71707671Y-60963193D01*
X71635861Y-61044864D01*
X71628402Y-61053347D01*
X71493708Y-61222986D01*
X71356338Y-61409503D01*
X71217782Y-61608587D01*
X71079529Y-61815927D01*
X71003471Y-61935021D01*
X70810068Y-62237854D01*
X70810028Y-62237918D01*
X70809895Y-62238126D01*
X70769732Y-62302808D01*
X70559425Y-62641501D01*
X70559203Y-62641858D01*
X70340905Y-62990191D01*
X70338716Y-62993561D01*
X70165113Y-63251721D01*
X70161276Y-63257115D01*
X69947165Y-63541976D01*
X69945018Y-63544751D01*
X69720763Y-63826423D01*
X69718670Y-63828982D01*
X69485712Y-64106329D01*
X69483687Y-64108681D01*
X69401252Y-64202037D01*
X69242701Y-64381593D01*
X69240736Y-64383767D01*
X69002457Y-64641282D01*
X68992320Y-64652237D01*
X68990424Y-64654242D01*
X68735177Y-64918255D01*
X68733354Y-64920102D01*
X68471913Y-65179607D01*
X68470165Y-65181308D01*
X68203203Y-65436226D01*
X68201544Y-65437782D01*
X68009119Y-65614946D01*
X67929573Y-65688183D01*
X67927996Y-65689610D01*
X67795410Y-65807561D01*
X67652107Y-65935046D01*
X67649869Y-65936991D01*
X67086486Y-66414918D01*
X67083749Y-66417175D01*
X66909284Y-66556925D01*
X66510941Y-66876005D01*
X66508542Y-66877877D01*
X65929932Y-67318468D01*
X65765090Y-67444308D01*
X65602486Y-67574138D01*
X65601924Y-67574608D01*
X65281740Y-67842329D01*
X65281680Y-67842380D01*
X65281559Y-67842481D01*
X64657350Y-68375902D01*
X64640721Y-68390112D01*
X64638865Y-68391667D01*
X64476697Y-68524942D01*
X64475008Y-68526306D01*
X64310338Y-68656951D01*
X64308171Y-68658631D01*
X64212780Y-68730957D01*
X64140793Y-68785538D01*
X64138116Y-68787513D01*
X63967367Y-68909954D01*
X63964160Y-68912178D01*
X63915631Y-68944732D01*
X63798128Y-69023556D01*
X63789556Y-69029306D01*
X63785776Y-69031745D01*
X63606674Y-69142831D01*
X63602340Y-69145401D01*
X63433488Y-69241002D01*
X63418102Y-69249713D01*
X63413222Y-69252336D01*
X63220599Y-69350467D01*
X58560186Y-69350467D01*
X58540074Y-69325418D01*
X58540070Y-69325413D01*
X58537990Y-69322823D01*
X58535655Y-69320472D01*
X58535648Y-69320465D01*
X58399018Y-69182945D01*
X58399007Y-69182935D01*
X58397694Y-69181613D01*
X58229957Y-69031745D01*
X58220792Y-69023556D01*
X58220775Y-69023542D01*
X58219915Y-69022773D01*
X58011206Y-68849985D01*
X58003150Y-68843658D01*
X57778762Y-68667440D01*
X57778757Y-68667436D01*
X57778115Y-68666932D01*
X57264989Y-68284770D01*
X56837408Y-67980174D01*
X56733194Y-67905935D01*
X56733171Y-67905919D01*
X56732941Y-67905755D01*
X56234371Y-67559356D01*
X55549485Y-67083818D01*
X55545145Y-67080665D01*
X55309007Y-66901334D01*
X55305612Y-66898663D01*
X55280128Y-66877894D01*
X55068042Y-66705053D01*
X55065122Y-66702599D01*
X54827068Y-66496256D01*
X54824523Y-66493989D01*
X54586652Y-66276261D01*
X54584419Y-66274167D01*
X54553379Y-66244337D01*
X54347564Y-66046550D01*
X54345592Y-66044613D01*
X54216382Y-65914872D01*
X54110370Y-65808424D01*
X54108634Y-65806646D01*
X54087465Y-65784524D01*
X53875800Y-65563338D01*
X53874240Y-65561677D01*
X53792994Y-65473614D01*
X53644892Y-65313087D01*
X53642821Y-65310787D01*
X53195032Y-64800848D01*
X53192654Y-64798059D01*
X52868772Y-64406839D01*
X52765872Y-64282545D01*
X52763838Y-64280023D01*
X52705018Y-64205112D01*
X52363130Y-63769701D01*
X52361311Y-63767326D01*
X52312273Y-63701721D01*
X52139656Y-63470790D01*
X51991452Y-63272519D01*
X51991441Y-63272505D01*
X51991274Y-63272281D01*
X51873462Y-63117326D01*
X51867792Y-63109868D01*
X51867785Y-63109859D01*
X51867144Y-63109016D01*
X51866491Y-63108215D01*
X51866476Y-63108195D01*
X51736119Y-62948111D01*
X51736112Y-62948103D01*
X51735460Y-62947302D01*
X51723541Y-62933614D01*
X51455963Y-62626336D01*
X51455579Y-62625895D01*
X51245939Y-62393663D01*
X51164434Y-62303375D01*
X51163474Y-62302300D01*
X51035954Y-62157749D01*
X50873865Y-61974012D01*
X50871704Y-61971496D01*
X50820695Y-61910497D01*
X50732338Y-61804835D01*
X50730192Y-61802197D01*
X50728701Y-61800311D01*
X50595798Y-61632274D01*
X50593150Y-61628803D01*
X50465519Y-61455408D01*
X50462460Y-61451064D01*
X50342982Y-61273525D01*
X50339611Y-61268236D01*
X50229748Y-61086022D01*
X50226196Y-61079730D01*
X50127302Y-60892172D01*
X50123739Y-60884850D01*
X50048974Y-60717693D01*
X50036709Y-60690269D01*
X50034162Y-60684147D01*
X49996311Y-60585934D01*
X49994712Y-60581544D01*
X49990160Y-60568279D01*
X49977140Y-60530343D01*
X49965154Y-60495419D01*
X49965153Y-60495418D01*
X49959272Y-60478282D01*
X49953017Y-60478282D01*
X49950921Y-60475322D01*
X49950715Y-60475159D01*
X49930125Y-60466854D01*
X49927933Y-60460467D01*
X49758599Y-60460467D01*
X49751153Y-60477716D01*
X49751152Y-60477717D01*
X49553536Y-60935488D01*
X49519244Y-61014924D01*
X49518743Y-61016245D01*
X49337445Y-61494283D01*
X49302276Y-61587014D01*
X49301861Y-61588265D01*
X49301860Y-61588268D01*
X49107451Y-62174397D01*
X49106863Y-62176169D01*
X49106524Y-62177345D01*
X49106521Y-62177354D01*
X48947890Y-62727331D01*
X48932174Y-62781817D01*
X48931909Y-62782881D01*
X48931905Y-62782896D01*
X48777628Y-63402384D01*
X48777378Y-63403388D01*
X48777164Y-63404390D01*
X48777161Y-63404405D01*
X48737856Y-63588842D01*
X48641645Y-64040312D01*
X48524143Y-64692018D01*
X48512719Y-64768018D01*
X48430784Y-65313087D01*
X48424042Y-65357936D01*
X48423944Y-65358731D01*
X48423941Y-65358755D01*
X48406569Y-65500087D01*
X48340510Y-66037496D01*
X48340437Y-66038242D01*
X48273141Y-66725799D01*
X48272717Y-66730127D01*
X48272650Y-66731172D01*
X48272648Y-66731192D01*
X48183145Y-68119388D01*
X48181022Y-68152320D01*
X48142310Y-69619954D01*
X46246877Y-69619954D01*
X46249551Y-69409450D01*
X46249618Y-69406657D01*
X46280360Y-68525635D01*
X46290629Y-68231355D01*
X46290789Y-68228023D01*
X46291497Y-68216543D01*
X46330047Y-67590877D01*
X46360346Y-67099125D01*
X46360649Y-67095207D01*
X46452650Y-66105930D01*
X46461856Y-66006936D01*
X46462350Y-66002484D01*
X46467343Y-65963800D01*
X46598408Y-64948235D01*
X46598935Y-64944578D01*
X46680839Y-64429511D01*
X46681277Y-64426930D01*
X46773134Y-63917713D01*
X46773646Y-63915040D01*
X46875757Y-63411496D01*
X46876347Y-63408745D01*
X46877329Y-63404405D01*
X46919230Y-63219115D01*
X46989104Y-62910130D01*
X46989774Y-62907319D01*
X47113562Y-62412917D01*
X47114312Y-62410064D01*
X47249441Y-61919424D01*
X47250482Y-61915853D01*
X47315176Y-61705663D01*
X47316437Y-61701791D01*
X47388724Y-61491389D01*
X47389882Y-61488160D01*
X47390906Y-61485426D01*
X47433317Y-61372118D01*
X47468883Y-61277097D01*
X47469900Y-61274471D01*
X47554350Y-61063344D01*
X47555501Y-61060564D01*
X47737563Y-60635723D01*
X47738420Y-60633773D01*
X47739469Y-60631443D01*
X47929590Y-60208915D01*
X47929649Y-60208785D01*
X48120733Y-59785394D01*
X48120757Y-59785339D01*
X48120922Y-59784974D01*
X48242064Y-59504772D01*
X48302826Y-59364230D01*
X48302831Y-59364219D01*
X48303106Y-59363582D01*
X48388001Y-59154037D01*
X48467287Y-58945364D01*
X48479690Y-58909862D01*
X48539522Y-58738605D01*
X48539530Y-58738581D01*
X48539858Y-58737642D01*
X48540153Y-58736699D01*
X48540164Y-58736667D01*
X48603788Y-58533559D01*
X48604606Y-58530948D01*
X48605570Y-58526567D01*
X48619233Y-58464426D01*
X48620026Y-58460820D01*
X48622581Y-58435179D01*
X48627484Y-58385971D01*
X48627484Y-58385966D01*
X48627775Y-58383048D01*
X48628280Y-58298164D01*
X48624046Y-58236789D01*
X48622157Y-58209410D01*
X48622156Y-58209403D01*
X48621970Y-58206704D01*
X48621181Y-58201653D01*
X48603694Y-58089801D01*
X50774600Y-58089801D01*
X50792440Y-58191899D01*
X50813644Y-58291977D01*
X50813910Y-58293046D01*
X50813914Y-58293064D01*
X50837020Y-58385971D01*
X50838049Y-58390109D01*
X50838337Y-58391120D01*
X50838345Y-58391149D01*
X50853538Y-58444432D01*
X50865495Y-58486365D01*
X50895820Y-58580819D01*
X50896154Y-58581755D01*
X50896161Y-58581777D01*
X50909409Y-58618953D01*
X50928863Y-58673544D01*
X51002460Y-58854093D01*
X51003199Y-58855656D01*
X51003205Y-58855669D01*
X51081678Y-59021581D01*
X51084994Y-59028591D01*
X51085702Y-59029917D01*
X51085703Y-59029920D01*
X51127868Y-59108947D01*
X51175178Y-59197619D01*
X51175858Y-59198775D01*
X51263098Y-59347097D01*
X51271719Y-59361755D01*
X51272293Y-59362658D01*
X51272298Y-59362666D01*
X51273731Y-59364920D01*
X51373330Y-59521578D01*
X51373799Y-59522272D01*
X51373813Y-59522294D01*
X51421457Y-59592858D01*
X51478720Y-59677670D01*
X51586600Y-59830608D01*
X51682103Y-59961438D01*
X51804669Y-60129342D01*
X51804898Y-60129658D01*
X52016414Y-60421307D01*
X52018011Y-60423560D01*
X52117315Y-60566999D01*
X52119076Y-60569615D01*
X52213710Y-60714125D01*
X52214243Y-60714946D01*
X52503927Y-61164896D01*
X52504232Y-61165353D01*
X52504243Y-61165369D01*
X52786957Y-61588268D01*
X52798280Y-61605206D01*
X52798641Y-61605725D01*
X52798644Y-61605729D01*
X52817549Y-61632888D01*
X53097750Y-62035429D01*
X53152389Y-62110614D01*
X53370006Y-62410064D01*
X53403097Y-62455599D01*
X53424213Y-62483359D01*
X53609791Y-62727331D01*
X53715080Y-62865751D01*
X53715537Y-62866323D01*
X53715556Y-62866348D01*
X53836467Y-63017843D01*
X54034458Y-63265917D01*
X54034948Y-63266501D01*
X54034958Y-63266513D01*
X54314040Y-63599006D01*
X54361989Y-63656131D01*
X54698433Y-64036427D01*
X54699054Y-64037091D01*
X54699058Y-64037096D01*
X55021990Y-64382695D01*
X55044550Y-64406839D01*
X55045162Y-64407458D01*
X55045189Y-64407486D01*
X55285442Y-64650444D01*
X55401097Y-64767401D01*
X55401744Y-64768018D01*
X55768133Y-65117478D01*
X55768154Y-65117497D01*
X55768834Y-65118146D01*
X56148520Y-65459108D01*
X56149255Y-65459729D01*
X56149258Y-65459731D01*
X56266698Y-65558860D01*
X56540914Y-65790320D01*
X56541654Y-65790906D01*
X56541677Y-65790925D01*
X56937973Y-66104845D01*
X56946775Y-66111817D01*
X57366862Y-66423632D01*
X57468165Y-66493989D01*
X57800839Y-66725039D01*
X57800855Y-66725050D01*
X57801934Y-66725799D01*
X57803027Y-66726491D01*
X57803051Y-66726507D01*
X57883202Y-66777256D01*
X57935115Y-66810126D01*
X58092616Y-66901670D01*
X58093487Y-66902140D01*
X58100513Y-66905932D01*
X58103952Y-66907859D01*
X58123955Y-66919485D01*
X58124825Y-66919954D01*
X58124849Y-66919968D01*
X58495924Y-67120235D01*
X58495955Y-67120251D01*
X58496412Y-67120498D01*
X58496914Y-67120757D01*
X58496917Y-67120759D01*
X59361752Y-67567674D01*
X59363440Y-67568562D01*
X59793101Y-67799147D01*
X59795604Y-67800529D01*
X59869295Y-67842329D01*
X59964814Y-67896511D01*
X59967449Y-67898048D01*
X59980601Y-67905935D01*
X60150660Y-68007919D01*
X60154279Y-68010174D01*
X60319126Y-68116777D01*
X60324146Y-68120198D01*
X60456452Y-68215103D01*
X60465014Y-68221245D01*
X60472123Y-68226738D01*
X60507217Y-68255916D01*
X60585827Y-68321274D01*
X60593142Y-68327856D01*
X60635874Y-68369435D01*
X60642064Y-68375902D01*
X60668543Y-68405609D01*
X60668545Y-68405610D01*
X60680599Y-68419134D01*
X60689666Y-68418770D01*
X60703313Y-68427272D01*
X60711938Y-68436949D01*
X60721771Y-68436554D01*
X60721773Y-68436554D01*
X60839416Y-68431826D01*
X60839424Y-68431826D01*
X60840855Y-68431768D01*
X60842278Y-68431647D01*
X60842293Y-68431646D01*
X60907840Y-68426069D01*
X60966663Y-68421065D01*
X60968044Y-68420886D01*
X60968058Y-68420884D01*
X61085572Y-68405609D01*
X61089473Y-68405102D01*
X61209396Y-68384141D01*
X61326542Y-68358442D01*
X61327780Y-68358116D01*
X61327787Y-68358114D01*
X61399499Y-68339212D01*
X61441022Y-68328267D01*
X61552947Y-68293876D01*
X61662427Y-68255532D01*
X61769574Y-68213495D01*
X61822049Y-68190755D01*
X61873570Y-68168430D01*
X61873591Y-68168420D01*
X61874499Y-68168027D01*
X61977311Y-68119388D01*
X61978172Y-68118948D01*
X61978204Y-68118932D01*
X62076931Y-68068449D01*
X62076950Y-68068439D01*
X62078121Y-68067840D01*
X62079268Y-68067192D01*
X62272878Y-67957800D01*
X62272885Y-67957796D01*
X62274182Y-67957063D01*
X62463565Y-67837784D01*
X62647159Y-67712094D01*
X62746501Y-67639814D01*
X62825249Y-67582518D01*
X62825259Y-67582511D01*
X62825848Y-67582082D01*
X62826396Y-67581663D01*
X62826423Y-67581643D01*
X63130582Y-67349154D01*
X63172057Y-67317452D01*
X63507899Y-67061665D01*
X63510710Y-67059586D01*
X63674984Y-66941599D01*
X63678532Y-66939141D01*
X63844094Y-66828624D01*
X63845243Y-66827867D01*
X64259661Y-66557726D01*
X64260267Y-66557331D01*
X64260840Y-66556940D01*
X64260862Y-66556925D01*
X64666969Y-66279576D01*
X64667552Y-66279178D01*
X65066359Y-65993584D01*
X65066916Y-65993165D01*
X65066952Y-65993139D01*
X65455967Y-65700772D01*
X65455994Y-65700751D01*
X65456585Y-65700307D01*
X65838127Y-65399107D01*
X66210883Y-65089745D01*
X66574750Y-64771979D01*
X66575323Y-64771452D01*
X66575352Y-64771426D01*
X66773464Y-64589205D01*
X66929626Y-64445570D01*
X67177606Y-64205112D01*
X67274833Y-64110834D01*
X67274848Y-64110819D01*
X67275407Y-64110277D01*
X67611990Y-63765859D01*
X67651177Y-63723500D01*
X67938657Y-63412745D01*
X67939275Y-63412077D01*
X67956570Y-63392306D01*
X68256545Y-63049389D01*
X68256561Y-63049370D01*
X68257156Y-63048690D01*
X68286489Y-63013188D01*
X68564945Y-62676169D01*
X68564954Y-62676157D01*
X68565533Y-62675457D01*
X68762515Y-62422730D01*
X68863761Y-62292832D01*
X68863766Y-62292826D01*
X68864301Y-62292139D01*
X68913627Y-62224966D01*
X69152847Y-61899192D01*
X69152864Y-61899167D01*
X69153359Y-61898494D01*
X69210798Y-61815351D01*
X69431929Y-61495260D01*
X69432604Y-61494283D01*
X69539068Y-61327320D01*
X69642920Y-61149904D01*
X69730972Y-60988862D01*
X69744396Y-60964311D01*
X69744400Y-60964304D01*
X69744701Y-60963753D01*
X69760354Y-60933594D01*
X69844642Y-60771190D01*
X69844658Y-60771157D01*
X69844955Y-60770586D01*
X69845249Y-60769986D01*
X69845271Y-60769943D01*
X70241177Y-59962829D01*
X70241870Y-59961438D01*
X70320888Y-59805250D01*
X70443972Y-59561962D01*
X70445473Y-59559088D01*
X70548656Y-59367785D01*
X70550250Y-59364920D01*
X70655891Y-59180783D01*
X70658070Y-59177128D01*
X70727123Y-59065662D01*
X70766442Y-59002195D01*
X70769323Y-58997758D01*
X70880732Y-58833887D01*
X70884588Y-58828526D01*
X70999322Y-58677482D01*
X71004430Y-58671188D01*
X71114076Y-58544641D01*
X71114077Y-58544638D01*
X71125939Y-58530948D01*
X71123815Y-58511960D01*
X71117286Y-58453606D01*
X73275912Y-58453606D01*
X73276149Y-58456462D01*
X73276149Y-58456473D01*
X73278885Y-58489496D01*
X73282206Y-58529580D01*
X73295933Y-58597801D01*
X73296708Y-58600438D01*
X73347860Y-58774496D01*
X73358020Y-58809070D01*
X73372167Y-58851939D01*
X73426331Y-59016065D01*
X73428151Y-59021581D01*
X73428426Y-59022342D01*
X73428437Y-59022375D01*
X73491251Y-59196444D01*
X73505247Y-59235230D01*
X73588229Y-59449914D01*
X73588516Y-59450607D01*
X73588527Y-59450633D01*
X73692054Y-59700086D01*
X73767540Y-59881972D01*
X73767782Y-59882527D01*
X73767790Y-59882545D01*
X73769131Y-59885616D01*
X73957456Y-60316926D01*
X74141545Y-60736176D01*
X74148977Y-60753103D01*
X74149666Y-60754701D01*
X74333616Y-61189908D01*
X74333847Y-61190455D01*
X74335270Y-61193969D01*
X74418777Y-61409503D01*
X74503783Y-61628906D01*
X74505249Y-61632888D01*
X74544176Y-61744364D01*
X74572188Y-61824582D01*
X74580504Y-61848398D01*
X74581643Y-61851817D01*
X74623224Y-61982855D01*
X74649908Y-62066949D01*
X74651217Y-62071355D01*
X74765533Y-62483359D01*
X74773810Y-62513192D01*
X74774928Y-62517520D01*
X74880756Y-62959569D01*
X74881491Y-62962827D01*
X74922540Y-63157084D01*
X74975061Y-63405632D01*
X74975495Y-63407780D01*
X75061154Y-63851130D01*
X75061315Y-63851981D01*
X75226434Y-64739308D01*
X75226474Y-64739514D01*
X75226527Y-64739800D01*
X75226593Y-64740133D01*
X75226596Y-64740147D01*
X75232934Y-64771979D01*
X75314736Y-65182855D01*
X75398928Y-65563353D01*
X75410344Y-65614946D01*
X75413146Y-65635543D01*
X75497266Y-67233800D01*
X75506699Y-67286076D01*
X75517033Y-67343350D01*
X75517939Y-67349142D01*
X75524798Y-67400845D01*
X75537699Y-67498090D01*
X75538226Y-67502722D01*
X75576602Y-67905935D01*
X75576747Y-67907463D01*
X75577054Y-67911316D01*
X75592417Y-68151107D01*
X75609026Y-68410357D01*
X75609195Y-68413683D01*
X75623281Y-68788673D01*
X75629158Y-68945112D01*
X75629623Y-68957503D01*
X75629709Y-68961303D01*
X75633690Y-69500924D01*
X75633661Y-69504690D01*
X75628003Y-69756002D01*
X75627879Y-69759426D01*
X75617851Y-69961029D01*
X75616362Y-69990956D01*
X75616044Y-69995610D01*
X75600333Y-70175903D01*
X75598231Y-70200023D01*
X75597440Y-70206906D01*
X75573209Y-70376498D01*
X75571094Y-70387671D01*
X75544450Y-70500347D01*
X75540743Y-70516022D01*
X75536550Y-70530055D01*
X75521966Y-70570193D01*
X75515621Y-70584732D01*
X75497266Y-70620467D01*
X75497266Y-70705135D01*
X75504379Y-70704544D01*
X75517082Y-70715552D01*
X75521180Y-70717498D01*
X75528605Y-70718794D01*
X75528605Y-70722950D01*
X75709258Y-70707952D01*
X75923961Y-70690128D01*
X75923980Y-70690126D01*
X75925245Y-70690021D01*
X75926495Y-70689865D01*
X75926513Y-70689863D01*
X76254520Y-70648894D01*
X76316793Y-70641116D01*
X76317982Y-70640920D01*
X76318002Y-70640917D01*
X76701856Y-70577609D01*
X76701872Y-70577606D01*
X76702988Y-70577422D01*
X77083565Y-70500130D01*
X77084601Y-70499882D01*
X77084610Y-70499880D01*
X77457315Y-70410657D01*
X77457332Y-70410653D01*
X77458262Y-70410430D01*
X77826816Y-70309510D01*
X78188964Y-70198561D01*
X78436240Y-70115234D01*
X78543674Y-70079031D01*
X78543688Y-70079026D01*
X78544442Y-70078772D01*
X78726180Y-70012322D01*
X78892308Y-69951580D01*
X78892334Y-69951570D01*
X78892988Y-69951331D01*
X79148030Y-69851286D01*
X79233436Y-69817784D01*
X79233446Y-69817780D01*
X79234338Y-69817430D01*
X79894399Y-69535001D01*
X79895333Y-69534564D01*
X79895355Y-69534554D01*
X80521855Y-69241315D01*
X80521877Y-69241304D01*
X80522523Y-69241002D01*
X81087555Y-68959423D01*
X81116272Y-68945112D01*
X81117042Y-68944732D01*
X81185735Y-68911082D01*
X81323404Y-68843644D01*
X81326795Y-68842046D01*
X81528353Y-68750767D01*
X81531415Y-68749429D01*
X81730121Y-68665747D01*
X81732721Y-68664686D01*
X81928731Y-68587236D01*
X81931453Y-68586197D01*
X82319912Y-68442998D01*
X82321278Y-68442503D01*
X82704648Y-68306180D01*
X82704667Y-68306173D01*
X82704971Y-68306065D01*
X82737848Y-68293876D01*
X82786180Y-68275957D01*
X83086565Y-68164588D01*
X83277406Y-68088264D01*
X83468850Y-68006200D01*
X83469636Y-68005835D01*
X83469659Y-68005825D01*
X83660399Y-67917313D01*
X83661328Y-67916882D01*
X83672277Y-67911345D01*
X83854246Y-67819316D01*
X83854251Y-67819313D01*
X83855270Y-67818798D01*
X83991839Y-67743230D01*
X84050045Y-67711023D01*
X84050059Y-67711015D01*
X84051107Y-67710435D01*
X84249269Y-67590279D01*
X84250210Y-67589659D01*
X84250237Y-67589642D01*
X84394785Y-67494412D01*
X84394793Y-67494406D01*
X84395615Y-67493865D01*
X84502893Y-67418235D01*
X84538860Y-67392879D01*
X84538881Y-67392864D01*
X84539553Y-67392390D01*
X84681349Y-67286519D01*
X84753707Y-67229839D01*
X84820586Y-67177450D01*
X84821269Y-67176915D01*
X84831153Y-67168738D01*
X85096027Y-66949592D01*
X85096542Y-66949166D01*
X85130807Y-66919485D01*
X85367495Y-66714457D01*
X85367545Y-66714413D01*
X85547535Y-66557331D01*
X85903652Y-66246537D01*
X85906242Y-66244337D01*
X86174339Y-66022811D01*
X86177049Y-66020633D01*
X86311337Y-65915770D01*
X86313669Y-65913995D01*
X86449030Y-65813449D01*
X86452223Y-65811154D01*
X86576375Y-65724813D01*
X86579297Y-65722841D01*
X86714244Y-65634488D01*
X86716991Y-65632740D01*
X87014989Y-65448457D01*
X87016119Y-65447766D01*
X87239108Y-65313087D01*
X87662375Y-65057446D01*
X87823241Y-64955851D01*
X87980141Y-64852736D01*
X88131261Y-64748127D01*
X88274785Y-64642052D01*
X88275733Y-64641292D01*
X88275746Y-64641282D01*
X88407673Y-64535517D01*
X88408897Y-64534536D01*
X88531781Y-64425607D01*
X88641622Y-64315290D01*
X88736603Y-64203614D01*
X89121951Y-63688242D01*
X89495661Y-63157642D01*
X89859906Y-62615945D01*
X90157349Y-62158759D01*
X90216676Y-62067570D01*
X90216724Y-62067496D01*
X90216862Y-62067284D01*
X90917601Y-60965591D01*
X91005831Y-60827525D01*
X91265394Y-60421353D01*
X91266071Y-60420305D01*
X91615185Y-59885746D01*
X91615270Y-59885616D01*
X91650587Y-59830608D01*
X91673729Y-59794564D01*
X91673748Y-59794534D01*
X91674140Y-59793923D01*
X91731512Y-59699455D01*
X91843576Y-59504772D01*
X91954614Y-59307563D01*
X91955572Y-59305892D01*
X92053872Y-59137520D01*
X92068816Y-59111923D01*
X92070610Y-59108947D01*
X92108587Y-59047847D01*
X92128352Y-59016048D01*
X92130200Y-59013163D01*
X92189762Y-58922936D01*
X92192213Y-58919358D01*
X92253728Y-58832807D01*
X92256874Y-58828572D01*
X92320651Y-58746356D01*
X92324608Y-58741508D01*
X92366557Y-58692648D01*
X92391018Y-58664156D01*
X92395913Y-58658778D01*
X92465249Y-58586873D01*
X92471197Y-58581098D01*
X92544738Y-58514269D01*
X92549938Y-58509797D01*
X92586744Y-58479845D01*
X92590605Y-58476826D01*
X92616786Y-58457162D01*
X92631271Y-58446283D01*
X92596132Y-58321862D01*
X92591540Y-58307655D01*
X92562253Y-58217056D01*
X92556189Y-58198298D01*
X92555470Y-58196412D01*
X92463568Y-57955557D01*
X92463567Y-57955555D01*
X92462875Y-57953741D01*
X92385364Y-57783170D01*
X92354013Y-57714179D01*
X92354007Y-57714168D01*
X92353301Y-57712613D01*
X92229434Y-57474914D01*
X92093246Y-57240646D01*
X91946705Y-57009808D01*
X91816962Y-56819362D01*
X91792253Y-56783092D01*
X91792244Y-56783080D01*
X91791782Y-56782401D01*
X91630446Y-56558427D01*
X91296416Y-56120778D01*
X90960371Y-55696867D01*
X90638759Y-55287577D01*
X90637329Y-55285720D01*
X90617539Y-55259529D01*
X90487847Y-55087897D01*
X90486189Y-55085652D01*
X90432037Y-55010575D01*
X90346337Y-54891761D01*
X90344244Y-54888769D01*
X90179196Y-54645349D01*
X90177488Y-54642761D01*
X90096691Y-54517045D01*
X90020791Y-54398949D01*
X90019641Y-54397124D01*
X89717382Y-53907631D01*
X89566254Y-53663955D01*
X89411011Y-53421730D01*
X89248425Y-53181286D01*
X89163370Y-53061834D01*
X89146016Y-53038416D01*
X89075991Y-52943922D01*
X89075974Y-52943899D01*
X89075270Y-52942950D01*
X88953898Y-52791582D01*
X88944776Y-52781337D01*
X88824056Y-52645768D01*
X88824046Y-52645758D01*
X88823109Y-52644705D01*
X88822124Y-52643696D01*
X88822111Y-52643682D01*
X88684736Y-52502955D01*
X88684723Y-52502942D01*
X88683854Y-52502052D01*
X88666257Y-52485423D01*
X88546404Y-52372167D01*
X88537081Y-52363357D01*
X88383742Y-52228355D01*
X88382985Y-52227729D01*
X88382967Y-52227713D01*
X88225409Y-52097295D01*
X88224786Y-52096779D01*
X88061162Y-51968364D01*
X87893822Y-51842843D01*
X87551789Y-51599420D01*
X87206286Y-51364382D01*
X87074881Y-51275586D01*
X86537199Y-50912251D01*
X86533391Y-50909574D01*
X86434460Y-50837259D01*
X86430238Y-50834034D01*
X86332439Y-50756014D01*
X86329064Y-50753225D01*
X86231570Y-50669742D01*
X86229007Y-50667485D01*
X86131761Y-50579394D01*
X86129798Y-50577576D01*
X86032665Y-50485698D01*
X86031247Y-50484336D01*
X85934122Y-50389551D01*
X85933025Y-50388467D01*
X85794084Y-50249512D01*
X85737382Y-50192805D01*
X85737383Y-50192805D01*
X85737382Y-50192804D01*
X85737382Y-50192805D01*
X85540695Y-49996714D01*
X85540692Y-49996712D01*
X85540378Y-49996398D01*
X85441014Y-49900172D01*
X85384330Y-49847121D01*
X85341320Y-49806867D01*
X85341314Y-49806861D01*
X85340776Y-49806358D01*
X85239440Y-49715776D01*
X85238767Y-49715208D01*
X85238742Y-49715187D01*
X85137612Y-49629944D01*
X85137592Y-49629928D01*
X85136782Y-49629245D01*
X85087882Y-49590924D01*
X85033639Y-49548417D01*
X85033626Y-49548407D01*
X85032578Y-49547586D01*
X85031475Y-49546795D01*
X84928265Y-49472808D01*
X84928256Y-49472802D01*
X84926603Y-49471617D01*
X84870092Y-49436452D01*
X84858433Y-49430420D01*
X84849783Y-49425501D01*
X84846475Y-49423442D01*
X84840864Y-49419950D01*
X84840853Y-49419944D01*
X84838753Y-49418637D01*
X84780464Y-49388480D01*
X84720579Y-49362657D01*
X84698632Y-49354723D01*
X84660744Y-49341026D01*
X84660722Y-49341019D01*
X84659279Y-49340497D01*
X84653627Y-49338764D01*
X84597901Y-49321678D01*
X84597881Y-49321672D01*
X84596745Y-49321324D01*
X84533158Y-49304467D01*
X84470054Y-49290123D01*
X84403876Y-49275080D01*
X84403810Y-49275065D01*
X84403553Y-49275007D01*
X84403274Y-49274947D01*
X84272955Y-49246952D01*
X84270882Y-49246488D01*
X84207285Y-49231700D01*
X84204260Y-49230957D01*
X84167733Y-49221506D01*
X84141786Y-49214792D01*
X84137599Y-49213631D01*
X84076457Y-49195533D01*
X84071163Y-49193838D01*
X84011483Y-49173269D01*
X84005201Y-49170915D01*
X83947019Y-49147328D01*
X83939921Y-49144193D01*
X83882321Y-49116600D01*
X83876302Y-49113515D01*
X83799370Y-49071430D01*
X83795454Y-49069195D01*
X83712696Y-49019968D01*
X83709548Y-49018032D01*
X83675855Y-48996621D01*
X83611033Y-48955428D01*
X83608581Y-48953828D01*
X83509128Y-48887253D01*
X83506429Y-48885395D01*
X83303331Y-48741652D01*
X83301235Y-48740137D01*
X83096579Y-48588893D01*
X83096045Y-48588496D01*
X82891917Y-48435969D01*
X82891632Y-48435756D01*
X82689869Y-48288035D01*
X82492738Y-48151545D01*
X82491933Y-48151025D01*
X82491907Y-48151008D01*
X82397208Y-48089882D01*
X82397191Y-48089871D01*
X82396439Y-48089386D01*
X82301935Y-48032284D01*
X82300738Y-48031631D01*
X82300690Y-48031603D01*
X82285141Y-48023116D01*
X82280378Y-48020380D01*
X82270596Y-48014469D01*
X82015817Y-47875395D01*
X81786465Y-47760987D01*
X81711959Y-47723821D01*
X81711949Y-47723816D01*
X81711239Y-47723462D01*
X81372801Y-47565312D01*
X81016443Y-47407588D01*
X81016001Y-47407402D01*
X81015959Y-47407384D01*
X80826710Y-47327819D01*
X80658104Y-47256932D01*
X80512489Y-47199027D01*
X80314441Y-47120272D01*
X80314432Y-47120269D01*
X80313724Y-47119987D01*
X80313007Y-47119721D01*
X80000230Y-47003761D01*
X80000201Y-47003751D01*
X79999244Y-47003396D01*
X79730601Y-46913801D01*
X79243279Y-46913801D01*
X79203002Y-46907190D01*
X77933326Y-46478848D01*
X77490276Y-46329379D01*
X77489285Y-46329081D01*
X77020740Y-46188209D01*
X77020717Y-46188202D01*
X77019924Y-46187964D01*
X76781844Y-46123237D01*
X76781284Y-46123098D01*
X76781246Y-46123088D01*
X76543245Y-46063968D01*
X76543225Y-46063963D01*
X76542479Y-46063778D01*
X76541703Y-46063606D01*
X76541686Y-46063602D01*
X76454513Y-46044280D01*
X76302316Y-46010545D01*
X76195291Y-45990051D01*
X76062840Y-45964688D01*
X76062821Y-45964685D01*
X76061846Y-45964498D01*
X75971917Y-45950313D01*
X75822712Y-45926779D01*
X75822694Y-45926777D01*
X75821556Y-45926597D01*
X75741846Y-45917018D01*
X75599920Y-45899962D01*
X75599919Y-45899962D01*
X75581934Y-45897801D01*
X75583058Y-45917018D01*
X75586782Y-45980687D01*
X75609862Y-46375229D01*
X75615720Y-46475381D01*
X75615873Y-46478813D01*
X75632093Y-47003761D01*
X75634186Y-47071505D01*
X75634244Y-47074692D01*
X75636942Y-47569237D01*
X75637550Y-47680733D01*
X75637531Y-47683713D01*
X75634014Y-47874864D01*
X75626198Y-48299654D01*
X75626113Y-48302515D01*
X75600513Y-48924773D01*
X75600368Y-48927538D01*
X75584761Y-49174586D01*
X75560934Y-49551735D01*
X75560886Y-49552492D01*
X75560688Y-49555164D01*
X75507901Y-50176978D01*
X75507697Y-50179380D01*
X75507443Y-50182040D01*
X75451879Y-50703054D01*
X75441316Y-50802097D01*
X75440993Y-50804832D01*
X75362157Y-51416854D01*
X75361763Y-51419666D01*
X75270578Y-52020396D01*
X75270097Y-52023332D01*
X75166971Y-52609154D01*
X75166382Y-52612268D01*
X75051734Y-53179572D01*
X75051008Y-53182930D01*
X74925234Y-53728259D01*
X74924326Y-53731940D01*
X74787885Y-54251605D01*
X74786734Y-54255706D01*
X74640063Y-54746186D01*
X74638583Y-54750810D01*
X74482645Y-55207095D01*
X74479603Y-55215092D01*
X74477329Y-55220509D01*
X74360029Y-55499917D01*
X74358300Y-55503847D01*
X74302087Y-55625918D01*
X74176460Y-55898725D01*
X73959661Y-56367514D01*
X73735406Y-56874178D01*
X73678766Y-57010656D01*
X73646711Y-57087894D01*
X73628796Y-57131060D01*
X73628526Y-57131756D01*
X73628514Y-57131785D01*
X73551876Y-57329083D01*
X73530300Y-57384628D01*
X73495693Y-57482414D01*
X73458298Y-57588079D01*
X73443242Y-57630620D01*
X73442870Y-57631826D01*
X73442869Y-57631828D01*
X73387026Y-57812701D01*
X73370948Y-57864775D01*
X73316745Y-58082832D01*
X73283958Y-58280529D01*
X73283746Y-58283129D01*
X73283746Y-58283130D01*
X73281748Y-58307655D01*
X73276634Y-58370412D01*
X73276614Y-58372707D01*
X73276614Y-58372709D01*
X73276211Y-58419199D01*
X73275912Y-58453606D01*
X71117286Y-58453606D01*
X71114704Y-58430535D01*
X71114703Y-58430527D01*
X71114552Y-58429178D01*
X71114341Y-58427825D01*
X71099150Y-58330495D01*
X71099148Y-58330483D01*
X71098942Y-58329164D01*
X71098205Y-58325470D01*
X71090658Y-58287674D01*
X71079315Y-58230858D01*
X71055876Y-58134211D01*
X71028832Y-58039175D01*
X71012260Y-57988295D01*
X70998729Y-57946751D01*
X70998723Y-57946735D01*
X70998387Y-57945702D01*
X70964747Y-57853743D01*
X70961939Y-57846804D01*
X70928675Y-57764628D01*
X70928675Y-57764627D01*
X70928118Y-57763252D01*
X70846714Y-57586477D01*
X70755818Y-57414991D01*
X70745932Y-57398312D01*
X70657711Y-57249480D01*
X70657707Y-57249474D01*
X70657076Y-57248409D01*
X70651388Y-57239624D01*
X70553134Y-57087894D01*
X70552131Y-57086345D01*
X70528006Y-57053452D01*
X69822480Y-56091535D01*
X69688454Y-55908803D01*
X69684879Y-55903665D01*
X69120569Y-55048202D01*
X69120554Y-55048179D01*
X69120462Y-55048040D01*
X69109551Y-55031849D01*
X68910485Y-54736471D01*
X68564242Y-54222706D01*
X68513938Y-54150036D01*
X68283780Y-53817552D01*
X68283751Y-53817511D01*
X68283527Y-53817187D01*
X68223145Y-53731940D01*
X67997951Y-53414010D01*
X67997898Y-53413936D01*
X67997703Y-53413661D01*
X67704239Y-53010052D01*
X67658129Y-52948431D01*
X67475540Y-52704424D01*
X67400605Y-52604283D01*
X67388791Y-52589498D01*
X67387813Y-52588387D01*
X67387799Y-52588370D01*
X67377324Y-52576468D01*
X67377319Y-52576463D01*
X67376361Y-52575374D01*
X67363350Y-52561872D01*
X67362343Y-52560912D01*
X67351119Y-52550216D01*
X67351107Y-52550205D01*
X67349794Y-52548954D01*
X67348414Y-52547785D01*
X67348400Y-52547772D01*
X67322825Y-52526101D01*
X67321186Y-52524712D01*
X67290821Y-52502335D01*
X67289372Y-52501387D01*
X67289363Y-52501381D01*
X67260135Y-52482264D01*
X67260120Y-52482254D01*
X67258983Y-52481511D01*
X67225954Y-52461927D01*
X67209977Y-52453143D01*
X67206416Y-52451109D01*
X67195522Y-52444650D01*
X67194615Y-52444112D01*
X67160681Y-52425457D01*
X67126123Y-52407417D01*
X67125951Y-52407330D01*
X67125795Y-52407249D01*
X67056728Y-52372167D01*
X67055694Y-52371636D01*
X67022653Y-52354446D01*
X67020504Y-52353300D01*
X67003705Y-52344120D01*
X67000321Y-52342200D01*
X66987543Y-52334688D01*
X66983007Y-52331891D01*
X66955756Y-52314279D01*
X66950165Y-52310448D01*
X66925265Y-52292386D01*
X66918762Y-52287337D01*
X66894175Y-52266924D01*
X66891084Y-52264273D01*
X66845037Y-52223458D01*
X66473747Y-51894362D01*
X66281507Y-51731110D01*
X66047780Y-51532626D01*
X66047758Y-51532608D01*
X66047272Y-51532195D01*
X66027770Y-51516332D01*
X65613869Y-51179670D01*
X65613849Y-51179654D01*
X65613319Y-51179223D01*
X65172037Y-50835561D01*
X64723576Y-50501323D01*
X64701658Y-50485698D01*
X64496307Y-50339312D01*
X64268084Y-50176621D01*
X63805711Y-49861570D01*
X63799809Y-49857729D01*
X63338867Y-49557754D01*
X63334393Y-49554703D01*
X62194448Y-48741043D01*
X62194445Y-48741041D01*
X62193002Y-48740011D01*
X62037290Y-48641667D01*
X61979427Y-48608247D01*
X61878451Y-48549926D01*
X61878438Y-48549919D01*
X61877150Y-48549175D01*
X61875836Y-48548497D01*
X61875806Y-48548481D01*
X61875202Y-48548170D01*
X61869920Y-48545285D01*
X61847103Y-48532106D01*
X61847095Y-48532102D01*
X61845811Y-48531360D01*
X61844498Y-48530683D01*
X61844482Y-48530674D01*
X61702419Y-48457396D01*
X61680766Y-48446227D01*
X61635628Y-48426029D01*
X61512164Y-48370781D01*
X61512159Y-48370779D01*
X61510340Y-48369965D01*
X61334054Y-48304082D01*
X61305032Y-48295501D01*
X61153120Y-48250587D01*
X61153108Y-48250584D01*
X61151431Y-48250088D01*
X61057595Y-48228020D01*
X61056377Y-48227784D01*
X61056368Y-48227782D01*
X61033357Y-48223322D01*
X60961995Y-48209491D01*
X60884183Y-48197669D01*
X60865889Y-48194889D01*
X60865884Y-48194888D01*
X60864572Y-48194689D01*
X60765267Y-48183802D01*
X60756404Y-48190566D01*
X60669133Y-48257170D01*
X60663839Y-48260996D01*
X60566687Y-48327446D01*
X60561866Y-48330583D01*
X60461110Y-48392919D01*
X60456834Y-48395450D01*
X60352732Y-48454311D01*
X60349083Y-48456295D01*
X60242024Y-48512254D01*
X60239125Y-48513721D01*
X60165152Y-48549926D01*
X60129823Y-48567217D01*
X60126751Y-48568669D01*
X59900203Y-48672070D01*
X59899018Y-48672603D01*
X59437389Y-48877575D01*
X59437340Y-48877597D01*
X59436553Y-48877947D01*
X59321952Y-48932600D01*
X59321260Y-48932950D01*
X59209453Y-48989473D01*
X59209436Y-48989482D01*
X59208607Y-48989901D01*
X59207778Y-48990351D01*
X59106333Y-49045409D01*
X59096912Y-49050522D01*
X59025125Y-49092825D01*
X58990029Y-49113507D01*
X58987266Y-49115135D01*
X58986428Y-49115667D01*
X58986417Y-49115673D01*
X58830929Y-49214248D01*
X58743714Y-49269540D01*
X58743102Y-49269949D01*
X58511625Y-49424632D01*
X58503822Y-49429846D01*
X58267262Y-49595366D01*
X58266761Y-49595731D01*
X58140788Y-49687451D01*
X58033709Y-49765414D01*
X58033160Y-49765833D01*
X58033131Y-49765855D01*
X57825429Y-49924519D01*
X57574314Y-50116346D01*
X57573825Y-50116737D01*
X57573807Y-50116751D01*
X57185780Y-50426972D01*
X57123022Y-50477146D01*
X56267379Y-51179223D01*
X56234602Y-51206117D01*
X56233868Y-51206714D01*
X56038527Y-51364443D01*
X55792578Y-51563036D01*
X55790667Y-51564549D01*
X55347788Y-51908212D01*
X55345403Y-51910018D01*
X55292360Y-51949197D01*
X55290487Y-51950553D01*
X55236296Y-51989063D01*
X55234498Y-51990318D01*
X55121894Y-52067424D01*
X55121230Y-52067875D01*
X55007361Y-52144752D01*
X55007039Y-52144976D01*
X55006983Y-52145014D01*
X54949798Y-52184741D01*
X54894628Y-52223068D01*
X54839477Y-52263265D01*
X54785475Y-52304476D01*
X54784814Y-52305010D01*
X54738751Y-52342200D01*
X54732880Y-52346940D01*
X54681946Y-52390897D01*
X54681069Y-52391715D01*
X54681064Y-52391719D01*
X54633932Y-52435654D01*
X54632929Y-52436589D01*
X54586085Y-52484254D01*
X54541668Y-52534134D01*
X54499935Y-52586468D01*
X53118914Y-54384100D01*
X53118736Y-54384336D01*
X53118675Y-54384415D01*
X52921087Y-54645349D01*
X52775321Y-54837846D01*
X52775112Y-54838129D01*
X52775098Y-54838148D01*
X52464866Y-55258646D01*
X52437652Y-55295532D01*
X52437397Y-55295890D01*
X52437372Y-55295925D01*
X52298923Y-55490581D01*
X52108535Y-55758261D01*
X51790601Y-56227135D01*
X51721527Y-56337801D01*
X51656683Y-56452679D01*
X51595322Y-56571029D01*
X51536696Y-56692115D01*
X51424661Y-56939538D01*
X51424560Y-56939767D01*
X51315093Y-57187934D01*
X51314095Y-57190139D01*
X51249711Y-57328824D01*
X51208922Y-57416686D01*
X51201424Y-57432836D01*
X51199604Y-57436591D01*
X51141071Y-57552465D01*
X51139189Y-57556046D01*
X51077743Y-57668430D01*
X51075188Y-57672883D01*
X51010496Y-57780487D01*
X51007137Y-57785772D01*
X50938582Y-57887938D01*
X50934280Y-57893958D01*
X50861260Y-57990063D01*
X50855868Y-57996682D01*
X50774600Y-58089801D01*
X48603694Y-58089801D01*
X48591024Y-58008755D01*
X48590623Y-58006190D01*
X48587555Y-57993539D01*
X48537599Y-57787581D01*
X48537162Y-57785779D01*
X48534793Y-57778026D01*
X48465418Y-57551052D01*
X48465415Y-57551043D01*
X48465018Y-57549744D01*
X48459639Y-57534516D01*
X48417884Y-57416327D01*
X48377621Y-57302358D01*
X48278400Y-57047894D01*
X48262824Y-57010656D01*
X48171184Y-56791580D01*
X48170785Y-56790626D01*
X48170373Y-56789723D01*
X48170361Y-56789696D01*
X47583404Y-55503847D01*
X47426814Y-55160804D01*
X47416704Y-55126303D01*
X47415451Y-55117526D01*
X47262143Y-54044376D01*
X47250473Y-53962686D01*
X47250473Y-53962684D01*
X47249939Y-53958949D01*
X47234086Y-53899805D01*
X47187294Y-53725242D01*
X47018245Y-53094577D01*
X47016869Y-53088922D01*
X47013902Y-53075371D01*
X46879676Y-52462449D01*
X46820018Y-52190030D01*
X46818978Y-52184741D01*
X46655586Y-51248631D01*
X46654827Y-51243716D01*
X46524321Y-50270702D01*
X46523795Y-50266149D01*
X46425616Y-49256721D01*
X46425278Y-49252514D01*
X46369250Y-48370781D01*
X46358845Y-48207022D01*
X46358658Y-48203147D01*
X46358027Y-48183802D01*
X46323382Y-47121929D01*
X46323317Y-47118384D01*
X46323254Y-47103277D01*
X46321497Y-46686272D01*
X48232581Y-46686272D01*
X48232589Y-46686771D01*
X48232589Y-46686823D01*
X48240443Y-47198053D01*
X48248768Y-47739981D01*
X48248799Y-47740771D01*
X48248800Y-47740804D01*
X48286504Y-48698217D01*
X48287955Y-48735053D01*
X48288023Y-48736012D01*
X48288024Y-48736039D01*
X48354131Y-49674902D01*
X48354932Y-49686275D01*
X48355059Y-49687451D01*
X48451261Y-50578491D01*
X48454494Y-50608438D01*
X48517991Y-51063244D01*
X48518097Y-51063896D01*
X48518103Y-51063938D01*
X48561048Y-51328889D01*
X48591430Y-51516332D01*
X48591552Y-51516990D01*
X48591558Y-51517025D01*
X48631229Y-51731110D01*
X48675412Y-51969549D01*
X48701895Y-52096279D01*
X48766937Y-52407525D01*
X48770535Y-52424745D01*
X48877399Y-52883768D01*
X48996601Y-53348468D01*
X49016248Y-53426236D01*
X49040258Y-53521278D01*
X49040993Y-53524348D01*
X49079707Y-53695565D01*
X49080365Y-53698659D01*
X49149160Y-54042868D01*
X49149452Y-54044376D01*
X49213160Y-54384668D01*
X49213251Y-54385116D01*
X49213253Y-54385128D01*
X49233810Y-54486705D01*
X49280381Y-54716828D01*
X49318001Y-54878511D01*
X49318238Y-54879410D01*
X49318244Y-54879433D01*
X49359450Y-55035539D01*
X49359755Y-55036694D01*
X49406743Y-55190952D01*
X49460062Y-55340859D01*
X49520810Y-55485990D01*
X49521699Y-55487785D01*
X49521700Y-55487788D01*
X49563351Y-55571920D01*
X49590083Y-55625918D01*
X49591231Y-55627872D01*
X49591232Y-55627874D01*
X49631652Y-55696677D01*
X49668981Y-55760220D01*
X49729433Y-55846729D01*
X49735881Y-55855957D01*
X49758599Y-55928129D01*
X49758599Y-55973133D01*
X49763848Y-55970927D01*
X49778902Y-55983972D01*
X49779648Y-55984313D01*
X49789938Y-55985793D01*
X49789938Y-55990948D01*
X49799078Y-55987107D01*
X49799079Y-55987107D01*
X49847736Y-55966659D01*
X49847748Y-55966653D01*
X49849629Y-55965863D01*
X49851448Y-55964955D01*
X49851459Y-55964950D01*
X49904481Y-55938484D01*
X49907098Y-55937178D01*
X49962438Y-55905074D01*
X50015742Y-55869730D01*
X50067103Y-55831329D01*
X50068365Y-55830277D01*
X50068380Y-55830265D01*
X50115436Y-55791032D01*
X50115437Y-55791032D01*
X50116615Y-55790049D01*
X50164371Y-55746071D01*
X50210463Y-55699576D01*
X50212635Y-55697100D01*
X50296599Y-55601389D01*
X50296607Y-55601380D01*
X50298031Y-55599756D01*
X50299344Y-55598031D01*
X50299352Y-55598022D01*
X50342609Y-55541218D01*
X50380065Y-55492032D01*
X50384153Y-55485990D01*
X50456524Y-55379007D01*
X50456525Y-55379006D01*
X50457308Y-55377848D01*
X50479040Y-55342459D01*
X50529966Y-55259529D01*
X50529972Y-55259519D01*
X50530508Y-55258646D01*
X50600408Y-55135870D01*
X50601047Y-55134686D01*
X50647676Y-55048202D01*
X50667754Y-55010964D01*
X50797509Y-54761032D01*
X50798035Y-54760032D01*
X50925514Y-54520766D01*
X50927553Y-54517090D01*
X50991065Y-54407071D01*
X50993560Y-54402937D01*
X50993623Y-54402838D01*
X51058695Y-54299589D01*
X51061261Y-54295680D01*
X51091389Y-54251605D01*
X51160816Y-54150036D01*
X51162540Y-54147577D01*
X51237837Y-54042868D01*
X51266779Y-54002620D01*
X51268323Y-54000520D01*
X51376392Y-53856687D01*
X51377778Y-53854877D01*
X51488966Y-53712336D01*
X51490668Y-53710202D01*
X51722244Y-53426236D01*
X51723861Y-53424294D01*
X51963047Y-53142718D01*
X51963841Y-53141792D01*
X52450801Y-52579651D01*
X52450842Y-52579604D01*
X52451018Y-52579400D01*
X52454433Y-52575374D01*
X52597021Y-52407249D01*
X52690675Y-52296823D01*
X52913547Y-52022756D01*
X52933946Y-52002796D01*
X53681254Y-51421557D01*
X53681262Y-51421550D01*
X53684606Y-51418949D01*
X53946223Y-51151834D01*
X54205191Y-50881563D01*
X54275074Y-50808264D01*
X54721673Y-50339837D01*
X54722671Y-50338802D01*
X54982942Y-50071972D01*
X54984441Y-50070461D01*
X55248474Y-49808767D01*
X55250637Y-49806674D01*
X55520449Y-49551735D01*
X55522510Y-49549830D01*
X55659478Y-49426070D01*
X55661097Y-49424632D01*
X55765671Y-49333357D01*
X55830146Y-49303632D01*
X55848526Y-49302284D01*
X56055273Y-49302284D01*
X56063529Y-49294541D01*
X56063530Y-49294541D01*
X56067020Y-49291267D01*
X56068240Y-49290123D01*
X56080645Y-49277189D01*
X56092526Y-49263534D01*
X56103926Y-49249212D01*
X56125444Y-49218780D01*
X56133110Y-49206390D01*
X56144751Y-49187576D01*
X56144760Y-49187560D01*
X56145527Y-49186321D01*
X56164502Y-49152261D01*
X56182698Y-49117029D01*
X56217775Y-49045350D01*
X56218392Y-49044108D01*
X56225264Y-49030467D01*
X56253131Y-48975145D01*
X56255448Y-48970763D01*
X56272137Y-48940648D01*
X56274913Y-48935888D01*
X56291951Y-48908094D01*
X56295982Y-48901932D01*
X56313858Y-48876273D01*
X56317879Y-48870819D01*
X56325820Y-48860635D01*
X56329101Y-48856602D01*
X56337711Y-48846453D01*
X56341499Y-48842188D01*
X56350123Y-48832914D01*
X56354478Y-48828458D01*
X56363067Y-48820095D01*
X56368051Y-48815497D01*
X56376652Y-48807980D01*
X56382255Y-48803361D01*
X56391590Y-48796109D01*
X56396364Y-48792577D01*
X56527361Y-48700368D01*
X56530480Y-48698242D01*
X56665682Y-48609076D01*
X56668237Y-48607437D01*
X56806447Y-48521111D01*
X56808505Y-48519853D01*
X56922435Y-48451689D01*
X56948716Y-48435965D01*
X56950937Y-48434667D01*
X57024073Y-48392919D01*
X57526737Y-48105985D01*
X57530198Y-48103947D01*
X57669674Y-48021801D01*
X57811484Y-47938281D01*
X57950903Y-47851187D01*
X57987422Y-47827086D01*
X58086772Y-47761521D01*
X58086806Y-47761498D01*
X58087580Y-47760987D01*
X58117376Y-47739981D01*
X58220017Y-47667619D01*
X58220035Y-47667606D01*
X58220934Y-47666972D01*
X58350387Y-47568433D01*
X58475360Y-47464662D01*
X58595273Y-47354950D01*
X58615607Y-47329657D01*
X58617071Y-47327870D01*
X58629813Y-47312619D01*
X58638000Y-47302241D01*
X58640827Y-47297861D01*
X58643193Y-47293301D01*
X58679938Y-47185616D01*
X58670062Y-47181261D01*
X58670060Y-47181259D01*
X58666481Y-47179681D01*
X58647998Y-47169562D01*
X58648599Y-47167801D01*
X58456619Y-47083133D01*
X63220599Y-47083133D01*
X63246246Y-47155244D01*
X63282951Y-47228626D01*
X63330057Y-47303164D01*
X63386908Y-47378745D01*
X63452847Y-47455253D01*
X63527217Y-47532574D01*
X63528712Y-47533940D01*
X63528715Y-47533943D01*
X63692646Y-47683738D01*
X63698622Y-47689199D01*
X63895871Y-47847706D01*
X63897013Y-47848542D01*
X63897026Y-47848552D01*
X63934460Y-47875956D01*
X64113708Y-48007178D01*
X64346881Y-48166703D01*
X64379916Y-48188250D01*
X64588084Y-48324026D01*
X64590135Y-48325364D01*
X64976857Y-48567964D01*
X65557831Y-48932423D01*
X65559876Y-48933733D01*
X65650060Y-48992760D01*
X65757865Y-49063320D01*
X65772283Y-49072757D01*
X65775136Y-49074681D01*
X65964850Y-49206390D01*
X65969330Y-49209648D01*
X66047945Y-49269540D01*
X66130255Y-49332247D01*
X66137230Y-49337967D01*
X66266205Y-49451691D01*
X66270868Y-49456016D01*
X67514814Y-50669778D01*
X67548917Y-50703054D01*
X67550016Y-50704140D01*
X67681765Y-50835959D01*
X68174435Y-51328889D01*
X68176271Y-51330764D01*
X68398946Y-51563036D01*
X68785733Y-51966494D01*
X68787519Y-51968398D01*
X69080447Y-52287337D01*
X69084827Y-52292106D01*
X69086259Y-52293693D01*
X69367486Y-52610701D01*
X69378624Y-52623256D01*
X69380217Y-52625087D01*
X69600875Y-52883768D01*
X69666901Y-52961171D01*
X69668632Y-52963245D01*
X69932152Y-53285963D01*
X69949156Y-53306787D01*
X69950997Y-53309096D01*
X70224976Y-53661154D01*
X70226898Y-53663689D01*
X70493859Y-54025206D01*
X70495801Y-54027912D01*
X70754692Y-54398999D01*
X70755302Y-54399874D01*
X70757300Y-54402826D01*
X70832254Y-54517045D01*
X71009749Y-54787523D01*
X71009808Y-54787612D01*
X71009932Y-54787801D01*
X71010132Y-54788101D01*
X71036763Y-54827943D01*
X71065588Y-54871068D01*
X71124619Y-54952057D01*
X71125221Y-54952829D01*
X71125241Y-54952856D01*
X71170838Y-55011362D01*
X71186374Y-55031297D01*
X71186826Y-55031849D01*
X71186867Y-55031900D01*
X71200072Y-55048040D01*
X71250202Y-55109315D01*
X71250574Y-55109754D01*
X71250594Y-55109778D01*
X71512271Y-55418572D01*
X71514184Y-55420884D01*
X71576691Y-55498312D01*
X71578691Y-55500856D01*
X71639053Y-55579686D01*
X71641547Y-55583060D01*
X71698954Y-55663481D01*
X71701879Y-55667762D01*
X71753049Y-55746071D01*
X71755806Y-55750291D01*
X71759018Y-55755477D01*
X71808963Y-55840649D01*
X71812307Y-55846729D01*
X71857773Y-55935076D01*
X71861075Y-55942004D01*
X71902022Y-56035103D01*
X71904354Y-56040775D01*
X71922257Y-56087531D01*
X71923713Y-56091535D01*
X71941265Y-56142467D01*
X71945754Y-56139974D01*
X71949660Y-56145475D01*
X71949882Y-56145650D01*
X71970404Y-56153897D01*
X71972604Y-56160282D01*
X72034179Y-56126081D01*
X72041110Y-56121229D01*
X72089707Y-56087210D01*
X72089713Y-56087206D01*
X72092192Y-56085470D01*
X72124268Y-56058040D01*
X72144666Y-56040597D01*
X72144672Y-56040591D01*
X72146789Y-56038781D01*
X72150390Y-56035103D01*
X72185157Y-55999587D01*
X72198118Y-55986347D01*
X72227723Y-55950821D01*
X72244878Y-55930237D01*
X72244885Y-55930228D01*
X72246325Y-55928500D01*
X72291557Y-55865572D01*
X72373681Y-55725806D01*
X72445666Y-55569710D01*
X72471574Y-55499917D01*
X72508034Y-55401695D01*
X72508038Y-55401684D01*
X72508684Y-55399943D01*
X72563909Y-55219165D01*
X72612516Y-55030036D01*
X72650055Y-54837537D01*
X72784601Y-54147577D01*
X72903412Y-53538308D01*
X72904583Y-53532936D01*
X73119931Y-52639516D01*
X73138269Y-52548954D01*
X73303388Y-51733524D01*
X73303390Y-51733515D01*
X73303630Y-51732328D01*
X73330883Y-51564549D01*
X73449016Y-50837259D01*
X73453931Y-50807002D01*
X73470788Y-50668645D01*
X73521582Y-50251730D01*
X73569735Y-49856490D01*
X73649939Y-48873744D01*
X73650507Y-48860418D01*
X73693391Y-47852889D01*
X73693441Y-47851715D01*
X73699142Y-46783355D01*
X73665939Y-45661616D01*
X73656929Y-45660852D01*
X73646078Y-45651998D01*
X73634674Y-45646304D01*
X73634600Y-45643801D01*
X73090852Y-45597688D01*
X72550942Y-45572776D01*
X72307584Y-45570104D01*
X72016565Y-45566908D01*
X72016536Y-45566908D01*
X72015521Y-45566897D01*
X72014513Y-45566918D01*
X72014491Y-45566918D01*
X71486106Y-45577867D01*
X71486096Y-45577867D01*
X71485244Y-45577885D01*
X71484409Y-45577926D01*
X71484377Y-45577927D01*
X71234021Y-45590189D01*
X70960761Y-45603573D01*
X70959919Y-45603635D01*
X70959921Y-45603635D01*
X70443686Y-45641721D01*
X70443670Y-45641722D01*
X70442727Y-45641792D01*
X70441781Y-45641890D01*
X70441773Y-45641891D01*
X69692562Y-45719734D01*
X69428613Y-45747158D01*
X69078396Y-45793409D01*
X68448483Y-45876598D01*
X68448439Y-45876604D01*
X68448122Y-45876646D01*
X67733788Y-45980022D01*
X67506785Y-46012873D01*
X67506217Y-46012954D01*
X66610392Y-46138428D01*
X66607349Y-46138816D01*
X66300364Y-46174219D01*
X65760599Y-46236468D01*
X65754413Y-46238530D01*
X63237785Y-47077404D01*
X63237784Y-47077405D01*
X63220599Y-47083133D01*
X58456619Y-47083133D01*
X58124318Y-46936580D01*
X57952284Y-46869305D01*
X57585777Y-46725980D01*
X57585758Y-46725973D01*
X57584574Y-46725510D01*
X57029064Y-46534006D01*
X56564915Y-46393910D01*
X56458569Y-46361811D01*
X56458560Y-46361808D01*
X56457485Y-46361484D01*
X56456402Y-46361200D01*
X56456391Y-46361197D01*
X55870610Y-46207642D01*
X55870593Y-46207638D01*
X55869533Y-46207360D01*
X55264904Y-46071049D01*
X54643294Y-45951967D01*
X54004401Y-45849530D01*
X53347920Y-45763153D01*
X53347075Y-45763064D01*
X53347040Y-45763060D01*
X53004597Y-45727058D01*
X52673548Y-45692253D01*
X51980981Y-45636245D01*
X51980311Y-45636206D01*
X51980301Y-45636205D01*
X51768252Y-45623769D01*
X51269916Y-45594544D01*
X49791076Y-45551729D01*
X49790010Y-45551734D01*
X49790004Y-45551734D01*
X49246252Y-45554321D01*
X48234600Y-45559134D01*
X48234576Y-45572471D01*
X48234576Y-45572472D01*
X48233624Y-46103908D01*
X48232581Y-46686272D01*
X46321497Y-46686272D01*
X46318606Y-46000283D01*
X46311192Y-46000643D01*
X46298864Y-45990051D01*
X46292645Y-45987056D01*
X46287282Y-45986036D01*
X46287267Y-45982468D01*
X46272329Y-45983193D01*
X46272327Y-45983193D01*
X45858551Y-46003284D01*
X45858531Y-46003285D01*
X45857037Y-46003358D01*
X45435802Y-46044420D01*
X45434377Y-46044625D01*
X45434373Y-46044626D01*
X45300266Y-46063968D01*
X45023343Y-46103908D01*
X44619442Y-46180080D01*
X44618211Y-46180364D01*
X44618204Y-46180365D01*
X44499778Y-46207642D01*
X44223881Y-46271189D01*
X44222761Y-46271490D01*
X44222743Y-46271495D01*
X43837419Y-46375229D01*
X43837395Y-46375236D01*
X43836440Y-46375493D01*
X43456902Y-46491246D01*
X43085047Y-46616705D01*
X43084296Y-46616980D01*
X42721356Y-46749870D01*
X42721322Y-46749883D01*
X42720658Y-46750126D01*
X42363515Y-46889763D01*
X42362824Y-46890053D01*
X42362809Y-46890059D01*
X41670633Y-47180486D01*
X41670611Y-47180495D01*
X41670095Y-47180712D01*
X41157650Y-47407588D01*
X40366082Y-47758040D01*
X40354918Y-47762361D01*
X39600609Y-48013798D01*
X39344601Y-48099134D01*
X39282274Y-48141249D01*
X39258088Y-48159064D01*
X39218464Y-48188250D01*
X39215193Y-48190659D01*
X39144041Y-48246260D01*
X39069500Y-48306949D01*
X39069073Y-48307310D01*
X39069057Y-48307323D01*
X39043320Y-48329066D01*
X38912984Y-48439177D01*
X38893098Y-48456295D01*
X38751491Y-48578188D01*
X38750936Y-48578664D01*
X38590351Y-48715279D01*
X38588241Y-48717034D01*
X38434592Y-48842038D01*
X38431639Y-48844367D01*
X38360327Y-48898906D01*
X38357294Y-48901154D01*
X38290059Y-48949431D01*
X38285783Y-48952368D01*
X38224256Y-48992779D01*
X38218039Y-48996606D01*
X38162973Y-49028332D01*
X38155430Y-49032343D01*
X38095289Y-49061753D01*
X38088802Y-49064700D01*
X38027448Y-49090504D01*
X38021513Y-49092825D01*
X37959156Y-49115413D01*
X37953973Y-49117163D01*
X37890492Y-49137074D01*
X37886178Y-49138343D01*
X37864879Y-49144193D01*
X37821543Y-49156096D01*
X37818163Y-49156974D01*
X37752572Y-49173049D01*
X37749580Y-49173744D01*
X37670581Y-49191055D01*
X37613166Y-49203636D01*
X37612662Y-49203745D01*
X37474992Y-49233322D01*
X37474951Y-49233331D01*
X37474412Y-49233447D01*
X37473887Y-49233570D01*
X37473842Y-49233580D01*
X37405709Y-49249531D01*
X37405696Y-49249534D01*
X37405022Y-49249692D01*
X37404327Y-49249872D01*
X37336585Y-49267412D01*
X37336564Y-49267418D01*
X37335617Y-49267663D01*
X37334700Y-49267932D01*
X37334680Y-49267937D01*
X37267406Y-49287634D01*
X37267399Y-49287636D01*
X37266235Y-49287977D01*
X37196914Y-49311250D01*
X37195563Y-49311774D01*
X37195549Y-49311779D01*
X37170026Y-49321678D01*
X37127690Y-49338097D01*
X37058601Y-49369134D01*
X37056909Y-49370021D01*
X37056897Y-49370027D01*
X36897121Y-49453802D01*
X36798803Y-49505353D01*
X36544121Y-49658787D01*
X36542755Y-49659711D01*
X36542754Y-49659711D01*
X36295561Y-49826800D01*
X36295540Y-49826815D01*
X36294380Y-49827599D01*
X36049406Y-50009955D01*
X36048479Y-50010703D01*
X36048464Y-50010715D01*
X36025405Y-50029331D01*
X35809023Y-50204019D01*
X35573058Y-50407955D01*
X35572371Y-50408583D01*
X35572367Y-50408587D01*
X35471402Y-50500947D01*
X35341335Y-50619928D01*
X35340810Y-50620431D01*
X35340808Y-50620433D01*
X35144816Y-50808264D01*
X35113681Y-50838102D01*
X35112875Y-50838933D01*
X33419828Y-52584515D01*
X33415963Y-52588332D01*
X33355742Y-52645290D01*
X33352522Y-52648232D01*
X33288833Y-52704424D01*
X33286171Y-52706707D01*
X33219487Y-52762284D01*
X33217449Y-52763944D01*
X33181150Y-52792869D01*
X33148612Y-52818797D01*
X33146503Y-52820442D01*
X33062555Y-52884450D01*
X33002255Y-52930427D01*
X33001286Y-52931158D01*
X32853980Y-53041149D01*
X32853761Y-53041317D01*
X32853710Y-53041355D01*
X32811061Y-53073973D01*
X32707875Y-53152889D01*
X32636632Y-53209945D01*
X32636122Y-53210373D01*
X32567907Y-53267572D01*
X32567877Y-53267598D01*
X32567221Y-53268148D01*
X32500110Y-53327767D01*
X32499336Y-53328504D01*
X32499318Y-53328521D01*
X32478383Y-53348468D01*
X32435769Y-53389070D01*
X32374665Y-53452325D01*
X32317268Y-53517801D01*
X32316491Y-53518764D01*
X32316478Y-53518779D01*
X32221685Y-53636210D01*
X32165200Y-53706183D01*
X32164761Y-53706755D01*
X32164745Y-53706776D01*
X32016777Y-53899805D01*
X32016400Y-53900297D01*
X32016039Y-53900789D01*
X32016021Y-53900814D01*
X31976120Y-53955304D01*
X31870581Y-54099430D01*
X31870268Y-54099875D01*
X31870255Y-54099893D01*
X31760636Y-54255706D01*
X31727457Y-54302867D01*
X31727067Y-54303449D01*
X31727052Y-54303471D01*
X31498870Y-54644084D01*
X31448149Y-54719797D01*
X31447796Y-54720349D01*
X31447791Y-54720357D01*
X31428315Y-54750834D01*
X31176184Y-55145370D01*
X30894771Y-55598022D01*
X30645338Y-55999233D01*
X30644843Y-56000022D01*
X30620893Y-56037917D01*
X30430603Y-56339009D01*
X30382080Y-56415785D01*
X30380799Y-56417771D01*
X30357801Y-56452679D01*
X30135769Y-56789696D01*
X30115935Y-56819801D01*
X30115667Y-56820221D01*
X30115640Y-56820263D01*
X30104059Y-56838428D01*
X30069270Y-56892993D01*
X30059033Y-56910808D01*
X30024945Y-56970128D01*
X30024930Y-56970154D01*
X30024433Y-56971020D01*
X29980852Y-57052872D01*
X29980564Y-57053440D01*
X29980558Y-57053452D01*
X29971253Y-57071819D01*
X29937959Y-57137537D01*
X29913009Y-57187934D01*
X29852233Y-57310698D01*
X29851630Y-57311899D01*
X29814186Y-57385548D01*
X29808273Y-57397178D01*
X29807128Y-57399374D01*
X29788241Y-57434727D01*
X29762763Y-57482414D01*
X29760885Y-57485802D01*
X29715151Y-57565413D01*
X29712441Y-57569910D01*
X29664896Y-57645169D01*
X29661129Y-57650787D01*
X29610828Y-57721574D01*
X29607124Y-57726524D01*
X29582058Y-57758355D01*
X29579065Y-57762012D01*
X29558863Y-57785772D01*
X29552807Y-57792895D01*
X29549349Y-57796796D01*
X29522452Y-57825900D01*
X29518492Y-57829995D01*
X29494466Y-57853743D01*
X29490951Y-57857217D01*
X29486449Y-57861453D01*
X29458195Y-57886760D01*
X29453112Y-57891075D01*
X29432259Y-57907850D01*
X29424156Y-57914368D01*
X29418457Y-57918692D01*
X29388686Y-57939975D01*
X29382386Y-57944198D01*
X29378318Y-57946751D01*
X29351762Y-57963416D01*
X29344895Y-57967428D01*
X29313277Y-57984583D01*
X29305885Y-57988284D01*
X29269268Y-58005133D01*
X20828000Y-58005133D01*
X20828000Y-43611801D01*
X48573267Y-43611801D01*
X48581611Y-43612278D01*
X48591687Y-43621009D01*
X48603417Y-43627091D01*
X48604606Y-43627385D01*
X48604606Y-43629616D01*
X50804412Y-43755338D01*
X53208776Y-43892751D01*
X53213557Y-43893116D01*
X53691455Y-43938723D01*
X54294392Y-43996262D01*
X54298447Y-43996716D01*
X54824501Y-44064336D01*
X54827932Y-44064825D01*
X55344704Y-44145797D01*
X55348681Y-44146485D01*
X55855089Y-44242621D01*
X55859629Y-44243570D01*
X56195822Y-44320355D01*
X56355160Y-44356747D01*
X56360268Y-44358027D01*
X56611813Y-44426655D01*
X56844367Y-44490101D01*
X56849965Y-44491769D01*
X57320759Y-44644155D01*
X57329678Y-44647419D01*
X59261768Y-45438234D01*
X59262371Y-45438467D01*
X59262407Y-45438481D01*
X59522385Y-45538792D01*
X59865784Y-45671291D01*
X59924286Y-45692332D01*
X60149430Y-45773309D01*
X60149450Y-45773316D01*
X60150098Y-45773549D01*
X60150746Y-45773765D01*
X60150760Y-45773770D01*
X60228657Y-45799753D01*
X60413968Y-45861566D01*
X60415007Y-45861874D01*
X60415023Y-45861879D01*
X60465011Y-45876695D01*
X60650907Y-45931794D01*
X60735616Y-45952144D01*
X60851660Y-45980022D01*
X60851664Y-45980023D01*
X60854429Y-45980687D01*
X60857230Y-45981098D01*
X60857240Y-45981100D01*
X60943999Y-45993832D01*
X61018046Y-46004699D01*
X61021868Y-46004791D01*
X61021875Y-46004792D01*
X61078520Y-46006161D01*
X61082864Y-46006266D01*
X61135273Y-46000283D01*
X61139083Y-45999359D01*
X61139086Y-45999358D01*
X61279680Y-45965244D01*
X61279697Y-45965239D01*
X61281063Y-45964908D01*
X61430805Y-45921330D01*
X61431941Y-45920953D01*
X61431950Y-45920950D01*
X61582972Y-45870804D01*
X61582981Y-45870801D01*
X61583872Y-45870505D01*
X61739636Y-45813386D01*
X61740323Y-45813114D01*
X61740347Y-45813105D01*
X61896903Y-45751151D01*
X61896937Y-45751137D01*
X61897468Y-45750927D01*
X61898019Y-45750696D01*
X61898038Y-45750688D01*
X61993835Y-45710483D01*
X62056741Y-45684082D01*
X62057351Y-45683810D01*
X62057371Y-45683801D01*
X62376492Y-45541321D01*
X62376491Y-45541321D01*
X62377099Y-45541050D01*
X62377689Y-45540773D01*
X62377742Y-45540748D01*
X63007050Y-45244535D01*
X63007918Y-45244130D01*
X63305948Y-45106606D01*
X63309010Y-45105242D01*
X63588399Y-44985230D01*
X63592865Y-44983414D01*
X63796736Y-44905032D01*
X63800579Y-44903625D01*
X64011812Y-44830204D01*
X64015154Y-44829095D01*
X64232666Y-44760241D01*
X64235504Y-44759380D01*
X64457999Y-44694731D01*
X64461360Y-44693806D01*
X64920567Y-44574368D01*
X64923821Y-44573568D01*
X65392907Y-44464806D01*
X65394886Y-44464364D01*
X66336325Y-44261996D01*
X66336353Y-44261990D01*
X66336627Y-44261931D01*
X66336805Y-44261891D01*
X66336839Y-44261884D01*
X66517809Y-44221634D01*
X66793499Y-44160317D01*
X67231271Y-44052950D01*
X67454354Y-43997764D01*
X67457675Y-43996990D01*
X67679326Y-43948517D01*
X67682544Y-43947857D01*
X67904941Y-43905271D01*
X67907929Y-43904738D01*
X68130603Y-43867800D01*
X68134855Y-43867168D01*
X68586922Y-43808006D01*
X68591932Y-43807453D01*
X69051580Y-43765948D01*
X69055700Y-43765643D01*
X69526653Y-43738663D01*
X69529838Y-43738521D01*
X69550753Y-43737853D01*
X70014783Y-43723039D01*
X70016958Y-43722989D01*
X70250297Y-43719717D01*
X70518701Y-43715954D01*
X70520066Y-43715943D01*
X70974521Y-43714496D01*
X71039373Y-43714289D01*
X71043113Y-43714332D01*
X71076848Y-43715228D01*
X71272007Y-43720415D01*
X71275374Y-43720550D01*
X71382741Y-43726279D01*
X71540568Y-43734701D01*
X71827791Y-43750582D01*
X71828305Y-43750601D01*
X71828317Y-43750602D01*
X72120354Y-43761644D01*
X72120386Y-43761645D01*
X72121185Y-43761675D01*
X72122005Y-43761685D01*
X72122010Y-43761685D01*
X72137550Y-43761872D01*
X72265771Y-43763417D01*
X72266526Y-43763407D01*
X72266564Y-43763407D01*
X72340468Y-43762428D01*
X72406589Y-43761552D01*
X72541871Y-43755276D01*
X72580693Y-43751790D01*
X72668078Y-43743945D01*
X72668090Y-43743944D01*
X72669845Y-43743786D01*
X72741507Y-43733234D01*
X72786402Y-43726624D01*
X72786410Y-43726623D01*
X72788743Y-43726279D01*
X72791032Y-43725764D01*
X72791046Y-43725761D01*
X72894583Y-43702448D01*
X72894593Y-43702445D01*
X72896793Y-43701950D01*
X72946197Y-43686977D01*
X72947911Y-43686345D01*
X72947925Y-43686340D01*
X72990193Y-43670747D01*
X72990194Y-43670747D01*
X72992226Y-43669997D01*
X73034659Y-43650910D01*
X73036894Y-43649678D01*
X73036901Y-43649674D01*
X73050870Y-43641970D01*
X73073273Y-43629616D01*
X73103721Y-43607507D01*
X73106189Y-43605281D01*
X73106196Y-43605275D01*
X73128661Y-43585009D01*
X73131112Y-43582798D01*
X73155557Y-43555602D01*
X73177164Y-43526032D01*
X73196043Y-43494200D01*
X73197249Y-43491680D01*
X73197254Y-43491670D01*
X73203494Y-43478626D01*
X73212302Y-43460217D01*
X73213224Y-43457803D01*
X73225215Y-43426392D01*
X73225219Y-43426379D01*
X73226052Y-43424198D01*
X73237400Y-43386254D01*
X73246456Y-43346497D01*
X73253330Y-43305039D01*
X73260966Y-43217474D01*
X73261182Y-43124456D01*
X73254850Y-43026885D01*
X73254654Y-43025232D01*
X73242996Y-42926946D01*
X73242994Y-42926930D01*
X73242843Y-42925659D01*
X73226036Y-42821679D01*
X73205301Y-42715842D01*
X73181511Y-42609048D01*
X73128261Y-42396186D01*
X73073273Y-42190283D01*
X72924651Y-41650930D01*
X72924546Y-41650571D01*
X72924529Y-41650512D01*
X72770107Y-41123749D01*
X72769938Y-41123171D01*
X72740077Y-41028199D01*
X72607899Y-40607807D01*
X72607886Y-40607766D01*
X72607707Y-40607198D01*
X72604942Y-40599055D01*
X72436785Y-40103943D01*
X72436776Y-40103919D01*
X72436535Y-40103208D01*
X72254997Y-39611393D01*
X72110154Y-39252192D01*
X72062065Y-39132933D01*
X72062060Y-39132922D01*
X72061668Y-39131949D01*
X71968095Y-38920434D01*
X71855579Y-38666099D01*
X71855572Y-38666084D01*
X71855123Y-38665069D01*
X71634022Y-38211123D01*
X71633764Y-38210589D01*
X71586319Y-38112004D01*
X71583972Y-38106832D01*
X71542223Y-38009032D01*
X71540374Y-38004455D01*
X71502433Y-37904951D01*
X71501022Y-37901059D01*
X71466438Y-37800557D01*
X71465034Y-37796225D01*
X71401828Y-37588431D01*
X71400924Y-37585316D01*
X71342336Y-37373238D01*
X71342302Y-37373115D01*
X71342261Y-37372966D01*
X71282942Y-37159259D01*
X71282937Y-37159241D01*
X71282723Y-37158471D01*
X71216612Y-36943601D01*
X71179274Y-36836445D01*
X71138097Y-36729645D01*
X71092342Y-36623326D01*
X71041271Y-36517617D01*
X70920862Y-36288883D01*
X70803880Y-36077565D01*
X70795321Y-36062104D01*
X70795304Y-36062074D01*
X70795020Y-36061561D01*
X70790971Y-36054579D01*
X70713321Y-35920679D01*
X78224726Y-35920679D01*
X78258563Y-36365512D01*
X78331810Y-36805575D01*
X78355185Y-36895634D01*
X78443180Y-37234667D01*
X78443183Y-37234678D01*
X78443886Y-37237385D01*
X78539713Y-37505759D01*
X78569233Y-37588431D01*
X78593903Y-37657523D01*
X78595074Y-37660063D01*
X78595076Y-37660068D01*
X78662227Y-37805728D01*
X78780675Y-38062662D01*
X78782065Y-38065085D01*
X78782067Y-38065088D01*
X78887115Y-38248141D01*
X79002721Y-38449593D01*
X79258285Y-38815255D01*
X79260085Y-38817396D01*
X79260087Y-38817399D01*
X79525322Y-39132933D01*
X79545342Y-39156750D01*
X79861619Y-39471376D01*
X80204613Y-39756641D01*
X80571608Y-40010286D01*
X80959697Y-40230304D01*
X80962246Y-40231463D01*
X80962250Y-40231465D01*
X81363262Y-40413795D01*
X81363273Y-40413800D01*
X81365808Y-40414952D01*
X81368434Y-40415874D01*
X81368446Y-40415879D01*
X81608140Y-40500052D01*
X81786725Y-40562767D01*
X81789445Y-40563458D01*
X81789449Y-40563459D01*
X81959289Y-40606593D01*
X82219116Y-40672581D01*
X82221866Y-40673024D01*
X82221876Y-40673026D01*
X82656786Y-40743076D01*
X82656793Y-40743077D01*
X82659557Y-40743522D01*
X82662358Y-40743720D01*
X82662364Y-40743721D01*
X82801754Y-40753590D01*
X83057530Y-40771700D01*
X83349150Y-40771700D01*
X83350556Y-40771637D01*
X83350573Y-40771637D01*
X83637747Y-40758847D01*
X83681476Y-40756900D01*
X83684249Y-40756528D01*
X83684255Y-40756527D01*
X83858415Y-40733134D01*
X84123623Y-40697512D01*
X84126355Y-40696894D01*
X84126365Y-40696892D01*
X84390217Y-40637188D01*
X84558740Y-40599055D01*
X84561393Y-40598201D01*
X84561399Y-40598199D01*
X84738117Y-40541291D01*
X84983383Y-40462308D01*
X84985935Y-40461227D01*
X84985944Y-40461224D01*
X85391614Y-40289445D01*
X85391615Y-40289445D01*
X85394188Y-40288355D01*
X85396646Y-40287045D01*
X85396655Y-40287041D01*
X85785449Y-40079879D01*
X85787904Y-40078571D01*
X85892454Y-40010286D01*
X86159079Y-39836144D01*
X86159083Y-39836141D01*
X86161412Y-39834620D01*
X86258304Y-39758237D01*
X86509563Y-39560160D01*
X86509565Y-39560158D01*
X86511756Y-39558431D01*
X86836161Y-39252192D01*
X86943580Y-39130990D01*
X87130193Y-38920434D01*
X87130198Y-38920427D01*
X87132059Y-38918328D01*
X87397106Y-38559482D01*
X87629206Y-38178495D01*
X87663262Y-38109437D01*
X87813767Y-37804241D01*
X87826518Y-37778384D01*
X87987482Y-37362318D01*
X88024206Y-37234667D01*
X88110052Y-36936271D01*
X88110054Y-36936265D01*
X88110823Y-36933590D01*
X88115283Y-36910541D01*
X88150500Y-36728512D01*
X88195564Y-36495594D01*
X88210950Y-36345434D01*
X88238395Y-36077565D01*
X88241035Y-36051800D01*
X88241549Y-36012583D01*
X88246837Y-35608531D01*
X88246874Y-35605721D01*
X88213037Y-35160888D01*
X88139790Y-34720825D01*
X88112622Y-34616151D01*
X88028420Y-34291733D01*
X88028417Y-34291722D01*
X88027714Y-34289015D01*
X87914849Y-33972924D01*
X87878641Y-33871520D01*
X87878639Y-33871515D01*
X87877697Y-33868877D01*
X87690925Y-33463738D01*
X87468879Y-33076807D01*
X87435095Y-33028468D01*
X87214921Y-32713443D01*
X87213315Y-32711145D01*
X87175263Y-32665877D01*
X86928058Y-32371791D01*
X86928055Y-32371787D01*
X86926258Y-32369650D01*
X86609981Y-32055024D01*
X86266987Y-31769759D01*
X85899992Y-31516114D01*
X85511903Y-31296096D01*
X85509350Y-31294935D01*
X85108338Y-31112605D01*
X85108327Y-31112600D01*
X85105792Y-31111448D01*
X85103166Y-31110526D01*
X85103154Y-31110521D01*
X84863460Y-31026348D01*
X84684875Y-30963633D01*
X84682155Y-30962942D01*
X84682151Y-30962941D01*
X84255197Y-30854508D01*
X84252484Y-30853819D01*
X84249734Y-30853376D01*
X84249724Y-30853374D01*
X83814814Y-30783324D01*
X83814807Y-30783323D01*
X83812043Y-30782878D01*
X83809242Y-30782680D01*
X83809236Y-30782679D01*
X83669846Y-30772810D01*
X83414070Y-30754700D01*
X83122450Y-30754700D01*
X83121044Y-30754763D01*
X83121027Y-30754763D01*
X82833853Y-30767553D01*
X82790124Y-30769500D01*
X82787351Y-30769872D01*
X82787345Y-30769873D01*
X82641961Y-30789401D01*
X82347977Y-30828888D01*
X82345245Y-30829506D01*
X82345235Y-30829508D01*
X82108602Y-30883053D01*
X81912860Y-30927345D01*
X81910207Y-30928199D01*
X81910201Y-30928201D01*
X81802323Y-30962941D01*
X81488217Y-31064092D01*
X81485665Y-31065173D01*
X81485656Y-31065176D01*
X81174341Y-31197001D01*
X81077412Y-31238045D01*
X81074954Y-31239355D01*
X81074945Y-31239359D01*
X80962681Y-31299177D01*
X80683696Y-31447829D01*
X80681369Y-31449349D01*
X80681367Y-31449350D01*
X80360818Y-31658712D01*
X80310188Y-31691780D01*
X80308001Y-31693504D01*
X80307997Y-31693507D01*
X79962037Y-31966240D01*
X79959844Y-31967969D01*
X79635439Y-32274208D01*
X79633569Y-32276318D01*
X79341407Y-32605966D01*
X79341402Y-32605973D01*
X79339541Y-32608072D01*
X79074494Y-32966918D01*
X78842394Y-33347905D01*
X78645082Y-33748016D01*
X78484118Y-34164082D01*
X78360777Y-34592810D01*
X78276036Y-35030806D01*
X78275751Y-35033583D01*
X78275750Y-35033593D01*
X78247593Y-35308411D01*
X78230565Y-35474600D01*
X78230528Y-35477390D01*
X78230528Y-35477398D01*
X78228001Y-35670499D01*
X78224726Y-35920679D01*
X70713321Y-35920679D01*
X70664413Y-35836341D01*
X70664386Y-35836296D01*
X70664119Y-35835835D01*
X70648373Y-35809828D01*
X70528807Y-35612353D01*
X70528793Y-35612331D01*
X70528527Y-35611891D01*
X70388617Y-35389914D01*
X70244758Y-35170090D01*
X70049964Y-34887483D01*
X69947207Y-34738403D01*
X69947185Y-34738372D01*
X69946679Y-34737638D01*
X69946121Y-34736877D01*
X69637776Y-34316721D01*
X69637754Y-34316692D01*
X69637258Y-34316016D01*
X69636756Y-34315369D01*
X69636730Y-34315335D01*
X69319960Y-33907349D01*
X69319939Y-33907323D01*
X69319461Y-33906707D01*
X68996254Y-33511191D01*
X68953537Y-33461312D01*
X68671108Y-33131537D01*
X68670133Y-33130385D01*
X68578992Y-33021348D01*
X68575650Y-33017173D01*
X68490352Y-32905844D01*
X68487622Y-32902142D01*
X68406094Y-32787208D01*
X68403897Y-32784007D01*
X68325489Y-32665861D01*
X68323773Y-32663202D01*
X68247877Y-32542315D01*
X68246617Y-32540263D01*
X68172756Y-32417358D01*
X68171656Y-32415491D01*
X68026393Y-32163727D01*
X68026093Y-32163203D01*
X67954765Y-32038199D01*
X67881580Y-31909942D01*
X67732642Y-31659457D01*
X67654911Y-31536619D01*
X67595412Y-31447829D01*
X67574669Y-31416874D01*
X67574656Y-31416855D01*
X67574109Y-31416039D01*
X67489565Y-31298208D01*
X67442013Y-31236955D01*
X67401646Y-31184957D01*
X67401632Y-31184940D01*
X67400605Y-31183617D01*
X67399513Y-31182355D01*
X67399502Y-31182342D01*
X67386868Y-31167746D01*
X67386861Y-31167739D01*
X67385545Y-31166218D01*
X67384135Y-31164784D01*
X67384125Y-31164773D01*
X67370879Y-31151301D01*
X67369534Y-31149933D01*
X67352628Y-31134696D01*
X67334882Y-31120437D01*
X67329568Y-31116610D01*
X67317557Y-31107959D01*
X67317542Y-31107948D01*
X67316351Y-31107091D01*
X67315116Y-31106289D01*
X67315104Y-31106281D01*
X67298767Y-31095675D01*
X67297093Y-31094588D01*
X67295359Y-31093614D01*
X67295331Y-31093597D01*
X67270629Y-31079721D01*
X67267359Y-31077815D01*
X67265754Y-31076773D01*
X67225274Y-31054033D01*
X67223260Y-31053082D01*
X67184102Y-31034593D01*
X67184094Y-31034589D01*
X67182549Y-31033860D01*
X67138025Y-31015716D01*
X67092148Y-30999061D01*
X67091443Y-30998824D01*
X67091422Y-30998817D01*
X67065573Y-30990140D01*
X67045363Y-30983356D01*
X67045208Y-30983306D01*
X67045179Y-30983296D01*
X66951843Y-30952955D01*
X66949895Y-30952304D01*
X66905741Y-30937129D01*
X66902302Y-30935890D01*
X66860626Y-30920197D01*
X66855580Y-30918171D01*
X66816801Y-30901618D01*
X66810138Y-30898539D01*
X66783233Y-30885143D01*
X66775002Y-30880656D01*
X66764841Y-30874615D01*
X66757835Y-30870130D01*
X66744460Y-30860930D01*
X66739440Y-30857291D01*
X66735001Y-30853903D01*
X66713928Y-30833531D01*
X66710637Y-30829508D01*
X66344084Y-30381499D01*
X65966077Y-29919490D01*
X65966073Y-29919486D01*
X65961271Y-29913617D01*
X65912555Y-29877008D01*
X65910959Y-29875954D01*
X65864102Y-29845015D01*
X65864089Y-29845007D01*
X65862664Y-29844066D01*
X65861192Y-29843206D01*
X65861183Y-29843200D01*
X65813007Y-29815041D01*
X65812999Y-29815037D01*
X65811732Y-29814296D01*
X65810413Y-29813606D01*
X65810390Y-29813594D01*
X65806235Y-29811422D01*
X65801029Y-29808543D01*
X65780393Y-29796481D01*
X65728549Y-29769387D01*
X65727439Y-29768862D01*
X65727418Y-29768851D01*
X65695891Y-29753925D01*
X65675925Y-29744472D01*
X65622654Y-29721241D01*
X65621847Y-29720917D01*
X65621824Y-29720907D01*
X65514894Y-29677928D01*
X65514817Y-29677898D01*
X65514696Y-29677849D01*
X65406600Y-29635584D01*
X65404888Y-29634900D01*
X65352403Y-29613488D01*
X65349958Y-29612460D01*
X65298476Y-29590182D01*
X65295168Y-29588693D01*
X65244792Y-29565119D01*
X65240612Y-29563068D01*
X65193041Y-29538617D01*
X65188128Y-29535952D01*
X65169905Y-29525539D01*
X65164416Y-29522214D01*
X65116445Y-29491461D01*
X65112793Y-29489029D01*
X64605201Y-29138102D01*
X64604058Y-29137303D01*
X64092180Y-28774973D01*
X64091582Y-28774547D01*
X63059114Y-28034650D01*
X63059084Y-28034629D01*
X63058910Y-28034504D01*
X63058832Y-28034448D01*
X62539225Y-27665648D01*
X62539212Y-27665639D01*
X62538867Y-27665394D01*
X62016612Y-27302463D01*
X62004940Y-27294613D01*
X61492813Y-26950200D01*
X61492263Y-26949830D01*
X60965939Y-26611617D01*
X60965254Y-26612390D01*
X60959283Y-26609663D01*
X60959172Y-26609592D01*
X60934600Y-26593802D01*
X60928221Y-26600995D01*
X60860151Y-26677754D01*
X60847704Y-26689971D01*
X60736910Y-26784578D01*
X60729445Y-26790478D01*
X60578933Y-26900465D01*
X60574155Y-26903790D01*
X60391495Y-27024722D01*
X60387137Y-27027481D01*
X59945378Y-27294613D01*
X59942281Y-27296426D01*
X59438389Y-27581860D01*
X59437353Y-27582440D01*
X58409368Y-28151925D01*
X57968949Y-28407716D01*
X57785196Y-28522330D01*
X57632601Y-28625802D01*
X57631643Y-28626505D01*
X57631632Y-28626513D01*
X57300958Y-28869250D01*
X57300911Y-28869285D01*
X57300410Y-28869653D01*
X56979966Y-29114794D01*
X56670381Y-29361845D01*
X56669939Y-29362213D01*
X56669911Y-29362236D01*
X56477860Y-29522214D01*
X56370767Y-29611422D01*
X56370267Y-29611857D01*
X56370254Y-29611868D01*
X56080695Y-29863745D01*
X56080657Y-29863779D01*
X56080236Y-29864145D01*
X56079810Y-29864532D01*
X56079801Y-29864540D01*
X56030799Y-29909056D01*
X55797900Y-30120631D01*
X55522871Y-30381499D01*
X55254261Y-30647366D01*
X55253865Y-30647775D01*
X55253829Y-30647811D01*
X54991638Y-30918382D01*
X54991183Y-30918852D01*
X54990743Y-30919325D01*
X54990740Y-30919328D01*
X54733141Y-31196151D01*
X54733107Y-31196188D01*
X54732749Y-31196573D01*
X54732366Y-31197001D01*
X54478447Y-31480726D01*
X54478413Y-31480765D01*
X54478070Y-31481148D01*
X54477703Y-31481573D01*
X54477686Y-31481593D01*
X54229222Y-31769759D01*
X54226259Y-31773195D01*
X53976427Y-32073332D01*
X53727688Y-32382178D01*
X53727266Y-32382726D01*
X53727262Y-32382731D01*
X53237879Y-33018153D01*
X53220054Y-33036937D01*
X53111031Y-33130385D01*
X52637266Y-33536468D01*
X52579914Y-33620679D01*
X52528014Y-33706641D01*
X52527281Y-33708001D01*
X52481465Y-33792957D01*
X52481454Y-33792979D01*
X52480826Y-33794143D01*
X52437612Y-33882975D01*
X52397633Y-33972924D01*
X52360149Y-34063781D01*
X52289711Y-34247372D01*
X52289650Y-34247535D01*
X52220906Y-34430664D01*
X52219823Y-34433448D01*
X52154548Y-34595553D01*
X52147115Y-34614011D01*
X52145311Y-34618263D01*
X52106419Y-34705476D01*
X52104608Y-34709358D01*
X52097672Y-34723584D01*
X52062542Y-34795635D01*
X52060183Y-34800231D01*
X52014534Y-34884861D01*
X52011578Y-34890044D01*
X51961406Y-34973360D01*
X51958364Y-34978162D01*
X51916891Y-35040445D01*
X51914476Y-35043941D01*
X51868320Y-35108431D01*
X51866339Y-35111124D01*
X51816253Y-35177320D01*
X51814774Y-35179234D01*
X51761560Y-35246660D01*
X51760000Y-35248594D01*
X51645916Y-35387234D01*
X51644926Y-35388422D01*
X51643297Y-35390353D01*
X51526250Y-35529088D01*
X51408363Y-35669981D01*
X51407948Y-35670499D01*
X51297421Y-35808396D01*
X51297398Y-35808426D01*
X51296851Y-35809108D01*
X51245072Y-35877572D01*
X51196792Y-35945069D01*
X51152645Y-36011426D01*
X51113267Y-36076468D01*
X50964687Y-36345434D01*
X50964325Y-36346132D01*
X50964310Y-36346161D01*
X50955732Y-36362725D01*
X50820462Y-36623929D01*
X50680427Y-36910541D01*
X50680198Y-36911034D01*
X50680176Y-36911081D01*
X50565824Y-37157689D01*
X50544415Y-37203860D01*
X50544122Y-37204536D01*
X50285718Y-37800557D01*
X50283803Y-37804973D01*
X50283509Y-37805701D01*
X50283498Y-37805728D01*
X50119947Y-38211123D01*
X50037302Y-38415977D01*
X50037062Y-38416616D01*
X50037050Y-38416646D01*
X49179188Y-40697885D01*
X49165933Y-40733134D01*
X49119296Y-40871014D01*
X49077688Y-41026794D01*
X49040306Y-41197690D01*
X49006344Y-41380914D01*
X48945474Y-41773205D01*
X48945399Y-41773744D01*
X48888729Y-42180811D01*
X48888587Y-42181806D01*
X48829646Y-42581778D01*
X48829217Y-42584483D01*
X48825186Y-42608240D01*
X48797202Y-42773122D01*
X48796635Y-42776225D01*
X48761859Y-42954028D01*
X48760928Y-42958378D01*
X48722822Y-43121985D01*
X48721239Y-43128080D01*
X48679423Y-43273978D01*
X48676640Y-43282526D01*
X48667533Y-43307434D01*
X48631072Y-43407153D01*
X48625974Y-43419135D01*
X48573267Y-43527135D01*
X48573267Y-43611801D01*
X20828000Y-43611801D01*
X20828000Y-35920679D01*
X33292126Y-35920679D01*
X33325963Y-36365512D01*
X33399210Y-36805575D01*
X33422585Y-36895634D01*
X33510580Y-37234667D01*
X33510583Y-37234678D01*
X33511286Y-37237385D01*
X33607113Y-37505759D01*
X33636633Y-37588431D01*
X33661303Y-37657523D01*
X33662474Y-37660063D01*
X33662476Y-37660068D01*
X33729627Y-37805728D01*
X33848075Y-38062662D01*
X33849465Y-38065085D01*
X33849467Y-38065088D01*
X33954515Y-38248141D01*
X34070121Y-38449593D01*
X34325685Y-38815255D01*
X34327485Y-38817396D01*
X34327487Y-38817399D01*
X34592722Y-39132933D01*
X34612742Y-39156750D01*
X34929019Y-39471376D01*
X35272013Y-39756641D01*
X35639008Y-40010286D01*
X36027097Y-40230304D01*
X36029646Y-40231463D01*
X36029650Y-40231465D01*
X36430662Y-40413795D01*
X36430673Y-40413800D01*
X36433208Y-40414952D01*
X36435834Y-40415874D01*
X36435846Y-40415879D01*
X36675540Y-40500052D01*
X36854125Y-40562767D01*
X36856845Y-40563458D01*
X36856849Y-40563459D01*
X37026689Y-40606593D01*
X37286516Y-40672581D01*
X37289266Y-40673024D01*
X37289276Y-40673026D01*
X37724186Y-40743076D01*
X37724193Y-40743077D01*
X37726957Y-40743522D01*
X37729758Y-40743720D01*
X37729764Y-40743721D01*
X37869154Y-40753590D01*
X38124930Y-40771700D01*
X38416550Y-40771700D01*
X38417956Y-40771637D01*
X38417973Y-40771637D01*
X38705147Y-40758847D01*
X38748876Y-40756900D01*
X38751649Y-40756528D01*
X38751655Y-40756527D01*
X38925815Y-40733134D01*
X39191023Y-40697512D01*
X39193755Y-40696894D01*
X39193765Y-40696892D01*
X39457617Y-40637188D01*
X39626140Y-40599055D01*
X39628793Y-40598201D01*
X39628799Y-40598199D01*
X39805517Y-40541291D01*
X40050783Y-40462308D01*
X40053335Y-40461227D01*
X40053344Y-40461224D01*
X40459014Y-40289445D01*
X40459015Y-40289445D01*
X40461588Y-40288355D01*
X40464046Y-40287045D01*
X40464055Y-40287041D01*
X40852849Y-40079879D01*
X40855304Y-40078571D01*
X40959854Y-40010286D01*
X41226479Y-39836144D01*
X41226483Y-39836141D01*
X41228812Y-39834620D01*
X41325704Y-39758237D01*
X41576963Y-39560160D01*
X41576965Y-39560158D01*
X41579156Y-39558431D01*
X41903561Y-39252192D01*
X42010980Y-39130990D01*
X42197593Y-38920434D01*
X42197598Y-38920427D01*
X42199459Y-38918328D01*
X42464506Y-38559482D01*
X42696606Y-38178495D01*
X42730662Y-38109437D01*
X42881167Y-37804241D01*
X42893918Y-37778384D01*
X43054882Y-37362318D01*
X43091606Y-37234667D01*
X43177452Y-36936271D01*
X43177454Y-36936265D01*
X43178223Y-36933590D01*
X43182683Y-36910541D01*
X43217900Y-36728512D01*
X43262964Y-36495594D01*
X43278350Y-36345434D01*
X43305795Y-36077565D01*
X43308435Y-36051800D01*
X43308949Y-36012583D01*
X43314237Y-35608531D01*
X43314274Y-35605721D01*
X43280437Y-35160888D01*
X43207190Y-34720825D01*
X43180022Y-34616151D01*
X43095820Y-34291733D01*
X43095817Y-34291722D01*
X43095114Y-34289015D01*
X42982249Y-33972924D01*
X42946041Y-33871520D01*
X42946039Y-33871515D01*
X42945097Y-33868877D01*
X42758325Y-33463738D01*
X42536279Y-33076807D01*
X42502495Y-33028468D01*
X42282321Y-32713443D01*
X42280715Y-32711145D01*
X42242663Y-32665877D01*
X41995458Y-32371791D01*
X41995455Y-32371787D01*
X41993658Y-32369650D01*
X41677381Y-32055024D01*
X41334387Y-31769759D01*
X40967392Y-31516114D01*
X40579303Y-31296096D01*
X40576750Y-31294935D01*
X40175738Y-31112605D01*
X40175727Y-31112600D01*
X40173192Y-31111448D01*
X40170566Y-31110526D01*
X40170554Y-31110521D01*
X39930860Y-31026348D01*
X39752275Y-30963633D01*
X39749555Y-30962942D01*
X39749551Y-30962941D01*
X39322597Y-30854508D01*
X39319884Y-30853819D01*
X39317134Y-30853376D01*
X39317124Y-30853374D01*
X38882214Y-30783324D01*
X38882207Y-30783323D01*
X38879443Y-30782878D01*
X38876642Y-30782680D01*
X38876636Y-30782679D01*
X38737246Y-30772810D01*
X38481470Y-30754700D01*
X38189850Y-30754700D01*
X38188444Y-30754763D01*
X38188427Y-30754763D01*
X37901253Y-30767553D01*
X37857524Y-30769500D01*
X37854751Y-30769872D01*
X37854745Y-30769873D01*
X37709361Y-30789401D01*
X37415377Y-30828888D01*
X37412645Y-30829506D01*
X37412635Y-30829508D01*
X37176002Y-30883053D01*
X36980260Y-30927345D01*
X36977607Y-30928199D01*
X36977601Y-30928201D01*
X36869723Y-30962941D01*
X36555617Y-31064092D01*
X36553065Y-31065173D01*
X36553056Y-31065176D01*
X36241741Y-31197001D01*
X36144812Y-31238045D01*
X36142354Y-31239355D01*
X36142345Y-31239359D01*
X36030081Y-31299177D01*
X35751096Y-31447829D01*
X35748769Y-31449349D01*
X35748767Y-31449350D01*
X35428218Y-31658712D01*
X35377588Y-31691780D01*
X35375401Y-31693504D01*
X35375397Y-31693507D01*
X35029437Y-31966240D01*
X35027244Y-31967969D01*
X34702839Y-32274208D01*
X34700969Y-32276318D01*
X34408807Y-32605966D01*
X34408802Y-32605973D01*
X34406941Y-32608072D01*
X34141894Y-32966918D01*
X33909794Y-33347905D01*
X33712482Y-33748016D01*
X33551518Y-34164082D01*
X33428177Y-34592810D01*
X33343436Y-35030806D01*
X33343151Y-35033583D01*
X33343150Y-35033593D01*
X33314993Y-35308411D01*
X33297965Y-35474600D01*
X33297928Y-35477390D01*
X33297928Y-35477398D01*
X33295401Y-35670499D01*
X33292126Y-35920679D01*
X20828000Y-35920679D01*
X20828000Y-20960703D01*
X24053743Y-20960703D01*
X24091268Y-21245734D01*
X24167129Y-21523036D01*
X24168813Y-21526984D01*
X24225753Y-21660476D01*
X24279923Y-21787476D01*
X24427561Y-22034161D01*
X24607313Y-22258528D01*
X24815851Y-22456423D01*
X25049317Y-22624186D01*
X25053112Y-22626195D01*
X25053113Y-22626196D01*
X25094346Y-22648028D01*
X25303392Y-22758712D01*
X25573373Y-22857511D01*
X25854264Y-22918755D01*
X25882841Y-22921004D01*
X26077282Y-22936307D01*
X26077291Y-22936307D01*
X26079739Y-22936500D01*
X29535271Y-22936500D01*
X29537407Y-22936354D01*
X29537418Y-22936354D01*
X29745548Y-22922165D01*
X29745554Y-22922164D01*
X29749825Y-22921873D01*
X29754020Y-22921004D01*
X29754022Y-22921004D01*
X29890584Y-22892723D01*
X30031342Y-22863574D01*
X30302343Y-22767607D01*
X30557812Y-22635750D01*
X30561313Y-22633289D01*
X30561317Y-22633287D01*
X30742019Y-22506287D01*
X30793023Y-22470441D01*
X31003622Y-22274740D01*
X31185713Y-22052268D01*
X31335927Y-21807142D01*
X31451483Y-21543898D01*
X31530244Y-21267406D01*
X31570751Y-20982784D01*
X31570845Y-20964951D01*
X31571532Y-20833703D01*
X89966743Y-20833703D01*
X90004268Y-21118734D01*
X90080129Y-21396036D01*
X90192923Y-21660476D01*
X90204693Y-21680142D01*
X90282890Y-21810799D01*
X90340561Y-21907161D01*
X90520313Y-22131528D01*
X90537397Y-22147740D01*
X90667730Y-22271421D01*
X90728851Y-22329423D01*
X90962317Y-22497186D01*
X90966112Y-22499195D01*
X90966113Y-22499196D01*
X90987869Y-22510715D01*
X91216392Y-22631712D01*
X91486373Y-22730511D01*
X91767264Y-22791755D01*
X91795841Y-22794004D01*
X91990282Y-22809307D01*
X91990291Y-22809307D01*
X91992739Y-22809500D01*
X95448271Y-22809500D01*
X95450407Y-22809354D01*
X95450418Y-22809354D01*
X95658548Y-22795165D01*
X95658554Y-22795164D01*
X95662825Y-22794873D01*
X95667020Y-22794004D01*
X95667022Y-22794004D01*
X95847152Y-22756701D01*
X95944342Y-22736574D01*
X96215343Y-22640607D01*
X96470812Y-22508750D01*
X96474313Y-22506289D01*
X96474317Y-22506287D01*
X96588417Y-22426096D01*
X96706023Y-22343441D01*
X96916622Y-22147740D01*
X97098713Y-21925268D01*
X97248927Y-21680142D01*
X97364483Y-21416898D01*
X97443244Y-21140406D01*
X97483751Y-20855784D01*
X97483845Y-20837951D01*
X97485235Y-20572583D01*
X97485235Y-20572576D01*
X97485257Y-20568297D01*
X97447732Y-20283266D01*
X97371871Y-20005964D01*
X97314933Y-19872476D01*
X97260763Y-19745476D01*
X97260761Y-19745472D01*
X97259077Y-19741524D01*
X97111439Y-19494839D01*
X96931687Y-19270472D01*
X96723149Y-19072577D01*
X96489683Y-18904814D01*
X96467843Y-18893250D01*
X96444654Y-18880972D01*
X96235608Y-18770288D01*
X95965627Y-18671489D01*
X95684736Y-18610245D01*
X95653685Y-18607801D01*
X95461718Y-18592693D01*
X95461709Y-18592693D01*
X95459261Y-18592500D01*
X92003729Y-18592500D01*
X92001593Y-18592646D01*
X92001582Y-18592646D01*
X91793452Y-18606835D01*
X91793446Y-18606836D01*
X91789175Y-18607127D01*
X91784980Y-18607996D01*
X91784978Y-18607996D01*
X91648416Y-18636277D01*
X91507658Y-18665426D01*
X91236657Y-18761393D01*
X90981188Y-18893250D01*
X90977687Y-18895711D01*
X90977683Y-18895713D01*
X90972581Y-18899299D01*
X90745977Y-19058559D01*
X90535378Y-19254260D01*
X90353287Y-19476732D01*
X90203073Y-19721858D01*
X90087517Y-19985102D01*
X90008756Y-20261594D01*
X89968249Y-20546216D01*
X89968227Y-20550505D01*
X89968226Y-20550512D01*
X89966765Y-20829417D01*
X89966743Y-20833703D01*
X31571532Y-20833703D01*
X31572235Y-20699583D01*
X31572235Y-20699576D01*
X31572257Y-20695297D01*
X31534732Y-20410266D01*
X31458871Y-20132964D01*
X31346077Y-19868524D01*
X31258299Y-19721858D01*
X31200643Y-19625521D01*
X31200640Y-19625517D01*
X31198439Y-19621839D01*
X31018687Y-19397472D01*
X30881751Y-19267525D01*
X30813258Y-19202527D01*
X30813255Y-19202525D01*
X30810149Y-19199577D01*
X30576683Y-19031814D01*
X30554843Y-19020250D01*
X30531654Y-19007972D01*
X30322608Y-18897288D01*
X30052627Y-18798489D01*
X29771736Y-18737245D01*
X29740685Y-18734801D01*
X29548718Y-18719693D01*
X29548709Y-18719693D01*
X29546261Y-18719500D01*
X26090729Y-18719500D01*
X26088593Y-18719646D01*
X26088582Y-18719646D01*
X25880452Y-18733835D01*
X25880446Y-18733836D01*
X25876175Y-18734127D01*
X25871980Y-18734996D01*
X25871978Y-18734996D01*
X25751422Y-18759962D01*
X25594658Y-18792426D01*
X25323657Y-18888393D01*
X25068188Y-19020250D01*
X25064687Y-19022711D01*
X25064683Y-19022713D01*
X24993734Y-19072577D01*
X24832977Y-19185559D01*
X24622378Y-19381260D01*
X24440287Y-19603732D01*
X24290073Y-19848858D01*
X24174517Y-20112102D01*
X24095756Y-20388594D01*
X24055249Y-20673216D01*
X24055227Y-20677505D01*
X24055226Y-20677512D01*
X24054270Y-20860036D01*
X24053743Y-20960703D01*
X20828000Y-20960703D01*
X20828000Y-18414000D01*
X20848002Y-18345879D01*
X20901658Y-18299386D01*
X20954000Y-18288000D01*
X100585000Y-18288000D01*
X100653121Y-18308002D01*
G37*
G04 #@! TD.AperFunction*
M02*
