G04 #@! TF.GenerationSoftware,KiCad,Pcbnew,(5.1.5-0)*
G04 #@! TF.CreationDate,2020-10-12T11:50:34-05:00*
G04 #@! TF.ProjectId,bells-venn,62656c6c-732d-4766-956e-6e2e6b696361,rev?*
G04 #@! TF.SameCoordinates,Original*
G04 #@! TF.FileFunction,Legend,Top*
G04 #@! TF.FilePolarity,Positive*
%FSLAX46Y46*%
G04 Gerber Fmt 4.6, Leading zero omitted, Abs format (unit mm)*
G04 Created by KiCad (PCBNEW (5.1.5-0)) date 2020-10-12 11:50:34*
%MOMM*%
%LPD*%
G04 APERTURE LIST*
%ADD10C,0.150000*%
%ADD11C,0.500000*%
%ADD12C,0.010000*%
G04 APERTURE END LIST*
D10*
X43965857Y-42668000D02*
X44680142Y-42668000D01*
X43823000Y-43096571D02*
X44323000Y-41596571D01*
X44823000Y-43096571D01*
X43930142Y-75100571D02*
X43930142Y-73600571D01*
X44287285Y-73600571D01*
X44501571Y-73672000D01*
X44644428Y-73814857D01*
X44715857Y-73957714D01*
X44787285Y-74243428D01*
X44787285Y-74457714D01*
X44715857Y-74743428D01*
X44644428Y-74886285D01*
X44501571Y-75029142D01*
X44287285Y-75100571D01*
X43930142Y-75100571D01*
X47490285Y-52113571D02*
X47490285Y-50613571D01*
X47847428Y-50613571D01*
X48061714Y-50685000D01*
X48204571Y-50827857D01*
X48276000Y-50970714D01*
X48347428Y-51256428D01*
X48347428Y-51470714D01*
X48276000Y-51756428D01*
X48204571Y-51899285D01*
X48061714Y-52042142D01*
X47847428Y-52113571D01*
X47490285Y-52113571D01*
X48918857Y-51685000D02*
X49633142Y-51685000D01*
X48776000Y-52113571D02*
X49276000Y-50613571D01*
X49776000Y-52113571D01*
X50776000Y-51327857D02*
X50990285Y-51399285D01*
X51061714Y-51470714D01*
X51133142Y-51613571D01*
X51133142Y-51827857D01*
X51061714Y-51970714D01*
X50990285Y-52042142D01*
X50847428Y-52113571D01*
X50276000Y-52113571D01*
X50276000Y-50613571D01*
X50776000Y-50613571D01*
X50918857Y-50685000D01*
X50990285Y-50756428D01*
X51061714Y-50899285D01*
X51061714Y-51042142D01*
X50990285Y-51185000D01*
X50918857Y-51256428D01*
X50776000Y-51327857D01*
X50276000Y-51327857D01*
X76192142Y-58185857D02*
X76406428Y-58257285D01*
X76477857Y-58328714D01*
X76549285Y-58471571D01*
X76549285Y-58685857D01*
X76477857Y-58828714D01*
X76406428Y-58900142D01*
X76263571Y-58971571D01*
X75692142Y-58971571D01*
X75692142Y-57471571D01*
X76192142Y-57471571D01*
X76335000Y-57543000D01*
X76406428Y-57614428D01*
X76477857Y-57757285D01*
X76477857Y-57900142D01*
X76406428Y-58043000D01*
X76335000Y-58114428D01*
X76192142Y-58185857D01*
X75692142Y-58185857D01*
X78049285Y-58828714D02*
X77977857Y-58900142D01*
X77763571Y-58971571D01*
X77620714Y-58971571D01*
X77406428Y-58900142D01*
X77263571Y-58757285D01*
X77192142Y-58614428D01*
X77120714Y-58328714D01*
X77120714Y-58114428D01*
X77192142Y-57828714D01*
X77263571Y-57685857D01*
X77406428Y-57543000D01*
X77620714Y-57471571D01*
X77763571Y-57471571D01*
X77977857Y-57543000D01*
X78049285Y-57614428D01*
X76942142Y-42310857D02*
X77156428Y-42382285D01*
X77227857Y-42453714D01*
X77299285Y-42596571D01*
X77299285Y-42810857D01*
X77227857Y-42953714D01*
X77156428Y-43025142D01*
X77013571Y-43096571D01*
X76442142Y-43096571D01*
X76442142Y-41596571D01*
X76942142Y-41596571D01*
X77085000Y-41668000D01*
X77156428Y-41739428D01*
X77227857Y-41882285D01*
X77227857Y-42025142D01*
X77156428Y-42168000D01*
X77085000Y-42239428D01*
X76942142Y-42310857D01*
X76442142Y-42310857D01*
X77172285Y-74957714D02*
X77100857Y-75029142D01*
X76886571Y-75100571D01*
X76743714Y-75100571D01*
X76529428Y-75029142D01*
X76386571Y-74886285D01*
X76315142Y-74743428D01*
X76243714Y-74457714D01*
X76243714Y-74243428D01*
X76315142Y-73957714D01*
X76386571Y-73814857D01*
X76529428Y-73672000D01*
X76743714Y-73600571D01*
X76886571Y-73600571D01*
X77100857Y-73672000D01*
X77172285Y-73743428D01*
X43287285Y-58971571D02*
X43287285Y-57471571D01*
X43644428Y-57471571D01*
X43858714Y-57543000D01*
X44001571Y-57685857D01*
X44073000Y-57828714D01*
X44144428Y-58114428D01*
X44144428Y-58328714D01*
X44073000Y-58614428D01*
X44001571Y-58757285D01*
X43858714Y-58900142D01*
X43644428Y-58971571D01*
X43287285Y-58971571D01*
X44715857Y-58543000D02*
X45430142Y-58543000D01*
X44573000Y-58971571D02*
X45073000Y-57471571D01*
X45573000Y-58971571D01*
X60293285Y-74957714D02*
X60221857Y-75029142D01*
X60007571Y-75100571D01*
X59864714Y-75100571D01*
X59650428Y-75029142D01*
X59507571Y-74886285D01*
X59436142Y-74743428D01*
X59364714Y-74457714D01*
X59364714Y-74243428D01*
X59436142Y-73957714D01*
X59507571Y-73814857D01*
X59650428Y-73672000D01*
X59864714Y-73600571D01*
X60007571Y-73600571D01*
X60221857Y-73672000D01*
X60293285Y-73743428D01*
X60936142Y-75100571D02*
X60936142Y-73600571D01*
X61293285Y-73600571D01*
X61507571Y-73672000D01*
X61650428Y-73814857D01*
X61721857Y-73957714D01*
X61793285Y-74243428D01*
X61793285Y-74457714D01*
X61721857Y-74743428D01*
X61650428Y-74886285D01*
X61507571Y-75029142D01*
X61293285Y-75100571D01*
X60936142Y-75100571D01*
X59471857Y-42668000D02*
X60186142Y-42668000D01*
X59329000Y-43096571D02*
X59829000Y-41596571D01*
X60329000Y-43096571D01*
X61329000Y-42310857D02*
X61543285Y-42382285D01*
X61614714Y-42453714D01*
X61686142Y-42596571D01*
X61686142Y-42810857D01*
X61614714Y-42953714D01*
X61543285Y-43025142D01*
X61400428Y-43096571D01*
X60829000Y-43096571D01*
X60829000Y-41596571D01*
X61329000Y-41596571D01*
X61471857Y-41668000D01*
X61543285Y-41739428D01*
X61614714Y-41882285D01*
X61614714Y-42025142D01*
X61543285Y-42168000D01*
X61471857Y-42239428D01*
X61329000Y-42310857D01*
X60829000Y-42310857D01*
X48347428Y-65559714D02*
X48276000Y-65631142D01*
X48061714Y-65702571D01*
X47918857Y-65702571D01*
X47704571Y-65631142D01*
X47561714Y-65488285D01*
X47490285Y-65345428D01*
X47418857Y-65059714D01*
X47418857Y-64845428D01*
X47490285Y-64559714D01*
X47561714Y-64416857D01*
X47704571Y-64274000D01*
X47918857Y-64202571D01*
X48061714Y-64202571D01*
X48276000Y-64274000D01*
X48347428Y-64345428D01*
X48990285Y-65702571D02*
X48990285Y-64202571D01*
X49347428Y-64202571D01*
X49561714Y-64274000D01*
X49704571Y-64416857D01*
X49776000Y-64559714D01*
X49847428Y-64845428D01*
X49847428Y-65059714D01*
X49776000Y-65345428D01*
X49704571Y-65488285D01*
X49561714Y-65631142D01*
X49347428Y-65702571D01*
X48990285Y-65702571D01*
X50418857Y-65274000D02*
X51133142Y-65274000D01*
X50276000Y-65702571D02*
X50776000Y-64202571D01*
X51276000Y-65702571D01*
X66635428Y-135155714D02*
X66564000Y-135227142D01*
X66349714Y-135298571D01*
X66206857Y-135298571D01*
X65992571Y-135227142D01*
X65849714Y-135084285D01*
X65778285Y-134941428D01*
X65706857Y-134655714D01*
X65706857Y-134441428D01*
X65778285Y-134155714D01*
X65849714Y-134012857D01*
X65992571Y-133870000D01*
X66206857Y-133798571D01*
X66349714Y-133798571D01*
X66564000Y-133870000D01*
X66635428Y-133941428D01*
X67064000Y-133798571D02*
X67564000Y-135298571D01*
X68064000Y-133798571D01*
X69421142Y-135155714D02*
X69349714Y-135227142D01*
X69135428Y-135298571D01*
X68992571Y-135298571D01*
X68778285Y-135227142D01*
X68635428Y-135084285D01*
X68564000Y-134941428D01*
X68492571Y-134655714D01*
X68492571Y-134441428D01*
X68564000Y-134155714D01*
X68635428Y-134012857D01*
X68778285Y-133870000D01*
X68992571Y-133798571D01*
X69135428Y-133798571D01*
X69349714Y-133870000D01*
X69421142Y-133941428D01*
X57971857Y-67052000D02*
X58686142Y-67052000D01*
X57829000Y-67480571D02*
X58329000Y-65980571D01*
X58829000Y-67480571D01*
X59829000Y-66694857D02*
X60043285Y-66766285D01*
X60114714Y-66837714D01*
X60186142Y-66980571D01*
X60186142Y-67194857D01*
X60114714Y-67337714D01*
X60043285Y-67409142D01*
X59900428Y-67480571D01*
X59329000Y-67480571D01*
X59329000Y-65980571D01*
X59829000Y-65980571D01*
X59971857Y-66052000D01*
X60043285Y-66123428D01*
X60114714Y-66266285D01*
X60114714Y-66409142D01*
X60043285Y-66552000D01*
X59971857Y-66623428D01*
X59829000Y-66694857D01*
X59329000Y-66694857D01*
X61686142Y-67337714D02*
X61614714Y-67409142D01*
X61400428Y-67480571D01*
X61257571Y-67480571D01*
X61043285Y-67409142D01*
X60900428Y-67266285D01*
X60829000Y-67123428D01*
X60757571Y-66837714D01*
X60757571Y-66623428D01*
X60829000Y-66337714D01*
X60900428Y-66194857D01*
X61043285Y-66052000D01*
X61257571Y-65980571D01*
X61400428Y-65980571D01*
X61614714Y-66052000D01*
X61686142Y-66123428D01*
X62329000Y-67480571D02*
X62329000Y-65980571D01*
X62686142Y-65980571D01*
X62900428Y-66052000D01*
X63043285Y-66194857D01*
X63114714Y-66337714D01*
X63186142Y-66623428D01*
X63186142Y-66837714D01*
X63114714Y-67123428D01*
X63043285Y-67266285D01*
X62900428Y-67409142D01*
X62686142Y-67480571D01*
X62329000Y-67480571D01*
X70024857Y-51685000D02*
X70739142Y-51685000D01*
X69882000Y-52113571D02*
X70382000Y-50613571D01*
X70882000Y-52113571D01*
X71882000Y-51327857D02*
X72096285Y-51399285D01*
X72167714Y-51470714D01*
X72239142Y-51613571D01*
X72239142Y-51827857D01*
X72167714Y-51970714D01*
X72096285Y-52042142D01*
X71953428Y-52113571D01*
X71382000Y-52113571D01*
X71382000Y-50613571D01*
X71882000Y-50613571D01*
X72024857Y-50685000D01*
X72096285Y-50756428D01*
X72167714Y-50899285D01*
X72167714Y-51042142D01*
X72096285Y-51185000D01*
X72024857Y-51256428D01*
X71882000Y-51327857D01*
X71382000Y-51327857D01*
X73739142Y-51970714D02*
X73667714Y-52042142D01*
X73453428Y-52113571D01*
X73310571Y-52113571D01*
X73096285Y-52042142D01*
X72953428Y-51899285D01*
X72882000Y-51756428D01*
X72810571Y-51470714D01*
X72810571Y-51256428D01*
X72882000Y-50970714D01*
X72953428Y-50827857D01*
X73096285Y-50685000D01*
X73310571Y-50613571D01*
X73453428Y-50613571D01*
X73667714Y-50685000D01*
X73739142Y-50756428D01*
X70489142Y-64916857D02*
X70703428Y-64988285D01*
X70774857Y-65059714D01*
X70846285Y-65202571D01*
X70846285Y-65416857D01*
X70774857Y-65559714D01*
X70703428Y-65631142D01*
X70560571Y-65702571D01*
X69989142Y-65702571D01*
X69989142Y-64202571D01*
X70489142Y-64202571D01*
X70632000Y-64274000D01*
X70703428Y-64345428D01*
X70774857Y-64488285D01*
X70774857Y-64631142D01*
X70703428Y-64774000D01*
X70632000Y-64845428D01*
X70489142Y-64916857D01*
X69989142Y-64916857D01*
X72346285Y-65559714D02*
X72274857Y-65631142D01*
X72060571Y-65702571D01*
X71917714Y-65702571D01*
X71703428Y-65631142D01*
X71560571Y-65488285D01*
X71489142Y-65345428D01*
X71417714Y-65059714D01*
X71417714Y-64845428D01*
X71489142Y-64559714D01*
X71560571Y-64416857D01*
X71703428Y-64274000D01*
X71917714Y-64202571D01*
X72060571Y-64202571D01*
X72274857Y-64274000D01*
X72346285Y-64345428D01*
X72989142Y-65702571D02*
X72989142Y-64202571D01*
X73346285Y-64202571D01*
X73560571Y-64274000D01*
X73703428Y-64416857D01*
X73774857Y-64559714D01*
X73846285Y-64845428D01*
X73846285Y-65059714D01*
X73774857Y-65345428D01*
X73703428Y-65488285D01*
X73560571Y-65631142D01*
X73346285Y-65702571D01*
X72989142Y-65702571D01*
X53173428Y-135155714D02*
X53102000Y-135227142D01*
X52887714Y-135298571D01*
X52744857Y-135298571D01*
X52530571Y-135227142D01*
X52387714Y-135084285D01*
X52316285Y-134941428D01*
X52244857Y-134655714D01*
X52244857Y-134441428D01*
X52316285Y-134155714D01*
X52387714Y-134012857D01*
X52530571Y-133870000D01*
X52744857Y-133798571D01*
X52887714Y-133798571D01*
X53102000Y-133870000D01*
X53173428Y-133941428D01*
X53602000Y-133798571D02*
X54102000Y-135298571D01*
X54602000Y-133798571D01*
X55602000Y-134512857D02*
X55816285Y-134584285D01*
X55887714Y-134655714D01*
X55959142Y-134798571D01*
X55959142Y-135012857D01*
X55887714Y-135155714D01*
X55816285Y-135227142D01*
X55673428Y-135298571D01*
X55102000Y-135298571D01*
X55102000Y-133798571D01*
X55602000Y-133798571D01*
X55744857Y-133870000D01*
X55816285Y-133941428D01*
X55887714Y-134084285D01*
X55887714Y-134227142D01*
X55816285Y-134370000D01*
X55744857Y-134441428D01*
X55602000Y-134512857D01*
X55102000Y-134512857D01*
X39818571Y-135155714D02*
X39747142Y-135227142D01*
X39532857Y-135298571D01*
X39390000Y-135298571D01*
X39175714Y-135227142D01*
X39032857Y-135084285D01*
X38961428Y-134941428D01*
X38890000Y-134655714D01*
X38890000Y-134441428D01*
X38961428Y-134155714D01*
X39032857Y-134012857D01*
X39175714Y-133870000D01*
X39390000Y-133798571D01*
X39532857Y-133798571D01*
X39747142Y-133870000D01*
X39818571Y-133941428D01*
X40247142Y-133798571D02*
X40747142Y-135298571D01*
X41247142Y-133798571D01*
X41675714Y-134870000D02*
X42390000Y-134870000D01*
X41532857Y-135298571D02*
X42032857Y-133798571D01*
X42532857Y-135298571D01*
X26392285Y-135298571D02*
X26392285Y-133798571D01*
X27106571Y-135298571D02*
X27106571Y-133798571D01*
X27963714Y-135298571D01*
X27963714Y-133798571D01*
X91880857Y-134870000D02*
X92595142Y-134870000D01*
X91738000Y-135298571D02*
X92238000Y-133798571D01*
X92738000Y-135298571D01*
X93738000Y-134512857D02*
X93952285Y-134584285D01*
X94023714Y-134655714D01*
X94095142Y-134798571D01*
X94095142Y-135012857D01*
X94023714Y-135155714D01*
X93952285Y-135227142D01*
X93809428Y-135298571D01*
X93238000Y-135298571D01*
X93238000Y-133798571D01*
X93738000Y-133798571D01*
X93880857Y-133870000D01*
X93952285Y-133941428D01*
X94023714Y-134084285D01*
X94023714Y-134227142D01*
X93952285Y-134370000D01*
X93880857Y-134441428D01*
X93738000Y-134512857D01*
X93238000Y-134512857D01*
X95595142Y-135155714D02*
X95523714Y-135227142D01*
X95309428Y-135298571D01*
X95166571Y-135298571D01*
X94952285Y-135227142D01*
X94809428Y-135084285D01*
X94738000Y-134941428D01*
X94666571Y-134655714D01*
X94666571Y-134441428D01*
X94738000Y-134155714D01*
X94809428Y-134012857D01*
X94952285Y-133870000D01*
X95166571Y-133798571D01*
X95309428Y-133798571D01*
X95523714Y-133870000D01*
X95595142Y-133941428D01*
X96238000Y-135298571D02*
X96238000Y-133798571D01*
X96595142Y-133798571D01*
X96809428Y-133870000D01*
X96952285Y-134012857D01*
X97023714Y-134155714D01*
X97095142Y-134441428D01*
X97095142Y-134655714D01*
X97023714Y-134941428D01*
X96952285Y-135084285D01*
X96809428Y-135227142D01*
X96595142Y-135298571D01*
X96238000Y-135298571D01*
X80224428Y-135155714D02*
X80153000Y-135227142D01*
X79938714Y-135298571D01*
X79795857Y-135298571D01*
X79581571Y-135227142D01*
X79438714Y-135084285D01*
X79367285Y-134941428D01*
X79295857Y-134655714D01*
X79295857Y-134441428D01*
X79367285Y-134155714D01*
X79438714Y-134012857D01*
X79581571Y-133870000D01*
X79795857Y-133798571D01*
X79938714Y-133798571D01*
X80153000Y-133870000D01*
X80224428Y-133941428D01*
X80653000Y-133798571D02*
X81153000Y-135298571D01*
X81653000Y-133798571D01*
X82153000Y-135298571D02*
X82153000Y-133798571D01*
X82510142Y-133798571D01*
X82724428Y-133870000D01*
X82867285Y-134012857D01*
X82938714Y-134155714D01*
X83010142Y-134441428D01*
X83010142Y-134655714D01*
X82938714Y-134941428D01*
X82867285Y-135084285D01*
X82724428Y-135227142D01*
X82510142Y-135298571D01*
X82153000Y-135298571D01*
X93095142Y-104032857D02*
X93309428Y-104104285D01*
X93380857Y-104175714D01*
X93452285Y-104318571D01*
X93452285Y-104532857D01*
X93380857Y-104675714D01*
X93309428Y-104747142D01*
X93166571Y-104818571D01*
X92595142Y-104818571D01*
X92595142Y-103318571D01*
X93095142Y-103318571D01*
X93238000Y-103390000D01*
X93309428Y-103461428D01*
X93380857Y-103604285D01*
X93380857Y-103747142D01*
X93309428Y-103890000D01*
X93238000Y-103961428D01*
X93095142Y-104032857D01*
X92595142Y-104032857D01*
X94952285Y-104675714D02*
X94880857Y-104747142D01*
X94666571Y-104818571D01*
X94523714Y-104818571D01*
X94309428Y-104747142D01*
X94166571Y-104604285D01*
X94095142Y-104461428D01*
X94023714Y-104175714D01*
X94023714Y-103961428D01*
X94095142Y-103675714D01*
X94166571Y-103532857D01*
X94309428Y-103390000D01*
X94523714Y-103318571D01*
X94666571Y-103318571D01*
X94880857Y-103390000D01*
X94952285Y-103461428D01*
X95595142Y-104818571D02*
X95595142Y-103318571D01*
X95952285Y-103318571D01*
X96166571Y-103390000D01*
X96309428Y-103532857D01*
X96380857Y-103675714D01*
X96452285Y-103961428D01*
X96452285Y-104175714D01*
X96380857Y-104461428D01*
X96309428Y-104604285D01*
X96166571Y-104747142D01*
X95952285Y-104818571D01*
X95595142Y-104818571D01*
X79168857Y-104390000D02*
X79883142Y-104390000D01*
X79026000Y-104818571D02*
X79526000Y-103318571D01*
X80026000Y-104818571D01*
X81026000Y-104032857D02*
X81240285Y-104104285D01*
X81311714Y-104175714D01*
X81383142Y-104318571D01*
X81383142Y-104532857D01*
X81311714Y-104675714D01*
X81240285Y-104747142D01*
X81097428Y-104818571D01*
X80526000Y-104818571D01*
X80526000Y-103318571D01*
X81026000Y-103318571D01*
X81168857Y-103390000D01*
X81240285Y-103461428D01*
X81311714Y-103604285D01*
X81311714Y-103747142D01*
X81240285Y-103890000D01*
X81168857Y-103961428D01*
X81026000Y-104032857D01*
X80526000Y-104032857D01*
X82883142Y-104675714D02*
X82811714Y-104747142D01*
X82597428Y-104818571D01*
X82454571Y-104818571D01*
X82240285Y-104747142D01*
X82097428Y-104604285D01*
X82026000Y-104461428D01*
X81954571Y-104175714D01*
X81954571Y-103961428D01*
X82026000Y-103675714D01*
X82097428Y-103532857D01*
X82240285Y-103390000D01*
X82454571Y-103318571D01*
X82597428Y-103318571D01*
X82811714Y-103390000D01*
X82883142Y-103461428D01*
X67048142Y-104032857D02*
X67262428Y-104104285D01*
X67333857Y-104175714D01*
X67405285Y-104318571D01*
X67405285Y-104532857D01*
X67333857Y-104675714D01*
X67262428Y-104747142D01*
X67119571Y-104818571D01*
X66548142Y-104818571D01*
X66548142Y-103318571D01*
X67048142Y-103318571D01*
X67191000Y-103390000D01*
X67262428Y-103461428D01*
X67333857Y-103604285D01*
X67333857Y-103747142D01*
X67262428Y-103890000D01*
X67191000Y-103961428D01*
X67048142Y-104032857D01*
X66548142Y-104032857D01*
X68905285Y-104675714D02*
X68833857Y-104747142D01*
X68619571Y-104818571D01*
X68476714Y-104818571D01*
X68262428Y-104747142D01*
X68119571Y-104604285D01*
X68048142Y-104461428D01*
X67976714Y-104175714D01*
X67976714Y-103961428D01*
X68048142Y-103675714D01*
X68119571Y-103532857D01*
X68262428Y-103390000D01*
X68476714Y-103318571D01*
X68619571Y-103318571D01*
X68833857Y-103390000D01*
X68905285Y-103461428D01*
X67405285Y-119788714D02*
X67333857Y-119860142D01*
X67119571Y-119931571D01*
X66976714Y-119931571D01*
X66762428Y-119860142D01*
X66619571Y-119717285D01*
X66548142Y-119574428D01*
X66476714Y-119288714D01*
X66476714Y-119074428D01*
X66548142Y-118788714D01*
X66619571Y-118645857D01*
X66762428Y-118503000D01*
X66976714Y-118431571D01*
X67119571Y-118431571D01*
X67333857Y-118503000D01*
X67405285Y-118574428D01*
X68048142Y-119931571D02*
X68048142Y-118431571D01*
X68405285Y-118431571D01*
X68619571Y-118503000D01*
X68762428Y-118645857D01*
X68833857Y-118788714D01*
X68905285Y-119074428D01*
X68905285Y-119288714D01*
X68833857Y-119574428D01*
X68762428Y-119717285D01*
X68619571Y-119860142D01*
X68405285Y-119931571D01*
X68048142Y-119931571D01*
X53121857Y-104390000D02*
X53836142Y-104390000D01*
X52979000Y-104818571D02*
X53479000Y-103318571D01*
X53979000Y-104818571D01*
X54979000Y-104032857D02*
X55193285Y-104104285D01*
X55264714Y-104175714D01*
X55336142Y-104318571D01*
X55336142Y-104532857D01*
X55264714Y-104675714D01*
X55193285Y-104747142D01*
X55050428Y-104818571D01*
X54479000Y-104818571D01*
X54479000Y-103318571D01*
X54979000Y-103318571D01*
X55121857Y-103390000D01*
X55193285Y-103461428D01*
X55264714Y-103604285D01*
X55264714Y-103747142D01*
X55193285Y-103890000D01*
X55121857Y-103961428D01*
X54979000Y-104032857D01*
X54479000Y-104032857D01*
X53193285Y-119931571D02*
X53193285Y-118431571D01*
X53550428Y-118431571D01*
X53764714Y-118503000D01*
X53907571Y-118645857D01*
X53979000Y-118788714D01*
X54050428Y-119074428D01*
X54050428Y-119288714D01*
X53979000Y-119574428D01*
X53907571Y-119717285D01*
X53764714Y-119860142D01*
X53550428Y-119931571D01*
X53193285Y-119931571D01*
X54621857Y-119503000D02*
X55336142Y-119503000D01*
X54479000Y-119931571D02*
X54979000Y-118431571D01*
X55479000Y-119931571D01*
X26785142Y-119931571D02*
X26785142Y-118431571D01*
X27142285Y-118431571D01*
X27356571Y-118503000D01*
X27499428Y-118645857D01*
X27570857Y-118788714D01*
X27642285Y-119074428D01*
X27642285Y-119288714D01*
X27570857Y-119574428D01*
X27499428Y-119717285D01*
X27356571Y-119860142D01*
X27142285Y-119931571D01*
X26785142Y-119931571D01*
X41104285Y-119788714D02*
X41032857Y-119860142D01*
X40818571Y-119931571D01*
X40675714Y-119931571D01*
X40461428Y-119860142D01*
X40318571Y-119717285D01*
X40247142Y-119574428D01*
X40175714Y-119288714D01*
X40175714Y-119074428D01*
X40247142Y-118788714D01*
X40318571Y-118645857D01*
X40461428Y-118503000D01*
X40675714Y-118431571D01*
X40818571Y-118431571D01*
X41032857Y-118503000D01*
X41104285Y-118574428D01*
X40747142Y-104032857D02*
X40961428Y-104104285D01*
X41032857Y-104175714D01*
X41104285Y-104318571D01*
X41104285Y-104532857D01*
X41032857Y-104675714D01*
X40961428Y-104747142D01*
X40818571Y-104818571D01*
X40247142Y-104818571D01*
X40247142Y-103318571D01*
X40747142Y-103318571D01*
X40890000Y-103390000D01*
X40961428Y-103461428D01*
X41032857Y-103604285D01*
X41032857Y-103747142D01*
X40961428Y-103890000D01*
X40890000Y-103961428D01*
X40747142Y-104032857D01*
X40247142Y-104032857D01*
X26820857Y-104390000D02*
X27535142Y-104390000D01*
X26678000Y-104818571D02*
X27178000Y-103318571D01*
X27678000Y-104818571D01*
X93559428Y-119788714D02*
X93488000Y-119860142D01*
X93273714Y-119931571D01*
X93130857Y-119931571D01*
X92916571Y-119860142D01*
X92773714Y-119717285D01*
X92702285Y-119574428D01*
X92630857Y-119288714D01*
X92630857Y-119074428D01*
X92702285Y-118788714D01*
X92773714Y-118645857D01*
X92916571Y-118503000D01*
X93130857Y-118431571D01*
X93273714Y-118431571D01*
X93488000Y-118503000D01*
X93559428Y-118574428D01*
X94202285Y-119931571D02*
X94202285Y-118431571D01*
X94559428Y-118431571D01*
X94773714Y-118503000D01*
X94916571Y-118645857D01*
X94988000Y-118788714D01*
X95059428Y-119074428D01*
X95059428Y-119288714D01*
X94988000Y-119574428D01*
X94916571Y-119717285D01*
X94773714Y-119860142D01*
X94559428Y-119931571D01*
X94202285Y-119931571D01*
X95630857Y-119503000D02*
X96345142Y-119503000D01*
X95488000Y-119931571D02*
X95988000Y-118431571D01*
X96488000Y-119931571D01*
X79240285Y-119931571D02*
X79240285Y-118431571D01*
X79597428Y-118431571D01*
X79811714Y-118503000D01*
X79954571Y-118645857D01*
X80026000Y-118788714D01*
X80097428Y-119074428D01*
X80097428Y-119288714D01*
X80026000Y-119574428D01*
X79954571Y-119717285D01*
X79811714Y-119860142D01*
X79597428Y-119931571D01*
X79240285Y-119931571D01*
X80668857Y-119503000D02*
X81383142Y-119503000D01*
X80526000Y-119931571D02*
X81026000Y-118431571D01*
X81526000Y-119931571D01*
X82526000Y-119145857D02*
X82740285Y-119217285D01*
X82811714Y-119288714D01*
X82883142Y-119431571D01*
X82883142Y-119645857D01*
X82811714Y-119788714D01*
X82740285Y-119860142D01*
X82597428Y-119931571D01*
X82026000Y-119931571D01*
X82026000Y-118431571D01*
X82526000Y-118431571D01*
X82668857Y-118503000D01*
X82740285Y-118574428D01*
X82811714Y-118717285D01*
X82811714Y-118860142D01*
X82740285Y-119003000D01*
X82668857Y-119074428D01*
X82526000Y-119145857D01*
X82026000Y-119145857D01*
D11*
X74168000Y-91694000D02*
X100965000Y-91694000D01*
X20574000Y-120269000D02*
X20574000Y-91694000D01*
X47371000Y-120269000D02*
X20574000Y-120269000D01*
X47371000Y-91694000D02*
X47371000Y-120269000D01*
X20574000Y-91694000D02*
X47371000Y-91694000D01*
X74168000Y-120269000D02*
X74168000Y-91694000D01*
X100965000Y-120269000D02*
X74168000Y-120269000D01*
X100965000Y-91694000D02*
X100965000Y-120269000D01*
D12*
G36*
X53331383Y-138267398D02*
G01*
X53398117Y-138316535D01*
X53624447Y-138613861D01*
X53687375Y-138951460D01*
X53586770Y-139329938D01*
X53322500Y-139749898D01*
X53007147Y-140102166D01*
X52708686Y-140379390D01*
X52465244Y-140561837D01*
X52301479Y-140631165D01*
X52295777Y-140631333D01*
X52150520Y-140613804D01*
X52112333Y-140586509D01*
X52160882Y-140502037D01*
X52287676Y-140325453D01*
X52451000Y-140113239D01*
X52697803Y-139728012D01*
X52792546Y-139374552D01*
X52741096Y-139023523D01*
X52692989Y-138903118D01*
X52655745Y-138662502D01*
X52739322Y-138446712D01*
X52905361Y-138287657D01*
X53115501Y-138217249D01*
X53331383Y-138267398D01*
G37*
X53331383Y-138267398D02*
X53398117Y-138316535D01*
X53624447Y-138613861D01*
X53687375Y-138951460D01*
X53586770Y-139329938D01*
X53322500Y-139749898D01*
X53007147Y-140102166D01*
X52708686Y-140379390D01*
X52465244Y-140561837D01*
X52301479Y-140631165D01*
X52295777Y-140631333D01*
X52150520Y-140613804D01*
X52112333Y-140586509D01*
X52160882Y-140502037D01*
X52287676Y-140325453D01*
X52451000Y-140113239D01*
X52697803Y-139728012D01*
X52792546Y-139374552D01*
X52741096Y-139023523D01*
X52692989Y-138903118D01*
X52655745Y-138662502D01*
X52739322Y-138446712D01*
X52905361Y-138287657D01*
X53115501Y-138217249D01*
X53331383Y-138267398D01*
G36*
X77243217Y-140529077D02*
G01*
X77455140Y-140733455D01*
X77557403Y-140991783D01*
X77566470Y-141222020D01*
X77462765Y-141441456D01*
X77231046Y-141668894D01*
X76856072Y-141923138D01*
X76752561Y-141984698D01*
X76401198Y-142202849D01*
X76176362Y-142387170D01*
X76050845Y-142574819D01*
X75997437Y-142802955D01*
X75988333Y-143028400D01*
X76016653Y-143345173D01*
X76111454Y-143509648D01*
X76287497Y-143530161D01*
X76559540Y-143415046D01*
X76616000Y-143382821D01*
X76898319Y-143244081D01*
X77074472Y-143217457D01*
X77136131Y-143302547D01*
X77114766Y-143406878D01*
X77008153Y-143606056D01*
X76810424Y-143830737D01*
X76497453Y-144107053D01*
X76382897Y-144199614D01*
X76016827Y-144437021D01*
X75708463Y-144522135D01*
X75462682Y-144454092D01*
X75377714Y-144377833D01*
X75259647Y-144134666D01*
X75198899Y-143769959D01*
X75191246Y-143319925D01*
X75232468Y-142820778D01*
X75318341Y-142308731D01*
X75444642Y-141819999D01*
X75511609Y-141643128D01*
X76242333Y-141643128D01*
X76305551Y-141721921D01*
X76460372Y-141718937D01*
X76654546Y-141641730D01*
X76762120Y-141567971D01*
X76894707Y-141429211D01*
X76897751Y-141307003D01*
X76868258Y-141250471D01*
X76710459Y-141093056D01*
X76544200Y-141100620D01*
X76389379Y-141271201D01*
X76374230Y-141299197D01*
X76283669Y-141498729D01*
X76242557Y-141637502D01*
X76242333Y-141643128D01*
X75511609Y-141643128D01*
X75607148Y-141390794D01*
X75757764Y-141118493D01*
X75994278Y-140871217D01*
X76321281Y-140654776D01*
X76671788Y-140506519D01*
X76935149Y-140462000D01*
X77243217Y-140529077D01*
G37*
X77243217Y-140529077D02*
X77455140Y-140733455D01*
X77557403Y-140991783D01*
X77566470Y-141222020D01*
X77462765Y-141441456D01*
X77231046Y-141668894D01*
X76856072Y-141923138D01*
X76752561Y-141984698D01*
X76401198Y-142202849D01*
X76176362Y-142387170D01*
X76050845Y-142574819D01*
X75997437Y-142802955D01*
X75988333Y-143028400D01*
X76016653Y-143345173D01*
X76111454Y-143509648D01*
X76287497Y-143530161D01*
X76559540Y-143415046D01*
X76616000Y-143382821D01*
X76898319Y-143244081D01*
X77074472Y-143217457D01*
X77136131Y-143302547D01*
X77114766Y-143406878D01*
X77008153Y-143606056D01*
X76810424Y-143830737D01*
X76497453Y-144107053D01*
X76382897Y-144199614D01*
X76016827Y-144437021D01*
X75708463Y-144522135D01*
X75462682Y-144454092D01*
X75377714Y-144377833D01*
X75259647Y-144134666D01*
X75198899Y-143769959D01*
X75191246Y-143319925D01*
X75232468Y-142820778D01*
X75318341Y-142308731D01*
X75444642Y-141819999D01*
X75511609Y-141643128D01*
X76242333Y-141643128D01*
X76305551Y-141721921D01*
X76460372Y-141718937D01*
X76654546Y-141641730D01*
X76762120Y-141567971D01*
X76894707Y-141429211D01*
X76897751Y-141307003D01*
X76868258Y-141250471D01*
X76710459Y-141093056D01*
X76544200Y-141100620D01*
X76389379Y-141271201D01*
X76374230Y-141299197D01*
X76283669Y-141498729D01*
X76242557Y-141637502D01*
X76242333Y-141643128D01*
X75511609Y-141643128D01*
X75607148Y-141390794D01*
X75757764Y-141118493D01*
X75994278Y-140871217D01*
X76321281Y-140654776D01*
X76671788Y-140506519D01*
X76935149Y-140462000D01*
X77243217Y-140529077D01*
G36*
X69030550Y-140529077D02*
G01*
X69242473Y-140733455D01*
X69344736Y-140991783D01*
X69353804Y-141222020D01*
X69250099Y-141441456D01*
X69018380Y-141668894D01*
X68643405Y-141923138D01*
X68539894Y-141984698D01*
X68188532Y-142202849D01*
X67963696Y-142387170D01*
X67838178Y-142574819D01*
X67784771Y-142802955D01*
X67775666Y-143028400D01*
X67803987Y-143345173D01*
X67898788Y-143509648D01*
X68074830Y-143530161D01*
X68346874Y-143415046D01*
X68403333Y-143382821D01*
X68685652Y-143244081D01*
X68861806Y-143217457D01*
X68923464Y-143302547D01*
X68902099Y-143406878D01*
X68795486Y-143606056D01*
X68597757Y-143830737D01*
X68284786Y-144107053D01*
X68170230Y-144199614D01*
X67804160Y-144437021D01*
X67495797Y-144522135D01*
X67250015Y-144454092D01*
X67165048Y-144377833D01*
X67046980Y-144134666D01*
X66986232Y-143769959D01*
X66978580Y-143319925D01*
X67019801Y-142820778D01*
X67105674Y-142308731D01*
X67231975Y-141819999D01*
X67298942Y-141643128D01*
X68029666Y-141643128D01*
X68092884Y-141721921D01*
X68247705Y-141718937D01*
X68441879Y-141641730D01*
X68549453Y-141567971D01*
X68682040Y-141429211D01*
X68685084Y-141307003D01*
X68655591Y-141250471D01*
X68497793Y-141093056D01*
X68331533Y-141100620D01*
X68176712Y-141271201D01*
X68161563Y-141299197D01*
X68071002Y-141498729D01*
X68029890Y-141637502D01*
X68029666Y-141643128D01*
X67298942Y-141643128D01*
X67394482Y-141390794D01*
X67545097Y-141118493D01*
X67781612Y-140871217D01*
X68108614Y-140654776D01*
X68459121Y-140506519D01*
X68722482Y-140462000D01*
X69030550Y-140529077D01*
G37*
X69030550Y-140529077D02*
X69242473Y-140733455D01*
X69344736Y-140991783D01*
X69353804Y-141222020D01*
X69250099Y-141441456D01*
X69018380Y-141668894D01*
X68643405Y-141923138D01*
X68539894Y-141984698D01*
X68188532Y-142202849D01*
X67963696Y-142387170D01*
X67838178Y-142574819D01*
X67784771Y-142802955D01*
X67775666Y-143028400D01*
X67803987Y-143345173D01*
X67898788Y-143509648D01*
X68074830Y-143530161D01*
X68346874Y-143415046D01*
X68403333Y-143382821D01*
X68685652Y-143244081D01*
X68861806Y-143217457D01*
X68923464Y-143302547D01*
X68902099Y-143406878D01*
X68795486Y-143606056D01*
X68597757Y-143830737D01*
X68284786Y-144107053D01*
X68170230Y-144199614D01*
X67804160Y-144437021D01*
X67495797Y-144522135D01*
X67250015Y-144454092D01*
X67165048Y-144377833D01*
X67046980Y-144134666D01*
X66986232Y-143769959D01*
X66978580Y-143319925D01*
X67019801Y-142820778D01*
X67105674Y-142308731D01*
X67231975Y-141819999D01*
X67298942Y-141643128D01*
X68029666Y-141643128D01*
X68092884Y-141721921D01*
X68247705Y-141718937D01*
X68441879Y-141641730D01*
X68549453Y-141567971D01*
X68682040Y-141429211D01*
X68685084Y-141307003D01*
X68655591Y-141250471D01*
X68497793Y-141093056D01*
X68331533Y-141100620D01*
X68176712Y-141271201D01*
X68161563Y-141299197D01*
X68071002Y-141498729D01*
X68029890Y-141637502D01*
X68029666Y-141643128D01*
X67298942Y-141643128D01*
X67394482Y-141390794D01*
X67545097Y-141118493D01*
X67781612Y-140871217D01*
X68108614Y-140654776D01*
X68459121Y-140506519D01*
X68722482Y-140462000D01*
X69030550Y-140529077D01*
G36*
X45831884Y-140529077D02*
G01*
X46043807Y-140733455D01*
X46146070Y-140991783D01*
X46155137Y-141222020D01*
X46051432Y-141441456D01*
X45819713Y-141668894D01*
X45444739Y-141923138D01*
X45341228Y-141984698D01*
X44989865Y-142202849D01*
X44765029Y-142387170D01*
X44639511Y-142574819D01*
X44586104Y-142802955D01*
X44577000Y-143028400D01*
X44605320Y-143345173D01*
X44700121Y-143509648D01*
X44876163Y-143530161D01*
X45148207Y-143415046D01*
X45204667Y-143382821D01*
X45486986Y-143244081D01*
X45663139Y-143217457D01*
X45724797Y-143302547D01*
X45703432Y-143406878D01*
X45596819Y-143606056D01*
X45399090Y-143830737D01*
X45086119Y-144107053D01*
X44971563Y-144199614D01*
X44605493Y-144437021D01*
X44297130Y-144522135D01*
X44051348Y-144454092D01*
X43966381Y-144377833D01*
X43848314Y-144134666D01*
X43787565Y-143769959D01*
X43779913Y-143319925D01*
X43821135Y-142820778D01*
X43907007Y-142308731D01*
X44033308Y-141819999D01*
X44100275Y-141643128D01*
X44831000Y-141643128D01*
X44894217Y-141721921D01*
X45049038Y-141718937D01*
X45243212Y-141641730D01*
X45350786Y-141567971D01*
X45483373Y-141429211D01*
X45486417Y-141307003D01*
X45456925Y-141250471D01*
X45299126Y-141093056D01*
X45132866Y-141100620D01*
X44978046Y-141271201D01*
X44962896Y-141299197D01*
X44872335Y-141498729D01*
X44831224Y-141637502D01*
X44831000Y-141643128D01*
X44100275Y-141643128D01*
X44195815Y-141390794D01*
X44346431Y-141118493D01*
X44582945Y-140871217D01*
X44909947Y-140654776D01*
X45260454Y-140506519D01*
X45523816Y-140462000D01*
X45831884Y-140529077D01*
G37*
X45831884Y-140529077D02*
X46043807Y-140733455D01*
X46146070Y-140991783D01*
X46155137Y-141222020D01*
X46051432Y-141441456D01*
X45819713Y-141668894D01*
X45444739Y-141923138D01*
X45341228Y-141984698D01*
X44989865Y-142202849D01*
X44765029Y-142387170D01*
X44639511Y-142574819D01*
X44586104Y-142802955D01*
X44577000Y-143028400D01*
X44605320Y-143345173D01*
X44700121Y-143509648D01*
X44876163Y-143530161D01*
X45148207Y-143415046D01*
X45204667Y-143382821D01*
X45486986Y-143244081D01*
X45663139Y-143217457D01*
X45724797Y-143302547D01*
X45703432Y-143406878D01*
X45596819Y-143606056D01*
X45399090Y-143830737D01*
X45086119Y-144107053D01*
X44971563Y-144199614D01*
X44605493Y-144437021D01*
X44297130Y-144522135D01*
X44051348Y-144454092D01*
X43966381Y-144377833D01*
X43848314Y-144134666D01*
X43787565Y-143769959D01*
X43779913Y-143319925D01*
X43821135Y-142820778D01*
X43907007Y-142308731D01*
X44033308Y-141819999D01*
X44100275Y-141643128D01*
X44831000Y-141643128D01*
X44894217Y-141721921D01*
X45049038Y-141718937D01*
X45243212Y-141641730D01*
X45350786Y-141567971D01*
X45483373Y-141429211D01*
X45486417Y-141307003D01*
X45456925Y-141250471D01*
X45299126Y-141093056D01*
X45132866Y-141100620D01*
X44978046Y-141271201D01*
X44962896Y-141299197D01*
X44872335Y-141498729D01*
X44831224Y-141637502D01*
X44831000Y-141643128D01*
X44100275Y-141643128D01*
X44195815Y-141390794D01*
X44346431Y-141118493D01*
X44582945Y-140871217D01*
X44909947Y-140654776D01*
X45260454Y-140506519D01*
X45523816Y-140462000D01*
X45831884Y-140529077D01*
G36*
X41477938Y-139772680D02*
G01*
X41936779Y-139829645D01*
X42294120Y-139933789D01*
X42582668Y-140094430D01*
X42820166Y-140305028D01*
X43071444Y-140661076D01*
X43153575Y-141024449D01*
X43066601Y-141396153D01*
X42878308Y-141696409D01*
X42728546Y-141894765D01*
X42677140Y-142009741D01*
X42712518Y-142086758D01*
X42767490Y-142131384D01*
X42915194Y-142219292D01*
X42982341Y-142240000D01*
X43083386Y-142315817D01*
X43183181Y-142509648D01*
X43263160Y-142771060D01*
X43304757Y-143049621D01*
X43307000Y-143121922D01*
X43246215Y-143590531D01*
X43057787Y-143954029D01*
X42732610Y-144228232D01*
X42640894Y-144278613D01*
X42458023Y-144362962D01*
X42273913Y-144420629D01*
X42049886Y-144457112D01*
X41747266Y-144477910D01*
X41327377Y-144488518D01*
X41148000Y-144490815D01*
X40719285Y-144492502D01*
X40340763Y-144488348D01*
X40050640Y-144479163D01*
X39887125Y-144465754D01*
X39878000Y-144463940D01*
X39664381Y-144374730D01*
X39599434Y-144226967D01*
X39621294Y-144111189D01*
X39719406Y-143976158D01*
X39924473Y-143932360D01*
X39947205Y-143932036D01*
X40165533Y-143912727D01*
X40309691Y-143868536D01*
X40361454Y-143770454D01*
X40410302Y-143541906D01*
X40431146Y-143378700D01*
X41190333Y-143378700D01*
X41232817Y-143703161D01*
X41364978Y-143885425D01*
X41593878Y-143930193D01*
X41901107Y-143852047D01*
X42227402Y-143660499D01*
X42410463Y-143382055D01*
X42460333Y-143054700D01*
X42437691Y-142808019D01*
X42380886Y-142631803D01*
X42354500Y-142598810D01*
X42149302Y-142501297D01*
X41869903Y-142440619D01*
X41610302Y-142434044D01*
X41537979Y-142448816D01*
X41379253Y-142581589D01*
X41261135Y-142844457D01*
X41197498Y-143200306D01*
X41190333Y-143378700D01*
X40431146Y-143378700D01*
X40457294Y-143173969D01*
X40503491Y-142657718D01*
X40549954Y-141984231D01*
X40566693Y-141705965D01*
X40582640Y-141285021D01*
X41275000Y-141285021D01*
X41298985Y-141680762D01*
X41375747Y-141926529D01*
X41512491Y-142035434D01*
X41684123Y-142029489D01*
X41916660Y-141927932D01*
X42100500Y-141795631D01*
X42261986Y-141540043D01*
X42279607Y-141235253D01*
X42154472Y-140919553D01*
X42071807Y-140807162D01*
X41834180Y-140601432D01*
X41618512Y-140554663D01*
X41441988Y-140656551D01*
X41321788Y-140896790D01*
X41275097Y-141265075D01*
X41275000Y-141285021D01*
X40582640Y-141285021D01*
X40583504Y-141262228D01*
X40561754Y-140950015D01*
X40484398Y-140732887D01*
X40334395Y-140574409D01*
X40094700Y-140438142D01*
X39941500Y-140369370D01*
X39690650Y-140241017D01*
X39598454Y-140127996D01*
X39658481Y-140007943D01*
X39805392Y-139895979D01*
X39954672Y-139824204D01*
X40161500Y-139779845D01*
X40463284Y-139757969D01*
X40884892Y-139753575D01*
X41477938Y-139772680D01*
G37*
X41477938Y-139772680D02*
X41936779Y-139829645D01*
X42294120Y-139933789D01*
X42582668Y-140094430D01*
X42820166Y-140305028D01*
X43071444Y-140661076D01*
X43153575Y-141024449D01*
X43066601Y-141396153D01*
X42878308Y-141696409D01*
X42728546Y-141894765D01*
X42677140Y-142009741D01*
X42712518Y-142086758D01*
X42767490Y-142131384D01*
X42915194Y-142219292D01*
X42982341Y-142240000D01*
X43083386Y-142315817D01*
X43183181Y-142509648D01*
X43263160Y-142771060D01*
X43304757Y-143049621D01*
X43307000Y-143121922D01*
X43246215Y-143590531D01*
X43057787Y-143954029D01*
X42732610Y-144228232D01*
X42640894Y-144278613D01*
X42458023Y-144362962D01*
X42273913Y-144420629D01*
X42049886Y-144457112D01*
X41747266Y-144477910D01*
X41327377Y-144488518D01*
X41148000Y-144490815D01*
X40719285Y-144492502D01*
X40340763Y-144488348D01*
X40050640Y-144479163D01*
X39887125Y-144465754D01*
X39878000Y-144463940D01*
X39664381Y-144374730D01*
X39599434Y-144226967D01*
X39621294Y-144111189D01*
X39719406Y-143976158D01*
X39924473Y-143932360D01*
X39947205Y-143932036D01*
X40165533Y-143912727D01*
X40309691Y-143868536D01*
X40361454Y-143770454D01*
X40410302Y-143541906D01*
X40431146Y-143378700D01*
X41190333Y-143378700D01*
X41232817Y-143703161D01*
X41364978Y-143885425D01*
X41593878Y-143930193D01*
X41901107Y-143852047D01*
X42227402Y-143660499D01*
X42410463Y-143382055D01*
X42460333Y-143054700D01*
X42437691Y-142808019D01*
X42380886Y-142631803D01*
X42354500Y-142598810D01*
X42149302Y-142501297D01*
X41869903Y-142440619D01*
X41610302Y-142434044D01*
X41537979Y-142448816D01*
X41379253Y-142581589D01*
X41261135Y-142844457D01*
X41197498Y-143200306D01*
X41190333Y-143378700D01*
X40431146Y-143378700D01*
X40457294Y-143173969D01*
X40503491Y-142657718D01*
X40549954Y-141984231D01*
X40566693Y-141705965D01*
X40582640Y-141285021D01*
X41275000Y-141285021D01*
X41298985Y-141680762D01*
X41375747Y-141926529D01*
X41512491Y-142035434D01*
X41684123Y-142029489D01*
X41916660Y-141927932D01*
X42100500Y-141795631D01*
X42261986Y-141540043D01*
X42279607Y-141235253D01*
X42154472Y-140919553D01*
X42071807Y-140807162D01*
X41834180Y-140601432D01*
X41618512Y-140554663D01*
X41441988Y-140656551D01*
X41321788Y-140896790D01*
X41275097Y-141265075D01*
X41275000Y-141285021D01*
X40582640Y-141285021D01*
X40583504Y-141262228D01*
X40561754Y-140950015D01*
X40484398Y-140732887D01*
X40334395Y-140574409D01*
X40094700Y-140438142D01*
X39941500Y-140369370D01*
X39690650Y-140241017D01*
X39598454Y-140127996D01*
X39658481Y-140007943D01*
X39805392Y-139895979D01*
X39954672Y-139824204D01*
X40161500Y-139779845D01*
X40463284Y-139757969D01*
X40884892Y-139753575D01*
X41477938Y-139772680D01*
G36*
X71419309Y-140486772D02*
G01*
X71645069Y-140546614D01*
X71751642Y-140630587D01*
X71755000Y-140649304D01*
X71800367Y-140768947D01*
X71911190Y-140951187D01*
X71927119Y-140973913D01*
X72019528Y-141130361D01*
X72062541Y-141300726D01*
X72064206Y-141541221D01*
X72044133Y-141791316D01*
X72002307Y-142112552D01*
X71933369Y-142404200D01*
X71821555Y-142708873D01*
X71651101Y-143069187D01*
X71406244Y-143527755D01*
X71392700Y-143552333D01*
X71113969Y-143960387D01*
X70787931Y-144281656D01*
X70442643Y-144498188D01*
X70106163Y-144592032D01*
X69827051Y-144553999D01*
X69663855Y-144400045D01*
X69543274Y-144094290D01*
X69469330Y-143649808D01*
X69449161Y-143326272D01*
X69442888Y-142987674D01*
X69988963Y-142987674D01*
X70018608Y-143140817D01*
X70087080Y-143298610D01*
X70188114Y-143487600D01*
X70263638Y-143589129D01*
X70275336Y-143594666D01*
X70372703Y-143559417D01*
X70564004Y-143470389D01*
X70664837Y-143419974D01*
X70975553Y-143170733D01*
X71216748Y-142788342D01*
X71371918Y-142300468D01*
X71389062Y-142205912D01*
X71384006Y-141937498D01*
X71302690Y-141677718D01*
X71170166Y-141478982D01*
X71011484Y-141393701D01*
X71000677Y-141393333D01*
X70819761Y-141465906D01*
X70607216Y-141658506D01*
X70393077Y-141933453D01*
X70207376Y-142253064D01*
X70094977Y-142529629D01*
X70014195Y-142805773D01*
X69988963Y-142987674D01*
X69442888Y-142987674D01*
X69442852Y-142985760D01*
X69458695Y-142731863D01*
X69510227Y-142505296D01*
X69610986Y-142246775D01*
X69774510Y-141897017D01*
X69776461Y-141892955D01*
X70067784Y-141362215D01*
X70374831Y-140939711D01*
X70682444Y-140641621D01*
X70975468Y-140484126D01*
X71115889Y-140463156D01*
X71419309Y-140486772D01*
G37*
X71419309Y-140486772D02*
X71645069Y-140546614D01*
X71751642Y-140630587D01*
X71755000Y-140649304D01*
X71800367Y-140768947D01*
X71911190Y-140951187D01*
X71927119Y-140973913D01*
X72019528Y-141130361D01*
X72062541Y-141300726D01*
X72064206Y-141541221D01*
X72044133Y-141791316D01*
X72002307Y-142112552D01*
X71933369Y-142404200D01*
X71821555Y-142708873D01*
X71651101Y-143069187D01*
X71406244Y-143527755D01*
X71392700Y-143552333D01*
X71113969Y-143960387D01*
X70787931Y-144281656D01*
X70442643Y-144498188D01*
X70106163Y-144592032D01*
X69827051Y-144553999D01*
X69663855Y-144400045D01*
X69543274Y-144094290D01*
X69469330Y-143649808D01*
X69449161Y-143326272D01*
X69442888Y-142987674D01*
X69988963Y-142987674D01*
X70018608Y-143140817D01*
X70087080Y-143298610D01*
X70188114Y-143487600D01*
X70263638Y-143589129D01*
X70275336Y-143594666D01*
X70372703Y-143559417D01*
X70564004Y-143470389D01*
X70664837Y-143419974D01*
X70975553Y-143170733D01*
X71216748Y-142788342D01*
X71371918Y-142300468D01*
X71389062Y-142205912D01*
X71384006Y-141937498D01*
X71302690Y-141677718D01*
X71170166Y-141478982D01*
X71011484Y-141393701D01*
X71000677Y-141393333D01*
X70819761Y-141465906D01*
X70607216Y-141658506D01*
X70393077Y-141933453D01*
X70207376Y-142253064D01*
X70094977Y-142529629D01*
X70014195Y-142805773D01*
X69988963Y-142987674D01*
X69442888Y-142987674D01*
X69442852Y-142985760D01*
X69458695Y-142731863D01*
X69510227Y-142505296D01*
X69610986Y-142246775D01*
X69774510Y-141897017D01*
X69776461Y-141892955D01*
X70067784Y-141362215D01*
X70374831Y-140939711D01*
X70682444Y-140641621D01*
X70975468Y-140484126D01*
X71115889Y-140463156D01*
X71419309Y-140486772D01*
G36*
X63288147Y-139657179D02*
G01*
X63344685Y-139905862D01*
X63369894Y-140230836D01*
X63364997Y-140573406D01*
X63331214Y-140874879D01*
X63269767Y-141076562D01*
X63258243Y-141094574D01*
X63110926Y-141208848D01*
X62970646Y-141168818D01*
X62859490Y-140988843D01*
X62813619Y-140805505D01*
X62751029Y-140544609D01*
X62642156Y-140386952D01*
X62452162Y-140312100D01*
X62146208Y-140299622D01*
X61966327Y-140308598D01*
X61699816Y-140328924D01*
X61501424Y-140366092D01*
X61361445Y-140442425D01*
X61270174Y-140580245D01*
X61217904Y-140801874D01*
X61194929Y-141129634D01*
X61191544Y-141585846D01*
X61196666Y-142078688D01*
X61205199Y-142641300D01*
X61221519Y-143059263D01*
X61255169Y-143357250D01*
X61315695Y-143559935D01*
X61412638Y-143691993D01*
X61555543Y-143778098D01*
X61753954Y-143842924D01*
X61893082Y-143879184D01*
X62228127Y-144002412D01*
X62407725Y-144158509D01*
X62426517Y-144341623D01*
X62388423Y-144420166D01*
X62233059Y-144531668D01*
X62007856Y-144545420D01*
X61723219Y-144530036D01*
X61344293Y-144519893D01*
X60906985Y-144514770D01*
X60447207Y-144514449D01*
X60000866Y-144518710D01*
X59603873Y-144527335D01*
X59292137Y-144540105D01*
X59101567Y-144556801D01*
X59070738Y-144563338D01*
X58924596Y-144578468D01*
X58885666Y-144535689D01*
X58950189Y-144302415D01*
X59105959Y-144073828D01*
X59268461Y-143947920D01*
X59488335Y-143870605D01*
X59755097Y-143804473D01*
X59769419Y-143801731D01*
X59992369Y-143728054D01*
X60138881Y-143622447D01*
X60149550Y-143605980D01*
X60177975Y-143477789D01*
X60209157Y-143212009D01*
X60240313Y-142840295D01*
X60268657Y-142394299D01*
X60284739Y-142068567D01*
X60308750Y-141506831D01*
X60316635Y-141092554D01*
X60296562Y-140803916D01*
X60236696Y-140619098D01*
X60125202Y-140516281D01*
X59950247Y-140473644D01*
X59699995Y-140469367D01*
X59422859Y-140479460D01*
X58758666Y-140504333D01*
X58566533Y-140906500D01*
X58404959Y-141166921D01*
X58241530Y-141300720D01*
X58098911Y-141298049D01*
X58000798Y-141152350D01*
X57996402Y-141006261D01*
X58023190Y-140749645D01*
X58071739Y-140436367D01*
X58132628Y-140120294D01*
X58196436Y-139855290D01*
X58253740Y-139695223D01*
X58256476Y-139690599D01*
X58379248Y-139624199D01*
X58552762Y-139628681D01*
X58674000Y-139700000D01*
X58775497Y-139728198D01*
X59033973Y-139751258D01*
X59437133Y-139768677D01*
X59972686Y-139779951D01*
X60628339Y-139784577D01*
X60741912Y-139784666D01*
X61379889Y-139783942D01*
X61870895Y-139780603D01*
X62237287Y-139772897D01*
X62501427Y-139759073D01*
X62685672Y-139737379D01*
X62812383Y-139706065D01*
X62903917Y-139663379D01*
X62980396Y-139609334D01*
X63203295Y-139434001D01*
X63288147Y-139657179D01*
G37*
X63288147Y-139657179D02*
X63344685Y-139905862D01*
X63369894Y-140230836D01*
X63364997Y-140573406D01*
X63331214Y-140874879D01*
X63269767Y-141076562D01*
X63258243Y-141094574D01*
X63110926Y-141208848D01*
X62970646Y-141168818D01*
X62859490Y-140988843D01*
X62813619Y-140805505D01*
X62751029Y-140544609D01*
X62642156Y-140386952D01*
X62452162Y-140312100D01*
X62146208Y-140299622D01*
X61966327Y-140308598D01*
X61699816Y-140328924D01*
X61501424Y-140366092D01*
X61361445Y-140442425D01*
X61270174Y-140580245D01*
X61217904Y-140801874D01*
X61194929Y-141129634D01*
X61191544Y-141585846D01*
X61196666Y-142078688D01*
X61205199Y-142641300D01*
X61221519Y-143059263D01*
X61255169Y-143357250D01*
X61315695Y-143559935D01*
X61412638Y-143691993D01*
X61555543Y-143778098D01*
X61753954Y-143842924D01*
X61893082Y-143879184D01*
X62228127Y-144002412D01*
X62407725Y-144158509D01*
X62426517Y-144341623D01*
X62388423Y-144420166D01*
X62233059Y-144531668D01*
X62007856Y-144545420D01*
X61723219Y-144530036D01*
X61344293Y-144519893D01*
X60906985Y-144514770D01*
X60447207Y-144514449D01*
X60000866Y-144518710D01*
X59603873Y-144527335D01*
X59292137Y-144540105D01*
X59101567Y-144556801D01*
X59070738Y-144563338D01*
X58924596Y-144578468D01*
X58885666Y-144535689D01*
X58950189Y-144302415D01*
X59105959Y-144073828D01*
X59268461Y-143947920D01*
X59488335Y-143870605D01*
X59755097Y-143804473D01*
X59769419Y-143801731D01*
X59992369Y-143728054D01*
X60138881Y-143622447D01*
X60149550Y-143605980D01*
X60177975Y-143477789D01*
X60209157Y-143212009D01*
X60240313Y-142840295D01*
X60268657Y-142394299D01*
X60284739Y-142068567D01*
X60308750Y-141506831D01*
X60316635Y-141092554D01*
X60296562Y-140803916D01*
X60236696Y-140619098D01*
X60125202Y-140516281D01*
X59950247Y-140473644D01*
X59699995Y-140469367D01*
X59422859Y-140479460D01*
X58758666Y-140504333D01*
X58566533Y-140906500D01*
X58404959Y-141166921D01*
X58241530Y-141300720D01*
X58098911Y-141298049D01*
X58000798Y-141152350D01*
X57996402Y-141006261D01*
X58023190Y-140749645D01*
X58071739Y-140436367D01*
X58132628Y-140120294D01*
X58196436Y-139855290D01*
X58253740Y-139695223D01*
X58256476Y-139690599D01*
X58379248Y-139624199D01*
X58552762Y-139628681D01*
X58674000Y-139700000D01*
X58775497Y-139728198D01*
X59033973Y-139751258D01*
X59437133Y-139768677D01*
X59972686Y-139779951D01*
X60628339Y-139784577D01*
X60741912Y-139784666D01*
X61379889Y-139783942D01*
X61870895Y-139780603D01*
X62237287Y-139772897D01*
X62501427Y-139759073D01*
X62685672Y-139737379D01*
X62812383Y-139706065D01*
X62903917Y-139663379D01*
X62980396Y-139609334D01*
X63203295Y-139434001D01*
X63288147Y-139657179D01*
G36*
X55774092Y-140393174D02*
G01*
X55929653Y-140452248D01*
X56008489Y-140549450D01*
X56047556Y-140661651D01*
X55996790Y-140745691D01*
X55826258Y-140837558D01*
X55736302Y-140876704D01*
X55482848Y-140982118D01*
X55275552Y-141064061D01*
X55223100Y-141083211D01*
X55076331Y-141195582D01*
X54979836Y-141341688D01*
X54940227Y-141478638D01*
X54957331Y-141637203D01*
X55041433Y-141863895D01*
X55144167Y-142084898D01*
X55375675Y-142646845D01*
X55482395Y-143112090D01*
X55466009Y-143460584D01*
X55329268Y-143745870D01*
X55084389Y-144037997D01*
X54780926Y-144282109D01*
X54662849Y-144349716D01*
X54435471Y-144432508D01*
X54130332Y-144502357D01*
X53792431Y-144554326D01*
X53466762Y-144583479D01*
X53198322Y-144584879D01*
X53032108Y-144553590D01*
X53004811Y-144531628D01*
X52983474Y-144343113D01*
X53108082Y-144104663D01*
X53347463Y-143853471D01*
X53534402Y-143698682D01*
X53660808Y-143643501D01*
X53790985Y-143673127D01*
X53899476Y-143726394D01*
X54216140Y-143828583D01*
X54468176Y-143775194D01*
X54644962Y-143582374D01*
X54708277Y-143445314D01*
X54713498Y-143317663D01*
X54651380Y-143145938D01*
X54527878Y-142905041D01*
X54361949Y-142592772D01*
X54199547Y-142284152D01*
X54120136Y-142131601D01*
X53954766Y-141811536D01*
X54160406Y-141411934D01*
X54312590Y-141164847D01*
X54472789Y-140977619D01*
X54549011Y-140921111D01*
X54731809Y-140789076D01*
X54909966Y-140603611D01*
X55052000Y-140460854D01*
X55225350Y-140394055D01*
X55497747Y-140377335D01*
X55502166Y-140377333D01*
X55774092Y-140393174D01*
G37*
X55774092Y-140393174D02*
X55929653Y-140452248D01*
X56008489Y-140549450D01*
X56047556Y-140661651D01*
X55996790Y-140745691D01*
X55826258Y-140837558D01*
X55736302Y-140876704D01*
X55482848Y-140982118D01*
X55275552Y-141064061D01*
X55223100Y-141083211D01*
X55076331Y-141195582D01*
X54979836Y-141341688D01*
X54940227Y-141478638D01*
X54957331Y-141637203D01*
X55041433Y-141863895D01*
X55144167Y-142084898D01*
X55375675Y-142646845D01*
X55482395Y-143112090D01*
X55466009Y-143460584D01*
X55329268Y-143745870D01*
X55084389Y-144037997D01*
X54780926Y-144282109D01*
X54662849Y-144349716D01*
X54435471Y-144432508D01*
X54130332Y-144502357D01*
X53792431Y-144554326D01*
X53466762Y-144583479D01*
X53198322Y-144584879D01*
X53032108Y-144553590D01*
X53004811Y-144531628D01*
X52983474Y-144343113D01*
X53108082Y-144104663D01*
X53347463Y-143853471D01*
X53534402Y-143698682D01*
X53660808Y-143643501D01*
X53790985Y-143673127D01*
X53899476Y-143726394D01*
X54216140Y-143828583D01*
X54468176Y-143775194D01*
X54644962Y-143582374D01*
X54708277Y-143445314D01*
X54713498Y-143317663D01*
X54651380Y-143145938D01*
X54527878Y-142905041D01*
X54361949Y-142592772D01*
X54199547Y-142284152D01*
X54120136Y-142131601D01*
X53954766Y-141811536D01*
X54160406Y-141411934D01*
X54312590Y-141164847D01*
X54472789Y-140977619D01*
X54549011Y-140921111D01*
X54731809Y-140789076D01*
X54909966Y-140603611D01*
X55052000Y-140460854D01*
X55225350Y-140394055D01*
X55497747Y-140377335D01*
X55502166Y-140377333D01*
X55774092Y-140393174D01*
G36*
X73585676Y-140446026D02*
G01*
X73710451Y-140536215D01*
X73838891Y-140681950D01*
X73898135Y-140885134D01*
X73910331Y-141107715D01*
X73935851Y-141386798D01*
X74007740Y-141507689D01*
X74128536Y-141469956D01*
X74300782Y-141273167D01*
X74470459Y-141012333D01*
X74727605Y-140661508D01*
X74973626Y-140479368D01*
X75208341Y-140466006D01*
X75358453Y-140550915D01*
X75459141Y-140732878D01*
X75470056Y-140992995D01*
X75395459Y-141268599D01*
X75298497Y-141432331D01*
X75135035Y-141592330D01*
X74961756Y-141628037D01*
X74878827Y-141615932D01*
X74688094Y-141613254D01*
X74509279Y-141710606D01*
X74383301Y-141826057D01*
X74205988Y-142043711D01*
X74087017Y-142262845D01*
X74072393Y-142310041D01*
X73995761Y-142539041D01*
X73878414Y-142801001D01*
X73861968Y-142832666D01*
X73775282Y-143062694D01*
X73692531Y-143394396D01*
X73630132Y-143760575D01*
X73624856Y-143803098D01*
X73563706Y-144202368D01*
X73489495Y-144455743D01*
X73395794Y-144586265D01*
X73162036Y-144684456D01*
X72935028Y-144666100D01*
X72776771Y-144536650D01*
X72773978Y-144531566D01*
X72712505Y-144379008D01*
X72695477Y-144205186D01*
X72727444Y-143975215D01*
X72812953Y-143654214D01*
X72940333Y-143256000D01*
X73088986Y-142740014D01*
X73173123Y-142293403D01*
X73192213Y-141936181D01*
X73145731Y-141688363D01*
X73033146Y-141569963D01*
X72985026Y-141562666D01*
X72848219Y-141611535D01*
X72666614Y-141729347D01*
X72663230Y-141732000D01*
X72486380Y-141850293D01*
X72357670Y-141901288D01*
X72355478Y-141901333D01*
X72267341Y-141842115D01*
X72272203Y-141692842D01*
X72357781Y-141496084D01*
X72511792Y-141294411D01*
X72538166Y-141268159D01*
X72774323Y-141020540D01*
X73008321Y-140744281D01*
X73049776Y-140690647D01*
X73244696Y-140468874D01*
X73409398Y-140390590D01*
X73585676Y-140446026D01*
G37*
X73585676Y-140446026D02*
X73710451Y-140536215D01*
X73838891Y-140681950D01*
X73898135Y-140885134D01*
X73910331Y-141107715D01*
X73935851Y-141386798D01*
X74007740Y-141507689D01*
X74128536Y-141469956D01*
X74300782Y-141273167D01*
X74470459Y-141012333D01*
X74727605Y-140661508D01*
X74973626Y-140479368D01*
X75208341Y-140466006D01*
X75358453Y-140550915D01*
X75459141Y-140732878D01*
X75470056Y-140992995D01*
X75395459Y-141268599D01*
X75298497Y-141432331D01*
X75135035Y-141592330D01*
X74961756Y-141628037D01*
X74878827Y-141615932D01*
X74688094Y-141613254D01*
X74509279Y-141710606D01*
X74383301Y-141826057D01*
X74205988Y-142043711D01*
X74087017Y-142262845D01*
X74072393Y-142310041D01*
X73995761Y-142539041D01*
X73878414Y-142801001D01*
X73861968Y-142832666D01*
X73775282Y-143062694D01*
X73692531Y-143394396D01*
X73630132Y-143760575D01*
X73624856Y-143803098D01*
X73563706Y-144202368D01*
X73489495Y-144455743D01*
X73395794Y-144586265D01*
X73162036Y-144684456D01*
X72935028Y-144666100D01*
X72776771Y-144536650D01*
X72773978Y-144531566D01*
X72712505Y-144379008D01*
X72695477Y-144205186D01*
X72727444Y-143975215D01*
X72812953Y-143654214D01*
X72940333Y-143256000D01*
X73088986Y-142740014D01*
X73173123Y-142293403D01*
X73192213Y-141936181D01*
X73145731Y-141688363D01*
X73033146Y-141569963D01*
X72985026Y-141562666D01*
X72848219Y-141611535D01*
X72666614Y-141729347D01*
X72663230Y-141732000D01*
X72486380Y-141850293D01*
X72357670Y-141901288D01*
X72355478Y-141901333D01*
X72267341Y-141842115D01*
X72272203Y-141692842D01*
X72357781Y-141496084D01*
X72511792Y-141294411D01*
X72538166Y-141268159D01*
X72774323Y-141020540D01*
X73008321Y-140744281D01*
X73049776Y-140690647D01*
X73244696Y-140468874D01*
X73409398Y-140390590D01*
X73585676Y-140446026D01*
G36*
X66701237Y-136889727D02*
G01*
X66862367Y-137114228D01*
X66885790Y-137158305D01*
X66976754Y-137355386D01*
X66995217Y-137505168D01*
X66927588Y-137657206D01*
X66760277Y-137861053D01*
X66664216Y-137966225D01*
X66400251Y-138215872D01*
X66184633Y-138331865D01*
X66087390Y-138345333D01*
X65844877Y-138399617D01*
X65637507Y-138571856D01*
X65455955Y-138876131D01*
X65290899Y-139326525D01*
X65188300Y-139703267D01*
X65047665Y-140306894D01*
X64954449Y-140787350D01*
X64909990Y-141134758D01*
X64915629Y-141339237D01*
X64959081Y-141393333D01*
X65061299Y-141343588D01*
X65256559Y-141211501D01*
X65507532Y-141022790D01*
X65579448Y-140965911D01*
X65908250Y-140722569D01*
X66149125Y-140592788D01*
X66326515Y-140563452D01*
X66329111Y-140563744D01*
X66504281Y-140616519D01*
X66626555Y-140741470D01*
X66702050Y-140960322D01*
X66736881Y-141294797D01*
X66737162Y-141766618D01*
X66729501Y-141986000D01*
X66706872Y-142428888D01*
X66676079Y-142748559D01*
X66628040Y-142991124D01*
X66553673Y-143202697D01*
X66446013Y-143425333D01*
X66212592Y-143856098D01*
X65996558Y-144224383D01*
X65819285Y-144494675D01*
X65745349Y-144589500D01*
X65596514Y-144660087D01*
X65357883Y-144690794D01*
X65104840Y-144679019D01*
X64912769Y-144622157D01*
X64906707Y-144618457D01*
X64824271Y-144478992D01*
X64875338Y-144265550D01*
X65051779Y-143996968D01*
X65280251Y-143752667D01*
X65631689Y-143341875D01*
X65892355Y-142882596D01*
X66040947Y-142420181D01*
X66065042Y-142081809D01*
X66012535Y-141770025D01*
X65901570Y-141616162D01*
X65723394Y-141616270D01*
X65469252Y-141766396D01*
X65431417Y-141795743D01*
X65045305Y-142208828D01*
X64757853Y-142756357D01*
X64571543Y-143433406D01*
X64553812Y-143537367D01*
X64452942Y-144013069D01*
X64327705Y-144332444D01*
X64180435Y-144491600D01*
X64013461Y-144486648D01*
X63992137Y-144474796D01*
X63906863Y-144385992D01*
X63853153Y-144221562D01*
X63821573Y-143943955D01*
X63811314Y-143755129D01*
X63809420Y-143484068D01*
X63829057Y-143178893D01*
X63873915Y-142816573D01*
X63947682Y-142374078D01*
X64054044Y-141828376D01*
X64196690Y-141156438D01*
X64308332Y-140651284D01*
X64362130Y-140319953D01*
X64388993Y-139977474D01*
X64389660Y-139931618D01*
X64418741Y-139579367D01*
X64495100Y-139155424D01*
X64604055Y-138717537D01*
X64730923Y-138323452D01*
X64861021Y-138030920D01*
X64881642Y-137996634D01*
X65028865Y-137743464D01*
X65147859Y-137502325D01*
X65158220Y-137477500D01*
X65256706Y-137311148D01*
X65355913Y-137244666D01*
X65480294Y-137206550D01*
X65701154Y-137107240D01*
X65937158Y-136986007D01*
X66272221Y-136831717D01*
X66515718Y-136797590D01*
X66701237Y-136889727D01*
G37*
X66701237Y-136889727D02*
X66862367Y-137114228D01*
X66885790Y-137158305D01*
X66976754Y-137355386D01*
X66995217Y-137505168D01*
X66927588Y-137657206D01*
X66760277Y-137861053D01*
X66664216Y-137966225D01*
X66400251Y-138215872D01*
X66184633Y-138331865D01*
X66087390Y-138345333D01*
X65844877Y-138399617D01*
X65637507Y-138571856D01*
X65455955Y-138876131D01*
X65290899Y-139326525D01*
X65188300Y-139703267D01*
X65047665Y-140306894D01*
X64954449Y-140787350D01*
X64909990Y-141134758D01*
X64915629Y-141339237D01*
X64959081Y-141393333D01*
X65061299Y-141343588D01*
X65256559Y-141211501D01*
X65507532Y-141022790D01*
X65579448Y-140965911D01*
X65908250Y-140722569D01*
X66149125Y-140592788D01*
X66326515Y-140563452D01*
X66329111Y-140563744D01*
X66504281Y-140616519D01*
X66626555Y-140741470D01*
X66702050Y-140960322D01*
X66736881Y-141294797D01*
X66737162Y-141766618D01*
X66729501Y-141986000D01*
X66706872Y-142428888D01*
X66676079Y-142748559D01*
X66628040Y-142991124D01*
X66553673Y-143202697D01*
X66446013Y-143425333D01*
X66212592Y-143856098D01*
X65996558Y-144224383D01*
X65819285Y-144494675D01*
X65745349Y-144589500D01*
X65596514Y-144660087D01*
X65357883Y-144690794D01*
X65104840Y-144679019D01*
X64912769Y-144622157D01*
X64906707Y-144618457D01*
X64824271Y-144478992D01*
X64875338Y-144265550D01*
X65051779Y-143996968D01*
X65280251Y-143752667D01*
X65631689Y-143341875D01*
X65892355Y-142882596D01*
X66040947Y-142420181D01*
X66065042Y-142081809D01*
X66012535Y-141770025D01*
X65901570Y-141616162D01*
X65723394Y-141616270D01*
X65469252Y-141766396D01*
X65431417Y-141795743D01*
X65045305Y-142208828D01*
X64757853Y-142756357D01*
X64571543Y-143433406D01*
X64553812Y-143537367D01*
X64452942Y-144013069D01*
X64327705Y-144332444D01*
X64180435Y-144491600D01*
X64013461Y-144486648D01*
X63992137Y-144474796D01*
X63906863Y-144385992D01*
X63853153Y-144221562D01*
X63821573Y-143943955D01*
X63811314Y-143755129D01*
X63809420Y-143484068D01*
X63829057Y-143178893D01*
X63873915Y-142816573D01*
X63947682Y-142374078D01*
X64054044Y-141828376D01*
X64196690Y-141156438D01*
X64308332Y-140651284D01*
X64362130Y-140319953D01*
X64388993Y-139977474D01*
X64389660Y-139931618D01*
X64418741Y-139579367D01*
X64495100Y-139155424D01*
X64604055Y-138717537D01*
X64730923Y-138323452D01*
X64861021Y-138030920D01*
X64881642Y-137996634D01*
X65028865Y-137743464D01*
X65147859Y-137502325D01*
X65158220Y-137477500D01*
X65256706Y-137311148D01*
X65355913Y-137244666D01*
X65480294Y-137206550D01*
X65701154Y-137107240D01*
X65937158Y-136986007D01*
X66272221Y-136831717D01*
X66515718Y-136797590D01*
X66701237Y-136889727D01*
G36*
X51812036Y-137085440D02*
G01*
X51989162Y-137123934D01*
X52087271Y-137203071D01*
X52109354Y-137239100D01*
X52193019Y-137556422D01*
X52108044Y-137881684D01*
X51934229Y-138130720D01*
X51745144Y-138319808D01*
X51565820Y-138406976D01*
X51312862Y-138429799D01*
X51270018Y-138430000D01*
X50942868Y-138463424D01*
X50743247Y-138569185D01*
X50731072Y-138581941D01*
X50609207Y-138785751D01*
X50480687Y-139116469D01*
X50357521Y-139532703D01*
X50251720Y-139993059D01*
X50175295Y-140456145D01*
X50166672Y-140527068D01*
X50119322Y-140910702D01*
X50056318Y-141382973D01*
X49988290Y-141865236D01*
X49958891Y-142064412D01*
X49884392Y-142591203D01*
X49842424Y-142973216D01*
X49832160Y-143231692D01*
X49852775Y-143387869D01*
X49903444Y-143462987D01*
X49904487Y-143463641D01*
X49999510Y-143433922D01*
X50184792Y-143312760D01*
X50426107Y-143123506D01*
X50517697Y-143045305D01*
X50775774Y-142830697D01*
X50994074Y-142668172D01*
X51135865Y-142584450D01*
X51159210Y-142578666D01*
X51257038Y-142633829D01*
X51238331Y-142789688D01*
X51110714Y-143031799D01*
X50881816Y-143345717D01*
X50559264Y-143716998D01*
X50556642Y-143719821D01*
X50359330Y-143941662D01*
X50218622Y-144117978D01*
X50165000Y-144210549D01*
X50094725Y-144278546D01*
X49917625Y-144384228D01*
X49684284Y-144502864D01*
X49445286Y-144609721D01*
X49251214Y-144680068D01*
X49175163Y-144694506D01*
X49051680Y-144650063D01*
X49036530Y-144631833D01*
X49029242Y-144525534D01*
X49037270Y-144275680D01*
X49058622Y-143907164D01*
X49091303Y-143444877D01*
X49133324Y-142913711D01*
X49182690Y-142338558D01*
X49237410Y-141744310D01*
X49295492Y-141155858D01*
X49354943Y-140598096D01*
X49370284Y-140462000D01*
X49445822Y-139844429D01*
X49519282Y-139362567D01*
X49599488Y-138983136D01*
X49695264Y-138672862D01*
X49815433Y-138398470D01*
X49968821Y-138126686D01*
X50004974Y-138068581D01*
X50287962Y-137651045D01*
X50541202Y-137366367D01*
X50800184Y-137191145D01*
X51100397Y-137101973D01*
X51477329Y-137075449D01*
X51511121Y-137075333D01*
X51812036Y-137085440D01*
G37*
X51812036Y-137085440D02*
X51989162Y-137123934D01*
X52087271Y-137203071D01*
X52109354Y-137239100D01*
X52193019Y-137556422D01*
X52108044Y-137881684D01*
X51934229Y-138130720D01*
X51745144Y-138319808D01*
X51565820Y-138406976D01*
X51312862Y-138429799D01*
X51270018Y-138430000D01*
X50942868Y-138463424D01*
X50743247Y-138569185D01*
X50731072Y-138581941D01*
X50609207Y-138785751D01*
X50480687Y-139116469D01*
X50357521Y-139532703D01*
X50251720Y-139993059D01*
X50175295Y-140456145D01*
X50166672Y-140527068D01*
X50119322Y-140910702D01*
X50056318Y-141382973D01*
X49988290Y-141865236D01*
X49958891Y-142064412D01*
X49884392Y-142591203D01*
X49842424Y-142973216D01*
X49832160Y-143231692D01*
X49852775Y-143387869D01*
X49903444Y-143462987D01*
X49904487Y-143463641D01*
X49999510Y-143433922D01*
X50184792Y-143312760D01*
X50426107Y-143123506D01*
X50517697Y-143045305D01*
X50775774Y-142830697D01*
X50994074Y-142668172D01*
X51135865Y-142584450D01*
X51159210Y-142578666D01*
X51257038Y-142633829D01*
X51238331Y-142789688D01*
X51110714Y-143031799D01*
X50881816Y-143345717D01*
X50559264Y-143716998D01*
X50556642Y-143719821D01*
X50359330Y-143941662D01*
X50218622Y-144117978D01*
X50165000Y-144210549D01*
X50094725Y-144278546D01*
X49917625Y-144384228D01*
X49684284Y-144502864D01*
X49445286Y-144609721D01*
X49251214Y-144680068D01*
X49175163Y-144694506D01*
X49051680Y-144650063D01*
X49036530Y-144631833D01*
X49029242Y-144525534D01*
X49037270Y-144275680D01*
X49058622Y-143907164D01*
X49091303Y-143444877D01*
X49133324Y-142913711D01*
X49182690Y-142338558D01*
X49237410Y-141744310D01*
X49295492Y-141155858D01*
X49354943Y-140598096D01*
X49370284Y-140462000D01*
X49445822Y-139844429D01*
X49519282Y-139362567D01*
X49599488Y-138983136D01*
X49695264Y-138672862D01*
X49815433Y-138398470D01*
X49968821Y-138126686D01*
X50004974Y-138068581D01*
X50287962Y-137651045D01*
X50541202Y-137366367D01*
X50800184Y-137191145D01*
X51100397Y-137101973D01*
X51477329Y-137075449D01*
X51511121Y-137075333D01*
X51812036Y-137085440D01*
G36*
X49272036Y-137085440D02*
G01*
X49449162Y-137123934D01*
X49547271Y-137203071D01*
X49569354Y-137239100D01*
X49653019Y-137556422D01*
X49568044Y-137881684D01*
X49394229Y-138130720D01*
X49205144Y-138319808D01*
X49025820Y-138406976D01*
X48772862Y-138429799D01*
X48730018Y-138430000D01*
X48402868Y-138463424D01*
X48203247Y-138569185D01*
X48191072Y-138581941D01*
X48069207Y-138785751D01*
X47940687Y-139116469D01*
X47817521Y-139532703D01*
X47711720Y-139993059D01*
X47635295Y-140456145D01*
X47626672Y-140527068D01*
X47579322Y-140910702D01*
X47516318Y-141382973D01*
X47448290Y-141865236D01*
X47418891Y-142064412D01*
X47344392Y-142591203D01*
X47302424Y-142973216D01*
X47292160Y-143231692D01*
X47312775Y-143387869D01*
X47363444Y-143462987D01*
X47364487Y-143463641D01*
X47459510Y-143433922D01*
X47644792Y-143312760D01*
X47886107Y-143123506D01*
X47977697Y-143045305D01*
X48235774Y-142830697D01*
X48454074Y-142668172D01*
X48595865Y-142584450D01*
X48619210Y-142578666D01*
X48717038Y-142633829D01*
X48698331Y-142789688D01*
X48570714Y-143031799D01*
X48341816Y-143345717D01*
X48019264Y-143716998D01*
X48016642Y-143719821D01*
X47819330Y-143941662D01*
X47678622Y-144117978D01*
X47625000Y-144210549D01*
X47554725Y-144278546D01*
X47377625Y-144384228D01*
X47144284Y-144502864D01*
X46905286Y-144609721D01*
X46711214Y-144680068D01*
X46635163Y-144694506D01*
X46511680Y-144650063D01*
X46496530Y-144631833D01*
X46489242Y-144525534D01*
X46497270Y-144275680D01*
X46518622Y-143907164D01*
X46551303Y-143444877D01*
X46593324Y-142913711D01*
X46642690Y-142338558D01*
X46697410Y-141744310D01*
X46755492Y-141155858D01*
X46814943Y-140598096D01*
X46830284Y-140462000D01*
X46905822Y-139844429D01*
X46979282Y-139362567D01*
X47059488Y-138983136D01*
X47155264Y-138672862D01*
X47275433Y-138398470D01*
X47428821Y-138126686D01*
X47464974Y-138068581D01*
X47747962Y-137651045D01*
X48001202Y-137366367D01*
X48260184Y-137191145D01*
X48560397Y-137101973D01*
X48937329Y-137075449D01*
X48971121Y-137075333D01*
X49272036Y-137085440D01*
G37*
X49272036Y-137085440D02*
X49449162Y-137123934D01*
X49547271Y-137203071D01*
X49569354Y-137239100D01*
X49653019Y-137556422D01*
X49568044Y-137881684D01*
X49394229Y-138130720D01*
X49205144Y-138319808D01*
X49025820Y-138406976D01*
X48772862Y-138429799D01*
X48730018Y-138430000D01*
X48402868Y-138463424D01*
X48203247Y-138569185D01*
X48191072Y-138581941D01*
X48069207Y-138785751D01*
X47940687Y-139116469D01*
X47817521Y-139532703D01*
X47711720Y-139993059D01*
X47635295Y-140456145D01*
X47626672Y-140527068D01*
X47579322Y-140910702D01*
X47516318Y-141382973D01*
X47448290Y-141865236D01*
X47418891Y-142064412D01*
X47344392Y-142591203D01*
X47302424Y-142973216D01*
X47292160Y-143231692D01*
X47312775Y-143387869D01*
X47363444Y-143462987D01*
X47364487Y-143463641D01*
X47459510Y-143433922D01*
X47644792Y-143312760D01*
X47886107Y-143123506D01*
X47977697Y-143045305D01*
X48235774Y-142830697D01*
X48454074Y-142668172D01*
X48595865Y-142584450D01*
X48619210Y-142578666D01*
X48717038Y-142633829D01*
X48698331Y-142789688D01*
X48570714Y-143031799D01*
X48341816Y-143345717D01*
X48019264Y-143716998D01*
X48016642Y-143719821D01*
X47819330Y-143941662D01*
X47678622Y-144117978D01*
X47625000Y-144210549D01*
X47554725Y-144278546D01*
X47377625Y-144384228D01*
X47144284Y-144502864D01*
X46905286Y-144609721D01*
X46711214Y-144680068D01*
X46635163Y-144694506D01*
X46511680Y-144650063D01*
X46496530Y-144631833D01*
X46489242Y-144525534D01*
X46497270Y-144275680D01*
X46518622Y-143907164D01*
X46551303Y-143444877D01*
X46593324Y-142913711D01*
X46642690Y-142338558D01*
X46697410Y-141744310D01*
X46755492Y-141155858D01*
X46814943Y-140598096D01*
X46830284Y-140462000D01*
X46905822Y-139844429D01*
X46979282Y-139362567D01*
X47059488Y-138983136D01*
X47155264Y-138672862D01*
X47275433Y-138398470D01*
X47428821Y-138126686D01*
X47464974Y-138068581D01*
X47747962Y-137651045D01*
X48001202Y-137366367D01*
X48260184Y-137191145D01*
X48560397Y-137101973D01*
X48937329Y-137075449D01*
X48971121Y-137075333D01*
X49272036Y-137085440D01*
G36*
X80732513Y-140624211D02*
G01*
X80888996Y-140831944D01*
X80974500Y-141132511D01*
X80983666Y-141279753D01*
X80983666Y-141674173D01*
X81526671Y-141152753D01*
X81835617Y-140869457D01*
X82058605Y-140703655D01*
X82219943Y-140644331D01*
X82343938Y-140680468D01*
X82415866Y-140749737D01*
X82464670Y-140921522D01*
X82452049Y-141228167D01*
X82381355Y-141648078D01*
X82255938Y-142159660D01*
X82132433Y-142576443D01*
X81999353Y-143040356D01*
X81928631Y-143387337D01*
X81922025Y-143604592D01*
X81980827Y-143679333D01*
X82092654Y-143635236D01*
X82236403Y-143546428D01*
X82429174Y-143455702D01*
X82569711Y-143441171D01*
X82604125Y-143487558D01*
X82542798Y-143605491D01*
X82375855Y-143808761D01*
X82093424Y-144111162D01*
X82080652Y-144124409D01*
X81756934Y-144448386D01*
X81518421Y-144653942D01*
X81342814Y-144753486D01*
X81207817Y-144759429D01*
X81091130Y-144684180D01*
X81085266Y-144678400D01*
X81000621Y-144486020D01*
X80993827Y-144184686D01*
X81061524Y-143814031D01*
X81190580Y-143436624D01*
X81340964Y-143017289D01*
X81431706Y-142631954D01*
X81462576Y-142305730D01*
X81433346Y-142063728D01*
X81343786Y-141931058D01*
X81204362Y-141928486D01*
X81048243Y-142049783D01*
X80884030Y-142302716D01*
X80706429Y-142697948D01*
X80510149Y-143246140D01*
X80436071Y-143476076D01*
X80279599Y-143949954D01*
X80149387Y-144278257D01*
X80031753Y-144479963D01*
X79913013Y-144574053D01*
X79779483Y-144579504D01*
X79668826Y-144540263D01*
X79511987Y-144408892D01*
X79463412Y-144194834D01*
X79522064Y-143879324D01*
X79617432Y-143610362D01*
X79791185Y-143104654D01*
X79959021Y-142486608D01*
X80030317Y-142177553D01*
X80016465Y-141999627D01*
X79901675Y-141926860D01*
X79724909Y-141969011D01*
X79590230Y-142067319D01*
X79391687Y-142311601D01*
X79176787Y-142669507D01*
X78971530Y-143090709D01*
X78801918Y-143524881D01*
X78747985Y-143697521D01*
X78611140Y-144070677D01*
X78445026Y-144362048D01*
X78269593Y-144545151D01*
X78104794Y-144593504D01*
X78078531Y-144586136D01*
X77937053Y-144464417D01*
X77883181Y-144233649D01*
X77916642Y-143882015D01*
X78037164Y-143397697D01*
X78050108Y-143354362D01*
X78220497Y-142768299D01*
X78333807Y-142325178D01*
X78392928Y-142009582D01*
X78400749Y-141806092D01*
X78360279Y-141699413D01*
X78229546Y-141657546D01*
X78104035Y-141712953D01*
X77916068Y-141795565D01*
X77748346Y-141817182D01*
X77649859Y-141779010D01*
X77656292Y-141701933D01*
X77762181Y-141578760D01*
X77956831Y-141397137D01*
X78205844Y-141184515D01*
X78474819Y-140968345D01*
X78729356Y-140776080D01*
X78935056Y-140635171D01*
X79057519Y-140573069D01*
X79070944Y-140573020D01*
X79121089Y-140671186D01*
X79153548Y-140903483D01*
X79163333Y-141187150D01*
X79178172Y-141539243D01*
X79229347Y-141744461D01*
X79326845Y-141802799D01*
X79480654Y-141714252D01*
X79700761Y-141478815D01*
X79929751Y-141186750D01*
X80150641Y-140908758D01*
X80345279Y-140691725D01*
X80485325Y-140565960D01*
X80528258Y-140546666D01*
X80732513Y-140624211D01*
G37*
X80732513Y-140624211D02*
X80888996Y-140831944D01*
X80974500Y-141132511D01*
X80983666Y-141279753D01*
X80983666Y-141674173D01*
X81526671Y-141152753D01*
X81835617Y-140869457D01*
X82058605Y-140703655D01*
X82219943Y-140644331D01*
X82343938Y-140680468D01*
X82415866Y-140749737D01*
X82464670Y-140921522D01*
X82452049Y-141228167D01*
X82381355Y-141648078D01*
X82255938Y-142159660D01*
X82132433Y-142576443D01*
X81999353Y-143040356D01*
X81928631Y-143387337D01*
X81922025Y-143604592D01*
X81980827Y-143679333D01*
X82092654Y-143635236D01*
X82236403Y-143546428D01*
X82429174Y-143455702D01*
X82569711Y-143441171D01*
X82604125Y-143487558D01*
X82542798Y-143605491D01*
X82375855Y-143808761D01*
X82093424Y-144111162D01*
X82080652Y-144124409D01*
X81756934Y-144448386D01*
X81518421Y-144653942D01*
X81342814Y-144753486D01*
X81207817Y-144759429D01*
X81091130Y-144684180D01*
X81085266Y-144678400D01*
X81000621Y-144486020D01*
X80993827Y-144184686D01*
X81061524Y-143814031D01*
X81190580Y-143436624D01*
X81340964Y-143017289D01*
X81431706Y-142631954D01*
X81462576Y-142305730D01*
X81433346Y-142063728D01*
X81343786Y-141931058D01*
X81204362Y-141928486D01*
X81048243Y-142049783D01*
X80884030Y-142302716D01*
X80706429Y-142697948D01*
X80510149Y-143246140D01*
X80436071Y-143476076D01*
X80279599Y-143949954D01*
X80149387Y-144278257D01*
X80031753Y-144479963D01*
X79913013Y-144574053D01*
X79779483Y-144579504D01*
X79668826Y-144540263D01*
X79511987Y-144408892D01*
X79463412Y-144194834D01*
X79522064Y-143879324D01*
X79617432Y-143610362D01*
X79791185Y-143104654D01*
X79959021Y-142486608D01*
X80030317Y-142177553D01*
X80016465Y-141999627D01*
X79901675Y-141926860D01*
X79724909Y-141969011D01*
X79590230Y-142067319D01*
X79391687Y-142311601D01*
X79176787Y-142669507D01*
X78971530Y-143090709D01*
X78801918Y-143524881D01*
X78747985Y-143697521D01*
X78611140Y-144070677D01*
X78445026Y-144362048D01*
X78269593Y-144545151D01*
X78104794Y-144593504D01*
X78078531Y-144586136D01*
X77937053Y-144464417D01*
X77883181Y-144233649D01*
X77916642Y-143882015D01*
X78037164Y-143397697D01*
X78050108Y-143354362D01*
X78220497Y-142768299D01*
X78333807Y-142325178D01*
X78392928Y-142009582D01*
X78400749Y-141806092D01*
X78360279Y-141699413D01*
X78229546Y-141657546D01*
X78104035Y-141712953D01*
X77916068Y-141795565D01*
X77748346Y-141817182D01*
X77649859Y-141779010D01*
X77656292Y-141701933D01*
X77762181Y-141578760D01*
X77956831Y-141397137D01*
X78205844Y-141184515D01*
X78474819Y-140968345D01*
X78729356Y-140776080D01*
X78935056Y-140635171D01*
X79057519Y-140573069D01*
X79070944Y-140573020D01*
X79121089Y-140671186D01*
X79153548Y-140903483D01*
X79163333Y-141187150D01*
X79178172Y-141539243D01*
X79229347Y-141744461D01*
X79326845Y-141802799D01*
X79480654Y-141714252D01*
X79700761Y-141478815D01*
X79929751Y-141186750D01*
X80150641Y-140908758D01*
X80345279Y-140691725D01*
X80485325Y-140565960D01*
X80528258Y-140546666D01*
X80732513Y-140624211D01*
G36*
X68774733Y-17958073D02*
G01*
X70784071Y-18416308D01*
X72674888Y-18935862D01*
X74491566Y-19531846D01*
X76278490Y-20219370D01*
X78080044Y-21013543D01*
X78892400Y-21402421D01*
X81179466Y-22615005D01*
X83374615Y-23965353D01*
X85472550Y-25446751D01*
X87467972Y-27052484D01*
X89355585Y-28775840D01*
X91130092Y-30610104D01*
X92786195Y-32548563D01*
X94318597Y-34584502D01*
X95722002Y-36711208D01*
X96991112Y-38921966D01*
X98120629Y-41210064D01*
X99105258Y-43568787D01*
X99939700Y-45991421D01*
X100618658Y-48471252D01*
X100770728Y-49132066D01*
X100881920Y-49634853D01*
X100978475Y-50078530D01*
X101061426Y-50478813D01*
X101131804Y-50851416D01*
X101190642Y-51212055D01*
X101238972Y-51576445D01*
X101277826Y-51960302D01*
X101308238Y-52379339D01*
X101331239Y-52849272D01*
X101347861Y-53385817D01*
X101359137Y-54004688D01*
X101366099Y-54721600D01*
X101369780Y-55552268D01*
X101371211Y-56512409D01*
X101371426Y-57617736D01*
X101371400Y-58276066D01*
X101371412Y-59465764D01*
X101370762Y-60501843D01*
X101368416Y-61400020D01*
X101363343Y-62176009D01*
X101354509Y-62845526D01*
X101340884Y-63424285D01*
X101321434Y-63928001D01*
X101295126Y-64372391D01*
X101260930Y-64773167D01*
X101217812Y-65146047D01*
X101164740Y-65506745D01*
X101100681Y-65870976D01*
X101024604Y-66254455D01*
X100935477Y-66672896D01*
X100832266Y-67142017D01*
X100770728Y-67420066D01*
X100133614Y-69912819D01*
X99338576Y-72352542D01*
X98390631Y-74732294D01*
X97294795Y-77045134D01*
X96056086Y-79284121D01*
X94679520Y-81442315D01*
X93170113Y-83512775D01*
X91532883Y-85488560D01*
X89772845Y-87362730D01*
X87895017Y-89128343D01*
X85904414Y-90778459D01*
X83806055Y-92306138D01*
X81900416Y-93527998D01*
X81175703Y-93947711D01*
X80339966Y-94402959D01*
X79436710Y-94872028D01*
X78509439Y-95333202D01*
X77601658Y-95764767D01*
X76756871Y-96145008D01*
X76132821Y-96406831D01*
X73740844Y-97278232D01*
X71275848Y-98003669D01*
X68758416Y-98578288D01*
X66209133Y-98997235D01*
X64245066Y-99210047D01*
X63849222Y-99234124D01*
X63313770Y-99253310D01*
X62668362Y-99267642D01*
X61942652Y-99277155D01*
X61166292Y-99281884D01*
X60368936Y-99281867D01*
X59580237Y-99277138D01*
X58829848Y-99267734D01*
X58147421Y-99253691D01*
X57562611Y-99235044D01*
X57105070Y-99211830D01*
X56963733Y-99201222D01*
X54821411Y-98954392D01*
X52634380Y-98581725D01*
X50457250Y-98094532D01*
X48344631Y-97504126D01*
X47573644Y-97256242D01*
X45557772Y-96518288D01*
X43536827Y-95653222D01*
X41701366Y-94754771D01*
X45348806Y-94754771D01*
X45407553Y-94797968D01*
X45601849Y-94886973D01*
X45907092Y-95012592D01*
X46298678Y-95165630D01*
X46752007Y-95336893D01*
X47242474Y-95517185D01*
X47745478Y-95697313D01*
X48236416Y-95868081D01*
X48690685Y-96020296D01*
X48996050Y-96117845D01*
X51252275Y-96749236D01*
X53549729Y-97258565D01*
X55844162Y-97637069D01*
X57725733Y-97846556D01*
X58218618Y-97878286D01*
X58840713Y-97902221D01*
X59553525Y-97918302D01*
X60318560Y-97926470D01*
X61097325Y-97926667D01*
X61851327Y-97918832D01*
X62542071Y-97902908D01*
X63131064Y-97878834D01*
X63483066Y-97855380D01*
X66006024Y-97565274D01*
X68506523Y-97122491D01*
X70962562Y-96532093D01*
X73352141Y-95799147D01*
X74935944Y-95218738D01*
X75366286Y-95047261D01*
X75732373Y-94896134D01*
X76009036Y-94776180D01*
X76171108Y-94698220D01*
X76202624Y-94674069D01*
X76107459Y-94669655D01*
X75898625Y-94694671D01*
X75709937Y-94727208D01*
X74721072Y-94879777D01*
X73606518Y-94988250D01*
X72404026Y-95052814D01*
X71151349Y-95073658D01*
X69886238Y-95050967D01*
X68646443Y-94984930D01*
X67469718Y-94875734D01*
X66393813Y-94723565D01*
X66150066Y-94679783D01*
X65761691Y-94598066D01*
X76394733Y-94598066D01*
X76437066Y-94640400D01*
X76479400Y-94598066D01*
X76437066Y-94555733D01*
X76394733Y-94598066D01*
X65761691Y-94598066D01*
X65264098Y-94493369D01*
X64329252Y-94261634D01*
X63389688Y-93997650D01*
X62489570Y-93714489D01*
X61673057Y-93425225D01*
X61035478Y-93165750D01*
X60562066Y-92956384D01*
X60088654Y-93165750D01*
X59074030Y-93569866D01*
X57931546Y-93946521D01*
X56701792Y-94285553D01*
X55425357Y-94576799D01*
X54142829Y-94810097D01*
X52894797Y-94975285D01*
X52837799Y-94981189D01*
X52367127Y-95015911D01*
X51772070Y-95039099D01*
X51084210Y-95051321D01*
X50335125Y-95053147D01*
X49556397Y-95045146D01*
X48779605Y-95027886D01*
X48036331Y-95001936D01*
X47358155Y-94967866D01*
X46776656Y-94926243D01*
X46323416Y-94877638D01*
X46218164Y-94861941D01*
X45862671Y-94807175D01*
X45575487Y-94769023D01*
X45393512Y-94752034D01*
X45348806Y-94754771D01*
X41701366Y-94754771D01*
X41549462Y-94680415D01*
X39634330Y-93619238D01*
X37830081Y-92489062D01*
X37194066Y-92054286D01*
X36533338Y-91578018D01*
X35814771Y-91036725D01*
X35066544Y-90453386D01*
X34316837Y-89850981D01*
X33593828Y-89252491D01*
X32925699Y-88680895D01*
X32340628Y-88159173D01*
X31866794Y-87710305D01*
X31865047Y-87708574D01*
X30705653Y-86499829D01*
X29535440Y-85165623D01*
X28384719Y-83744759D01*
X27283801Y-82276039D01*
X26262998Y-80798265D01*
X25407868Y-79442733D01*
X24155138Y-77189088D01*
X23044269Y-74844203D01*
X22076389Y-72411008D01*
X21252627Y-69892433D01*
X20574110Y-67291409D01*
X20371073Y-66361733D01*
X20133733Y-65218733D01*
X20133733Y-58289612D01*
X21056932Y-58289612D01*
X21063665Y-59230650D01*
X21083492Y-60137341D01*
X21116411Y-60975824D01*
X21162424Y-61712236D01*
X21219656Y-62297733D01*
X21574972Y-64692195D01*
X22035845Y-66977458D01*
X22609932Y-69182485D01*
X23304886Y-71336239D01*
X24128362Y-73467684D01*
X24244767Y-73743503D01*
X24411716Y-74130400D01*
X24554592Y-74452193D01*
X24660905Y-74681458D01*
X24718165Y-74790768D01*
X24724082Y-74795939D01*
X24719354Y-74708861D01*
X24687651Y-74496531D01*
X24635278Y-74199728D01*
X24616962Y-74102835D01*
X24438449Y-72956989D01*
X24314337Y-71691978D01*
X24244598Y-70348985D01*
X24229200Y-68969192D01*
X24231928Y-68872743D01*
X25604922Y-68872743D01*
X25659478Y-70788331D01*
X25871531Y-72704562D01*
X26238488Y-74609378D01*
X26757754Y-76490719D01*
X27426734Y-78336527D01*
X28242833Y-80134741D01*
X29203458Y-81873304D01*
X29786809Y-82791235D01*
X30290308Y-83527963D01*
X30756151Y-84163667D01*
X31222502Y-84744909D01*
X31727525Y-85318247D01*
X32309386Y-85930243D01*
X32604096Y-86228289D01*
X33486496Y-87087903D01*
X34307280Y-87833268D01*
X35098377Y-88491282D01*
X35891719Y-89088842D01*
X36491300Y-89502794D01*
X38244588Y-90570150D01*
X40077562Y-91489583D01*
X41982756Y-92258353D01*
X43952706Y-92873720D01*
X45979944Y-93332944D01*
X47608066Y-93582435D01*
X48272575Y-93642843D01*
X49052180Y-93680493D01*
X49894177Y-93695357D01*
X50745862Y-93687411D01*
X51554530Y-93656627D01*
X52267477Y-93602979D01*
X52434585Y-93584823D01*
X54004317Y-93357823D01*
X55496930Y-93049166D01*
X56991182Y-92641419D01*
X57670412Y-92425813D01*
X58715758Y-92080923D01*
X62408374Y-92080923D01*
X63453720Y-92425813D01*
X65296798Y-92961405D01*
X67142982Y-93355555D01*
X68974582Y-93606209D01*
X70773909Y-93711313D01*
X72523275Y-93668811D01*
X73431918Y-93584823D01*
X75443739Y-93268669D01*
X77410608Y-92800912D01*
X79322270Y-92187005D01*
X81168470Y-91432403D01*
X82938956Y-90542559D01*
X84623472Y-89522930D01*
X86211765Y-88378968D01*
X87693580Y-87116128D01*
X89058662Y-85739865D01*
X89807022Y-84874604D01*
X91011307Y-83282520D01*
X92080306Y-81610507D01*
X93010914Y-79870069D01*
X93800028Y-78072709D01*
X94444542Y-76229930D01*
X94941354Y-74353236D01*
X95287358Y-72454130D01*
X95479451Y-70544114D01*
X95514528Y-68634693D01*
X95389486Y-66737370D01*
X95145449Y-65091733D01*
X95034417Y-64554128D01*
X94893025Y-63949470D01*
X94729652Y-63306799D01*
X94552676Y-62655154D01*
X94370474Y-62023574D01*
X94191425Y-61441100D01*
X94023907Y-60936769D01*
X93876297Y-60539622D01*
X93756972Y-60278698D01*
X93756793Y-60278378D01*
X93688923Y-60267117D01*
X93572166Y-60400549D01*
X93414999Y-60659253D01*
X92882136Y-61535199D01*
X92236018Y-62472299D01*
X91503321Y-63436353D01*
X90710723Y-64393160D01*
X89884900Y-65308522D01*
X89393923Y-65814256D01*
X87845711Y-67245579D01*
X86208495Y-68533182D01*
X84485685Y-69675240D01*
X82680691Y-70669926D01*
X80796923Y-71515412D01*
X78837792Y-72209872D01*
X76806707Y-72751480D01*
X76204345Y-72879769D01*
X75914919Y-72950527D01*
X75754760Y-73029172D01*
X75684331Y-73136918D01*
X75677876Y-73162212D01*
X75645608Y-73326420D01*
X75593335Y-73607571D01*
X75530269Y-73955814D01*
X75503018Y-74108733D01*
X75073157Y-76053113D01*
X74483705Y-77957598D01*
X73741762Y-79812090D01*
X72854429Y-81606489D01*
X71828806Y-83330697D01*
X70671993Y-84974614D01*
X69391091Y-86528142D01*
X67993200Y-87981182D01*
X66485420Y-89323635D01*
X64874851Y-90545401D01*
X63187518Y-91625329D01*
X62408374Y-92080923D01*
X58715758Y-92080923D01*
X57936615Y-91625329D01*
X56231354Y-90532880D01*
X54621858Y-89309756D01*
X53115227Y-87966054D01*
X51718562Y-86511874D01*
X50438963Y-84957315D01*
X49283530Y-83312477D01*
X48259363Y-81587456D01*
X47373563Y-79792354D01*
X46633230Y-77937268D01*
X46045465Y-76032298D01*
X45621114Y-74108733D01*
X45556269Y-73747256D01*
X45498384Y-73432117D01*
X45486463Y-73369545D01*
X46967479Y-73369545D01*
X46970711Y-73416587D01*
X46973217Y-73428792D01*
X47432588Y-75337436D01*
X47978615Y-77118245D01*
X48620581Y-78794011D01*
X49367767Y-80387519D01*
X50229454Y-81921560D01*
X50790175Y-82800271D01*
X51893251Y-84338962D01*
X53061871Y-85736065D01*
X54318089Y-87013643D01*
X55683957Y-88193762D01*
X57181530Y-89298487D01*
X57499045Y-89512495D01*
X57831903Y-89726613D01*
X58228439Y-89970730D01*
X58662148Y-90229753D01*
X59106521Y-90488586D01*
X59535053Y-90732137D01*
X59921237Y-90945311D01*
X60238565Y-91113014D01*
X60460530Y-91220152D01*
X60554383Y-91252325D01*
X60638061Y-91215778D01*
X60842471Y-91114784D01*
X61138608Y-90963970D01*
X61497471Y-90777967D01*
X61570383Y-90739839D01*
X62703954Y-90096441D01*
X63866262Y-89344727D01*
X65012029Y-88517884D01*
X66095981Y-87649096D01*
X67072843Y-86771550D01*
X67335893Y-86513901D01*
X68563228Y-85175271D01*
X69710406Y-83703686D01*
X70763421Y-82122068D01*
X71708265Y-80453341D01*
X72530928Y-78720428D01*
X73217404Y-76946252D01*
X73261302Y-76817233D01*
X73417724Y-76319008D01*
X73593208Y-75703055D01*
X73774998Y-75017964D01*
X73950337Y-74312322D01*
X74106468Y-73634719D01*
X74150915Y-73428792D01*
X74157567Y-73379203D01*
X74142148Y-73340499D01*
X74086757Y-73311656D01*
X73973495Y-73291648D01*
X73784462Y-73279452D01*
X73501756Y-73274041D01*
X73107479Y-73274391D01*
X72583729Y-73279477D01*
X71912607Y-73288273D01*
X71738777Y-73290668D01*
X70744717Y-73299012D01*
X69886718Y-73293031D01*
X69131951Y-73270672D01*
X68447588Y-73229877D01*
X67800802Y-73168590D01*
X67158764Y-73084755D01*
X66488646Y-72976316D01*
X66361733Y-72953887D01*
X65383492Y-72756712D01*
X64368040Y-72511467D01*
X63359495Y-72230971D01*
X62401976Y-71928041D01*
X61539602Y-71615495D01*
X61035478Y-71406416D01*
X60562066Y-71197051D01*
X60088654Y-71406416D01*
X59315032Y-71718221D01*
X58416609Y-72029027D01*
X57437503Y-72326016D01*
X56421833Y-72596368D01*
X55413718Y-72827268D01*
X54762400Y-72953887D01*
X54083686Y-73067001D01*
X53438996Y-73155139D01*
X52795504Y-73220357D01*
X52120381Y-73264711D01*
X51380798Y-73290257D01*
X50543929Y-73299051D01*
X49576944Y-73293149D01*
X49385356Y-73290668D01*
X48678468Y-73281176D01*
X48122996Y-73275162D01*
X47701039Y-73273653D01*
X47394697Y-73277673D01*
X47186071Y-73288247D01*
X47057259Y-73306401D01*
X46990362Y-73333158D01*
X46967479Y-73369545D01*
X45486463Y-73369545D01*
X45456669Y-73213168D01*
X45446256Y-73162212D01*
X45388307Y-73046607D01*
X45248080Y-72964101D01*
X44986035Y-72893479D01*
X44919787Y-72879769D01*
X42868461Y-72382859D01*
X40888099Y-71732565D01*
X38982111Y-70930715D01*
X37153908Y-69979136D01*
X35406899Y-68879655D01*
X33744494Y-67634098D01*
X32170103Y-66244291D01*
X31730210Y-65814256D01*
X30897303Y-64939291D01*
X30081914Y-64002745D01*
X29310720Y-63038817D01*
X28610399Y-62081707D01*
X28007627Y-61165616D01*
X27709134Y-60659253D01*
X27541554Y-60385621D01*
X27428614Y-60263092D01*
X27367339Y-60278378D01*
X27248072Y-60539037D01*
X27100504Y-60935971D01*
X26933013Y-61440138D01*
X26753977Y-62022501D01*
X26571774Y-62654020D01*
X26394781Y-63305655D01*
X26231377Y-63948368D01*
X26089940Y-64553117D01*
X25978846Y-65090866D01*
X25978683Y-65091733D01*
X25710459Y-66969857D01*
X25604922Y-68872743D01*
X24231928Y-68872743D01*
X24268115Y-67593781D01*
X24361312Y-66263934D01*
X24508763Y-65020834D01*
X24624016Y-64329733D01*
X24898311Y-63065105D01*
X25246586Y-61768287D01*
X25650371Y-60500872D01*
X26091197Y-59324453D01*
X26210894Y-59038066D01*
X26500957Y-58360733D01*
X26500099Y-58358729D01*
X28225855Y-58358729D01*
X28653307Y-59164064D01*
X29230679Y-60168927D01*
X29915525Y-61222317D01*
X30674337Y-62278959D01*
X31473609Y-63293578D01*
X32279836Y-64220900D01*
X32789898Y-64753559D01*
X34079868Y-65937339D01*
X35504444Y-67053755D01*
X37036771Y-68086477D01*
X38649997Y-69019178D01*
X40317268Y-69835529D01*
X42011731Y-70519204D01*
X42612733Y-70726257D01*
X42908179Y-70818903D01*
X43286148Y-70930996D01*
X43709260Y-71052207D01*
X44140133Y-71172205D01*
X44541385Y-71280659D01*
X44875637Y-71367238D01*
X45105506Y-71421614D01*
X45173900Y-71434050D01*
X45191166Y-71355296D01*
X45206647Y-71129660D01*
X45219673Y-70779587D01*
X45229576Y-70327523D01*
X45235687Y-69795917D01*
X45237400Y-69303381D01*
X45242685Y-68791500D01*
X46604904Y-68791500D01*
X46612266Y-69941500D01*
X46628154Y-70457698D01*
X46646888Y-70914784D01*
X46666998Y-71286229D01*
X46687015Y-71545504D01*
X46705468Y-71666081D01*
X46708069Y-71670625D01*
X46833064Y-71716842D01*
X47099826Y-71764091D01*
X47480820Y-71810075D01*
X47948512Y-71852494D01*
X48475368Y-71889049D01*
X49033855Y-71917440D01*
X49596438Y-71935369D01*
X49936918Y-71940234D01*
X50527521Y-71935343D01*
X51157680Y-71915325D01*
X51764924Y-71883051D01*
X52286780Y-71841391D01*
X52434585Y-71825489D01*
X54004317Y-71598490D01*
X55496930Y-71289833D01*
X56991182Y-70882086D01*
X57670412Y-70666480D01*
X58715758Y-70321590D01*
X62408374Y-70321590D01*
X63453720Y-70666480D01*
X65278955Y-71201870D01*
X67096396Y-71596733D01*
X68605400Y-71823101D01*
X69210456Y-71878202D01*
X69933644Y-71914531D01*
X70724800Y-71932002D01*
X71533754Y-71930529D01*
X72310342Y-71910024D01*
X73004397Y-71870401D01*
X73412779Y-71831418D01*
X73797387Y-71782404D01*
X74117246Y-71734702D01*
X74336511Y-71694115D01*
X74418022Y-71668666D01*
X74435502Y-71572361D01*
X74454845Y-71333244D01*
X74474613Y-70977803D01*
X74493365Y-70532525D01*
X74509663Y-70023901D01*
X74511866Y-69941500D01*
X74514027Y-68535217D01*
X74440097Y-67205873D01*
X74283729Y-65897501D01*
X74038573Y-64554130D01*
X73769665Y-63398400D01*
X73665927Y-63012178D01*
X73533675Y-62557043D01*
X73383824Y-62066702D01*
X73227287Y-61574864D01*
X73074979Y-61115236D01*
X72937814Y-60721526D01*
X72826706Y-60427443D01*
X72759460Y-60278378D01*
X72691589Y-60267117D01*
X72574833Y-60400549D01*
X72417665Y-60659253D01*
X72259534Y-60925318D01*
X72034374Y-61283231D01*
X71772227Y-61686088D01*
X71503764Y-62086066D01*
X70324493Y-63672350D01*
X69011456Y-65181453D01*
X67584179Y-66595109D01*
X66062188Y-67895048D01*
X64465012Y-69063003D01*
X63187518Y-69865996D01*
X62408374Y-70321590D01*
X58715758Y-70321590D01*
X57936615Y-69865996D01*
X56294589Y-68812930D01*
X54712611Y-67613718D01*
X53210207Y-66286628D01*
X51806906Y-64849928D01*
X50522233Y-63321885D01*
X49620369Y-62086066D01*
X49351256Y-61685105D01*
X49089161Y-61282299D01*
X48864126Y-60924551D01*
X48706467Y-60659253D01*
X48538888Y-60385621D01*
X48425947Y-60263092D01*
X48364673Y-60278378D01*
X48285304Y-60457682D01*
X48170333Y-60766097D01*
X48030672Y-61169915D01*
X47877236Y-61635426D01*
X47720939Y-62128925D01*
X47572695Y-62616701D01*
X47443418Y-63065048D01*
X47354467Y-63398400D01*
X47032507Y-64811406D01*
X46804492Y-66143945D01*
X46664074Y-67451987D01*
X46604904Y-68791500D01*
X45242685Y-68791500D01*
X45249363Y-68144774D01*
X45288370Y-67113205D01*
X45359096Y-66167861D01*
X45466214Y-65267930D01*
X45614400Y-64372600D01*
X45808328Y-63441059D01*
X46001032Y-62636400D01*
X46233601Y-61791566D01*
X46519064Y-60884360D01*
X46833175Y-59987052D01*
X47151689Y-59171910D01*
X47208227Y-59038066D01*
X47497431Y-58362737D01*
X49223188Y-58362737D01*
X49650939Y-59166068D01*
X50236712Y-60182939D01*
X50929700Y-61246539D01*
X51696200Y-62311333D01*
X52502512Y-63331787D01*
X53314932Y-64262365D01*
X53787232Y-64754567D01*
X54728572Y-65631959D01*
X55790735Y-66510282D01*
X56928658Y-67356480D01*
X58097274Y-68137496D01*
X59251521Y-68820276D01*
X59546066Y-68978869D01*
X59911902Y-69170288D01*
X60220510Y-69329451D01*
X60442805Y-69441526D01*
X60549702Y-69491685D01*
X60554383Y-69492991D01*
X60638061Y-69456445D01*
X60842471Y-69355450D01*
X61138608Y-69204637D01*
X61497471Y-69018634D01*
X61570383Y-68980506D01*
X62709558Y-68333700D01*
X63877632Y-67577598D01*
X65028939Y-66745666D01*
X66117815Y-65871367D01*
X67098595Y-64988168D01*
X67336901Y-64754567D01*
X68136969Y-63899044D01*
X68950975Y-62926561D01*
X69745217Y-61882654D01*
X70485991Y-60812856D01*
X71139597Y-59762703D01*
X71473194Y-59166068D01*
X71900944Y-58362737D01*
X71899881Y-58360733D01*
X73625842Y-58360733D01*
X73915905Y-59038066D01*
X74232613Y-59830483D01*
X74549330Y-60718218D01*
X74841810Y-61629002D01*
X75085809Y-62490565D01*
X75123100Y-62636400D01*
X75356768Y-63624387D01*
X75541139Y-64543356D01*
X75680867Y-65433966D01*
X75780604Y-66336873D01*
X75845004Y-67292737D01*
X75878719Y-68342215D01*
X75886733Y-69309086D01*
X75887399Y-69966795D01*
X75890284Y-70473998D01*
X75896716Y-70849523D01*
X75908022Y-71112193D01*
X75925532Y-71280836D01*
X75950574Y-71374277D01*
X75984475Y-71411342D01*
X76028564Y-71410857D01*
X76034900Y-71409081D01*
X76176779Y-71370535D01*
X76440231Y-71302014D01*
X76782538Y-71214554D01*
X77029733Y-71152110D01*
X78763749Y-70637006D01*
X80495658Y-69969640D01*
X82200080Y-69164380D01*
X83851632Y-68235592D01*
X85424933Y-67197642D01*
X86894600Y-66064897D01*
X88235252Y-64851723D01*
X88334234Y-64753559D01*
X89129298Y-63904433D01*
X89939068Y-62938126D01*
X90730108Y-61899804D01*
X91468983Y-60834634D01*
X92122258Y-59787782D01*
X92470527Y-59166068D01*
X92898277Y-58362737D01*
X92897214Y-58360733D01*
X94623176Y-58360733D01*
X94913387Y-59038066D01*
X95552795Y-60714300D01*
X96081680Y-62491331D01*
X96490955Y-64334365D01*
X96759823Y-66107214D01*
X96812085Y-66690434D01*
X96850152Y-67402673D01*
X96874045Y-68204215D01*
X96883791Y-69055345D01*
X96879411Y-69916346D01*
X96860932Y-70747503D01*
X96828376Y-71509100D01*
X96781767Y-72161421D01*
X96756008Y-72410507D01*
X96695045Y-72872908D01*
X96613144Y-73411444D01*
X96517803Y-73984016D01*
X96416519Y-74548521D01*
X96316790Y-75062860D01*
X96226112Y-75484931D01*
X96165479Y-75726608D01*
X96160025Y-75784498D01*
X96211846Y-75707479D01*
X96311436Y-75516251D01*
X96449287Y-75231513D01*
X96615892Y-74873963D01*
X96801744Y-74464302D01*
X96997336Y-74023229D01*
X97193161Y-73571442D01*
X97379713Y-73129642D01*
X97547483Y-72718528D01*
X97550193Y-72711733D01*
X98426646Y-70290932D01*
X99141290Y-67832733D01*
X99692559Y-65345190D01*
X100078890Y-62836357D01*
X100298719Y-60314290D01*
X100353652Y-58276066D01*
X100269232Y-55748411D01*
X100016955Y-53227757D01*
X99598296Y-50721702D01*
X99014730Y-48237846D01*
X98267733Y-45783784D01*
X97550790Y-43840400D01*
X97388771Y-43443574D01*
X97203987Y-43007153D01*
X97006101Y-42552091D01*
X96804776Y-42099342D01*
X96609675Y-41669863D01*
X96430462Y-41284607D01*
X96276799Y-40964530D01*
X96158349Y-40730587D01*
X96084774Y-40603733D01*
X96065739Y-40604923D01*
X96072341Y-40634256D01*
X96155593Y-40974146D01*
X96257960Y-41432223D01*
X96369473Y-41959860D01*
X96480160Y-42508426D01*
X96580053Y-43029294D01*
X96659180Y-43473834D01*
X96677594Y-43586400D01*
X96730018Y-44016722D01*
X96775286Y-44584039D01*
X96812799Y-45256138D01*
X96841958Y-46000807D01*
X96862165Y-46785834D01*
X96872821Y-47579006D01*
X96873328Y-48348112D01*
X96863087Y-49060940D01*
X96841500Y-49685276D01*
X96807967Y-50188910D01*
X96801522Y-50255465D01*
X96560125Y-52004762D01*
X96197762Y-53757161D01*
X95725774Y-55468053D01*
X95155500Y-57092830D01*
X94913239Y-57683400D01*
X94623176Y-58360733D01*
X92897214Y-58360733D01*
X92470826Y-57557401D01*
X91893453Y-56552538D01*
X91208608Y-55499149D01*
X90449796Y-54442507D01*
X89650523Y-53427888D01*
X88844296Y-52500566D01*
X88334234Y-51967906D01*
X87004778Y-50749030D01*
X85544315Y-49609455D01*
X83978228Y-48563549D01*
X82331897Y-47625677D01*
X80630706Y-46810205D01*
X78900036Y-46131502D01*
X77165267Y-45603932D01*
X77029733Y-45569356D01*
X76658874Y-45475459D01*
X76338806Y-45393253D01*
X76112248Y-45333772D01*
X76034900Y-45312384D01*
X75989434Y-45308508D01*
X75954324Y-45339813D01*
X75928241Y-45425126D01*
X75909857Y-45583271D01*
X75897843Y-45833076D01*
X75890871Y-46193366D01*
X75887613Y-46682966D01*
X75886740Y-47320703D01*
X75886733Y-47412379D01*
X75874864Y-48569908D01*
X75836157Y-49600220D01*
X75765957Y-50543976D01*
X75659612Y-51441832D01*
X75512469Y-52334448D01*
X75319874Y-53262481D01*
X75123100Y-54085066D01*
X74891000Y-54928464D01*
X74606343Y-55833649D01*
X74293226Y-56728787D01*
X73975747Y-57542042D01*
X73916054Y-57683400D01*
X73625842Y-58360733D01*
X71899881Y-58360733D01*
X71473492Y-57557401D01*
X70896040Y-56552413D01*
X70210986Y-55498753D01*
X69451717Y-54441544D01*
X68651617Y-53425903D01*
X67844073Y-52496952D01*
X67336901Y-51966898D01*
X66384766Y-51079806D01*
X65311816Y-50193871D01*
X64163494Y-49342376D01*
X62985241Y-48558601D01*
X61822502Y-47875825D01*
X61556900Y-47733878D01*
X60562066Y-47212902D01*
X59567233Y-47733878D01*
X58414713Y-48388142D01*
X57236019Y-49151213D01*
X56076596Y-49989811D01*
X54981886Y-50870654D01*
X53997332Y-51760463D01*
X53787232Y-51966898D01*
X52992517Y-52816360D01*
X52183800Y-53781495D01*
X51394467Y-54817184D01*
X50657904Y-55878306D01*
X50007495Y-56919743D01*
X49650640Y-57557401D01*
X49223188Y-58362737D01*
X47497431Y-58362737D01*
X47498290Y-58360733D01*
X47208079Y-57683400D01*
X46892529Y-56894194D01*
X46576696Y-56009255D01*
X46284676Y-55100417D01*
X46040566Y-54239515D01*
X46001032Y-54085066D01*
X45767364Y-53097079D01*
X45582993Y-52178109D01*
X45443266Y-51287500D01*
X45343529Y-50384593D01*
X45279129Y-49428729D01*
X45245413Y-48379251D01*
X45243814Y-48186249D01*
X46610105Y-48186249D01*
X46684035Y-49515592D01*
X46840403Y-50823965D01*
X47085560Y-52167336D01*
X47354467Y-53323066D01*
X47456193Y-53703177D01*
X47583160Y-54142222D01*
X47726259Y-54612519D01*
X47876379Y-55086386D01*
X48024408Y-55536141D01*
X48161236Y-55934102D01*
X48277751Y-56252587D01*
X48364843Y-56463913D01*
X48413376Y-56540400D01*
X48464122Y-56472643D01*
X48572589Y-56295240D01*
X48711347Y-56053566D01*
X48867369Y-55791206D01*
X49090649Y-55436542D01*
X49351404Y-55036038D01*
X49619850Y-54636159D01*
X49620369Y-54635400D01*
X50799639Y-53049116D01*
X52112676Y-51540012D01*
X53539954Y-50126357D01*
X55061944Y-48826418D01*
X56659120Y-47658463D01*
X57936615Y-46855470D01*
X58715758Y-46399876D01*
X62408374Y-46399876D01*
X63187518Y-46855470D01*
X64829543Y-47908536D01*
X66411521Y-49107748D01*
X67913925Y-50434838D01*
X69317227Y-51871538D01*
X70601899Y-53399580D01*
X71503764Y-54635400D01*
X71772876Y-55036361D01*
X72034971Y-55439167D01*
X72260006Y-55796915D01*
X72417665Y-56062213D01*
X72585245Y-56335845D01*
X72698185Y-56458374D01*
X72759460Y-56443088D01*
X72810449Y-56322415D01*
X72903067Y-56076249D01*
X73024536Y-55739451D01*
X73162073Y-55346880D01*
X73173905Y-55312608D01*
X73727835Y-53475514D01*
X74151642Y-51565746D01*
X74435056Y-49630251D01*
X74451753Y-49471834D01*
X74476903Y-49136677D01*
X74495593Y-48706030D01*
X74508030Y-48207280D01*
X74514424Y-47667815D01*
X74514984Y-47115023D01*
X74509918Y-46576291D01*
X74499437Y-46079005D01*
X74483748Y-45650554D01*
X74463061Y-45318325D01*
X74437586Y-45109706D01*
X74418022Y-45052800D01*
X74295974Y-45008701D01*
X74033443Y-44962438D01*
X73659218Y-44916425D01*
X73202089Y-44873078D01*
X72690843Y-44834812D01*
X72154270Y-44804044D01*
X71621158Y-44783188D01*
X71120296Y-44774660D01*
X71102547Y-44774612D01*
X69263332Y-44845963D01*
X67422099Y-45069673D01*
X65562509Y-45448477D01*
X63668221Y-45985111D01*
X63453720Y-46054986D01*
X62408374Y-46399876D01*
X58715758Y-46399876D01*
X57670412Y-46054986D01*
X55771234Y-45500549D01*
X53908578Y-45104247D01*
X52066105Y-44863346D01*
X50227475Y-44775109D01*
X50021585Y-44774612D01*
X49522490Y-44782631D01*
X48990067Y-44803069D01*
X48453104Y-44833510D01*
X47940391Y-44871538D01*
X47480717Y-44914738D01*
X47102869Y-44960695D01*
X46835637Y-45006993D01*
X46707810Y-45051216D01*
X46706111Y-45052800D01*
X46688630Y-45149104D01*
X46669287Y-45388222D01*
X46649520Y-45743663D01*
X46630767Y-46188940D01*
X46614470Y-46697565D01*
X46612266Y-46779965D01*
X46610105Y-48186249D01*
X45243814Y-48186249D01*
X45237400Y-47412379D01*
X45236733Y-46754671D01*
X45233848Y-46247467D01*
X45227417Y-45871943D01*
X45216110Y-45609272D01*
X45198600Y-45440629D01*
X45173559Y-45347188D01*
X45139658Y-45310123D01*
X45095568Y-45310609D01*
X45089233Y-45312384D01*
X44947354Y-45350931D01*
X44683901Y-45419451D01*
X44341594Y-45506912D01*
X44094400Y-45569356D01*
X42360384Y-46084460D01*
X40628474Y-46751825D01*
X38924052Y-47557085D01*
X37272500Y-48485874D01*
X35699200Y-49523824D01*
X34229533Y-50656569D01*
X32888880Y-51869742D01*
X32789898Y-51967906D01*
X31994834Y-52817033D01*
X31185064Y-53783340D01*
X30394024Y-54821661D01*
X29655149Y-55886831D01*
X29001874Y-56933684D01*
X28653605Y-57555398D01*
X28225855Y-58358729D01*
X26500099Y-58358729D01*
X26210745Y-57683400D01*
X25895196Y-56894194D01*
X25579363Y-56009255D01*
X25287343Y-55100417D01*
X25043233Y-54239515D01*
X25003699Y-54085066D01*
X24763500Y-53066364D01*
X24575321Y-52117615D01*
X24434234Y-51196200D01*
X24335311Y-50259500D01*
X24273625Y-49264896D01*
X24244245Y-48169768D01*
X24240066Y-47481066D01*
X24244148Y-47085328D01*
X25593224Y-47085328D01*
X25634631Y-48859029D01*
X25824466Y-50653423D01*
X26162726Y-52493441D01*
X26358365Y-53323066D01*
X26459345Y-53701849D01*
X26585712Y-54139964D01*
X26728354Y-54609702D01*
X26878164Y-55083351D01*
X27026032Y-55533201D01*
X27162847Y-55931541D01*
X27279499Y-56250661D01*
X27366881Y-56462849D01*
X27415880Y-56540396D01*
X27416042Y-56540400D01*
X27466788Y-56472643D01*
X27575255Y-56295240D01*
X27714014Y-56053566D01*
X28239951Y-55188897D01*
X28878648Y-54262030D01*
X29603539Y-53307008D01*
X30388059Y-52357872D01*
X31205640Y-51448664D01*
X31730210Y-50907210D01*
X33278422Y-49475887D01*
X34915638Y-48188283D01*
X36638448Y-47046225D01*
X38443442Y-46051540D01*
X40327209Y-45206054D01*
X42286340Y-44511593D01*
X44317425Y-43969986D01*
X44919787Y-43841696D01*
X45209214Y-43770939D01*
X45369372Y-43692294D01*
X45439802Y-43584548D01*
X45446256Y-43559253D01*
X45478525Y-43395046D01*
X45488338Y-43342263D01*
X46966565Y-43342263D01*
X46981984Y-43380967D01*
X47037375Y-43409810D01*
X47150637Y-43429817D01*
X47339671Y-43442014D01*
X47622376Y-43447425D01*
X48016654Y-43447075D01*
X48540403Y-43441989D01*
X49211525Y-43433193D01*
X49385356Y-43430797D01*
X50565540Y-43424571D01*
X51612249Y-43443019D01*
X52560016Y-43489693D01*
X53443377Y-43568142D01*
X54296864Y-43681917D01*
X55155014Y-43834569D01*
X56052359Y-44029648D01*
X56667400Y-44179467D01*
X57181872Y-44318386D01*
X57747971Y-44486807D01*
X58335230Y-44674105D01*
X58913186Y-44869653D01*
X59451372Y-45062827D01*
X59919322Y-45243000D01*
X60286572Y-45399546D01*
X60522656Y-45521840D01*
X60530364Y-45526796D01*
X60606597Y-45499121D01*
X60794822Y-45420086D01*
X61024943Y-45319708D01*
X61810634Y-45003002D01*
X62720889Y-44688250D01*
X63711293Y-44388372D01*
X64737431Y-44116283D01*
X65754889Y-43884902D01*
X66361733Y-43767579D01*
X67040447Y-43654465D01*
X67685136Y-43566326D01*
X68328628Y-43501109D01*
X69003751Y-43456755D01*
X69743334Y-43431209D01*
X70580204Y-43422415D01*
X71547189Y-43428317D01*
X71738777Y-43430797D01*
X72445664Y-43440290D01*
X73001136Y-43446304D01*
X73423093Y-43447813D01*
X73729435Y-43443793D01*
X73938062Y-43433219D01*
X74066873Y-43415065D01*
X74133771Y-43388307D01*
X74156653Y-43351920D01*
X74153422Y-43304879D01*
X74150915Y-43292673D01*
X74003766Y-42634628D01*
X73833266Y-41932765D01*
X73652172Y-41235672D01*
X73473241Y-40591938D01*
X73309230Y-40050152D01*
X73261302Y-39904233D01*
X72585196Y-38127966D01*
X71771891Y-36391308D01*
X70835396Y-34717182D01*
X69789719Y-33128510D01*
X68648866Y-31648217D01*
X67426847Y-30299225D01*
X67335893Y-30207565D01*
X66391693Y-29326731D01*
X65326448Y-28445979D01*
X64185214Y-27598313D01*
X63013050Y-26816735D01*
X61855010Y-26134250D01*
X61556900Y-25974544D01*
X60562066Y-25453569D01*
X59567233Y-25974544D01*
X58420458Y-26625316D01*
X57247647Y-27383905D01*
X56093854Y-28217308D01*
X55004139Y-29092523D01*
X54023556Y-29976544D01*
X53788240Y-30207565D01*
X52560905Y-31546195D01*
X51413726Y-33017780D01*
X50360711Y-34599398D01*
X49415868Y-36268125D01*
X48593204Y-38001038D01*
X47906728Y-39775214D01*
X47862831Y-39904233D01*
X47706409Y-40402458D01*
X47530924Y-41018410D01*
X47349134Y-41703502D01*
X47173795Y-42409144D01*
X47017664Y-43086747D01*
X46973217Y-43292673D01*
X46966565Y-43342263D01*
X45488338Y-43342263D01*
X45530797Y-43113895D01*
X45593863Y-42765652D01*
X45621114Y-42612733D01*
X46050975Y-40668353D01*
X46640427Y-38763868D01*
X47382370Y-36909376D01*
X48269703Y-35114977D01*
X49295326Y-33390769D01*
X50452139Y-31746852D01*
X51733041Y-30193324D01*
X53130933Y-28740284D01*
X54638713Y-27397831D01*
X56249281Y-26176064D01*
X57936615Y-25096137D01*
X58715758Y-24640542D01*
X62408374Y-24640542D01*
X63187518Y-25096137D01*
X64892778Y-26188585D01*
X66502274Y-27411710D01*
X68008905Y-28755412D01*
X69405570Y-30209591D01*
X70685169Y-31764150D01*
X71840603Y-33408989D01*
X72864769Y-35134009D01*
X73750569Y-36929112D01*
X74490902Y-38784198D01*
X75078668Y-40689168D01*
X75503018Y-42612733D01*
X75567863Y-42974210D01*
X75625748Y-43289348D01*
X75667464Y-43508298D01*
X75677876Y-43559253D01*
X75735826Y-43674858D01*
X75876053Y-43757365D01*
X76138097Y-43827987D01*
X76204345Y-43841696D01*
X78255671Y-44338607D01*
X80236033Y-44988901D01*
X82142021Y-45790750D01*
X83970224Y-46742329D01*
X85717234Y-47841811D01*
X87379639Y-49087368D01*
X88954029Y-50477175D01*
X89393923Y-50907210D01*
X90226830Y-51782174D01*
X91042219Y-52718721D01*
X91813413Y-53682649D01*
X92513734Y-54639758D01*
X93116505Y-55555849D01*
X93414999Y-56062213D01*
X93582578Y-56335845D01*
X93695519Y-56458374D01*
X93756793Y-56443088D01*
X93807782Y-56322415D01*
X93900401Y-56076249D01*
X94021869Y-55739451D01*
X94159406Y-55346880D01*
X94171238Y-55312608D01*
X94737111Y-53442583D01*
X95154276Y-51553200D01*
X95418831Y-49666961D01*
X95526874Y-47806371D01*
X95529400Y-47481066D01*
X95446521Y-45569657D01*
X95202147Y-43660430D01*
X94802668Y-41766948D01*
X94254475Y-39902771D01*
X93563959Y-38081461D01*
X92737512Y-36316580D01*
X91781523Y-34621689D01*
X90702386Y-33010350D01*
X89506489Y-31496124D01*
X88200225Y-30092572D01*
X86789985Y-28813256D01*
X86694938Y-28734777D01*
X85121780Y-27547380D01*
X83444254Y-26477459D01*
X81684666Y-25536308D01*
X79865321Y-24735219D01*
X78008527Y-24085485D01*
X76902733Y-23777267D01*
X74971664Y-23363555D01*
X73077861Y-23108204D01*
X71207014Y-23011765D01*
X69344811Y-23074791D01*
X67476941Y-23297833D01*
X65589093Y-23681443D01*
X63666956Y-24226171D01*
X63453720Y-24295652D01*
X62408374Y-24640542D01*
X58715758Y-24640542D01*
X57670412Y-24295652D01*
X55740487Y-23733903D01*
X53843007Y-23334009D01*
X51967079Y-23094131D01*
X50101807Y-23012433D01*
X50063399Y-23012399D01*
X48151990Y-23095278D01*
X46242764Y-23339652D01*
X44349281Y-23739131D01*
X42485104Y-24287324D01*
X40663795Y-24977840D01*
X38898914Y-25804287D01*
X37204023Y-26760276D01*
X35592683Y-27839413D01*
X34078457Y-29035310D01*
X32674905Y-30341574D01*
X31395589Y-31751814D01*
X31317111Y-31846861D01*
X30129713Y-33420019D01*
X29059793Y-35097545D01*
X28118641Y-36857133D01*
X27317552Y-38676478D01*
X26667819Y-40533272D01*
X26359600Y-41639066D01*
X25955706Y-43500278D01*
X25700248Y-45307389D01*
X25593224Y-47085328D01*
X24244148Y-47085328D01*
X24251471Y-46375550D01*
X24287873Y-45397829D01*
X24352549Y-44507762D01*
X24448778Y-43665210D01*
X24579840Y-42830032D01*
X24651541Y-42443400D01*
X24718208Y-42088467D01*
X24768072Y-41802631D01*
X24795099Y-41621801D01*
X24797192Y-41576920D01*
X24759609Y-41643258D01*
X24668153Y-41839189D01*
X24534721Y-42138270D01*
X24371211Y-42514054D01*
X24282971Y-42719920D01*
X23453613Y-44808415D01*
X22751721Y-46895122D01*
X22168329Y-49013801D01*
X21694473Y-51198207D01*
X21321186Y-53482097D01*
X21219656Y-54254400D01*
X21160925Y-54859238D01*
X21115288Y-55599040D01*
X21082743Y-56439945D01*
X21063291Y-57348090D01*
X21056932Y-58289612D01*
X20133733Y-58289612D01*
X20133733Y-51333400D01*
X20371073Y-50190400D01*
X20829718Y-48179423D01*
X21349740Y-46287247D01*
X21946142Y-44469815D01*
X22633926Y-42683067D01*
X23428097Y-40882945D01*
X23816360Y-40072733D01*
X25039004Y-37768914D01*
X26400392Y-35558108D01*
X27894378Y-33445688D01*
X29514818Y-31437026D01*
X31255566Y-29537495D01*
X33110477Y-27752468D01*
X35073405Y-26087318D01*
X37138205Y-24547416D01*
X39298731Y-23138136D01*
X41087442Y-22125945D01*
X44578042Y-22125945D01*
X44666567Y-22122203D01*
X44878849Y-22091418D01*
X45172627Y-22039890D01*
X45237400Y-22027657D01*
X46095751Y-21884635D01*
X46992805Y-21778713D01*
X47961877Y-21707339D01*
X49036281Y-21667959D01*
X50063400Y-21657733D01*
X51235266Y-21670833D01*
X52282208Y-21713420D01*
X53246845Y-21790421D01*
X54171796Y-21906764D01*
X55099680Y-22067378D01*
X56073116Y-22277191D01*
X56667400Y-22421365D01*
X57180133Y-22559295D01*
X57745144Y-22726995D01*
X58331883Y-22913821D01*
X58909798Y-23109126D01*
X59448339Y-23302265D01*
X59916955Y-23482591D01*
X60285096Y-23639460D01*
X60522211Y-23762224D01*
X60530364Y-23767463D01*
X60606597Y-23739788D01*
X60794822Y-23660753D01*
X61024943Y-23560375D01*
X61522245Y-23357136D01*
X62134619Y-23132713D01*
X62812070Y-22903697D01*
X63504605Y-22686684D01*
X64162228Y-22498265D01*
X64456733Y-22421365D01*
X65002270Y-22292733D01*
X77156733Y-22292733D01*
X77199066Y-22335066D01*
X77241400Y-22292733D01*
X77199066Y-22250400D01*
X77156733Y-22292733D01*
X65002270Y-22292733D01*
X65475435Y-22181166D01*
X66424184Y-21992988D01*
X67345599Y-21851901D01*
X68282299Y-21752978D01*
X69276903Y-21691291D01*
X70372031Y-21661912D01*
X71060733Y-21657733D01*
X72166249Y-21669138D01*
X73143970Y-21705539D01*
X74034037Y-21770215D01*
X74876589Y-21866445D01*
X75711767Y-21997506D01*
X76098400Y-22069208D01*
X76454035Y-22135392D01*
X76741350Y-22183875D01*
X76924143Y-22208844D01*
X76970503Y-22209235D01*
X76906927Y-22169595D01*
X76714944Y-22077864D01*
X76422553Y-21946837D01*
X76057755Y-21789310D01*
X75973254Y-21753505D01*
X73696240Y-20872098D01*
X71370427Y-20132485D01*
X68977802Y-19529935D01*
X66500352Y-19059718D01*
X64795400Y-18817756D01*
X64212124Y-18759687D01*
X63497333Y-18711030D01*
X62688624Y-18672512D01*
X61823592Y-18644861D01*
X60939832Y-18628805D01*
X60074940Y-18625073D01*
X59266513Y-18634392D01*
X58552146Y-18657491D01*
X58061536Y-18687336D01*
X55432181Y-18979054D01*
X52849679Y-19433029D01*
X50309403Y-20050203D01*
X48243066Y-20682600D01*
X47821279Y-20828264D01*
X47347642Y-20999025D01*
X46846287Y-21185379D01*
X46341346Y-21377822D01*
X45856953Y-21566850D01*
X45417240Y-21742960D01*
X45046339Y-21896647D01*
X44768383Y-22018409D01*
X44607505Y-22098740D01*
X44578042Y-22125945D01*
X41087442Y-22125945D01*
X41548839Y-21864851D01*
X43882382Y-20732933D01*
X46293216Y-19747755D01*
X47586118Y-19291641D01*
X48743423Y-18928719D01*
X50008524Y-18574152D01*
X51320069Y-18244247D01*
X52603400Y-17958073D01*
X53746400Y-17720733D01*
X67631733Y-17720733D01*
X68774733Y-17958073D01*
G37*
X68774733Y-17958073D02*
X70784071Y-18416308D01*
X72674888Y-18935862D01*
X74491566Y-19531846D01*
X76278490Y-20219370D01*
X78080044Y-21013543D01*
X78892400Y-21402421D01*
X81179466Y-22615005D01*
X83374615Y-23965353D01*
X85472550Y-25446751D01*
X87467972Y-27052484D01*
X89355585Y-28775840D01*
X91130092Y-30610104D01*
X92786195Y-32548563D01*
X94318597Y-34584502D01*
X95722002Y-36711208D01*
X96991112Y-38921966D01*
X98120629Y-41210064D01*
X99105258Y-43568787D01*
X99939700Y-45991421D01*
X100618658Y-48471252D01*
X100770728Y-49132066D01*
X100881920Y-49634853D01*
X100978475Y-50078530D01*
X101061426Y-50478813D01*
X101131804Y-50851416D01*
X101190642Y-51212055D01*
X101238972Y-51576445D01*
X101277826Y-51960302D01*
X101308238Y-52379339D01*
X101331239Y-52849272D01*
X101347861Y-53385817D01*
X101359137Y-54004688D01*
X101366099Y-54721600D01*
X101369780Y-55552268D01*
X101371211Y-56512409D01*
X101371426Y-57617736D01*
X101371400Y-58276066D01*
X101371412Y-59465764D01*
X101370762Y-60501843D01*
X101368416Y-61400020D01*
X101363343Y-62176009D01*
X101354509Y-62845526D01*
X101340884Y-63424285D01*
X101321434Y-63928001D01*
X101295126Y-64372391D01*
X101260930Y-64773167D01*
X101217812Y-65146047D01*
X101164740Y-65506745D01*
X101100681Y-65870976D01*
X101024604Y-66254455D01*
X100935477Y-66672896D01*
X100832266Y-67142017D01*
X100770728Y-67420066D01*
X100133614Y-69912819D01*
X99338576Y-72352542D01*
X98390631Y-74732294D01*
X97294795Y-77045134D01*
X96056086Y-79284121D01*
X94679520Y-81442315D01*
X93170113Y-83512775D01*
X91532883Y-85488560D01*
X89772845Y-87362730D01*
X87895017Y-89128343D01*
X85904414Y-90778459D01*
X83806055Y-92306138D01*
X81900416Y-93527998D01*
X81175703Y-93947711D01*
X80339966Y-94402959D01*
X79436710Y-94872028D01*
X78509439Y-95333202D01*
X77601658Y-95764767D01*
X76756871Y-96145008D01*
X76132821Y-96406831D01*
X73740844Y-97278232D01*
X71275848Y-98003669D01*
X68758416Y-98578288D01*
X66209133Y-98997235D01*
X64245066Y-99210047D01*
X63849222Y-99234124D01*
X63313770Y-99253310D01*
X62668362Y-99267642D01*
X61942652Y-99277155D01*
X61166292Y-99281884D01*
X60368936Y-99281867D01*
X59580237Y-99277138D01*
X58829848Y-99267734D01*
X58147421Y-99253691D01*
X57562611Y-99235044D01*
X57105070Y-99211830D01*
X56963733Y-99201222D01*
X54821411Y-98954392D01*
X52634380Y-98581725D01*
X50457250Y-98094532D01*
X48344631Y-97504126D01*
X47573644Y-97256242D01*
X45557772Y-96518288D01*
X43536827Y-95653222D01*
X41701366Y-94754771D01*
X45348806Y-94754771D01*
X45407553Y-94797968D01*
X45601849Y-94886973D01*
X45907092Y-95012592D01*
X46298678Y-95165630D01*
X46752007Y-95336893D01*
X47242474Y-95517185D01*
X47745478Y-95697313D01*
X48236416Y-95868081D01*
X48690685Y-96020296D01*
X48996050Y-96117845D01*
X51252275Y-96749236D01*
X53549729Y-97258565D01*
X55844162Y-97637069D01*
X57725733Y-97846556D01*
X58218618Y-97878286D01*
X58840713Y-97902221D01*
X59553525Y-97918302D01*
X60318560Y-97926470D01*
X61097325Y-97926667D01*
X61851327Y-97918832D01*
X62542071Y-97902908D01*
X63131064Y-97878834D01*
X63483066Y-97855380D01*
X66006024Y-97565274D01*
X68506523Y-97122491D01*
X70962562Y-96532093D01*
X73352141Y-95799147D01*
X74935944Y-95218738D01*
X75366286Y-95047261D01*
X75732373Y-94896134D01*
X76009036Y-94776180D01*
X76171108Y-94698220D01*
X76202624Y-94674069D01*
X76107459Y-94669655D01*
X75898625Y-94694671D01*
X75709937Y-94727208D01*
X74721072Y-94879777D01*
X73606518Y-94988250D01*
X72404026Y-95052814D01*
X71151349Y-95073658D01*
X69886238Y-95050967D01*
X68646443Y-94984930D01*
X67469718Y-94875734D01*
X66393813Y-94723565D01*
X66150066Y-94679783D01*
X65761691Y-94598066D01*
X76394733Y-94598066D01*
X76437066Y-94640400D01*
X76479400Y-94598066D01*
X76437066Y-94555733D01*
X76394733Y-94598066D01*
X65761691Y-94598066D01*
X65264098Y-94493369D01*
X64329252Y-94261634D01*
X63389688Y-93997650D01*
X62489570Y-93714489D01*
X61673057Y-93425225D01*
X61035478Y-93165750D01*
X60562066Y-92956384D01*
X60088654Y-93165750D01*
X59074030Y-93569866D01*
X57931546Y-93946521D01*
X56701792Y-94285553D01*
X55425357Y-94576799D01*
X54142829Y-94810097D01*
X52894797Y-94975285D01*
X52837799Y-94981189D01*
X52367127Y-95015911D01*
X51772070Y-95039099D01*
X51084210Y-95051321D01*
X50335125Y-95053147D01*
X49556397Y-95045146D01*
X48779605Y-95027886D01*
X48036331Y-95001936D01*
X47358155Y-94967866D01*
X46776656Y-94926243D01*
X46323416Y-94877638D01*
X46218164Y-94861941D01*
X45862671Y-94807175D01*
X45575487Y-94769023D01*
X45393512Y-94752034D01*
X45348806Y-94754771D01*
X41701366Y-94754771D01*
X41549462Y-94680415D01*
X39634330Y-93619238D01*
X37830081Y-92489062D01*
X37194066Y-92054286D01*
X36533338Y-91578018D01*
X35814771Y-91036725D01*
X35066544Y-90453386D01*
X34316837Y-89850981D01*
X33593828Y-89252491D01*
X32925699Y-88680895D01*
X32340628Y-88159173D01*
X31866794Y-87710305D01*
X31865047Y-87708574D01*
X30705653Y-86499829D01*
X29535440Y-85165623D01*
X28384719Y-83744759D01*
X27283801Y-82276039D01*
X26262998Y-80798265D01*
X25407868Y-79442733D01*
X24155138Y-77189088D01*
X23044269Y-74844203D01*
X22076389Y-72411008D01*
X21252627Y-69892433D01*
X20574110Y-67291409D01*
X20371073Y-66361733D01*
X20133733Y-65218733D01*
X20133733Y-58289612D01*
X21056932Y-58289612D01*
X21063665Y-59230650D01*
X21083492Y-60137341D01*
X21116411Y-60975824D01*
X21162424Y-61712236D01*
X21219656Y-62297733D01*
X21574972Y-64692195D01*
X22035845Y-66977458D01*
X22609932Y-69182485D01*
X23304886Y-71336239D01*
X24128362Y-73467684D01*
X24244767Y-73743503D01*
X24411716Y-74130400D01*
X24554592Y-74452193D01*
X24660905Y-74681458D01*
X24718165Y-74790768D01*
X24724082Y-74795939D01*
X24719354Y-74708861D01*
X24687651Y-74496531D01*
X24635278Y-74199728D01*
X24616962Y-74102835D01*
X24438449Y-72956989D01*
X24314337Y-71691978D01*
X24244598Y-70348985D01*
X24229200Y-68969192D01*
X24231928Y-68872743D01*
X25604922Y-68872743D01*
X25659478Y-70788331D01*
X25871531Y-72704562D01*
X26238488Y-74609378D01*
X26757754Y-76490719D01*
X27426734Y-78336527D01*
X28242833Y-80134741D01*
X29203458Y-81873304D01*
X29786809Y-82791235D01*
X30290308Y-83527963D01*
X30756151Y-84163667D01*
X31222502Y-84744909D01*
X31727525Y-85318247D01*
X32309386Y-85930243D01*
X32604096Y-86228289D01*
X33486496Y-87087903D01*
X34307280Y-87833268D01*
X35098377Y-88491282D01*
X35891719Y-89088842D01*
X36491300Y-89502794D01*
X38244588Y-90570150D01*
X40077562Y-91489583D01*
X41982756Y-92258353D01*
X43952706Y-92873720D01*
X45979944Y-93332944D01*
X47608066Y-93582435D01*
X48272575Y-93642843D01*
X49052180Y-93680493D01*
X49894177Y-93695357D01*
X50745862Y-93687411D01*
X51554530Y-93656627D01*
X52267477Y-93602979D01*
X52434585Y-93584823D01*
X54004317Y-93357823D01*
X55496930Y-93049166D01*
X56991182Y-92641419D01*
X57670412Y-92425813D01*
X58715758Y-92080923D01*
X62408374Y-92080923D01*
X63453720Y-92425813D01*
X65296798Y-92961405D01*
X67142982Y-93355555D01*
X68974582Y-93606209D01*
X70773909Y-93711313D01*
X72523275Y-93668811D01*
X73431918Y-93584823D01*
X75443739Y-93268669D01*
X77410608Y-92800912D01*
X79322270Y-92187005D01*
X81168470Y-91432403D01*
X82938956Y-90542559D01*
X84623472Y-89522930D01*
X86211765Y-88378968D01*
X87693580Y-87116128D01*
X89058662Y-85739865D01*
X89807022Y-84874604D01*
X91011307Y-83282520D01*
X92080306Y-81610507D01*
X93010914Y-79870069D01*
X93800028Y-78072709D01*
X94444542Y-76229930D01*
X94941354Y-74353236D01*
X95287358Y-72454130D01*
X95479451Y-70544114D01*
X95514528Y-68634693D01*
X95389486Y-66737370D01*
X95145449Y-65091733D01*
X95034417Y-64554128D01*
X94893025Y-63949470D01*
X94729652Y-63306799D01*
X94552676Y-62655154D01*
X94370474Y-62023574D01*
X94191425Y-61441100D01*
X94023907Y-60936769D01*
X93876297Y-60539622D01*
X93756972Y-60278698D01*
X93756793Y-60278378D01*
X93688923Y-60267117D01*
X93572166Y-60400549D01*
X93414999Y-60659253D01*
X92882136Y-61535199D01*
X92236018Y-62472299D01*
X91503321Y-63436353D01*
X90710723Y-64393160D01*
X89884900Y-65308522D01*
X89393923Y-65814256D01*
X87845711Y-67245579D01*
X86208495Y-68533182D01*
X84485685Y-69675240D01*
X82680691Y-70669926D01*
X80796923Y-71515412D01*
X78837792Y-72209872D01*
X76806707Y-72751480D01*
X76204345Y-72879769D01*
X75914919Y-72950527D01*
X75754760Y-73029172D01*
X75684331Y-73136918D01*
X75677876Y-73162212D01*
X75645608Y-73326420D01*
X75593335Y-73607571D01*
X75530269Y-73955814D01*
X75503018Y-74108733D01*
X75073157Y-76053113D01*
X74483705Y-77957598D01*
X73741762Y-79812090D01*
X72854429Y-81606489D01*
X71828806Y-83330697D01*
X70671993Y-84974614D01*
X69391091Y-86528142D01*
X67993200Y-87981182D01*
X66485420Y-89323635D01*
X64874851Y-90545401D01*
X63187518Y-91625329D01*
X62408374Y-92080923D01*
X58715758Y-92080923D01*
X57936615Y-91625329D01*
X56231354Y-90532880D01*
X54621858Y-89309756D01*
X53115227Y-87966054D01*
X51718562Y-86511874D01*
X50438963Y-84957315D01*
X49283530Y-83312477D01*
X48259363Y-81587456D01*
X47373563Y-79792354D01*
X46633230Y-77937268D01*
X46045465Y-76032298D01*
X45621114Y-74108733D01*
X45556269Y-73747256D01*
X45498384Y-73432117D01*
X45486463Y-73369545D01*
X46967479Y-73369545D01*
X46970711Y-73416587D01*
X46973217Y-73428792D01*
X47432588Y-75337436D01*
X47978615Y-77118245D01*
X48620581Y-78794011D01*
X49367767Y-80387519D01*
X50229454Y-81921560D01*
X50790175Y-82800271D01*
X51893251Y-84338962D01*
X53061871Y-85736065D01*
X54318089Y-87013643D01*
X55683957Y-88193762D01*
X57181530Y-89298487D01*
X57499045Y-89512495D01*
X57831903Y-89726613D01*
X58228439Y-89970730D01*
X58662148Y-90229753D01*
X59106521Y-90488586D01*
X59535053Y-90732137D01*
X59921237Y-90945311D01*
X60238565Y-91113014D01*
X60460530Y-91220152D01*
X60554383Y-91252325D01*
X60638061Y-91215778D01*
X60842471Y-91114784D01*
X61138608Y-90963970D01*
X61497471Y-90777967D01*
X61570383Y-90739839D01*
X62703954Y-90096441D01*
X63866262Y-89344727D01*
X65012029Y-88517884D01*
X66095981Y-87649096D01*
X67072843Y-86771550D01*
X67335893Y-86513901D01*
X68563228Y-85175271D01*
X69710406Y-83703686D01*
X70763421Y-82122068D01*
X71708265Y-80453341D01*
X72530928Y-78720428D01*
X73217404Y-76946252D01*
X73261302Y-76817233D01*
X73417724Y-76319008D01*
X73593208Y-75703055D01*
X73774998Y-75017964D01*
X73950337Y-74312322D01*
X74106468Y-73634719D01*
X74150915Y-73428792D01*
X74157567Y-73379203D01*
X74142148Y-73340499D01*
X74086757Y-73311656D01*
X73973495Y-73291648D01*
X73784462Y-73279452D01*
X73501756Y-73274041D01*
X73107479Y-73274391D01*
X72583729Y-73279477D01*
X71912607Y-73288273D01*
X71738777Y-73290668D01*
X70744717Y-73299012D01*
X69886718Y-73293031D01*
X69131951Y-73270672D01*
X68447588Y-73229877D01*
X67800802Y-73168590D01*
X67158764Y-73084755D01*
X66488646Y-72976316D01*
X66361733Y-72953887D01*
X65383492Y-72756712D01*
X64368040Y-72511467D01*
X63359495Y-72230971D01*
X62401976Y-71928041D01*
X61539602Y-71615495D01*
X61035478Y-71406416D01*
X60562066Y-71197051D01*
X60088654Y-71406416D01*
X59315032Y-71718221D01*
X58416609Y-72029027D01*
X57437503Y-72326016D01*
X56421833Y-72596368D01*
X55413718Y-72827268D01*
X54762400Y-72953887D01*
X54083686Y-73067001D01*
X53438996Y-73155139D01*
X52795504Y-73220357D01*
X52120381Y-73264711D01*
X51380798Y-73290257D01*
X50543929Y-73299051D01*
X49576944Y-73293149D01*
X49385356Y-73290668D01*
X48678468Y-73281176D01*
X48122996Y-73275162D01*
X47701039Y-73273653D01*
X47394697Y-73277673D01*
X47186071Y-73288247D01*
X47057259Y-73306401D01*
X46990362Y-73333158D01*
X46967479Y-73369545D01*
X45486463Y-73369545D01*
X45456669Y-73213168D01*
X45446256Y-73162212D01*
X45388307Y-73046607D01*
X45248080Y-72964101D01*
X44986035Y-72893479D01*
X44919787Y-72879769D01*
X42868461Y-72382859D01*
X40888099Y-71732565D01*
X38982111Y-70930715D01*
X37153908Y-69979136D01*
X35406899Y-68879655D01*
X33744494Y-67634098D01*
X32170103Y-66244291D01*
X31730210Y-65814256D01*
X30897303Y-64939291D01*
X30081914Y-64002745D01*
X29310720Y-63038817D01*
X28610399Y-62081707D01*
X28007627Y-61165616D01*
X27709134Y-60659253D01*
X27541554Y-60385621D01*
X27428614Y-60263092D01*
X27367339Y-60278378D01*
X27248072Y-60539037D01*
X27100504Y-60935971D01*
X26933013Y-61440138D01*
X26753977Y-62022501D01*
X26571774Y-62654020D01*
X26394781Y-63305655D01*
X26231377Y-63948368D01*
X26089940Y-64553117D01*
X25978846Y-65090866D01*
X25978683Y-65091733D01*
X25710459Y-66969857D01*
X25604922Y-68872743D01*
X24231928Y-68872743D01*
X24268115Y-67593781D01*
X24361312Y-66263934D01*
X24508763Y-65020834D01*
X24624016Y-64329733D01*
X24898311Y-63065105D01*
X25246586Y-61768287D01*
X25650371Y-60500872D01*
X26091197Y-59324453D01*
X26210894Y-59038066D01*
X26500957Y-58360733D01*
X26500099Y-58358729D01*
X28225855Y-58358729D01*
X28653307Y-59164064D01*
X29230679Y-60168927D01*
X29915525Y-61222317D01*
X30674337Y-62278959D01*
X31473609Y-63293578D01*
X32279836Y-64220900D01*
X32789898Y-64753559D01*
X34079868Y-65937339D01*
X35504444Y-67053755D01*
X37036771Y-68086477D01*
X38649997Y-69019178D01*
X40317268Y-69835529D01*
X42011731Y-70519204D01*
X42612733Y-70726257D01*
X42908179Y-70818903D01*
X43286148Y-70930996D01*
X43709260Y-71052207D01*
X44140133Y-71172205D01*
X44541385Y-71280659D01*
X44875637Y-71367238D01*
X45105506Y-71421614D01*
X45173900Y-71434050D01*
X45191166Y-71355296D01*
X45206647Y-71129660D01*
X45219673Y-70779587D01*
X45229576Y-70327523D01*
X45235687Y-69795917D01*
X45237400Y-69303381D01*
X45242685Y-68791500D01*
X46604904Y-68791500D01*
X46612266Y-69941500D01*
X46628154Y-70457698D01*
X46646888Y-70914784D01*
X46666998Y-71286229D01*
X46687015Y-71545504D01*
X46705468Y-71666081D01*
X46708069Y-71670625D01*
X46833064Y-71716842D01*
X47099826Y-71764091D01*
X47480820Y-71810075D01*
X47948512Y-71852494D01*
X48475368Y-71889049D01*
X49033855Y-71917440D01*
X49596438Y-71935369D01*
X49936918Y-71940234D01*
X50527521Y-71935343D01*
X51157680Y-71915325D01*
X51764924Y-71883051D01*
X52286780Y-71841391D01*
X52434585Y-71825489D01*
X54004317Y-71598490D01*
X55496930Y-71289833D01*
X56991182Y-70882086D01*
X57670412Y-70666480D01*
X58715758Y-70321590D01*
X62408374Y-70321590D01*
X63453720Y-70666480D01*
X65278955Y-71201870D01*
X67096396Y-71596733D01*
X68605400Y-71823101D01*
X69210456Y-71878202D01*
X69933644Y-71914531D01*
X70724800Y-71932002D01*
X71533754Y-71930529D01*
X72310342Y-71910024D01*
X73004397Y-71870401D01*
X73412779Y-71831418D01*
X73797387Y-71782404D01*
X74117246Y-71734702D01*
X74336511Y-71694115D01*
X74418022Y-71668666D01*
X74435502Y-71572361D01*
X74454845Y-71333244D01*
X74474613Y-70977803D01*
X74493365Y-70532525D01*
X74509663Y-70023901D01*
X74511866Y-69941500D01*
X74514027Y-68535217D01*
X74440097Y-67205873D01*
X74283729Y-65897501D01*
X74038573Y-64554130D01*
X73769665Y-63398400D01*
X73665927Y-63012178D01*
X73533675Y-62557043D01*
X73383824Y-62066702D01*
X73227287Y-61574864D01*
X73074979Y-61115236D01*
X72937814Y-60721526D01*
X72826706Y-60427443D01*
X72759460Y-60278378D01*
X72691589Y-60267117D01*
X72574833Y-60400549D01*
X72417665Y-60659253D01*
X72259534Y-60925318D01*
X72034374Y-61283231D01*
X71772227Y-61686088D01*
X71503764Y-62086066D01*
X70324493Y-63672350D01*
X69011456Y-65181453D01*
X67584179Y-66595109D01*
X66062188Y-67895048D01*
X64465012Y-69063003D01*
X63187518Y-69865996D01*
X62408374Y-70321590D01*
X58715758Y-70321590D01*
X57936615Y-69865996D01*
X56294589Y-68812930D01*
X54712611Y-67613718D01*
X53210207Y-66286628D01*
X51806906Y-64849928D01*
X50522233Y-63321885D01*
X49620369Y-62086066D01*
X49351256Y-61685105D01*
X49089161Y-61282299D01*
X48864126Y-60924551D01*
X48706467Y-60659253D01*
X48538888Y-60385621D01*
X48425947Y-60263092D01*
X48364673Y-60278378D01*
X48285304Y-60457682D01*
X48170333Y-60766097D01*
X48030672Y-61169915D01*
X47877236Y-61635426D01*
X47720939Y-62128925D01*
X47572695Y-62616701D01*
X47443418Y-63065048D01*
X47354467Y-63398400D01*
X47032507Y-64811406D01*
X46804492Y-66143945D01*
X46664074Y-67451987D01*
X46604904Y-68791500D01*
X45242685Y-68791500D01*
X45249363Y-68144774D01*
X45288370Y-67113205D01*
X45359096Y-66167861D01*
X45466214Y-65267930D01*
X45614400Y-64372600D01*
X45808328Y-63441059D01*
X46001032Y-62636400D01*
X46233601Y-61791566D01*
X46519064Y-60884360D01*
X46833175Y-59987052D01*
X47151689Y-59171910D01*
X47208227Y-59038066D01*
X47497431Y-58362737D01*
X49223188Y-58362737D01*
X49650939Y-59166068D01*
X50236712Y-60182939D01*
X50929700Y-61246539D01*
X51696200Y-62311333D01*
X52502512Y-63331787D01*
X53314932Y-64262365D01*
X53787232Y-64754567D01*
X54728572Y-65631959D01*
X55790735Y-66510282D01*
X56928658Y-67356480D01*
X58097274Y-68137496D01*
X59251521Y-68820276D01*
X59546066Y-68978869D01*
X59911902Y-69170288D01*
X60220510Y-69329451D01*
X60442805Y-69441526D01*
X60549702Y-69491685D01*
X60554383Y-69492991D01*
X60638061Y-69456445D01*
X60842471Y-69355450D01*
X61138608Y-69204637D01*
X61497471Y-69018634D01*
X61570383Y-68980506D01*
X62709558Y-68333700D01*
X63877632Y-67577598D01*
X65028939Y-66745666D01*
X66117815Y-65871367D01*
X67098595Y-64988168D01*
X67336901Y-64754567D01*
X68136969Y-63899044D01*
X68950975Y-62926561D01*
X69745217Y-61882654D01*
X70485991Y-60812856D01*
X71139597Y-59762703D01*
X71473194Y-59166068D01*
X71900944Y-58362737D01*
X71899881Y-58360733D01*
X73625842Y-58360733D01*
X73915905Y-59038066D01*
X74232613Y-59830483D01*
X74549330Y-60718218D01*
X74841810Y-61629002D01*
X75085809Y-62490565D01*
X75123100Y-62636400D01*
X75356768Y-63624387D01*
X75541139Y-64543356D01*
X75680867Y-65433966D01*
X75780604Y-66336873D01*
X75845004Y-67292737D01*
X75878719Y-68342215D01*
X75886733Y-69309086D01*
X75887399Y-69966795D01*
X75890284Y-70473998D01*
X75896716Y-70849523D01*
X75908022Y-71112193D01*
X75925532Y-71280836D01*
X75950574Y-71374277D01*
X75984475Y-71411342D01*
X76028564Y-71410857D01*
X76034900Y-71409081D01*
X76176779Y-71370535D01*
X76440231Y-71302014D01*
X76782538Y-71214554D01*
X77029733Y-71152110D01*
X78763749Y-70637006D01*
X80495658Y-69969640D01*
X82200080Y-69164380D01*
X83851632Y-68235592D01*
X85424933Y-67197642D01*
X86894600Y-66064897D01*
X88235252Y-64851723D01*
X88334234Y-64753559D01*
X89129298Y-63904433D01*
X89939068Y-62938126D01*
X90730108Y-61899804D01*
X91468983Y-60834634D01*
X92122258Y-59787782D01*
X92470527Y-59166068D01*
X92898277Y-58362737D01*
X92897214Y-58360733D01*
X94623176Y-58360733D01*
X94913387Y-59038066D01*
X95552795Y-60714300D01*
X96081680Y-62491331D01*
X96490955Y-64334365D01*
X96759823Y-66107214D01*
X96812085Y-66690434D01*
X96850152Y-67402673D01*
X96874045Y-68204215D01*
X96883791Y-69055345D01*
X96879411Y-69916346D01*
X96860932Y-70747503D01*
X96828376Y-71509100D01*
X96781767Y-72161421D01*
X96756008Y-72410507D01*
X96695045Y-72872908D01*
X96613144Y-73411444D01*
X96517803Y-73984016D01*
X96416519Y-74548521D01*
X96316790Y-75062860D01*
X96226112Y-75484931D01*
X96165479Y-75726608D01*
X96160025Y-75784498D01*
X96211846Y-75707479D01*
X96311436Y-75516251D01*
X96449287Y-75231513D01*
X96615892Y-74873963D01*
X96801744Y-74464302D01*
X96997336Y-74023229D01*
X97193161Y-73571442D01*
X97379713Y-73129642D01*
X97547483Y-72718528D01*
X97550193Y-72711733D01*
X98426646Y-70290932D01*
X99141290Y-67832733D01*
X99692559Y-65345190D01*
X100078890Y-62836357D01*
X100298719Y-60314290D01*
X100353652Y-58276066D01*
X100269232Y-55748411D01*
X100016955Y-53227757D01*
X99598296Y-50721702D01*
X99014730Y-48237846D01*
X98267733Y-45783784D01*
X97550790Y-43840400D01*
X97388771Y-43443574D01*
X97203987Y-43007153D01*
X97006101Y-42552091D01*
X96804776Y-42099342D01*
X96609675Y-41669863D01*
X96430462Y-41284607D01*
X96276799Y-40964530D01*
X96158349Y-40730587D01*
X96084774Y-40603733D01*
X96065739Y-40604923D01*
X96072341Y-40634256D01*
X96155593Y-40974146D01*
X96257960Y-41432223D01*
X96369473Y-41959860D01*
X96480160Y-42508426D01*
X96580053Y-43029294D01*
X96659180Y-43473834D01*
X96677594Y-43586400D01*
X96730018Y-44016722D01*
X96775286Y-44584039D01*
X96812799Y-45256138D01*
X96841958Y-46000807D01*
X96862165Y-46785834D01*
X96872821Y-47579006D01*
X96873328Y-48348112D01*
X96863087Y-49060940D01*
X96841500Y-49685276D01*
X96807967Y-50188910D01*
X96801522Y-50255465D01*
X96560125Y-52004762D01*
X96197762Y-53757161D01*
X95725774Y-55468053D01*
X95155500Y-57092830D01*
X94913239Y-57683400D01*
X94623176Y-58360733D01*
X92897214Y-58360733D01*
X92470826Y-57557401D01*
X91893453Y-56552538D01*
X91208608Y-55499149D01*
X90449796Y-54442507D01*
X89650523Y-53427888D01*
X88844296Y-52500566D01*
X88334234Y-51967906D01*
X87004778Y-50749030D01*
X85544315Y-49609455D01*
X83978228Y-48563549D01*
X82331897Y-47625677D01*
X80630706Y-46810205D01*
X78900036Y-46131502D01*
X77165267Y-45603932D01*
X77029733Y-45569356D01*
X76658874Y-45475459D01*
X76338806Y-45393253D01*
X76112248Y-45333772D01*
X76034900Y-45312384D01*
X75989434Y-45308508D01*
X75954324Y-45339813D01*
X75928241Y-45425126D01*
X75909857Y-45583271D01*
X75897843Y-45833076D01*
X75890871Y-46193366D01*
X75887613Y-46682966D01*
X75886740Y-47320703D01*
X75886733Y-47412379D01*
X75874864Y-48569908D01*
X75836157Y-49600220D01*
X75765957Y-50543976D01*
X75659612Y-51441832D01*
X75512469Y-52334448D01*
X75319874Y-53262481D01*
X75123100Y-54085066D01*
X74891000Y-54928464D01*
X74606343Y-55833649D01*
X74293226Y-56728787D01*
X73975747Y-57542042D01*
X73916054Y-57683400D01*
X73625842Y-58360733D01*
X71899881Y-58360733D01*
X71473492Y-57557401D01*
X70896040Y-56552413D01*
X70210986Y-55498753D01*
X69451717Y-54441544D01*
X68651617Y-53425903D01*
X67844073Y-52496952D01*
X67336901Y-51966898D01*
X66384766Y-51079806D01*
X65311816Y-50193871D01*
X64163494Y-49342376D01*
X62985241Y-48558601D01*
X61822502Y-47875825D01*
X61556900Y-47733878D01*
X60562066Y-47212902D01*
X59567233Y-47733878D01*
X58414713Y-48388142D01*
X57236019Y-49151213D01*
X56076596Y-49989811D01*
X54981886Y-50870654D01*
X53997332Y-51760463D01*
X53787232Y-51966898D01*
X52992517Y-52816360D01*
X52183800Y-53781495D01*
X51394467Y-54817184D01*
X50657904Y-55878306D01*
X50007495Y-56919743D01*
X49650640Y-57557401D01*
X49223188Y-58362737D01*
X47497431Y-58362737D01*
X47498290Y-58360733D01*
X47208079Y-57683400D01*
X46892529Y-56894194D01*
X46576696Y-56009255D01*
X46284676Y-55100417D01*
X46040566Y-54239515D01*
X46001032Y-54085066D01*
X45767364Y-53097079D01*
X45582993Y-52178109D01*
X45443266Y-51287500D01*
X45343529Y-50384593D01*
X45279129Y-49428729D01*
X45245413Y-48379251D01*
X45243814Y-48186249D01*
X46610105Y-48186249D01*
X46684035Y-49515592D01*
X46840403Y-50823965D01*
X47085560Y-52167336D01*
X47354467Y-53323066D01*
X47456193Y-53703177D01*
X47583160Y-54142222D01*
X47726259Y-54612519D01*
X47876379Y-55086386D01*
X48024408Y-55536141D01*
X48161236Y-55934102D01*
X48277751Y-56252587D01*
X48364843Y-56463913D01*
X48413376Y-56540400D01*
X48464122Y-56472643D01*
X48572589Y-56295240D01*
X48711347Y-56053566D01*
X48867369Y-55791206D01*
X49090649Y-55436542D01*
X49351404Y-55036038D01*
X49619850Y-54636159D01*
X49620369Y-54635400D01*
X50799639Y-53049116D01*
X52112676Y-51540012D01*
X53539954Y-50126357D01*
X55061944Y-48826418D01*
X56659120Y-47658463D01*
X57936615Y-46855470D01*
X58715758Y-46399876D01*
X62408374Y-46399876D01*
X63187518Y-46855470D01*
X64829543Y-47908536D01*
X66411521Y-49107748D01*
X67913925Y-50434838D01*
X69317227Y-51871538D01*
X70601899Y-53399580D01*
X71503764Y-54635400D01*
X71772876Y-55036361D01*
X72034971Y-55439167D01*
X72260006Y-55796915D01*
X72417665Y-56062213D01*
X72585245Y-56335845D01*
X72698185Y-56458374D01*
X72759460Y-56443088D01*
X72810449Y-56322415D01*
X72903067Y-56076249D01*
X73024536Y-55739451D01*
X73162073Y-55346880D01*
X73173905Y-55312608D01*
X73727835Y-53475514D01*
X74151642Y-51565746D01*
X74435056Y-49630251D01*
X74451753Y-49471834D01*
X74476903Y-49136677D01*
X74495593Y-48706030D01*
X74508030Y-48207280D01*
X74514424Y-47667815D01*
X74514984Y-47115023D01*
X74509918Y-46576291D01*
X74499437Y-46079005D01*
X74483748Y-45650554D01*
X74463061Y-45318325D01*
X74437586Y-45109706D01*
X74418022Y-45052800D01*
X74295974Y-45008701D01*
X74033443Y-44962438D01*
X73659218Y-44916425D01*
X73202089Y-44873078D01*
X72690843Y-44834812D01*
X72154270Y-44804044D01*
X71621158Y-44783188D01*
X71120296Y-44774660D01*
X71102547Y-44774612D01*
X69263332Y-44845963D01*
X67422099Y-45069673D01*
X65562509Y-45448477D01*
X63668221Y-45985111D01*
X63453720Y-46054986D01*
X62408374Y-46399876D01*
X58715758Y-46399876D01*
X57670412Y-46054986D01*
X55771234Y-45500549D01*
X53908578Y-45104247D01*
X52066105Y-44863346D01*
X50227475Y-44775109D01*
X50021585Y-44774612D01*
X49522490Y-44782631D01*
X48990067Y-44803069D01*
X48453104Y-44833510D01*
X47940391Y-44871538D01*
X47480717Y-44914738D01*
X47102869Y-44960695D01*
X46835637Y-45006993D01*
X46707810Y-45051216D01*
X46706111Y-45052800D01*
X46688630Y-45149104D01*
X46669287Y-45388222D01*
X46649520Y-45743663D01*
X46630767Y-46188940D01*
X46614470Y-46697565D01*
X46612266Y-46779965D01*
X46610105Y-48186249D01*
X45243814Y-48186249D01*
X45237400Y-47412379D01*
X45236733Y-46754671D01*
X45233848Y-46247467D01*
X45227417Y-45871943D01*
X45216110Y-45609272D01*
X45198600Y-45440629D01*
X45173559Y-45347188D01*
X45139658Y-45310123D01*
X45095568Y-45310609D01*
X45089233Y-45312384D01*
X44947354Y-45350931D01*
X44683901Y-45419451D01*
X44341594Y-45506912D01*
X44094400Y-45569356D01*
X42360384Y-46084460D01*
X40628474Y-46751825D01*
X38924052Y-47557085D01*
X37272500Y-48485874D01*
X35699200Y-49523824D01*
X34229533Y-50656569D01*
X32888880Y-51869742D01*
X32789898Y-51967906D01*
X31994834Y-52817033D01*
X31185064Y-53783340D01*
X30394024Y-54821661D01*
X29655149Y-55886831D01*
X29001874Y-56933684D01*
X28653605Y-57555398D01*
X28225855Y-58358729D01*
X26500099Y-58358729D01*
X26210745Y-57683400D01*
X25895196Y-56894194D01*
X25579363Y-56009255D01*
X25287343Y-55100417D01*
X25043233Y-54239515D01*
X25003699Y-54085066D01*
X24763500Y-53066364D01*
X24575321Y-52117615D01*
X24434234Y-51196200D01*
X24335311Y-50259500D01*
X24273625Y-49264896D01*
X24244245Y-48169768D01*
X24240066Y-47481066D01*
X24244148Y-47085328D01*
X25593224Y-47085328D01*
X25634631Y-48859029D01*
X25824466Y-50653423D01*
X26162726Y-52493441D01*
X26358365Y-53323066D01*
X26459345Y-53701849D01*
X26585712Y-54139964D01*
X26728354Y-54609702D01*
X26878164Y-55083351D01*
X27026032Y-55533201D01*
X27162847Y-55931541D01*
X27279499Y-56250661D01*
X27366881Y-56462849D01*
X27415880Y-56540396D01*
X27416042Y-56540400D01*
X27466788Y-56472643D01*
X27575255Y-56295240D01*
X27714014Y-56053566D01*
X28239951Y-55188897D01*
X28878648Y-54262030D01*
X29603539Y-53307008D01*
X30388059Y-52357872D01*
X31205640Y-51448664D01*
X31730210Y-50907210D01*
X33278422Y-49475887D01*
X34915638Y-48188283D01*
X36638448Y-47046225D01*
X38443442Y-46051540D01*
X40327209Y-45206054D01*
X42286340Y-44511593D01*
X44317425Y-43969986D01*
X44919787Y-43841696D01*
X45209214Y-43770939D01*
X45369372Y-43692294D01*
X45439802Y-43584548D01*
X45446256Y-43559253D01*
X45478525Y-43395046D01*
X45488338Y-43342263D01*
X46966565Y-43342263D01*
X46981984Y-43380967D01*
X47037375Y-43409810D01*
X47150637Y-43429817D01*
X47339671Y-43442014D01*
X47622376Y-43447425D01*
X48016654Y-43447075D01*
X48540403Y-43441989D01*
X49211525Y-43433193D01*
X49385356Y-43430797D01*
X50565540Y-43424571D01*
X51612249Y-43443019D01*
X52560016Y-43489693D01*
X53443377Y-43568142D01*
X54296864Y-43681917D01*
X55155014Y-43834569D01*
X56052359Y-44029648D01*
X56667400Y-44179467D01*
X57181872Y-44318386D01*
X57747971Y-44486807D01*
X58335230Y-44674105D01*
X58913186Y-44869653D01*
X59451372Y-45062827D01*
X59919322Y-45243000D01*
X60286572Y-45399546D01*
X60522656Y-45521840D01*
X60530364Y-45526796D01*
X60606597Y-45499121D01*
X60794822Y-45420086D01*
X61024943Y-45319708D01*
X61810634Y-45003002D01*
X62720889Y-44688250D01*
X63711293Y-44388372D01*
X64737431Y-44116283D01*
X65754889Y-43884902D01*
X66361733Y-43767579D01*
X67040447Y-43654465D01*
X67685136Y-43566326D01*
X68328628Y-43501109D01*
X69003751Y-43456755D01*
X69743334Y-43431209D01*
X70580204Y-43422415D01*
X71547189Y-43428317D01*
X71738777Y-43430797D01*
X72445664Y-43440290D01*
X73001136Y-43446304D01*
X73423093Y-43447813D01*
X73729435Y-43443793D01*
X73938062Y-43433219D01*
X74066873Y-43415065D01*
X74133771Y-43388307D01*
X74156653Y-43351920D01*
X74153422Y-43304879D01*
X74150915Y-43292673D01*
X74003766Y-42634628D01*
X73833266Y-41932765D01*
X73652172Y-41235672D01*
X73473241Y-40591938D01*
X73309230Y-40050152D01*
X73261302Y-39904233D01*
X72585196Y-38127966D01*
X71771891Y-36391308D01*
X70835396Y-34717182D01*
X69789719Y-33128510D01*
X68648866Y-31648217D01*
X67426847Y-30299225D01*
X67335893Y-30207565D01*
X66391693Y-29326731D01*
X65326448Y-28445979D01*
X64185214Y-27598313D01*
X63013050Y-26816735D01*
X61855010Y-26134250D01*
X61556900Y-25974544D01*
X60562066Y-25453569D01*
X59567233Y-25974544D01*
X58420458Y-26625316D01*
X57247647Y-27383905D01*
X56093854Y-28217308D01*
X55004139Y-29092523D01*
X54023556Y-29976544D01*
X53788240Y-30207565D01*
X52560905Y-31546195D01*
X51413726Y-33017780D01*
X50360711Y-34599398D01*
X49415868Y-36268125D01*
X48593204Y-38001038D01*
X47906728Y-39775214D01*
X47862831Y-39904233D01*
X47706409Y-40402458D01*
X47530924Y-41018410D01*
X47349134Y-41703502D01*
X47173795Y-42409144D01*
X47017664Y-43086747D01*
X46973217Y-43292673D01*
X46966565Y-43342263D01*
X45488338Y-43342263D01*
X45530797Y-43113895D01*
X45593863Y-42765652D01*
X45621114Y-42612733D01*
X46050975Y-40668353D01*
X46640427Y-38763868D01*
X47382370Y-36909376D01*
X48269703Y-35114977D01*
X49295326Y-33390769D01*
X50452139Y-31746852D01*
X51733041Y-30193324D01*
X53130933Y-28740284D01*
X54638713Y-27397831D01*
X56249281Y-26176064D01*
X57936615Y-25096137D01*
X58715758Y-24640542D01*
X62408374Y-24640542D01*
X63187518Y-25096137D01*
X64892778Y-26188585D01*
X66502274Y-27411710D01*
X68008905Y-28755412D01*
X69405570Y-30209591D01*
X70685169Y-31764150D01*
X71840603Y-33408989D01*
X72864769Y-35134009D01*
X73750569Y-36929112D01*
X74490902Y-38784198D01*
X75078668Y-40689168D01*
X75503018Y-42612733D01*
X75567863Y-42974210D01*
X75625748Y-43289348D01*
X75667464Y-43508298D01*
X75677876Y-43559253D01*
X75735826Y-43674858D01*
X75876053Y-43757365D01*
X76138097Y-43827987D01*
X76204345Y-43841696D01*
X78255671Y-44338607D01*
X80236033Y-44988901D01*
X82142021Y-45790750D01*
X83970224Y-46742329D01*
X85717234Y-47841811D01*
X87379639Y-49087368D01*
X88954029Y-50477175D01*
X89393923Y-50907210D01*
X90226830Y-51782174D01*
X91042219Y-52718721D01*
X91813413Y-53682649D01*
X92513734Y-54639758D01*
X93116505Y-55555849D01*
X93414999Y-56062213D01*
X93582578Y-56335845D01*
X93695519Y-56458374D01*
X93756793Y-56443088D01*
X93807782Y-56322415D01*
X93900401Y-56076249D01*
X94021869Y-55739451D01*
X94159406Y-55346880D01*
X94171238Y-55312608D01*
X94737111Y-53442583D01*
X95154276Y-51553200D01*
X95418831Y-49666961D01*
X95526874Y-47806371D01*
X95529400Y-47481066D01*
X95446521Y-45569657D01*
X95202147Y-43660430D01*
X94802668Y-41766948D01*
X94254475Y-39902771D01*
X93563959Y-38081461D01*
X92737512Y-36316580D01*
X91781523Y-34621689D01*
X90702386Y-33010350D01*
X89506489Y-31496124D01*
X88200225Y-30092572D01*
X86789985Y-28813256D01*
X86694938Y-28734777D01*
X85121780Y-27547380D01*
X83444254Y-26477459D01*
X81684666Y-25536308D01*
X79865321Y-24735219D01*
X78008527Y-24085485D01*
X76902733Y-23777267D01*
X74971664Y-23363555D01*
X73077861Y-23108204D01*
X71207014Y-23011765D01*
X69344811Y-23074791D01*
X67476941Y-23297833D01*
X65589093Y-23681443D01*
X63666956Y-24226171D01*
X63453720Y-24295652D01*
X62408374Y-24640542D01*
X58715758Y-24640542D01*
X57670412Y-24295652D01*
X55740487Y-23733903D01*
X53843007Y-23334009D01*
X51967079Y-23094131D01*
X50101807Y-23012433D01*
X50063399Y-23012399D01*
X48151990Y-23095278D01*
X46242764Y-23339652D01*
X44349281Y-23739131D01*
X42485104Y-24287324D01*
X40663795Y-24977840D01*
X38898914Y-25804287D01*
X37204023Y-26760276D01*
X35592683Y-27839413D01*
X34078457Y-29035310D01*
X32674905Y-30341574D01*
X31395589Y-31751814D01*
X31317111Y-31846861D01*
X30129713Y-33420019D01*
X29059793Y-35097545D01*
X28118641Y-36857133D01*
X27317552Y-38676478D01*
X26667819Y-40533272D01*
X26359600Y-41639066D01*
X25955706Y-43500278D01*
X25700248Y-45307389D01*
X25593224Y-47085328D01*
X24244148Y-47085328D01*
X24251471Y-46375550D01*
X24287873Y-45397829D01*
X24352549Y-44507762D01*
X24448778Y-43665210D01*
X24579840Y-42830032D01*
X24651541Y-42443400D01*
X24718208Y-42088467D01*
X24768072Y-41802631D01*
X24795099Y-41621801D01*
X24797192Y-41576920D01*
X24759609Y-41643258D01*
X24668153Y-41839189D01*
X24534721Y-42138270D01*
X24371211Y-42514054D01*
X24282971Y-42719920D01*
X23453613Y-44808415D01*
X22751721Y-46895122D01*
X22168329Y-49013801D01*
X21694473Y-51198207D01*
X21321186Y-53482097D01*
X21219656Y-54254400D01*
X21160925Y-54859238D01*
X21115288Y-55599040D01*
X21082743Y-56439945D01*
X21063291Y-57348090D01*
X21056932Y-58289612D01*
X20133733Y-58289612D01*
X20133733Y-51333400D01*
X20371073Y-50190400D01*
X20829718Y-48179423D01*
X21349740Y-46287247D01*
X21946142Y-44469815D01*
X22633926Y-42683067D01*
X23428097Y-40882945D01*
X23816360Y-40072733D01*
X25039004Y-37768914D01*
X26400392Y-35558108D01*
X27894378Y-33445688D01*
X29514818Y-31437026D01*
X31255566Y-29537495D01*
X33110477Y-27752468D01*
X35073405Y-26087318D01*
X37138205Y-24547416D01*
X39298731Y-23138136D01*
X41087442Y-22125945D01*
X44578042Y-22125945D01*
X44666567Y-22122203D01*
X44878849Y-22091418D01*
X45172627Y-22039890D01*
X45237400Y-22027657D01*
X46095751Y-21884635D01*
X46992805Y-21778713D01*
X47961877Y-21707339D01*
X49036281Y-21667959D01*
X50063400Y-21657733D01*
X51235266Y-21670833D01*
X52282208Y-21713420D01*
X53246845Y-21790421D01*
X54171796Y-21906764D01*
X55099680Y-22067378D01*
X56073116Y-22277191D01*
X56667400Y-22421365D01*
X57180133Y-22559295D01*
X57745144Y-22726995D01*
X58331883Y-22913821D01*
X58909798Y-23109126D01*
X59448339Y-23302265D01*
X59916955Y-23482591D01*
X60285096Y-23639460D01*
X60522211Y-23762224D01*
X60530364Y-23767463D01*
X60606597Y-23739788D01*
X60794822Y-23660753D01*
X61024943Y-23560375D01*
X61522245Y-23357136D01*
X62134619Y-23132713D01*
X62812070Y-22903697D01*
X63504605Y-22686684D01*
X64162228Y-22498265D01*
X64456733Y-22421365D01*
X65002270Y-22292733D01*
X77156733Y-22292733D01*
X77199066Y-22335066D01*
X77241400Y-22292733D01*
X77199066Y-22250400D01*
X77156733Y-22292733D01*
X65002270Y-22292733D01*
X65475435Y-22181166D01*
X66424184Y-21992988D01*
X67345599Y-21851901D01*
X68282299Y-21752978D01*
X69276903Y-21691291D01*
X70372031Y-21661912D01*
X71060733Y-21657733D01*
X72166249Y-21669138D01*
X73143970Y-21705539D01*
X74034037Y-21770215D01*
X74876589Y-21866445D01*
X75711767Y-21997506D01*
X76098400Y-22069208D01*
X76454035Y-22135392D01*
X76741350Y-22183875D01*
X76924143Y-22208844D01*
X76970503Y-22209235D01*
X76906927Y-22169595D01*
X76714944Y-22077864D01*
X76422553Y-21946837D01*
X76057755Y-21789310D01*
X75973254Y-21753505D01*
X73696240Y-20872098D01*
X71370427Y-20132485D01*
X68977802Y-19529935D01*
X66500352Y-19059718D01*
X64795400Y-18817756D01*
X64212124Y-18759687D01*
X63497333Y-18711030D01*
X62688624Y-18672512D01*
X61823592Y-18644861D01*
X60939832Y-18628805D01*
X60074940Y-18625073D01*
X59266513Y-18634392D01*
X58552146Y-18657491D01*
X58061536Y-18687336D01*
X55432181Y-18979054D01*
X52849679Y-19433029D01*
X50309403Y-20050203D01*
X48243066Y-20682600D01*
X47821279Y-20828264D01*
X47347642Y-20999025D01*
X46846287Y-21185379D01*
X46341346Y-21377822D01*
X45856953Y-21566850D01*
X45417240Y-21742960D01*
X45046339Y-21896647D01*
X44768383Y-22018409D01*
X44607505Y-22098740D01*
X44578042Y-22125945D01*
X41087442Y-22125945D01*
X41548839Y-21864851D01*
X43882382Y-20732933D01*
X46293216Y-19747755D01*
X47586118Y-19291641D01*
X48743423Y-18928719D01*
X50008524Y-18574152D01*
X51320069Y-18244247D01*
X52603400Y-17958073D01*
X53746400Y-17720733D01*
X67631733Y-17720733D01*
X68774733Y-17958073D01*
D10*
X59118666Y-81724380D02*
X58785333Y-81248190D01*
X58547238Y-81724380D02*
X58547238Y-80724380D01*
X58928190Y-80724380D01*
X59023428Y-80772000D01*
X59071047Y-80819619D01*
X59118666Y-80914857D01*
X59118666Y-81057714D01*
X59071047Y-81152952D01*
X59023428Y-81200571D01*
X58928190Y-81248190D01*
X58547238Y-81248190D01*
X59547238Y-81200571D02*
X59880571Y-81200571D01*
X60023428Y-81724380D02*
X59547238Y-81724380D01*
X59547238Y-80724380D01*
X60023428Y-80724380D01*
X60785333Y-81200571D02*
X60452000Y-81200571D01*
X60452000Y-81724380D02*
X60452000Y-80724380D01*
X60928190Y-80724380D01*
X61452000Y-80724380D02*
X61452000Y-80962476D01*
X61213904Y-80867238D02*
X61452000Y-80962476D01*
X61690095Y-80867238D01*
X61309142Y-81152952D02*
X61452000Y-80962476D01*
X61594857Y-81152952D01*
X62213904Y-80724380D02*
X62213904Y-80962476D01*
X61975809Y-80867238D02*
X62213904Y-80962476D01*
X62452000Y-80867238D01*
X62071047Y-81152952D02*
X62213904Y-80962476D01*
X62356761Y-81152952D01*
M02*
