G04 #@! TF.GenerationSoftware,KiCad,Pcbnew,(6.0.5-0)*
G04 #@! TF.CreationDate,2023-09-16T19:37:22-05:00*
G04 #@! TF.ProjectId,bells-venn,62656c6c-732d-4766-956e-6e2e6b696361,rev?*
G04 #@! TF.SameCoordinates,Original*
G04 #@! TF.FileFunction,Soldermask,Bot*
G04 #@! TF.FilePolarity,Negative*
%FSLAX46Y46*%
G04 Gerber Fmt 4.6, Leading zero omitted, Abs format (unit mm)*
G04 Created by KiCad (PCBNEW (6.0.5-0)) date 2023-09-16 19:37:22*
%MOMM*%
%LPD*%
G01*
G04 APERTURE LIST*
%ADD10C,6.502000*%
%ADD11O,6.602000X3.302000*%
%ADD12C,9.102000*%
G04 APERTURE END LIST*
G36*
X49701124Y-60632147D02*
G01*
X49823057Y-60796415D01*
X49973709Y-61033089D01*
X50588127Y-61987835D01*
X51507107Y-63226224D01*
X52547388Y-64451900D01*
X53683815Y-65638927D01*
X54891233Y-66761369D01*
X56144484Y-67793290D01*
X57418414Y-68708754D01*
X57479581Y-68749630D01*
X57814138Y-68980605D01*
X58085987Y-69180537D01*
X58268571Y-69329220D01*
X58335334Y-69406445D01*
X58331997Y-69424572D01*
X58281533Y-69479909D01*
X58156515Y-69546975D01*
X57939178Y-69632330D01*
X57611758Y-69742535D01*
X57156493Y-69884151D01*
X56555619Y-70063738D01*
X56302396Y-70137159D01*
X55441864Y-70364575D01*
X54562468Y-70560347D01*
X53626598Y-70731561D01*
X52596645Y-70885306D01*
X51435000Y-71028667D01*
X51336227Y-71037468D01*
X51027282Y-71050382D01*
X50630843Y-71053951D01*
X50179012Y-71049299D01*
X49703894Y-71037552D01*
X49237591Y-71019837D01*
X48812207Y-70997279D01*
X48459846Y-70971003D01*
X48212611Y-70942136D01*
X48102605Y-70911804D01*
X48071941Y-70832272D01*
X48043322Y-70607438D01*
X48024113Y-70235354D01*
X48013966Y-69708727D01*
X48012534Y-69020266D01*
X48018385Y-68476282D01*
X48051974Y-67549866D01*
X48120508Y-66687158D01*
X48230380Y-65832692D01*
X48387984Y-64931006D01*
X48599714Y-63926635D01*
X48603493Y-63909849D01*
X48702695Y-63499983D01*
X48825572Y-63036797D01*
X48963692Y-62547404D01*
X49108628Y-62058916D01*
X49251949Y-61598446D01*
X49385227Y-61193107D01*
X49500032Y-60870011D01*
X49587934Y-60656271D01*
X49640504Y-60579000D01*
X49701124Y-60632147D01*
G37*
G36*
X46083846Y-45861579D02*
G01*
X46103594Y-46005881D01*
X46121333Y-46285033D01*
X46136045Y-46674729D01*
X46146714Y-47150664D01*
X46152320Y-47688531D01*
X46189437Y-49102146D01*
X46301270Y-50525114D01*
X46495703Y-51903667D01*
X46780995Y-53295446D01*
X47165406Y-54758096D01*
X47235713Y-54994285D01*
X47405990Y-55524750D01*
X47602066Y-56094367D01*
X47809074Y-56662861D01*
X48012144Y-57189956D01*
X48196409Y-57635376D01*
X48347000Y-57958845D01*
X48393263Y-58054627D01*
X48421026Y-58154108D01*
X48418487Y-58274412D01*
X48379090Y-58442804D01*
X48296278Y-58686546D01*
X48163494Y-59032904D01*
X47974182Y-59509142D01*
X47868460Y-59777479D01*
X47241093Y-61566947D01*
X46762655Y-63334550D01*
X46426344Y-65115181D01*
X46225363Y-66943735D01*
X46152910Y-68855107D01*
X46149154Y-69380521D01*
X46142236Y-69854285D01*
X46131080Y-70196394D01*
X46114101Y-70427149D01*
X46089713Y-70566847D01*
X46056332Y-70635789D01*
X46012370Y-70654273D01*
X45921046Y-70647354D01*
X45645149Y-70601242D01*
X45258001Y-70518682D01*
X44792615Y-70407700D01*
X44282000Y-70276318D01*
X43759168Y-70132564D01*
X43257129Y-69984462D01*
X43106802Y-69937814D01*
X41137577Y-69233903D01*
X39249023Y-68383138D01*
X37446468Y-67388437D01*
X35735241Y-66252719D01*
X34120667Y-64978903D01*
X33621420Y-64525798D01*
X32774538Y-63650373D01*
X31928719Y-62648762D01*
X31103568Y-61546250D01*
X30318686Y-60368123D01*
X29593677Y-59139666D01*
X29148916Y-58335333D01*
X29518125Y-57620887D01*
X29635306Y-57402922D01*
X29941727Y-56878220D01*
X30318986Y-56274864D01*
X30743079Y-55628333D01*
X31190002Y-54974111D01*
X31635752Y-54347677D01*
X32056324Y-53784513D01*
X32427715Y-53320100D01*
X32491517Y-53244727D01*
X33465511Y-52207165D01*
X34584800Y-51200671D01*
X35827706Y-50238892D01*
X37172547Y-49335475D01*
X38597643Y-48504067D01*
X40081316Y-47758316D01*
X41601884Y-47111869D01*
X43137667Y-46578373D01*
X43264060Y-46540657D01*
X43600488Y-46446302D01*
X44008314Y-46337422D01*
X44453977Y-46222373D01*
X44903916Y-46109510D01*
X45324572Y-46007189D01*
X45682382Y-45923766D01*
X45943787Y-45867594D01*
X46075225Y-45847031D01*
X46083846Y-45861579D01*
G37*
G36*
X71958542Y-60505986D02*
G01*
X72037698Y-60634084D01*
X72147496Y-60893659D01*
X72280371Y-61260402D01*
X72428757Y-61710002D01*
X72585089Y-62218147D01*
X72741801Y-62760527D01*
X72891327Y-63312832D01*
X73026103Y-63850750D01*
X73138561Y-64349970D01*
X73150275Y-64406142D01*
X73378493Y-65634281D01*
X73532474Y-66785469D01*
X73619483Y-67928041D01*
X73646784Y-69130333D01*
X73646762Y-69171639D01*
X73639934Y-69850585D01*
X73620947Y-70362588D01*
X73589840Y-70706993D01*
X73546649Y-70883148D01*
X73512597Y-70937640D01*
X73407233Y-71023837D01*
X73224453Y-71072961D01*
X72918339Y-71100929D01*
X72795319Y-71106380D01*
X72479705Y-71112747D01*
X72079178Y-71114592D01*
X71625519Y-71112441D01*
X71150508Y-71106824D01*
X70685928Y-71098269D01*
X70263557Y-71087304D01*
X69915178Y-71074457D01*
X69672570Y-71060257D01*
X69567515Y-71045231D01*
X69489127Y-71024533D01*
X69282361Y-70990988D01*
X69003334Y-70956237D01*
X68777197Y-70929569D01*
X67940869Y-70805114D01*
X67041649Y-70637017D01*
X66152816Y-70438586D01*
X66095949Y-70424629D01*
X65613742Y-70298520D01*
X65110209Y-70155025D01*
X64611741Y-70002975D01*
X64144726Y-69851201D01*
X63735556Y-69708531D01*
X63410618Y-69583797D01*
X63196303Y-69485828D01*
X63119000Y-69423454D01*
X63120535Y-69416917D01*
X63206283Y-69325452D01*
X63404168Y-69166578D01*
X63687395Y-68960757D01*
X64029167Y-68728448D01*
X64399679Y-68479842D01*
X65330255Y-67810449D01*
X66217324Y-67099580D01*
X67103364Y-66312035D01*
X68030854Y-65412618D01*
X68812462Y-64600354D01*
X69757905Y-63524639D01*
X70591200Y-62453517D01*
X71338787Y-61354554D01*
X71339975Y-61352683D01*
X71555046Y-61020987D01*
X71739730Y-60749070D01*
X71874397Y-60564967D01*
X71939417Y-60496715D01*
X71958542Y-60505986D01*
G37*
G36*
X72684895Y-45481353D02*
G01*
X73056882Y-45502713D01*
X73292831Y-45535947D01*
X73351735Y-45552055D01*
X73432301Y-45593250D01*
X73485812Y-45676563D01*
X73521694Y-45833714D01*
X73549375Y-46096422D01*
X73578282Y-46496409D01*
X73593064Y-46753991D01*
X73599770Y-47949785D01*
X73516448Y-49244556D01*
X73347889Y-50605324D01*
X73098883Y-51999108D01*
X72774223Y-53392927D01*
X72378699Y-54753801D01*
X72320382Y-54932678D01*
X72187746Y-55322675D01*
X72073420Y-55636149D01*
X71988033Y-55844701D01*
X71942216Y-55919932D01*
X71881646Y-55865382D01*
X71759182Y-55700217D01*
X71607280Y-55463430D01*
X71206484Y-54830395D01*
X70233399Y-53478653D01*
X69124156Y-52153857D01*
X67901300Y-50878708D01*
X66587378Y-49675909D01*
X65204934Y-48568163D01*
X63776513Y-47578171D01*
X63625143Y-47480041D01*
X63366425Y-47305174D01*
X63187509Y-47174290D01*
X63120347Y-47110178D01*
X63134346Y-47088431D01*
X63274585Y-47013077D01*
X63546399Y-46909230D01*
X63926249Y-46783362D01*
X64390595Y-46641945D01*
X64915900Y-46491452D01*
X65478624Y-46338354D01*
X66055227Y-46189125D01*
X66622173Y-46050235D01*
X67155920Y-45928158D01*
X67632931Y-45829365D01*
X68029667Y-45760328D01*
X68056381Y-45756341D01*
X68395639Y-45705007D01*
X68689274Y-45659439D01*
X68876334Y-45629086D01*
X69029675Y-45606131D01*
X69434681Y-45563762D01*
X69933460Y-45528421D01*
X70493181Y-45500799D01*
X71081015Y-45481589D01*
X71664132Y-45471483D01*
X72209702Y-45471173D01*
X72684895Y-45481353D01*
G37*
G36*
X60994609Y-26749062D02*
G01*
X61230579Y-26838826D01*
X61529219Y-26998652D01*
X61927890Y-27227264D01*
X62837127Y-27765460D01*
X64210480Y-28668097D01*
X65438884Y-29594923D01*
X66514239Y-30539653D01*
X67428446Y-31496000D01*
X68582353Y-32937035D01*
X69697118Y-34569112D01*
X70689249Y-36287441D01*
X71547076Y-38069825D01*
X72258930Y-39894067D01*
X72813139Y-41737968D01*
X72824186Y-41781350D01*
X72934806Y-42229046D01*
X73033131Y-42649289D01*
X73108829Y-42996661D01*
X73151570Y-43225745D01*
X73208236Y-43610157D01*
X71825451Y-43597704D01*
X70987417Y-43603106D01*
X68961494Y-43724653D01*
X66981570Y-43998139D01*
X65066334Y-44421286D01*
X64868442Y-44475324D01*
X64335525Y-44632650D01*
X63753367Y-44817897D01*
X63157313Y-45018663D01*
X62582705Y-45222541D01*
X62064888Y-45417127D01*
X61639205Y-45590016D01*
X61341000Y-45728803D01*
X61205911Y-45793301D01*
X60961563Y-45878424D01*
X60790667Y-45897546D01*
X60694232Y-45869184D01*
X60458867Y-45783949D01*
X60138838Y-45658764D01*
X59774667Y-45509122D01*
X59413098Y-45360276D01*
X57654787Y-44727608D01*
X55875259Y-44240914D01*
X54052195Y-43895779D01*
X52163274Y-43687788D01*
X50186178Y-43612527D01*
X49652326Y-43608812D01*
X49181004Y-43601974D01*
X48840961Y-43590862D01*
X48611869Y-43573886D01*
X48473399Y-43549457D01*
X48405222Y-43515987D01*
X48387011Y-43471887D01*
X48389528Y-43444406D01*
X48421881Y-43268211D01*
X48485702Y-42973049D01*
X48573577Y-42592352D01*
X48678089Y-42159553D01*
X48757811Y-41844464D01*
X49362269Y-39847138D01*
X50120178Y-37919962D01*
X51030027Y-36066420D01*
X52090305Y-34290000D01*
X52835318Y-33208437D01*
X53750910Y-32036735D01*
X54720719Y-30968791D01*
X55767763Y-29983207D01*
X56915058Y-29058587D01*
X58185622Y-28173534D01*
X59602472Y-27306652D01*
X59930252Y-27116132D01*
X60289131Y-26912895D01*
X60561245Y-26784821D01*
X60783951Y-26730635D01*
X60994609Y-26749062D01*
G37*
G36*
X60780272Y-70666498D02*
G01*
X60983236Y-70732062D01*
X61276691Y-70841666D01*
X61620484Y-70980788D01*
X61717047Y-71021052D01*
X63605926Y-71723437D01*
X65506914Y-72265897D01*
X67439035Y-72652277D01*
X69421316Y-72886424D01*
X71472783Y-72972183D01*
X71581441Y-72972943D01*
X72092171Y-72979119D01*
X72538234Y-72988681D01*
X72893462Y-73000781D01*
X73131690Y-73014567D01*
X73226750Y-73029189D01*
X73231395Y-73035299D01*
X73241158Y-73171644D01*
X73201732Y-73442635D01*
X73119632Y-73825886D01*
X73001372Y-74299014D01*
X72853465Y-74839634D01*
X72682427Y-75425362D01*
X72494771Y-76033813D01*
X72297011Y-76642603D01*
X72095662Y-77229348D01*
X71897237Y-77771664D01*
X71708251Y-78247165D01*
X71699822Y-78267252D01*
X71171103Y-79424820D01*
X70553939Y-80603482D01*
X69868600Y-81772046D01*
X69135355Y-82899322D01*
X68374476Y-83954118D01*
X67606231Y-84905245D01*
X66850891Y-85721511D01*
X66269069Y-86269402D01*
X65297887Y-87082347D01*
X64210588Y-87889635D01*
X63037071Y-88669461D01*
X61807235Y-89400016D01*
X61497636Y-89569287D01*
X61192630Y-89727114D01*
X60966162Y-89834210D01*
X60852320Y-89873666D01*
X60803846Y-89865746D01*
X60599075Y-89788101D01*
X60290085Y-89639846D01*
X59903575Y-89436091D01*
X59466243Y-89191949D01*
X59004788Y-88922528D01*
X58545908Y-88642939D01*
X58116301Y-88368293D01*
X57742667Y-88113700D01*
X57019804Y-87585883D01*
X56174720Y-86929477D01*
X55427176Y-86302241D01*
X54795250Y-85719480D01*
X54297022Y-85196500D01*
X53178205Y-83826667D01*
X51987058Y-82131080D01*
X50947802Y-80361998D01*
X50058023Y-78514825D01*
X49315310Y-76584967D01*
X48717251Y-74567827D01*
X48653710Y-74315423D01*
X48548137Y-73878641D01*
X48463591Y-73506050D01*
X48407464Y-73230830D01*
X48387149Y-73086160D01*
X48387297Y-72898000D01*
X50228649Y-72892737D01*
X50893315Y-72886652D01*
X51606667Y-72865941D01*
X52267929Y-72826529D01*
X52931482Y-72764068D01*
X53651712Y-72674210D01*
X54483000Y-72552607D01*
X54926744Y-72471466D01*
X55576093Y-72324214D01*
X56311371Y-72134150D01*
X57093727Y-71912773D01*
X57884311Y-71671583D01*
X58644273Y-71422080D01*
X59334762Y-71175764D01*
X59916927Y-70944135D01*
X60038106Y-70893096D01*
X60345926Y-70771073D01*
X60587176Y-70686173D01*
X60717820Y-70654333D01*
X60780272Y-70666498D01*
G37*
G36*
X50349469Y-45474799D02*
G01*
X50851360Y-45480166D01*
X51306880Y-45490810D01*
X51682078Y-45506782D01*
X51943000Y-45528133D01*
X52836426Y-45646157D01*
X53649863Y-45769740D01*
X54394237Y-45903049D01*
X55120599Y-46055257D01*
X55880000Y-46235537D01*
X56007511Y-46268523D01*
X56350855Y-46364983D01*
X56748446Y-46484278D01*
X57169351Y-46616240D01*
X57582636Y-46750701D01*
X57957367Y-46877493D01*
X58262612Y-46986448D01*
X58467437Y-47067399D01*
X58540908Y-47110178D01*
X58534084Y-47119684D01*
X58427564Y-47204739D01*
X58212150Y-47357613D01*
X57913860Y-47560185D01*
X57558709Y-47794333D01*
X57186486Y-48041751D01*
X55639249Y-49186840D01*
X54168751Y-50464550D01*
X52796460Y-51853535D01*
X51543845Y-53332450D01*
X50432372Y-54879951D01*
X50277319Y-55114379D01*
X50040621Y-55464952D01*
X49844859Y-55745828D01*
X49707023Y-55932831D01*
X49644099Y-56001784D01*
X49639065Y-56000415D01*
X49581968Y-55904098D01*
X49490402Y-55675641D01*
X49372892Y-55342293D01*
X49237962Y-54931300D01*
X49094136Y-54469910D01*
X48949938Y-53985371D01*
X48813892Y-53504930D01*
X48694521Y-53055835D01*
X48600349Y-52665333D01*
X48430924Y-51850695D01*
X48196160Y-50432261D01*
X48044574Y-49059077D01*
X47979319Y-47763308D01*
X48003548Y-46577120D01*
X48027091Y-46213098D01*
X48052591Y-45911384D01*
X48083281Y-45722884D01*
X48127467Y-45617294D01*
X48193455Y-45564309D01*
X48289550Y-45533623D01*
X48332777Y-45525332D01*
X48557240Y-45505080D01*
X48905093Y-45489849D01*
X49342383Y-45479692D01*
X49835159Y-45474658D01*
X50349469Y-45474799D01*
G37*
G36*
X61033372Y-48221216D02*
G01*
X61355247Y-48360308D01*
X61791113Y-48585285D01*
X62353363Y-48901718D01*
X62600487Y-49048666D01*
X63218145Y-49443198D01*
X63887341Y-49901962D01*
X64575067Y-50400098D01*
X65248317Y-50912748D01*
X65874086Y-51415053D01*
X66419366Y-51882156D01*
X66851152Y-52289197D01*
X67039458Y-52484214D01*
X67708283Y-53237435D01*
X68398063Y-54098010D01*
X69080230Y-55025923D01*
X69726213Y-55981158D01*
X70307443Y-56923701D01*
X70795350Y-57813536D01*
X71003322Y-58223073D01*
X70488923Y-59152952D01*
X69848724Y-60253584D01*
X68913709Y-61668723D01*
X67913828Y-62959918D01*
X66831927Y-64144037D01*
X65650849Y-65237946D01*
X64353440Y-66258514D01*
X62922542Y-67222607D01*
X61341000Y-68147093D01*
X61297888Y-68170666D01*
X61036920Y-68311854D01*
X60847141Y-68411996D01*
X60767086Y-68450707D01*
X60732721Y-68442036D01*
X60570453Y-68368984D01*
X60310348Y-68236157D01*
X59984505Y-68060978D01*
X59625023Y-67860867D01*
X59264001Y-67653246D01*
X58933536Y-67455538D01*
X57777653Y-66709130D01*
X56519682Y-65791720D01*
X55395855Y-64842106D01*
X54386922Y-63843805D01*
X53473634Y-62780333D01*
X53163970Y-62377592D01*
X52779887Y-61850966D01*
X52392288Y-61293982D01*
X52014177Y-60727468D01*
X51658558Y-60172253D01*
X51338436Y-59649167D01*
X51066815Y-59179036D01*
X50856699Y-58782691D01*
X50721092Y-58480959D01*
X50673000Y-58294670D01*
X50691386Y-58206059D01*
X50788544Y-57966151D01*
X50957629Y-57624035D01*
X51185546Y-57203570D01*
X51459199Y-56728614D01*
X51765492Y-56223027D01*
X52091330Y-55710666D01*
X52852157Y-54604337D01*
X53769586Y-53431223D01*
X54738786Y-52369534D01*
X55789123Y-51389945D01*
X56949962Y-50463131D01*
X58250667Y-49559769D01*
X58351471Y-49494285D01*
X58848008Y-49180726D01*
X59339913Y-48883404D01*
X59799875Y-48617769D01*
X60200584Y-48399274D01*
X60514731Y-48243370D01*
X60715004Y-48165508D01*
X60813093Y-48162440D01*
X61033372Y-48221216D01*
G37*
G36*
X75755635Y-45881811D02*
G01*
X75871764Y-45902524D01*
X76177807Y-45966186D01*
X76560026Y-46052989D01*
X76962000Y-46150371D01*
X78776364Y-46672725D01*
X80725976Y-47397089D01*
X82599014Y-48271953D01*
X84397891Y-49298578D01*
X86125016Y-50478225D01*
X87782801Y-51812155D01*
X87942892Y-51956083D01*
X88473185Y-52488091D01*
X89047159Y-53135157D01*
X89643533Y-53868448D01*
X90241024Y-54659130D01*
X90818349Y-55478368D01*
X91354228Y-56297330D01*
X91827377Y-57087182D01*
X92216515Y-57819089D01*
X92455224Y-58305808D01*
X92074612Y-59035429D01*
X92048404Y-59085384D01*
X91627264Y-59830905D01*
X91124032Y-60635331D01*
X90564281Y-61463250D01*
X89973584Y-62279250D01*
X89377516Y-63047919D01*
X88801649Y-63733844D01*
X88271557Y-64301613D01*
X88063995Y-64502586D01*
X87456452Y-65044907D01*
X86748417Y-65623846D01*
X85975839Y-66210672D01*
X85174667Y-66776656D01*
X84204080Y-67404080D01*
X82406436Y-68409793D01*
X80530695Y-69267167D01*
X78585394Y-69972482D01*
X76579073Y-70522016D01*
X76289936Y-70588027D01*
X75958275Y-70661355D01*
X75714150Y-70712474D01*
X75596207Y-70733086D01*
X75572553Y-70705698D01*
X75542579Y-70560485D01*
X75516878Y-70282273D01*
X75494879Y-69861981D01*
X75476011Y-69290527D01*
X75459705Y-68558833D01*
X75447363Y-67990525D01*
X75424472Y-67277597D01*
X75393765Y-66675911D01*
X75352903Y-66150970D01*
X75299546Y-65668276D01*
X75231351Y-65193333D01*
X75167423Y-64811780D01*
X74913537Y-63560504D01*
X74592395Y-62281335D01*
X74218273Y-61023503D01*
X73805450Y-59836239D01*
X73368202Y-58768773D01*
X73111229Y-58196029D01*
X73460855Y-57376681D01*
X73601076Y-57035398D01*
X73880601Y-56291825D01*
X74161696Y-55471990D01*
X74425886Y-54633234D01*
X74654694Y-53832901D01*
X74829646Y-53128333D01*
X75001359Y-52280603D01*
X75186915Y-51138091D01*
X75328655Y-49977996D01*
X75422271Y-48844200D01*
X75463455Y-47780585D01*
X75447899Y-46831033D01*
X75395935Y-45825400D01*
X75755635Y-45881811D01*
G37*
G36*
X49701124Y-60632147D02*
G01*
X49823057Y-60796415D01*
X49973709Y-61033089D01*
X50588127Y-61987835D01*
X51507107Y-63226224D01*
X52547388Y-64451900D01*
X53683815Y-65638927D01*
X54891233Y-66761369D01*
X56144484Y-67793290D01*
X57418414Y-68708754D01*
X57479581Y-68749630D01*
X57814138Y-68980605D01*
X58085987Y-69180537D01*
X58268571Y-69329220D01*
X58335334Y-69406445D01*
X58331997Y-69424572D01*
X58281533Y-69479909D01*
X58156515Y-69546975D01*
X57939178Y-69632330D01*
X57611758Y-69742535D01*
X57156493Y-69884151D01*
X56555619Y-70063738D01*
X56302396Y-70137159D01*
X55441864Y-70364575D01*
X54562468Y-70560347D01*
X53626598Y-70731561D01*
X52596645Y-70885306D01*
X51435000Y-71028667D01*
X51336227Y-71037468D01*
X51027282Y-71050382D01*
X50630843Y-71053951D01*
X50179012Y-71049299D01*
X49703894Y-71037552D01*
X49237591Y-71019837D01*
X48812207Y-70997279D01*
X48459846Y-70971003D01*
X48212611Y-70942136D01*
X48102605Y-70911804D01*
X48071941Y-70832272D01*
X48043322Y-70607438D01*
X48024113Y-70235354D01*
X48013966Y-69708727D01*
X48012534Y-69020266D01*
X48018385Y-68476282D01*
X48051974Y-67549866D01*
X48120508Y-66687158D01*
X48230380Y-65832692D01*
X48387984Y-64931006D01*
X48599714Y-63926635D01*
X48603493Y-63909849D01*
X48702695Y-63499983D01*
X48825572Y-63036797D01*
X48963692Y-62547404D01*
X49108628Y-62058916D01*
X49251949Y-61598446D01*
X49385227Y-61193107D01*
X49500032Y-60870011D01*
X49587934Y-60656271D01*
X49640504Y-60579000D01*
X49701124Y-60632147D01*
G37*
G36*
X46083846Y-45861579D02*
G01*
X46103594Y-46005881D01*
X46121333Y-46285033D01*
X46136045Y-46674729D01*
X46146714Y-47150664D01*
X46152320Y-47688531D01*
X46189437Y-49102146D01*
X46301270Y-50525114D01*
X46495703Y-51903667D01*
X46780995Y-53295446D01*
X47165406Y-54758096D01*
X47235713Y-54994285D01*
X47405990Y-55524750D01*
X47602066Y-56094367D01*
X47809074Y-56662861D01*
X48012144Y-57189956D01*
X48196409Y-57635376D01*
X48347000Y-57958845D01*
X48393263Y-58054627D01*
X48421026Y-58154108D01*
X48418487Y-58274412D01*
X48379090Y-58442804D01*
X48296278Y-58686546D01*
X48163494Y-59032904D01*
X47974182Y-59509142D01*
X47868460Y-59777479D01*
X47241093Y-61566947D01*
X46762655Y-63334550D01*
X46426344Y-65115181D01*
X46225363Y-66943735D01*
X46152910Y-68855107D01*
X46149154Y-69380521D01*
X46142236Y-69854285D01*
X46131080Y-70196394D01*
X46114101Y-70427149D01*
X46089713Y-70566847D01*
X46056332Y-70635789D01*
X46012370Y-70654273D01*
X45921046Y-70647354D01*
X45645149Y-70601242D01*
X45258001Y-70518682D01*
X44792615Y-70407700D01*
X44282000Y-70276318D01*
X43759168Y-70132564D01*
X43257129Y-69984462D01*
X43106802Y-69937814D01*
X41137577Y-69233903D01*
X39249023Y-68383138D01*
X37446468Y-67388437D01*
X35735241Y-66252719D01*
X34120667Y-64978903D01*
X33621420Y-64525798D01*
X32774538Y-63650373D01*
X31928719Y-62648762D01*
X31103568Y-61546250D01*
X30318686Y-60368123D01*
X29593677Y-59139666D01*
X29148916Y-58335333D01*
X29518125Y-57620887D01*
X29635306Y-57402922D01*
X29941727Y-56878220D01*
X30318986Y-56274864D01*
X30743079Y-55628333D01*
X31190002Y-54974111D01*
X31635752Y-54347677D01*
X32056324Y-53784513D01*
X32427715Y-53320100D01*
X32491517Y-53244727D01*
X33465511Y-52207165D01*
X34584800Y-51200671D01*
X35827706Y-50238892D01*
X37172547Y-49335475D01*
X38597643Y-48504067D01*
X40081316Y-47758316D01*
X41601884Y-47111869D01*
X43137667Y-46578373D01*
X43264060Y-46540657D01*
X43600488Y-46446302D01*
X44008314Y-46337422D01*
X44453977Y-46222373D01*
X44903916Y-46109510D01*
X45324572Y-46007189D01*
X45682382Y-45923766D01*
X45943787Y-45867594D01*
X46075225Y-45847031D01*
X46083846Y-45861579D01*
G37*
G36*
X71958542Y-60505986D02*
G01*
X72037698Y-60634084D01*
X72147496Y-60893659D01*
X72280371Y-61260402D01*
X72428757Y-61710002D01*
X72585089Y-62218147D01*
X72741801Y-62760527D01*
X72891327Y-63312832D01*
X73026103Y-63850750D01*
X73138561Y-64349970D01*
X73150275Y-64406142D01*
X73378493Y-65634281D01*
X73532474Y-66785469D01*
X73619483Y-67928041D01*
X73646784Y-69130333D01*
X73646762Y-69171639D01*
X73639934Y-69850585D01*
X73620947Y-70362588D01*
X73589840Y-70706993D01*
X73546649Y-70883148D01*
X73512597Y-70937640D01*
X73407233Y-71023837D01*
X73224453Y-71072961D01*
X72918339Y-71100929D01*
X72795319Y-71106380D01*
X72479705Y-71112747D01*
X72079178Y-71114592D01*
X71625519Y-71112441D01*
X71150508Y-71106824D01*
X70685928Y-71098269D01*
X70263557Y-71087304D01*
X69915178Y-71074457D01*
X69672570Y-71060257D01*
X69567515Y-71045231D01*
X69489127Y-71024533D01*
X69282361Y-70990988D01*
X69003334Y-70956237D01*
X68777197Y-70929569D01*
X67940869Y-70805114D01*
X67041649Y-70637017D01*
X66152816Y-70438586D01*
X66095949Y-70424629D01*
X65613742Y-70298520D01*
X65110209Y-70155025D01*
X64611741Y-70002975D01*
X64144726Y-69851201D01*
X63735556Y-69708531D01*
X63410618Y-69583797D01*
X63196303Y-69485828D01*
X63119000Y-69423454D01*
X63120535Y-69416917D01*
X63206283Y-69325452D01*
X63404168Y-69166578D01*
X63687395Y-68960757D01*
X64029167Y-68728448D01*
X64399679Y-68479842D01*
X65330255Y-67810449D01*
X66217324Y-67099580D01*
X67103364Y-66312035D01*
X68030854Y-65412618D01*
X68812462Y-64600354D01*
X69757905Y-63524639D01*
X70591200Y-62453517D01*
X71338787Y-61354554D01*
X71339975Y-61352683D01*
X71555046Y-61020987D01*
X71739730Y-60749070D01*
X71874397Y-60564967D01*
X71939417Y-60496715D01*
X71958542Y-60505986D01*
G37*
G36*
X72684895Y-45481353D02*
G01*
X73056882Y-45502713D01*
X73292831Y-45535947D01*
X73351735Y-45552055D01*
X73432301Y-45593250D01*
X73485812Y-45676563D01*
X73521694Y-45833714D01*
X73549375Y-46096422D01*
X73578282Y-46496409D01*
X73593064Y-46753991D01*
X73599770Y-47949785D01*
X73516448Y-49244556D01*
X73347889Y-50605324D01*
X73098883Y-51999108D01*
X72774223Y-53392927D01*
X72378699Y-54753801D01*
X72320382Y-54932678D01*
X72187746Y-55322675D01*
X72073420Y-55636149D01*
X71988033Y-55844701D01*
X71942216Y-55919932D01*
X71881646Y-55865382D01*
X71759182Y-55700217D01*
X71607280Y-55463430D01*
X71206484Y-54830395D01*
X70233399Y-53478653D01*
X69124156Y-52153857D01*
X67901300Y-50878708D01*
X66587378Y-49675909D01*
X65204934Y-48568163D01*
X63776513Y-47578171D01*
X63625143Y-47480041D01*
X63366425Y-47305174D01*
X63187509Y-47174290D01*
X63120347Y-47110178D01*
X63134346Y-47088431D01*
X63274585Y-47013077D01*
X63546399Y-46909230D01*
X63926249Y-46783362D01*
X64390595Y-46641945D01*
X64915900Y-46491452D01*
X65478624Y-46338354D01*
X66055227Y-46189125D01*
X66622173Y-46050235D01*
X67155920Y-45928158D01*
X67632931Y-45829365D01*
X68029667Y-45760328D01*
X68056381Y-45756341D01*
X68395639Y-45705007D01*
X68689274Y-45659439D01*
X68876334Y-45629086D01*
X69029675Y-45606131D01*
X69434681Y-45563762D01*
X69933460Y-45528421D01*
X70493181Y-45500799D01*
X71081015Y-45481589D01*
X71664132Y-45471483D01*
X72209702Y-45471173D01*
X72684895Y-45481353D01*
G37*
G36*
X60994609Y-26749062D02*
G01*
X61230579Y-26838826D01*
X61529219Y-26998652D01*
X61927890Y-27227264D01*
X62837127Y-27765460D01*
X64210480Y-28668097D01*
X65438884Y-29594923D01*
X66514239Y-30539653D01*
X67428446Y-31496000D01*
X68582353Y-32937035D01*
X69697118Y-34569112D01*
X70689249Y-36287441D01*
X71547076Y-38069825D01*
X72258930Y-39894067D01*
X72813139Y-41737968D01*
X72824186Y-41781350D01*
X72934806Y-42229046D01*
X73033131Y-42649289D01*
X73108829Y-42996661D01*
X73151570Y-43225745D01*
X73208236Y-43610157D01*
X71825451Y-43597704D01*
X70987417Y-43603106D01*
X68961494Y-43724653D01*
X66981570Y-43998139D01*
X65066334Y-44421286D01*
X64868442Y-44475324D01*
X64335525Y-44632650D01*
X63753367Y-44817897D01*
X63157313Y-45018663D01*
X62582705Y-45222541D01*
X62064888Y-45417127D01*
X61639205Y-45590016D01*
X61341000Y-45728803D01*
X61205911Y-45793301D01*
X60961563Y-45878424D01*
X60790667Y-45897546D01*
X60694232Y-45869184D01*
X60458867Y-45783949D01*
X60138838Y-45658764D01*
X59774667Y-45509122D01*
X59413098Y-45360276D01*
X57654787Y-44727608D01*
X55875259Y-44240914D01*
X54052195Y-43895779D01*
X52163274Y-43687788D01*
X50186178Y-43612527D01*
X49652326Y-43608812D01*
X49181004Y-43601974D01*
X48840961Y-43590862D01*
X48611869Y-43573886D01*
X48473399Y-43549457D01*
X48405222Y-43515987D01*
X48387011Y-43471887D01*
X48389528Y-43444406D01*
X48421881Y-43268211D01*
X48485702Y-42973049D01*
X48573577Y-42592352D01*
X48678089Y-42159553D01*
X48757811Y-41844464D01*
X49362269Y-39847138D01*
X50120178Y-37919962D01*
X51030027Y-36066420D01*
X52090305Y-34290000D01*
X52835318Y-33208437D01*
X53750910Y-32036735D01*
X54720719Y-30968791D01*
X55767763Y-29983207D01*
X56915058Y-29058587D01*
X58185622Y-28173534D01*
X59602472Y-27306652D01*
X59930252Y-27116132D01*
X60289131Y-26912895D01*
X60561245Y-26784821D01*
X60783951Y-26730635D01*
X60994609Y-26749062D01*
G37*
G36*
X60780272Y-70666498D02*
G01*
X60983236Y-70732062D01*
X61276691Y-70841666D01*
X61620484Y-70980788D01*
X61717047Y-71021052D01*
X63605926Y-71723437D01*
X65506914Y-72265897D01*
X67439035Y-72652277D01*
X69421316Y-72886424D01*
X71472783Y-72972183D01*
X71581441Y-72972943D01*
X72092171Y-72979119D01*
X72538234Y-72988681D01*
X72893462Y-73000781D01*
X73131690Y-73014567D01*
X73226750Y-73029189D01*
X73231395Y-73035299D01*
X73241158Y-73171644D01*
X73201732Y-73442635D01*
X73119632Y-73825886D01*
X73001372Y-74299014D01*
X72853465Y-74839634D01*
X72682427Y-75425362D01*
X72494771Y-76033813D01*
X72297011Y-76642603D01*
X72095662Y-77229348D01*
X71897237Y-77771664D01*
X71708251Y-78247165D01*
X71699822Y-78267252D01*
X71171103Y-79424820D01*
X70553939Y-80603482D01*
X69868600Y-81772046D01*
X69135355Y-82899322D01*
X68374476Y-83954118D01*
X67606231Y-84905245D01*
X66850891Y-85721511D01*
X66269069Y-86269402D01*
X65297887Y-87082347D01*
X64210588Y-87889635D01*
X63037071Y-88669461D01*
X61807235Y-89400016D01*
X61497636Y-89569287D01*
X61192630Y-89727114D01*
X60966162Y-89834210D01*
X60852320Y-89873666D01*
X60803846Y-89865746D01*
X60599075Y-89788101D01*
X60290085Y-89639846D01*
X59903575Y-89436091D01*
X59466243Y-89191949D01*
X59004788Y-88922528D01*
X58545908Y-88642939D01*
X58116301Y-88368293D01*
X57742667Y-88113700D01*
X57019804Y-87585883D01*
X56174720Y-86929477D01*
X55427176Y-86302241D01*
X54795250Y-85719480D01*
X54297022Y-85196500D01*
X53178205Y-83826667D01*
X51987058Y-82131080D01*
X50947802Y-80361998D01*
X50058023Y-78514825D01*
X49315310Y-76584967D01*
X48717251Y-74567827D01*
X48653710Y-74315423D01*
X48548137Y-73878641D01*
X48463591Y-73506050D01*
X48407464Y-73230830D01*
X48387149Y-73086160D01*
X48387297Y-72898000D01*
X50228649Y-72892737D01*
X50893315Y-72886652D01*
X51606667Y-72865941D01*
X52267929Y-72826529D01*
X52931482Y-72764068D01*
X53651712Y-72674210D01*
X54483000Y-72552607D01*
X54926744Y-72471466D01*
X55576093Y-72324214D01*
X56311371Y-72134150D01*
X57093727Y-71912773D01*
X57884311Y-71671583D01*
X58644273Y-71422080D01*
X59334762Y-71175764D01*
X59916927Y-70944135D01*
X60038106Y-70893096D01*
X60345926Y-70771073D01*
X60587176Y-70686173D01*
X60717820Y-70654333D01*
X60780272Y-70666498D01*
G37*
G36*
X50349469Y-45474799D02*
G01*
X50851360Y-45480166D01*
X51306880Y-45490810D01*
X51682078Y-45506782D01*
X51943000Y-45528133D01*
X52836426Y-45646157D01*
X53649863Y-45769740D01*
X54394237Y-45903049D01*
X55120599Y-46055257D01*
X55880000Y-46235537D01*
X56007511Y-46268523D01*
X56350855Y-46364983D01*
X56748446Y-46484278D01*
X57169351Y-46616240D01*
X57582636Y-46750701D01*
X57957367Y-46877493D01*
X58262612Y-46986448D01*
X58467437Y-47067399D01*
X58540908Y-47110178D01*
X58534084Y-47119684D01*
X58427564Y-47204739D01*
X58212150Y-47357613D01*
X57913860Y-47560185D01*
X57558709Y-47794333D01*
X57186486Y-48041751D01*
X55639249Y-49186840D01*
X54168751Y-50464550D01*
X52796460Y-51853535D01*
X51543845Y-53332450D01*
X50432372Y-54879951D01*
X50277319Y-55114379D01*
X50040621Y-55464952D01*
X49844859Y-55745828D01*
X49707023Y-55932831D01*
X49644099Y-56001784D01*
X49639065Y-56000415D01*
X49581968Y-55904098D01*
X49490402Y-55675641D01*
X49372892Y-55342293D01*
X49237962Y-54931300D01*
X49094136Y-54469910D01*
X48949938Y-53985371D01*
X48813892Y-53504930D01*
X48694521Y-53055835D01*
X48600349Y-52665333D01*
X48430924Y-51850695D01*
X48196160Y-50432261D01*
X48044574Y-49059077D01*
X47979319Y-47763308D01*
X48003548Y-46577120D01*
X48027091Y-46213098D01*
X48052591Y-45911384D01*
X48083281Y-45722884D01*
X48127467Y-45617294D01*
X48193455Y-45564309D01*
X48289550Y-45533623D01*
X48332777Y-45525332D01*
X48557240Y-45505080D01*
X48905093Y-45489849D01*
X49342383Y-45479692D01*
X49835159Y-45474658D01*
X50349469Y-45474799D01*
G37*
G36*
X61033372Y-48221216D02*
G01*
X61355247Y-48360308D01*
X61791113Y-48585285D01*
X62353363Y-48901718D01*
X62600487Y-49048666D01*
X63218145Y-49443198D01*
X63887341Y-49901962D01*
X64575067Y-50400098D01*
X65248317Y-50912748D01*
X65874086Y-51415053D01*
X66419366Y-51882156D01*
X66851152Y-52289197D01*
X67039458Y-52484214D01*
X67708283Y-53237435D01*
X68398063Y-54098010D01*
X69080230Y-55025923D01*
X69726213Y-55981158D01*
X70307443Y-56923701D01*
X70795350Y-57813536D01*
X71003322Y-58223073D01*
X70488923Y-59152952D01*
X69848724Y-60253584D01*
X68913709Y-61668723D01*
X67913828Y-62959918D01*
X66831927Y-64144037D01*
X65650849Y-65237946D01*
X64353440Y-66258514D01*
X62922542Y-67222607D01*
X61341000Y-68147093D01*
X61297888Y-68170666D01*
X61036920Y-68311854D01*
X60847141Y-68411996D01*
X60767086Y-68450707D01*
X60732721Y-68442036D01*
X60570453Y-68368984D01*
X60310348Y-68236157D01*
X59984505Y-68060978D01*
X59625023Y-67860867D01*
X59264001Y-67653246D01*
X58933536Y-67455538D01*
X57777653Y-66709130D01*
X56519682Y-65791720D01*
X55395855Y-64842106D01*
X54386922Y-63843805D01*
X53473634Y-62780333D01*
X53163970Y-62377592D01*
X52779887Y-61850966D01*
X52392288Y-61293982D01*
X52014177Y-60727468D01*
X51658558Y-60172253D01*
X51338436Y-59649167D01*
X51066815Y-59179036D01*
X50856699Y-58782691D01*
X50721092Y-58480959D01*
X50673000Y-58294670D01*
X50691386Y-58206059D01*
X50788544Y-57966151D01*
X50957629Y-57624035D01*
X51185546Y-57203570D01*
X51459199Y-56728614D01*
X51765492Y-56223027D01*
X52091330Y-55710666D01*
X52852157Y-54604337D01*
X53769586Y-53431223D01*
X54738786Y-52369534D01*
X55789123Y-51389945D01*
X56949962Y-50463131D01*
X58250667Y-49559769D01*
X58351471Y-49494285D01*
X58848008Y-49180726D01*
X59339913Y-48883404D01*
X59799875Y-48617769D01*
X60200584Y-48399274D01*
X60514731Y-48243370D01*
X60715004Y-48165508D01*
X60813093Y-48162440D01*
X61033372Y-48221216D01*
G37*
G36*
X75755635Y-45881811D02*
G01*
X75871764Y-45902524D01*
X76177807Y-45966186D01*
X76560026Y-46052989D01*
X76962000Y-46150371D01*
X78776364Y-46672725D01*
X80725976Y-47397089D01*
X82599014Y-48271953D01*
X84397891Y-49298578D01*
X86125016Y-50478225D01*
X87782801Y-51812155D01*
X87942892Y-51956083D01*
X88473185Y-52488091D01*
X89047159Y-53135157D01*
X89643533Y-53868448D01*
X90241024Y-54659130D01*
X90818349Y-55478368D01*
X91354228Y-56297330D01*
X91827377Y-57087182D01*
X92216515Y-57819089D01*
X92455224Y-58305808D01*
X92074612Y-59035429D01*
X92048404Y-59085384D01*
X91627264Y-59830905D01*
X91124032Y-60635331D01*
X90564281Y-61463250D01*
X89973584Y-62279250D01*
X89377516Y-63047919D01*
X88801649Y-63733844D01*
X88271557Y-64301613D01*
X88063995Y-64502586D01*
X87456452Y-65044907D01*
X86748417Y-65623846D01*
X85975839Y-66210672D01*
X85174667Y-66776656D01*
X84204080Y-67404080D01*
X82406436Y-68409793D01*
X80530695Y-69267167D01*
X78585394Y-69972482D01*
X76579073Y-70522016D01*
X76289936Y-70588027D01*
X75958275Y-70661355D01*
X75714150Y-70712474D01*
X75596207Y-70733086D01*
X75572553Y-70705698D01*
X75542579Y-70560485D01*
X75516878Y-70282273D01*
X75494879Y-69861981D01*
X75476011Y-69290527D01*
X75459705Y-68558833D01*
X75447363Y-67990525D01*
X75424472Y-67277597D01*
X75393765Y-66675911D01*
X75352903Y-66150970D01*
X75299546Y-65668276D01*
X75231351Y-65193333D01*
X75167423Y-64811780D01*
X74913537Y-63560504D01*
X74592395Y-62281335D01*
X74218273Y-61023503D01*
X73805450Y-59836239D01*
X73368202Y-58768773D01*
X73111229Y-58196029D01*
X73460855Y-57376681D01*
X73601076Y-57035398D01*
X73880601Y-56291825D01*
X74161696Y-55471990D01*
X74425886Y-54633234D01*
X74654694Y-53832901D01*
X74829646Y-53128333D01*
X75001359Y-52280603D01*
X75186915Y-51138091D01*
X75328655Y-49977996D01*
X75422271Y-48844200D01*
X75463455Y-47780585D01*
X75447899Y-46831033D01*
X75395935Y-45825400D01*
X75755635Y-45881811D01*
G37*
D10*
X67564000Y-98298000D03*
X81026000Y-98298000D03*
X40640000Y-98298000D03*
X54102000Y-98298000D03*
X40640000Y-113538000D03*
X94488000Y-113601500D03*
X81026000Y-113538000D03*
X54102000Y-113538000D03*
X67564000Y-113538000D03*
X27178000Y-113538000D03*
X40576500Y-128841500D03*
X54102000Y-128778000D03*
X67564000Y-128778000D03*
X27178000Y-128778000D03*
X94488000Y-128778000D03*
X81026000Y-128778000D03*
D11*
X93853000Y-143256000D03*
X93853000Y-20828000D03*
X27940000Y-20828000D03*
X27940000Y-143256000D03*
D10*
X27178000Y-98298000D03*
D12*
X38430200Y-80695800D03*
X38430200Y-35763200D03*
X83362800Y-35763200D03*
D10*
X94488000Y-98361500D03*
D12*
X83362800Y-80683100D03*
M02*
