M48
; DRILL file {KiCad (5.1.5-0)} date Monday, October 12, 2020 at 11:50:38 AM
; FORMAT={-:-/ absolute / inch / decimal}
; #@! TF.CreationDate,2020-10-12T11:50:38-05:00
; #@! TF.GenerationSoftware,Kicad,Pcbnew,(5.1.5-0)
; #@! TF.FileFunction,NonPlated,1,2,NPTH
FMAT,2
INCH
T1C0.1260
T2C0.2520
%
G90
G05
T2
X1.6Y-5.07
X1.07Y-5.07
X3.72Y-5.07
X2.13Y-5.07
X2.66Y-5.07
X3.1925Y-5.0725
X3.72Y-4.47
X2.13Y-4.47
X2.66Y-4.47
X1.6Y-4.47
X1.07Y-4.4725
X3.19Y-4.47
X3.72Y-3.87
X3.19Y-3.87
X2.66Y-3.87
X2.13Y-3.87
X3.28Y-1.42
X1.6Y-3.87
X1.49Y-1.42
X1.07Y-3.8725
X3.28Y-3.175
X1.49Y-3.175
T1
G00X3.625Y-5.64
M15
G01X3.755Y-5.64
M16
G05
G00X3.625Y-0.815
M15
G01X3.755Y-0.815
M16
G05
G00X1.03Y-0.82
M15
G01X1.16Y-0.82
M16
G05
G00X1.03Y-5.64
M15
G01X1.16Y-5.64
M16
G05
T0
M30
